<?xml version="1.0" standalone="no"?>
<!DOCTYPE svg PUBLIC "-//W3C//DTD SVG 20010904//EN"
 "http://www.w3.org/TR/2001/REC-SVG-20010904/DTD/svg10.dtd">
<svg version="1.0" xmlns="http://www.w3.org/2000/svg"
 width="1000.000000pt" height="2000.000000pt" viewBox="0 0 1000.000000 2000.000000"
 preserveAspectRatio="xMidYMid meet">
<metadata>
Created by potrace 1.16, written by Peter Selinger 2001-2019
</metadata>
<g transform="translate(0.000000,2000.000000) scale(0.100000,-0.100000)"
fill="#000000" stroke="none">
<path d="M3130 17042 c-8 -3 -28 -14 -44 -25 -16 -11 -48 -21 -71 -22 -23 -1
-51 -8 -63 -14 -12 -6 -22 -10 -22 -7 0 3 -13 -7 -28 -22 -15 -15 -26 -29 -25
-31 2 -2 -4 -13 -14 -23 -9 -10 -13 -18 -8 -18 4 0 1 -8 -6 -17 -12 -15 -12
-16 1 -8 13 8 13 7 1 -8 -7 -9 -11 -17 -8 -17 3 0 -1 -16 -9 -35 -8 -19 -11
-35 -8 -35 4 0 1 -7 -6 -15 -7 -8 -9 -15 -5 -15 4 0 2 -7 -5 -15 -7 -8 -9 -15
-5 -15 4 0 2 -7 -5 -15 -7 -8 -9 -15 -5 -15 4 0 2 -6 -4 -13 -6 -8 -12 -22
-14 -33 -2 -10 -7 -26 -10 -34 -4 -8 -8 -26 -11 -40 -6 -36 -28 -120 -31 -120
-2 0 -30 18 -64 41 -34 23 -66 37 -72 33 -7 -4 -9 -3 -6 3 3 5 -11 9 -34 9
-37 0 -40 -2 -52 -41 -6 -22 -31 -60 -54 -85 -96 -102 -123 -136 -128 -162 -4
-15 -10 -30 -15 -33 -12 -8 0 -75 18 -98 10 -11 32 -34 50 -51 17 -16 32 -33
32 -36 0 -4 -18 -20 -40 -35 -32 -22 -39 -32 -34 -49 4 -12 11 -23 15 -24 5
-2 7 -8 3 -13 -3 -5 0 -9 6 -9 6 0 8 -4 5 -10 -3 -5 -2 -10 3 -10 17 0 32 -46
19 -59 -9 -9 -9 -14 -1 -19 6 -4 11 -20 10 -37 -1 -16 2 -38 6 -47 5 -9 4 -20
-2 -23 -6 -4 4 -33 26 -76 20 -38 39 -67 43 -65 6 4 12 -22 14 -66 1 -10 5
-18 10 -18 4 0 6 -4 2 -10 -3 -5 2 -18 12 -28 10 -10 19 -27 20 -37 16 -155
17 -194 7 -204 -3 -3 -9 1 -13 8 -12 19 -57 6 -64 -19 -4 -15 -12 -18 -36 -15
-26 3 -34 -1 -41 -20 -7 -20 -14 -22 -45 -18 -31 4 -37 2 -42 -16 -3 -12 -10
-21 -17 -20 -26 3 -35 -2 -42 -23 -4 -13 -14 -28 -22 -34 -14 -10 -14 -14 1
-38 16 -24 15 -30 -6 -27 -4 1 -21 -6 -37 -14 -17 -9 -30 -13 -30 -11 0 6 -89
-33 -119 -53 -13 -8 -31 -16 -40 -18 -20 -3 -55 -20 -113 -57 -32 -20 -51 -39
-58 -62 -10 -30 -7 -121 6 -197 3 -18 -1 -34 -12 -44 -8 -9 -13 -24 -11 -34 3
-11 1 -21 -4 -24 -4 -3 -4 -18 2 -33 6 -15 12 -35 15 -46 3 -19 32 -45 49 -46
6 0 11 -12 12 -27 3 -40 12 -115 16 -134 4 -24 27 -49 43 -49 8 0 14 -4 14
-10 0 -5 11 -10 24 -10 17 0 26 -7 30 -23 6 -26 49 -77 65 -77 5 0 11 -5 13
-11 6 -19 125 -15 190 7 23 7 44 12 83 18 11 1 31 6 43 10 13 5 34 10 45 12
52 8 104 21 116 28 7 4 22 9 34 11 12 1 30 6 39 10 16 6 17 -1 13 -74 -3 -57
1 -92 11 -116 13 -32 18 -35 47 -31 17 2 40 7 50 11 9 4 23 3 30 -3 6 -6 28
-13 47 -15 19 -3 35 -6 35 -7 0 -1 11 -3 25 -4 14 -2 33 -6 43 -10 9 -5 29 -6
42 -4 14 3 25 2 25 -2 0 -4 19 -3 43 3 44 11 100 44 93 55 -2 4 1 18 7 32 5
14 12 36 14 50 8 46 22 53 60 30 20 -11 43 -18 53 -15 21 7 43 50 45 90 3 50
5 55 14 55 10 0 8 -21 -5 -54 -5 -14 -4 -17 4 -12 7 4 12 14 12 22 0 8 9 14
20 14 11 0 20 7 20 15 0 8 6 15 14 15 7 0 25 11 40 25 14 13 26 22 26 19 0
-15 42 22 56 49 9 18 21 34 25 37 5 3 10 16 12 28 2 13 19 36 38 51 19 16 43
45 54 64 10 20 30 42 44 49 40 20 112 81 108 92 -5 14 -54 18 -76 7 -37 -20
-28 1 17 42 26 23 49 45 50 50 2 4 10 13 17 21 18 18 36 84 24 92 -5 3 -9 2
-10 -3 -5 -68 -28 -100 -124 -178 -52 -43 -72 -55 -61 -37 3 5 -1 21 -9 36 -8
15 -14 30 -12 34 1 4 -4 21 -12 39 -12 29 -11 34 8 54 12 13 29 24 39 26 10 1
29 7 43 13 24 10 24 10 -3 5 -25 -5 -23 -1 21 40 58 54 73 106 35 124 -24 10
-118 -9 -137 -28 -6 -6 -20 -11 -32 -11 -15 1 -12 5 15 20 116 64 147 109 91
128 -25 9 -42 7 -89 -9 -85 -30 -112 -38 -112 -35 0 7 88 75 101 78 7 2 25 13
39 26 15 12 34 28 43 35 10 7 15 20 11 33 -10 36 -104 29 -180 -13 -22 -13
-23 -8 -9 63 5 22 45 41 45 22 0 -22 29 14 35 44 9 40 -17 66 -70 69 -31 3
-45 10 -62 33 -13 17 -23 26 -23 21 0 -5 -10 1 -23 13 -13 12 -26 19 -30 16
-3 -4 -4 4 -2 17 3 13 8 39 11 58 10 61 22 78 69 100 45 21 48 21 91 5 25 -9
47 -14 51 -10 4 3 17 -4 30 -16 13 -12 23 -19 23 -15 0 3 12 0 26 -7 27 -15
64 -10 64 7 0 6 -7 18 -16 28 -15 16 -14 19 15 34 35 18 36 22 16 49 -14 18
-12 22 16 48 25 23 29 31 19 43 -7 8 -9 15 -4 15 5 0 1 5 -9 11 -18 10 -18 12
-1 30 11 12 13 19 5 19 -7 0 -9 5 -6 10 3 6 1 10 -5 10 -6 0 -9 4 -6 9 4 5 1
11 -6 13 -7 3 7 15 30 28 l42 24 -26 34 -26 34 21 14 c19 14 20 17 6 44 -12
24 -12 30 -1 39 23 20 26 50 6 61 -18 10 -18 11 6 37 21 23 23 29 11 47 -15
23 -11 50 5 40 13 -9 2 13 -21 39 -9 11 -16 26 -16 35 0 19 -35 24 -47 7 -4
-5 -8 2 -8 16 0 14 3 29 7 33 8 7 9 17 17 91 15 135 21 227 17 288 -2 40 -57
91 -121 112 -3 1 -18 8 -35 15 -16 7 -32 14 -35 14 -14 3 -45 25 -42 30 6 15
0 24 -29 45 -18 13 -28 17 -24 10 8 -12 6 -12 -8 0 -19 15 -97 23 -97 9 0 -5
-4 -6 -10 -3 -5 3 -10 2 -10 -3 0 -9 -79 15 -116 35 -26 15 -64 22 -84 15z
m90 -43 c0 -4 -12 -6 -27 -6 -14 0 -32 -9 -40 -19 -7 -10 -13 -13 -13 -7 0 6
-3 19 -7 29 -4 11 -3 15 4 11 6 -4 16 -1 22 7 9 11 17 11 36 2 14 -6 25 -14
25 -17z m-97 -23 c7 3 3 -2 -7 -10 -23 -19 -31 -14 -21 11 5 12 9 14 12 5 3
-6 10 -10 16 -6z m166 1 c8 -11 5 -32 -13 -85 -14 -40 -23 -72 -20 -72 2 0 -2
-16 -10 -35 -8 -19 -13 -35 -10 -35 3 0 2 -6 -3 -12 -4 -7 -9 -22 -11 -33 -5
-28 -7 -36 -21 -70 -49 -122 -61 -155 -61 -169 0 -8 -4 -17 -9 -21 -6 -3 -8 3
-6 15 5 26 -11 36 -18 10 -3 -10 1 -25 9 -31 11 -9 11 -15 3 -25 -6 -8 -8 -14
-5 -14 4 0 4 -5 1 -10 -5 -8 -11 -7 -21 1 -11 9 -15 7 -20 -7 -4 -11 -9 -22
-11 -26 -2 -5 3 -8 11 -8 9 0 15 3 15 8 -3 16 2 23 11 17 8 -5 7 -11 -1 -21
-6 -8 -8 -14 -5 -14 4 0 4 -6 -1 -12 -4 -7 -8 -24 -9 -38 -1 -14 -3 -25 -4
-25 -1 0 -4 -13 -5 -30 -2 -16 -4 -30 -5 -30 -3 0 -11 -38 -13 -56 -1 -13 -22
-18 -34 -9 -2 2 -7 3 -13 4 -15 2 -36 26 -22 26 7 0 11 3 11 8 -1 4 0 10 1 15
1 4 3 12 4 17 2 18 21 10 21 -9 0 -23 15 -41 16 -20 0 8 2 25 4 39 2 14 1 19
-2 12 -4 -10 -8 -10 -19 -1 -8 6 -11 16 -7 23 4 6 8 16 9 21 1 6 9 29 18 53 8
23 13 42 11 42 -3 0 4 16 15 36 11 19 15 32 8 28 -9 -6 -9 -3 1 9 7 9 10 17 6
17 -4 0 -3 6 3 13 10 13 26 74 20 81 -2 2 6 14 17 27 12 13 14 19 5 14 -12 -7
-13 -6 -3 6 7 8 15 30 18 48 3 19 10 42 16 52 5 11 7 19 3 19 -3 0 0 8 7 17
12 15 12 16 -1 8 -12 -7 -13 -6 -3 7 7 8 10 18 7 21 -3 3 -2 12 2 19 5 7 9 21
10 31 1 9 3 19 4 22 1 3 4 10 5 15 1 6 4 12 5 15 1 3 3 8 5 13 1 4 4 14 8 22
3 8 7 24 9 35 6 41 44 59 67 32z m152 -5 c33 -13 59 -48 54 -72 -6 -30 -17
-94 -20 -115 -2 -11 -4 -21 -4 -22 -1 -2 -1 -6 -2 -10 0 -5 -8 -17 -17 -27
-13 -15 -13 -17 -2 -11 11 6 11 4 -2 -11 -9 -10 -17 -23 -18 -29 -1 -5 -9 -26
-17 -45 -8 -19 -16 -39 -17 -45 -1 -5 -13 -32 -25 -59 -13 -28 -25 -70 -26
-95 -2 -26 -4 -46 -5 -46 -2 0 -6 -21 -14 -66 -3 -20 -8 -42 -10 -50 -3 -8 -7
-25 -10 -39 -6 -37 -27 -114 -34 -125 -4 -5 -7 -12 -8 -15 -1 -3 -6 -19 -13
-36 -15 -38 -36 -36 -92 7 -20 16 -40 25 -44 21 -5 -4 -5 -2 -2 4 4 6 -5 16
-19 23 -20 9 -24 16 -19 32 4 12 9 29 10 38 2 9 4 16 5 16 2 0 7 27 14 80 3
22 16 70 30 108 13 37 22 67 19 67 -3 0 0 7 7 15 7 8 9 15 6 15 -4 0 -4 6 1
13 4 6 8 14 9 17 0 3 6 19 13 35 14 36 18 47 21 60 1 6 6 15 10 21 5 5 21 57
36 115 14 57 31 110 37 118 10 12 9 13 -3 6 -13 -8 -13 -7 -1 8 7 9 10 17 7
17 -4 0 -4 6 1 13 4 6 8 14 8 17 0 13 43 59 49 53 3 -3 6 -2 6 3 0 12 45 10
81 -4z m-237 -11 c3 -5 0 -22 -7 -38 -9 -23 -17 -29 -35 -26 -14 2 -21 -1 -17
-7 3 -5 1 -10 -4 -10 -23 0 -10 22 19 33 24 9 28 15 24 34 -6 22 9 32 20 14z
m-71 -46 c-10 -12 -21 -21 -25 -18 -5 2 -8 0 -8 -6 0 -6 -7 -8 -15 -5 -22 9
-18 24 5 24 11 0 20 5 20 11 0 5 5 7 10 4 6 -3 10 1 10 10 0 9 5 13 10 10 6
-4 3 -15 -7 -30z m447 -79 c8 -11 15 -37 17 -56 1 -19 4 -57 7 -85 2 -27 1
-54 -2 -60 -8 -12 -11 -28 -17 -72 -2 -18 -9 -41 -15 -53 -6 -11 -8 -20 -4
-20 3 0 1 -7 -6 -15 -7 -8 -10 -15 -6 -15 3 0 -8 -24 -25 -52 -17 -29 -33 -62
-35 -73 -4 -25 -12 -59 -14 -62 -2 -2 -4 -7 -5 -13 -1 -5 -3 -11 -5 -12 -1 -2
-3 -10 -5 -18 -1 -8 -10 -39 -18 -67 -9 -29 -14 -53 -11 -53 3 0 2 -6 -3 -12
-4 -7 -8 -15 -9 -18 -9 -52 -18 -81 -25 -86 -5 -3 -7 -10 -4 -15 10 -15 -5
-10 -32 11 -14 11 -35 20 -47 20 -19 1 -18 3 8 22 l29 22 -29 24 c-16 13 -24
22 -19 19 6 -3 16 3 23 14 10 15 10 19 0 19 -7 0 -2 7 10 16 22 15 22 17 6 35
-11 12 -13 19 -5 19 6 0 11 6 9 14 -2 8 5 21 16 29 15 11 17 17 7 35 -13 24
-6 46 11 36 6 -4 5 3 -2 16 -6 12 -10 23 -8 24 2 2 12 8 23 14 11 6 14 12 7
12 -7 0 -10 5 -6 12 4 6 3 8 -3 5 -6 -4 -17 1 -24 10 -8 9 -9 14 -3 10 11 -6
18 3 23 28 2 6 9 14 17 18 17 10 18 33 2 41 -9 3 -8 8 5 16 12 8 16 18 12 31
-4 13 -2 19 9 19 9 0 16 6 16 14 0 7 7 19 16 27 14 11 14 13 0 21 -15 8 -14
11 1 33 10 12 22 21 27 18 5 -3 4 2 -2 12 -7 14 -6 22 4 33 11 10 12 18 4 27
-8 10 -7 16 7 24 14 7 15 13 6 22 -13 13 -6 42 8 33 5 -3 9 -1 9 5 0 5 -4 13
-10 16 -5 3 -10 13 -10 21 0 13 4 13 28 -2 16 -9 35 -26 42 -38z m-410 34 c0
-5 -7 -10 -16 -10 -8 0 -12 5 -9 10 3 6 10 10 16 10 5 0 9 -4 9 -10z m-20 -35
c17 11 18 -25 1 -47 -18 -23 -21 -53 -8 -75 4 -6 3 -15 -3 -18 -6 -4 -9 -1 -8
6 5 22 -20 20 -27 -3 -4 -13 -12 -26 -18 -29 -5 -4 -6 -12 -2 -19 6 -10 11 -9
22 5 7 11 13 14 13 8 0 -6 -6 -16 -14 -22 -11 -9 -18 -8 -30 5 -16 15 -16 18
0 35 9 10 13 22 10 27 -3 6 1 12 9 16 8 3 12 12 9 21 -3 8 -11 12 -16 9 -6 -4
-5 3 2 15 9 17 14 20 25 11 11 -9 16 -7 25 10 12 23 6 40 -15 40 -18 0 -28 17
-20 31 5 6 13 3 22 -10 8 -12 18 -19 23 -16z m-79 2 c-6 -8 -9 -16 -6 -19 3
-2 -2 -5 -10 -5 -15 0 -20 18 -8 30 3 4 13 7 21 7 11 0 12 -3 3 -13z m-16
-107 c7 -22 6 -23 -8 -12 -24 20 -42 4 -22 -18 13 -14 14 -20 3 -26 -7 -4 -10
-4 -6 1 4 4 1 14 -7 21 -14 14 -11 37 8 62 12 15 22 7 32 -28z m-56 -62 c-3
-27 1 -38 15 -38 8 0 17 -4 20 -8 7 -12 -32 -8 -45 5 -6 6 -8 20 -4 32 7 23
17 29 14 9z m109 -68 c-2 -8 -9 -15 -16 -15 -12 0 -14 -9 -4 -33 2 -7 2 -15
-1 -18 -9 -10 -26 5 -43 38 -9 16 -11 27 -6 24 6 -3 12 0 15 8 8 19 58 16 55
-4z m-105 -4 c10 10 0 -32 -13 -55 -11 -22 -35 -28 -45 -12 -3 5 4 11 16 13
25 3 35 36 13 45 -8 3 -11 9 -8 15 4 5 11 5 18 -1 7 -6 16 -8 19 -5z m-465
-109 c-2 -7 7 -22 20 -35 12 -12 22 -17 22 -9 0 7 3 8 8 2 4 -5 16 -11 27 -13
18 -3 18 -2 5 11 -8 9 -24 17 -35 19 -23 3 -36 18 -28 31 2 4 11 3 19 -4 8 -6
14 -8 14 -4 0 4 7 2 15 -5 8 -7 15 -9 15 -5 0 4 7 2 15 -5 8 -7 15 -9 15 -4 0
5 4 4 8 -1 4 -6 20 -18 35 -28 15 -10 25 -22 21 -28 -4 -7 -12 -5 -22 4 -35
29 -75 30 -51 0 14 -17 33 -17 23 0 -5 8 -2 7 9 -2 10 -8 15 -16 12 -19 -3 -3
2 -14 12 -24 31 -34 -5 -18 -45 20 -35 33 -46 38 -81 36 -54 -3 -67 19 -52 84
1 2 6 0 11 -3 6 -4 9 -12 8 -18z m438 10 c8 3 14 -1 14 -11 0 -8 10 -20 21
-27 15 -8 19 -8 15 0 -4 6 -2 11 3 11 6 0 11 5 11 10 0 6 -7 10 -15 10 -8 0
-15 5 -15 10 0 16 47 12 54 -5 3 -8 1 -26 -4 -40 -7 -18 -16 -24 -34 -23 -14
1 -24 6 -23 11 3 17 -20 18 -26 2 -4 -8 -1 -15 6 -15 7 0 -1 -9 -18 -20 -16
-11 -26 -20 -21 -20 5 0 2 -8 -7 -18 -10 -10 -14 -21 -11 -25 3 -3 -3 -3 -15
0 -22 5 -26 14 -14 27 4 3 8 17 10 29 2 12 6 29 10 37 3 8 7 21 9 28 7 35 15
45 26 34 6 -6 17 -8 24 -5z m-303 -223 c15 -14 25 -29 22 -34 -8 -13 -41 4
-54 28 -6 9 -11 13 -11 9 0 -4 -23 14 -51 42 -47 46 -52 49 -80 39 -16 -5 -32
-15 -36 -21 -4 -6 -1 -7 7 -2 9 5 11 4 6 -4 -4 -6 -11 -9 -16 -6 -4 3 -15 -10
-24 -28 -36 -70 -54 -96 -61 -89 -5 4 -5 2 -1 -5 3 -6 2 -14 -4 -18 -23 -14
-5 -38 84 -107 74 -56 93 -75 84 -85 -9 -11 -15 -9 -35 8 -12 13 -23 19 -23
15 0 -4 -11 4 -23 18 -13 14 -27 23 -30 19 -4 -3 -7 -1 -7 5 0 7 -5 12 -11 12
-16 0 -62 38 -75 63 -18 32 0 71 80 172 39 50 75 93 80 97 9 6 105 -64 179
-128z m-38 112 c6 -6 25 -23 43 -39 19 -15 28 -27 22 -27 -12 0 -130 78 -130
86 0 8 55 -8 65 -20z m399 6 c-1 -7 -2 -21 -2 -33 -1 -11 -7 -17 -12 -14 -13
8 -9 66 5 62 5 -2 10 -9 9 -15z m632 -37 c-2 -19 -7 -43 -10 -53 -4 -13 -1
-19 9 -19 8 0 15 6 15 14 0 12 13 17 33 14 4 0 7 4 7 10 0 5 4 7 10 4 6 -4 8
-28 4 -58 -3 -29 -7 -83 -9 -122 -2 -38 -4 -70 -5 -70 -2 0 -8 -49 -15 -110
-2 -27 -7 -61 -10 -75 -3 -14 -8 -47 -10 -75 -9 -103 -14 -141 -24 -172 -5
-18 -7 -33 -4 -33 3 0 1 -6 -4 -12 -5 -7 -8 -23 -7 -36 1 -16 -2 -20 -9 -13
-7 7 -15 7 -24 -1 -10 -8 -12 -7 -8 5 4 10 -1 17 -14 22 -19 6 -20 13 -17 64
2 32 7 64 11 70 4 7 8 31 10 54 2 23 11 74 20 112 9 39 19 79 21 90 3 11 7 54
9 95 7 102 14 156 25 185 11 30 -3 41 -21 18 -12 -14 -12 -16 0 -8 11 6 12 5
5 -6 -14 -23 -22 -71 -28 -169 -4 -66 -20 -175 -26 -175 -3 0 -8 -27 -19 -88
-5 -31 -13 -62 -17 -69 -5 -7 -3 -8 7 -3 11 7 12 6 2 -6 -11 -14 -25 -82 -26
-130 -1 -25 -3 -26 -29 -17 -25 9 -27 12 -16 26 11 13 11 15 -2 8 -8 -4 -4 1
10 12 23 20 24 21 7 40 -22 24 -22 38 2 64 20 20 20 21 0 37 -21 16 -21 16 3
42 l24 26 -24 22 -25 22 28 25 c15 13 25 24 21 24 -4 0 -4 6 1 13 4 6 8 15 9
20 1 4 3 9 4 12 4 9 21 91 26 130 1 11 3 20 4 20 1 0 4 18 6 40 3 21 10 45 16
52 6 7 7 13 3 13 -4 0 -1 8 6 17 12 15 12 16 -1 8 -12 -7 -13 -6 -3 6 6 8 11
16 11 19 1 3 5 18 11 33 6 16 11 34 11 41 0 12 9 26 17 26 2 0 1 -16 -1 -35z
m-688 -22 c0 -43 1 -45 16 -31 8 7 12 16 9 21 -2 4 1 7 6 7 6 0 9 -10 7 -22
-1 -13 -7 -21 -11 -20 -4 2 -11 -2 -15 -8 -6 -9 -11 -6 -19 9 -7 12 -9 26 -5
33 4 6 1 9 -7 6 -17 -6 -18 -35 -2 -67 6 -14 10 -28 7 -33 -3 -4 0 -8 5 -8 6
0 11 -7 11 -15 0 -31 -18 -13 -32 33 -17 52 -15 101 4 114 21 13 25 10 26 -19z
m-71 -27 c0 -17 12 -57 27 -89 23 -52 24 -58 9 -55 -13 2 -17 12 -16 31 1 15
-2 25 -7 22 -6 -3 -7 1 -4 9 3 8 -5 25 -17 37 -26 26 -32 46 -18 55 5 3 7 9 5
13 -3 4 1 8 8 8 8 0 14 -12 13 -31z m-370 -29 l31 -51 -30 -39 c-30 -37 -32
-38 -86 -35 -31 2 -57 9 -59 15 -5 14 24 25 32 13 4 -6 21 -10 40 -10 24 0 39
7 54 26 21 27 21 30 -11 76 -18 26 -24 58 -10 58 4 0 21 -24 39 -53z m30 20
c-1 -7 4 -11 11 -9 6 1 11 -4 10 -10 -2 -7 3 -12 10 -10 6 1 11 -4 10 -10 -2
-7 3 -12 10 -10 6 1 12 -2 12 -8 0 -5 7 -10 16 -10 8 0 13 -4 9 -9 -3 -5 0
-11 7 -14 7 -2 2 -2 -12 1 -14 2 -31 5 -37 5 -7 0 -11 2 -8 5 2 2 -4 12 -14
21 -10 9 -29 33 -41 55 -23 38 -23 38 -2 27 12 -6 21 -17 19 -24z m303 -98 c0
-13 4 -18 12 -13 6 4 8 3 5 -3 -6 -9 -57 -25 -57 -17 0 1 4 14 10 28 11 31 30
34 30 5z m-213 -20 c12 -4 23 -13 23 -19 0 -12 -13 -13 -25 -1 -6 4 -22 11
-37 15 -33 8 -37 -8 -8 -26 32 -20 26 -40 -7 -23 -33 17 -42 5 -22 -31 20 -39
6 -35 -24 6 -25 35 -26 40 -11 54 8 9 13 16 9 16 -3 0 0 6 7 14 13 14 51 12
95 -5z m-137 -76 c11 -13 26 -23 32 -23 6 0 6 -6 -3 -16 -12 -14 -14 -14 -24
0 -7 9 -15 12 -19 8 -4 -4 -6 0 -4 8 2 8 -3 14 -9 13 -7 -2 -13 2 -13 8 0 6
-6 9 -14 6 -8 -3 -19 0 -25 7 -21 25 55 14 79 -11z m48 -58 c-2 -5 -8 -10 -15
-11 -6 -1 -9 4 -6 12 6 16 27 15 21 -1z m172 -71 c0 5 6 3 14 -3 11 -9 17 -8
28 6 21 29 41 28 22 -2 -15 -23 -26 -29 -47 -26 -53 9 -77 20 -77 36 0 22 24
23 42 1 10 -12 17 -17 18 -12z m-272 -24 c7 0 11 -13 11 -32 -2 -29 -2 -30 -6
-6 -5 30 -33 47 -33 20 0 -14 -2 -15 -10 -2 -6 9 -5 17 3 23 8 6 8 7 -3 4 -17
-5 -14 -38 3 -49 8 -5 8 -8 1 -8 -5 0 -19 6 -29 14 -19 14 -19 15 -1 35 11 12
16 27 12 38 -3 11 3 7 17 -9 12 -16 28 -28 35 -28z m407 16 c0 -9 10 -28 23
-41 23 -24 57 -27 57 -5 0 7 7 15 15 17 12 4 12 3 2 -5 -8 -5 -13 -12 -13 -16
3 -18 -1 -24 -21 -33 -25 -11 -68 0 -68 17 0 6 -4 9 -8 6 -5 -3 -9 16 -11 41
-1 33 1 44 11 41 7 -3 13 -12 13 -22z m-490 -15 c-3 -17 -1 -33 5 -36 6 -3 17
-19 25 -35 12 -23 12 -30 2 -36 -6 -4 -9 -4 -5 0 4 5 -4 18 -18 31 -13 12 -24
28 -24 34 0 7 -4 9 -10 6 -16 -10 -12 14 8 40 22 31 23 31 17 -4z m440 2 c-1
-10 2 -26 6 -35 17 -32 -42 -47 -71 -18 -26 26 -25 28 7 28 17 0 33 8 41 21
17 26 21 26 17 4z m-145 -3 c0 -5 -2 -10 -4 -10 -3 0 -8 5 -11 10 -3 6 -1 10
4 10 6 0 11 -4 11 -10z m357 -30 c3 -11 4 -22 4 -25 -3 -8 51 -50 64 -51 21
-1 46 18 56 43 5 14 12 23 16 20 3 -4 -5 -22 -18 -42 -25 -36 -74 -62 -84 -44
-4 5 -10 7 -15 4 -14 -9 -43 42 -46 80 -3 37 14 48 23 15z m-42 -40 c2 -17 10
-39 19 -49 9 -10 16 -23 16 -29 0 -24 -16 -10 -38 34 -16 33 -20 49 -13 58 6
7 9 16 6 19 -3 4 -2 5 1 2 4 -2 8 -18 9 -35z m-313 -32 c15 -17 29 -39 30 -47
4 -46 4 -97 -1 -106 -18 -33 -7 -57 15 -35 6 6 22 13 36 15 31 6 74 -31 84
-72 10 -41 23 -44 53 -14 14 15 50 40 79 55 99 50 159 45 228 -20 25 -24 43
-44 39 -44 -3 0 0 -7 9 -15 8 -9 12 -23 9 -32 -5 -12 -3 -14 8 -8 12 8 12 6 0
-8 -7 -9 -10 -17 -5 -17 5 -1 -2 -10 -15 -21 -27 -22 -37 -17 -45 21 -7 42
-16 57 -39 68 -31 16 -77 22 -77 11 0 -6 -4 -7 -10 -4 -5 3 -10 1 -10 -6 0 -7
-3 -10 -6 -7 -5 6 -54 -38 -54 -49 0 -4 -8 -15 -17 -26 -13 -15 -14 -18 -3
-12 13 8 13 7 1 -8 -7 -9 -10 -17 -5 -17 4 0 4 -4 -2 -10 -5 -5 -22 -6 -38 -2
-25 7 -27 10 -14 22 8 8 15 18 16 22 8 26 15 37 22 33 4 -3 13 8 18 24 9 25 7
30 -12 39 -29 13 -48 2 -108 -59 -26 -27 -54 -49 -62 -49 -15 0 -28 24 -19 34
4 3 8 18 9 33 8 73 -72 101 -113 40 -12 -17 -25 -39 -28 -49 -5 -13 -30 -17
-42 -8 -2 2 -9 3 -15 4 -7 0 -14 18 -16 38 -2 29 0 37 10 33 8 -3 24 8 38 27
30 41 37 129 12 154 -11 11 -15 29 -13 53 5 61 12 64 53 19z m-274 -8 c7 -11
8 -21 2 -25 -5 -3 -16 8 -25 24 -17 35 1 35 23 1z m784 -8 c1 -18 6 -32 11
-32 4 0 6 -4 2 -9 -6 -10 32 -50 49 -52 64 -8 82 -5 104 20 l23 26 -6 -30 c-4
-16 -8 -38 -9 -48 0 -9 -5 -18 -11 -18 -5 -1 -18 -5 -27 -10 -10 -6 -19 -5
-23 1 -4 6 -12 7 -18 4 -7 -4 -9 -4 -5 1 10 10 -33 44 -49 38 -7 -3 -10 -10
-6 -16 3 -6 1 -7 -6 -3 -6 4 -10 10 -8 14 2 4 -10 19 -25 34 -15 15 -28 24
-28 20 0 -3 -6 2 -13 12 -12 16 -10 22 10 44 13 14 23 30 23 35 0 24 10 -2 12
-31z m34 19 c-6 -9 30 -71 41 -72 5 0 16 -2 26 -4 9 -2 15 1 11 6 -3 5 -1 9 4
9 6 0 17 17 25 38 21 51 49 54 35 3 -6 -19 -16 -44 -24 -56 -8 -12 -12 -24 -9
-27 3 -2 -5 -4 -18 -2 -12 1 -22 3 -22 4 0 1 -9 3 -19 5 -10 2 -23 10 -27 17
-5 7 -9 9 -9 3 -1 -21 -23 29 -27 63 -3 24 -1 32 6 28 6 -4 9 -11 7 -15z m248
-15 c2 -14 -1 -23 -5 -20 -5 3 -9 17 -9 31 0 32 11 24 14 -11z m-720 9 c11 -8
17 -15 13 -15 -3 0 5 -12 18 -26 23 -25 95 -42 95 -23 0 5 7 6 16 2 9 -3 14
-13 11 -24 -5 -18 15 -44 25 -33 4 3 21 8 38 11 27 4 32 2 27 -11 -4 -9 -1
-16 6 -16 7 0 -5 -11 -25 -24 -21 -12 -36 -25 -33 -27 2 -3 -11 -6 -29 -7 -30
-2 -37 3 -65 45 -34 52 -71 83 -101 86 -10 1 -17 4 -15 7 2 4 -2 18 -10 33
-19 37 -5 48 29 22z m186 -1 c-6 -6 -7 -14 -3 -17 3 -4 2 -7 -4 -7 -12 0 -35
25 -28 31 2 3 13 5 24 5 14 0 17 -4 11 -12z m498 -6 c-2 -12 -9 -23 -16 -26
-10 -3 -11 16 -3 46 1 1 6 2 12 2 6 0 9 -10 7 -22z m-981 -10 c-3 -8 -6 -5 -6
6 -1 11 2 17 5 13 3 -3 4 -12 1 -19z m-31 -64 c1 -21 5 -48 9 -58 6 -13 3 -23
-7 -30 -13 -10 -13 -13 -1 -24 7 -7 10 -18 7 -24 -14 -23 -33 24 -30 73 2 26
-2 59 -9 73 -15 28 -11 35 13 32 12 -2 17 -14 18 -42z m688 24 c-3 -4 -9 -8
-15 -8 -5 0 -9 4 -9 8 0 5 7 9 15 9 8 0 12 -4 9 -9z m361 -18 c1 -10 -2 -17
-6 -14 -4 2 -7 13 -6 24 2 23 10 17 12 -10z m-38 -37 c-3 -2 -14 -5 -26 -8
-18 -3 -20 -1 -10 16 8 16 13 18 25 8 8 -6 13 -14 11 -16z m-351 -10 c-3 -4
-21 -8 -38 -9 -23 -2 -28 0 -18 6 17 11 67 13 56 3z m124 -53 c0 -5 -4 -10 -9
-10 -6 0 -13 5 -16 10 -3 6 1 10 9 10 9 0 16 -4 16 -10z m223 -6 c28 -10 20
-30 -13 -30 -17 1 -30 4 -30 9 0 4 0 14 0 23 0 9 5 13 13 10 6 -3 20 -9 30
-12z m-126 -30 c3 -7 9 -12 13 -9 7 4 6 -24 0 -32 -2 -2 -3 -7 -4 -12 0 -6 -6
-15 -13 -22 -8 -8 -14 -5 -24 12 -6 13 -15 26 -18 29 -3 3 -14 15 -24 26 -18
22 -18 22 23 22 27 1 43 -4 47 -14z m113 -40 c-41 -18 -51 -18 -44 0 6 16 40
25 63 17 7 -2 0 -10 -19 -17z m-55 -232 c-2 -3 7 -13 20 -24 27 -21 32 -42 13
-54 -6 -4 -8 -3 -5 3 7 11 -31 48 -48 48 -12 0 -72 -58 -102 -97 -13 -19 -24
-25 -28 -18 -9 15 2 43 15 35 5 -3 10 -3 10 2 0 4 16 25 36 46 19 20 33 37 29
37 -3 0 0 6 7 14 7 8 23 14 35 13 12 -1 20 -3 18 -5z m-672 -27 c25 -7 39 -35
17 -35 -5 0 -10 -11 -10 -25 0 -18 -4 -23 -16 -18 -9 3 -19 1 -23 -5 -16 -27
-34 -16 -36 23 -2 22 -4 45 -5 50 -6 25 9 27 73 10z m52 -15 c3 -5 1 -10 -4
-10 -6 0 -11 5 -11 10 0 6 2 10 4 10 3 0 8 -4 11 -10z m-140 -29 c-3 -5 -1
-12 5 -16 6 -4 8 -10 5 -15 -3 -5 -1 -19 6 -31 6 -12 7 -19 2 -17 -4 3 -16 8
-27 12 -16 5 -16 9 -5 23 12 14 12 16 0 8 -11 -6 -12 -5 -5 6 5 8 9 17 10 22
3 15 4 17 10 17 3 0 3 -4 -1 -9z m917 -15 c10 -14 10 -18 0 -34 -10 -15 -59
-26 -66 -14 -2 4 4 9 15 9 25 2 51 22 43 34 -3 5 -20 9 -39 9 -27 0 -34 -4
-37 -22 -2 -13 -6 -18 -9 -13 -4 6 -3 19 1 31 7 17 15 19 46 16 22 -3 42 -10
46 -16z m-491 -14 c20 -8 26 -17 24 -34 -7 -50 -16 -92 -26 -110 -10 -19 -12
-19 -30 -2 -10 9 -16 20 -14 24 3 5 1 21 -5 35 -6 15 -14 44 -19 65 -8 36 -7
37 18 35 14 -2 38 -7 52 -13z m369 4 c0 -2 -8 -10 -17 -17 -16 -13 -17 -12 -4
4 13 16 21 21 21 13z m-305 -113 c7 -90 0 -103 -40 -77 -20 13 -23 19 -14 30
6 8 8 14 5 14 -4 0 -4 6 1 13 10 16 13 33 23 122 0 6 5 3 10 -6 5 -8 12 -52
15 -96z m-318 90 c-4 -3 -3 -11 2 -17 16 -21 19 -55 6 -66 -17 -14 -27 1 -14
20 5 8 9 22 9 30 0 13 -1 13 -10 0 -5 -8 -10 -11 -10 -7 0 5 -5 5 -11 1 -8 -4
-7 -9 2 -14 10 -7 9 -13 -3 -32 -9 -14 -22 -25 -30 -25 -7 0 -20 -4 -29 -7
-12 -5 -20 1 -29 23 -7 17 -16 28 -21 25 -5 -3 -7 -10 -3 -15 3 -5 0 -16 -6
-24 -15 -17 1 -20 17 -4 9 9 11 7 9 -6 -2 -12 -13 -20 -31 -22 -36 -5 -118
-39 -167 -70 -21 -13 -38 -21 -38 -18 0 3 -15 -2 -32 -12 -18 -9 -38 -18 -45
-19 -7 -1 -26 -9 -43 -17 -17 -9 -27 -11 -24 -5 4 6 -1 8 -12 4 -26 -8 -48 8
-41 28 4 9 24 24 44 32 21 8 46 19 55 24 10 6 23 10 29 10 5 0 25 10 42 23 18
12 39 23 47 25 17 3 52 18 92 39 15 8 51 21 80 30 29 8 65 24 81 35 15 11 27
17 27 13 0 -3 12 1 28 9 30 17 39 20 29 9z m488 -59 c-14 -22 -9 -38 15 -46
11 -4 8 -8 -10 -16 -20 -8 -26 -6 -31 7 -4 9 -2 25 4 36 6 11 10 24 9 29 -2 5
0 16 3 25 5 13 7 13 15 1 6 -10 4 -22 -5 -36z m178 -22 c-7 -58 -19 -82 -40
-82 -13 0 -14 2 -2 17 12 15 12 16 -1 8 -11 -6 -12 -5 -4 4 6 7 8 31 4 61 -7
52 1 64 32 48 14 -7 16 -17 11 -56z m-493 -3 c0 -26 -3 -29 -14 -20 -8 7 -12
21 -9 31 8 31 23 23 23 -11z m268 -3 c1 -19 -1 -37 -6 -40 -4 -2 -8 13 -8 35
0 48 11 52 14 5z m-409 -34 c7 -14 5 -22 -9 -32 -10 -7 -16 -20 -12 -28 3 -10
1 -13 -6 -8 -7 4 -24 9 -37 12 -24 4 -30 -3 -26 -33 1 -7 -4 -13 -11 -14 -7 0
-35 -2 -63 -3 -59 -3 -82 -9 -124 -30 -17 -9 -31 -14 -31 -12 0 3 -16 -2 -35
-10 -19 -8 -35 -12 -35 -9 0 3 -18 -4 -41 -16 -23 -11 -38 -16 -35 -10 4 6 -8
4 -27 -4 -18 -8 -55 -16 -82 -20 -26 -3 -52 -8 -58 -12 -6 -3 -7 -1 -3 5 4 7
13 12 20 12 8 0 40 12 72 26 33 15 68 28 79 30 30 5 91 28 106 41 24 19 162
74 200 79 22 3 40 1 44 -6 5 -8 18 1 40 24 36 40 59 45 74 18z m-89 -22 c0 -5
-7 -10 -16 -10 -8 0 -12 5 -9 10 3 6 10 10 16 10 5 0 9 -4 9 -10z m284 -16 c7
-19 2 -18 -19 6 -16 17 -16 20 -3 15 9 -4 19 -13 22 -21z m-44 -8 c0 -8 8 -17
18 -21 16 -6 16 -7 -2 -21 -30 -21 -37 -17 -34 21 2 33 18 51 18 21z m69 -27
c-7 -4 -17 -5 -22 -2 -5 3 -3 9 4 14 7 4 17 5 22 2 5 -3 3 -9 -4 -14z m-179 8
c0 -2 -15 -13 -32 -26 l-33 -22 28 25 c26 24 37 31 37 23z m65 -47 c2 -3 -1
-7 -8 -7 -7 0 -20 -4 -29 -8 -13 -5 -15 -2 -11 13 3 14 11 18 24 15 11 -3 21
-9 24 -13z m-145 -5 c-7 -8 -18 -15 -24 -15 -6 0 -2 7 8 15 25 19 32 19 16 0z
m333 -12 c-7 -3 -13 -9 -13 -14 0 -5 -8 -27 -17 -48 l-17 -40 -18 30 c-10 16
-18 36 -18 44 0 22 37 43 68 37 15 -3 21 -7 15 -9z m107 -2 c0 -6 -13 -29 -29
-53 -37 -56 -36 -94 5 -130 18 -16 43 -28 57 -28 14 0 28 -4 32 -10 3 -5 15
-6 28 -1 41 16 72 8 73 -17 1 -21 -2 -23 -45 -19 -25 3 -50 6 -56 7 -24 6 -35
-1 -35 -22 0 -29 28 -58 56 -58 13 0 26 -4 29 -10 3 -5 21 -10 39 -10 19 0 39
-7 46 -15 15 -18 6 -47 -13 -40 -18 7 -77 -47 -77 -71 1 -39 26 -56 84 -58 52
-1 56 -3 66 -30 11 -31 6 -46 -16 -46 -8 0 -14 -5 -14 -10 0 -6 -16 -4 -37 5
-55 23 -107 11 -149 -34 -19 -20 -42 -44 -51 -53 -19 -21 -52 -24 -54 -5 -1 6
0 22 1 35 1 12 -6 25 -14 28 -18 7 -21 45 -6 60 15 15 20 83 6 91 -7 5 -21 20
-31 36 l-17 27 26 0 c16 0 26 5 26 15 0 8 -3 15 -7 15 -5 0 -16 14 -25 30 -15
27 -15 32 -3 36 8 4 12 11 8 17 -3 6 4 3 18 -6 13 -9 30 -17 38 -17 18 0 51
-38 51 -59 0 -9 -7 -26 -15 -38 -8 -12 -16 -29 -18 -40 -1 -10 -6 -23 -10 -30
-4 -7 -7 -27 -5 -45 1 -18 -6 -45 -16 -60 -12 -18 -14 -28 -6 -33 10 -6 39 20
40 37 0 5 18 14 50 24 58 17 92 44 56 44 -20 0 -46 39 -46 68 0 13 14 41 30
62 36 46 37 50 5 50 -14 0 -25 5 -25 11 0 5 -4 8 -9 5 -12 -8 -125 68 -143 96
-24 37 -41 97 -31 111 5 7 9 23 8 37 0 14 2 27 5 30 3 3 12 18 20 35 14 27 41
42 83 44 9 1 17 -3 17 -8z m470 -25 c0 -7 -12 -19 -27 -28 -16 -9 -39 -26 -52
-37 -13 -12 -30 -21 -37 -21 -7 0 -20 -10 -29 -22 -16 -23 -16 -23 -30 -4 -8
11 -15 27 -15 35 0 9 -3 25 -6 37 -5 17 1 22 38 33 24 7 44 13 45 13 2 -1 17
5 35 12 34 15 78 4 78 -18z m-865 15 c3 -6 -3 -15 -14 -21 -24 -12 -42 7 -20
21 18 11 26 11 34 0z m152 -8 c23 -22 35 -51 22 -55 -16 -5 -19 -46 -3 -52 10
-4 13 -13 8 -33 -4 -15 -7 -33 -7 -40 0 -7 -4 -13 -9 -13 -5 0 -6 -11 -4 -24
4 -22 3 -23 -42 -15 -57 11 -59 14 -23 29 20 8 35 25 45 51 14 35 14 43 1 67
-30 55 -41 64 -75 58 -42 -6 -27 10 26 29 22 8 39 14 40 15 1 0 10 -8 21 -17z
m-38 -70 c9 -24 10 -47 2 -95 0 -4 -18 -15 -38 -25 -58 -26 -60 -26 -33 -7 41
30 57 56 56 88 -1 31 -2 31 -56 32 -74 1 -78 2 -56 19 11 8 41 15 67 15 41 0
48 -3 58 -27z m-234 -81 c0 -56 -1 -58 -19 -41 -21 20 -43 16 -43 -9 0 -42 -3
-46 -16 -28 -12 16 -14 16 -26 2 -10 -12 -18 -13 -33 -5 -16 9 -20 7 -25 -10
-3 -11 -9 -18 -15 -15 -5 3 -15 1 -23 -6 -9 -7 -15 -8 -20 0 -10 17 -33 11
-40 -10 -4 -12 -14 -20 -23 -19 -31 3 -43 -1 -37 -11 8 -14 -8 -13 -22 1 -16
16 -32 2 -26 -22 5 -19 4 -20 -16 -10 -17 10 -22 9 -27 -4 -6 -14 -8 -14 -24
0 -17 15 -19 15 -29 -3 -8 -15 -20 -19 -58 -17 -26 1 -51 -3 -55 -9 -5 -8 -8
-7 -8 2 0 15 -27 16 -32 0 -6 -16 -48 -21 -48 -5 -1 7 -7 4 -15 -7 -8 -10 -19
-15 -26 -10 -7 4 -18 -1 -26 -11 -7 -11 -13 -14 -13 -8 0 12 -18 12 -38 0 -7
-5 -10 -13 -7 -18 4 -5 2 -9 -4 -9 -5 0 -13 5 -16 10 -10 16 -22 12 -28 -10
-3 -11 -9 -20 -15 -20 -10 0 -10 45 1 56 4 4 7 14 7 23 0 25 14 41 39 46 20 4
60 41 61 56 0 6 77 22 82 17 2 -2 20 8 41 21 21 13 41 21 44 17 3 -3 14 -1 25
5 10 5 51 10 91 11 39 0 77 3 82 7 6 3 15 6 20 8 13 2 49 11 78 19 12 3 33 8
47 11 14 3 57 14 95 26 39 11 81 21 94 23 13 2 26 5 29 8 13 14 17 2 17 -52z
m361 31 c-10 -10 -19 5 -10 18 6 11 8 11 12 0 2 -7 1 -15 -2 -18z m-125 -133
c23 -6 40 -19 47 -35 12 -27 5 -88 -9 -79 -5 3 -9 1 -9 -5 0 -6 -14 -18 -31
-26 -30 -16 -30 -16 -17 6 32 53 38 65 38 82 0 9 -9 26 -21 38 -16 16 -29 20
-53 15 -22 -4 -27 -3 -16 4 19 12 27 12 71 0z m155 -7 c20 -27 16 -38 -6 -18
-20 18 -26 35 -14 35 4 0 13 -8 20 -17z m-76 3 c0 -11 -19 -15 -25 -6 -3 5 1
10 9 10 9 0 16 -2 16 -4z m-284 -17 c10 -8 12 -25 8 -62 -3 -29 -7 -64 -8 -79
-2 -35 -14 -47 -51 -52 -32 -5 -91 -26 -112 -39 -7 -5 -23 -10 -35 -12 -13 -3
-48 -10 -78 -16 -30 -5 -64 -12 -75 -14 -11 -2 -36 -6 -55 -10 -19 -3 -51 -8
-70 -10 -41 -5 -108 -19 -165 -35 -171 -48 -201 -53 -240 -34 -20 9 -33 19
-31 22 3 2 -1 20 -9 38 -8 19 -10 34 -6 34 4 0 7 10 6 22 -1 13 3 28 10 34 10
10 57 29 63 25 1 -1 16 6 34 15 31 16 42 19 128 29 25 4 61 8 80 11 19 3 51 7
70 9 61 6 100 14 113 22 6 4 20 9 30 10 10 2 28 8 40 15 12 7 27 13 32 15 6 1
36 11 69 22 32 12 61 19 65 17 3 -2 21 3 38 12 39 20 130 27 149 11z m314 -56
c0 -2 -9 -13 -20 -25 -11 -12 -20 -30 -20 -40 0 -11 -4 -16 -10 -13 -5 3 -10
-2 -10 -12 0 -14 -2 -15 -9 -4 -5 8 -14 10 -21 6 -9 -5 -11 -4 -6 3 4 7 14 12
22 12 13 0 24 18 37 61 4 13 37 24 37 12z m10 -113 c0 -11 -3 -20 -8 -20 -4 0
-13 9 -20 20 -11 18 -10 20 8 20 13 0 20 -7 20 -20z m-34 -50 c1 -49 -61 -103
-81 -70 -3 6 -3 10 2 10 33 1 61 70 37 94 -7 8 -24 12 -36 10 -21 -4 -21 -4
-3 5 13 5 31 4 50 -3 25 -10 30 -18 31 -46z m-281 -17 c5 -19 1 -25 -22 -34
-28 -11 -36 -13 -107 -23 -21 -4 -43 -9 -49 -13 -5 -3 -20 -7 -31 -9 -86 -11
-109 -15 -125 -24 -10 -5 -21 -7 -24 -4 -3 3 -16 0 -29 -7 -12 -7 -34 -14 -48
-15 -48 -5 -85 -12 -112 -23 -16 -6 -28 -8 -28 -6 0 3 -18 -4 -40 -15 -22 -11
-40 -18 -40 -15 0 2 -12 0 -27 -6 -16 -6 -39 -12 -53 -14 -62 -9 -94 -15 -98
-20 -9 -9 -32 17 -32 36 0 20 33 38 80 44 14 2 45 9 70 15 25 7 55 14 67 15
12 2 27 6 34 11 7 4 22 8 33 10 12 2 48 8 81 14 33 6 74 13 90 15 17 2 41 6
55 9 14 2 41 7 61 10 20 3 48 10 63 16 14 5 26 7 26 4 0 -2 13 2 30 11 16 8
33 14 37 13 4 -1 22 5 39 15 17 9 34 14 37 11 3 -3 14 -1 24 4 20 12 28 7 38
-25z m323 -59 c21 -22 23 -39 8 -60 -10 -13 -15 -14 -21 -4 -6 9 -4 11 6 5 8
-4 1 4 -16 18 -16 14 -33 23 -37 20 -13 -7 -9 12 4 25 17 17 36 15 56 -4z
m-364 -38 c-35 -42 -86 -71 -108 -63 -24 10 -19 26 12 38 25 10 26 12 7 19
-11 4 -23 6 -27 3 -5 -2 -8 1 -8 7 0 9 46 7 56 -3 7 -7 -7 -37 -17 -37 -5 0
-9 -4 -9 -10 0 -20 20 -9 52 26 52 58 60 65 65 60 3 -3 -7 -21 -23 -40z m61 5
c-3 -6 -10 -9 -14 -6 -10 6 -61 -69 -61 -89 0 -7 -13 -16 -28 -18 -39 -5 -39
21 0 36 15 6 30 17 33 26 3 8 16 28 30 44 13 16 22 34 18 40 -3 6 2 4 12 -6 9
-9 14 -21 10 -27z m-205 -11 c0 -18 -24 -28 -43 -18 -12 6 -16 13 -9 17 14 8
52 9 52 1z m483 -36 c20 -40 14 -86 -9 -77 -11 4 -13 14 -9 35 8 33 -8 58 -36
58 -24 0 -25 17 -1 22 27 6 36 0 55 -38z m-572 15 c17 -8 19 -16 13 -42 l-6
-32 21 20 c16 13 24 16 29 8 4 -7 27 -13 50 -14 33 -2 42 -7 42 -21 0 -13 -8
-18 -26 -18 -14 0 -23 4 -19 10 3 6 1 10 -4 10 -6 0 -11 -6 -11 -14 0 -7 -9
-16 -21 -19 -16 -4 -18 -3 -9 9 9 10 8 17 -4 29 -15 15 -17 15 -25 -7 -5 -14
-5 -25 1 -29 5 -3 0 -9 -12 -12 -25 -6 -45 29 -27 51 7 9 6 20 -3 37 -15 28
-34 23 -25 -6 4 -13 2 -19 -9 -19 -21 0 -25 32 -8 53 18 20 26 21 53 6z m-105
-46 c-7 -21 -16 -37 -20 -35 -3 1 -12 2 -19 2 -15 0 -41 49 -32 59 4 3 12 -2
19 -12 16 -21 26 -22 26 -3 0 13 13 23 32 25 4 1 1 -16 -6 -36z m434 22 c14
-17 15 -17 -22 -33 -23 -9 -28 -9 -28 2 0 8 7 17 16 20 8 3 12 10 9 16 -10 16
11 12 25 -5z m-604 -41 c-22 -21 -20 -25 8 -14 13 5 33 6 45 3 12 -3 21 -1 21
6 0 6 -8 11 -17 12 -12 0 -13 2 -5 6 7 3 19 -1 28 -7 12 -11 12 -15 -8 -28
-15 -11 -23 -12 -26 -4 -4 14 -51 -5 -68 -28 -18 -22 -47 5 -33 31 5 11 14 17
18 14 5 -2 14 2 21 10 7 8 17 15 22 15 5 0 2 -7 -6 -16z m-79 -19 c0 -8 -7
-15 -14 -15 -8 0 -13 -8 -12 -17 4 -47 -16 -54 -44 -16 -10 13 -13 23 -8 23 6
0 14 -8 20 -17 5 -10 13 -14 17 -10 5 4 3 17 -4 27 -7 12 -8 20 -2 21 5 1 14
2 19 3 5 0 13 4 17 9 10 10 11 9 11 -8z m223 -55 c0 -22 -30 -35 -44 -19 -8 9
-7 10 3 4 22 -13 32 17 14 45 l-16 25 21 -19 c12 -11 22 -27 22 -36z m-330 25
c0 -7 8 -18 17 -24 10 -5 15 -12 12 -15 -3 -4 -18 4 -34 16 -26 20 -28 21 -41
4 -14 -20 -36 -13 -28 9 4 8 10 12 15 9 5 -3 17 0 26 5 25 14 33 13 33 -4z
m430 -7 c0 -21 -1 -21 -13 -4 -18 25 -57 13 -52 -14 5 -27 -4 -25 -14 3 -12
30 -8 33 39 35 35 2 40 -1 40 -20z m-533 -5 c-10 -9 33 -53 52 -53 13 -1 12
-3 -3 -15 -11 -8 -25 -15 -30 -15 -6 0 -4 5 4 10 13 8 12 10 -3 10 -10 0 -22
12 -27 26 -10 24 -6 44 7 44 4 0 3 -3 0 -7z m321 -23 c-1 -22 -6 -30 -20 -30
-22 0 -24 26 -2 34 8 3 12 10 9 16 -3 5 -2 10 4 10 5 0 9 -13 9 -30z m36 -5
c-9 -14 -19 -24 -21 -21 -6 6 20 46 30 46 4 0 0 -11 -9 -25z m1224 5 c-7 -11
-20 -20 -30 -20 -15 0 -41 -18 -89 -62 -24 -23 -30 -23 -26 1 4 28 26 51 43
44 8 -3 14 1 14 10 0 16 37 34 47 23 3 -3 12 1 20 9 21 22 35 18 21 -5z
m-1460 -21 c34 -12 48 -35 26 -43 -8 -3 -13 -2 -10 3 7 11 -42 44 -54 36 -6
-3 -10 -1 -10 4 0 14 9 14 48 0z m114 -21 c-6 -6 -19 -7 -29 -3 -17 7 -17 8 2
15 24 9 41 2 27 -12z m766 0 c-4 -22 11 -66 25 -71 9 -3 12 4 9 29 -5 42 13
45 22 4 3 -16 10 -30 15 -30 5 0 14 14 20 30 11 33 21 41 16 13 -2 -10 -4 -24
-4 -31 -2 -25 -71 -66 -71 -41 0 5 -3 8 -7 8 -18 -3 -36 1 -30 7 3 4 0 21 -7
38 -13 32 -11 56 5 56 6 0 9 -6 7 -12z m-40 -13 c8 -75 0 -135 -17 -135 -7 0
-7 66 0 80 1 3 3 16 4 30 2 14 3 28 4 33 2 12 8 8 9 -8z m-868 -4 c0 -5 -9
-11 -20 -14 -22 -6 -28 8 -7 16 19 8 27 8 27 -2z m1283 -6 c-3 -9 -8 -14 -10
-11 -3 3 -2 9 2 15 9 16 15 13 8 -4z m-453 -23 c0 -16 -3 -32 -7 -36 -4 -4 -8
-17 -10 -29 -1 -12 -6 -43 -11 -70 -10 -51 -1 -67 37 -70 12 -1 21 -4 21 -7 0
-3 43 -6 95 -7 94 -3 95 -2 107 25 7 15 13 55 13 89 0 35 3 63 8 63 4 0 7 13
7 29 0 44 27 48 32 5 2 -20 1 -37 -2 -39 -4 -2 -6 -36 -6 -74 1 -39 -1 -71 -4
-71 -3 0 -11 -14 -18 -32 -6 -17 -14 -29 -18 -25 -3 3 -16 2 -29 -3 -27 -10
-245 18 -263 35 -10 9 -10 32 3 119 8 59 17 112 20 117 12 18 25 8 25 -19z
m233 4 c-4 -6 -8 -16 -9 -22 -1 -6 -5 -21 -9 -33 -4 -14 -2 -21 7 -21 10 0 9
-3 -2 -10 -10 -7 -12 -12 -4 -17 6 -5 8 -17 4 -28 -5 -15 -10 -10 -23 28 -8
26 -12 49 -7 52 4 2 11 20 14 39 5 25 11 34 21 29 8 -3 12 -10 8 -17z m151 15
c3 -4 -3 -16 -14 -26 -12 -11 -20 -13 -20 -6 0 6 7 14 16 18 13 5 13 7 2 14
-9 6 -9 9 -1 9 6 0 14 -4 17 -9z m-490 -39 c-5 -4 -10 -18 -12 -32 -1 -14 -4
-42 -7 -63 -2 -23 0 -35 6 -32 5 4 9 3 8 -2 -2 -4 3 -20 11 -35 11 -22 11 -30
0 -43 -7 -8 -15 -13 -18 -11 -2 3 -13 1 -23 -5 -13 -6 -19 -6 -19 1 0 5 4 10
8 10 14 0 32 69 20 76 -6 4 -7 31 -4 68 4 41 3 54 -3 41 -9 -18 -10 -18 -10
-2 -1 10 -4 16 -9 14 -8 -6 -8 -59 0 -73 7 -10 11 -67 8 -99 -1 -11 -4 -15 -7
-7 -2 6 -9 10 -13 7 -5 -3 -12 0 -16 6 -4 8 -3 9 5 5 9 -6 10 3 5 36 -6 45 -7
118 0 125 2 2 14 6 26 8 13 3 28 9 34 15 5 5 12 7 15 4 3 -3 1 -8 -5 -12z m29
-1 c-4 -3 -8 -36 -8 -73 1 -38 0 -68 -2 -68 -9 0 -33 64 -26 69 5 3 9 15 9 26
0 33 15 66 26 59 5 -4 6 -9 1 -13z m535 -11 c-1 -16 -5 -30 -9 -30 -4 0 -9
-10 -11 -22 -3 -24 -48 -40 -48 -18 0 6 -5 8 -12 4 -7 -5 -8 -3 -4 5 5 7 14
10 22 7 10 -4 22 9 36 39 12 25 23 45 25 45 2 0 2 -13 1 -30z m-52 5 c-10 -8
-23 -12 -29 -8 -6 4 -7 1 -2 -7 5 -9 4 -11 -4 -6 -6 4 -9 12 -5 17 3 5 9 7 13
5 4 -3 13 -1 21 5 23 14 27 10 6 -6z m14 -26 c-8 -13 -19 -19 -34 -17 -13 1
-31 -4 -41 -12 -17 -14 -17 -14 -6 8 7 14 18 21 26 18 8 -3 17 -1 20 5 4 5 10
7 15 4 5 -3 11 -1 15 5 12 19 16 10 5 -11z m-315 -20 c6 -4 18 -5 27 -4 9 2
23 -4 30 -13 25 -30 46 -88 38 -102 -10 -16 -31 -4 -24 15 5 13 -24 74 -36 76
-3 0 -14 2 -25 4 -33 7 -53 -4 -60 -33 -8 -33 -23 -52 -40 -52 -10 0 -9 8 4
33 41 79 57 93 86 76z m-95 -46 c0 -5 -5 -15 -10 -23 -8 -12 -10 -11 -10 8 0
12 5 22 10 22 6 0 10 -3 10 -7z"/>
<path d="M3247 16936 c-6 -16 2 -28 14 -20 12 7 11 34 0 34 -5 0 -11 -6 -14
-14z"/>
<path d="M3229 16868 c-7 -25 -7 -48 1 -48 6 0 10 4 10 9 0 5 3 16 6 25 3 9 1
16 -5 16 -6 0 -11 -1 -12 -2z"/>
<path d="M3204 16765 c-9 -22 1 -29 15 -11 8 10 9 16 1 21 -5 3 -13 -1 -16
-10z"/>
<path d="M3183 16690 c-1 -11 2 -18 8 -15 11 7 12 35 1 35 -4 0 -8 -9 -9 -20z"/>
<path d="M3159 16650 c0 -3 -2 -12 -4 -21 -1 -9 1 -22 5 -29 6 -9 10 -6 15 10
4 12 2 27 -4 33 -6 6 -11 9 -12 7z"/>
<path d="M3137 16553 c-4 -3 -7 -13 -7 -22 1 -13 3 -13 11 2 11 19 8 33 -4 20z"/>
<path d="M3053 16283 c0 -7 6 -13 12 -13 6 0 12 6 12 13 0 8 -6 14 -12 14 -6
0 -12 -6 -12 -14z"/>
<path d="M3370 16941 c0 -5 11 -16 25 -25 14 -9 25 -12 25 -6 0 6 8 5 20 -2
17 -11 22 -10 30 2 5 8 6 18 3 23 -3 5 -9 4 -13 -3 -5 -8 -9 -6 -14 6 -6 16
-8 16 -16 4 -8 -12 -13 -13 -30 -2 -23 14 -30 15 -30 3z"/>
<path d="M3374 16875 c-5 -12 -9 -13 -20 -4 -21 17 -28 4 -9 -15 9 -9 22 -13
28 -9 7 4 22 7 35 8 22 0 32 20 9 20 -6 0 -18 4 -25 8 -7 5 -14 2 -18 -8z"/>
<path d="M3376 16804 c-3 -8 -9 -13 -14 -10 -4 2 -14 1 -22 -5 -8 -5 -10 -9
-5 -10 6 0 18 -2 28 -4 9 -2 17 1 17 6 0 6 7 6 18 0 14 -7 21 -5 31 11 16 26
4 39 -15 14 -12 -17 -14 -18 -14 -3 0 21 -16 22 -24 1z"/>
<path d="M3346 16734 c-5 -13 -9 -14 -20 -5 -9 8 -16 8 -20 2 -4 -6 3 -15 14
-21 16 -9 25 -8 38 2 10 8 13 9 9 1 -4 -6 -2 -15 4 -19 13 -8 49 30 49 50 0 6
-7 3 -15 -8 -13 -17 -15 -17 -30 -2 -20 20 -21 20 -29 0z"/>
<path d="M3260 16694 c0 -8 44 -48 54 -50 11 -1 10 4 -2 26 -9 16 -24 28 -34
27 -10 -1 -18 -2 -18 -3z"/>
<path d="M3320 16669 c0 -5 5 -7 10 -4 6 3 10 8 10 11 0 2 -4 4 -10 4 -5 0
-10 -5 -10 -11z"/>
<path d="M3347 16653 c-4 -3 -2 -12 5 -20 9 -11 7 -19 -10 -35 -21 -21 -21
-21 -29 -2 -8 19 -33 31 -33 15 0 -5 -7 -12 -16 -15 -8 -3 -12 -2 -9 3 3 5 1
12 -4 15 -16 10 -21 -10 -7 -29 10 -14 17 -15 31 -7 15 8 22 6 30 -5 9 -13 16
-13 33 -4 12 6 22 18 22 26 0 8 12 21 26 28 18 10 23 16 15 22 -7 4 -15 4 -18
1 -3 -3 -11 -1 -18 4 -7 5 -15 7 -18 3z"/>
<path d="M3265 16546 c-11 -7 -25 -12 -32 -9 -9 4 -11 0 -7 -11 7 -18 30 -21
39 -5 5 6 11 4 19 -7 10 -14 16 -14 35 -5 12 7 19 17 15 22 -4 7 -10 7 -17 0
-8 -8 -14 -6 -22 9 -10 18 -13 19 -30 6z"/>
<path d="M3264 16465 c9 -14 15 -25 14 -26 -29 -8 -46 -5 -57 9 -10 12 -15 14
-18 4 -3 -6 -8 -10 -12 -8 -4 3 -8 -1 -8 -9 0 -8 4 -12 9 -9 5 4 15 -2 22 -12
13 -16 15 -16 44 4 16 12 34 22 40 22 16 0 34 27 23 34 -5 4 -13 1 -17 -5 -5
-9 -10 -8 -18 2 -6 8 -17 15 -25 17 -11 2 -10 -3 3 -23z"/>
<path d="M3264 16399 c-4 -7 -3 -14 4 -17 7 -2 10 -7 7 -12 -6 -10 15 -8 33 3
18 12 15 27 -4 20 -9 -3 -20 0 -24 7 -6 10 -9 9 -16 -1z"/>
<path d="M3150 16355 c-11 -14 -7 -19 13 -16 4 1 10 -6 13 -14 8 -20 31 -19
43 3 9 15 10 15 11 1 0 -20 30 -49 30 -30 0 7 4 10 8 7 4 -2 13 4 20 15 10 16
9 19 -3 19 -8 0 -15 -4 -15 -10 0 -20 -18 -9 -24 15 -7 28 -24 33 -32 10 -7
-17 -35 -21 -31 -4 4 18 -19 21 -33 4z"/>
<path d="M3151 16276 c-16 -9 -20 -15 -12 -21 7 -4 15 -4 18 -1 3 3 12 1 20
-5 10 -9 17 -8 29 2 13 11 17 10 25 -4 8 -13 14 -14 34 -5 27 12 35 34 9 24
-10 -4 -25 1 -35 10 -11 10 -19 12 -19 6 0 -11 -18 -11 -35 0 -6 3 -21 1 -34
-6z"/>
<path d="M3160 16215 c-9 -11 -6 -14 16 -12 15 1 29 7 31 13 5 15 -34 15 -47
-1z"/>
<path d="M3209 16201 c-14 -12 -18 -19 -9 -17 26 5 50 18 50 27 0 14 -16 10
-41 -10z"/>
<path d="M3096 16172 c-6 -10 30 -52 45 -52 6 0 7 4 4 10 -3 6 1 7 9 4 9 -3
16 -9 16 -13 0 -14 25 -8 44 10 18 18 18 18 -4 14 -14 -3 -28 2 -36 13 -12 15
-15 15 -23 2 -8 -12 -13 -12 -29 4 -11 9 -23 13 -26 8z"/>
<path d="M3105 16760 c3 -5 8 -10 11 -10 2 0 4 5 4 10 0 6 -5 10 -11 10 -5 0
-7 -4 -4 -10z"/>
<path d="M2935 16461 c3 -5 0 -13 -6 -17 -8 -5 -7 -9 2 -15 20 -12 42 10 28
27 -13 16 -33 19 -24 5z"/>
<path d="M3690 16260 c0 -5 5 -10 10 -10 6 0 10 5 10 10 0 6 -4 10 -10 10 -5
0 -10 -4 -10 -10z"/>
<path d="M3675 16201 c-3 -5 -1 -12 5 -16 5 -3 10 1 10 9 0 18 -6 21 -15 7z"/>
<path d="M3665 16120 c-3 -5 1 -10 10 -10 9 0 13 5 10 10 -3 6 -8 10 -10 10
-2 0 -7 -4 -10 -10z"/>
<path d="M3661 16034 c0 -11 3 -14 6 -6 3 7 2 16 -1 19 -3 4 -6 -2 -5 -13z"/>
<path d="M3653 15965 c0 -8 4 -12 9 -9 5 3 6 10 3 15 -9 13 -12 11 -12 -6z"/>
<path d="M3630 15890 c0 -5 5 -10 10 -10 6 0 10 5 10 10 0 6 -4 10 -10 10 -5
0 -10 -4 -10 -10z"/>
<path d="M3625 15820 c-3 -5 -1 -10 4 -10 6 0 11 5 11 10 0 6 -2 10 -4 10 -3
0 -8 -4 -11 -10z"/>
<path d="M3635 15761 c-3 -5 -1 -12 5 -16 5 -3 10 1 10 9 0 18 -6 21 -15 7z"/>
<path d="M3606 15721 c-4 -5 -2 -12 3 -15 5 -4 12 -2 15 3 4 5 2 12 -3 15 -5
4 -12 2 -15 -3z"/>
<path d="M3590 15642 c0 -5 7 -9 15 -9 8 0 12 4 9 9 -3 4 -9 8 -15 8 -5 0 -9
-4 -9 -8z"/>
<path d="M3610 15610 c0 -5 5 -10 11 -10 5 0 7 5 4 10 -3 6 -8 10 -11 10 -2 0
-4 -4 -4 -10z"/>
<path d="M2695 15160 c-3 -5 -2 -10 4 -10 5 0 13 5 16 10 3 6 2 10 -4 10 -5 0
-13 -4 -16 -10z"/>
<path d="M2561 15114 c0 -11 3 -14 6 -6 3 7 2 16 -1 19 -3 4 -6 -2 -5 -13z"/>
<path d="M2485 15080 c-3 -5 -1 -10 4 -10 6 0 11 5 11 10 0 6 -2 10 -4 10 -3
0 -8 -4 -11 -10z"/>
<path d="M2415 15050 c3 -5 11 -10 16 -10 6 0 7 5 4 10 -3 6 -11 10 -16 10 -6
0 -7 -4 -4 -10z"/>
<path d="M2340 15021 c0 -6 4 -13 10 -16 6 -3 7 1 4 9 -7 18 -14 21 -14 7z"/>
<path d="M2280 14990 c0 -5 5 -10 10 -10 6 0 10 5 10 10 0 6 -4 10 -10 10 -5
0 -10 -4 -10 -10z"/>
<path d="M2490 14632 c0 -10 41 -35 47 -28 9 8 -17 36 -33 36 -8 0 -14 -3 -14
-8z"/>
<path d="M2634 14625 c16 -12 17 -18 8 -27 -17 -17 -15 -28 7 -28 14 0 17 -6
13 -25 -2 -14 0 -25 6 -25 15 0 22 41 11 62 -6 11 -8 26 -5 33 5 14 -14 25
-42 25 -15 -1 -14 -3 2 -15z"/>
<path d="M2564 14615 c16 -12 17 -17 6 -30 -16 -19 -25 -19 -45 1 -18 19 -30
12 -21 -11 3 -9 10 -13 16 -10 5 3 10 -3 10 -15 0 -12 6 -28 14 -35 12 -12 16
-12 26 0 11 13 7 19 -11 17 -4 -1 -5 7 -2 18 4 16 9 18 25 9 23 -12 37 -4 20
13 -7 7 -8 17 -2 28 8 14 5 19 -13 24 -36 9 -43 6 -23 -9z"/>
<path d="M2360 14600 c0 -5 5 -10 11 -10 6 0 9 -9 6 -19 -3 -11 1 -22 8 -25
17 -6 25 27 11 45 -13 17 -36 23 -36 9z"/>
<path d="M2425 14600 c-3 -5 3 -10 15 -10 20 0 20 -1 6 -22 -16 -22 -22 -48
-9 -35 13 13 33 -15 27 -39 -5 -21 -3 -24 20 -22 28 3 37 18 10 18 -15 0 -15
2 0 25 16 24 16 25 -9 25 -22 0 -24 2 -13 19 9 15 9 23 -1 35 -15 18 -37 21
-46 6z"/>
<path d="M2303 14556 c12 -9 14 -16 8 -21 -16 -9 -13 -25 3 -25 7 0 16 10 19
22 6 23 -7 38 -33 38 -12 -1 -11 -4 3 -14z"/>
<path d="M2234 14549 c-4 -7 0 -17 9 -23 10 -8 12 -17 6 -28 -10 -18 4 -33 21
-23 6 4 10 3 9 -2 -1 -4 -1 -15 0 -23 1 -13 2 -13 11 0 14 22 12 40 -4 40 -9
0 -12 7 -9 18 6 23 -31 59 -43 41z"/>
<path d="M2100 14533 c0 -8 5 -11 10 -8 6 3 10 -4 10 -16 0 -18 3 -20 12 -11
20 20 17 40 -8 45 -16 3 -24 0 -24 -10z"/>
<path d="M2160 14528 c0 -5 9 -12 20 -15 24 -6 25 -11 3 -35 -10 -11 -12 -18
-5 -19 7 -1 18 -2 25 -3 6 -1 11 -9 9 -19 -4 -24 15 -21 23 3 7 22 -2 43 -15
35 -5 -3 -8 7 -7 21 2 22 -3 29 -25 35 -17 4 -28 3 -28 -3z"/>
<path d="M2345 14530 c-3 -5 1 -10 11 -10 12 0 15 -6 11 -21 -7 -27 14 -51 34
-38 11 7 11 9 -4 9 -15 0 -15 3 -5 21 11 17 10 22 -6 35 -23 17 -33 18 -41 4z"/>
<path d="M2023 14506 c10 -8 17 -22 15 -33 -2 -11 2 -17 10 -15 8 1 16 -7 19
-18 7 -26 23 -26 23 1 0 13 -8 23 -21 26 -21 6 -21 7 -4 19 22 17 20 19 -25
27 -31 6 -33 5 -17 -7z"/>
<path d="M1930 14488 c0 -6 3 -9 6 -5 10 9 32 -16 27 -30 -3 -8 3 -13 14 -13
10 0 24 -5 31 -12 9 -9 12 -8 12 6 0 10 -9 20 -19 23 -11 3 -17 11 -15 18 3 7
-5 15 -18 19 -33 8 -38 8 -38 -6z"/>
<path d="M2104 14469 c-3 -5 2 -9 11 -9 12 0 14 -4 6 -19 -8 -14 -7 -22 3 -30
17 -14 22 -6 21 33 0 29 -28 46 -41 25z"/>
<path d="M1828 14458 c8 -8 9 -15 1 -25 -9 -10 -8 -13 5 -13 10 0 16 -9 16
-25 0 -14 5 -25 10 -25 11 0 13 24 4 69 -5 23 -12 31 -27 31 -16 0 -18 -3 -9
-12z"/>
<path d="M1891 14447 c9 -7 14 -18 12 -24 -3 -7 2 -13 11 -13 10 0 13 -6 10
-15 -4 -8 -1 -15 5 -15 15 0 26 30 14 39 -5 3 -12 14 -16 24 -4 9 -16 17 -29
17 -20 -1 -21 -2 -7 -13z"/>
<path d="M2651 14452 c-20 -7 -12 -19 12 -16 12 1 25 3 30 3 4 1 7 5 7 10 0 9
-25 11 -49 3z"/>
<path d="M2572 14441 c-11 -7 -11 -9 1 -14 16 -6 27 0 27 15 0 10 -11 10 -28
-1z"/>
<path d="M2490 14410 c-8 -5 -13 -10 -10 -11 33 -6 47 -4 43 8 -6 15 -13 16
-33 3z"/>
<path d="M2393 14393 c-14 -5 -18 -23 -5 -23 5 0 17 7 28 15 14 11 15 14 4 14
-8 0 -21 -3 -27 -6z"/>
<path d="M2310 14364 c0 -8 6 -11 15 -8 8 4 15 9 15 13 0 4 -7 8 -15 8 -8 0
-15 -6 -15 -13z"/>
<path d="M2238 14363 c-10 -3 -18 -9 -18 -14 0 -12 37 -12 45 0 7 12 -5 19
-27 14z"/>
<path d="M2155 14342 c-2 -3 -2 -8 1 -13 5 -9 34 -1 34 10 0 8 -27 10 -35 3z"/>
<path d="M2080 14330 c0 -15 21 -23 32 -12 6 6 2 11 -11 15 -12 3 -21 1 -21
-3z"/>
<path d="M1990 14300 c0 -11 22 -18 38 -13 21 8 13 21 -13 21 -14 0 -25 -4
-25 -8z"/>
<path d="M1913 14283 c-23 -9 -14 -20 12 -15 14 2 22 8 19 13 -6 10 -12 10
-31 2z"/>
<path d="M2140 14241 c0 -6 4 -13 10 -16 6 -3 7 1 4 9 -7 18 -14 21 -14 7z"/>
<path d="M6107 15014 c-1 -1 -45 -5 -97 -8 -52 -3 -106 -8 -120 -11 -14 -3
-41 -8 -60 -11 -19 -2 -57 -9 -85 -15 -27 -5 -66 -12 -85 -16 -45 -7 -65 -11
-65 -13 0 -1 -13 -4 -30 -6 -16 -3 -36 -11 -44 -17 -12 -10 -13 -9 -6 3 7 12
6 13 -6 4 -8 -7 -30 -15 -49 -19 -19 -4 -41 -12 -49 -19 -12 -9 -13 -8 -6 4 7
12 6 13 -6 4 -12 -9 -86 -34 -106 -35 -5 -1 -17 -6 -28 -12 -11 -6 -22 -12
-25 -12 -39 -10 -68 -20 -79 -29 -8 -6 -16 -9 -18 -8 -6 6 -103 -32 -103 -40
0 -4 -3 -7 -7 -6 -19 5 -240 -95 -254 -115 -3 -5 -9 -7 -12 -5 -4 1 -15 -5
-27 -14 -11 -10 -20 -16 -20 -14 0 3 -42 -22 -92 -54 -51 -33 -127 -80 -168
-104 -42 -25 -84 -53 -95 -63 -11 -10 -38 -30 -60 -43 -22 -13 -42 -26 -45
-30 -3 -3 -37 -31 -77 -63 -40 -31 -84 -68 -99 -82 -15 -14 -31 -25 -36 -25
-5 0 -6 -4 -3 -10 3 -5 2 -10 -4 -10 -17 0 -173 -145 -164 -153 2 -3 -5 -8
-16 -12 -12 -3 -19 -10 -16 -15 3 -5 -4 -12 -16 -15 -11 -4 -19 -9 -16 -11 2
-3 -18 -27 -44 -54 -27 -28 -47 -50 -44 -50 2 0 -8 -13 -23 -29 -31 -34 -37
-41 -77 -96 -17 -22 -34 -45 -40 -52 -25 -30 -32 -41 -60 -85 -17 -27 -34 -48
-38 -48 -5 0 -5 -4 -2 -10 3 -5 2 -10 -4 -10 -6 0 -13 -11 -17 -25 -3 -14 -10
-25 -16 -25 -5 0 -6 -4 -3 -10 3 -5 2 -10 -3 -10 -6 0 -13 -11 -16 -25 -4 -14
-11 -25 -17 -25 -6 0 -8 -3 -6 -7 3 -5 -1 -14 -9 -21 -11 -10 -16 -8 -30 13
-9 14 -20 22 -25 19 -5 -3 -8 -2 -7 3 2 4 -1 8 -5 8 -5 0 -15 11 -22 25 -15
29 -17 29 -51 -5 -22 -22 -64 -35 -64 -19 0 17 33 73 41 68 5 -3 9 -2 9 1 0
10 -28 35 -39 35 -6 0 -15 9 -21 20 -6 11 -15 18 -21 15 -5 -4 -9 -2 -9 4 0
10 -6 14 -109 69 l-62 33 4 -56 c3 -32 1 -55 -4 -55 -6 0 -7 -4 -4 -10 3 -5 1
-10 -5 -10 -6 0 -9 -4 -6 -9 3 -5 -4 -11 -16 -14 -15 -4 -29 3 -49 24 -16 17
-27 36 -26 42 1 6 -8 12 -20 13 -37 3 -38 3 -51 25 -10 16 -10 24 -1 35 6 7
15 11 20 8 5 -3 9 0 9 5 0 6 9 11 19 11 20 0 37 17 27 27 -3 3 -16 7 -28 9
-38 5 -67 12 -80 20 -7 5 -8 3 -3 -6 5 -9 4 -11 -3 -6 -21 13 -56 17 -152 17
-105 1 -164 -7 -220 -29 -14 -5 -28 -10 -32 -11 -5 0 -10 -2 -13 -2 -3 -1 -9
-3 -15 -4 -5 -1 -12 -4 -15 -5 -3 -1 -8 -3 -12 -4 -5 -1 -29 -12 -55 -24 -26
-12 -51 -22 -57 -22 -5 0 -11 -3 -13 -7 -1 -5 -27 -20 -55 -35 -54 -28 -77
-45 -119 -86 -13 -13 -24 -20 -24 -16 0 10 -106 -105 -156 -169 -26 -32 -42
-62 -38 -69 4 -6 3 -9 -2 -5 -5 3 -26 -31 -46 -74 -20 -44 -31 -76 -25 -72 9
5 9 3 0 -8 -10 -13 -32 -79 -40 -124 -10 -58 -9 -201 2 -254 7 -33 10 -63 7
-66 -3 -3 0 -5 7 -5 7 0 10 -4 6 -10 -7 -12 41 -89 60 -97 8 -3 12 -9 9 -14
-3 -5 2 -9 11 -9 8 0 18 -6 21 -14 5 -13 49 -31 67 -28 4 1 7 -3 7 -9 0 -5 5
-7 10 -4 6 3 10 2 10 -3 0 -5 6 -9 13 -9 6 0 26 -4 42 -8 48 -12 138 -9 175 5
3 2 8 2 13 1 4 0 7 4 7 10 0 5 4 8 8 5 5 -3 18 4 30 14 28 27 32 25 22 -7 -4
-16 -9 -35 -11 -43 -2 -8 -7 -17 -11 -20 -3 -3 -8 -12 -10 -19 -8 -37 -87
-114 -146 -142 -56 -28 -161 -33 -212 -11 -66 29 -69 22 -18 -50 11 -16 17
-28 14 -28 -6 0 13 -23 57 -67 29 -31 100 -63 138 -63 29 0 124 39 115 47 -2
2 12 19 30 38 18 19 41 47 51 62 10 16 21 33 26 38 4 6 14 19 22 30 12 17 12
14 0 -22 -21 -61 -8 -116 33 -137 28 -14 47 -9 81 23 20 18 25 2 14 -41 -13
-49 -8 -130 12 -172 18 -38 83 -98 110 -103 6 -1 15 -2 20 -3 27 -6 55 2 92
27 23 15 40 30 37 34 -2 4 0 10 6 14 5 3 10 14 10 23 0 12 -3 13 -8 5 -9 -14
-59 -10 -91 6 -19 11 -41 41 -48 66 -17 67 -21 91 -17 109 3 11 6 30 8 41 3
23 34 84 50 100 6 6 19 14 29 18 14 5 16 2 13 -17 -2 -14 -1 -27 2 -31 4 -4 8
-15 8 -26 1 -10 3 -21 4 -24 1 -3 3 -8 4 -12 1 -5 6 -23 10 -42 24 -101 128
-203 220 -218 61 -9 154 0 206 21 12 5 16 -1 16 -26 3 -116 30 -391 48 -485 9
-46 18 -100 21 -132 2 -18 9 -47 14 -65 6 -17 12 -43 15 -59 3 -15 7 -35 10
-45 3 -9 8 -30 11 -47 8 -38 13 -60 15 -60 1 0 3 -8 5 -17 2 -9 11 -48 21 -87
l18 -69 31 16 c16 9 33 15 38 14 4 -1 7 3 7 10 0 6 3 8 6 5 4 -3 16 -1 27 4
28 15 105 19 150 8 41 -11 79 -38 71 -51 -3 -4 0 -8 6 -8 14 0 -13 -53 -39
-77 -11 -10 -37 -27 -58 -38 -21 -10 -47 -26 -57 -35 -13 -10 -17 -10 -12 -2
5 8 -10 2 -32 -12 -23 -14 -44 -22 -47 -17 -3 6 -1 12 5 16 18 11 10 20 -20
22 -30 2 -33 -6 -17 -47 9 -25 30 -95 29 -97 -1 -2 7 -23 18 -48 11 -25 17
-45 13 -45 -3 0 2 -12 12 -26 11 -18 12 -24 4 -18 -12 6 -12 5 -1 -8 7 -9 14
-24 17 -34 2 -11 11 -36 19 -56 9 -21 13 -38 9 -38 -5 0 -3 -4 4 -8 6 -4 14
-19 16 -33 3 -15 10 -35 16 -45 5 -11 17 -37 27 -59 43 -105 222 -426 245
-441 8 -5 22 22 55 108 11 27 22 48 27 48 4 0 7 6 7 14 0 8 7 22 16 30 8 9 13
16 9 16 -7 0 7 17 48 60 16 17 25 30 20 30 -16 0 112 72 137 77 77 16 110 5
139 -47 12 -22 19 -40 15 -40 -3 0 -2 -6 4 -13 21 -25 3 -215 -24 -259 -12
-19 -14 -39 -3 -32 5 3 29 -4 52 -15 68 -34 111 -121 102 -209 -6 -55 -27 -76
-74 -74 -74 3 -91 6 -91 16 0 5 -3 6 -6 3 -4 -3 -15 -2 -25 4 -11 6 -19 6 -19
0 0 -5 7 -12 16 -15 9 -4 14 -9 11 -12 -3 -3 -19 2 -36 11 -17 8 -31 12 -31 9
0 -4 -8 3 -19 14 -10 12 -21 19 -25 15 -3 -3 -6 -1 -6 5 0 22 -35 16 -64 -10
-28 -26 -29 -28 -13 -46 9 -10 14 -22 10 -27 -5 -4 -2 -5 5 -1 6 4 12 2 12 -3
0 -12 240 -254 320 -323 47 -39 53 -49 41 -60 -12 -11 -13 -11 -6 2 6 11 3 10
-12 -2 -11 -10 -23 -18 -28 -18 -4 0 -14 -8 -22 -17 -8 -10 -11 -12 -7 -4 3 7
-37 -19 -90 -59 -53 -40 -96 -77 -96 -83 0 -6 -3 -7 -6 -4 -4 4 -15 -3 -25
-15 -11 -11 -19 -18 -19 -14 0 4 -13 -6 -28 -21 -16 -15 -27 -30 -26 -33 1 -3
-11 -15 -27 -25 -17 -11 -42 -39 -56 -62 -14 -24 -29 -43 -35 -43 -5 0 -6 -4
-3 -10 3 -5 1 -10 -5 -10 -6 0 -8 -4 -5 -10 3 -5 1 -10 -5 -10 -6 0 -9 -4 -6
-9 4 -5 2 -11 -4 -13 -12 -4 -59 -129 -65 -173 -2 -16 -7 -41 -10 -55 -26
-123 -24 -482 5 -655 5 -33 12 -76 15 -95 5 -35 12 -71 15 -80 1 -3 2 -9 1
-13 -1 -5 4 -27 10 -50 6 -23 12 -46 13 -52 1 -5 6 -16 10 -24 7 -11 6 -12 -5
-6 -12 8 -12 6 0 -8 7 -9 11 -17 8 -17 -3 0 1 -24 10 -52 8 -29 17 -60 18 -68
2 -8 4 -15 5 -15 1 0 3 -8 5 -18 2 -10 7 -26 11 -35 4 -9 8 -20 9 -24 2 -5 3
-9 5 -10 1 -2 3 -11 5 -21 2 -10 7 -26 11 -35 4 -9 8 -24 8 -33 1 -9 7 -23 15
-32 7 -10 10 -17 6 -17 -4 0 -1 -8 6 -17 12 -15 12 -16 -1 -8 -9 5 -8 0 4 -13
11 -12 16 -22 11 -22 -4 0 -2 -7 5 -15 7 -8 9 -15 5 -15 -4 0 -2 -7 5 -15 7
-8 10 -15 7 -15 -3 0 8 -27 24 -60 16 -33 29 -62 29 -65 0 -2 5 -16 11 -32 6
-15 10 -30 9 -32 -1 -2 2 -7 7 -10 5 -3 17 -26 27 -51 10 -25 25 -54 34 -64
13 -15 14 -18 2 -11 -11 6 -10 3 3 -12 9 -11 17 -24 17 -30 0 -6 10 -23 22
-39 13 -15 16 -24 8 -19 -12 6 -11 4 1 -11 9 -10 20 -30 24 -44 4 -14 15 -31
24 -38 12 -10 12 -12 1 -6 -11 6 -10 2 2 -13 10 -11 18 -25 18 -31 0 -7 5 -12
10 -12 6 0 9 -3 8 -7 -3 -10 30 -73 51 -97 9 -11 11 -16 4 -13 -15 9 39 -78
94 -150 45 -59 45 -58 3 -103 -82 -89 -186 -215 -207 -251 -10 -16 -20 -29
-24 -29 -4 0 -16 -15 -28 -32 -11 -18 -28 -42 -38 -53 -30 -32 -115 -154 -163
-232 -25 -40 -48 -73 -53 -73 -4 0 -5 -4 -2 -10 3 -5 1 -10 -5 -10 -6 0 -8 -4
-5 -10 3 -5 1 -10 -5 -10 -6 0 -8 -4 -5 -10 3 -5 2 -10 -3 -10 -11 0 -145
-267 -145 -287 0 -7 -3 -13 -7 -13 -4 0 -7 -6 -7 -12 -1 -7 -12 -43 -26 -79
-14 -37 -23 -69 -20 -73 4 -3 1 -6 -6 -6 -7 0 -9 -4 -6 -10 3 -5 2 -10 -3 -10
-5 0 -9 -6 -9 -12 0 -7 -3 -24 -6 -38 -3 -14 -8 -35 -11 -48 -3 -12 -8 -27
-11 -33 -4 -5 -9 -43 -11 -83 -3 -71 -2 -75 29 -110 56 -62 239 -141 397 -171
88 -16 211 -35 275 -42 86 -8 390 -8 465 1 92 11 124 15 146 20 12 2 37 7 55
10 19 3 44 8 55 10 12 2 37 7 55 10 65 11 89 16 114 26 14 5 29 9 33 9 4 -1 9
-1 12 1 3 1 16 4 30 7 39 7 55 11 55 13 0 1 8 3 18 5 10 2 51 13 90 25 40 12
77 23 82 24 6 1 15 5 21 8 6 4 22 9 35 11 23 5 25 2 24 -27 0 -17 5 -48 12
-68 6 -21 10 -38 6 -38 -3 0 0 -7 7 -15 7 -8 9 -15 5 -15 -4 0 -1 -7 6 -16 14
-18 22 -47 10 -39 -10 5 -51 -32 -51 -46 0 -16 36 -59 44 -52 3 3 6 2 6 -4 0
-16 97 -16 122 1 14 9 35 13 51 11 16 -3 27 -1 27 5 0 6 5 8 10 5 6 -3 11 -1
11 4 1 6 2 17 3 24 1 15 -26 52 -39 52 -5 1 -28 4 -51 8 -37 8 -40 10 -39 40
1 18 -1 37 -4 42 -3 6 -6 15 -7 20 -1 6 -5 24 -8 40 -3 17 -6 46 -8 65 -1 19
-7 38 -13 42 -6 5 -6 8 2 8 7 0 36 11 65 24 63 28 92 38 94 34 1 -2 12 6 25
17 13 12 19 14 14 5 -6 -11 -3 -10 12 3 11 9 22 17 25 17 3 0 21 6 39 14 19 8
37 13 40 13 4 -1 15 6 25 15 11 9 21 17 24 17 3 0 21 7 40 15 19 8 39 14 44
14 5 0 12 5 15 10 6 10 71 40 81 38 3 -1 18 9 34 22 16 12 35 22 42 22 8 0 14
4 14 8 0 5 16 16 36 25 53 26 330 193 402 244 34 24 62 41 62 38 0 -4 6 0 14
7 28 25 124 90 132 88 4 -1 10 2 13 7 9 14 141 105 141 98 0 -4 7 1 16 10 9 9
29 24 43 33 14 9 31 20 36 25 6 4 81 61 167 126 87 66 171 130 187 143 15 12
38 30 51 38 12 8 36 28 54 43 17 15 67 56 111 90 101 77 93 71 169 142 35 33
78 72 95 87 31 25 203 183 263 240 16 16 31 28 34 28 11 0 46 -22 66 -42 11
-11 26 -17 34 -14 10 4 12 2 8 -6 -5 -8 -2 -9 9 -5 10 3 17 2 17 -3 0 -6 3 -9
8 -8 7 1 62 -12 74 -19 4 -2 3 -14 -2 -27 -11 -31 32 -96 60 -89 28 7 75 58
95 102 10 23 24 41 31 41 8 0 11 12 9 36 -2 20 3 50 10 67 12 28 11 35 -7 59
-33 47 -55 38 -125 -47 -13 -14 -23 -31 -23 -35 0 -10 -40 6 -92 39 -22 13
-35 28 -32 36 3 8 2 21 -4 30 -7 13 5 30 52 80 34 34 84 89 111 120 28 32 56
64 63 72 7 7 11 13 8 13 -3 0 10 16 30 35 19 19 32 35 29 35 -3 0 3 8 13 18
23 25 51 59 86 107 17 22 35 43 40 47 6 4 8 8 4 8 -8 0 18 34 55 72 9 10 14
18 10 18 -5 0 -3 4 3 8 6 4 26 30 44 57 19 28 38 52 42 53 4 2 6 8 2 13 -3 5
0 9 6 9 6 0 9 4 6 9 -4 5 -2 11 2 13 31 12 289 515 307 598 2 8 13 42 25 75
12 33 23 69 25 80 3 11 9 38 14 60 29 117 30 124 31 210 0 66 -1 76 -19 119
-12 30 -65 102 -91 124 -26 21 -155 83 -178 85 -12 1 -22 4 -22 7 0 4 -6 7
-12 8 -7 0 -29 3 -48 7 -93 16 -315 12 -415 -8 -11 -3 -36 -7 -55 -11 -19 -3
-46 -8 -60 -11 -14 -3 -40 -8 -59 -11 -19 -3 -46 -10 -60 -16 -14 -5 -27 -9
-28 -9 -2 1 -5 0 -8 0 -3 -1 -9 -3 -15 -4 -5 -1 -11 -3 -12 -5 -2 -1 -12 -3
-23 -5 -26 -5 -60 -13 -60 -15 0 -1 -7 -3 -15 -5 -53 -12 -288 -100 -304 -113
-15 -13 -17 -13 -11 -2 5 9 -1 7 -14 -5 -13 -11 -25 -19 -27 -17 -2 1 -20 -4
-39 -12 -20 -9 -37 -14 -39 -13 -2 1 -13 -7 -25 -17 -12 -11 -21 -16 -21 -12
0 4 -15 -3 -32 -16 -18 -13 -35 -22 -38 -22 -8 3 -85 -38 -91 -48 -3 -5 -9
-10 -12 -9 -8 0 -66 -25 -87 -39 -8 -5 -49 -28 -90 -51 -41 -23 -86 -49 -100
-58 -14 -8 -27 -16 -30 -16 -3 -1 -28 -13 -57 -28 -48 -25 -53 -26 -62 -9 -6
9 -11 14 -11 10 0 -4 -27 19 -60 51 -33 32 -60 57 -60 55 0 -2 -22 18 -49 44
-26 26 -96 93 -155 149 -58 55 -106 103 -106 105 0 3 6 5 13 6 94 7 182 18
182 22 0 1 18 3 40 5 40 3 57 6 128 24 20 5 37 7 37 4 0 -3 8 1 17 8 14 12 16
12 8 0 -6 -11 -5 -12 6 -5 15 9 30 13 69 19 14 1 25 4 25 5 0 2 19 7 60 15 16
3 99 26 185 51 85 24 163 46 174 49 10 2 25 10 34 17 13 11 14 11 7 -2 -7 -12
-6 -13 6 -3 20 17 145 63 153 57 3 -2 4 -1 1 2 -5 7 95 58 108 56 4 -1 7 2 7
8 0 6 3 9 8 8 9 -3 314 182 324 196 5 7 8 7 8 1 0 -6 3 -6 8 1 4 5 28 24 55
42 26 17 53 36 60 42 6 6 30 24 52 41 58 44 122 97 179 149 74 68 227 220 221
220 -3 0 10 16 29 35 20 19 33 35 31 35 -5 0 32 45 63 76 7 8 11 14 7 14 -3 0
6 12 20 27 14 15 25 31 25 35 0 3 6 13 13 20 6 7 25 33 42 58 16 25 34 48 40
52 7 5 7 8 0 8 -6 0 -6 3 1 8 6 4 36 61 68 127 32 66 62 128 67 137 5 10 9 25
9 33 0 8 5 15 12 15 6 0 8 3 5 6 -4 4 0 19 8 33 7 14 22 49 31 76 10 28 21 55
26 61 4 6 5 14 1 17 -3 4 -2 7 4 7 5 0 10 7 11 15 1 8 3 22 4 30 1 8 6 15 11
15 5 0 7 6 4 14 -3 8 -3 17 1 20 24 25 29 200 8 296 -3 13 -8 42 -12 65 -7 46
-12 69 -14 73 -2 1 -3 5 -4 10 -16 73 -135 298 -174 330 -9 6 -13 12 -8 12 6
0 -26 47 -86 124 -44 57 -215 224 -236 231 -12 3 -22 10 -22 15 0 5 -21 22
-47 37 -27 15 -54 33 -61 40 -7 7 -24 16 -38 19 -13 3 -24 9 -24 13 0 4 -7 8
-15 9 -8 1 -22 3 -30 4 -8 1 -15 5 -15 9 0 4 -12 10 -27 14 -16 5 -35 10 -43
12 -8 3 -25 5 -37 6 -13 0 -23 4 -23 8 0 4 -8 6 -17 5 -9 -2 -42 2 -72 8 -57
12 -195 13 -241 2 -21 -4 -16 3 27 42 76 70 91 81 97 75 3 -4 6 -2 6 4 0 14
209 144 283 177 31 14 57 23 57 21 0 -2 20 4 45 15 25 11 47 20 50 20 3 0 6 0
8 1 13 4 48 11 72 14 17 2 44 6 60 9 17 4 61 9 99 12 38 3 73 7 77 10 4 2 10
0 14 -5 3 -7 15 -7 29 -1 13 5 26 6 29 4 5 -5 25 -8 112 -18 17 -2 30 -5 30
-6 0 -1 7 -3 15 -5 8 -2 26 -7 40 -10 14 -4 31 -7 38 -7 6 -1 12 -5 12 -10 0
-4 7 -8 14 -8 8 0 35 -11 60 -24 26 -14 46 -22 46 -19 0 2 7 -3 16 -11 8 -9
21 -16 28 -16 11 0 26 -10 74 -50 6 -6 12 -8 12 -5 0 9 50 -36 143 -127 49
-49 86 -88 81 -88 -5 0 -4 -4 2 -8 6 -4 21 -23 33 -42 l21 -35 0 409 0 408
-36 59 c-19 33 -42 66 -50 74 -9 8 -13 15 -10 15 5 0 -52 57 -87 86 -58 49
-182 102 -212 90 -8 -3 -17 -1 -20 4 -3 5 -47 7 -98 4 -106 -5 -117 -6 -136
-18 -10 -7 -12 -6 -6 4 6 10 4 11 -6 4 -8 -4 -18 -9 -24 -10 -5 -1 -27 -5 -49
-8 -21 -3 -42 -9 -47 -12 -5 -3 -22 -7 -37 -10 -15 -3 -34 -7 -42 -11 -19 -8
-19 -8 -55 -18 -16 -5 -46 -15 -65 -24 -43 -18 -38 -17 -77 -26 -18 -4 -30
-11 -27 -16 3 -5 -1 -7 -8 -4 -7 3 -30 -3 -50 -14 -21 -10 -35 -14 -32 -9 4 6
-6 2 -22 -8 -15 -11 -28 -17 -29 -16 0 5 -51 -15 -86 -34 -14 -7 -29 -11 -33
-7 -3 3 -6 0 -6 -7 0 -7 -3 -11 -6 -7 -3 3 -25 -5 -48 -19 -33 -20 -36 -21
-16 -4 14 12 35 30 48 41 12 10 22 16 22 13 0 -3 6 1 14 8 8 7 28 24 46 38 52
40 116 113 125 141 4 11 11 19 16 19 6 0 8 4 5 9 -4 5 -2 11 3 13 5 1 18 32
28 67 23 75 22 170 -1 207 -9 13 -14 24 -11 24 4 0 -9 14 -27 30 -18 17 -40
30 -50 30 -10 0 -18 3 -18 8 0 8 -8 9 -138 14 -51 2 -95 1 -97 -2 -2 -3 -18
-7 -37 -8 l-33 -2 35 27 c19 16 42 35 50 43 9 8 30 27 49 43 18 15 30 27 27
27 -3 0 14 20 37 44 48 51 54 58 87 106 14 19 37 50 52 69 15 19 25 38 22 43
-3 4 -1 8 4 8 5 0 15 15 23 33 7 17 16 34 19 37 11 8 53 142 56 175 1 17 3 30
4 30 3 0 12 78 12 100 0 32 -17 150 -22 150 -2 0 -5 13 -14 51 -2 12 -9 30
-14 40 -19 36 -35 79 -34 87 1 4 -3 7 -9 7 -5 0 -8 4 -5 8 3 5 -4 19 -15 30
-11 12 -16 22 -12 22 4 0 -1 7 -11 15 -11 8 -17 15 -13 15 3 0 -6 13 -21 29
-15 15 -30 26 -34 24 -5 -2 -8 1 -8 7 0 9 -64 43 -80 42 -3 0 -10 4 -17 10 -7
5 -18 6 -24 2 -7 -4 -9 -3 -6 3 7 11 -49 27 -64 17 -5 -3 -9 -1 -9 3 0 8 -104
8 -171 0 -73 -9 -199 -65 -199 -89 0 -5 -4 -7 -9 -4 -4 3 -13 -5 -18 -17 -10
-21 -8 -22 32 -23 23 -1 56 -9 73 -18 18 -9 34 -16 37 -16 5 0 69 -65 91 -92
22 -28 65 -107 70 -130 12 -52 11 -107 -3 -178 -8 -41 -17 -83 -19 -94 -2 -10
-7 -23 -12 -30 -4 -6 -16 -36 -27 -66 -10 -30 -36 -84 -57 -119 -21 -34 -38
-66 -38 -69 0 -3 -18 -22 -40 -44 -23 -21 -38 -38 -34 -38 7 0 -22 -27 -73
-68 -15 -12 -52 -36 -80 -53 -29 -17 -53 -35 -53 -41 0 -6 -3 -8 -6 -5 -4 3
-27 -6 -53 -21 -25 -15 -47 -26 -48 -24 -2 1 -4 2 -5 1 -2 0 -10 -2 -18 -4 -8
-2 -26 -7 -40 -10 -14 -4 -58 -8 -97 -10 -74 -3 -89 5 -61 33 7 7 8 12 3 12
-6 0 -6 3 0 8 8 6 44 72 50 92 2 7 43 99 60 135 7 16 11 33 9 37 -3 4 0 8 5 8
6 0 11 8 11 18 0 10 4 22 8 28 5 5 17 36 27 69 10 33 22 71 28 85 6 14 11 30
13 37 1 6 7 35 13 64 31 142 33 358 6 489 -3 14 -8 41 -11 60 -3 19 -11 41
-17 49 -10 12 -9 13 2 7 9 -6 8 -1 -3 16 -9 14 -13 28 -9 31 3 4 1 7 -5 7 -7
0 -11 3 -10 8 1 4 -5 21 -15 38 -9 17 -14 34 -12 38 3 3 2 4 -2 1 -3 -3 -23
23 -44 58 -37 61 -149 196 -149 180 -1 -4 -7 3 -15 17 -8 14 -14 21 -15 17 0
-4 -6 -3 -12 3 -46 38 -66 53 -98 72 -19 12 -38 27 -42 32 -4 6 -8 7 -8 3 0
-5 -7 -1 -16 7 -8 9 -22 16 -30 16 -8 0 -14 4 -14 10 0 5 -3 9 -7 8 -5 -1 -27
8 -50 20 -23 12 -49 22 -57 22 -8 0 -16 5 -18 10 -2 6 -13 12 -26 13 -12 0
-22 5 -22 9 0 4 -8 8 -18 8 -10 0 -22 3 -26 8 -4 4 -11 7 -14 8 -4 0 -27 6
-52 14 -56 17 -88 25 -125 33 -5 2 -16 6 -22 10 -7 5 -13 6 -13 2 0 -3 -10 -1
-21 6 -17 9 -20 8 -14 -2 6 -8 4 -10 -6 -3 -15 9 -28 13 -76 19 -18 3 -49 7
-68 10 -19 3 -51 7 -70 10 -143 20 -253 28 -418 29 -87 1 -159 0 -160 0z m77
-463 c38 -15 61 -39 88 -96 19 -41 23 -62 20 -120 -6 -111 -7 -115 -14 -115
-4 0 -5 -9 -3 -20 2 -11 0 -18 -6 -15 -8 5 -14 -23 -10 -47 0 -5 -3 -8 -9 -8
-5 0 -10 -7 -10 -16 0 -8 -11 -35 -25 -60 -13 -24 -23 -44 -20 -44 2 0 -6 -10
-18 -23 -12 -13 -34 -38 -49 -56 -16 -18 -28 -30 -28 -27 0 4 -10 -2 -22 -14
-12 -11 -25 -20 -28 -20 -4 0 -7 -16 -8 -36 -1 -20 -4 -44 -6 -53 -3 -9 -8
-47 -12 -86 -3 -38 -8 -79 -9 -90 -2 -11 -4 -29 -4 -41 -1 -11 -7 -21 -13 -22
-7 0 -29 -3 -48 -5 -19 -2 -55 2 -79 9 -25 7 -49 10 -54 7 -6 -3 -7 -1 -3 5 4
7 -3 14 -18 18 -26 6 -78 58 -69 68 4 3 2 6 -3 6 -10 0 -31 49 -40 92 -8 40
-3 233 5 233 1 0 4 15 7 34 2 19 11 59 20 90 9 31 16 66 17 79 1 12 4 22 7 22
4 0 13 19 20 43 18 56 73 155 107 192 29 32 143 105 168 109 8 1 17 4 20 7 10
10 102 10 129 0z m-1794 -511 c0 -3 10 -6 21 -7 12 -1 29 -9 38 -17 10 -9 22
-16 27 -16 15 0 42 -52 38 -73 -4 -26 -10 -31 -45 -33 -29 -2 -75 27 -61 40 3
3 0 6 -7 6 -7 0 -10 4 -6 9 3 5 1 12 -4 15 -5 4 -12 -7 -16 -24 -9 -39 -18
-38 -43 4 -25 42 -34 93 -19 99 16 6 77 3 77 -3z m924 -61 c33 -14 76 -53 76
-70 0 -6 4 -8 8 -5 5 3 9 0 10 -7 2 -22 14 -82 17 -85 2 -2 -4 -24 -12 -48 -8
-25 -18 -43 -21 -40 -3 3 -10 -1 -16 -9 -6 -9 -22 -18 -36 -21 -14 -3 -36 -8
-50 -11 -83 -19 -155 21 -180 102 -13 38 -13 39 -23 15 -6 -14 -9 -31 -8 -39
1 -7 -2 -10 -8 -7 -5 3 -11 -2 -13 -11 -2 -13 -8 -7 -21 19 -20 43 -28 108
-14 108 6 0 7 3 4 6 -13 13 26 61 70 87 24 15 41 22 37 15 -4 -6 2 -5 14 4 26
17 118 16 166 -3z m2029 -153 c11 -1 33 -14 51 -28 34 -27 61 -105 58 -163 -3
-42 -33 -135 -44 -135 -5 0 -6 -4 -3 -10 3 -5 2 -10 -3 -10 -6 0 -12 -10 -16
-22 -3 -13 -19 -38 -35 -56 l-31 -33 37 -37 c21 -20 36 -38 35 -39 -6 -8 -1
-23 6 -19 9 6 10 4 16 -66 3 -26 1 -50 -5 -53 -5 -4 -7 -10 -5 -14 3 -4 0 -8
-7 -9 -7 0 -23 -4 -37 -7 -34 -10 -123 -14 -135 -6 -5 3 -12 6 -15 6 -15 2
-80 39 -80 46 0 19 -40 30 -62 17 -13 -6 -29 -13 -35 -15 -7 -2 -21 -5 -30 -7
-10 -3 -29 -5 -43 -6 -25 -1 -25 -1 5 -17 17 -10 33 -16 38 -15 14 4 7 -16 -8
-22 -8 -3 -15 -1 -15 4 0 5 -9 7 -20 5 -11 -2 -20 1 -20 6 0 6 -4 8 -9 4 -5
-3 -12 -1 -16 5 -4 6 -11 8 -16 5 -5 -4 -9 -2 -9 3 0 6 -10 12 -23 16 -13 3
-33 13 -44 23 -12 10 -33 26 -47 37 -14 10 -23 22 -20 27 3 5 0 9 -7 9 -7 0
-9 3 -6 7 4 3 2 12 -4 19 -19 23 -15 118 6 179 11 30 56 116 74 139 36 45 149
150 137 126 -4 -8 0 -6 8 4 9 11 16 16 16 10 0 -5 4 -4 8 2 10 17 136 75 173
81 17 2 41 8 53 12 18 7 71 6 129 -3z m-2304 -327 c28 -29 48 -56 45 -60 -3
-5 -1 -9 5 -9 5 0 20 -18 32 -40 13 -22 27 -41 33 -41 11 -1 15 -1 51 8 41 9
50 12 50 13 0 1 16 4 35 6 19 3 49 9 67 14 32 8 216 6 285 -4 75 -10 215 -55
246 -79 6 -5 12 -6 12 -3 0 6 12 -2 45 -32 8 -7 15 -10 15 -6 0 4 9 -3 20 -16
11 -13 20 -20 20 -15 0 4 13 -8 29 -28 15 -20 31 -34 34 -31 3 3 8 -4 12 -15
3 -12 11 -19 16 -15 5 3 9 2 8 -3 -3 -17 14 -52 22 -47 5 3 8 2 7 -3 -4 -14
13 -53 21 -49 4 3 8 0 8 -7 0 -7 13 -35 29 -62 25 -43 61 -128 68 -160 1 -5 4
-14 8 -20 5 -9 12 -37 22 -91 3 -12 9 -37 14 -55 9 -36 8 -266 -2 -334 -7 -46
-38 -156 -57 -200 -7 -16 -13 -32 -13 -35 -4 -16 -95 -193 -96 -185 0 6 -8 -6
-17 -25 -10 -19 -20 -37 -24 -40 -12 -9 -15 -34 -4 -35 25 -4 71 -19 83 -28 6
-5 12 -7 12 -3 0 4 17 -2 39 -13 21 -11 41 -17 45 -14 3 4 6 2 6 -4 0 -6 12
-15 28 -21 46 -16 152 -114 160 -149 15 -66 13 -89 -10 -114 -19 -22 -44 -38
-68 -43 -3 -1 -15 -7 -27 -14 -13 -7 -23 -11 -23 -8 0 3 -19 -1 -43 -8 -60
-18 -216 -12 -304 12 -40 11 -74 17 -77 14 -4 -3 -6 1 -6 8 0 7 -3 10 -7 6 -4
-4 11 -23 32 -42 30 -26 34 -34 18 -29 -34 10 -67 17 -82 17 -7 1 -51 20 -96
43 l-82 41 -34 -22 c-19 -12 -58 -34 -87 -49 -29 -15 -55 -31 -58 -36 -3 -5
-10 -7 -15 -4 -5 4 -9 1 -9 -4 0 -6 -3 -10 -7 -9 -11 2 -67 -25 -75 -37 -4 -5
-8 -7 -8 -3 0 4 -25 -3 -55 -17 -30 -13 -55 -22 -55 -20 0 2 -20 -4 -45 -15
-25 -11 -49 -20 -53 -20 -4 0 -20 -4 -37 -10 -16 -5 -41 -12 -55 -14 -14 -3
-25 -5 -25 -6 0 -1 -11 -4 -25 -6 -52 -10 -65 -13 -65 -14 0 -1 -8 -3 -17 -5
-9 -2 -40 -8 -70 -15 -29 -6 -71 -13 -93 -16 -22 -3 -51 -8 -65 -10 -54 -10
-149 -17 -230 -16 -71 0 -82 -2 -68 -12 10 -7 15 -16 11 -19 -3 -4 -2 -7 4 -7
11 0 21 -8 102 -82 56 -51 61 -59 31 -53 -11 2 -22 0 -25 -5 -3 -5 -11 -7 -18
-5 -7 2 -23 6 -37 9 -39 6 -152 62 -158 78 -2 4 -8 6 -13 2 -5 -3 -9 0 -9 5 0
6 -6 11 -13 11 -6 0 -33 20 -60 44 -26 25 -47 42 -47 40 0 -11 -73 73 -86 98
-8 16 -19 28 -25 28 -6 0 -8 4 -5 9 3 5 0 11 -7 14 -6 2 -28 35 -47 73 -19 38
-39 72 -45 76 -5 4 -7 8 -2 8 4 0 0 11 -9 25 -9 14 -13 25 -9 25 4 0 3 6 -3
13 -5 6 -13 28 -17 47 -4 19 -12 41 -19 49 -9 12 -8 13 4 6 12 -7 13 -6 3 6
-7 9 -14 41 -16 71 -3 31 -6 59 -9 64 -5 12 -1 126 8 204 4 36 8 80 8 97 1 18
4 33 8 33 4 0 5 9 3 20 -2 11 0 20 5 20 4 0 6 10 2 22 -3 14 -1 19 6 14 8 -4
10 -2 6 8 -8 21 41 178 84 266 20 41 37 78 37 81 0 3 17 34 38 69 20 35 37 67
37 71 0 5 4 9 10 9 5 0 9 4 7 8 -2 7 28 52 58 85 6 7 21 28 35 47 32 47 86
100 94 93 17 -17 3 8 -19 33 -26 30 -33 30 -38 -3 -1 -11 -11 -31 -20 -44 -10
-13 -15 -19 -12 -12 3 8 -4 15 -20 19 -13 3 -23 10 -20 14 2 4 -4 15 -14 25
-21 18 -20 53 1 67 13 9 151 4 198 -8 19 -4 35 2 62 23 69 52 93 68 101 65 4
-1 7 2 7 7 0 10 141 97 153 93 4 -1 7 3 7 10 0 6 3 8 7 5 3 -4 12 1 20 11 9
10 12 11 7 2 -6 -13 -4 -12 12 1 32 27 131 78 138 72 3 -4 6 -1 6 6 0 7 5 9
10 6 6 -3 10 -2 10 3 0 8 22 18 60 27 3 0 15 6 26 13 12 6 23 9 26 7 3 -3 5 2
5 10 0 8 -2 13 -5 11 -15 -16 -78 84 -86 136 -3 21 -6 41 -7 45 -4 21 2 43 11
43 5 0 32 -23 59 -51z m-2469 7 c0 4 11 -5 24 -21 27 -32 29 -79 3 -119 -16
-24 -16 -26 1 -43 23 -23 55 -73 46 -73 -4 0 -2 -6 3 -12 9 -12 9 -28 1 -83
-2 -11 -9 -26 -16 -33 -7 -8 -10 -18 -7 -23 4 -5 2 -9 -3 -9 -5 0 -15 -13 -22
-30 -11 -26 -22 -42 -60 -87 -6 -7 -8 -13 -5 -13 3 0 -14 -17 -37 -37 -24 -21
-46 -43 -50 -49 -4 -7 -19 -15 -33 -18 -14 -4 -24 -10 -21 -14 3 -4 1 -14 -3
-21 -6 -10 -11 -9 -23 3 -9 8 -18 13 -20 10 -3 -2 -33 -6 -66 -8 -45 -3 -71 1
-97 14 -19 10 -32 13 -28 6 3 -6 -4 -2 -18 9 -35 28 -74 68 -75 77 -1 5 -2 9
-3 11 -12 14 -16 91 -8 137 6 33 49 120 60 120 4 0 5 5 2 10 -3 6 -1 10 4 10
6 0 11 7 11 15 0 9 7 18 15 21 8 4 15 11 15 16 0 15 57 78 64 71 3 -4 6 1 6
10 0 9 6 20 14 24 8 4 32 24 53 44 84 78 192 118 246 92 15 -7 27 -10 27 -7z
m114 -2 c20 -8 21 -54 2 -54 -15 0 -46 26 -46 39 0 19 18 25 44 15z m-577
-160 c16 -15 17 -74 2 -74 -5 0 -8 -3 -6 -7 3 -5 -1 -14 -9 -21 -8 -7 -14 -10
-14 -6 0 3 -6 1 -14 -5 -8 -7 -25 -9 -39 -6 -22 6 -32 20 -42 63 -6 22 -12 24
-34 10 -26 -16 -27 -29 -1 -51 22 -18 24 -26 12 -43 -23 -34 -85 -11 -78 29 3
12 5 28 5 36 1 8 4 12 7 9 3 -3 24 12 47 34 23 22 54 42 70 45 15 3 30 10 33
14 6 10 40 -6 61 -27z m607 -67 c-5 -14 -34 -19 -34 -7 0 11 12 20 26 20 8 0
11 -6 8 -13z m466 -117 c112 -56 179 -183 177 -334 0 -42 3 -79 8 -83 4 -5 5
-3 2 3 -9 15 20 27 29 12 8 -12 -36 -49 -48 -42 -4 3 -5 -3 -1 -12 5 -13 3
-15 -7 -9 -8 5 -11 4 -6 -3 4 -6 -5 -34 -19 -62 -14 -27 -24 -52 -23 -56 2 -3
-5 -10 -14 -15 -25 -14 -22 -27 7 -41 40 -18 32 -38 -10 -25 -32 10 -37 8 -65
-21 -16 -18 -30 -29 -30 -26 0 3 -12 -3 -27 -14 -57 -40 -172 -46 -195 -10 -4
7 -8 9 -8 4 0 -5 -6 -3 -13 3 -8 6 -18 7 -22 3 -5 -4 -5 -2 -2 4 7 11 -19 29
-36 25 -5 -1 -6 2 -3 7 3 5 -4 15 -15 22 -10 8 -19 20 -19 27 0 7 -3 13 -8 13
-12 0 -42 79 -48 128 -8 69 -12 76 -28 63 -8 -7 -35 -11 -61 -10 -71 4 -82 43
-26 93 12 11 21 15 21 10 0 -5 4 -3 9 4 4 7 17 14 28 15 12 0 19 6 16 13 -5
14 13 22 44 19 16 -1 25 7 34 27 6 15 16 28 22 28 6 0 7 3 4 7 -4 3 -2 12 4
20 6 7 8 13 5 13 -4 0 -1 6 6 14 7 8 17 11 22 8 5 -3 6 -1 3 5 -7 11 37 65 47
56 3 -3 6 -1 6 6 0 13 25 42 31 37 2 -1 22 15 44 37 39 39 40 39 12 34 -33 -5
-45 8 -20 22 32 19 114 10 173 -19z m200 -4 c0 -3 -4 -8 -10 -11 -5 -3 -10 -1
-10 4 0 6 5 11 10 11 6 0 10 -2 10 -4z m89 -90 c10 -12 8 -16 -10 -21 -13 -5
-25 -2 -30 6 -17 28 19 41 40 15z m-689 -16 c20 -11 17 -39 -3 -36 -23 3 -36
17 -30 31 6 18 9 18 33 5z m-780 -67 c0 -7 -4 -13 -10 -13 -5 0 -13 -1 -17 -2
-5 -2 -8 9 -9 24 -1 23 1 25 18 15 10 -7 18 -17 18 -24z m834 2 c-4 -8 -8 -15
-10 -15 -2 0 -4 7 -4 15 0 8 4 15 10 15 5 0 7 -7 4 -15z m3884 5 c21 -5 52
-22 68 -36 16 -15 23 -23 15 -19 -9 5 -8 0 3 -17 21 -31 17 -83 -6 -108 -21
-22 -78 -54 -78 -44 0 4 -6 2 -12 -3 -15 -11 -79 -11 -123 0 -34 8 -42 35 -23
71 11 20 10 20 -8 6 -10 -8 -25 -21 -33 -28 -19 -18 -33 -2 -33 40 1 108 106
172 230 138z m1075 -149 c-3 -10 0 -22 6 -25 6 -4 11 -3 11 3 0 11 50 24 105
26 39 1 70 -16 70 -39 0 -14 -27 -46 -39 -46 -5 0 -18 -8 -29 -17 -13 -11 -17
-13 -12 -4 6 11 3 11 -14 -1 -14 -10 -35 -14 -54 -11 -37 6 -40 8 -43 31 -2 9
-6 32 -9 50 -3 18 -3 37 0 42 10 16 14 12 8 -9z m-5803 -1 c0 -5 -4 -10 -10
-10 -5 0 -10 5 -10 10 0 6 5 10 10 10 6 0 10 -4 10 -10z m-256 -15 c3 -9 0
-15 -8 -15 -7 0 -13 7 -13 15 0 8 4 15 8 15 4 0 9 -7 13 -15z m6039 -40 c-3
-9 -8 -14 -10 -11 -3 3 -2 9 2 15 9 16 15 13 8 -4z m-5484 -19 c40 -9 69 -34
73 -63 8 -65 -60 -142 -127 -143 -46 0 -65 3 -65 11 0 3 -9 9 -20 12 -21 5
-50 62 -54 106 -2 25 33 71 65 84 15 6 87 2 128 -7z m-295 -91 c13 -10 23 -22
20 -27 -3 -4 -1 -8 3 -8 5 0 13 -13 19 -28 8 -21 8 -31 -2 -40 -20 -19 -31
-15 -44 17 -8 20 -21 32 -41 36 -33 7 -34 11 -17 47 14 29 26 30 62 3z m-76
-97 c8 -8 6 -16 -10 -30 -20 -17 -38 -24 -38 -13 0 10 24 55 30 55 3 0 11 -5
18 -12z m1625 -103 c-3 -13 -53 -20 -53 -7 0 15 13 23 35 20 11 -2 19 -7 18
-13z m-1173 -35 c0 -5 -4 -10 -10 -10 -5 0 -10 5 -10 10 0 6 5 10 10 10 6 0
10 -4 10 -10z m979 -25 c13 7 7 -49 -6 -63 -6 -7 -25 -15 -41 -18 -23 -5 -33
-1 -46 17 -12 18 -13 25 -3 31 6 4 8 8 2 8 -5 0 1 7 14 17 19 13 28 14 42 4
16 -9 19 -8 20 6 0 11 3 13 6 5 2 -6 8 -10 12 -7z m-513 -8 c-5 9 -2 11 7 7 8
-3 14 -13 12 -22 -2 -9 -4 -23 -4 -30 -1 -7 -5 -10 -11 -7 -5 3 -10 1 -10 -4
0 -16 -39 -13 -56 4 -13 13 -12 18 11 41 22 22 28 24 42 12 12 -9 15 -9 9 -1z
m338 -79 c12 -13 20 -26 19 -30 -2 -5 1 -8 6 -8 8 0 33 -51 38 -80 12 -62 10
-89 -7 -117 -24 -40 -58 -46 -88 -16 -12 13 -21 23 -18 23 3 0 -1 12 -9 26 -8
15 -12 47 -10 74 3 33 -2 60 -15 86 -17 33 -18 38 -4 48 27 20 66 17 88 -6z
m-320 -59 c-3 -5 -1 -9 4 -9 15 0 34 -54 29 -81 -13 -68 -60 -138 -95 -139
-27 0 -62 48 -62 85 0 22 -4 34 -10 30 -5 -3 -10 -1 -10 6 0 7 -3 9 -7 6 -3
-4 -12 1 -18 10 -11 15 -9 21 13 39 14 12 31 20 39 17 17 -7 45 16 40 31 -3 8
11 12 39 12 24 1 41 -3 38 -7z m6831 -41 c14 -13 28 -36 31 -53 6 -35 -14
-117 -27 -109 -5 3 -6 -2 -3 -10 6 -16 -7 -22 -20 -9 -3 4 -20 8 -36 9 -34 3
-112 43 -104 55 2 4 0 11 -6 14 -16 10 -8 68 12 88 10 9 18 15 18 13 0 -3 12
2 28 10 39 20 77 17 107 -8z m-7165 -33 c-14 -16 -40 -20 -40 -6 0 5 7 17 16
26 22 21 44 4 24 -20z m997 -1 c-7 -7 15 -34 24 -28 11 6 2 -77 -9 -88 -5 -5
-28 -12 -50 -14 -50 -5 -71 15 -49 46 7 11 17 17 20 13 4 -3 7 1 7 10 0 10 5
17 12 17 6 0 9 3 5 6 -7 7 24 44 37 44 5 0 7 -3 3 -6z m-1496 -124 c-5 -3 -10
-11 -12 -18 -3 -9 -9 -9 -27 3 -28 21 -28 43 1 47 22 3 52 -22 38 -32z m5755
-226 c-3 -9 -6 -18 -6 -20 0 -2 -4 -4 -9 -4 -7 0 -8 17 -2 38 1 1 6 2 12 2 6
0 8 -7 5 -16z m71 4 c15 -6 32 -10 36 -9 5 1 6 -3 2 -9 -3 -5 -2 -10 3 -10 5
0 9 -10 8 -22 -1 -18 -8 -24 -33 -26 -38 -4 -66 22 -68 62 -1 29 10 32 52 14z
m-4311 -109 c17 -14 18 -45 3 -54 -16 -10 -66 14 -72 35 -9 36 34 48 69 19z
m4287 -464 c9 2 17 0 17 -3 0 -4 10 -8 23 -8 58 -4 155 -53 206 -106 50 -51
72 -78 66 -78 -3 0 5 -19 19 -43 31 -52 53 -145 50 -212 -2 -57 -33 -165 -46
-165 -5 0 -6 -4 -3 -10 3 -5 1 -10 -4 -10 -6 0 -11 -6 -11 -14 0 -8 -7 -22
-16 -30 -8 -9 -13 -16 -10 -16 3 0 -7 -13 -22 -29 -15 -15 -31 -26 -37 -23 -5
3 -4 -2 4 -11 7 -9 16 -15 20 -13 3 2 20 -2 36 -9 35 -16 29 -17 -80 -20 -38
-1 -81 -6 -95 -10 -72 -22 -260 -2 -260 27 0 5 -4 6 -10 3 -5 -3 -10 -2 -10 4
0 5 -9 13 -20 16 -22 7 -159 135 -145 135 4 0 -10 12 -31 26 -21 15 -41 30
-42 35 -2 5 -8 7 -13 3 -5 -3 -9 -1 -9 5 0 5 -13 22 -29 38 -27 27 -48 69 -43
86 1 5 -2 6 -8 2 -8 -5 -15 8 -8 18 1 1 -5 13 -12 27 -7 13 -12 41 -12 61 2
44 38 128 65 152 11 9 16 17 12 17 -4 0 3 10 17 23 46 41 68 57 68 50 0 -4 7
2 16 13 8 10 12 12 8 4 -7 -13 -5 -13 12 0 28 22 84 52 84 45 0 -3 10 -1 21 6
12 6 54 13 93 16 39 3 73 7 75 8 1 2 13 0 25 -4 11 -5 29 -7 39 -6z m-2473
-92 c7 -16 13 -31 12 -35 -3 -12 16 -10 23 2 9 15 52 12 58 -5 7 -16 -3 -24
-37 -31 -28 -5 -65 22 -69 51 -1 11 -6 26 -10 33 -5 6 -4 12 1 12 5 0 15 -12
22 -27z m-159 -225 c10 -19 9 -24 -6 -33 -10 -5 -26 -17 -35 -26 -10 -9 -23
-13 -30 -9 -8 5 -7 9 4 13 9 4 16 17 16 30 0 22 16 47 32 47 4 0 13 -10 19
-22z m317 -7 c10 -5 24 -16 30 -24 15 -17 23 -97 10 -97 -5 0 -7 -4 -3 -9 5
-10 -25 -23 -57 -27 -10 -1 -20 -2 -23 -3 -10 -2 -15 -1 -14 5 0 3 -7 16 -16
30 -60 92 -14 171 73 125z m3101 -168 c17 -15 25 -38 32 -91 4 -28 -3 -52 -12
-46 -7 4 -10 1 -7 -7 2 -7 -6 -25 -19 -39 -22 -23 -22 -26 -6 -37 9 -7 13 -13
7 -13 -5 0 -4 -4 2 -8 16 -10 134 -155 134 -164 0 -13 -38 -47 -44 -40 -3 3
-6 0 -6 -7 0 -7 -4 -10 -9 -6 -6 3 -14 -3 -20 -12 -6 -10 -11 -14 -11 -9 0 4
-10 1 -23 -7 -28 -18 -92 -30 -118 -22 -10 3 -27 22 -38 41 -12 19 -15 32 -9
28 10 -6 10 -5 1 7 -33 41 -39 295 -9 371 10 26 22 45 27 42 5 -3 9 -1 9 5 0
11 45 29 76 30 12 1 31 -7 43 -16z m-1549 -36 c21 -16 19 -55 -2 -71 -22 -16
-23 -22 -3 -24 8 -1 22 -3 30 -4 8 -1 15 -5 15 -9 0 -4 9 -6 20 -4 11 2 20 0
20 -4 0 -5 21 -16 48 -26 26 -10 54 -23 62 -30 8 -7 25 -16 38 -19 12 -4 22
-12 22 -17 0 -5 4 -8 8 -6 11 3 139 -92 180 -134 69 -72 101 -109 95 -109 -4
0 2 -7 13 -16 10 -8 12 -13 4 -9 -8 4 -6 -1 4 -9 11 -9 16 -16 12 -16 -4 0 1
-15 12 -32 23 -37 73 -158 66 -158 -3 0 1 -10 8 -22 6 -13 13 -32 14 -43 3
-35 14 -97 19 -105 3 -5 1 -11 -5 -15 -6 -4 -8 -10 -5 -15 8 -13 -32 -166 -57
-220 -12 -25 -22 -47 -23 -50 -8 -24 -30 -60 -37 -60 -5 0 -6 -4 -3 -10 3 -5
2 -10 -2 -10 -5 0 -17 -13 -26 -30 -24 -39 -153 -171 -161 -163 -3 4 -6 1 -6
-6 0 -7 -4 -9 -10 -6 -5 3 -10 2 -10 -2 0 -10 -162 -113 -178 -113 -7 0 -12
-5 -12 -12 0 -6 -3 -8 -7 -5 -3 4 -18 -3 -31 -15 -14 -13 -22 -16 -18 -8 4 8
0 6 -8 -4 -9 -11 -16 -16 -16 -12 0 5 -11 1 -25 -8 -14 -9 -25 -14 -25 -11 0
4 -53 -20 -112 -51 -16 -9 -28 -12 -28 -8 0 3 -12 -1 -26 -11 -15 -9 -23 -12
-19 -5 4 7 -4 4 -19 -5 -14 -10 -26 -14 -26 -11 0 4 -10 1 -22 -6 -22 -11 -28
-14 -60 -21 -7 -1 -18 -5 -23 -9 -6 -3 -28 -10 -50 -14 -49 -10 -47 -9 -65
-17 -8 -4 -24 -8 -35 -10 -11 -1 -24 -5 -30 -9 -9 -5 -37 -12 -93 -23 -13 -2
-31 -6 -40 -9 -9 -3 -32 -8 -51 -11 -19 -3 -37 -7 -40 -9 -3 -2 -24 -7 -46
-10 -22 -3 -53 -9 -70 -13 -16 -3 -43 -7 -60 -8 -16 -1 -48 -5 -70 -8 -55 -10
-149 -18 -217 -18 -44 -1 -73 6 -128 32 -39 18 -77 32 -85 32 -8 0 -15 5 -15
10 0 6 -3 8 -6 5 -3 -4 -20 0 -38 7 -18 8 -45 16 -60 19 -15 3 -42 10 -60 16
-18 6 -44 13 -57 16 -44 9 -134 26 -159 29 -14 2 -28 3 -33 4 -4 1 -12 12 -19
26 -6 13 -14 22 -19 20 -8 -5 -25 34 -21 48 1 5 -1 6 -6 4 -4 -3 -15 8 -25 24
-10 18 -12 28 -4 24 6 -4 3 1 -7 9 -11 9 -17 16 -13 16 4 0 2 10 -5 23 -6 12
-14 29 -15 37 -6 27 -3 111 4 123 4 7 8 18 9 25 3 18 43 77 84 125 30 34 134
105 163 111 7 2 24 8 39 14 l27 11 -15 48 c-25 80 -18 237 16 362 40 143 109
224 279 326 35 21 70 38 77 38 7 0 11 4 8 9 -5 7 3 10 22 7 3 0 12 8 21 18 9
11 12 12 8 3 -4 -8 1 -6 9 4 9 11 16 16 16 10 0 -5 7 -1 14 9 8 10 17 18 20
18 11 -1 41 13 76 34 19 12 38 23 42 24 17 4 84 32 102 42 13 7 16 7 11 0 -3
-6 10 -2 29 10 20 12 36 18 36 14 0 -4 6 -3 13 3 14 12 138 51 186 58 46 8 70
12 89 18 9 3 51 7 92 11 41 3 82 8 92 11 9 2 19 1 22 -5 11 -17 42 0 53 29 10
28 13 29 42 19 17 -6 36 -19 41 -29 9 -18 21 -22 102 -36 l37 -6 -12 32 c-10
27 -10 33 6 45 20 14 72 10 97 -8z m2012 -160 c-6 -22 -9 -27 -52 -62 -13 -11
-20 -14 -15 -6 4 8 -3 6 -20 -5 -17 -11 -49 -19 -80 -20 l-52 -1 0 41 c1 60
37 85 123 84 35 -1 67 2 71 5 12 13 31 -14 25 -36z m-3812 -503 c19 -19 18
-49 -3 -69 -11 -11 -16 -13 -12 -5 6 12 5 13 -6 3 -20 -19 -62 -15 -82 7 -25
30 -21 39 24 59 44 20 63 21 79 5z m2950 -180 c0 -20 -23 -40 -42 -36 -5 1 -8
-3 -8 -9 0 -7 -11 0 -24 14 -30 32 -27 59 5 68 35 8 69 -10 69 -37z m-3142
-321 c-2 -10 -7 -18 -12 -18 -5 0 -10 8 -12 18 -1 9 4 17 13 17 8 0 13 -7 11
-17z m2872 -51 c2 -1 5 -23 6 -48 1 -25 0 -43 -2 -41 -3 3 -22 -12 -42 -32
-20 -20 -50 -43 -66 -49 l-29 -13 26 34 c21 28 23 35 11 43 -19 12 -37 74 -22
74 6 0 8 3 5 6 -9 10 12 46 24 39 5 -4 9 -1 9 5 0 6 4 9 9 5 5 -3 13 0 16 5 5
8 14 5 28 -7 12 -10 24 -19 27 -21z m-3012 -42 c2 -6 7 -8 12 -5 5 3 11 -4 15
-15 4 -11 10 -18 14 -16 8 5 11 -8 12 -61 1 -34 -29 -105 -47 -110 -13 -4 -32
36 -28 61 1 11 -1 15 -6 10 -5 -5 -10 -26 -12 -47 -1 -20 -6 -37 -10 -37 -10
0 -50 40 -40 40 4 0 2 4 -5 8 -17 11 -41 73 -37 96 7 48 15 62 41 79 29 18 85
16 91 -3z m4036 14 c25 -9 19 -52 -10 -79 -15 -14 -30 -22 -35 -20 -4 3 -10
-3 -13 -12 -2 -10 -4 7 -3 37 0 44 5 57 21 67 25 15 21 14 40 7z m-316 -59 c1
-14 -5 -21 -18 -22 -13 -1 -20 4 -20 16 0 34 35 40 38 6z m-1449 -500 c53 -10
92 -64 104 -142 2 -12 6 -25 10 -29 3 -4 3 -12 0 -18 -4 -6 -8 -23 -9 -37 -3
-39 -31 -114 -58 -157 l-24 -38 102 2 c55 1 115 3 133 3 l32 1 -20 46 c-12 25
-23 61 -25 80 -2 19 -5 38 -5 42 -6 38 5 74 31 102 16 17 34 29 39 26 5 -4 12
-2 15 3 4 6 18 6 36 1 32 -9 36 -10 48 -10 14 0 59 -46 66 -68 4 -12 11 -20
14 -18 12 7 13 -113 2 -135 -16 -28 -47 -59 -54 -51 -3 3 -6 0 -6 -6 0 -7 7
-12 17 -12 21 0 12 -9 -16 -15 -11 -2 -27 -7 -34 -12 -6 -4 -23 -9 -37 -11
-13 -2 -30 -8 -36 -13 -8 -7 -14 -6 -19 1 -4 7 -11 8 -18 1 -28 -23 -292 -41
-387 -27 -91 13 -119 19 -160 35 -51 20 -100 58 -100 78 0 9 -5 11 -12 7 -7
-4 -10 -3 -5 1 4 5 0 19 -8 31 -19 30 -22 128 -5 179 13 40 72 109 84 98 3 -4
6 -2 6 4 0 24 162 72 229 66 20 -1 51 -5 70 -8z m-1699 -191 c19 -1 49 -5 65
-8 17 -4 36 -8 43 -8 6 -1 12 -4 12 -8 0 -3 10 -6 22 -7 32 -3 202 -88 235
-118 75 -68 96 -93 121 -144 19 -40 27 -70 26 -106 -1 -64 -11 -109 -24 -113
-5 -2 -8 -8 -4 -13 3 -5 0 -9 -7 -9 -7 0 -10 -2 -7 -5 8 -8 -44 -65 -59 -65
-7 0 -13 -4 -13 -10 0 -6 -3 -9 -7 -8 -5 1 -21 -5 -38 -12 -16 -7 -33 -14 -37
-15 -5 -2 -10 -4 -13 -5 -3 -1 -9 -4 -15 -5 -5 -1 -11 -3 -12 -5 -4 -2 -21 -6
-73 -16 -68 -14 -345 -9 -345 6 0 3 -14 7 -31 8 -17 1 -39 7 -49 12 -9 5 -20
6 -24 3 -3 -3 -6 -1 -6 6 0 7 -4 9 -10 6 -5 -3 -10 -1 -10 5 0 6 -4 8 -10 5
-5 -3 -10 -1 -10 6 0 7 -3 10 -6 6 -7 -7 -147 61 -152 74 -2 5 -8 7 -13 3 -5
-3 -9 0 -9 6 0 6 -4 8 -10 5 -5 -3 -10 -3 -10 2 0 4 -21 21 -48 38 -86 54
-200 165 -230 226 l-20 40 45 20 c24 10 55 21 68 23 13 2 33 9 44 16 12 6 21
8 21 4 0 -10 53 28 72 51 10 14 33 24 56 27 21 3 65 18 97 33 33 15 69 29 80
31 50 9 106 16 170 21 39 3 72 7 74 9 3 3 7 1 10 -3 3 -5 22 -9 41 -9z m3575
-569 c28 -3 58 -7 68 -8 9 -1 17 -4 17 -7 0 -4 6 -7 13 -8 46 -4 109 -35 156
-77 22 -20 40 -40 39 -43 -1 -4 4 -19 10 -34 10 -24 9 -94 -3 -163 -26 -154
-93 -343 -192 -545 -78 -157 -158 -299 -177 -312 -7 -5 -7 -8 -1 -8 6 0 6 -3
0 -8 -6 -4 -26 -31 -44 -60 -19 -30 -41 -60 -48 -68 -8 -8 -12 -14 -9 -14 3 0
-2 -8 -11 -18 -37 -38 -63 -72 -55 -72 4 0 2 -4 -4 -8 -5 -4 -23 -25 -40 -47
-35 -48 -63 -82 -86 -107 -10 -10 -16 -18 -13 -18 2 0 -6 -11 -18 -25 -29 -32
-63 -70 -117 -135 -25 -29 -74 -83 -110 -120 -36 -37 -77 -81 -91 -96 -15 -16
-75 -74 -134 -129 -59 -55 -137 -128 -173 -162 -36 -35 -81 -73 -99 -85 -18
-13 -33 -29 -33 -35 0 -7 -4 -13 -8 -13 -5 0 -29 -19 -53 -41 -24 -23 -63 -56
-86 -74 -23 -18 -39 -36 -35 -39 4 -4 3 -7 -3 -5 -18 4 -45 -13 -38 -24 3 -6
1 -7 -5 -3 -6 3 -26 -8 -44 -26 -18 -18 -72 -62 -120 -98 -47 -36 -84 -68 -81
-73 2 -4 1 -7 -4 -6 -15 4 -43 -13 -37 -22 3 -5 2 -9 -3 -8 -15 4 -43 -13 -37
-22 3 -5 2 -9 -3 -8 -15 4 -43 -13 -37 -22 3 -5 2 -9 -3 -8 -15 4 -43 -13 -37
-22 3 -5 2 -9 -3 -8 -17 4 -43 -14 -36 -25 3 -6 3 -8 -1 -4 -5 4 -39 -15 -76
-43 -37 -27 -71 -49 -75 -49 -12 0 -55 -37 -50 -44 3 -3 2 -4 -1 -1 -4 2 -28
-10 -53 -28 -25 -18 -58 -39 -73 -46 -15 -8 -25 -18 -22 -23 3 -5 2 -8 -3 -7
-17 4 -43 -14 -36 -25 3 -6 3 -8 -2 -4 -5 5 -24 -4 -43 -19 -20 -15 -32 -21
-27 -13 5 7 -3 5 -17 -6 -14 -10 -23 -23 -20 -29 3 -5 2 -7 -3 -3 -4 4 -26 -6
-48 -22 -23 -17 -45 -30 -50 -30 -5 0 -26 -13 -46 -29 -20 -16 -40 -29 -46
-30 -5 0 -21 -9 -35 -19 -14 -11 -28 -18 -31 -18 -3 1 -22 -12 -42 -27 -20
-15 -37 -25 -37 -21 0 3 -16 -6 -35 -20 -19 -15 -35 -24 -35 -21 0 4 -13 -3
-29 -14 -16 -12 -32 -21 -37 -21 -4 0 -23 -12 -42 -27 -20 -15 -32 -20 -27
-12 7 11 4 11 -11 -2 -18 -15 -58 -34 -79 -38 -5 -1 -18 -10 -29 -19 -10 -9
-21 -16 -25 -16 -12 3 -56 -17 -75 -34 -15 -13 -17 -13 -11 -2 5 9 -1 7 -14
-5 -13 -11 -25 -19 -27 -17 -2 1 -20 -5 -40 -13 -20 -8 -39 -15 -42 -15 -3 0
-14 -8 -25 -17 -15 -13 -18 -14 -12 -3 5 9 -1 7 -14 -5 -13 -11 -24 -19 -25
-17 -1 4 -51 -14 -81 -28 -34 -17 -345 -119 -345 -113 0 3 -7 0 -15 -7 -8 -7
-15 -10 -15 -6 0 3 -12 1 -26 -5 -15 -5 -42 -12 -62 -15 -57 -9 -72 -13 -82
-19 -13 -8 -71 -20 -150 -30 -14 -2 -25 -4 -25 -5 0 -4 -80 -15 -183 -25 -35
-4 -73 -8 -85 -11 -12 -2 -76 -4 -142 -5 -132 -1 -220 6 -365 26 -25 4 -54 8
-65 9 -151 20 -368 94 -407 138 -9 11 -15 28 -12 39 2 10 6 29 9 42 3 12 7 32
9 44 3 13 7 26 10 31 5 9 17 58 18 80 1 6 6 12 11 12 6 0 8 3 4 6 -3 4 0 19 9
35 8 16 12 29 9 29 -2 0 6 24 19 54 13 30 22 57 18 60 -3 3 0 6 7 6 7 0 9 5 6
10 -3 6 -2 10 3 10 5 0 9 6 9 13 0 20 85 187 95 187 5 0 6 5 3 10 -3 6 -1 10
5 10 6 0 8 5 5 10 -3 6 -1 10 5 10 6 0 8 5 5 10 -3 6 -1 10 5 10 6 0 8 5 5 10
-3 6 -2 10 2 10 5 0 31 36 57 80 27 44 53 80 58 80 5 0 7 4 4 9 -4 5 -3 11 1
13 5 1 24 26 43 53 36 52 63 86 93 117 9 10 18 21 19 26 1 4 8 14 15 22 7 8
35 46 63 85 28 38 57 73 63 77 7 4 8 8 4 8 -4 0 11 20 34 45 l42 45 23 -55
c12 -31 28 -63 35 -73 40 -52 119 -109 133 -95 3 4 6 2 6 -3 0 -5 18 -9 40 -7
22 1 39 -1 36 -5 -7 -11 235 1 255 13 5 4 20 7 92 20 29 6 104 30 147 48 14 6
27 11 30 12 49 17 136 58 153 73 9 8 17 12 17 9 0 -4 23 7 50 23 28 17 54 30
57 30 3 0 28 16 54 35 27 19 52 35 55 35 3 0 56 37 117 83 61 45 114 82 117
82 9 0 59 36 74 53 6 7 46 40 89 73 43 33 91 73 106 87 46 45 104 95 135 119
17 13 26 23 21 23 -5 0 6 11 25 25 19 14 31 25 27 25 -3 0 28 36 71 81 103
108 121 128 162 178 19 24 45 55 58 69 13 14 40 46 60 70 20 24 45 53 55 63 9
11 15 19 12 19 -5 0 5 13 52 65 12 14 20 25 18 25 -3 0 3 9 13 19 37 41 60 71
54 71 -4 0 -2 4 3 8 6 4 28 32 50 62 22 30 43 57 47 58 5 2 6 8 2 13 -3 5 -1
9 4 9 5 0 24 24 42 53 19 28 39 55 44 59 7 5 7 8 1 8 -6 0 -5 3 1 8 10 6 61
97 54 97 -1 0 3 20 10 45 7 25 14 56 17 69 2 13 8 32 13 42 6 10 10 29 10 43
0 17 7 27 23 32 12 3 31 14 41 23 16 13 18 13 11 1 -5 -9 0 -8 13 4 12 11 22
15 22 11 0 -5 7 0 15 11 8 10 15 15 15 10 0 -5 10 -1 22 10 14 13 19 14 14 4
-4 -9 -2 -8 7 3 8 9 18 17 22 17 5 0 17 8 28 18 13 10 17 12 12 3 -5 -8 8 -2
28 13 20 16 37 25 37 20 0 -4 10 2 23 14 13 12 27 19 30 15 4 -3 7 -1 7 5 0 7
5 12 12 12 6 0 20 8 31 18 15 12 19 13 13 2 -6 -11 -4 -11 6 1 7 9 23 19 36
23 12 4 22 12 22 17 0 6 4 8 9 4 5 -3 12 -1 16 5 4 6 11 8 16 5 5 -4 9 -1 9 4
0 6 5 11 12 11 6 0 20 8 31 18 14 11 18 12 12 2 -5 -8 4 -5 19 8 16 12 33 22
39 22 6 0 19 8 30 18 15 12 18 13 12 2 -6 -11 -3 -10 12 3 11 9 23 14 26 10 4
-3 7 -1 7 5 0 7 4 12 9 12 5 0 22 5 38 11 15 6 30 10 33 10 3 0 14 8 24 17 15
13 17 13 11 2 -7 -12 -4 -11 11 1 16 15 265 102 320 113 10 2 52 14 93 25 41
11 77 19 79 16 3 -3 11 0 19 6 7 6 13 9 13 6 0 -3 14 -2 30 3 38 11 122 22
177 24 23 1 44 4 47 7 6 6 121 2 201 -6z"/>
<path d="M8616 7862 c-2 -1 -22 -5 -45 -8 -23 -3 -53 -9 -67 -14 -16 -6 -23
-6 -19 0 3 5 -15 3 -40 -4 -25 -8 -45 -12 -45 -9 0 3 -8 -1 -17 -8 -11 -9 -14
-10 -9 -2 5 9 2 11 -8 7 -9 -3 -16 -9 -16 -13 0 -4 -8 -8 -17 -9 -21 -2 -57
-10 -60 -12 -2 -2 -6 -3 -10 -5 -14 -4 -128 -56 -143 -66 -8 -5 -25 -13 -38
-19 -41 -18 -266 -192 -324 -251 -65 -66 -81 -91 -84 -137 -3 -54 38 -88 117
-97 35 -3 75 -4 89 -2 14 3 43 8 65 13 22 4 49 9 60 10 11 1 20 3 20 4 0 1 14
4 30 6 17 3 62 14 100 25 39 12 75 22 80 23 6 1 16 5 23 9 6 5 12 5 12 1 0 -3
7 -1 15 6 8 7 15 9 15 5 0 -4 7 -2 15 5 8 7 15 10 15 7 0 -3 29 10 65 27 35
18 61 28 58 22 -4 -6 3 -2 15 8 12 11 22 15 22 10 0 -5 4 -4 8 2 4 5 25 21 47
34 22 13 43 29 47 34 4 6 8 7 8 3 0 -12 89 54 106 78 8 11 14 16 14 12 0 -12
60 52 81 87 21 35 24 74 9 126 -15 52 -44 81 -87 86 -51 7 -104 10 -107 6z"/>
<path d="M7477 6814 c-1 -1 -36 -4 -78 -7 -81 -5 -153 -31 -188 -66 -12 -12
-21 -19 -21 -16 0 3 -10 -3 -22 -15 -12 -11 -25 -20 -28 -20 -4 0 -13 -11 -20
-25 -7 -14 -16 -23 -18 -20 -11 11 -81 -144 -85 -187 -5 -47 14 -116 42 -155
28 -40 229 -142 245 -125 3 3 6 0 6 -7 0 -7 4 -10 9 -7 5 3 28 -1 50 -9 25 -8
39 -10 35 -4 -4 7 1 7 15 0 11 -7 21 -9 21 -6 0 3 10 1 21 -6 17 -9 20 -8 14
2 -5 8 -4 10 3 5 7 -4 21 -9 32 -11 22 -4 52 -30 44 -37 -12 -12 77 2 121 20
86 34 206 113 248 162 29 35 58 90 52 101 -4 5 -2 9 3 9 10 0 11 5 15 95 3 53
0 75 -12 89 -13 16 -13 18 -1 11 12 -7 13 -6 3 7 -7 8 -9 19 -5 23 4 5 2 5 -4
2 -12 -7 -29 20 -25 38 2 5 0 7 -4 4 -3 -4 -21 8 -39 27 -18 19 -36 31 -39 27
-4 -3 -7 -1 -7 5 0 9 -25 22 -50 27 -3 0 -30 9 -60 20 -30 10 -59 19 -65 20
-5 1 -21 4 -35 8 -24 8 -168 25 -173 21z"/>
<path d="M6333 5686 c-18 -6 -39 -20 -48 -31 -9 -11 -14 -13 -10 -5 4 8 -6 2
-20 -15 -15 -16 -24 -23 -20 -15 4 8 -6 2 -22 -15 -16 -16 -28 -33 -26 -37 2
-5 0 -8 -4 -8 -10 0 -12 -20 -13 -95 -1 -56 1 -67 20 -110 7 -16 14 -33 14
-38 1 -8 76 -89 76 -81 0 2 10 -4 21 -15 12 -11 34 -24 48 -29 36 -13 143 -12
159 0 6 6 12 7 12 3 0 -5 8 2 19 13 10 12 21 19 25 15 3 -3 6 -2 6 4 0 5 11
15 25 21 22 10 54 56 63 92 9 36 9 136 0 148 -6 6 -7 12 -3 12 4 0 2 7 -5 15
-7 8 -9 15 -5 15 4 0 -3 9 -16 21 -13 11 -17 17 -9 14 8 -4 2 5 -15 20 -16 14
-23 24 -15 20 8 -4 6 1 -5 10 -11 9 -30 24 -42 35 -12 10 -24 16 -27 13 -3 -4
-6 -2 -6 4 0 5 -6 10 -12 10 -7 1 -31 4 -53 8 -67 12 -79 12 -112 1z"/>
<path d="M5183 5054 c-17 -9 -49 -33 -71 -53 -22 -21 -47 -41 -56 -44 -9 -4
-16 -11 -16 -17 0 -6 -3 -9 -8 -7 -4 3 -22 -11 -39 -31 -18 -21 -46 -53 -63
-72 -17 -19 -28 -41 -25 -48 3 -7 1 -11 -3 -8 -12 7 -44 -63 -36 -76 4 -6 2
-8 -4 -4 -6 4 -11 -1 -11 -11 1 -10 -2 -30 -5 -45 -5 -20 -1 -33 14 -48 11
-11 22 -31 26 -44 3 -14 12 -30 20 -37 8 -6 12 -15 9 -19 -7 -11 38 -53 59
-56 28 -4 109 60 148 117 21 30 45 63 55 74 21 25 86 155 86 172 0 7 4 13 9
13 5 0 6 4 3 10 -3 5 -2 18 4 27 5 10 11 32 14 48 3 17 9 44 12 62 6 27 2 39
-25 73 -35 44 -49 47 -97 24z"/>
<path d="M4109 4825 c-51 -38 -95 -92 -117 -145 -18 -44 -19 -50 -5 -79 19
-38 54 -49 88 -27 14 9 25 14 25 11 0 -6 30 18 73 58 17 15 26 27 21 27 -5 0
-4 4 2 8 16 10 44 68 44 90 0 23 -41 70 -57 65 -6 -2 -14 1 -18 6 -9 16 -17
14 -56 -14z"/>
<path d="M3738 14733 c6 -2 18 -2 25 0 6 3 1 5 -13 5 -14 0 -19 -2 -12 -5z"/>
<path d="M9688 14394 c-26 -7 -52 -15 -57 -19 -6 -3 -19 -8 -29 -10 -25 -4
-186 -100 -215 -128 -13 -12 -27 -32 -31 -44 -4 -13 -12 -23 -18 -23 -6 0 -9
-3 -6 -6 4 -3 2 -20 -3 -37 -6 -18 -12 -61 -15 -96 -3 -35 -12 -80 -21 -100
-9 -20 -15 -39 -15 -43 1 -5 -2 -8 -8 -8 -5 0 -10 -6 -10 -14 0 -8 -7 -22 -16
-30 -8 -9 -12 -16 -7 -16 4 0 3 -4 -3 -8 -10 -7 -44 -89 -48 -120 -2 -9 4 -27
12 -39 8 -13 10 -23 6 -23 -5 0 -1 -5 9 -11 9 -5 17 -15 17 -22 0 -7 15 -28
33 -48 17 -20 39 -46 47 -59 8 -12 28 -40 43 -62 16 -22 23 -37 15 -32 -10 6
-11 5 -1 -7 11 -14 16 -39 14 -75 -1 -24 -35 -67 -45 -57 -3 3 -6 2 -6 -3 0
-5 -20 -20 -45 -34 -25 -14 -45 -28 -45 -33 0 -4 -4 -6 -8 -3 -5 3 -30 -12
-57 -32 -39 -30 -49 -43 -50 -69 -1 -18 1 -33 4 -33 3 0 19 25 35 54 16 30 32
55 35 54 3 0 11 1 16 2 23 6 115 4 115 -2 0 -4 14 -3 30 2 17 5 30 6 30 4 0
-3 14 3 30 13 17 9 30 21 30 26 0 4 4 6 8 3 10 -6 8 55 -4 154 -11 98 -7 260
8 260 4 0 5 6 2 14 -3 7 2 31 12 52 9 22 17 42 16 45 -1 4 10 19 23 33 13 14
22 26 19 26 -5 0 77 81 120 117 14 13 26 20 26 15 0 -4 4 -2 8 4 10 15 162
114 242 157 l65 35 3 120 3 120 -33 12 c-18 7 -36 12 -40 11 -5 0 -8 3 -8 8 0
6 -8 10 -17 10 -10 0 -52 2 -93 3 -41 2 -96 -1 -122 -8z"/>
<path d="M9850 13392 c-8 -2 -22 -6 -30 -9 -8 -4 -18 -5 -22 -5 -5 1 -8 -3 -8
-9 0 -5 -4 -8 -8 -5 -4 2 -27 -13 -50 -35 -24 -21 -40 -39 -36 -39 4 0 -2 -8
-12 -17 -11 -10 -39 -56 -63 -103 -42 -82 -74 -132 -105 -163 -8 -8 -13 -17
-11 -21 3 -3 2 -4 -2 -1 -3 3 -28 -11 -56 -31 -27 -19 -46 -30 -41 -22 6 10 5
11 -7 2 -19 -16 -88 -10 -128 10 -40 21 -50 15 -22 -13 12 -12 19 -21 16 -21
-2 0 8 -13 24 -29 42 -43 88 -63 156 -69 49 -3 69 0 103 17 38 19 143 111 127
111 -4 0 0 6 7 14 7 8 27 31 43 51 52 64 144 152 131 125 -4 -8 0 -6 8 4 9 11
16 16 16 11 0 -5 7 0 16 11 8 10 13 12 9 4 -4 -8 1 -6 10 5 9 11 18 18 21 16
2 -2 18 -1 34 3 l30 6 0 89 c0 96 3 91 -60 104 -53 10 -78 13 -90 9z"/>
<path d="M2126 11936 c-9 -11 -17 -27 -17 -36 -1 -8 -2 -29 -4 -47 -2 -35 -29
-83 -46 -83 -6 0 -7 -4 -4 -10 5 -9 -33 -16 -59 -11 -43 9 -94 7 -111 -4 -11
-6 -29 -10 -40 -8 -45 9 -81 9 -105 -1 -38 -16 -108 -96 -102 -117 1 -5 -1 -9
-5 -9 -5 0 -9 -16 -9 -35 -1 -30 2 -35 22 -35 13 0 25 1 27 2 5 4 107 -58 107
-65 0 -5 5 -5 10 -2 6 3 10 2 10 -3 0 -8 75 -10 90 -2 3 1 8 2 13 1 4 0 7 6 7
15 0 8 5 12 10 9 6 -3 10 1 10 10 0 9 4 14 9 10 15 -9 21 25 16 92 -4 65 2 74
50 78 31 2 65 15 65 26 0 5 7 9 16 9 8 0 13 4 10 9 -4 5 2 8 11 7 10 -2 26 6
36 18 15 17 18 32 14 74 -6 61 8 112 30 112 8 0 11 4 8 10 -10 16 -51 7 -69
-14z"/>
<path d="M2214 11875 c-15 -22 -14 -26 3 -49 10 -14 21 -26 26 -26 4 0 7 -7 7
-16 0 -8 4 -13 8 -10 5 3 10 0 11 -7 8 -47 6 -87 -6 -114 -7 -18 -11 -33 -7
-33 3 0 -2 -7 -10 -16 -9 -8 -14 -20 -11 -25 4 -5 2 -9 -3 -9 -13 0 -31 -44
-27 -66 1 -11 7 -18 13 -17 5 1 21 4 35 7 51 9 107 52 107 83 0 8 4 11 10 8 6
-4 7 1 3 11 -3 10 -2 15 3 12 16 -10 8 49 -10 77 -10 15 -15 32 -13 40 3 7 0
18 -6 25 -9 10 -9 11 1 5 11 -6 11 -3 1 13 -7 11 -36 31 -63 44 -33 15 -50 29
-48 38 10 40 10 50 2 50 -5 0 -17 -11 -26 -25z"/>
</g>
</svg>
