<?xml version="1.0" encoding="utf-8"?>
<!-- Generator: Adobe Illustrator 24.1.3, SVG Export Plug-In . SVG Version: 6.00 Build 0)  -->
<svg version="1.1" id="Calque_1" xmlns="http://www.w3.org/2000/svg" xmlns:xlink="http://www.w3.org/1999/xlink" x="0px" y="0px"
	 viewBox="0 0 595.28 841.89" style="enable-background:new 0 0 595.28 841.89;" xml:space="preserve">
<style type="text/css">
	.st0{fill:#FFFFFF;}
</style>
<g>
	<g>
		<path class="st0" d="M58,660.89c0-160,0-320,0-480c160,0,320,0,480,0c0,160,0,320,0,480C378,660.89,218,660.89,58,660.89z
			 M350.95,488.92c-0.97,1.18-1.69,2.34-2.67,3.2c-3.07,2.67-11.19,3.9-15.58,1.19c-4.4-2.72-7.55-6.63-10.37-10.81
			c-3.44-5.09-5.05-10.8-5.19-16.94c-0.07-3.12-0.15-6.24,0.86-9.25c0.81-2.41,1.91-4.68,3.44-6.64c2.68,3.79,5.28,7.53,7.94,11.22
			c6.37,8.81,14.15,15.8,24.41,19.99c8.55,3.5,17.04,3.27,25.52,0.49c8.54-2.8,15.71-7.99,22.04-14.27
			c6.55-6.49,12.31-13.67,17.14-21.52c3.01-4.89,5.97-9.88,8.24-15.13c7.41-17.16,11.56-35.04,11.27-53.87
			c-0.18-11.66-0.94-23.23-3.64-34.61c-1.79-7.55-4.18-14.9-7.28-22.02c-2.97-6.82-7-12.99-11.38-18.96
			c-9.07-12.37-20.03-22.66-33.13-30.67c-13.79-8.43-28.51-14.67-44.08-18.93c-1.02-0.28-2.04-0.55-3.18-0.86
			c0,0.68,0.03,1.2,0,1.72c-0.2,3.38-1.12,6.51-3.76,8.78c-2.01,1.73-4.21,1.44-4.82-1.44c-0.71-3.32,0.04-6.58,0.65-9.85
			c0.2,0.45,0.4,0.9,0.64,1.43c0.59-0.74,1.11-1.39,1.68-2.1c-14.52-3.75-29.07-6.87-44.17-5.53c1.45,2.13,2.96,4.19,4.32,6.35
			c2.22,3.54,3.5,7.34,2.78,11.61c-0.24,1.4-0.61,2.73-1.68,3.75c-1.61,1.53-3.53,1.09-5.32,0.6c-3.01-0.83-5.35-2.77-7.4-5.08
			c-0.57-0.65-1.08-1.35-1.64-2.06c-0.22,0.19-0.33,0.28-0.45,0.39c-3.28,2.95-7.67,3.04-11.09,0.22c-1.78-1.46-2-2.87-0.57-4.64
			c0.75-0.93,1.68-1.7,2.54-2.53c0.36-0.35,0.75-0.68,1.35-1.22c-0.76,0.13-1.15,0.2-1.55,0.27c-0.06-0.13-0.11-0.26-0.17-0.38
			c1.52-0.83,3.06-1.64,4.56-2.5c0.32-0.18,0.78-0.57,0.76-0.82c-0.09-1.01-0.34-2.01-0.53-3.02c-0.31,0.02-0.51,0.02-0.71,0.05
			c-9.78,1.4-19.11,4.4-28.31,7.91c-10.82,4.13-20.87,9.6-30.05,16.68c-7.73,5.97-14.45,12.96-20.75,20.38
			c-6.67,7.84-12.68,16.15-17.7,25.15c-5.16,9.25-8.79,19.13-11.8,29.26c-2.42,8.17-4.63,16.39-4.99,24.96
			c-0.54,12.65-0.02,25.24,2.84,37.65c2.13,9.24,5.24,18.09,9.74,26.43c3.35,6.21,7.74,11.73,11.99,17.33
			c3.07,4.05,6.7,7.39,11.52,9.27c4.21,1.64,8.39,3.49,12.97,3.64c7.2,0.23,14.38-0.04,21.46-1.62c12.3-2.75,21.93-9.13,27.99-20.41
			c0.47-0.88,0.89-1.8,1.47-2.99c0.25,1.21,0.44,2.1,0.61,3c1.06,5.62,1.24,11.3,0.75,16.96c-0.49,5.69-2.22,11.1-4.78,16.22
			c-2.86,5.73-6.6,10.74-11.96,14.4c-4.87,3.32-10.13,5.76-15.9,7c-4.43,0.95-8.91,1.37-13.63,0.68c0.48,0.42,0.83,0.79,1.25,1.07
			c6.23,4.12,12.34,8.43,18.73,12.28c6.69,4.03,14.15,4.56,21.7,3.31c5.59-0.93,10.18-3.63,13.18-8.66c2-3.34,3.63-6.85,4.69-10.59
			c2.7-9.46,4.4-19.12,5.48-28.87c0.09,0.86,0.21,1.76,0.29,2.67c0.28,3.43,0.55,6.85,1.85,10.09c1.58,3.93,3.82,7.34,7.77,9.2
			c4.34,2.04,6.75,1.14,9.28-1.83c2.37-2.79,4.17-5.88,5.21-9.46c0.1,0.14,0.16,0.2,0.18,0.27c0.05,0.19,0.11,0.39,0.13,0.58
			c0.89,7.34,3.14,14.25,6.68,20.73c2.73,5,6.56,8.97,11.59,11.64c4.83,2.56,10.09,3.53,15.52,3.24c1.82-0.1,3.81-0.52,5.37-1.42
			c7.05-4.05,10.52-10.36,10.74-18.43C351.84,491.12,351.24,489.99,350.95,488.92z M235.91,592c1.49-2.51,3.66-3.46,6.08-4.08
			c4.71-1.2,9.41-1.19,14.11-0.05c3.39,0.82,6.92,1.09,10.23,0.42c4.46-0.9,7.93-3.77,9.98-7.91c1.16-2.34,2.03-4.88,2.67-7.41
			c0.77-3.06,0.73-5.94-2.06-8.4c-1.78-1.57-3.26-3.7-4.3-5.85c-1.83-3.79-1.49-5.73,1.29-8.14c1.06-0.92,2.42-1.52,3.68-2.19
			c2.52-1.36,5.17-2.65,5.69-5.85c0.43-2.62,1.85-4.37,3.88-5.99c3.15-2.51,3.97-5.88,2.9-9.8c-0.78-2.88-2.45-5.27-3.95-7.75
			c-1.78-2.94-3.15-5.96-2.96-9.55c0.12-2.27,0.94-3.99,2.81-5.24c0.66-0.44,1.28-0.95,1.91-1.44c-0.06-0.15-0.13-0.3-0.19-0.45
			c-2.06,0.55-4.35,0.69-6.13,1.73c-4.79,2.78-6.1,7.36-3.77,12.94c1.01,2.42,1.93,4.9,2.61,7.43c1.42,5.25,0.16,9.97-3.39,14.04
			c-0.65,0.75-1.55,1.44-2.48,1.77c-2.69,0.98-5.47,1.71-8.19,2.64c-4.13,1.41-8.17,2.96-9.82,7.62c-0.16,0.45-0.81,0.88-1.32,1.01
			c-2.08,0.55-4.19,1.01-6.29,1.46c-7,1.48-11.17,6.02-13.31,12.58c-0.9,2.76-1.57,5.63-1.97,8.5c-0.46,3.26-0.68,6.57,0.58,9.81
			c0.68,1.73,1.03,3.59,1.44,5.42C235.82,590.06,235.81,590.9,235.91,592z M316.03,562.69c0.37-1.97,0.72-2.45,3.06-3.82
			c4.44-2.6,7.4-6.36,8.91-11.28c0.94-3.07,0.85-6.22,1.01-9.37c0.23-4.41-1.61-7.75-5.22-9.97c-2.8-1.73-4.49-4.2-6.08-6.91
			c-0.94-1.61-2.07-3.12-3.22-4.59c-0.36-0.46-1.05-0.86-1.61-0.9c-1.59-0.11-3.19-0.08-4.78,0.02c-2.47,0.16-4.92,0.54-7.39,0.61
			c-3.27,0.09-4.96-1.62-5.02-4.9c-0.04-2.48,0.03-4.95,0-7.43c-0.02-1.76-0.93-2.73-2.72-2.91c0.53,0.86,1.01,1.68,1.52,2.48
			c1.01,1.6,0.82,3.07-0.38,4.5c-0.54,0.64-1.11,1.3-1.44,2.06c-0.52,1.19-0.95,2.43-1.22,3.69c-0.28,1.28,0.34,2.23,1.54,2.79
			c0.98,0.45,1.92,0.98,2.91,1.4c3.73,1.58,7.21,3.54,10.26,6.28c2.16,1.94,3.61,4.24,4.44,6.96c1.14,3.74,1.49,7.6,1.46,11.48
			c-0.03,4.63-0.22,9.26-0.29,13.89C311.72,560.1,312.81,561.56,316.03,562.69z"/>
		<path d="M350.95,488.92c0.29,1.07,0.88,2.2,0.85,3.31c-0.22,8.07-3.69,14.37-10.74,18.43c-1.56,0.9-3.55,1.32-5.37,1.42
			c-5.43,0.29-10.69-0.68-15.52-3.24c-5.03-2.67-8.86-6.64-11.59-11.64c-3.54-6.48-5.79-13.39-6.68-20.73
			c-0.02-0.2-0.07-0.39-0.13-0.58c-0.02-0.07-0.09-0.13-0.18-0.27c-1.04,3.58-2.84,6.67-5.21,9.46c-2.53,2.97-4.94,3.87-9.28,1.83
			c-3.95-1.86-6.2-5.27-7.77-9.2c-1.3-3.24-1.57-6.67-1.85-10.09c-0.07-0.91-0.19-1.81-0.29-2.67c-1.08,9.75-2.78,19.41-5.48,28.87
			c-1.07,3.74-2.7,7.24-4.69,10.59c-3,5.03-7.59,7.73-13.18,8.66c-7.55,1.25-15.01,0.72-21.7-3.31c-6.39-3.85-12.5-8.16-18.73-12.28
			c-0.42-0.28-0.77-0.65-1.25-1.07c4.72,0.69,9.2,0.27,13.63-0.68c5.77-1.24,11.03-3.68,15.9-7c5.36-3.66,9.1-8.67,11.96-14.4
			c2.56-5.12,4.29-10.54,4.78-16.22c0.49-5.66,0.31-11.34-0.75-16.96c-0.17-0.9-0.36-1.79-0.61-3c-0.58,1.19-0.99,2.11-1.47,2.99
			c-6.06,11.28-15.69,17.66-27.99,20.41c-7.08,1.59-14.26,1.85-21.46,1.62c-4.57-0.15-8.76-2-12.97-3.64
			c-4.82-1.88-8.45-5.22-11.52-9.27c-4.25-5.6-8.64-11.12-11.99-17.33c-4.5-8.34-7.61-17.19-9.74-26.43
			c-2.86-12.42-3.38-25-2.84-37.65c0.36-8.56,2.57-16.79,4.99-24.96c3-10.13,6.64-20,11.8-29.26c5.02-9,11.03-17.31,17.7-25.15
			c6.3-7.42,13.02-14.41,20.75-20.38c9.18-7.09,19.23-12.56,30.05-16.68c9.2-3.51,18.53-6.51,28.31-7.91
			c0.2-0.03,0.4-0.03,0.71-0.05c0.19,1.01,0.44,2,0.53,3.02c0.02,0.26-0.44,0.64-0.76,0.82c-1.5,0.86-3.04,1.67-4.56,2.5
			c0.06,0.13,0.11,0.26,0.17,0.38c0.39-0.07,0.79-0.14,1.55-0.27c-0.6,0.54-0.98,0.87-1.35,1.22c-0.86,0.83-1.8,1.6-2.54,2.53
			c-1.42,1.77-1.2,3.18,0.57,4.64c3.42,2.81,7.8,2.72,11.09-0.22c0.11-0.1,0.23-0.2,0.45-0.39c0.56,0.71,1.07,1.41,1.64,2.06
			c2.05,2.3,4.39,4.24,7.4,5.08c1.79,0.49,3.71,0.93,5.32-0.6c1.07-1.01,1.44-2.35,1.68-3.75c0.72-4.27-0.56-8.07-2.78-11.61
			c-1.35-2.16-2.86-4.22-4.32-6.35c15.1-1.35,29.65,1.78,44.17,5.53c-0.57,0.71-1.09,1.36-1.68,2.1c-0.24-0.53-0.44-0.98-0.64-1.43
			c-0.61,3.27-1.36,6.52-0.65,9.85c0.61,2.88,2.82,3.17,4.82,1.44c2.64-2.28,3.56-5.41,3.76-8.78c0.03-0.52,0-1.04,0-1.72
			c1.14,0.31,2.16,0.59,3.18,0.86c15.58,4.25,30.3,10.5,44.08,18.93c13.1,8.01,24.07,18.3,33.13,30.67
			c4.38,5.97,8.41,12.14,11.38,18.96c3.1,7.12,5.48,14.47,7.28,22.02c2.7,11.38,3.47,22.94,3.64,34.61
			c0.29,18.83-3.86,36.71-11.27,53.87c-2.27,5.25-5.23,10.24-8.24,15.13c-4.83,7.85-10.59,15.03-17.14,21.52
			c-6.34,6.28-13.5,11.47-22.04,14.27c-8.48,2.78-16.97,3.01-25.52-0.49c-10.26-4.19-18.04-11.18-24.41-19.99
			c-2.67-3.69-5.26-7.43-7.94-11.22c-1.54,1.97-2.63,4.23-3.44,6.64c-1.02,3.01-0.93,6.13-0.86,9.25
			c0.14,6.14,1.75,11.85,5.19,16.94c2.82,4.18,5.97,8.1,10.37,10.81c4.39,2.71,12.51,1.49,15.58-1.19
			C349.26,491.26,349.98,490.1,350.95,488.92z M313.46,369.99c1.4,2.6,2.75,5.41,4.38,8.04c3.21,5.19,7.38,9.54,12.4,13.01
			c3.87,2.68,8.13,4.55,12.69,5.75c4.93,1.29,9.96,1.48,14.99,1.36c2.23-0.05,4.51-0.61,6.64-1.31c4.47-1.46,8.08-4.32,11.21-7.75
			c2.89-3.18,5.37-6.66,6.93-10.7c1.06-2.75,1.95-5.56,2.96-8.48c0.36,0,0.88,0.04,1.39-0.01c2.42-0.22,4.85-0.41,7.26-0.72
			c0.72-0.09,1.38-0.56,2.07-0.86c0-0.17,0-0.35,0.01-0.52c-1.14-0.51-2.25-1.14-3.44-1.5c-2.24-0.67-4.52-0.95-6.8,0.4
			c0.03-0.41,0.03-0.65,0.07-0.88c1.32-8.89,1.75-17.8,0.68-26.75c-0.16-1.34,0.13-2.3,1.12-3.29c1.61-1.6,3.07-3.38,3.68-5.66
			c0.32-1.2-0.06-1.81-1.28-1.87c-1.52-0.08-3.05,0-4.27,1.31c0.78,0.84,1.56,1.68,2.42,2.61c-0.94,0.27-1.76,0.51-2.64,0.77
			c-0.42-1.51-0.75-2.99-1.25-4.41c-1.53-4.34-3.47-8.51-5.9-12.41c-2.58-4.14-5.44-8.07-8.91-11.55c-3.49-3.5-7.4-6.49-11.45-9.25
			c-2.31-1.58-4.94-2.83-7.6-3.74c-3.27-1.12-6.66-1.9-10.19-1.97c-4-0.08-7.96-0.05-11.87,1.01c-3.94,1.07-7.44,3.03-10.95,5.02
			c-2.16,1.22-3.18,3.19-4.21,5.53c3.43-1.05,6.61-2.03,9.87-3.03c-1.21,2.03-2.42,3.9-3.48,5.86c-3.29,6.07-5.52,12.57-7.44,19.16
			c-1.18,4.05-2.11,8.21-2.66,12.38c-0.56,4.22-0.5,8.53-0.76,12.79c-0.02,0.4-0.23,0.94-0.54,1.14c-1.55,1.04-3.25,1.88-4.73,3.02
			c-1.43,1.1-2.65,2.47-3.96,3.73c0.07,0.09,0.13,0.18,0.2,0.27c1.15-0.33,2.29-0.67,3.44-1c-0.93,1.2-2.01,2.14-3.02,3.15
			c-4.22,4.19-6.95,9.12-7.37,15.16c-0.1,1.42,0.24,2.87,1.57,3.51c1.17,0.57,2.59,0.92,3.88,0.89c2.47-0.05,4.79-1.03,6.82-2.35
			C308.22,374.03,310.84,371.92,313.46,369.99z M261.84,369.78c5.15-8.1,7.8-17.41,8.81-27.14c0.61-5.9,0.48-11.89,0.6-17.84
			c0.06-3.19-0.58-6.25-2.04-9.14c-1.25-2.48-3.03-4.51-5.08-6.3c-3.27-2.84-6.73-5.41-11.07-6.44c-0.44-0.1-0.86-0.3-1.31-0.45
			c1.32-4.83,1.07-9.39-1.15-13.78c-1.36-2.69-3.16-4.94-6.24-5.7c-6.81-1.67-12.99-0.33-18.46,4.06
			c-5.65,4.53-9.39,10.54-12.67,16.83c-4.04,7.74-6.86,15.97-9.3,24.34c-2.88,9.9-4.88,19.93-4.88,30.29c0,2.59-0.08,5.24,0.37,7.77
			c1.05,5.91,3.41,11.33,7.33,15.91c1.59,1.86,3.51,3.5,5.49,4.95c2.56,1.87,5.66,2.45,8.73,3.09c4.9,1.04,9.77,1.07,14.58-0.29
			c6.74-1.92,12.77-5.18,17.93-9.98c0.18-0.16,0.4-0.27,0.66-0.44c-0.08,1.82,0.37,2.51,1.65,2.62c1.3,0.12,2.89-1.23,3.08-2.69
			c0.05-0.36-0.05-0.92-0.28-1.08c-0.69-0.46-1.48-0.77-2.29-1.16c0.81-0.95,1.71-1.96,2.55-3.02c0.43-0.54,0.8-0.82,1.57-0.67
			c0.89,0.17,2.68-0.92,2.58-1.57C262.91,371.28,262.35,370.68,261.84,369.78z M227.96,411.28c1.21,5.13,3.64,9.21,8,11.96
			c4.35,2.74,9.08,3.35,14.02,2.13c3.92-0.97,6.94-3.41,9.34-6.54c4.69-6.09,6.16-12.78,3.21-20.1c-1.77-4.39-6.71-6.87-11.37-5.92
			c-3.96,0.81-7.73,2.27-11.64,3.26c-5.38,1.36-9.38,4.77-10.84,10.42c-0.39,1.52-1.08,2.76-1.96,4.01c-0.7,1-1.12,2.21-1.66,3.32
			c0.14,0.1,0.28,0.19,0.43,0.29C226.29,413.19,227.1,412.27,227.96,411.28z M409.25,421.63c-0.1-0.02-0.2-0.05-0.3-0.07
			c0.16-2.6-0.7-4.92-1.87-7.19c-2.11-4.07-5.15-7.4-8.42-10.52c-3.16-3.02-6.58-5.7-10.72-7.3c-2.08-0.81-4.31-1.04-6.33-0.28
			c-3.04,1.15-5.29,3.34-6.5,6.48c-0.28,0.73-0.16,1.11,0.45,1.58c2.96,2.25,5.86,4.56,8.82,6.8c0.61,0.46,0.81,0.95,0.86,1.69
			c0.09,1.3,0.16,2.65,0.55,3.88c1.51,4.69,4.45,8.44,8.1,11.65c2.23,1.95,4.77,3.22,7.83,3.49c2.7,0.24,5.4-1.78,6.08-4.09
			C408.41,425.75,408.78,423.68,409.25,421.63z M341.72,427.91c-0.42,1.86-0.81,3.71-1.27,5.55c-0.09,0.35-0.38,0.85-0.66,0.91
			c-4.19,0.86-6.47,3.57-7.66,7.51c-0.52,1.73,0.44,2.97,1.94,3.55c0.77,0.3,1.62,0.52,2.43,0.51c1.65,0,3.3-0.18,5-0.29
			c0.43,1.02,0.85,2.14,1.38,3.21c1.8,3.64,4.1,6.81,8.36,7.77c1.09,0.25,2.31,0.36,3.38,0.13c2.59-0.57,3.81-2.77,4.65-4.94
			c2.48-6.42,3.01-12.98,0.21-19.46c-1.37-3.17-3.28-6.06-6.27-7.99c-1.66-1.07-3.6-1.5-5.5-1.1c-2.62,0.56-4.79,2.16-6.87,3.77
			c-0.82,0.64-1.41,1.59-2.1,2.4c0.06,0.06,0.13,0.11,0.19,0.17C339.89,429.02,340.87,428.43,341.72,427.91z M168.69,355.39
			c0.09,0.99,0.02,1.9,0.29,2.7c0.79,2.42,2.78,3.33,5.09,3.78c2.31,0.45,4.3-0.09,5.84-1.89c2.21-2.59,1.77-5.11-1.11-6.9
			c-2.29-1.43-4.78-2.13-7.65-2.02c1.87-3.22,3.67-6.33,5.59-9.63c0.15,0.4,0.2,0.53,0.25,0.67c1.46,3.58,3.77,6.5,7.36,7.99
			c4.2,1.75,6.24,1.29,8.81-2.51c1.89-2.79,2.77-5.89,2.84-9.25c0.04-2.16-0.4-4.21-1.94-5.72c-1.14-1.12-2.54-2.12-4.01-2.73
			c-2.59-1.07-5.31-1.18-7.79,0.47c-2.26,1.5-4.03,3.49-5.62,5.67c-3.74,5.12-6.27,10.83-8.24,16.81c-0.4,1.2-0.52,2.5-0.77,3.75
			c0.07,0.02,0.15,0.04,0.22,0.06C168.1,356.25,168.37,355.86,168.69,355.39z M208.86,432.48c3.25-0.45,6.3-0.83,9.33-1.31
			c0.88-0.14,1.2,0.11,1.4,0.92c0.56,2.28,2.11,3.57,4.33,4.13c1.95,0.49,3-0.15,3.65-2.04c0.88-2.59-0.13-4.64-2.06-6.12
			c-2.11-1.6-4.4-3.02-6.78-4.19c-1.94-0.95-4.1-1.51-6.2-2.05c-1.43-0.37-2.6,0.19-3.04,1.29
			C208.28,426.12,208.34,429.23,208.86,432.48z M403.21,377.95c-0.17,0.07-0.24,0.13-0.3,0.11c-0.31-0.07-0.63-0.13-0.92-0.24
			c-2.7-1-4.88-0.19-6.51,2.04c-1.53,2.1-2.42,4.46-1.37,7.04c1.25,3.05,5.14,3.71,7.59,3.05c4.48-1.2,7.46-7.14,6.01-11.55
			c-0.91-2.76-4.33-4.37-6.82-3.36C401.66,376.03,402.43,376.98,403.21,377.95z M339.05,408.78c-0.87-2.44-2.02-2.66-3.8-0.68
			c-1.38,1.53-2.14,3.32-2.38,5.38c-0.52,4.38,3.34,5.59,6.17,4.6c3.48-1.22,5.64-6.06,4.41-9.55c-0.64-1.82-2.68-3.24-4.4-3.04
			C339.05,406.59,339.05,407.68,339.05,408.78z M247.28,499.51c0.25,0.54,0.42,0.97,0.64,1.39c1.15,2.13,3.8,3.06,5.95,2.08
			c1.44-0.66,2.57-3.93,1.95-5.65c-0.83-2.26-3.91-2.8-5.9-1.07c-0.93,0.8-1.93,1.51-2.9,2.27c0.12,0.13,0.24,0.25,0.36,0.38
			c-0.07-0.17-0.15-0.34-0.27-0.63c-0.19,0.74-0.35,1.38-0.57,2.26C246.86,500.09,247.04,499.84,247.28,499.51z M249.99,277.87
			c0.5,3.64,3.75,5.93,6.78,5.04c1.43-0.42,2.47-1.28,2.6-2.78c0.13-1.48-0.35-2.85-1.71-3.7c-2.26-1.4-4.59-0.92-7.13-0.31
			c1.12,0.98,2.07,1.81,3.16,2.76C252.33,278.52,251.21,278.21,249.99,277.87z M208.33,445.39c0.03,0.01,0.06,0.01,0.09,0.02
			c0,0.2-0.01,0.4,0,0.6c0.08,1.29,0.89,2.59,1.75,2.55c1.25-0.06,1.41-1.19,1.78-2.09c0.23-0.57,0.63-1.08,0.86-1.65
			c0.37-0.89,0.86-1.8,0.94-2.73c0.13-1.39-1.13-2.87-2.34-3.1c-0.84-0.16-1.96,0.84-2.34,2.3
			C208.72,442.63,208.57,444.02,208.33,445.39z M423.05,356.62c-0.84-0.09-1.39-0.18-1.94-0.19c-1.26-0.03-2.25,0.64-2.71,1.79
			c-0.53,1.32-0.17,2.02,1.22,2.37c2.28,0.57,6.94-2.39,7.3-4.69c0.05-0.34-0.18-0.99-0.43-1.07c-1.67-0.58-3.38-0.77-5.32-0.29
			c0.4,0.45,0.65,0.74,0.91,1.03C422.34,355.84,422.6,356.13,423.05,356.62z M382.87,285.96c-0.23-0.25-0.57-0.9-1.11-1.15
			c-0.77-0.37-1.69-0.39-2.51-0.68c-1.25-0.44-2.11,0.2-2.81,1.01c-0.71,0.82-1.15,1.81-0.69,2.97c0.54,1.39,1.92,2.14,3.44,1.84
			C381.45,289.49,382.9,288.07,382.87,285.96z M291.29,327.42c-0.22,0.51-0.49,1.11-0.74,1.73c-0.55,1.38-0.24,2.49,0.98,3.32
			c1.24,0.86,2.62,0.95,4.01,0.48c1.18-0.4,2.28-1.88,2.17-2.91c-0.14-1.32-1.29-1.62-2.3-1.96c-0.67-0.23-1.4-0.29-2.11-0.4
			C292.63,327.57,291.96,327.5,291.29,327.42z M312.62,450.01c-0.43-0.24-0.84-0.48-1.27-0.69c-1.67-0.8-2.58-0.53-3.08,1.25
			c-0.41,1.46-0.51,3.04-0.53,4.56c-0.01,0.53,0.55,1.44,0.97,1.51c0.55,0.09,1.4-0.31,1.79-0.77
			C311.91,454.22,312.47,452.2,312.62,450.01z M194.13,381.87c-0.38-0.88-0.75-1.75-1.25-2.9c-0.1,0.88-0.21,1.44-0.21,1.99
			c0.01,1.94,0.19,3.85,1.69,5.3c0.77,0.75,1.67,1.15,2.82,0.74c1.19-0.43,1.64-1.28,1.69-2.46
			C198.97,382.44,196.35,380.93,194.13,381.87z M271.35,301.48c-1.91,0.15-3.18,2.13-2.44,3.74c0.25,0.54,0.88,1.1,1.44,1.23
			c0.39,0.09,1.21-0.41,1.39-0.83c0.43-1.04,0.78-2.18,0.82-3.29c0.03-0.92-0.77-1.38-1.9-1.48
			C270.96,301.12,271.1,301.25,271.35,301.48z M279.58,430.65c-0.45-0.33-0.75-0.59-1.09-0.78c-1.47-0.83-3.24-0.07-3.63,1.58
			c-0.18,0.77,0.04,1.33,0.97,1.38C277.51,432.93,278.5,431.87,279.58,430.65z M172.08,417.84c-0.68,1.68-0.47,3.09,0.68,3.83
			c0.42,0.27,1.31,0.46,1.54,0.23c0.39-0.39,0.66-1.17,0.57-1.72C174.63,418.72,173.37,418.28,172.08,417.84z M203.25,401.16
			c0.23,1.19-0.95,2.74,0.97,3.31c0.93,0.28,2.53-1.34,2.31-2.4C206.07,399.84,204.47,401.29,203.25,401.16z M365.5,279.49
			c-0.77-1.26-1.43-1.55-2.49-0.9c-0.47,0.29-0.84,0.82-1.11,1.31c-0.44,0.79,0.03,1.22,0.78,1.3
			C364.04,281.35,364.89,280.59,365.5,279.49z M303.38,334.69c1.69-0.2,1.76-1.42,1.75-2.64c0.61,0,1.12-0.02,1.63,0
			c0.51,0.02,1.03,0.08,1.6,0.12c-1.76-1.27-3.13-1.38-4.25-0.39C303.06,332.71,302.8,333.7,303.38,334.69z M301.8,319.18
			c-0.65,1.42-0.44,2.38,0.61,2.81c0.28,0.12,0.72,0.11,0.97-0.04c0.18-0.1,0.24-0.54,0.22-0.82
			C303.49,320.09,302.77,319.57,301.8,319.18z M179.33,406.7c-0.08-0.02-0.16-0.04-0.24-0.06c-0.23,0.71-0.57,1.41-0.64,2.13
			c-0.04,0.37,0.41,0.78,0.64,1.18c0.31-0.18,0.62-0.36,0.93-0.54c-0.26-0.37-0.51-0.74-0.78-1.1c-0.06-0.08-0.21-0.09-0.34-0.14
			C179.04,407.66,179.18,407.18,179.33,406.7z M258.84,289.19c-0.03-0.2-0.05-0.4-0.08-0.6c-0.42,0.03-0.83,0.06-1.25,0.09
			c0.02,0.31,0.05,0.63,0.07,0.94C258.01,289.47,258.42,289.33,258.84,289.19z"/>
		<path d="M235.91,592c-0.1-1.1-0.08-1.94-0.26-2.73c-0.42-1.82-0.77-3.69-1.44-5.42c-1.26-3.24-1.04-6.54-0.58-9.81
			c0.41-2.87,1.07-5.75,1.97-8.5c2.14-6.56,6.31-11.1,13.31-12.58c2.11-0.45,4.21-0.91,6.29-1.46c0.51-0.13,1.16-0.57,1.32-1.01
			c1.65-4.66,5.69-6.21,9.82-7.62c2.71-0.93,5.49-1.66,8.19-2.64c0.93-0.34,1.83-1.02,2.48-1.77c3.55-4.07,4.81-8.79,3.39-14.04
			c-0.68-2.53-1.6-5.01-2.61-7.43c-2.33-5.58-1.02-10.16,3.77-12.94c1.78-1.03,4.07-1.18,6.13-1.73c0.06,0.15,0.13,0.3,0.19,0.45
			c-0.64,0.48-1.25,0.99-1.91,1.44c-1.87,1.25-2.69,2.97-2.81,5.24c-0.19,3.59,1.18,6.61,2.96,9.55c1.5,2.49,3.17,4.87,3.95,7.75
			c1.07,3.92,0.25,7.29-2.9,9.8c-2.03,1.62-3.44,3.37-3.88,5.99c-0.52,3.2-3.17,4.49-5.69,5.85c-1.26,0.68-2.62,1.27-3.68,2.19
			c-2.78,2.41-3.12,4.35-1.29,8.14c1.04,2.15,2.52,4.28,4.3,5.85c2.79,2.46,2.82,5.34,2.06,8.4c-0.64,2.54-1.51,5.07-2.67,7.41
			c-2.05,4.14-5.52,7.01-9.98,7.91c-3.31,0.67-6.84,0.4-10.23-0.42c-4.7-1.14-9.4-1.15-14.11,0.05
			C239.56,588.54,237.4,589.5,235.91,592z"/>
		<path d="M316.03,562.69c-3.22-1.13-4.31-2.59-4.26-5.92c0.07-4.63,0.26-9.26,0.29-13.89c0.03-3.88-0.32-7.74-1.46-11.48
			c-0.83-2.72-2.28-5.02-4.44-6.96c-3.05-2.74-6.52-4.7-10.26-6.28c-0.99-0.42-1.93-0.95-2.91-1.4c-1.21-0.56-1.82-1.5-1.54-2.79
			c0.28-1.26,0.71-2.51,1.22-3.69c0.33-0.75,0.9-1.42,1.44-2.06c1.2-1.43,1.39-2.9,0.38-4.5c-0.51-0.8-0.99-1.62-1.52-2.48
			c1.79,0.17,2.7,1.15,2.72,2.91c0.02,2.48-0.05,4.96,0,7.43c0.06,3.28,1.74,4.99,5.02,4.9c2.47-0.07,4.92-0.45,7.39-0.61
			c1.59-0.1,3.19-0.13,4.78-0.02c0.56,0.04,1.25,0.45,1.61,0.9c1.15,1.47,2.27,2.98,3.22,4.59c1.59,2.71,3.29,5.18,6.08,6.91
			c3.61,2.23,5.45,5.56,5.22,9.97c-0.16,3.15-0.07,6.31-1.01,9.37c-1.51,4.92-4.47,8.67-8.91,11.28
			C316.75,560.24,316.4,560.72,316.03,562.69z"/>
		<path class="st0" d="M313.46,369.99c-2.63,1.93-5.25,4.03-8.05,5.85c-2.04,1.32-4.35,2.3-6.82,2.35c-1.3,0.03-2.71-0.32-3.88-0.89
			c-1.32-0.65-1.67-2.1-1.57-3.51c0.42-6.03,3.15-10.97,7.37-15.16c1.01-1.01,2.09-1.95,3.02-3.15c-1.15,0.33-2.29,0.67-3.44,1
			c-0.07-0.09-0.13-0.18-0.2-0.27c1.31-1.25,2.53-2.63,3.96-3.73c1.48-1.14,3.18-1.97,4.73-3.02c0.3-0.2,0.52-0.75,0.54-1.14
			c0.25-4.27,0.2-8.57,0.76-12.79c0.55-4.17,1.48-8.33,2.66-12.38c1.92-6.59,4.15-13.09,7.44-19.16c1.06-1.95,2.27-3.83,3.48-5.86
			c-3.26,1-6.44,1.98-9.87,3.03c1.03-2.34,2.05-4.31,4.21-5.53c3.51-1.98,7.01-3.95,10.95-5.02c3.91-1.06,7.87-1.09,11.87-1.01
			c3.53,0.07,6.92,0.85,10.19,1.97c2.66,0.91,5.29,2.16,7.6,3.74c4.05,2.76,7.96,5.75,11.45,9.25c3.47,3.48,6.33,7.41,8.91,11.55
			c2.43,3.91,4.37,8.07,5.9,12.41c0.5,1.42,0.83,2.9,1.25,4.41c0.88-0.26,1.7-0.5,2.64-0.77c-0.86-0.92-1.64-1.76-2.42-2.61
			c1.23-1.31,2.75-1.39,4.27-1.31c1.22,0.06,1.6,0.68,1.28,1.87c-0.61,2.28-2.07,4.06-3.68,5.66c-0.99,0.98-1.28,1.95-1.12,3.29
			c1.07,8.95,0.63,17.86-0.68,26.75c-0.03,0.23-0.04,0.46-0.07,0.88c2.29-1.35,4.56-1.07,6.8-0.4c1.19,0.35,2.29,0.99,3.44,1.5
			c0,0.17,0,0.35-0.01,0.52c-0.69,0.3-1.36,0.76-2.07,0.86c-2.41,0.31-4.84,0.5-7.26,0.72c-0.51,0.05-1.03,0.01-1.39,0.01
			c-1.01,2.92-1.9,5.74-2.96,8.48c-1.56,4.03-4.04,7.52-6.93,10.7c-3.13,3.44-6.74,6.29-11.21,7.75c-2.13,0.7-4.41,1.25-6.64,1.31
			c-5.03,0.12-10.06-0.07-14.99-1.36c-4.56-1.2-8.82-3.07-12.69-5.75c-5.02-3.47-9.19-7.82-12.4-13.01
			C316.21,375.4,314.87,372.59,313.46,369.99z"/>
		<path class="st0" d="M261.84,369.78c0.51,0.9,1.08,1.5,1.17,2.17c0.1,0.65-1.69,1.74-2.58,1.57c-0.77-0.15-1.14,0.13-1.57,0.67
			c-0.84,1.06-1.74,2.07-2.55,3.02c0.81,0.39,1.6,0.7,2.29,1.16c0.24,0.16,0.33,0.73,0.28,1.08c-0.19,1.46-1.78,2.81-3.08,2.69
			c-1.28-0.11-1.74-0.8-1.65-2.62c-0.26,0.17-0.49,0.28-0.66,0.44c-5.16,4.8-11.19,8.06-17.93,9.98c-4.81,1.37-9.68,1.33-14.58,0.29
			c-3.06-0.65-6.17-1.22-8.73-3.09c-1.98-1.45-3.9-3.09-5.49-4.95c-3.92-4.58-6.28-10-7.33-15.91c-0.45-2.53-0.37-5.18-0.37-7.77
			c-0.01-10.35,2-20.39,4.88-30.29c2.43-8.37,5.26-16.6,9.3-24.34c3.28-6.29,7.02-12.3,12.67-16.83c5.47-4.39,11.66-5.73,18.46-4.06
			c3.09,0.76,4.88,3.01,6.24,5.7c2.22,4.39,2.46,8.94,1.15,13.78c0.45,0.16,0.87,0.35,1.31,0.45c4.34,1.03,7.8,3.6,11.07,6.44
			c2.06,1.79,3.83,3.82,5.08,6.3c1.45,2.89,2.1,5.95,2.04,9.14c-0.12,5.95,0.01,11.93-0.6,17.84
			C269.64,352.38,266.99,361.68,261.84,369.78z"/>
		<path class="st0" d="M227.96,411.28c-0.86,0.99-1.67,1.91-2.47,2.83c-0.14-0.1-0.28-0.19-0.43-0.29c0.54-1.11,0.96-2.32,1.66-3.32
			c0.87-1.25,1.56-2.49,1.96-4.01c1.46-5.65,5.46-9.06,10.84-10.42c3.92-0.99,7.68-2.45,11.64-3.26c4.66-0.95,9.6,1.53,11.37,5.92
			c2.95,7.32,1.48,14.01-3.21,20.1c-2.41,3.13-5.42,5.57-9.34,6.54c-4.94,1.22-9.67,0.61-14.02-2.13
			C231.6,420.49,229.17,416.41,227.96,411.28z"/>
		<path class="st0" d="M409.25,421.63c-0.47,2.04-0.84,4.12-1.43,6.13c-0.68,2.31-3.38,4.33-6.08,4.09
			c-3.06-0.28-5.6-1.54-7.83-3.49c-3.65-3.2-6.59-6.96-8.1-11.65c-0.4-1.23-0.46-2.58-0.55-3.88c-0.05-0.74-0.25-1.23-0.86-1.69
			c-2.96-2.24-5.87-4.56-8.82-6.8c-0.61-0.46-0.73-0.85-0.45-1.58c1.21-3.14,3.46-5.33,6.5-6.48c2.02-0.76,4.25-0.53,6.33,0.28
			c4.14,1.6,7.56,4.28,10.72,7.3c3.27,3.12,6.31,6.45,8.42,10.52c1.17,2.26,2.03,4.59,1.87,7.19
			C409.05,421.59,409.15,421.61,409.25,421.63z"/>
		<path class="st0" d="M341.72,427.91c-0.85,0.51-1.83,1.11-2.81,1.71c-0.06-0.06-0.13-0.11-0.19-0.17c0.69-0.81,1.28-1.76,2.1-2.4
			c2.08-1.61,4.25-3.21,6.87-3.77c1.91-0.41,3.84,0.03,5.5,1.1c2.99,1.93,4.9,4.82,6.27,7.99c2.8,6.48,2.28,13.03-0.21,19.46
			c-0.84,2.17-2.06,4.37-4.65,4.94c-1.07,0.24-2.29,0.12-3.38-0.13c-4.26-0.96-6.56-4.13-8.36-7.77c-0.53-1.07-0.94-2.19-1.38-3.21
			c-1.69,0.11-3.34,0.29-5,0.29c-0.81,0-1.67-0.22-2.43-0.51c-1.5-0.58-2.46-1.82-1.94-3.55c1.19-3.94,3.47-6.65,7.66-7.51
			c0.28-0.06,0.57-0.56,0.66-0.91C340.9,431.63,341.3,429.77,341.72,427.91z"/>
		<path class="st0" d="M168.69,355.39c-0.32,0.47-0.58,0.86-0.85,1.25c-0.07-0.02-0.15-0.04-0.22-0.06
			c0.25-1.25,0.37-2.55,0.77-3.75c1.97-5.98,4.5-11.69,8.24-16.81c1.59-2.18,3.37-4.17,5.62-5.67c2.48-1.64,5.19-1.54,7.79-0.47
			c1.47,0.61,2.86,1.61,4.01,2.73c1.55,1.51,1.98,3.56,1.94,5.72c-0.06,3.36-0.95,6.46-2.84,9.25c-2.57,3.8-4.61,4.25-8.81,2.51
			c-3.59-1.49-5.9-4.41-7.36-7.99c-0.06-0.14-0.1-0.28-0.25-0.67c-1.91,3.3-3.72,6.41-5.59,9.63c2.87-0.11,5.35,0.59,7.65,2.02
			c2.88,1.8,3.33,4.32,1.11,6.9c-1.54,1.8-3.53,2.35-5.84,1.89c-2.31-0.45-4.3-1.36-5.09-3.78
			C168.71,357.29,168.78,356.38,168.69,355.39z"/>
		<path class="st0" d="M208.86,432.48c-0.52-3.25-0.57-6.36,0.62-9.37c0.44-1.11,1.61-1.66,3.04-1.29c2.11,0.54,4.26,1.1,6.2,2.05
			c2.38,1.17,4.68,2.59,6.78,4.19c1.94,1.47,2.95,3.52,2.06,6.12c-0.65,1.9-1.7,2.54-3.65,2.04c-2.22-0.56-3.77-1.85-4.33-4.13
			c-0.2-0.81-0.52-1.06-1.4-0.92C215.16,431.65,212.11,432.03,208.86,432.48z"/>
		<path class="st0" d="M403.21,377.95c-0.78-0.97-1.54-1.92-2.32-2.89c2.49-1.01,5.91,0.6,6.82,3.36
			c1.45,4.41-1.53,10.34-6.01,11.55c-2.44,0.66-6.34,0-7.59-3.05c-1.06-2.58-0.16-4.94,1.37-7.04c1.63-2.24,3.81-3.04,6.51-2.04
			c0.3,0.11,0.61,0.17,0.92,0.24C402.96,378.07,403.04,378.01,403.21,377.95z"/>
		<path class="st0" d="M339.05,408.78c0-1.1,0-2.2,0-3.29c1.72-0.21,3.76,1.21,4.4,3.04c1.23,3.49-0.93,8.33-4.41,9.55
			c-2.83,0.99-6.69-0.22-6.17-4.6c0.24-2.06,1-3.85,2.38-5.38C337.03,406.13,338.18,406.34,339.05,408.78z"/>
		<path class="st0" d="M247.28,499.51c-0.24,0.33-0.42,0.58-0.74,1.03c0.22-0.88,0.38-1.52,0.57-2.26c0.12,0.28,0.2,0.45,0.27,0.63
			c-0.12-0.13-0.24-0.25-0.36-0.38c0.97-0.75,1.97-1.46,2.9-2.27c1.99-1.73,5.07-1.19,5.9,1.07c0.63,1.72-0.5,4.99-1.95,5.65
			c-2.15,0.97-4.8,0.05-5.95-2.08C247.7,500.49,247.52,500.05,247.28,499.51z"/>
		<path class="st0" d="M249.99,277.87c1.22,0.34,2.34,0.64,3.7,1.02c-1.09-0.95-2.04-1.78-3.16-2.76c2.54-0.61,4.88-1.1,7.13,0.31
			c1.36,0.85,1.84,2.22,1.71,3.7c-0.13,1.5-1.17,2.36-2.6,2.78C253.75,283.81,250.49,281.52,249.99,277.87z"/>
		<path class="st0" d="M208.33,445.39c0.24-1.37,0.39-2.76,0.74-4.09c0.38-1.46,1.5-2.46,2.34-2.3c1.21,0.22,2.47,1.71,2.34,3.1
			c-0.09,0.93-0.58,1.84-0.94,2.73c-0.24,0.57-0.63,1.08-0.86,1.65c-0.37,0.91-0.53,2.03-1.78,2.09c-0.86,0.04-1.68-1.26-1.75-2.55
			c-0.01-0.2,0-0.4,0-0.6C208.38,445.4,208.36,445.4,208.33,445.39z"/>
		<path class="st0" d="M423.05,356.62c-0.44-0.49-0.71-0.77-0.97-1.06c-0.26-0.29-0.51-0.58-0.91-1.03
			c1.94-0.48,3.65-0.29,5.32,0.29c0.25,0.09,0.48,0.73,0.43,1.07c-0.36,2.3-5.03,5.25-7.3,4.69c-1.39-0.35-1.75-1.04-1.22-2.37
			c0.46-1.15,1.45-1.82,2.71-1.79C421.66,356.44,422.21,356.53,423.05,356.62z"/>
		<path class="st0" d="M382.87,285.96c0.04,2.11-1.41,3.53-3.67,3.98c-1.52,0.31-2.9-0.45-3.44-1.84c-0.45-1.16-0.02-2.15,0.69-2.97
			c0.7-0.81,1.56-1.45,2.81-1.01c0.82,0.29,1.74,0.31,2.51,0.68C382.29,285.07,382.64,285.71,382.87,285.96z"/>
		<path class="st0" d="M291.29,327.42c0.67,0.09,1.34,0.16,2.01,0.26c0.71,0.11,1.44,0.17,2.11,0.4c1,0.34,2.15,0.63,2.3,1.96
			c0.11,1.03-0.98,2.52-2.17,2.91c-1.39,0.47-2.77,0.37-4.01-0.48c-1.21-0.84-1.53-1.94-0.98-3.32
			C290.79,328.53,291.07,327.93,291.29,327.42z"/>
		<path class="st0" d="M312.62,450.01c-0.15,2.19-0.71,4.22-2.12,5.87c-0.4,0.46-1.24,0.86-1.79,0.77
			c-0.41-0.07-0.97-0.98-0.97-1.51c0.03-1.53,0.12-3.1,0.53-4.56c0.5-1.79,1.41-2.05,3.08-1.25
			C311.78,449.52,312.19,449.77,312.62,450.01z"/>
		<path class="st0" d="M194.13,381.87c2.21-0.94,4.83,0.57,4.74,2.68c-0.05,1.19-0.5,2.03-1.69,2.46c-1.15,0.41-2.05,0-2.82-0.74
			c-1.49-1.45-1.67-3.37-1.69-5.3c0-0.55,0.11-1.11,0.21-1.99C193.38,380.12,193.76,380.99,194.13,381.87z"/>
		<path class="st0" d="M271.35,301.48c-0.25-0.23-0.39-0.36-0.69-0.64c1.12,0.1,1.93,0.57,1.9,1.48c-0.04,1.11-0.39,2.25-0.82,3.29
			c-0.18,0.42-1,0.93-1.39,0.83c-0.56-0.13-1.19-0.69-1.44-1.23C268.17,303.61,269.44,301.64,271.35,301.48z"/>
		<path class="st0" d="M279.58,430.65c-1.08,1.22-2.07,2.28-3.75,2.18c-0.92-0.05-1.15-0.61-0.97-1.38
			c0.39-1.65,2.16-2.42,3.63-1.58C278.83,430.06,279.13,430.32,279.58,430.65z"/>
		<path class="st0" d="M172.08,417.84c1.29,0.45,2.55,0.88,2.79,2.34c0.09,0.55-0.18,1.33-0.57,1.72c-0.23,0.23-1.12,0.04-1.54-0.23
			C171.61,420.92,171.39,419.51,172.08,417.84z"/>
		<path class="st0" d="M203.25,401.16c1.22,0.14,2.83-1.32,3.28,0.91c0.22,1.06-1.38,2.67-2.31,2.4
			C202.3,403.89,203.48,402.35,203.25,401.16z"/>
		<path class="st0" d="M365.5,279.49c-0.61,1.1-1.46,1.86-2.82,1.71c-0.75-0.08-1.22-0.51-0.78-1.3c0.27-0.5,0.64-1.03,1.11-1.31
			C364.07,277.94,364.73,278.22,365.5,279.49z"/>
		<path class="st0" d="M303.38,334.69c-0.58-0.99-0.32-1.98,0.73-2.91c1.12-0.99,2.49-0.88,4.25,0.39c-0.57-0.04-1.08-0.1-1.6-0.12
			c-0.51-0.02-1.02,0-1.63,0C305.13,333.27,305.07,334.49,303.38,334.69z"/>
		<path class="st0" d="M301.8,319.18c0.97,0.38,1.69,0.91,1.79,1.95c0.03,0.28-0.04,0.72-0.22,0.82c-0.25,0.15-0.69,0.15-0.97,0.04
			C301.36,321.57,301.15,320.6,301.8,319.18z"/>
		<path class="st0" d="M179.33,406.7c-0.14,0.48-0.29,0.96-0.44,1.46c0.14,0.05,0.28,0.07,0.34,0.14c0.27,0.36,0.52,0.73,0.78,1.1
			c-0.31,0.18-0.62,0.36-0.93,0.54c-0.23-0.39-0.67-0.81-0.64-1.18c0.07-0.72,0.41-1.42,0.64-2.13
			C179.17,406.66,179.25,406.68,179.33,406.7z"/>
		<path class="st0" d="M258.84,289.19c-0.42,0.14-0.83,0.28-1.25,0.43c-0.02-0.31-0.05-0.63-0.07-0.94
			c0.42-0.03,0.83-0.06,1.25-0.09C258.79,288.79,258.81,288.99,258.84,289.19z"/>
	</g>
</g>
</svg>
