<?xml version="1.0" encoding="utf-8"?>
<!-- Generator: Adobe Illustrator 24.1.3, SVG Export Plug-In . SVG Version: 6.00 Build 0)  -->
<svg version="1.1" id="Calque_1" xmlns="http://www.w3.org/2000/svg" xmlns:xlink="http://www.w3.org/1999/xlink" x="0px" y="0px"
	 viewBox="0 0 595.28 841.89" style="enable-background:new 0 0 595.28 841.89;" xml:space="preserve">
<style type="text/css">
	.st0{fill:#FFFFFF;}
</style>
<g>
	<g>
		<path class="st0" d="M58,660.89c0-160,0-320,0-480c160,0,320,0,480,0c0,160,0,320,0,480C378,660.89,218,660.89,58,660.89z
			 M341.77,236.51c0.03-0.29,0.06-0.57,0.1-1.06c0.65,0.69,1.16,1.23,1.76,1.87c1.18-2.01,1.66-3.99,0.81-6.21
			c0.57,0.23,1.1,0.56,1.67,0.66c1.6,0.28,3.27,0.73,4.64-0.58c0.36-0.35,0.74-1.12,0.58-1.47c-0.21-0.47-0.88-0.89-1.43-1
			c-0.79-0.17-1.64-0.04-2.47-0.04c0.42-0.42,0.94-0.81,1.5-0.91c1.37-0.26,2.79-0.29,4.15-0.59c1.7-0.37,3.4-0.83,5.03-1.45
			c0.49-0.19,0.94-1.01,0.99-1.58c0.03-0.37-0.64-1.03-1.11-1.16c-0.89-0.25-1.85-0.21-3.11-0.32c4.5-1.83,8.73-3.03,13.16-0.62
			c0.76-2.55,0.22-3.72-2.12-4.82c-1.79-0.85-3.68-0.55-5.55-0.6c-1.23-0.03-2.22,0.46-3.02,1.43c-1.12,1.35-2.32,2.63-3.24,3.66
			c-0.09-0.9-0.01-2.06-0.35-3.09c-0.34-1.03-1-1.03-1.61-0.1c-1.3,1.96-2.53,3.97-3.81,5.95c-0.39,0.61-0.84,1.18-1.09,1.53
			c-0.37-0.52-0.72-1.39-1.03-1.37c-1.16,0.05-2.51,0.09-3.42,0.69c-1.61,1.05-2.98,2.49-4.41,3.82c-0.41,0.38-0.68,0.9-0.93,1.25
			c-0.33-0.84-0.59-1.67-0.99-2.43c-0.49-0.91-1.43-0.68-2.14-0.46c-0.34,0.11-0.63,0.85-0.67,1.32c-0.09,1.35-0.15,2.73-0.01,4.07
			c0.29,2.79-0.66,5.01-2.76,6.79c-0.02,0.02,0.01,0.1,0.05,0.34c0.92-0.55,1.81-0.98,2.6-1.57c0.8-0.6,1.5-1.35,2.25-2.04
			c1.55,2.99,1.44,4.11,0.18,7.07c-1.5,3.53-4.2,5.92-7.03,8.24c0-4.71-1.46-5.85-6.63-6.4c0.68-1.4,0.68-1.34,2.11-1.44
			c2.31-0.16,4.64-0.22,6.91-0.65c1.52-0.29,2.98-1.06,4.38-1.79c0.73-0.39,1.38-1.1,0.97-2.26c-3.51,0.21-6.78,1.27-10.1,2.28
			c2.09-1.29,3.88-2.76,3.93-5.69c-1.17,0.53-2.18,0.91-3.12,1.42c-2.65,1.43-4.87,3.41-7.07,5.97c0-1.12,0.09-1.91-0.02-2.67
			c-0.13-0.93-0.36-1.87-0.69-2.75c-0.11-0.3-0.64-0.62-1-0.64c-1.3-0.07-2.56,0.15-3.57,1.09c-1.06,0.98-2.14,1.93-3.14,2.95
			c-1.72,1.76-2.69,3.84-2.51,6.37c0.1,1.35,0.01,2.74,0.28,4.06c0.55,2.65,1.29,5.26,1.97,7.95c1.25-1.13,2.25-2.03,3.25-2.93
			c0.08,0.08,0.16,0.16,0.24,0.24c-4.03,3.5-4.01,8.28-4.11,13.21c-2.96-3.24-3.37-7.54-5.65-11.24c-0.43,0.62-0.85,0.98-0.96,1.42
			c-0.75,2.93-1.03,5.93-0.35,8.9c0.85,3.7,3.21,6.65,5.22,9.77c0.89,1.38,2.21,1.84,3.81,1.83c0.81-0.01,1.34-0.28,1.52-1.04
			c0.24-0.99,0.39-1.99,0.6-3.12c3.3,2.84,6.69,5.47,8.24,9.88c-0.66,0-1.09,0-1.53,0c-5.12,0-10.23,0-15.35,0
			c-0.36,0-0.72,0-1.07,0.04c-2.02,0.22-4.03,0.44-6.05,0.68c-1.32,0.15-2.65,0.27-3.96,0.51c-2.38,0.43-4.75,0.93-7.18,1.42
			c0.17-1.54,0.36-2.82,0.45-4.11c0.27-4.03,0.64-8.06,0.69-12.09c0.07-5.1-0.11-10.2-0.21-15.3c-0.02-1.14-0.05-2.31-0.26-3.43
			c-0.66-3.57-1.33-7.15-2.16-10.68c-0.43-1.81-0.94-3.7-1.9-5.26c-1.07-1.74-2.61-3.22-4.1-4.66c-1.69-1.63-3.82-2.46-6.17-2.51
			c-2.84-0.06-5.68-0.09-8.51,0.01c-1.68,0.06-3.39,0.24-5.02,0.65c-2.75,0.7-5.47,1.56-8.16,2.48c-4.35,1.5-7.82,4.28-10.74,7.79
			c-0.32,0.39-0.56,0.84-0.82,1.28c-1.01,1.75-2.36,3.4-2.94,5.28c-1.29,4.13-0.63,8.27,1.03,12.2c1,2.37,2.25,4.65,3.53,6.89
			c1.98,3.46,3.96,6.92,6.16,10.23c2.1,3.16,4.43,6.18,6.78,9.16c1.53,1.94,3.25,3.73,4.97,5.5c1.45,1.5,3.03,2.87,4.59,4.32
			c-26.13,12.47-45.11,31.79-57.21,57.95c-0.16-0.49-0.28-0.85-0.39-1.23c-0.48-1.66-1.58-3.17-1.2-5.05
			c0.2-0.99,0.05-1.88-1.13-2.02c0.34-2.05,0.66-4,1-6.04c-0.75-0.04-1.23-0.2-1.42,0.63c-0.28,1.22-0.78,2.39-1.08,3.61
			c-0.45,1.86-0.8,3.74-1.2,5.61c-0.2,0.91-0.26,1.94-1.63,1.9c-0.2-0.01-0.5,0.37-0.59,0.63c-0.56,1.57-1.15,3.14-1.59,4.74
			c-0.31,1.14-1.05,1.81-2.16,2.07c-0.7,0.16-1.39,0.66-1.92,1.18c-0.96,0.93-1.67,2.16-2.72,2.96c-1.54,1.18-3.22,2.22-4.95,3.08
			c-3.11,1.55-5.47,3.88-7.21,6.8c-0.84,1.4-1.11,3.12-1.81,4.62c-1.27,2.7-0.9,5.49-0.66,8.27c0.17,1.99,0.62,3.96,0.74,5.95
			c0.09,1.53-0.16,3.08-0.2,4.63c-0.04,1.56-0.01,3.12-0.02,4.68c0,0.15-0.06,0.3-0.09,0.43c-0.39,0.06-0.73,0.12-0.99,0.16
			c-0.5,1.49-0.97,2.89-1.43,4.27c-0.98-1.06-0.96-3.41-3.62-2.79c1.35,4.91,2.69,9.76,4.04,14.68c0.38,0,0.95,0,1.54,0
			c0.01,1.65,1.25,2.62,2.26,3.64c1.35,1.37,3.05,2.42,4.32,3.86c1.28,1.45,2.21,3.21,3.35,4.92c-1.77,2.42-3.47,4.74-5.07,6.92
			c4.35,0.81,8.67,1.62,12.99,2.43c-0.02,0.11-0.04,0.21-0.06,0.32c-18.5,0.08-32.64,12.57-36.55,21.05
			c17.93-14.24,42.76-10.77,56.89,2.12c13.79,12.58,18.42,32.79,11.18,49.97c-3.74,8.85-9.69,15.86-17.93,20.8
			c-10.71,6.41-22.21,7.87-34.37,4.94c0.09,0.17,0.11,0.28,0.17,0.31c5.11,3.15,10.73,3.93,16.59,3.5c1.24-0.09,2.47-0.4,3.68-0.7
			c1.02-0.25,2.02-0.61,3.02-0.94c0.56-0.19,0.94-0.12,1.44,0.32c0.81,0.72,1.73,1.37,2.71,1.84c2.33,1.11,4.84,1.55,7.4,1.68
			c4.02,0.21,7.96-0.36,11.65-1.96c2.25-0.97,4.54-2.1,6.41-3.64c4.35-3.57,7.41-8.09,8.92-13.6c1.22-4.46,2.12-8.95,2.01-13.6
			c-0.06-2.64,0.05-5.28-0.03-7.92c-0.06-1.73-0.21-3.47-0.53-5.17c-0.56-2.94-1.28-5.84-1.99-9.05c1.01,0.34,1.96-0.55,2.96,0.24
			c1.52,1.2,3.03,2.42,4.61,3.56c3.09,2.24,6.17,4.5,9.36,6.6c2.56,1.69,5.21,3.24,7.91,4.68c2.07,1.11,4.25,2,6.42,2.9
			c2.66,1.1,5.35,2.12,8.04,3.14c1.59,0.6,3.2,1.13,4.8,1.67c1.03,0.35,2.06,0.7,3.11,0.96c1.26,0.31,2.54,0.48,3.81,0.76
			c2.03,0.45,4.05,1,6.09,1.39c1.76,0.34,3.55,0.48,5.32,0.76c1.83,0.28,3.65,0.93,5.47,0.89c8.89-0.2,17.82,0.84,26.67-0.89
			c1.35-0.26,2.76-0.24,4.1-0.53c2.95-0.64,5.86-1.48,8.82-2.09c2.03-0.42,4.02-0.79,5.96-1.65c2.6-1.14,5.4-1.81,8.05-2.85
			c2.47-0.96,4.89-2.06,7.27-3.22c2.89-1.41,5.76-2.89,8.57-4.45c1.4-0.78,2.67-1.8,4-2.69c2.12-1.42,4.32-2.73,6.36-4.26
			c2.79-2.09,5.54-4.25,8.16-6.56c2.58-2.28,5.05-4.7,7.43-7.19c1.92-1.99,3.69-4.13,5.44-6.27c1.21-1.47,2.29-3.06,3.45-4.62
			c0.07,0.04,0.25,0.12,0.4,0.23c2.01,1.54,3.92,3.26,6.07,4.59c2.35,1.45,4.87,2.7,7.43,3.75c2.86,1.17,5.8,2.2,8.8,2.95
			c1.96,0.49,4.08,0.51,6.13,0.52c3.82,0.01,7.65-0.07,11.47-0.24c1.66-0.07,3.35-0.31,4.95-0.75c1.98-0.55,3.86-1.46,5.83-2.07
			c3.66-1.15,6.93-3.1,9.98-5.29c2.85-2.05,5.46-4.47,7.99-6.92c2.32-2.26,4.26-4.87,5.77-7.76c0.57-1.09,1.05-2.27,1.79-3.24
			c1.57-2.06,2.16-4.5,2.98-6.86c0.51-1.48,0.87-3.02,1.22-4.55c0.44-1.97,1.13-3.97,1.11-5.95c-0.03-3.97,0.38-7.93-0.32-11.92
			c-0.46-2.67-0.99-5.28-1.71-7.89c-0.9-3.31-2.3-6.37-3.94-9.34c-0.95-1.71-1.95-3.41-3.13-4.96c-1.59-2.11-3.21-4.25-5.11-6.07
			c-3.2-3.07-6.69-5.81-10.65-7.88c-1.55-0.81-3.12-1.62-4.73-2.29c-1.63-0.68-3.32-1.2-4.99-1.75c-1.44-0.48-2.88-1.2-4.36-1.32
			c-3.83-0.32-7.69-0.37-11.53-0.54c-0.34-0.01-0.67-0.05-1.05-0.08c0.03-0.26,0.01-0.45,0.08-0.57c1.48-2.38,2.91-4.79,4.47-7.11
			c2.05-3.05,3.62-6.33,4.81-9.78c1.02-2.94,1.99-5.9,2.87-8.89c0.52-1.75,1.11-3.57,1.14-5.36c0.05-3.52-0.21-7.05-0.44-10.58
			c-0.25-3.74-0.79-7.47-0.89-11.21c-0.11-4.38,0.1-8.76,0.22-13.14c0.02-0.59,0.23-1.22,0.52-1.74c0.48-0.87,1.18-1.61,1.65-2.49
			c1.47-2.72,2.93-5.44,4.28-8.22c0.8-1.65,1.44-3.39,2.07-5.11c0.42-1.15,0.75-2.34,1.04-3.53c0.24-0.97,0.37-1.97,0.54-2.96
			c0.39-2.26,0.99-4.52,1.1-6.79c0.18-3.79,0.13-7.6,0.02-11.39c-0.06-2.07-0.36-4.16-0.74-6.2c-0.31-1.62-0.92-3.19-1.38-4.78
			c-0.36-1.25-0.57-2.57-1.07-3.76c-1.09-2.61-2.18-5.24-3.54-7.72c-1.65-2.99-3.37-5.98-5.44-8.67c-2.17-2.82-4.63-5.46-7.25-7.87
			c-2.44-2.26-5.19-4.21-7.92-6.14c-1.94-1.37-3.98-2.65-6.13-3.65c-2.38-1.12-4.91-1.94-7.42-2.78c-2.53-0.85-5.07-1.76-7.68-2.29
			c-2.5-0.5-5.08-0.7-7.64-0.75c-3.9-0.06-7.81,0.03-11.7,0.24c-2.09,0.11-4.16,0.61-6.23,0.96c-0.76,0.13-1.52,0.28-2.24,0.52
			c-1.82,0.59-3.63,1.19-5.41,1.88c-1.89,0.73-3.84,1.4-5.58,2.41c-1.99,1.15-3.97,2.21-6.36,2.52c0.13-1.01-0.44-1.23-1.3-1.13
			c-3.42,0.37-6.87,0.51-10.07,2.05c-1.01,0.49-2.2,0.63-1.89,2.04c-0.92,0.46-1.73,0.9-2.57,1.27c-1.57,0.7-2.33,2.36-3.94,3.08
			c-1.43,0.63-2.67,1.72-3.91,2.54c-0.68-0.52-1.38-1.19-2.21-1.63c-0.65-0.35-0.82-0.78-0.79-1.42
			C341.76,236.86,341.76,236.69,341.77,236.51z"/>
		<path d="M341.75,237.03c-0.04,0.64,0.14,1.07,0.79,1.42c0.83,0.44,1.53,1.12,2.21,1.63c1.24-0.83,2.47-1.91,3.91-2.54
			c1.62-0.72,2.38-2.38,3.94-3.08c0.84-0.37,1.65-0.81,2.57-1.27c-0.3-1.4,0.88-1.55,1.89-2.04c3.2-1.54,6.65-1.68,10.07-2.05
			c0.87-0.09,1.43,0.13,1.3,1.13c2.39-0.31,4.37-1.37,6.36-2.52c1.74-1.01,3.69-1.68,5.58-2.41c1.78-0.69,3.6-1.29,5.41-1.88
			c0.73-0.24,1.49-0.39,2.24-0.52c2.07-0.35,4.14-0.84,6.23-0.96c3.89-0.21,7.8-0.3,11.7-0.24c2.55,0.04,5.14,0.24,7.64,0.75
			c2.61,0.52,5.15,1.44,7.68,2.29c2.5,0.84,5.03,1.66,7.42,2.78c2.14,1.01,4.19,2.28,6.13,3.65c2.73,1.93,5.48,3.88,7.92,6.14
			c2.61,2.42,5.08,5.05,7.25,7.87c2.07,2.7,3.79,5.69,5.44,8.67c1.36,2.47,2.45,5.11,3.54,7.72c0.5,1.19,0.71,2.51,1.07,3.76
			c0.46,1.59,1.07,3.16,1.38,4.78c0.39,2.04,0.68,4.13,0.74,6.2c0.12,3.79,0.17,7.6-0.02,11.39c-0.11,2.28-0.71,4.53-1.1,6.79
			c-0.17,0.99-0.3,1.99-0.54,2.96c-0.29,1.19-0.62,2.38-1.04,3.53c-0.63,1.73-1.27,3.46-2.07,5.11c-1.35,2.78-2.81,5.5-4.28,8.22
			c-0.47,0.87-1.17,1.62-1.65,2.49c-0.29,0.52-0.5,1.15-0.52,1.74c-0.12,4.38-0.33,8.77-0.22,13.14c0.1,3.74,0.64,7.47,0.89,11.21
			c0.23,3.52,0.5,7.05,0.44,10.58c-0.03,1.8-0.62,3.61-1.14,5.36c-0.88,2.99-1.85,5.95-2.87,8.89c-1.19,3.46-2.76,6.73-4.81,9.78
			c-1.56,2.32-2.99,4.73-4.47,7.11c-0.07,0.12-0.05,0.3-0.08,0.57c0.38,0.03,0.71,0.06,1.05,0.08c3.85,0.16,7.7,0.21,11.53,0.54
			c1.48,0.12,2.92,0.84,4.36,1.32c1.67,0.56,3.37,1.08,4.99,1.75c1.62,0.67,3.18,1.48,4.73,2.29c3.96,2.07,7.45,4.81,10.65,7.88
			c1.9,1.82,3.51,3.96,5.11,6.07c1.17,1.56,2.18,3.25,3.13,4.96c1.64,2.97,3.03,6.02,3.94,9.34c0.71,2.62,1.24,5.22,1.71,7.89
			c0.69,3.99,0.28,7.96,0.32,11.92c0.02,1.98-0.67,3.98-1.11,5.95c-0.34,1.53-0.7,3.07-1.22,4.55c-0.81,2.36-1.41,4.8-2.98,6.86
			c-0.74,0.97-1.22,2.14-1.79,3.24c-1.52,2.89-3.45,5.51-5.77,7.76c-2.52,2.45-5.13,4.87-7.99,6.92c-3.06,2.19-6.32,4.15-9.98,5.29
			c-1.97,0.62-3.85,1.53-5.83,2.07c-1.6,0.44-3.29,0.67-4.95,0.75c-3.82,0.17-7.64,0.26-11.47,0.24c-2.05-0.01-4.16-0.03-6.13-0.52
			c-2.99-0.75-5.94-1.77-8.8-2.95c-2.56-1.05-5.08-2.3-7.43-3.75c-2.15-1.33-4.05-3.05-6.07-4.59c-0.15-0.12-0.33-0.19-0.4-0.23
			c-1.16,1.56-2.24,3.15-3.45,4.62c-1.76,2.14-3.52,4.28-5.44,6.27c-2.39,2.48-4.85,4.91-7.43,7.19c-2.62,2.31-5.37,4.47-8.16,6.56
			c-2.04,1.53-4.24,2.84-6.36,4.26c-1.34,0.9-2.6,1.92-4,2.69c-2.82,1.56-5.68,3.04-8.57,4.45c-2.38,1.16-4.8,2.26-7.27,3.22
			c-2.65,1.03-5.45,1.7-8.05,2.85c-1.94,0.86-3.93,1.23-5.96,1.65c-2.96,0.61-5.87,1.44-8.82,2.09c-1.34,0.29-2.75,0.26-4.1,0.53
			c-8.84,1.73-17.78,0.69-26.67,0.89c-1.81,0.04-3.64-0.6-5.47-0.89c-1.77-0.28-3.56-0.42-5.32-0.76c-2.04-0.39-4.06-0.94-6.09-1.39
			c-1.26-0.28-2.55-0.46-3.81-0.76c-1.05-0.26-2.08-0.61-3.11-0.96c-1.61-0.54-3.22-1.07-4.8-1.67c-2.69-1.02-5.38-2.04-8.04-3.14
			c-2.17-0.9-4.36-1.8-6.42-2.9c-2.7-1.44-5.36-2.99-7.91-4.68c-3.19-2.1-6.27-4.36-9.36-6.6c-1.57-1.14-3.08-2.36-4.61-3.56
			c-1-0.79-1.96,0.1-2.96-0.24c0.71,3.2,1.44,6.11,1.99,9.05c0.32,1.7,0.47,3.44,0.53,5.17c0.09,2.64-0.03,5.28,0.03,7.92
			c0.11,4.65-0.79,9.14-2.01,13.6c-1.51,5.51-4.57,10.03-8.92,13.6c-1.88,1.54-4.16,2.67-6.41,3.64c-3.69,1.6-7.63,2.17-11.65,1.96
			c-2.55-0.13-5.07-0.57-7.4-1.68c-0.98-0.47-1.9-1.12-2.71-1.84c-0.49-0.44-0.88-0.51-1.44-0.32c-1,0.34-2,0.7-3.02,0.94
			c-1.21,0.3-2.44,0.61-3.68,0.7c-5.86,0.44-11.48-0.35-16.59-3.5c-0.06-0.04-0.08-0.14-0.17-0.31c12.15,2.93,23.66,1.48,34.37-4.94
			c8.24-4.93,14.19-11.94,17.93-20.8c7.25-17.17,2.62-37.38-11.18-49.97c-14.13-12.89-38.95-16.36-56.89-2.12
			c3.91-8.48,18.05-20.97,36.55-21.05c0.02-0.11,0.04-0.21,0.06-0.32c-4.32-0.81-8.65-1.62-12.99-2.43c1.6-2.19,3.3-4.51,5.07-6.92
			c-1.14-1.72-2.07-3.47-3.35-4.92c-1.27-1.44-2.97-2.48-4.32-3.86c-1-1.02-2.25-1.99-2.26-3.64c-0.58,0-1.15,0-1.54,0
			c-1.35-4.92-2.69-9.77-4.04-14.68c2.65-0.62,2.63,1.73,3.62,2.79c0.46-1.38,0.93-2.78,1.43-4.27c0.26-0.04,0.6-0.1,0.99-0.16
			c0.03-0.13,0.09-0.28,0.09-0.43c0.01-1.56-0.02-3.12,0.02-4.68c0.04-1.54,0.29-3.1,0.2-4.63c-0.12-1.99-0.57-3.96-0.74-5.95
			c-0.24-2.78-0.61-5.57,0.66-8.27c0.7-1.49,0.98-3.22,1.81-4.62c1.74-2.91,4.09-5.25,7.21-6.8c1.74-0.86,3.41-1.91,4.95-3.08
			c1.05-0.8,1.76-2.03,2.72-2.96c0.53-0.52,1.22-1.01,1.92-1.18c1.11-0.26,1.85-0.94,2.16-2.07c0.44-1.61,1.03-3.17,1.59-4.74
			c0.09-0.26,0.4-0.63,0.59-0.63c1.37,0.04,1.43-0.99,1.63-1.9c0.41-1.87,0.75-3.75,1.2-5.61c0.3-1.22,0.8-2.39,1.08-3.61
			c0.19-0.83,0.67-0.67,1.42-0.63c-0.34,2.03-0.66,3.99-1,6.04c1.18,0.14,1.32,1.02,1.13,2.02c-0.37,1.88,0.72,3.39,1.2,5.05
			c0.11,0.37,0.24,0.74,0.39,1.23c12.1-26.16,31.08-45.48,57.21-57.95c-1.56-1.46-3.14-2.83-4.59-4.32
			c-1.72-1.77-3.44-3.57-4.97-5.5c-2.36-2.98-4.68-6-6.78-9.16c-2.2-3.31-4.19-6.78-6.16-10.23c-1.28-2.24-2.53-4.52-3.53-6.89
			c-1.66-3.92-2.32-8.07-1.03-12.2c0.59-1.88,1.93-3.53,2.94-5.28c0.25-0.44,0.49-0.9,0.82-1.28c2.92-3.5,6.38-6.29,10.74-7.79
			c2.69-0.92,5.41-1.78,8.16-2.48c1.62-0.41,3.34-0.59,5.02-0.65c2.83-0.1,5.68-0.08,8.51-0.01c2.35,0.05,4.49,0.88,6.17,2.51
			c1.49,1.44,3.03,2.92,4.1,4.66c0.96,1.55,1.47,3.45,1.9,5.26c0.83,3.53,1.5,7.11,2.16,10.68c0.21,1.12,0.24,2.28,0.26,3.43
			c0.1,5.1,0.29,10.21,0.21,15.3c-0.06,4.03-0.43,8.06-0.69,12.09c-0.09,1.29-0.28,2.57-0.45,4.11c2.43-0.48,4.79-0.99,7.18-1.42
			c1.31-0.24,2.64-0.35,3.96-0.51c2.02-0.24,4.03-0.46,6.05-0.68c0.36-0.04,0.72-0.04,1.07-0.04c5.12,0,10.23,0,15.35,0
			c0.44,0,0.87,0,1.53,0c-1.55-4.41-4.93-7.04-8.24-9.88c-0.21,1.13-0.36,2.13-0.6,3.12c-0.18,0.75-0.71,1.03-1.52,1.04
			c-1.59,0.01-2.92-0.44-3.81-1.83c-2-3.12-4.36-6.07-5.22-9.77c-0.68-2.96-0.4-5.96,0.35-8.9c0.11-0.44,0.53-0.8,0.96-1.42
			c2.28,3.7,2.69,8,5.65,11.24c0.1-4.93,0.08-9.71,4.11-13.21c-0.08-0.08-0.16-0.16-0.24-0.24c-1,0.9-2,1.8-3.25,2.93
			c-0.68-2.69-1.42-5.3-1.97-7.95c-0.27-1.32-0.18-2.7-0.28-4.06c-0.18-2.53,0.79-4.61,2.51-6.37c1.01-1.03,2.09-1.98,3.14-2.95
			c1.01-0.93,2.27-1.16,3.57-1.09c0.35,0.02,0.88,0.33,1,0.64c0.33,0.88,0.56,1.82,0.69,2.75c0.11,0.77,0.02,1.56,0.02,2.67
			c2.2-2.56,4.42-4.54,7.07-5.97c0.94-0.51,1.95-0.89,3.12-1.42c-0.05,2.94-1.84,4.4-3.93,5.69c3.31-1,6.59-2.07,10.1-2.28
			c0.41,1.16-0.24,1.87-0.97,2.26c-1.39,0.73-2.85,1.5-4.38,1.79c-2.26,0.43-4.6,0.49-6.91,0.65c-1.43,0.1-1.44,0.04-2.11,1.44
			c5.17,0.55,6.63,1.69,6.63,6.4c2.83-2.31,5.53-4.71,7.03-8.24c1.26-2.96,1.37-4.08-0.18-7.07c-0.76,0.7-1.45,1.44-2.25,2.04
			c-0.78,0.59-1.68,1.03-2.6,1.57c-0.03-0.23-0.07-0.32-0.05-0.34c2.1-1.78,3.05-4,2.76-6.79c-0.14-1.34-0.08-2.72,0.01-4.07
			c0.03-0.47,0.33-1.22,0.67-1.32c0.71-0.22,1.65-0.46,2.14,0.46c0.4,0.75,0.66,1.59,0.99,2.43c0.26-0.35,0.53-0.87,0.93-1.25
			c1.43-1.32,2.8-2.76,4.41-3.82c0.92-0.6,2.26-0.64,3.42-0.69c0.31-0.01,0.65,0.85,1.03,1.37c0.25-0.35,0.7-0.92,1.09-1.53
			c1.28-1.98,2.51-3.98,3.81-5.95c0.62-0.93,1.28-0.94,1.61,0.1c0.34,1.03,0.26,2.2,0.35,3.09c0.92-1.03,2.12-2.31,3.24-3.66
			c0.81-0.97,1.79-1.46,3.02-1.43c1.86,0.04,3.75-0.25,5.55,0.6c2.33,1.1,2.88,2.27,2.12,4.82c-4.43-2.42-8.66-1.21-13.16,0.62
			c1.25,0.11,2.22,0.08,3.11,0.32c0.47,0.13,1.14,0.79,1.11,1.16c-0.05,0.57-0.51,1.39-0.99,1.58c-1.63,0.62-3.32,1.08-5.03,1.45
			c-1.36,0.3-2.78,0.33-4.15,0.59c-0.57,0.11-1.08,0.49-1.5,0.91c0.83,0,1.68-0.12,2.47,0.04c0.54,0.12,1.22,0.54,1.43,1
			c0.15,0.34-0.22,1.12-0.58,1.47c-1.37,1.31-3.04,0.86-4.64,0.58c-0.57-0.1-1.1-0.42-1.67-0.66c0.85,2.21,0.37,4.2-0.81,6.21
			c-0.6-0.63-1.11-1.17-1.76-1.87c-0.05,0.49-0.08,0.78-0.1,1.06c-0.12-0.38-0.25-0.76-0.37-1.12c-0.53,0-1.04,0-1.72,0
			c0.63,0.9,1.15,1.65,1.7,2.44C341.54,237.49,341.65,237.26,341.75,237.03z M258.92,386.83c-0.17-1.44-0.34-2.88-0.51-4.32
			c-0.04-0.39-0.16-0.8-0.09-1.17c0.07-0.38,0.33-0.72,0.51-1.08c0.22,0.32,0.52,0.6,0.65,0.95c0.34,0.87,0.21,1.95,1.2,2.53
			c0.13,0.08,0.22,0.33,0.24,0.51c0.33,3.09,0.78,6.18,0.93,9.27c0.14,2.75-0.01,5.47-0.85,8.19c-0.83,2.67-1.01,5.54-1.81,8.23
			c-0.5,1.68-0.36,2.93,0.88,4.1c0.2,0.19,0.55,0.39,0.56,0.6c0.04,0.76,0.26,1.74-0.11,2.26c-0.92,1.3-2.12,2.39-3.26,3.62
			c0.42,0.53,0.83,1,1.18,1.51c0.79,1.17,1.1,2.24-0.68,3.11c-0.95,0.46-1.79,1.16-2.66,1.74c0.37,0.44,0.59,0.69,0.81,0.95
			c0.24,0.27,0.48,0.53,0.73,0.79c0.82,0.89,0.62,2.1-0.43,2.72c-0.8,0.47-1.55,1.06-2.39,1.44c-1.06,0.48-2.04,1.42-3.4,0.82
			c-0.2-1.12,0.3-1.79,1.32-2.26c0.96-0.44,1.85-1.04,2.75-1.56c-0.8-1.03-1.53-1.95-2.23-2.85c-0.62,1.2-1.47,2.59-2.1,4.07
			c-1.67,3.98-2.74,8.2-5.15,11.88c-1.82,2.78-3.3,5.77-5.1,8.57c-0.65,1.01-0.55,1.59,0.27,2.26c0.21-0.19,0.54-0.35,0.57-0.55
			c0.11-0.75,0.14-1.5,1.19-1.54c0.1,0,0.2-0.23,0.27-0.36c0.91-1.65,1.8-3.31,2.75-4.95c0.11-0.2,0.5-0.23,0.96-0.42
			c-0.31,1.15-0.6,2-0.77,2.88c-0.47,2.32-1.83,4.21-2.97,6.19c-0.39,0.68-0.41,1.15,0.13,1.77c2.99,3.39,5.94,6.82,9.08,10.46
			c0.84-1.19,1.64-2.03,2.11-3.03c1.65-3.54,2.91-7.29,4.83-10.67c3.12-5.5,5.07-11.42,7.14-17.34c4.4-12.63,5.93-25.57,4.29-38.82
			c-1.16-9.39-2.95-18.67-5.52-27.81c-2.02-7.17-4.3-14.17-8.11-20.65c-2.24-3.81-4.48-7.74-4.62-12.59
			c-0.88,0.89-1.65,1.57-2.3,2.36c-0.2,0.25-0.17,0.82-0.04,1.17c0.35,1.04,0.96,2.02,1.19,3.08c0.64,2.98,1.15,5.99,1.7,8.99
			c0.19,1.04,0.39,2.08,0.47,3.13c0.15,1.88,0.26,3.73,1.21,5.46c0.55,1.01,0.91,2.15,1.18,3.28c0.55,2.23,0.98,4.5,1.46,6.75
			c0.25,1.14,0.51,2.28,0.77,3.43c-0.19,0.05-0.37,0.11-0.56,0.16c-1.05-3.24-2.11-6.47-3.16-9.71c0.44,2.54,1.03,5.03,1.66,7.51
			c0.73,2.83,1.47,5.65,2.27,8.45c0.22,0.76,0.69,1.44,1.04,2.16c-0.53,1.52,0.22,2.89,0.52,4.31c-0.05,0.85-0.17,1.71-0.13,2.56
			c0.11,2.12,0.38,4.24,0.44,6.37c0.04,1.66-0.1,3.32-0.23,4.98c-0.1,1.41-0.29,2.81-0.45,4.21c-0.13,1.13-0.28,2.25-0.43,3.38
			c0.3-0.65,0.53-1.31,0.64-1.99c0.51-3.32,0.89-6.67,1.49-9.98c0.54-2.92-0.18-5.7-0.59-8.52
			C259.62,387.46,259.18,387.16,258.92,386.83z M445.63,282.16c0.01-24.49-19.71-44.25-44.19-44.27
			c-24.49-0.02-44.27,19.71-44.28,44.18c-0.01,24.49,19.72,44.25,44.2,44.27C425.85,326.36,445.62,306.64,445.63,282.16z
			 M396.48,418.59c1.67-0.29,3.49-0.67,5.33-0.92c2.47-0.34,4.76,0.29,6.94,1.43c2.32,1.21,3.99,2.98,4.86,5.48
			c1,2.86,0.8,5.81,0.31,8.67c-0.8,4.77-3.02,8.87-6.54,12.24c-1.73,1.66-3.4,3.38-5.09,5.08c-1.19,1.2-1.31,2.15-0.55,3.64
			c3.1,6.07,7.37,11.16,12.8,15.3c17.84,13.63,43.82,11.38,59.07-5.13c16.57-17.94,15.63-45.8-2.11-62.5
			c-18.97-17.86-49.65-15.32-65.42,5.42c-0.93,1.22-1.8,2.48-2.87,3.98c0.12-2,0.21-3.69,0.32-5.51c-0.9,0.96-1.67,1.71-2.35,2.53
			c-0.3,0.36-0.51,0.85-0.62,1.31c-0.51,2.32-0.86,4.69-2.23,6.71C397.74,417.19,397,417.95,396.48,418.59z M238.92,351.06
			c-0.94,1.51-1.78,3-2.76,4.39c-0.69,0.97-0.45,1.67,0.07,2.65c1.79,3.38,3.62,6.77,5.03,10.31c0.98,2.47,1.38,5.19,1.9,7.83
			c0.36,1.8,0.51,3.65,0.74,5.48c0.17,1.35,0.3,2.71,0.45,4.07c0.3-0.79,0.61-1.6,0.81-2.14c0.95-0.53,1.67-0.94,2.55-1.44
			c-0.17,1.74-0.42,3.17-0.42,4.61c0,2.7,0.28,5.41,0.16,8.1c-0.07,1.6-0.44,3.29-1.1,4.75c-1.43,3.16-3.99,5.44-6.63,7.62
			c-0.94,0.77-1.99,1.47-2.72,2.42c-0.86,1.1-1.4,2.43-2.11,3.65c-2.11,3.61-4.65,6.91-7.54,9.93c-0.61,0.63-0.95,1.25-0.62,2.2
			c1.11,3.2,2.07,6.46,3.24,9.64c0.82,2.22,1.91,4.35,2.97,6.73c1.06-1.39,1.97-2.57,2.88-3.75c2.71-3.51,5.45-7,8.12-10.54
			c1.5-2,3.01-4.02,4.27-6.17c1.2-2.05,2.14-4.26,3.12-6.43c0.77-1.71,1.66-3.4,2.12-5.2c0.89-3.47,1.63-7,2.2-10.54
			c0.53-3.35,0.88-6.71,0.09-10.13c-0.55-2.37-0.48-4.86-1.22-7.25c-0.85-2.74-0.95-5.74-2.46-8.27c-0.82-1.37-2.03-2.51-2.9-3.86
			c-2.16-3.35-4.36-6.69-6.29-10.17C241.36,356.87,240.25,353.98,238.92,351.06z M351.32,483.42c0.66-0.32,1.01-0.55,1.38-0.66
			c1.12-0.32,1.43-1.06,1.33-2.16c-0.09-0.99,0.02-2-0.03-3c-0.15-3.58,1.48-6.27,4.24-8.34c0.43-0.32,1.22-0.29,1.8-0.19
			c0.21,0.04,0.4,0.77,0.42,1.19c0.06,0.96-0.06,1.93,0.05,2.87c0.06,0.47,0.39,1.22,0.73,1.3c1.43,0.34,2.91,0.48,4.75,0.75
			c0-1.64-0.07-2.98,0.03-4.3c0.07-0.88,0.24-1.81,0.64-2.58c0.19-0.35,1.04-0.45,1.59-0.46c0.2,0,0.59,0.58,0.6,0.9
			c0.04,1.18,0.54,2.08,1.39,2.87c1.4-0.97,2.75-1.89,2.74-3.85c-0.01-1.02,0.08-2.06,0.26-3.06c0.08-0.44,0.44-1.14,0.73-1.17
			c0.94-0.1,2-0.4,2.72,0.64c0.21,0.31,0.56,0.52,0.9,0.83c4.29-4.28,8.01-8.87,11.21-13.82c-1.6-0.27-3.04-0.52-4.49-0.74
			c-0.57-0.09-1.17-0.21-1.72-0.12c-1.1,0.18-2.17,0.52-3.26,0.73c-0.93,0.17-1.61,0.43-1.73,1.57c-0.06,0.58-0.5,1.17-0.89,1.66
			c-2.54,3.17-8.18,3.55-11.22,0.82c-0.35-0.31-0.98-0.53-1.43-0.47c-1.13,0.16-2.24,0.5-3.37,0.78c-0.11,0.62-0.16,1.22-0.34,1.78
			c-1.47,4.67-6.59,4.67-9.68,2.75c-0.89-0.55-1.8-1.44-2.71-1.47c-1.41-0.04-2.84,0.54-4.3,0.87c0.13,0.39,0.2,0.62,0.29,0.84
			c1.25,2.96-0.55,5.35-3.14,5.8c-3.01,0.52-6.16,0.38-8.42-1.96c-1.54-1.59-2.98-1.51-4.76-1c-1.51,0.43-3.04,0.75-4.62,1.14
			c0.51,0.97,0.92,1.79,1.37,2.58c1.41,2.54-0.65,6.57-4.11,6.32c-4.32-0.31-8.44-1.13-12.16-3.47c-0.27-0.17-0.69-0.11-1.04-0.16
			c0.16,0.32,0.25,0.7,0.49,0.95c1.05,1.1,2.23,2.08,3.19,3.25c0.87,1.04,1.8,1.46,3.17,1.39c2.35-0.12,4.79-0.41,6.8,1.32
			c0.85,0.73,1.75,1.43,2.53,2.24c1.9,1.95,2.62,4.43,2.92,7.04c0.05,0.46-0.15,0.95-0.24,1.43c2.77-2.91,3.6-6.29,2.26-10.19
			c0.24-0.02,0.47-0.04,0.71-0.06c1.1,3.18,2.69,6.17,3.08,9.56c2.35-0.5,4.09-1.86,5.7-3.35c2.73-2.53,5.32-5.21,8.05-7.74
			c1.11-1.03,2.56-1.61,4.09-1.42c0.48,0.06,1.22,0.78,1.24,1.22c0.08,1.65-0.15,3.32-0.14,4.98
			C350.94,481.13,351.17,482.2,351.32,483.42z M203.7,367.24c-0.1-0.05-0.2-0.09-0.29-0.14c-0.53,0.46-1.06,0.92-1.61,1.37
			c-0.81,0.67-1.66,1.3-2.43,2.01c-0.35,0.33-0.58,0.82-0.79,1.27c-0.27,0.59-0.38,1.28-0.72,1.82c-0.52,0.84-1.08,1.6-1.02,2.69
			c0.02,0.44-0.39,0.9-0.59,1.36c-0.19,0.42-0.48,0.83-0.54,1.27c-0.29,2.2-0.89,4.37-0.56,6.64c0.06,0.41-0.64,0.93-0.98,1.39
			c-0.37-0.44-0.99-0.85-1.07-1.34c-0.28-1.82-0.39-3.67-0.57-5.58c-1.11,0.07-2.4-1.17-3.1,0.68c-0.04,0.11-0.28,0.14-0.4,0.24
			c-0.34,0.28-0.78,0.52-0.96,0.88c-0.95,1.89-1.84,3.81-2.73,5.73c-0.27,0.59-0.56,1.2-0.67,1.82c-0.34,1.93-0.65,3.87-0.88,5.81
			c-0.16,1.32-0.43,2.72-0.16,3.98c0.47,2.2,1.28,4.33,2,6.47c0.93,2.77,1.83,5.56,2.89,8.29c0.73,1.9,1.38,3.74,0.55,5.76
			c-0.05,0.13,0.12,0.37,0.22,0.53c0.57,0.88,1.16,1.75,1.85,2.79c0.46-1.49,0.88-2.83,1.35-4.36c2.74,2.54,5.38,4.97,8.02,7.41
			c-0.25-2.66-0.83-5.1-1.19-7.57c-0.36-2.53-0.7-5.08-0.71-7.63c-0.03-7.06,0.12-14.12,0.21-21.18c0-0.16,0.03-0.32,0.06-0.47
			c0.3-1.56,0.62-3.11,0.88-4.67c0.25-1.45,0.36-2.93,0.66-4.37c0.44-2.12,0.99-4.23,1.5-6.33c0.39-1.58,0.79-3.17,1.2-4.74
			C203.29,368.46,203.51,367.86,203.7,367.24z M343.55,265.37c-0.83-1.62-1.42-3.26-2.43-4.57c-0.9-1.16-2.14-2.22-3.46-2.84
			c-2.02-0.95-4.19-1.72-6.38-2.14c-3.29-0.63-6.65-1.34-9.99-0.07c-2.71,1.03-5.05,2.56-6.42,5.2c-1.25,2.42-1.56,5.07-1.65,7.76
			c-0.07,2.07,0.95,3.65,2.3,4.99c2.26,2.25,4.72,4.31,6.96,6.57c1.55,1.56,2.75,3.41,3.25,5.63c0.07,0.29,0.35,0.71,0.58,0.75
			c1.27,0.23,2.56,0.34,3.83,0.53c0.49,0.07,0.97,0.22,1.63,0.37c0.19-0.52,0.58-1.12,0.61-1.74c0.14-2.9,0.18-5.8,0.28-8.7
			c0.02-0.51,0.08-1.02,0.17-1.52c0.42-2.35,2.02-4.01,3.41-5.79c1.11-1.42,2.13-2.97,3.9-3.63
			C341.11,265.79,342.17,265.68,343.55,265.37z M246.85,244.28c-0.48,0.65-0.96,1.25-1.41,1.89c-1.51,2.17-3.17,4.41-2.67,7.19
			c0.44,2.43,1.3,4.81,2.23,7.12c0.8,1.99,1.93,3.86,2.97,5.74c1.25,2.25,2.48,4.52,3.89,6.66c1.41,2.16,3.06,4.16,4.56,6.27
			c2.5,3.49,4.94,7.02,8.07,10c1.52,1.44,3.14,2.78,4.67,4.22c1.41,1.33,1.65,1.4,3.33,0.57c-0.66-1.3-1.32-2.6-1.96-3.91
			c-0.46-0.93-0.85-1.89-1.35-2.8c-2.25-4.04-4.64-8.01-6.78-12.11c-5.02-9.61-9.94-19.28-14.89-28.94
			C247.24,245.62,247.1,244.99,246.85,244.28z M279.22,291.67c0.94-0.37,1.74-0.82,2.6-1c0.87-0.18,1.1-0.67,1.21-1.41
			c0.3-2.01,0.74-4.01,0.91-6.03c0.33-3.98,0.63-7.97,0.71-11.97c0.08-4.02-0.11-8.04-0.22-12.06c-0.03-1.18-0.08-2.38-0.29-3.54
			c-0.57-3.19-1.15-6.38-1.89-9.54c-0.55-2.34-1.1-4.72-2.61-6.71c-2.42-3.21-5.86-4.13-9.77-3.37c2.79,2.6,3.52,6.1,4.25,9.59
			c0.93,4.44,1.43,8.95,2.63,13.37c1.9,7.04,2.09,14.36,2.43,21.62C279.36,284.19,279.22,287.78,279.22,291.67z M381.35,443.42
			c0.08,0.01,0.16,0.03,0.24,0.04c0.4-1.33,0.91-2.65,1.18-4.01c0.18-0.93,0.2-1.95,0-2.87c-0.67-3.21-2.2-4.27-5.33-3.27
			c-2.26,0.72-4.39,1.91-6.47,3.09c-1.1,0.62-1.81,1.73-1.85,3.14c-0.04,1.59-0.2,3.18-0.21,4.77c0,0.88-0.15,1.65-1.06,1.87
			c-1.03,0.25-2.03,0.04-2.41-1.14c-0.42-1.29-0.81-2.59-1.09-3.92c-0.35-1.67-1-2.94-2.63-3.85c-1.6-0.9-3.23-0.52-4.83-0.68
			c-0.6-0.06-1.7,0.44-1.83,0.89c-0.34,1.23-0.89,1.56-2.04,1.18c-0.18-0.06-0.47,0.01-0.63,0.12c-1.31,0.95-2.37,2.09-2.45,3.82
			c-0.15,3.36,1.54,6,3.6,8.38c1.45,1.67,3.15,3.13,4.83,4.57c0.31,0.26,1.09,0.06,1.61-0.07c0.23-0.06,0.54-0.54,0.49-0.76
			c-0.23-0.99-0.42-2.04-0.92-2.91c-0.93-1.62-2.07-3.13-3.12-4.68c-0.8-1.18-1.29-2.4-0.38-3.76c1.04-1.55,3.2-2.59,4.88-2.15
			c1.45,0.39,1.99,1.67,2.18,3.01c0.25,1.81,0.34,3.65,0.49,5.48c0.13,1.64,0.35,3.24,1.36,4.64c3.71-0.87,7.39-1.74,11.07-2.59
			c1.88-0.44,2.02-0.59,1.92-2.5c-0.01-0.2-0.05-0.4-0.11-0.59c-0.68-2.33-1.36-4.65-2.04-6.97c-0.29-0.98-0.54-1.97,0.3-2.8
			c0.86-0.86,2-1.5,3.12-1c0.73,0.33,1.36,1.31,1.64,2.13C381.22,441.08,381.2,442.28,381.35,443.42z M300.25,450.26
			c-0.31,0.21-0.48,0.32-0.64,0.43c-7.03,4.77-14.06,9.54-21.07,14.35c-0.26,0.18-0.45,0.8-0.35,1.1c1.15,3.48,3.52,5.68,7.17,6.2
			c2.16,0.31,4.37,0.23,6.56,0.32c0.61,0.02,1.21,0,2,0c-1.32-2.14-2.13-4.17-2.19-6.67c0.52,0.2,0.91,0.31,1.28,0.49
			c0.86,0.41,1.68,0.92,2.57,1.27c2.92,1.16,2.86,1.07,3.01-1.86c0.08-1.57,0.01-3.15,0.01-4.95c0.72,0.52,1.23,0.89,1.74,1.26
			c0.51,0.38,1,0.8,1.54,1.12c1.6,0.94,2.29,0.57,2.48-1.25C304.84,457.52,302.9,453.82,300.25,450.26z M259.86,473.93
			c9.55,7.04,19.88,11.96,31.31,14.88c0-0.41,0.03-0.6,0-0.79c-0.51-2.86-1.01-5.72-1.6-8.57c-0.07-0.35-0.64-0.76-1.05-0.85
			c-4.84-1.11-8.84-3.25-10.55-8.31c-0.46-1.37-0.82-2.77-1.24-4.2C271.31,468.94,266.15,472.35,259.86,473.93z M428.68,380.94
			c0.77-0.66,1.5-1.15,2.07-1.79c2.43-2.69,4.95-5.32,7.16-8.19c1.39-1.8,2.48-3.89,3.37-6c1.48-3.5,2.71-7.12,4.02-10.69
			c1.09-2.96,1.67-6.04,1.76-9.19c0.14-4.98,0.15-9.96,0.27-14.94c0.03-1.29,0.32-2.57,0.43-3.86c0.14-1.6,0.21-3.2,0.33-5.1
			c-1.34,1.52-2.35,2.97-3.66,4.03c-0.82,0.67-1.2,1.23-1.21,2.25c-0.05,5.78-0.04,11.56-0.28,17.33c-0.09,2.24-0.45,4.58-1.24,6.66
			c-1.11,2.91-1.79,6-3.6,8.68c-1.87,2.77-3.49,5.7-5.95,8.02c-1.76,1.66-3.54,3.28-5.23,4.84
			C427.55,375.82,428.1,378.32,428.68,380.94z M364.46,351.48c0.35-1.1,0.7-2.11,0.98-3.14c0.64-2.34,0.72-4.65-0.63-6.79
			c-0.53-0.84-1.18-1.61-1.82-2.37c-1.97-2.32-3.84-4.69-4.91-7.59c-0.88-2.39-0.48-4.1,1.4-5.82c0.37-0.34,0.75-0.66,1.2-1.05
			c-1.45-0.84-2.82-1.57-4.13-2.4c-0.92-0.58-1.41,0.13-1.92,0.57c-0.31,0.27-0.56,0.8-0.56,1.22c0,1.95,0.16,3.9,0.13,5.85
			c-0.03,1.93-0.73,3.65-1.95,5.17c-3.07,3.82-7.03,6.45-11.38,8.57c-0.35,0.17-0.68,0.37-1.02,0.56c0.04,0.1,0.09,0.2,0.13,0.29
			c0.54-0.06,1.1-0.05,1.62-0.21c2.23-0.68,4.4-1.57,6.66-2.07c2.68-0.59,5.01,0.08,6.04,2.9c0.33,0.9,0.42,1.9,0.69,2.83
			c0.09,0.31,0.35,0.72,0.62,0.81C358.53,349.71,361.47,350.58,364.46,351.48z M352.01,417.94c0.4-0.14,0.8-0.29,1.21-0.42
			c5-1.72,9.98-3.52,15.02-5.13c6.55-2.09,13.19-3.92,19.72-6.06c4.19-1.37,8.4-2.8,11.92-5.65c0.92-0.75,2.01-1.28,3-1.96
			c0.28-0.19,0.65-0.53,0.66-0.82c0.03-0.9-0.08-1.82-0.14-2.72C394.97,395.87,360.74,410.92,352.01,417.94z M223.48,403.88
			c0.25,0.32,0.38,0.63,0.62,0.78c2.72,1.73,5.56,3.22,8.82,3.62c1.29,0.16,2.51-0.71,2.96-1.58c2.14-4.08,3.47-8.42,3.23-13.12
			c-0.24-4.5-1.54-8.5-5.18-11.45c-2.19-1.78-4.61-2.93-7.66-2.84c-0.5,2.36-0.99,4.7-1.51,7.2c0.6-0.21,0.92-0.35,1.26-0.44
			c2.52-0.68,4.86-0.5,6.7,1.6c1.41,1.62,2.32,3.58,2.68,5.65c0.34,2,0.57,4.27-1.49,5.61c-1.15,0.75-2.6,1.04-3.88,1.53
			c0.11,0.21,0.31,0.59,0.65,1.23c-2.53-1.23-4.76-2.3-7.23-3.5c0.21,0.6,0.22,1.21,0.53,1.45c1.99,1.55,4.02,3.06,6.1,4.5
			c0.8,0.55,0.34,0.7-0.17,0.98c0.47,0.25,0.91,0.5,1.37,0.72c0.48,0.24,1.21,0.42,0.8,1.1c-0.16,0.27-1.01,0.36-1.41,0.2
			C228.29,406.12,225.98,405.02,223.48,403.88z M237.69,377.58c0.5,0.38,1,0.56,1.13,0.89c0.71,1.84,1.33,3.72,1.97,5.59
			c0.43,1.26,0.98,2.45,2.11,3.57c0.03-0.53,0.09-0.77,0.04-1c-0.22-1.22-0.51-2.43-0.7-3.66c-0.28-1.78-0.44-3.58-0.74-5.35
			c-0.92-5.53-2.77-10.73-5.51-15.62c-0.55-0.97-1.14-1.91-1.71-2.86c-0.16,0.09-0.21,0.1-0.22,0.13c-2.47,4.61-4.51,9.42-6.11,14.4
			c-0.24,0.74,0.76,2.17,1.63,2.46c0.75-1.8,1.41-2.39,2.76-2.08c0.51,0.12,0.88,0.85,1.25,1.22c0.84-0.23,1.89-0.57,2.97-0.76
			c0.25-0.04,0.78,0.38,0.84,0.66C237.59,376.06,237.62,376.97,237.69,377.58z M413.82,341.51c1.93,3.86,3.89,7.58,5.66,11.38
			c1.77,3.82,3.35,7.73,5.02,11.64c0.64-0.71,1.31-1.43,1.94-2.19c0.12-0.14,0.14-0.41,0.11-0.6c-0.42-3.63-0.88-7.25-1.29-10.88
			c-0.44-3.87-1.61-7.54-3.02-11.14c-0.09-0.24-0.7-0.47-0.99-0.4c-1.55,0.39-3.08,0.87-4.62,1.33
			C415.62,340.96,414.61,341.27,413.82,341.51z M449.46,339.46c-0.12-0.01-0.25-0.03-0.37-0.04c1.14,8.76-1.88,16.65-4.78,24.6
			c-3.03,8.29-9.21,14.05-15.2,19.83c0.12,0.83,0.23,1.58,0.33,2.25c2.08-0.28,4.16-0.53,6.23-0.85c0.3-0.05,0.65-0.33,0.82-0.6
			c1.71-2.78,3.44-5.54,5.06-8.37c1.25-2.18,2.59-4.36,3.5-6.69c1.43-3.7,2.6-7.5,3.74-11.3c0.57-1.9,0.98-3.88,1.14-5.85
			c0.19-2.39,0.11-4.81,0.03-7.21C449.88,343.29,449.63,341.37,449.46,339.46z M389.75,448.45c0.09,0.07,0.19,0.14,0.28,0.21
			c0.34-0.34,0.77-0.63,0.99-1.04c1.49-2.73,2.94-5.48,4.38-8.24c0.65-1.24,0.82-2.55,0.38-3.91c-0.1-0.3-0.01-0.66-0.01-1.29
			c2.87,1.59,2.83,4.89,4.76,6.76c0.54-0.41,0.96-0.88,1.48-1.09c1.66-0.68,1.79-1.89,1.69-3.5c-0.24-3.86-5.22-8.32-9.04-7.21
			c-1.93,0.56-3.52,1.04-3.24,3.62c0.03,0.28,0.07,0.58-0.01,0.83c-0.16,0.47-0.31,0.99-0.63,1.34c-1.35,1.47-2.12,3.04-1.6,5.13
			C389.87,442.81,390.41,445.59,389.75,448.45z M330.56,339.49c5.53-2.89,10.39-6.3,13.79-11.46c1.61-2.45,2.6-5.13,2.66-7.95
			c-5.03,2.51-10.08,5.02-15.01,7.48c0.86,1.51,1.65,2.88,2.44,4.26c-0.09,0.08-0.17,0.16-0.26,0.23c-0.32-0.13-0.64-0.26-0.98-0.4
			c0.06,0.33,0.11,0.65,0.17,0.97c-0.1,0.07-0.19,0.15-0.29,0.22c-0.36-0.36-0.71-0.73-1.13-1.16c0.32,2.02,0.63,3.99,0.97,6.12
			c-1.39-0.26-1.02-1.49-1.41-2.18c-0.45-0.8-0.62-1.75-1-2.93c0,2.26,0,4.22,0,6.17C330.51,339.03,330.53,339.18,330.56,339.49z
			 M322.69,464.03c-0.46-1.01-1.02-1.98-1.34-3.03c-0.18-0.58-0.19-1.44,0.13-1.9c1.65-2.4,4.75-2.39,6.52-0.09
			c0.77,1.01,1.55,2.01,2.41,3.13c-0.54-1.88-1.11-3.56-1.5-5.29c-0.36-1.56-0.43-3.18-0.82-4.73c-0.45-1.75-0.97-2.03-2.76-2.1
			c-0.34-0.01-0.74-0.05-1-0.24c-0.67-0.48-1.29-0.31-1.93,0c-0.74,0.36-1.5,0.69-2.21,1.11c-1.47,0.89-2.76,1.91-2.91,3.84
			c-0.03,0.37-0.52,0.82-0.91,1.04c-2.28,1.32-2.72,2.29-1.14,4.44c0.81,1.1,1.89,2.1,3.06,2.8
			C319.56,463.8,320.91,465.02,322.69,464.03z M347.86,455.32c0.05-0.01,0.1-0.01,0.16-0.02c0-2.05,0.02-4.11-0.01-6.16
			c-0.01-0.58-0.07-1.2-0.26-1.74c-0.95-2.7-2.11-5.05-5.62-4.49c-1.87,0.3-3.75,1.13-5.4,2.11c-0.96,0.57-1.86,1.84-2.07,2.93
			c-0.62,3.19,1.19,5.63,3.16,7.84c1,1.12,2.35,1.92,3.42,2.98c0.68,0.68,1.28,0.99,2.08,0.52c-0.87-2.31-1.81-4.6-2.59-6.93
			c-0.61-1.81,0.26-2.91,2.18-3.06c1.53-0.12,2.53,0.66,3.16,1.91C346.74,452.55,347.27,453.95,347.86,455.32z M334.68,445.27
			c-2.3-0.26-3.74-2.04-5.33-3.33c-0.79,0.95-1.54,1.85-2.28,2.76c-0.1,0.12-0.18,0.28-0.18,0.43c0,1.12-0.02,2.24,0.04,3.35
			c0.02,0.31,0.2,0.73,0.44,0.89c1.55,1.05,1.92,2.63,2.19,4.34c0.33,2.04,0.68,4.09,1.22,6.08c0.5,1.86,1.17,2.16,3.01,1.76
			c0.35-0.08,0.7-0.16,1.05-0.24c1.91-0.45,3.83-0.91,5.95-1.41c-0.32-0.37-0.46-0.59-0.66-0.74c-0.78-0.59-1.71-1.05-2.33-1.77
			c-1.1-1.28-2.07-2.69-3-4.11C333.1,450.67,333.08,448,334.68,445.27z M344.02,441.82c0.78,0.4,1.73,0.61,2.26,1.2
			c1.5,1.7,2.49,3.68,2.47,6.05c-0.03,2.28-0.04,4.55,0.01,6.83c0.02,0.69,0.28,1.37,0.43,2.08c2.81-0.66,5.37-1.26,7.93-1.86
			c0.05-0.12,0.1-0.24,0.14-0.36c-0.3-0.21-0.61-0.4-0.89-0.62c-2.37-1.88-4.36-4.07-5.98-6.66c-1.86-2.98-1.95-6.67,0.02-9.44
			c0.31-0.43,0.76-0.75,1.06-1.04c-2.27-2.21-3.1-5.26-4.66-8.04c-0.14,0.29-0.23,0.39-0.22,0.48c0.32,2.26-0.63,3.97-2.25,5.45
			c-0.29,0.26-0.3,0.9-0.31,1.37C343.99,438.75,344.02,440.24,344.02,441.82z M310.53,311.54c1.05,4.34,1.09,8.54,0.5,12.79
			c-0.67-1.68-0.55-3.54-1.11-5.24c0.02,1.1,0.22,2.2,0.17,3.28c-0.05,0.96,0.46,2.08-0.47,3.09c-0.25-2.13-0.55-4.04-0.68-5.95
			c-0.15-2.15-0.19-4.25-1.4-6.2c-0.96-1.54-0.8-1.64-2.6-1.29c0.11,0.22,0.21,0.43,0.31,0.64c1.72,3.5,3.04,7.17,3.41,11.03
			c0.36,3.76,0.24,7.57,0.27,11.36c0.01,0.86,0.24,1.24,1.1,1.21c0.07-0.13,0.15-0.23,0.18-0.34c1.33-4.8,2.65-9.6,3.99-14.4
			c0.81-2.9,1.29-5.85,1.03-8.87c-0.03-0.39-0.43-1.04-0.71-1.06C313.26,311.48,311.99,311.54,310.53,311.54z M319.94,445.45
			c-3.56,2.65-6.49,5.86-9.03,9.48c-1.14,1.63-1.92,3.16-1.22,5.25c0.27,0.8,0.44,1.39,1.2,1.91c1.04,0.72,1.86,1.76,2.85,2.57
			c0.56,0.46,1.3,1.03,1.93,1c1.23-0.05,2.44-0.49,3.63-0.77c-0.95-0.63-1.9-1.17-2.74-1.85c-0.84-0.69-1.62-1.48-2.32-2.32
			c-1.11-1.31-1.46-3.37-0.53-4.22c1.39-1.28,2.63-2.54,3.53-4.29c1.08-2.1,3.49-2.69,5.64-3.61
			C321.92,447.57,320.98,446.57,319.94,445.45z M365.33,426.18c-0.59,3.34-1.12,6.58-1.76,9.8c-0.12,0.59-0.07,0.91,0.35,1.31
			c1.02,0.99,1.55,2.17,1.65,3.65c0.09,1.46,0.49,2.91,1.54,4.05c0.82-0.25,1.19-0.54,0.93-1.54c-0.62-2.37-0.68-4.82,0.9-6.86
			c0.81-1.04,2.06-1.73,3.12-2.59c-3.51-2.04-3.31-5.97-4.23-9.38C366.91,425.2,366.06,425.72,365.33,426.18z M306.91,335.31
			c0.03-0.26,0.07-0.38,0.05-0.49c-0.95-4.49-1.72-9.02-2.93-13.44c-0.7-2.58-2.03-5.01-3.18-7.46c-0.48-1.01-1.26-1.78-2.58-0.96
			c0.09,0.22,0.2,0.46,0.29,0.71c0.82,2.27,1.82,4.49,2.4,6.81c0.98,3.91,1.19,7.94,1.26,11.97c0.01,0.41,0.18,1.04,0.47,1.17
			C304.04,334.25,305.46,334.74,306.91,335.31z M334.52,287.95c2.23,0.41,4.71,0.86,7.03,1.28c0-4.29,0-8.51,0-13.02
			c-1.96,2.23-3.68,4.26-6.6,4.27C334.81,283.05,334.66,285.56,334.52,287.95z M302.54,491.01c-1.47-4.2-2.81-8.06-4.19-11.9
			c-0.08-0.22-0.51-0.49-0.74-0.47c-1.29,0.15-2.58,0.38-3.83,0.58c0.63,3.35,1.26,6.77,1.92,10.19c0.04,0.21,0.31,0.5,0.51,0.53
			C298.24,490.31,300.27,490.63,302.54,491.01z M375.6,432.22c1.71-0.17,3.71-0.37,5.66-0.56c-0.87-3.79-0.08-7.82-0.48-11.73
			c-1.36-0.38-2.18,0.13-2.69,1.33c-0.12,0.29-0.45,0.49-0.68,0.74c-1.01,1.11-2.06,2.1-1.87,3.91
			C375.77,428.05,375.6,430.23,375.6,432.22z M318.21,491.61c-4.37-6.52-8.63-12.86-12.95-19.3c-0.57,0.79-1.04,1.46-1.38,1.94
			c3.56,5.72,7.05,11.34,10.58,16.93c0.15,0.24,0.58,0.4,0.89,0.42C316.29,491.64,317.25,491.61,318.21,491.61z M300.02,477.62
			c2.58,4.49,5.09,8.87,7.62,13.25c0.14,0.25,0.43,0.56,0.66,0.58c0.93,0.07,1.87,0.03,2.8,0.03c-2.96-5.18-5.91-10.34-8.87-15.53
			C301.43,476.55,300.73,477.08,300.02,477.62z M386.47,348.52c-2.56,3.61-5.71,6.25-9.97,7.74c1.59,0.72,2.87,1.35,4.21,1.87
			c0.4,0.15,1.1,0.15,1.38-0.1c2.11-1.87,4.16-3.81,6.2-5.76c0.18-0.17,0.23-0.7,0.1-0.92C387.84,350.44,387.2,349.59,386.47,348.52
			z M308.21,455.68c0.5-3.78,0.99-7.56,1.54-11.7c-2.95,1.91-5.57,3.61-8.03,5.2C303.9,451.36,305.99,453.46,308.21,455.68z
			 M366.81,352.4c2.05,0.81,4.19,1.67,6.34,2.5c0.19,0.07,0.52,0.07,0.64-0.04c1.41-1.44,2.78-2.92,3.24-4.8
			c-2.65-0.69-5.2-1.35-7.74-2.01C368.52,349.39,367.68,350.87,366.81,352.4z M339.61,484.61c2.36-0.87,4.03-2.81,6.34-3.65
			c0.1,0.1,0.21,0.19,0.31,0.29c-0.73,1.66-1.47,3.32-2.3,5.2c2.11-0.85,3.98-1.59,5.75-2.3c-1.47-2.73-0.28-5.51-0.56-8.39
			C345.04,477.94,342.52,481.49,339.61,484.61z M383.66,344.82c-0.89-1.01-1.76-2.01-2.63-3c-3.42,2.17-7.15,1.94-10.79,1.95
			c-0.31,1.96-0.31,1.95,1.35,2.43C375.78,347.44,379.74,346.75,383.66,344.82z M357.49,424.84c-0.12,0-0.24,0-0.36,0
			c-0.08,0.37-0.12,0.76-0.25,1.12c-0.31,0.82-0.45,1.91-1.05,2.37c-1.32,1.01-1.66,2.09-1.1,3.57c0.03,0.07,0,0.16,0.01,0.24
			c0.12,1.32,0.24,2.63,0.35,3.82c1.82-0.26,3.58-0.5,5.49-0.77C358.49,432.07,358.81,428.21,357.49,424.84z M337.46,235.26
			c-0.07,0.72-0.17,1.17-0.14,1.6c0.14,1.62,0.64,3.28,0.42,4.85c-0.53,3.76-2.35,6.81-5.77,8.77c-1.16,0.67-2.21,1.52-3.54,2.44
			c2.05,0.57,2.5-1.19,3.92-1.77c-0.48,0.83-0.83,1.44-1.27,2.2c0.38,0.02,0.81,0.16,0.94,0.02c1.81-1.96,3.63-3.92,5.33-5.97
			C340.17,244.03,339.47,238.02,337.46,235.26z M341.97,239.2c0.14,0.32,0.29,0.64,0.43,0.97c0.44,1,1.15,1.97,1.28,3.01
			c0.36,2.92-0.6,5.43-2.68,7.61c-1.29,1.36-2.27,3.03-3.38,4.56c0.12,0.17,0.24,0.33,0.36,0.5c0.4-0.15,0.89-0.21,1.19-0.47
			c0.78-0.69,1.54-1.41,2.18-2.22c2.73-3.46,5.56-6.85,3.13-11.79C343.91,240.2,343.16,239.62,341.97,239.2z M396.34,413.28
			c-0.09-0.03-0.18-0.06-0.26-0.1c-1.64,1.12-3.29,2.23-4.93,3.37c-0.18,0.12-0.37,0.33-0.42,0.52c-0.33,1.5-0.63,3.01-0.94,4.52
			c1.23-0.34,2.08-0.86,2.99-1.27c1.04-0.47,1.82-1,2.08-2.28C395.19,416.42,395.84,414.87,396.34,413.28z M337.18,255.11
			c0.64-0.93,1.19-1.75,1.75-2.56c0.59-0.86,1.15-1.73,1.77-2.56c1.71-2.27,2.12-3.88,1.62-6.87c-0.29,3.72-2.23,6.19-5.14,8.04
			c-1.26,0.8-2.47,1.66-3.93,2.64C334.79,254.31,336.01,254.72,337.18,255.11z M299.36,332.29c-0.47-3.5-1.4-6.63-3.2-9.65
			c-0.46,2.72-0.88,5.17-1.32,7.7C296.28,330.96,297.74,331.59,299.36,332.29z M436.06,332.11c-1.13,0.73-2.15,1.39-2.86,1.84
			c0.69,4.01,1.33,7.72,1.95,11.38C436.42,341.08,435.98,336.66,436.06,332.11z M337,443.61c1.2-0.49,2.58-1.05,3.92-1.59
			c-1.2-2.33-2.38-4.62-3.4-6.61c-0.47,1.15-1.01,2.45-1.53,3.75c-0.07,0.18-0.09,0.42-0.04,0.61
			C336.28,441.05,336.64,442.32,337,443.61z M323.99,332.85c-0.07-0.06-0.14-0.12-0.21-0.18c-1.22,0.9-2.46,1.77-3.64,2.72
			c-1.17,0.95-2.26,1.98-3.46,3.05c1.66,0.51,3.24,1,4.69,1.44C322.27,337.48,323.13,335.17,323.99,332.85z M333,324.39
			c5.8-2.15,11.85-5.39,12.89-6.9c-0.6-0.23-1.18-0.5-1.78-0.66c-0.3-0.08-0.74-0.09-0.97,0.08
			C339.82,319.32,336.53,321.78,333,324.39z M384.59,360.01c0.36,0.21,0.83,0.44,1.24,0.74c0.56,0.41,0.96,0.34,1.4-0.2
			c1.13-1.39,2.32-2.72,3.44-4.11c0.21-0.26,0.37-0.78,0.25-1.03c-0.33-0.72-0.82-1.37-1.23-2.01
			C387.95,355.67,386.28,357.83,384.59,360.01z M375.87,336.67c-1.67,2.33-4.1,2.35-6.98,1.73c0.71,0.93,1.15,2.09,1.72,2.16
			c2.75,0.37,5.52,0.33,7.94-1.24C377.67,338.45,376.8,337.59,375.87,336.67z M346.02,244.33c0.9-0.35,1.64-0.44,2.08-0.85
			c1.76-1.63,3.42-3.36,5.01-4.95c-0.8-0.21-1.92-0.89-2.79-0.65c-1.66,0.45-3.16,1.42-4.28,2.86
			C345.15,241.89,346.3,242.84,346.02,244.33z M356.85,241c-1.21,0.13-2.25,0.16-3.24,0.37c-1.7,0.35-3.38,0.78-4.17,2.63
			c-0.08,0.19-0.3,0.38-0.5,0.44c-0.87,0.29-1.77,0.51-2.64,0.8c-0.11,0.04-0.14,0.31-0.21,0.48c2.28,0.64,2.54,0.49,4.49-0.95
			c0.87-0.64,2-1.03,3.07-1.24C355.11,243.24,356.24,242.71,356.85,241z M352.26,246.99c-0.07-0.06-0.14-0.12-0.21-0.18
			c-0.19,0.26-0.33,0.59-0.58,0.76c-1.57,1.12-2.92,2.67-5.15,2.42c-0.82-0.09-2.39,1.01-2.18,1.51c0.41,0.99,0.88,2.22,1.71,2.71
			c1.31,0.79,2.01,0.26,2.77-1.1C349.78,251.05,351.04,249.03,352.26,246.99z M331.62,313.5c-2.09-0.83-2.12-0.81-2.95,0.8
			c-0.36,0.7-0.71,1.4-1.12,2.06c-1.64,2.69-3.29,5.37-4.94,8.05c0.08,0.06,0.17,0.13,0.25,0.19
			C325.77,320.92,328.67,317.24,331.62,313.5z M351.3,237.1c1.7,0.65,3.21,0.91,4.74-0.28c1.03-0.8,2.25-1.35,3.38-2.02
			c0.54-0.32,1.07-0.67,1.6-1.01C357.47,234.04,353.66,233.46,351.3,237.1z M224.55,415.2c1.62-0.01,5.05-2,5.87-3.25
			c-1.99-0.11-4.12-0.23-6.32-0.35C224.24,412.71,224.39,413.93,224.55,415.2z M326.55,341.31c0.11,0.05,0.22,0.11,0.33,0.16
			c0.59-0.31,1.21-0.57,1.76-0.94c0.29-0.19,0.64-0.57,0.63-0.86c-0.07-2.47-0.21-4.93-0.33-7.4c-0.13,0-0.26,0-0.38-0.01
			C327.89,335.28,327.22,338.3,326.55,341.31z M257.1,413.99c-1.42,3.9-2.84,7.79-4.3,11.79c1.3-0.88,2.51-1.7,3.7-2.51
			c-0.27-0.38-0.56-0.8-0.87-1.2c-0.73-0.92-0.66-1.96-0.15-2.85c0.46-0.8,1.21-1.45,1.85-2.14c1.42-1.54,1.38-1.43-0.03-2.94
			C257.22,414.05,257.11,414,257.1,413.99z M323.72,485.96c0.25-3.19-3.32-6.21-6.41-5.54C319.39,482.3,321.11,484.6,323.72,485.96z
			 M360.9,237.25c-3.35,0.03-5.98,1.11-8.09,3.13c1.56,0,3.19,0.01,4.83-0.01c0.16,0,0.34-0.14,0.46-0.26
			C358.96,239.24,359.82,238.35,360.9,237.25z M313.93,466.14c-1.53-1.3-2.82-2.39-4.05-3.44c-0.53,1.61-1.03,3.1-1.57,4.74
			C310.14,467.01,311.89,466.61,313.93,466.14z M231.95,409.36c-3.11-0.25-5.63-1.42-8.39-2.81c0.21,0.98,0.12,2.12,0.56,2.37
			C226.52,410.34,229.09,410.51,231.95,409.36z M292.97,329.49c0.13,0.01,0.26,0.01,0.39,0.02c0.08-0.94,0.14-1.88,0.23-2.82
			c0.22-2.27,0.49-4.53,0.68-6.8c0.09-1.05-0.73-1.65-1.29-2.52C292.97,321.56,292.97,325.53,292.97,329.49z M249.63,347.39
			c0.13,0,0.26,0,0.38,0.01c-0.61-2.49-1.22-4.97-1.85-7.49c-1.21,0.58-1.31,1.27-0.98,2.32c0.65,2.08,1.11,4.21,1.61,6.12
			C249.03,348.07,249.33,347.73,249.63,347.39z M367.08,229.9c-3.57,0.23-9.93,1.28-10.75,3.05
			C358.35,233.67,365.74,231.57,367.08,229.9z M290.59,328.29c0.09,0.01,0.17,0.03,0.26,0.04c0.1-0.37,0.3-0.74,0.3-1.12
			c0.02-2.96,0.09-5.93-0.03-8.88c-0.05-1.14,0.05-2.53-1.1-3.13C290.21,319.52,290.4,323.91,290.59,328.29z M395.31,363.47
			c-0.78,0.88-1.39,1.59-2.05,2.34c1.5,1.4,2.93,2.74,4.37,4.08c0.09-0.05,0.19-0.09,0.28-0.14
			C397.07,367.73,396.24,365.72,395.31,363.47z M344.42,261.57c0.88-2.3-0.06-6.11-1.71-7.35c0.1,1.75,0.21,3.6,0.32,5.5
			C343.43,260.24,343.93,260.9,344.42,261.57z M391.77,364.72c0.57-0.8,1-1.58,1.59-2.21c0.95-1.04,0.76-1.96-0.11-2.92
			c-1.02,1.31-2.04,2.61-3.08,3.94C390.71,363.93,391.19,364.29,391.77,364.72z M226.11,388.68c2.91-0.37,4.51,1.76,6.72,3.44
			c-0.89-2.26-2.21-3.65-4.05-4.56c-0.14-0.07-0.37-0.02-0.52,0.05C227.53,387.94,226.82,388.31,226.11,388.68z M280.14,317.59
			c-0.24,0.5-0.47,0.76-0.41,0.9c0.93,2.14,1.8,4.33,3.75,5.78c0.11-0.07,0.22-0.13,0.32-0.2
			C282.63,322,281.46,319.93,280.14,317.59z M358.15,236.2c2.47,0.89,4.49,0.19,6.35-2.19C362.25,234.78,360.33,235.44,358.15,236.2
			z M368.89,230.97c-2.39,0.44-4.54,1.05-6.43,2.64C364.95,233.52,367.07,232.84,368.89,230.97z M314.76,336.94
			c2.9-2.55,5.55-4.89,8.2-7.22C320.19,331.92,316.6,333.18,314.76,336.94z M289.04,324.76c-0.09-1.65-0.15-3.34-0.29-5.03
			c-0.1-1.24-0.28-2.48-0.49-3.71c-0.04-0.26-0.37-0.47-0.57-0.71c-0.12,0.29-0.38,0.61-0.34,0.88
			C287.9,319.06,288.48,321.92,289.04,324.76z M325.93,334.61c-0.06-0.02-0.12-0.04-0.18-0.06c-0.75,1.96-1.51,3.92-2.28,5.94
			c0.6,0.18,1,0.29,1.33,0.39C325.19,338.73,325.56,336.67,325.93,334.61z M229.25,417.8c-0.18-0.16-0.36-0.33-0.54-0.49
			c-0.23,0.41-0.41,0.87-0.71,1.23c-0.3,0.35-0.71,0.61-1.1,0.88c-1.55,1.07-1.56,1.07-0.83,2.99
			C227.16,420.83,228.2,419.31,229.25,417.8z M346.05,248.19c-0.16,0.89,0.29,1.28,1.23,0.95c2.12-0.76,3.78-2.16,5.18-3.91
			C350.31,246.17,348.93,248.81,346.05,248.19z M280.4,322.02c-0.87-1.2-1.58-2.19-2.35-3.24c-0.55,0.24-1.07,0.48-1.77,0.79
			C277.72,320.42,278.95,321.16,280.4,322.02z M327.42,312.61c-0.52-0.09-0.93-0.16-1.4-0.24c-0.26,1.28-0.49,2.47-0.73,3.66
			c0.07,0.03,0.15,0.05,0.22,0.08C326.12,314.98,326.73,313.86,327.42,312.61z M340.56,257.6c0.39-1.09,0.72-2.02,1.05-2.95
			c-0.11-0.06-0.21-0.13-0.32-0.19c-0.65,0.67-1.3,1.35-1.96,2.04C339.7,256.83,340,257.1,340.56,257.6z M331.79,316.8
			c0.07,0.06,0.15,0.13,0.22,0.19c0.76-0.86,1.52-1.71,2.25-2.58c0.07-0.08-0.08-0.33-0.12-0.5c-0.18,0.08-0.43,0.12-0.53,0.26
			C332.98,315.03,332.39,315.91,331.79,316.8z M337.95,318.03c1.07-0.81,1.96-1.48,2.93-2.21
			C339.83,315.49,338.53,316.47,337.95,318.03z M337.38,314.87c-0.1-0.09-0.2-0.18-0.29-0.27c-1.03,0.76-1.56,1.98-2.42,2.89
			c0.08,0.07,0.15,0.14,0.23,0.21C335.72,316.75,336.55,315.81,337.38,314.87z"/>
		<path class="st0" d="M341.75,237.03c-0.11,0.23-0.21,0.46-0.37,0.8c-0.55-0.79-1.07-1.54-1.7-2.44c0.68,0,1.19,0,1.72,0
			c0.12,0.36,0.24,0.74,0.37,1.12C341.76,236.69,341.76,236.86,341.75,237.03z"/>
		<path class="st0" d="M445.63,282.16c-0.01,24.47-19.78,44.2-44.28,44.18c-24.48-0.02-44.21-19.78-44.2-44.27
			c0.01-24.47,19.79-44.21,44.28-44.18C425.92,237.91,445.64,257.67,445.63,282.16z"/>
		<path class="st0" d="M396.48,418.59c0.52-0.63,1.26-1.4,1.85-2.26c1.37-2.01,1.72-4.39,2.23-6.71c0.1-0.46,0.32-0.95,0.62-1.31
			c0.68-0.82,1.45-1.57,2.35-2.53c-0.1,1.82-0.2,3.51-0.32,5.51c1.08-1.5,1.95-2.76,2.87-3.98c15.77-20.74,46.45-23.27,65.42-5.42
			c17.74,16.7,18.68,44.56,2.11,62.5c-15.25,16.52-41.22,18.76-59.07,5.13c-5.43-4.14-9.7-9.23-12.8-15.3
			c-0.76-1.49-0.63-2.44,0.55-3.64c1.69-1.7,3.36-3.42,5.09-5.08c3.52-3.37,5.74-7.47,6.54-12.24c0.48-2.87,0.68-5.81-0.31-8.67
			c-0.87-2.5-2.55-4.27-4.86-5.48c-2.18-1.14-4.47-1.77-6.94-1.43C399.97,417.92,398.15,418.29,396.48,418.59z"/>
		<path class="st0" d="M258.41,382.5c-0.36-0.72-0.83-1.4-1.04-2.16c-0.8-2.8-1.54-5.63-2.27-8.45c-0.64-2.48-1.22-4.97-1.66-7.51
			c1.05,3.24,2.11,6.47,3.16,9.71c0.19-0.05,0.37-0.11,0.56-0.16c-0.26-1.14-0.52-2.28-0.77-3.43c-0.49-2.25-0.91-4.51-1.46-6.75
			c-0.28-1.13-0.63-2.27-1.18-3.28c-0.95-1.73-1.06-3.58-1.21-5.46c-0.09-1.05-0.29-2.09-0.47-3.13c-0.55-3-1.06-6.01-1.7-8.99
			c-0.23-1.06-0.84-2.04-1.19-3.08c-0.12-0.36-0.16-0.92,0.04-1.17c0.64-0.79,1.42-1.48,2.3-2.36c0.14,4.85,2.38,8.77,4.62,12.59
			c3.8,6.48,6.09,13.48,8.11,20.65c2.57,9.13,4.36,18.41,5.52,27.81c1.64,13.26,0.11,26.19-4.29,38.82
			c-2.06,5.92-4.01,11.84-7.14,17.34c-1.92,3.38-3.18,7.13-4.83,10.67c-0.47,1-1.27,1.85-2.11,3.03c-3.15-3.63-6.1-7.06-9.08-10.46
			c-0.55-0.62-0.53-1.09-0.13-1.77c1.14-1.99,2.5-3.88,2.97-6.19c0.18-0.87,0.46-1.72,0.77-2.88c-0.45,0.19-0.84,0.23-0.96,0.42
			c-0.94,1.63-1.83,3.3-2.75,4.95c-0.07,0.13-0.18,0.36-0.27,0.36c-1.04,0.03-1.07,0.78-1.19,1.54c-0.03,0.2-0.36,0.36-0.57,0.55
			c-0.82-0.67-0.92-1.25-0.27-2.26c1.79-2.8,3.28-5.79,5.1-8.57c2.41-3.68,3.49-7.9,5.15-11.88c0.62-1.48,1.47-2.87,2.1-4.07
			c0.7,0.89,1.43,1.82,2.23,2.85c-0.9,0.52-1.79,1.12-2.75,1.56c-1.02,0.47-1.51,1.14-1.32,2.26c1.36,0.6,2.34-0.34,3.4-0.82
			c0.84-0.38,1.58-0.97,2.39-1.44c1.05-0.61,1.25-1.82,0.43-2.72c-0.24-0.26-0.49-0.53-0.73-0.79c-0.22-0.25-0.44-0.51-0.81-0.95
			c0.86-0.57,1.7-1.27,2.66-1.74c1.78-0.87,1.47-1.94,0.68-3.11c-0.35-0.51-0.76-0.98-1.18-1.51c1.14-1.23,2.35-2.32,3.26-3.62
			c0.37-0.53,0.15-1.5,0.11-2.26c-0.01-0.21-0.35-0.41-0.56-0.6c-1.25-1.17-1.38-2.42-0.88-4.1c0.79-2.69,0.98-5.56,1.81-8.23
			c0.84-2.71,0.99-5.44,0.85-8.19c-0.16-3.1-0.6-6.18-0.93-9.27c-0.02-0.18-0.1-0.43-0.24-0.51c-0.99-0.58-0.86-1.66-1.2-2.53
			c-0.14-0.35-0.43-0.64-0.65-0.95c-0.18,0.36-0.44,0.7-0.51,1.08C258.25,381.7,258.37,382.11,258.41,382.5
			C258.41,382.51,258.41,382.5,258.41,382.5z"/>
		<path class="st0" d="M238.92,351.06c1.33,2.92,2.45,5.81,3.93,8.49c1.93,3.48,4.13,6.82,6.29,10.17c0.87,1.35,2.08,2.48,2.9,3.86
			c1.5,2.53,1.61,5.52,2.46,8.27c0.74,2.39,0.67,4.88,1.22,7.25c0.8,3.43,0.45,6.78-0.09,10.13c-0.57,3.54-1.31,7.06-2.2,10.54
			c-0.46,1.8-1.34,3.5-2.12,5.2c-0.98,2.17-1.92,4.38-3.12,6.43c-1.27,2.15-2.77,4.17-4.27,6.17c-2.66,3.54-5.41,7.03-8.12,10.54
			c-0.91,1.18-1.81,2.37-2.88,3.75c-1.06-2.38-2.14-4.5-2.97-6.73c-1.18-3.18-2.13-6.44-3.24-9.64c-0.33-0.95,0.02-1.57,0.62-2.2
			c2.89-3.02,5.43-6.32,7.54-9.93c0.71-1.21,1.26-2.55,2.11-3.65c0.73-0.94,1.78-1.64,2.72-2.42c2.63-2.17,5.2-4.45,6.63-7.62
			c0.66-1.46,1.03-3.15,1.1-4.75c0.12-2.69-0.17-5.4-0.16-8.1c0-1.44,0.25-2.87,0.42-4.61c-0.88,0.5-1.6,0.91-2.55,1.44
			c-0.2,0.54-0.51,1.35-0.81,2.14c-0.15-1.37-0.28-2.72-0.45-4.07c-0.22-1.83-0.38-3.67-0.74-5.48c-0.53-2.63-0.92-5.35-1.9-7.83
			c-1.41-3.54-3.25-6.93-5.03-10.31c-0.52-0.98-0.76-1.67-0.07-2.65C237.14,354.06,237.98,352.57,238.92,351.06z"/>
		<path class="st0" d="M351.32,483.42c-0.15-1.22-0.38-2.29-0.39-3.37c-0.01-1.66,0.22-3.33,0.14-4.98
			c-0.02-0.45-0.77-1.17-1.24-1.22c-1.54-0.18-2.98,0.4-4.09,1.42c-2.73,2.53-5.32,5.21-8.05,7.74c-1.61,1.49-3.35,2.85-5.7,3.35
			c-0.4-3.39-1.98-6.38-3.08-9.56c-0.24,0.02-0.47,0.04-0.71,0.06c1.34,3.91,0.5,7.28-2.26,10.19c0.09-0.48,0.29-0.97,0.24-1.43
			c-0.3-2.62-1.02-5.09-2.92-7.04c-0.78-0.8-1.68-1.5-2.53-2.24c-2.01-1.73-4.45-1.43-6.8-1.32c-1.37,0.07-2.3-0.35-3.17-1.39
			c-0.97-1.16-2.14-2.15-3.19-3.25c-0.24-0.25-0.33-0.63-0.49-0.95c0.35,0.05,0.76-0.01,1.04,0.16c3.72,2.34,7.84,3.16,12.16,3.47
			c3.46,0.25,5.52-3.78,4.11-6.32c-0.44-0.8-0.86-1.62-1.37-2.58c1.59-0.39,3.12-0.71,4.62-1.14c1.78-0.51,3.22-0.59,4.76,1
			c2.26,2.34,5.41,2.49,8.42,1.96c2.58-0.45,4.39-2.83,3.14-5.8c-0.09-0.22-0.15-0.45-0.29-0.84c1.46-0.33,2.89-0.9,4.3-0.87
			c0.92,0.02,1.83,0.92,2.71,1.47c3.09,1.92,8.21,1.92,9.68-2.75c0.18-0.56,0.23-1.17,0.34-1.78c1.14-0.28,2.24-0.62,3.37-0.78
			c0.45-0.06,1.08,0.16,1.43,0.47c3.04,2.72,8.68,2.35,11.22-0.82c0.39-0.49,0.83-1.08,0.89-1.66c0.13-1.14,0.81-1.4,1.73-1.57
			c1.09-0.2,2.16-0.55,3.26-0.73c0.56-0.09,1.15,0.03,1.72,0.12c1.45,0.22,2.9,0.48,4.49,0.74c-3.2,4.95-6.92,9.54-11.21,13.82
			c-0.35-0.31-0.69-0.53-0.9-0.83c-0.72-1.04-1.79-0.75-2.72-0.64c-0.29,0.03-0.66,0.73-0.73,1.17c-0.17,1.01-0.26,2.04-0.26,3.06
			c0.01,1.95-1.33,2.87-2.74,3.85c-0.84-0.79-1.35-1.69-1.39-2.87c-0.01-0.32-0.39-0.91-0.6-0.9c-0.55,0.01-1.4,0.11-1.59,0.46
			c-0.4,0.76-0.57,1.7-0.64,2.58c-0.1,1.32-0.03,2.66-0.03,4.3c-1.84-0.27-3.32-0.41-4.75-0.75c-0.34-0.08-0.68-0.83-0.73-1.3
			c-0.11-0.95,0.01-1.92-0.05-2.87c-0.03-0.43-0.21-1.15-0.42-1.19c-0.58-0.11-1.38-0.13-1.8,0.19c-2.75,2.07-4.39,4.76-4.24,8.34
			c0.04,1-0.07,2.01,0.03,3c0.1,1.1-0.21,1.84-1.33,2.16C352.32,482.87,351.98,483.1,351.32,483.42z M338.39,478.34
			c0.01,0.04,0.02,0.08,0.02,0.12c0.69-0.14,1.48-0.1,2.04-0.44c2.51-1.5,2.78-5.81,0.16-7.35c-0.9-0.53-1.79-1.08-2.71-1.58
			c-0.74-0.4-2.62-0.1-3.01,0.46c-0.53,0.77-1.06,1.55-1.51,2.37c-0.24,0.43-0.44,0.94-0.46,1.42c-0.13,2.37,2.05,4.81,4.4,4.99
			C337.67,478.36,338.03,478.34,338.39,478.34z M348.43,466.21c0.74,0.76,1.3,1.25,1.76,1.83c0.31,0.4,0.69,0.95,0.64,1.39
			c-0.06,0.51-0.46,1.06-0.87,1.43c-0.38,0.34-0.95,0.47-1.44,0.69c0.55,0.22,1.08,0.5,1.64,0.65c0.45,0.12,0.94,0.14,1.41,0.13
			c0.19,0,0.4-0.15,0.55-0.3c0.56-0.56,1.1-1.15,1.66-1.72c0.99-1,1.16-2.18,0.84-3.5c-0.42-1.71-3.33-3.48-5.75-2.15
			c-0.86,0.47-1.61,1.02-1.86,2.42C347.77,466.61,348.24,466.32,348.43,466.21z M361.75,466.16c0.04-0.1,0.08-0.19,0.12-0.29
			c0.48,0,1.05,0.17,1.42-0.04c0.71-0.39,1.61-0.87,1.87-1.54c0.3-0.76,0.49-1.8-0.57-2.54c-1.17-0.81-2.42-0.88-3.74-0.94
			c-1.04-0.05-1.9,0.27-2.44,1.12c-0.46,0.72-0.04,2.61,0.76,3.14C359.92,465.58,360.88,465.81,361.75,466.16z M349.14,468.97
			c0-0.44,0-0.77,0-1.1c-0.49,0-0.9,0-1.39,0c0.04,0.42,0.08,0.76,0.11,1.1C348.32,468.97,348.67,468.97,349.14,468.97z"/>
		<path class="st0" d="M203.7,367.24c-0.19,0.61-0.41,1.22-0.58,1.84c-0.41,1.58-0.81,3.16-1.2,4.74c-0.51,2.11-1.06,4.21-1.5,6.33
			c-0.3,1.44-0.42,2.92-0.66,4.37c-0.27,1.56-0.59,3.11-0.88,4.67c-0.03,0.16-0.06,0.31-0.06,0.47c-0.08,7.06-0.23,14.12-0.21,21.18
			c0.01,2.54,0.35,5.1,0.71,7.63c0.36,2.48,0.94,4.92,1.19,7.57c-2.64-2.44-5.27-4.87-8.02-7.41c-0.47,1.53-0.89,2.88-1.35,4.36
			c-0.69-1.04-1.28-1.91-1.85-2.79c-0.11-0.16-0.27-0.41-0.22-0.53c0.83-2.02,0.19-3.86-0.55-5.76c-1.05-2.73-1.96-5.51-2.89-8.29
			c-0.72-2.14-1.54-4.27-2-6.47c-0.27-1.26,0.01-2.66,0.16-3.98c0.23-1.94,0.54-3.88,0.88-5.81c0.11-0.63,0.4-1.24,0.67-1.82
			c0.89-1.92,1.78-3.84,2.73-5.73c0.18-0.36,0.63-0.6,0.96-0.88c0.12-0.1,0.36-0.12,0.4-0.24c0.69-1.85,1.99-0.61,3.1-0.68
			c0.18,1.91,0.28,3.76,0.57,5.58c0.08,0.49,0.7,0.89,1.07,1.34c0.35-0.47,1.04-0.99,0.98-1.39c-0.33-2.27,0.27-4.44,0.56-6.64
			c0.06-0.44,0.35-0.85,0.54-1.27c0.21-0.45,0.62-0.92,0.59-1.36c-0.06-1.09,0.49-1.85,1.02-2.69c0.34-0.55,0.45-1.23,0.72-1.82
			c0.21-0.45,0.44-0.94,0.79-1.27c0.77-0.72,1.62-1.34,2.43-2.01c0.54-0.45,1.07-0.91,1.61-1.37
			C203.51,367.15,203.61,367.2,203.7,367.24z M190.43,401.05c0.21-0.71,0.45-1.14,0.44-1.57c-0.04-1.98-0.13-3.97-0.23-5.95
			c-0.01-0.25-0.16-0.68-0.29-0.7c-0.83-0.14-0.64-0.75-0.65-1.27c-0.01-0.56,0.03-1.12-0.01-1.68c-0.15-1.82-0.87-2.4-2.54-2.08
			c-0.13,0.89-0.26,1.78-0.39,2.65c-0.34,0.08-0.62,0.14-0.66,0.15c0,0.71-0.01,1.26,0,1.81c0.09,2.91-0.44,5.89,0.95,8.64
			c0.32,0.64,0.89,1.17,1.2,1.82c0.51,1.04,0.9,2.14,1.33,3.21c1.83,0.12,2.04-0.02,1.76-1.8
			C191.15,403.06,190.68,401.89,190.43,401.05z"/>
		<path class="st0" d="M343.55,265.37c-1.38,0.31-2.44,0.43-3.4,0.79c-1.77,0.66-2.79,2.21-3.9,3.63c-1.39,1.78-3,3.44-3.41,5.79
			c-0.09,0.5-0.15,1.01-0.17,1.52c-0.09,2.9-0.13,5.8-0.28,8.7c-0.03,0.62-0.42,1.22-0.61,1.74c-0.66-0.15-1.14-0.3-1.63-0.37
			c-1.28-0.18-2.56-0.3-3.83-0.53c-0.24-0.04-0.52-0.46-0.58-0.75c-0.5-2.22-1.7-4.07-3.25-5.63c-2.25-2.27-4.7-4.32-6.96-6.57
			c-1.35-1.34-2.36-2.93-2.3-4.99c0.09-2.69,0.4-5.34,1.65-7.76c1.36-2.64,3.71-4.17,6.42-5.2c3.33-1.27,6.69-0.56,9.99,0.07
			c2.19,0.42,4.36,1.19,6.38,2.14c1.32,0.62,2.56,1.68,3.46,2.84C342.13,262.11,342.72,263.75,343.55,265.37z M325.28,256.37
			c0,0.03,0,0.05-0.01,0.08c-0.56,0-1.12,0-1.68,0c-3.23,0-5.29,1.56-5.96,4.69c-0.2,0.92-0.19,1.92-0.05,2.85
			c0.24,1.6,0.5,3.22,2.02,4.27c2.1,1.46,4.46,1.15,6.61,0.64c1.75-0.41,3.26-1.75,4.92-2.58c1.41-0.71,2.84-1.36,3.68-2.8
			c1.2-2.04,1.08-4.18-0.93-5.35c-1.24-0.72-2.7-1.16-4.12-1.45C328.3,256.44,326.77,256.48,325.28,256.37z"/>
		<path class="st0" d="M246.85,244.28c0.25,0.71,0.39,1.34,0.67,1.9c4.94,9.65,9.86,19.32,14.89,28.94
			c2.14,4.1,4.53,8.07,6.78,12.11c0.5,0.9,0.89,1.87,1.35,2.8c0.65,1.31,1.31,2.61,1.96,3.91c-1.67,0.84-1.92,0.77-3.33-0.57
			c-1.52-1.44-3.15-2.77-4.67-4.22c-3.13-2.97-5.57-6.51-8.07-10c-1.5-2.1-3.15-4.11-4.56-6.27c-1.41-2.15-2.64-4.42-3.89-6.66
			c-1.05-1.88-2.17-3.75-2.97-5.74c-0.93-2.3-1.79-4.69-2.23-7.12c-0.5-2.78,1.16-5.02,2.67-7.19
			C245.89,245.53,246.37,244.92,246.85,244.28z"/>
		<path class="st0" d="M279.22,291.67c0-3.89,0.14-7.48-0.03-11.06c-0.34-7.26-0.52-14.57-2.43-21.62
			c-1.19-4.42-1.7-8.92-2.63-13.37c-0.73-3.49-1.46-6.99-4.25-9.59c3.91-0.76,7.35,0.16,9.77,3.37c1.5,2,2.06,4.37,2.61,6.71
			c0.74,3.15,1.32,6.35,1.89,9.54c0.21,1.16,0.26,2.36,0.29,3.54c0.11,4.02,0.3,8.04,0.22,12.06c-0.08,3.99-0.38,7.98-0.71,11.97
			c-0.17,2.02-0.61,4.02-0.91,6.03c-0.11,0.74-0.35,1.23-1.21,1.41C280.96,290.85,280.16,291.3,279.22,291.67z"/>
		<path class="st0" d="M381.35,443.42c-0.14-1.14-0.12-2.34-0.49-3.41c-0.28-0.82-0.91-1.81-1.64-2.13c-1.11-0.5-2.26,0.14-3.12,1
			c-0.84,0.83-0.58,1.83-0.3,2.8c0.68,2.33,1.36,4.65,2.04,6.97c0.06,0.19,0.1,0.39,0.11,0.59c0.1,1.91-0.04,2.06-1.92,2.5
			c-3.68,0.85-7.36,1.72-11.07,2.59c-1.02-1.39-1.23-3-1.36-4.64c-0.14-1.83-0.24-3.66-0.49-5.48c-0.18-1.34-0.72-2.63-2.18-3.01
			c-1.68-0.44-3.84,0.6-4.88,2.15c-0.91,1.36-0.42,2.57,0.38,3.76c1.05,1.55,2.19,3.06,3.12,4.68c0.5,0.86,0.69,1.92,0.92,2.91
			c0.05,0.22-0.27,0.7-0.49,0.76c-0.52,0.14-1.3,0.33-1.61,0.07c-1.68-1.44-3.39-2.9-4.83-4.57c-2.06-2.38-3.76-5.01-3.6-8.38
			c0.08-1.73,1.14-2.87,2.45-3.82c0.16-0.12,0.45-0.18,0.63-0.12c1.15,0.38,1.7,0.05,2.04-1.18c0.13-0.45,1.23-0.95,1.83-0.89
			c1.6,0.17,3.23-0.22,4.83,0.68c1.63,0.92,2.28,2.18,2.63,3.85c0.28,1.32,0.67,2.63,1.09,3.92c0.38,1.18,1.38,1.39,2.41,1.14
			c0.91-0.22,1.06-0.99,1.06-1.87c0-1.59,0.16-3.18,0.21-4.77c0.04-1.41,0.76-2.51,1.85-3.14c2.08-1.18,4.21-2.37,6.47-3.09
			c3.13-0.99,4.65,0.07,5.33,3.27c0.19,0.92,0.18,1.95,0,2.87c-0.27,1.36-0.77,2.67-1.18,4.01
			C381.51,443.44,381.43,443.43,381.35,443.42z"/>
		<path class="st0" d="M300.25,450.26c2.65,3.56,4.59,7.26,4.11,11.82c-0.19,1.81-0.88,2.18-2.48,1.25
			c-0.55-0.32-1.03-0.75-1.54-1.12c-0.5-0.37-1.01-0.73-1.74-1.26c0,1.81,0.07,3.38-0.01,4.95c-0.15,2.93-0.09,3.02-3.01,1.86
			c-0.88-0.35-1.71-0.86-2.57-1.27c-0.37-0.18-0.76-0.29-1.28-0.49c0.06,2.5,0.87,4.53,2.19,6.67c-0.78,0-1.39,0.02-2,0
			c-2.19-0.09-4.4-0.01-6.56-0.32c-3.64-0.52-6.02-2.72-7.17-6.2c-0.1-0.31,0.09-0.93,0.35-1.1c7.01-4.81,14.04-9.58,21.07-14.35
			C299.77,450.58,299.94,450.47,300.25,450.26z"/>
		<path class="st0" d="M259.86,473.93c6.29-1.57,11.46-4.99,16.88-7.84c0.42,1.43,0.77,2.84,1.24,4.2c1.71,5.05,5.71,7.2,10.55,8.31
			c0.41,0.09,0.98,0.5,1.05,0.85c0.59,2.84,1.08,5.71,1.6,8.57c0.03,0.19,0,0.39,0,0.79C279.73,485.89,269.41,480.97,259.86,473.93z
			"/>
		<path class="st0" d="M428.68,380.94c-0.58-2.62-1.13-5.12-1.75-7.93c1.68-1.56,3.47-3.18,5.23-4.84c2.46-2.32,4.08-5.25,5.95-8.02
			c1.81-2.68,2.49-5.77,3.6-8.68c0.8-2.08,1.15-4.42,1.24-6.66c0.23-5.77,0.23-11.55,0.28-17.33c0.01-1.02,0.39-1.58,1.21-2.25
			c1.31-1.07,2.31-2.51,3.66-4.03c-0.12,1.9-0.19,3.5-0.33,5.1c-0.11,1.29-0.4,2.57-0.43,3.86c-0.12,4.98-0.14,9.96-0.27,14.94
			c-0.09,3.15-0.67,6.23-1.76,9.19c-1.32,3.57-2.54,7.19-4.02,10.69c-0.89,2.1-1.98,4.2-3.37,6c-2.21,2.86-4.73,5.49-7.16,8.19
			C430.18,379.78,429.45,380.28,428.68,380.94z"/>
		<path class="st0" d="M364.46,351.48c-2.99-0.9-5.93-1.77-8.85-2.7c-0.27-0.09-0.53-0.5-0.62-0.81c-0.27-0.93-0.36-1.92-0.69-2.83
			c-1.04-2.82-3.36-3.49-6.04-2.9c-2.26,0.5-4.44,1.39-6.66,2.07c-0.51,0.16-1.08,0.14-1.62,0.21c-0.04-0.1-0.09-0.2-0.13-0.29
			c0.34-0.19,0.67-0.39,1.02-0.56c4.35-2.12,8.31-4.74,11.38-8.57c1.22-1.52,1.92-3.24,1.95-5.17c0.03-1.95-0.13-3.9-0.13-5.85
			c0-0.41,0.24-0.95,0.56-1.22c0.51-0.44,1-1.15,1.92-0.57c1.31,0.83,2.68,1.56,4.13,2.4c-0.45,0.4-0.83,0.72-1.2,1.05
			c-1.88,1.71-2.28,3.42-1.4,5.82c1.07,2.9,2.94,5.27,4.91,7.59c0.64,0.76,1.29,1.53,1.82,2.37c1.35,2.14,1.27,4.45,0.63,6.79
			C365.15,349.37,364.8,350.38,364.46,351.48z M362.65,345.9c0.01-1.69-0.14-1.88-1.39-1.89c-1.18-0.01-1.73,0.54-1.73,1.71
			c0,1.17,0.7,1.39,1.7,1.43C362.27,347.19,362.89,346.97,362.65,345.9z M360.11,342.78c0.28-2.38,0.1-2.78-1.06-2.85
			c-1.33-0.08-1.79,0.3-1.67,1.61C357.57,343.67,359.25,341.96,360.11,342.78z M354.63,336.67c0.47,0.82-0.74,2.2,1.12,2.31
			c0.84,0.05,1.14-0.33,1.14-1.1C356.88,336.84,356.34,336.51,354.63,336.67z"/>
		<path class="st0" d="M352.01,417.94c8.73-7.02,42.95-22.07,51.39-22.75c0.06,0.91,0.17,1.82,0.14,2.72
			c-0.01,0.28-0.37,0.62-0.66,0.82c-0.98,0.67-2.07,1.21-3,1.96c-3.52,2.85-7.73,4.28-11.92,5.65c-6.53,2.14-13.17,3.97-19.72,6.06
			c-5.04,1.61-10.02,3.41-15.02,5.13C352.82,417.65,352.42,417.79,352.01,417.94z"/>
		<path class="st0" d="M223.48,403.88c2.49,1.14,4.81,2.24,7.17,3.24c0.39,0.17,1.25,0.07,1.41-0.2c0.42-0.68-0.31-0.87-0.8-1.1
			c-0.45-0.22-0.9-0.47-1.37-0.72c0.52-0.28,0.97-0.43,0.17-0.98c-2.08-1.43-4.11-2.95-6.1-4.5c-0.31-0.24-0.32-0.85-0.53-1.45
			c2.48,1.2,4.7,2.28,7.23,3.5c-0.34-0.64-0.54-1.02-0.65-1.23c1.28-0.49,2.73-0.78,3.88-1.53c2.06-1.34,1.84-3.61,1.49-5.61
			c-0.36-2.07-1.27-4.03-2.68-5.65c-1.83-2.1-4.18-2.29-6.7-1.6c-0.33,0.09-0.66,0.23-1.26,0.44c0.52-2.49,1.01-4.83,1.51-7.2
			c3.05-0.09,5.47,1.06,7.66,2.84c3.64,2.95,4.95,6.95,5.18,11.45c0.25,4.7-1.09,9.04-3.23,13.12c-0.46,0.87-1.67,1.74-2.96,1.58
			c-3.26-0.4-6.1-1.88-8.82-3.62C223.87,404.51,223.73,404.2,223.48,403.88z"/>
		<path class="st0" d="M237.69,377.58c-0.07-0.61-0.1-1.53-0.3-2.4c-0.06-0.28-0.6-0.71-0.84-0.66c-1.07,0.19-2.12,0.53-2.97,0.76
			c-0.36-0.38-0.73-1.1-1.25-1.22c-1.35-0.32-2.01,0.27-2.76,2.08c-0.87-0.29-1.87-1.72-1.63-2.46c1.6-4.98,3.64-9.78,6.11-14.4
			c0.02-0.03,0.07-0.04,0.22-0.13c0.57,0.95,1.17,1.89,1.71,2.86c2.74,4.88,4.6,10.09,5.51,15.62c0.29,1.78,0.46,3.57,0.74,5.35
			c0.19,1.23,0.48,2.44,0.7,3.66c0.04,0.22-0.02,0.47-0.04,1c-1.13-1.12-1.68-2.31-2.11-3.57c-0.64-1.87-1.26-3.74-1.97-5.59
			C238.69,378.14,238.19,377.96,237.69,377.58z"/>
		<path class="st0" d="M413.82,341.51c0.79-0.24,1.8-0.55,2.82-0.86c1.54-0.46,3.07-0.94,4.62-1.33c0.29-0.07,0.89,0.16,0.99,0.4
			c1.41,3.6,2.58,7.27,3.02,11.14c0.41,3.63,0.87,7.25,1.29,10.88c0.02,0.2,0,0.47-0.11,0.6c-0.63,0.75-1.3,1.47-1.94,2.19
			c-1.68-3.91-3.25-7.82-5.02-11.64C417.71,349.09,415.75,345.37,413.82,341.51z"/>
		<path class="st0" d="M449.46,339.46c0.17,1.91,0.42,3.83,0.49,5.74c0.08,2.4,0.17,4.82-0.03,7.21c-0.16,1.97-0.57,3.95-1.14,5.85
			c-1.13,3.8-2.3,7.61-3.74,11.3c-0.9,2.33-2.24,4.51-3.5,6.69c-1.62,2.83-3.35,5.59-5.06,8.37c-0.17,0.27-0.52,0.56-0.82,0.6
			c-2.07,0.32-4.14,0.58-6.23,0.85c-0.1-0.67-0.21-1.42-0.33-2.25c5.99-5.78,12.17-11.54,15.2-19.83c2.9-7.95,5.92-15.83,4.78-24.6
			C449.21,339.43,449.33,339.44,449.46,339.46z"/>
		<path class="st0" d="M389.75,448.45c0.66-2.86,0.12-5.64-0.56-8.39c-0.52-2.09,0.25-3.66,1.6-5.13c0.32-0.35,0.47-0.87,0.63-1.34
			c0.08-0.25,0.04-0.56,0.01-0.83c-0.28-2.58,1.31-3.07,3.24-3.62c3.82-1.1,8.8,3.35,9.04,7.21c0.1,1.61-0.03,2.82-1.69,3.5
			c-0.53,0.21-0.95,0.69-1.48,1.09c-1.93-1.87-1.89-5.17-4.76-6.76c0,0.63-0.08,0.99,0.01,1.29c0.43,1.37,0.27,2.67-0.38,3.91
			c-1.44,2.76-2.89,5.51-4.38,8.24c-0.22,0.4-0.65,0.69-0.99,1.04C389.94,448.59,389.85,448.52,389.75,448.45z"/>
		<path class="st0" d="M330.56,339.49c-0.03-0.31-0.06-0.46-0.06-0.61c0-1.96,0-3.91,0-6.17c0.39,1.17,0.55,2.13,1,2.93
			c0.39,0.69,0.01,1.92,1.41,2.18c-0.34-2.13-0.65-4.1-0.97-6.12c0.42,0.43,0.78,0.79,1.13,1.16c0.1-0.07,0.19-0.15,0.29-0.22
			c-0.05-0.32-0.11-0.64-0.17-0.97c0.34,0.14,0.66,0.27,0.98,0.4c0.09-0.08,0.17-0.16,0.26-0.23c-0.79-1.38-1.58-2.75-2.44-4.26
			c4.93-2.46,9.97-4.97,15.01-7.48c-0.06,2.81-1.05,5.5-2.66,7.95C340.96,333.19,336.09,336.6,330.56,339.49z"/>
		<path class="st0" d="M322.69,464.03c-1.78,0.99-3.13-0.23-4.41-1c-1.17-0.7-2.25-1.7-3.06-2.8c-1.58-2.15-1.14-3.12,1.14-4.44
			c0.39-0.22,0.88-0.67,0.91-1.04c0.15-1.94,1.44-2.96,2.91-3.84c0.7-0.42,1.47-0.75,2.21-1.11c0.64-0.32,1.26-0.48,1.93,0
			c0.26,0.19,0.66,0.22,1,0.24c1.79,0.07,2.32,0.35,2.76,2.1c0.4,1.54,0.46,3.17,0.82,4.73c0.4,1.72,0.96,3.41,1.5,5.29
			c-0.86-1.12-1.64-2.12-2.41-3.13c-1.76-2.31-4.86-2.31-6.52,0.09c-0.32,0.46-0.31,1.32-0.13,1.9
			C321.67,462.05,322.23,463.02,322.69,464.03z"/>
		<path class="st0" d="M347.86,455.32c-0.59-1.37-1.11-2.77-1.79-4.1c-0.63-1.25-1.63-2.03-3.16-1.91
			c-1.92,0.15-2.79,1.25-2.18,3.06c0.79,2.33,1.72,4.61,2.59,6.93c-0.8,0.47-1.4,0.16-2.08-0.52c-1.07-1.07-2.42-1.86-3.42-2.98
			c-1.97-2.21-3.79-4.65-3.16-7.84c0.21-1.09,1.11-2.36,2.07-2.93c1.64-0.98,3.52-1.82,5.4-2.11c3.51-0.56,4.67,1.79,5.62,4.49
			c0.19,0.54,0.25,1.16,0.26,1.74c0.03,2.05,0.01,4.1,0.01,6.16C347.96,455.31,347.91,455.31,347.86,455.32z"/>
		<path class="st0" d="M334.68,445.27c-1.6,2.74-1.57,5.4,0.12,8.01c0.93,1.42,1.9,2.83,3,4.11c0.62,0.72,1.55,1.18,2.33,1.77
			c0.19,0.15,0.33,0.37,0.66,0.74c-2.12,0.5-4.04,0.96-5.95,1.41c-0.35,0.08-0.7,0.16-1.05,0.24c-1.84,0.4-2.51,0.1-3.01-1.76
			c-0.53-1.99-0.89-4.04-1.22-6.08c-0.27-1.7-0.64-3.29-2.19-4.34c-0.24-0.16-0.42-0.58-0.44-0.89c-0.06-1.12-0.05-2.24-0.04-3.35
			c0-0.14,0.09-0.31,0.18-0.43c0.74-0.91,1.49-1.81,2.28-2.76C330.94,443.23,332.37,445.01,334.68,445.27z"/>
		<path class="st0" d="M344.02,441.82c0-1.59-0.02-3.07,0.01-4.56c0.01-0.47,0.02-1.11,0.31-1.37c1.62-1.48,2.57-3.18,2.25-5.45
			c-0.01-0.09,0.08-0.19,0.22-0.48c1.56,2.78,2.4,5.83,4.66,8.04c-0.3,0.29-0.76,0.61-1.06,1.04c-1.97,2.77-1.88,6.46-0.02,9.44
			c1.61,2.58,3.6,4.78,5.98,6.66c0.28,0.22,0.59,0.41,0.89,0.62c-0.05,0.12-0.1,0.24-0.14,0.36c-2.56,0.6-5.12,1.2-7.93,1.86
			c-0.15-0.71-0.41-1.39-0.43-2.08c-0.05-2.27-0.04-4.55-0.01-6.83c0.03-2.37-0.97-4.35-2.47-6.05
			C345.75,442.43,344.79,442.22,344.02,441.82z"/>
		<path class="st0" d="M310.53,311.54c1.46,0,2.74-0.06,3.99,0.05c0.28,0.03,0.68,0.68,0.71,1.06c0.26,3.02-0.22,5.96-1.03,8.87
			c-1.34,4.8-2.66,9.6-3.99,14.4c-0.03,0.11-0.11,0.21-0.18,0.34c-0.86,0.04-1.1-0.35-1.1-1.21c-0.02-3.79,0.09-7.6-0.27-11.36
			c-0.37-3.86-1.7-7.53-3.41-11.03c-0.1-0.21-0.2-0.42-0.31-0.64c1.8-0.35,1.64-0.25,2.6,1.29c1.22,1.95,1.25,4.05,1.4,6.2
			c0.13,1.92,0.43,3.82,0.68,5.95c0.93-1.01,0.42-2.13,0.47-3.09c0.05-1.09-0.15-2.18-0.17-3.28c0.56,1.71,0.44,3.56,1.11,5.24
			C311.62,320.08,311.58,315.88,310.53,311.54z"/>
		<path class="st0" d="M319.94,445.45c1.04,1.12,1.98,2.12,2.93,3.14c-2.15,0.92-4.56,1.51-5.64,3.61c-0.9,1.75-2.14,3.01-3.53,4.29
			c-0.93,0.85-0.57,2.92,0.53,4.22c0.7,0.83,1.48,1.63,2.32,2.32c0.83,0.68,1.79,1.22,2.74,1.85c-1.19,0.27-2.4,0.72-3.63,0.77
			c-0.63,0.03-1.37-0.54-1.93-1c-0.99-0.81-1.8-1.85-2.85-2.57c-0.76-0.52-0.92-1.11-1.2-1.91c-0.7-2.08,0.08-3.62,1.22-5.25
			C313.44,451.31,316.38,448.1,319.94,445.45z"/>
		<path class="st0" d="M365.33,426.18c0.73-0.45,1.58-0.98,2.5-1.55c0.92,3.41,0.72,7.34,4.23,9.38c-1.07,0.86-2.32,1.55-3.12,2.59
			c-1.58,2.04-1.53,4.49-0.9,6.86c0.26,1-0.11,1.29-0.93,1.54c-1.05-1.14-1.44-2.59-1.54-4.05c-0.1-1.48-0.63-2.66-1.65-3.65
			c-0.42-0.4-0.46-0.73-0.35-1.31C364.21,432.76,364.74,429.51,365.33,426.18z"/>
		<path class="st0" d="M306.91,335.31c-1.45-0.56-2.87-1.06-4.22-1.69c-0.28-0.13-0.46-0.76-0.47-1.17
			c-0.08-4.03-0.29-8.06-1.26-11.97c-0.58-2.33-1.58-4.55-2.4-6.81c-0.09-0.25-0.2-0.49-0.29-0.71c1.32-0.82,2.11-0.05,2.58,0.96
			c1.15,2.45,2.48,4.87,3.18,7.46c1.2,4.42,1.98,8.96,2.93,13.44C306.98,334.92,306.93,335.04,306.91,335.31z"/>
		<path class="st0" d="M334.52,287.95c0.14-2.39,0.29-4.9,0.44-7.47c2.92-0.01,4.63-2.04,6.6-4.27c0,4.51,0,8.73,0,13.02
			C339.23,288.81,336.75,288.36,334.52,287.95z"/>
		<path class="st0" d="M302.54,491.01c-2.27-0.37-4.3-0.7-6.33-1.06c-0.2-0.04-0.47-0.32-0.51-0.53c-0.67-3.42-1.3-6.85-1.92-10.19
			c1.25-0.2,2.54-0.43,3.83-0.58c0.23-0.03,0.66,0.24,0.74,0.47C299.73,482.95,301.07,486.81,302.54,491.01z"/>
		<path class="st0" d="M375.6,432.22c0-2,0.17-4.18-0.05-6.32c-0.19-1.81,0.85-2.8,1.87-3.91c0.23-0.25,0.55-0.45,0.68-0.74
			c0.51-1.19,1.33-1.71,2.69-1.33c0.4,3.91-0.39,7.94,0.48,11.73C379.31,431.86,377.32,432.05,375.6,432.22z"/>
		<path class="st0" d="M318.21,491.61c-0.96,0-1.91,0.03-2.86-0.02c-0.31-0.02-0.74-0.18-0.89-0.42
			c-3.52-5.6-7.01-11.21-10.58-16.93c0.34-0.48,0.82-1.14,1.38-1.94C309.58,478.74,313.83,485.09,318.21,491.61z"/>
		<path class="st0" d="M300.02,477.62c0.71-0.54,1.4-1.06,2.21-1.67c2.97,5.19,5.91,10.35,8.87,15.53c-0.93,0-1.87,0.04-2.8-0.03
			c-0.24-0.02-0.52-0.33-0.66-0.58C305.11,486.49,302.6,482.11,300.02,477.62z"/>
		<path class="st0" d="M386.47,348.52c0.73,1.06,1.37,1.92,1.92,2.83c0.13,0.22,0.08,0.75-0.1,0.92c-2.03,1.95-4.09,3.89-6.2,5.76
			c-0.28,0.25-0.98,0.25-1.38,0.1c-1.34-0.51-2.62-1.15-4.21-1.87C380.76,354.77,383.91,352.13,386.47,348.52z"/>
		<path class="st0" d="M308.21,455.68c-2.22-2.22-4.31-4.32-6.49-6.5c2.46-1.59,5.08-3.29,8.03-5.2
			C309.2,448.13,308.71,451.9,308.21,455.68z"/>
		<path class="st0" d="M366.81,352.4c0.87-1.53,1.71-3.01,2.48-4.36c2.54,0.66,5.09,1.32,7.74,2.01c-0.46,1.88-1.82,3.36-3.24,4.8
			c-0.11,0.12-0.45,0.12-0.64,0.04C371,354.07,368.86,353.21,366.81,352.4z"/>
		<path class="st0" d="M339.61,484.61c2.91-3.12,5.43-6.67,9.54-8.85c0.28,2.88-0.91,5.66,0.56,8.39c-1.77,0.71-3.64,1.45-5.75,2.3
			c0.83-1.88,1.57-3.54,2.3-5.2c-0.1-0.1-0.21-0.19-0.31-0.29C343.64,481.8,341.97,483.74,339.61,484.61z"/>
		<path class="st0" d="M383.66,344.82c-3.92,1.93-7.88,2.61-12.07,1.39c-1.66-0.49-1.66-0.47-1.35-2.43
			c3.63-0.01,7.37,0.21,10.79-1.95C381.9,342.81,382.77,343.81,383.66,344.82z"/>
		<path class="st0" d="M357.49,424.84c1.32,3.37,1,7.23,3.08,10.35c-1.91,0.27-3.67,0.52-5.49,0.77c-0.11-1.19-0.23-2.5-0.35-3.82
			c-0.01-0.08,0.02-0.17-0.01-0.24c-0.56-1.48-0.22-2.57,1.1-3.57c0.6-0.46,0.74-1.55,1.05-2.37c0.13-0.35,0.17-0.74,0.25-1.12
			C357.25,424.84,357.37,424.84,357.49,424.84z"/>
		<path class="st0" d="M337.46,235.26c2.02,2.76,2.71,8.77-0.09,12.14c-1.7,2.05-3.53,4.01-5.33,5.97
			c-0.13,0.14-0.57-0.01-0.94-0.02c0.44-0.76,0.79-1.37,1.27-2.2c-1.42,0.59-1.87,2.34-3.92,1.77c1.32-0.92,2.38-1.78,3.54-2.44
			c3.42-1.96,5.24-5.01,5.77-8.77c0.22-1.56-0.28-3.23-0.42-4.85C337.28,236.43,337.39,235.98,337.46,235.26z"/>
		<path class="st0" d="M341.97,239.2c1.19,0.42,1.94,1,2.52,2.17c2.43,4.93-0.4,8.33-3.13,11.79c-0.64,0.81-1.4,1.53-2.18,2.22
			c-0.3,0.27-0.79,0.32-1.19,0.47c-0.12-0.17-0.24-0.33-0.36-0.5c1.12-1.53,2.09-3.19,3.38-4.56c2.07-2.18,3.03-4.69,2.68-7.61
			c-0.13-1.04-0.84-2.01-1.28-3.01C342.26,239.84,342.11,239.52,341.97,239.2z"/>
		<path class="st0" d="M396.34,413.28c-0.51,1.58-1.15,3.14-1.48,4.76c-0.26,1.28-1.04,1.81-2.08,2.28
			c-0.91,0.41-1.76,0.93-2.99,1.27c0.31-1.51,0.61-3.01,0.94-4.52c0.04-0.2,0.24-0.4,0.42-0.52c1.64-1.13,3.28-2.25,4.93-3.37
			C396.17,413.22,396.25,413.25,396.34,413.28z"/>
		<path class="st0" d="M337.18,255.11c-1.17-0.39-2.39-0.8-3.92-1.31c1.46-0.98,2.67-1.84,3.93-2.64c2.92-1.85,4.85-4.33,5.14-8.04
			c0.5,2.99,0.09,4.6-1.62,6.87c-0.62,0.83-1.18,1.7-1.77,2.56C338.37,253.36,337.82,254.18,337.18,255.11z"/>
		<path class="st0" d="M299.36,332.29c-1.62-0.7-3.08-1.33-4.51-1.95c0.43-2.53,0.85-4.98,1.32-7.7
			C297.96,325.66,298.88,328.79,299.36,332.29z"/>
		<path class="st0" d="M436.06,332.11c-0.08,4.55,0.37,8.97-0.91,13.22c-0.63-3.65-1.27-7.37-1.95-11.38
			C433.9,333.49,434.92,332.84,436.06,332.11z"/>
		<path class="st0" d="M337,443.61c-0.36-1.29-0.71-2.56-1.05-3.84c-0.05-0.19-0.03-0.43,0.04-0.61c0.52-1.31,1.06-2.6,1.53-3.75
			c1.02,1.98,2.2,4.28,3.4,6.61C339.58,442.56,338.19,443.13,337,443.61z"/>
		<path class="st0" d="M323.99,332.85c-0.86,2.31-1.73,4.63-2.62,7.03c-1.45-0.45-3.03-0.93-4.69-1.44c1.2-1.06,2.29-2.1,3.46-3.05
			c1.17-0.95,2.42-1.82,3.64-2.72C323.85,332.73,323.92,332.79,323.99,332.85z"/>
		<path class="st0" d="M333,324.39c3.52-2.61,6.82-5.07,10.13-7.49c0.23-0.17,0.67-0.16,0.97-0.08c0.6,0.16,1.18,0.43,1.78,0.66
			C344.85,319,338.81,322.24,333,324.39z"/>
		<path class="st0" d="M384.59,360.01c1.68-2.18,3.35-4.34,5.11-6.62c0.41,0.65,0.9,1.29,1.23,2.01c0.12,0.26-0.05,0.78-0.25,1.03
			c-1.12,1.39-2.31,2.73-3.44,4.11c-0.44,0.54-0.84,0.61-1.4,0.2C385.42,360.45,384.96,360.22,384.59,360.01z"/>
		<path class="st0" d="M375.87,336.67c0.93,0.92,1.8,1.77,2.68,2.65c-2.43,1.57-5.19,1.61-7.94,1.24c-0.58-0.08-1.01-1.23-1.72-2.16
			C371.78,339.02,374.21,339,375.87,336.67z"/>
		<path class="st0" d="M346.02,244.33c0.28-1.49-0.87-2.44,0.02-3.59c1.12-1.45,2.62-2.42,4.28-2.86c0.87-0.23,1.99,0.44,2.79,0.65
			c-1.59,1.58-3.25,3.31-5.01,4.95C347.66,243.88,346.92,243.97,346.02,244.33z M346.86,241.95c1.62,0.14,2.63-0.81,2.44-2.04
			C347.89,239.82,347.58,240.95,346.86,241.95z"/>
		<path class="st0" d="M258.91,386.83c0.26,0.33,0.7,0.63,0.75,0.99c0.41,2.82,1.13,5.6,0.59,8.52c-0.61,3.3-0.99,6.65-1.49,9.98
			c-0.1,0.68-0.34,1.35-0.64,1.99c0.14-1.13,0.29-2.25,0.43-3.38c0.16-1.4,0.35-2.8,0.45-4.21c0.12-1.66,0.27-3.32,0.23-4.98
			c-0.06-2.12-0.32-4.24-0.44-6.37c-0.04-0.85,0.08-1.71,0.13-2.56L258.91,386.83z"/>
		<path class="st0" d="M356.85,241c-0.61,1.71-1.74,2.24-3.2,2.54c-1.07,0.21-2.2,0.6-3.07,1.24c-1.95,1.43-2.21,1.59-4.49,0.95
			c0.07-0.17,0.1-0.45,0.21-0.48c0.87-0.29,1.77-0.52,2.64-0.8c0.2-0.06,0.42-0.25,0.5-0.44c0.79-1.85,2.47-2.27,4.17-2.63
			C354.6,241.16,355.64,241.13,356.85,241z"/>
		<path class="st0" d="M352.26,246.99c-1.22,2.04-2.48,4.06-3.64,6.13c-0.77,1.36-1.47,1.88-2.77,1.1c-0.83-0.5-1.3-1.72-1.71-2.71
			c-0.21-0.5,1.37-1.6,2.18-1.51c2.23,0.26,3.59-1.3,5.15-2.42c0.25-0.18,0.39-0.51,0.58-0.76
			C352.12,246.87,352.19,246.93,352.26,246.99z M346.77,253.57c0.86,0.06,1.5-0.11,1.48-1.11c-0.01-0.82-0.52-1.09-1.26-1.04
			c-0.74,0.05-1.38,0.19-1.4,1.19C345.58,253.57,346.12,253.63,346.77,253.57z"/>
		<path class="st0" d="M331.62,313.5c-2.95,3.74-5.85,7.42-8.76,11.1c-0.08-0.06-0.17-0.13-0.25-0.19c1.65-2.68,3.3-5.36,4.94-8.05
			c0.41-0.67,0.76-1.37,1.12-2.06C329.5,312.69,329.53,312.68,331.62,313.5z"/>
		<path class="st0" d="M351.3,237.1c2.36-3.64,6.17-3.06,9.73-3.31c-0.53,0.34-1.06,0.68-1.6,1.01c-1.13,0.67-2.35,1.22-3.38,2.02
			C354.52,238.01,353.01,237.75,351.3,237.1z M353.34,236.91c1.34,0.21,2.87-0.54,2.98-1.46
			C354.72,235.35,353.56,235.92,353.34,236.91z"/>
		<path class="st0" d="M224.55,415.2c-0.16-1.27-0.31-2.48-0.45-3.6c2.21,0.12,4.34,0.24,6.32,0.35
			C229.59,413.2,226.17,415.18,224.55,415.2z"/>
		<path class="st0" d="M326.55,341.31c0.67-3.01,1.34-6.02,2.01-9.04c0.13,0,0.26,0,0.38,0.01c0.12,2.47,0.26,4.93,0.33,7.4
			c0.01,0.29-0.35,0.67-0.63,0.86c-0.55,0.37-1.17,0.63-1.76,0.94C326.77,341.42,326.66,341.36,326.55,341.31z"/>
		<path class="st0" d="M257.1,413.99c0.01,0.01,0.12,0.06,0.2,0.15c1.41,1.51,1.45,1.41,0.03,2.94c-0.64,0.69-1.39,1.34-1.85,2.14
			c-0.51,0.89-0.58,1.93,0.15,2.85c0.31,0.4,0.6,0.82,0.87,1.2c-1.19,0.81-2.4,1.63-3.7,2.51
			C254.25,421.78,255.67,417.88,257.1,413.99z"/>
		<path class="st0" d="M323.72,485.96c-2.6-1.36-4.33-3.66-6.41-5.54C320.4,479.75,323.97,482.77,323.72,485.96z"/>
		<path class="st0" d="M360.9,237.25c-1.08,1.1-1.93,1.99-2.8,2.86c-0.12,0.12-0.3,0.26-0.46,0.26c-1.64,0.02-3.27,0.01-4.83,0.01
			C354.92,238.36,357.55,237.28,360.9,237.25z"/>
		<path class="st0" d="M313.93,466.14c-2.04,0.47-3.79,0.87-5.62,1.29c0.54-1.64,1.04-3.13,1.57-4.74
			C311.11,463.74,312.39,464.83,313.93,466.14z"/>
		<path class="st0" d="M231.95,409.36c-2.86,1.16-5.44,0.99-7.83-0.43c-0.44-0.26-0.35-1.4-0.56-2.37
			C226.33,407.94,228.84,409.1,231.95,409.36z"/>
		<path class="st0" d="M292.97,329.49c0-3.96,0-7.93,0-12.12c0.56,0.88,1.38,1.48,1.29,2.52c-0.19,2.27-0.45,4.54-0.68,6.8
			c-0.09,0.94-0.15,1.88-0.23,2.82C293.23,329.5,293.1,329.5,292.97,329.49z"/>
		<path class="st0" d="M249.63,347.39c-0.3,0.34-0.6,0.68-0.84,0.96c-0.49-1.92-0.96-4.05-1.61-6.12c-0.33-1.05-0.22-1.74,0.98-2.32
			c0.62,2.52,1.23,5.01,1.85,7.49C249.88,347.39,249.76,347.39,249.63,347.39z"/>
		<path class="st0" d="M367.08,229.9c-1.33,1.67-8.72,3.77-10.75,3.05C357.15,231.18,363.5,230.13,367.08,229.9z M362.41,231.14
			c-1.38-0.09-3.38,0.73-3.56,1.43C360.26,232.77,362.07,232.08,362.41,231.14z"/>
		<path class="st0" d="M290.59,328.29c-0.19-4.39-0.38-8.78-0.56-13.1c1.14,0.6,1.05,1.99,1.1,3.13c0.12,2.96,0.05,5.92,0.03,8.88
			c0,0.37-0.19,0.75-0.3,1.12C290.76,328.32,290.68,328.31,290.59,328.29z"/>
		<path class="st0" d="M395.31,363.47c0.93,2.25,1.77,4.26,2.6,6.28c-0.09,0.05-0.19,0.09-0.28,0.14c-1.43-1.34-2.87-2.68-4.37-4.08
			C393.91,365.06,394.53,364.35,395.31,363.47z"/>
		<path class="st0" d="M344.42,261.57c-0.5-0.66-1-1.33-1.39-1.85c-0.11-1.9-0.22-3.75-0.32-5.5
			C344.37,255.46,345.3,259.27,344.42,261.57z"/>
		<path class="st0" d="M391.77,364.72c-0.59-0.44-1.06-0.79-1.61-1.2c1.04-1.33,2.06-2.63,3.08-3.94c0.88,0.96,1.07,1.88,0.11,2.92
			C392.77,363.15,392.34,363.92,391.77,364.72z"/>
		<path class="st0" d="M226.11,388.68c0.71-0.36,1.42-0.73,2.15-1.08c0.15-0.07,0.39-0.12,0.52-0.05c1.84,0.91,3.16,2.3,4.05,4.56
			C230.62,390.43,229.01,388.3,226.11,388.68z"/>
		<path class="st0" d="M280.14,317.59c1.32,2.34,2.49,4.41,3.66,6.48c-0.11,0.07-0.22,0.13-0.32,0.2c-1.95-1.45-2.83-3.64-3.75-5.78
			C279.66,318.35,279.9,318.08,280.14,317.59z"/>
		<path class="st0" d="M358.15,236.2c2.19-0.76,4.1-1.42,6.35-2.19C362.64,236.39,360.62,237.09,358.15,236.2z"/>
		<path class="st0" d="M368.89,230.97c-1.82,1.87-3.94,2.55-6.43,2.64C364.34,232.02,366.49,231.41,368.89,230.97z"/>
		<path class="st0" d="M314.76,336.94c1.84-3.76,5.43-5.02,8.2-7.22C320.31,332.05,317.66,334.39,314.76,336.94z"/>
		<path class="st0" d="M289.04,324.76c-0.56-2.85-1.14-5.7-1.68-8.57c-0.05-0.26,0.22-0.58,0.34-0.88c0.2,0.23,0.52,0.45,0.57,0.71
			c0.21,1.23,0.39,2.47,0.49,3.71C288.89,321.42,288.95,323.11,289.04,324.76z"/>
		<path class="st0" d="M325.93,334.61c-0.37,2.06-0.74,4.12-1.13,6.27c-0.33-0.1-0.73-0.21-1.33-0.39c0.78-2.02,1.53-3.98,2.28-5.94
			C325.81,334.58,325.87,334.59,325.93,334.61z"/>
		<path class="st0" d="M229.25,417.8c-1.04,1.51-2.09,3.03-3.17,4.6c-0.73-1.92-0.72-1.92,0.83-2.99c0.39-0.27,0.8-0.53,1.1-0.88
			c0.3-0.35,0.48-0.81,0.71-1.23C228.89,417.47,229.07,417.64,229.25,417.8z"/>
		<path class="st0" d="M346.05,248.19c2.87,0.62,4.26-2.01,6.41-2.96c-1.4,1.75-3.06,3.15-5.18,3.91
			C346.34,249.47,345.89,249.08,346.05,248.19z"/>
		<path class="st0" d="M280.4,322.02c-1.45-0.86-2.68-1.6-4.11-2.45c0.7-0.31,1.22-0.54,1.77-0.79
			C278.82,319.84,279.53,320.82,280.4,322.02z"/>
		<path class="st0" d="M327.42,312.61c-0.68,1.25-1.3,2.37-1.91,3.5c-0.07-0.03-0.15-0.05-0.22-0.08c0.24-1.19,0.48-2.37,0.73-3.66
			C326.49,312.45,326.9,312.52,327.42,312.61z"/>
		<path class="st0" d="M340.56,257.6c-0.56-0.5-0.86-0.77-1.23-1.1c0.67-0.69,1.31-1.37,1.96-2.04c0.11,0.06,0.21,0.13,0.32,0.19
			C341.28,255.58,340.95,256.51,340.56,257.6z"/>
		<path class="st0" d="M331.79,316.8c0.6-0.88,1.19-1.77,1.81-2.63c0.1-0.14,0.35-0.17,0.53-0.26c0.05,0.17,0.19,0.42,0.12,0.5
			c-0.73,0.88-1.5,1.73-2.25,2.58C331.93,316.92,331.86,316.86,331.79,316.8z"/>
		<path class="st0" d="M337.95,318.03c0.59-1.56,1.88-2.54,2.93-2.21C339.91,316.55,339.02,317.22,337.95,318.03z"/>
		<path class="st0" d="M337.38,314.87c-0.83,0.94-1.66,1.89-2.49,2.83c-0.08-0.07-0.15-0.14-0.23-0.21c0.86-0.92,1.4-2.13,2.42-2.89
			C337.18,314.69,337.28,314.78,337.38,314.87z"/>
		<path class="st0" d="M258.93,386.81c-0.29-1.42-1.04-2.79-0.52-4.31c0,0,0,0,0,0c0.17,1.44,0.34,2.88,0.51,4.32
			C258.91,386.83,258.93,386.81,258.93,386.81z"/>
		<path d="M338.39,478.34c-0.36,0-0.72,0.02-1.08,0c-2.35-0.18-4.52-2.62-4.4-4.99c0.03-0.48,0.22-0.99,0.46-1.42
			c0.46-0.82,0.98-1.59,1.51-2.37c0.38-0.56,2.27-0.86,3.01-0.46c0.92,0.5,1.81,1.05,2.71,1.58c2.63,1.53,2.36,5.85-0.16,7.35
			c-0.57,0.34-1.35,0.3-2.04,0.44C338.41,478.42,338.4,478.38,338.39,478.34z M336.27,471.83c1.5,1.15,2.66,2.76,4.75,2.53
			c-0.23-1.89-1.87-2.49-3.16-3.33C337.26,470.64,336.35,470.69,336.27,471.83z"/>
		<path d="M348.43,466.21c-0.18,0.11-0.66,0.4-1.43,0.88c0.25-1.4,1-1.95,1.86-2.42c2.41-1.33,5.33,0.44,5.75,2.15
			c0.32,1.32,0.15,2.5-0.84,3.5c-0.56,0.57-1.09,1.16-1.66,1.72c-0.14,0.14-0.36,0.3-0.55,0.3c-0.47,0.01-0.96-0.01-1.41-0.13
			c-0.57-0.16-1.1-0.43-1.64-0.65c0.49-0.22,1.06-0.34,1.44-0.69c0.41-0.37,0.81-0.92,0.87-1.43c0.05-0.44-0.33-0.98-0.64-1.39
			C349.73,467.46,349.16,466.97,348.43,466.21z"/>
		<path d="M361.75,466.16c-0.87-0.35-1.83-0.57-2.59-1.08c-0.8-0.53-1.21-2.42-0.76-3.14c0.54-0.84,1.4-1.17,2.44-1.12
			c1.32,0.06,2.57,0.13,3.74,0.94c1.07,0.74,0.87,1.78,0.57,2.54c-0.26,0.66-1.16,1.15-1.87,1.54c-0.37,0.2-0.94,0.04-1.42,0.04
			C361.83,465.96,361.79,466.06,361.75,466.16z M362.6,462.44c-0.08,0.09-0.16,0.18-0.24,0.27c0.31,0.5,0.62,1,1.03,1.66
			c0.28-0.44,0.46-0.74,0.7-1.12C363.55,462.96,363.08,462.7,362.6,462.44z"/>
		<path d="M349.14,468.97c-0.47,0-0.82,0-1.28,0c-0.03-0.34-0.07-0.68-0.11-1.1c0.49,0,0.9,0,1.39,0
			C349.14,468.2,349.14,468.53,349.14,468.97z"/>
		<path d="M190.43,401.05c0.24,0.84,0.72,2.01,0.91,3.23c0.28,1.78,0.07,1.92-1.76,1.8c-0.43-1.06-0.82-2.16-1.33-3.21
			c-0.31-0.65-0.88-1.17-1.2-1.82c-1.39-2.75-0.86-5.73-0.95-8.64c-0.02-0.55,0-1.1,0-1.81c0.04-0.01,0.32-0.07,0.66-0.15
			c0.13-0.87,0.26-1.76,0.39-2.65c1.68-0.32,2.4,0.26,2.54,2.08c0.04,0.56,0,1.12,0.01,1.68c0.01,0.52-0.18,1.13,0.65,1.27
			c0.14,0.02,0.28,0.45,0.29,0.7c0.1,1.98,0.2,3.97,0.23,5.95C190.88,399.91,190.64,400.35,190.43,401.05z"/>
		<path d="M325.28,256.37c1.5,0.11,3.02,0.07,4.48,0.36c1.42,0.29,2.88,0.73,4.12,1.45c2.01,1.17,2.13,3.3,0.93,5.35
			c-0.84,1.44-2.26,2.09-3.68,2.8c-1.66,0.83-3.18,2.16-4.92,2.58c-2.15,0.51-4.51,0.82-6.61-0.64c-1.52-1.06-1.77-2.68-2.02-4.27
			c-0.14-0.93-0.15-1.94,0.05-2.85c0.67-3.12,2.73-4.69,5.96-4.69c0.56,0,1.12,0,1.68,0C325.27,256.43,325.28,256.4,325.28,256.37z"
			/>
		<path d="M362.65,345.9c0.25,1.07-0.38,1.29-1.42,1.25c-1-0.04-1.7-0.26-1.7-1.43c0-1.17,0.55-1.72,1.73-1.71
			C362.5,344.02,362.65,344.21,362.65,345.9z"/>
		<path d="M360.11,342.78c-0.86-0.82-2.54,0.89-2.73-1.24c-0.11-1.31,0.34-1.69,1.67-1.61C360.22,340,360.39,340.4,360.11,342.78z"
			/>
		<path d="M354.63,336.67c1.7-0.16,2.25,0.17,2.26,1.21c0.01,0.77-0.29,1.15-1.14,1.1C353.89,338.87,355.11,337.49,354.63,336.67z"
			/>
		<path d="M346.86,241.95c0.72-0.99,1.04-2.12,2.44-2.04C349.48,241.14,348.47,242.09,346.86,241.95z"/>
		<path d="M346.77,253.57c-0.65,0.07-1.19,0-1.17-0.96c0.02-1,0.65-1.14,1.4-1.19c0.74-0.05,1.24,0.22,1.26,1.04
			C348.27,253.46,347.63,253.63,346.77,253.57z"/>
		<path d="M353.34,236.91c0.22-0.99,1.38-1.55,2.98-1.46C356.2,236.36,354.68,237.11,353.34,236.91z"/>
		<path d="M362.41,231.14c-0.34,0.95-2.15,1.64-3.56,1.43C359.03,231.87,361.03,231.04,362.41,231.14z"/>
		<path class="st0" d="M336.27,471.83c0.09-1.14,1-1.19,1.59-0.8c1.29,0.84,2.93,1.44,3.16,3.33
			C338.92,474.58,337.77,472.97,336.27,471.83z"/>
		<path class="st0" d="M362.6,462.44c0.48,0.26,0.95,0.52,1.49,0.81c-0.23,0.38-0.42,0.67-0.7,1.12c-0.41-0.66-0.72-1.16-1.03-1.66
			C362.44,462.62,362.52,462.53,362.6,462.44z"/>
	</g>
</g>
</svg>
