<?xml version="1.0" encoding="utf-8"?>
<!-- Generator: Adobe Illustrator 24.1.3, SVG Export Plug-In . SVG Version: 6.00 Build 0)  -->
<svg version="1.1" id="Calque_1" xmlns="http://www.w3.org/2000/svg" xmlns:xlink="http://www.w3.org/1999/xlink" x="0px" y="0px"
	 viewBox="0 0 595.28 841.89" style="enable-background:new 0 0 595.28 841.89;" xml:space="preserve">
<style type="text/css">
	.st0{fill:#FFFFFF;}
</style>
<g>
	<g>
		<path class="st0" d="M538,660.89c-160,0-320,0-480,0c0-160,0-320,0-480c160,0,320,0,480,0C538,340.89,538,500.89,538,660.89z
			 M342.72,408.19c0.1-0.01,0.2-0.01,0.3-0.02c-0.43,2.16-0.85,4.33-1.26,6.44c4.54-4,9.48-7.56,14.8-10.6
			c2.12-1.21,4.26-2.36,6.33-3.65c7.42-4.6,12.76-11.15,17.16-18.55c0.48-0.8,0.76-1.73,1.13-2.59c-1.02,1-1.77,2.15-2.68,3.14
			c-1.81,1.96-3.72,3.83-5.58,5.75c-3,3.11-6.16,6-9.96,8.16c-2.56,1.45-4.96,3.19-7.41,4.84c-2.64,1.79-5.25,3.63-7.88,5.43
			c-0.9,0.62-1.66,0.45-2.2-0.5c-0.36-0.62-0.68-1.26-1.02-1.9c-1.3-2.47-1.39-2.49-3.9-1.17c-0.09,0.05-0.22,0.03-0.33,0.05
			c-0.41-0.72-0.96-1.25-1.57-1.7c-0.8-0.59-1.72-1.04-2.48-1.67c-0.95-0.79-0.94-1.83,0.1-2.48c1-0.63,2.11-1.16,3.24-1.47
			c4.86-1.3,9.19-3.33,12.77-7.12c2.59-2.75,4.08-5.7,4.42-9.39c0.14-1.49-0.26-2.5-1.54-3.31c-2.78-1.77-4.85-4.15-5.77-7.38
			c-0.87-3.06-0.97-5.96,1.45-8.5c1.04-1.09,1.78-2.47,2.77-3.61c3.03-3.47,4.07-7.54,3.68-12.03c-0.21-2.36-1.6-4.96-4.85-4.87
			c-1.76,0.05-3.52-0.08-5.28,0c-1.43,0.06-2.29-0.57-2.74-1.83c-1.25-3.52-1.42-7.06,0.29-10.47c1.27-2.54,1.78-5.19,1.73-7.99
			c-0.02-1.28,0.02-2.56,0.02-3.84c0-4.84-2.83-7.94-7.6-8.53c-2.01-0.25-4-0.71-5.96-1.24c-1.13-0.31-2.23-1.03-2.29-2.34
			c-0.09-1.94-0.03-3.91,0.13-5.85c0.2-2.34,0.74-4.66,0.8-6.99c0.04-1.37-0.35-2.86-0.95-4.11c-1.41-2.94-3.49-5.44-5.88-7.66
			c-3.19-2.96-8.21-3.8-12.12-1.87c-2.36,1.16-4.81,1.63-7.41,1.62c-1.08,0-1.77-0.39-2.06-1.42c-0.4-1.46-0.69-2.96-1.19-4.39
			c-0.5-1.45-0.9-3.08-1.84-4.21c-3.38-4.05-8.4-4.21-12.41-2.24c-1.68,0.83-3.24,1.89-4.88,2.8c-0.72,0.4-1.49,0.77-2.29,0.99
			c-2.9,0.83-5.82,0.9-8.75,0.08c-0.77-0.21-1.57-0.36-2.3-0.67c-4.95-2.08-9.44-0.97-13.69,1.89c-0.46,0.31-0.89,0.67-1.34,1
			c1.87,0.28,3.62,0.26,5.37,0.28c1.56,0.02,2.41,1,2.25,2.39c-1.34,0.36-2.75,0.5-3.92,1.1c-1.82,0.93-3.7,1.14-5.67,1.23
			c-1.39,0.06-2.4-0.44-3.19-1.52c-1.27-1.73-2.29-3.62-2.49-5.76c-0.23-2.5-0.3-5.03-0.22-7.54c0.03-0.88,0.47-1.95,1.09-2.56
			c1.62-1.62,3.58-2.75,6.07-3.07c-0.75,3.28-0.53,6.2,2.78,8.03c0.1-0.16,0.22-0.32,0.31-0.49c1.77-3.5,4.53-5.8,8.09-7.46
			c4.48-2.09,8.85-4.45,13.08-7c4.37-2.63,7.37-6.56,9.2-11.34c0.87-2.26,1.02-3.63,0.71-4.71c-3.25,6.65-8.67,10.37-15.98,11.15
			c-3.92,0.42-7.9,0.28-11.85,0.45c-2.4,0.1-4.68-0.29-6.89-1.25c-2.03-0.89-4.16-0.67-6.63-0.62c3.3,2.47,6.59,4.6,5.52,9.35
			c-2.29-0.13-4.53,0.16-6.69,1.17c-2.27,1.06-3.53,2.95-5.02,5.1c0.94-0.21,1.59-0.36,2.34-0.53c0.21,1.41,0.29,2.74-0.39,4.01
			c-0.45,0.84-0.88,1.7-1.34,2.54c-1,1.83-0.94,3.78-0.76,6.06c0.6-1.31,1.06-2.32,1.53-3.33c0.34,0.42,0.42,0.76,0.49,1.1
			c0.48,2.3,0.81,4.64,1.48,6.88c0.56,1.87,2.21,2.81,4.11,3.6c0-0.88,0-1.6,0-2.54c0.52,0.38,0.9,0.59,1.21,0.88
			c0.99,0.94,2.14,1.22,3.5,1.23c1.85,0.02,3.54-0.37,5.22-1.08c1.2-0.51,2.48-0.81,3.73-1.21c0.06,0.14,0.12,0.28,0.19,0.42
			c-0.46,0.35-0.87,0.86-1.38,1.02c-1.32,0.41-2.7,0.64-4.04,0.98c-0.43,0.11-1.18,0.3-1.19,0.49c-0.04,0.63-0.02,1.58,0.36,1.85
			c1.08,0.76,2.3,1.48,3.56,1.76c1.46,0.32,3.02,0.22,4.54,0.17c0.72-0.02,1.54-0.2,2.14-0.58c1.96-1.23,3.89-2.51,5.72-3.92
			c2.43-1.86,5.16-2.6,8.15-2.68c1.07-0.03,1.7,0.44,1.79,1.48c0.12,1.39,0.24,2.79,0.18,4.19c-0.15,3.97,1.73,6.84,5.08,8.55
			c3.81,1.95,7.69,0.11,7.89-4.47c0.04-0.96-0.25-1.97-0.5-2.92c-0.38-1.44-0.15-1.81,1.3-1.95c1.1-0.11,2.02,0.17,2.91,0.82
			c1.13,0.82,1.55,1.97,1.8,3.26c0.57,2.9,2.66,4.14,5.45,3.41c0.91-0.24,1.91-0.37,2.84-0.27c0.55,0.06,1.37,0.59,1.51,1.06
			c0.5,1.69,0.77,3.46-0.37,5.06c-0.89,1.23-1.87,2.39-2.73,3.64c-1.93,2.8-1.68,7.48,0.62,9.38c1.25,1.03,2.68,1.89,4.15,2.58
			c2,0.94,3.85,0.43,5.25-1.3c0.52-0.64,0.88-1.41,1.28-2.15c0.58-1.06,1.47-1.49,2.66-1.47c1.1,0.01,1.54,0.79,1.88,1.59
			c0.95,2.28,1.14,4.52-0.29,6.75c-1.98,3.08-3.38,6.36-2.97,10.14c0.05,0.49,0.3,1.15,0.68,1.38c1.39,0.86,3.06,0.59,4.29-0.55
			c0.65-0.6,1.23-1.27,1.91-1.81c1.76-1.39,3.38-0.97,4.13,1.14c0.89,2.51,0.85,4.99-0.61,7.36c-1.8,2.91-4.28,5.13-6.93,7.22
			c-2.48,1.96-4.63,4.09-4.63,7.68c0,3.05,1.44,5.55,4.35,6.54c2.12,0.72,4.06,0.37,5.86-1c3.3-2.52,6.94-4.07,11.21-3.74
			c1.46,0.11,2.73,0.6,3.38,1.91c1.11,2.24,1.36,4.82,0.43,6.99c-1.85,4.3-4.65,7.81-10.06,7.6c-0.16-0.01-0.32,0.01-0.48,0.03
			c-4.44,0.42-7.93,2.6-10.25,6.28c-1.48,2.36-1.1,4.99,2.11,5.45c2.21,0.32,4.57,0.35,6.75-0.07c2.31-0.44,4.58-0.7,6.89-0.58
			c1.31,0.07,2.76,0.56,3.11,1.86c1.13,4.18,1,6.5-2.05,9.44c-1.58,1.51-3.57,2.22-5.77,2.31c-3.85,0.16-7.63-0.01-11.35-1.31
			c-2.42-0.85-5.03-1.18-7.55-0.42c-3.4,1.02-5.6,4.47-5.81,8.41c-0.1,1.82,0.7,2.97,2.2,3.58c2.4,0.98,4.83,1.89,7.52,1.78
			c1.43-0.06,2.96-0.17,4.28,0.25c3.69,1.16,4.87,3.37,3.65,6.35c-0.49,1.2-2,2.07-3.19,2.89c-2.37,1.64-5.42,2.03-8.31-0.29
			c-1.61-1.29-3.41-2.36-5.14-3.51c-1.8-1.2-3.83-1.54-5.95-1.46c-2.1,0.08-4.01,1.84-4.44,4.06c-0.35,1.81,0.51,3.12,2.68,4.1
			c0.15,0.07,0.3,0.12,0.44,0.18c4.35,1.9,5.45,5.12,3.2,9.32c-0.09,0.18-0.18,0.35-0.28,0.53c-1.39,2.42-3.58,3.06-5.96,1.68
			c-1.07-0.62-2.07-1.35-3.09-2.04c-0.89-0.61-1.69-1.43-2.67-1.81c-3.11-1.21-5.37-0.84-6.29,2.66c-0.52,1.97-1.56,3.83-2.53,5.65
			c-0.71,1.31-2.04,1.93-3.55,2.34c-0.56-1.01-1.07-2-1.64-2.96c-0.96-1.61-3.12-2.37-4.79-1.53c-2.26,1.13-4.66,1.34-7.1,1.38
			c-1.57,0.03-2.22-0.64-2.51-2.15c-0.61-3.2,0.44-5.81,2.71-8.02c1.11-1.08,2.16-1.14,3.41-0.19c0.25,0.19,0.5,0.37,0.82,0.6
			c0.23-0.5,0.49-0.92,0.62-1.37c0.38-1.32,0.79-2.82-0.41-3.81c-1.3-1.08-2.83-1.93-4.36-2.67c-1.02-0.49-2.09-0.27-2.87,0.78
			c-0.73,1-1.56,1.93-2.35,2.88c-0.75,0.9-1.71,1.4-2.9,1.48c-1.78,0.12-1.83,0.13-1.86-1.66c-0.02-1.62-0.49-2.98-1.79-4
			c-1.16-0.91-2.38-0.71-3.38,0.36c-1.74,1.86-3.53,3.68-5.36,5.47c-0.79,0.77-1.83,1.12-2.86,0.54c-2.19-1.24-4.38-1.14-6.7-0.41
			c-2.88,0.91-5.65,0.93-7.6-1.9c-0.6-0.88-1.1-1.85-1.5-2.84c-0.47-1.15-0.79-2.37-1.22-3.66c-0.68,1.05-1.28,1.99-1.91,2.91
			c-0.17,0.25-0.43,0.6-0.66,0.61c-1.35,0.06-2.7,0.03-4.18,0.03c1.65-1.15,2.79-2.5,2.87-4.54c0.03-0.72-0.08-1.2-0.82-1.5
			c-0.77-0.31-1.54-0.7-2.21-1.18c-1.24-0.89-2.61-1.7-3.21-3.47c0.75,0.1,1.37,0.22,1.99,0.25c1.7,0.07,3.53,0.52,5.08,0.06
			c2.73-0.81,5.12-2.28,5.29-5.7c0.04-0.91,0.51-1.79,0.81-2.78c0.37,0.21,0.59,0.31,0.77,0.44c3.71,2.66,7.93,2.31,12.12,2.01
			c0.46-0.03,0.9-0.31,1.35-0.49c3.07-1.23,5.27-3.54,7.44-5.91c0.68-0.74,1.45-1.39,2.36-2.24c0.42,1.03,0.67,1.78,1.03,2.48
			c0.96,1.87,1.93,3.74,2.98,5.56c0.73,1.26,2.02,1.84,3.37,2.08c1.21,0.21,2.48,0.3,3.7,0.21c2.52-0.17,4.44-1.48,5.38-3.8
			c0.97-2.39,0.18-4.43-1.85-6.04c-0.74-0.59-1.48-1.28-1.97-2.07c-0.64-1.03-1.14-2.18-1.48-3.35c-0.33-1.14,0.28-2.24,1.39-2.61
			c1.51-0.5,3.05-0.68,4.38,0.56c1.14,1.06,2.25,2.17,3.47,3.13c2.59,2.03,7.15,2.77,9.58-1.27c0.83-1.39,1.21-3.08,1.67-4.67
			c0.33-1.16-0.33-1.98-1.39-2.3c-1.17-0.36-2.4-0.59-3.62-0.75c-3.07-0.39-4.48-1.9-4.54-4.93c-0.03-1.76,0.14-2.01,1.95-2.07
			c2.72-0.09,5.45-0.28,8.15-0.09c5.1,0.36,8.93-3.61,10.72-7.14c0.28-0.55,0.42-1.22,0.46-1.84c0.08-1.44,0.11-2.88,0.05-4.32
			c-0.12-2.86-1.46-4.11-4.26-3.7c-2.79,0.41-5.55,1.08-8.31,1.67c-0.93,0.2-1.83,0.58-2.77,0.74c-1.29,0.22-2.63,0.46-3.81-0.43
			c-1.71-1.28-2.27-3.11-2.04-5.09c0.2-1.74,1.73-2.24,3.2-2.63c0.39-0.1,0.76-0.24,1.15-0.31c3.25-0.58,6.09-2.05,8.83-3.84
			c1.32-0.86,1.95-1.94,2-3.44c0.07-2.12,0.15-4.23,0.18-6.35c0.01-0.59-0.07-1.22-0.29-1.76c-1.15-2.89-2.75-5.51-4.93-7.73
			c-1.86-1.89-4.53-2.08-6.65-0.44c-1.25,0.97-2.28,2.22-3.45,3.31c-1.78,1.66-3.56,3.32-5.41,4.9c-1.37,1.16-3.05,1.51-4.83,1.37
			c-1.66-0.13-3.06-1.13-3.35-2.6c-0.73-3.7-0.33-7.09,2.84-9.66c0.25-0.2,0.47-0.43,0.7-0.65c3.44-3.37,3.95-7.94,1.28-11.95
			c-0.62-0.93-1.32-1.82-2.1-2.61c-2.67-2.73-5.91-3.69-9.63-2.88c-1.52,0.33-1.99,0.04-2-1.56c0-0.59,0.04-1.2,0.2-1.77
			c0.43-1.55,0.94-3.08,1.43-4.66c-0.18-0.02-0.33-0.06-0.49-0.06c-0.2,0-0.4,0.03-0.59,0.07c-6.76,1.38-11.73,5.49-16.07,10.56
			c-0.72,0.84-0.65,1.73-0.09,2.75c0.94,1.7,1.77,3.47,2.46,5.28c0.47,1.24,0.37,2.58-0.3,4.15c-0.71-1.36-1.36-2.42-1.82-3.55
			c-1.79-4.4-4.66-7.99-8.22-11.05c-0.85-0.73-1.95-1.34-3.03-1.62c-5.88-1.5-11.46,0.93-14.55,5.43
			c-2.85,4.15-3.19,8.94,2.08,12.12c2.7,1.63,3.91,4.09,4.06,7.17c0.1,2.02-0.67,3.02-2.66,2.95c-2.06-0.07-4.11-0.4-6.17-0.58
			c-1.96-0.17-3.99-0.78-5.77,0.64c-2.01,1.59-3.33,3.66-4.07,6.08c-0.44,1.44-0.08,2.85,0.79,4.1c0.22,0.32,0.44,0.64,0.7,1
			c-1.95,0.37-2.78-1.2-4.08-2.21c-3.16,3.66-6.51,7.05-8.87,11.3c-2.01,3.62-4.26,7.11-6.5,10.6c-1.03,1.61-2.53,2.5-4.56,2.28
			c-0.78-0.08-1.57-0.01-2.36-0.01c0.42,2.57,1.87,5.09,4.05,7.21c1.17,1.13,2.5,1.45,4.24,0.99c-0.18-0.61-0.42-1.15-0.47-1.71
			c-0.12-1.25-0.35-2.54-0.15-3.75c0.26-1.54,1.39-1.86,2.5-0.78c1.8,1.77,3.89,0.9,6.19,1.05c-0.53-0.67-0.85-1.07-1.16-1.48
			c-1.01-1.34-1.48-2.79-1.13-4.49c0.18-0.91,0.62-1.25,1.55-1.25c2.12,0.01,4.24,0,6.35-0.15c2.7-0.19,2.75-0.37,1.41-2.63
			c-0.65-1.1-1.34-2.18-1.84-3.35c-0.73-1.72-0.2-2.37,1.58-2.46c2.7-0.15,5.47-0.13,8.08-0.73c2.64-0.61,5.12-1.89,7.68-2.86
			c0.39-0.15,0.84-0.22,1.26-0.23c1.44-0.05,2.89,0.06,4.31-0.12c3.43-0.43,6.25-4.19,6.89-7.89c0.4-2.32,0.61-4.67,0.98-6.99
			c0.29-1.79,1.23-2.56,2.88-2.44c0,0.38,0.03,0.78,0,1.17c-0.15,1.92-0.36,3.83-0.44,5.75c-0.08,1.91,1.06,3.36,2.97,3.73
			c2.54,0.5,4.94,0.29,6.86-1.76c0.57-0.61,1.21-1.17,1.78-1.78c1.77-1.9,3.94-2.76,6.54-2.68c1.32,0.04,2.18,0.61,2.75,1.75
			c1.05,2.11,0.64,4.46-1.06,6.09c-0.37,0.36-0.73,0.74-1.07,1.13c-1.48,1.68-1.26,3.42,0.59,4.65c2.09,1.4,4.47,1.97,6.92,2.06
			c3.55,0.13,5.54,2.25,6.82,5.18c1.28,2.93-0.16,5.16-3.33,5.45c-0.68,0.06-1.36,0.04-2.04,0.11c-1.94,0.2-3.59,0.87-4.28,2.9
			c-0.64,1.89-0.36,2.67,1.86,4.36c2.55,1.94,3.83,4.39,3.69,7.63c-0.08,1.84-0.93,2.98-2.74,3.36c-2.12,0.44-4.12,0.37-5.91-1.07
			c-0.4-0.32-0.89-0.55-1.37-0.72c-1.44-0.52-2.91-0.64-3.94,0.7c-0.52,0.68-0.85,1.65-0.91,2.51c-0.13,1.91-0.05,3.83-0.03,5.74
			c0.03,2.32-0.92,4.03-3.14,4.87c-1.45,0.55-2.93,1.09-4.44,1.41c-2.74,0.57-5.09-0.8-5.91-3.5c-0.32-1.05-0.48-2.38-0.1-3.34
			c0.3-0.76,1.49-1.3,2.39-1.65c0.38-0.15,1.04,0.43,1.57,0.68c-0.14-1.62-0.08-1.92-4.09-2.38c1.93-0.86,2.42-1.22,3.2-2.96
			c1.63-3.64,0.91-7.15-0.8-10.57c-0.03-0.06-0.19-0.06-0.38-0.12c0,1.26-0.03,2.46,0.01,3.65c0.11,3.3-0.72,6.32-2.71,8.97
			c-1.46,1.94-3.14,3.76-5.72,3.91c-3.2,0.19-6.37-0.25-9.39-1.42c-2.89-1.12-5.87-2.07-8.6-3.49c-2.7-1.41-5.57-2.91-5.99-6.56
			c-0.22-1.94-0.61-2.08-2.35-1.09c-1.35,0.76-2.64,1.65-4.04,2.29c-2.32,1.07-4.72,1.97-7.6,1.34c0.48,1.41,0.8,2.59,1.27,3.71
			c1.35,3.23,2.96,6.31,5.97,8.34c0.67,0.45,1.5,0.65,2.17,0.93c0-1.7-0.01-3.12,0-4.54c0.02-1.66,0.03-1.58,1.74-1.68
			c3.19-0.2,6.11,0.88,9.11,1.68c1.66,0.44,3.09,0.78,2.63,2.97c-0.02,0.07,0.02,0.16,0.04,0.23c1.38,5.47,4.42,9.66,9.5,12.26
			c0.73,0.37,1.48,0.71,2.35,1.12c-0.97,1.3-2.31,1.81-3.61,2.15c-2.37,0.62-4.66,0.34-6.56-1.64c-0.72,3.32-0.59,6.14,2.43,8.04
			c1.52,0.96,3.05,1.89,4.61,2.86c-1.79,0.99-3.56,2.07-5.98,1.72c3.34,3.62,7.28,5.4,12.07,5.49c-0.18,1.99,0.09,3.89,1.39,5.35
			c1.56,1.74,3.29,3.34,5.07,4.85c0.66,0.56,1.65,0.91,2.52,1c5.13,0.5,10.26,1.03,15.41,0.22c1.66-0.26,1.95-0.05,1.94,1.66
			c0,0.41-0.23,1-0.54,1.18c-0.88,0.51-1.83,1.1-2.81,1.22c-2.41,0.29-4.85,0.35-7.27,0.48c-0.66,0.04-1.32,0.01-1.9,0.01
			c0.09,1.3,0.23,2.49,0.24,3.68c0.01,0.92-0.38,1.6-1.44,1.72c-1.23,0.14-2.45,0.55-3.66,0.52c-1.71-0.05-2.94,0.69-3.92,1.91
			c-0.72,0.89-1.36,1.89-1.81,2.93c-1.85,4.32-1.67,8.9-1.52,13.46c0.01,0.39,0.37,0.77,0.7,1.42c1.52-2.59,2.75-4.97,4.25-7.17
			c1.41-2.07,3.03-4,4.68-5.89c0.48-0.55,1.36-0.74,2.18-1.16c0.22,3.57,0.39,6.8,0.61,10.02c0.14,2.08,0.36,2.22,2.56,2
			c0.03-0.07,0.09-0.14,0.1-0.21c0.08-4.74,0.5-9.39,2.82-13.7c0.74-1.37,0.16-2.04-1.4-2.04c-0.83,0-1.65-0.02-1.98-0.96
			c-0.18-0.52-0.23-1.09-0.34-1.64c-0.21-1.06,0.26-1.6,1.31-1.68c0.84-0.06,1.72,0.04,2.5-0.19c2.09-0.62,4.13-1.39,6.08-2.06
			c-0.26,0.78-0.66,1.78-0.92,2.81c-0.26,1.04-0.44,2.11-0.54,3.18c-0.26,2.68,0.33,3.84,2.92,4.59c2.63,0.76,5.36,1.18,8.06,1.66
			c2.37,0.42,4.37-0.38,6.11-2.03c0.93-0.87,1.96-1.64,3.01-2.37c2.03-1.41,3.21-1.43,5.06,0.19c2.57,2.27,5.47,3.37,8.9,3.09
			c0.56-0.05,1.12-0.03,1.68,0c3.33,0.17,5.92-1.42,8.2-3.59c1.28-1.21,2.41-2.57,2.72-4.41c0.55-3.24,2.72-5.04,5.58-6.18
			c1.24-0.49,2.4-0.3,3.5,0.5c0.9,0.65,1.88,1.21,2.86,1.74c3.28,1.78,7.06,1.27,9.79-1.22c0.29-0.26,0.91-0.36,1.31-0.26
			c0.95,0.24,1.86,0.64,2.79,0.98c0.32-0.47,0.56-0.82,0.85-1.25c-1.34-0.17-2.57-0.33-3.68-0.47c0.49-1.35,0.93-2.57,1.4-3.88
			c0.55,0,1.22,0.01,1.89,0c4.65-0.07,8.43-1.81,11.15-5.68c0.53-0.75,1.1-1.48,1.7-2.16C337.47,414.06,340.1,411.13,342.72,408.19z
			 M322.78,428.92c0.09,0.14,0.17,0.29,0.26,0.43c1.27-0.69,2.53-1.42,3.83-2.06c2.25-1.1,4.48-2.29,6.82-3.18
			c2.16-0.82,3.04-0.36,4.43,1.45c2.72,3.55,3.81,11.92-0.08,16.53c-3.59,4.25-8.06,7.37-12.62,10.4c-2.15,1.43-3.27,1.24-5.12-0.63
			c-0.73-0.74-1.36-1.57-2.03-2.36c-0.48-0.57-0.97-1.14-1.25-1.48c-1.84,0.83-3.46,1.65-5.15,2.3c-1.63,0.63-2.86,1.68-3.88,3.07
			c-1.28,1.74-2.26,3.62-2.54,5.75c-0.46,3.6-0.74,7.22-1.12,10.83c-0.13,1.24,0.71,1.69,1.63,2.05c0.93,0.37,1.03-0.56,1.34-1.01
			c2.53-3.72,5.57-6.9,9.48-9.17c1.32-0.77,2.75-1.22,4.57-0.98c0,1.7,0.03,3.37-0.01,5.03c-0.04,1.72,0.57,3.21,1.5,4.59
			c0.31,0.45,0.8,0.78,1.21,1.16c0.13-0.06,0.26-0.11,0.39-0.17c0-2.15,0.02-4.3-0.01-6.45c-0.02-2.22,0.56-4.31,2.18-5.78
			c2.26-2.06,4.63-4.07,7.21-5.67c2.43-1.52,4.74-3.08,6.61-5.26c1.35-1.58,2.78-3.09,4.09-4.71c2.18-2.7,3.76-5.76,4.62-9.12
			c1.11-4.35,0.95-8.81,0.75-13.24c-0.07-1.61-0.79-3.19-1.81-4.4c-0.67,2.06-1.27,4.06-1.97,6.03c-0.82,2.33-1.86,2.7-4,1.41
			c-0.88-0.53-1.64-1.28-2.52-1.82c-0.59-0.36-1.27-0.66-1.95-0.75c-2.36-0.32-4.59,0.22-6.73,1.24
			C327.82,424.46,325.08,426.39,322.78,428.92z M181.22,374.83c-0.12-0.01-0.23-0.02-0.35-0.03c-0.25,0.91-0.43,1.85-0.78,2.73
			c-0.5,1.29-0.92,2.69-1.74,3.75c-1.62,2.11-3.45,4.08-5.29,6.01c-1.71,1.79-3.62,3.39-5.31,5.19c-2.09,2.25-4.09,4.6-5.09,7.6
			c-1.73,5.18-2.77,10.44-2.59,15.97c0.08,2.68,0.85,4.88,2.37,6.97c1.19,1.64,2.82,2.43,4.8,2.5c1.08,0.04,2.16-0.06,3.23,0.04
			c1.41,0.13,2.61-0.37,3.38-1.43c1.45-2,2.71-4.14,4.05-6.23c-0.84,0.03-1.36,0.32-1.91,0.43c-3.17,0.64-5.97-0.08-8.12-2.56
			c-0.64-0.74-1.24-1.75-1.36-2.69c-0.39-3.08-0.2-6.14,1.39-8.95c0.63-1.11,1.15-2.29,1.84-3.36c2.95-4.6,5.9-9.2,8.95-13.74
			c1.3-1.94,2.15-3.99,2.3-6.32c0.11-1.59,0.22-3.19,0.31-4.78C181.33,375.58,181.25,375.2,181.22,374.83z M215.24,352.14
			c2.84,1.14,4.01,1,5.51-0.7c0.75-0.85,1.13-1.93,0.76-2.96c-0.38-1.03-1.45-1.21-2.52-1.14c-0.83,0.06-1.68,0-2.52,0.01
			c-1.24,0.02-1.86,0.61-1.82,1.85c0.02,0.76,0.2,1.52,0.32,2.36c-2.47,1.42-4.97,2.86-7.52,4.33c0.19,0.12,0.32,0.24,0.46,0.28
			c3.1,0.76,5.98,1.98,8.72,3.69c1.52,0.95,3.39,0.92,4.89-0.44c0.83-0.75,1.65-1.51,2.38-2.36c1.63-1.88,2.4-4.1,2.44-6.31
			c-1.46,1.59-3.05,3.24-4.54,4.97c-1.52,1.78-3.5,1.9-5.57,1.7c-0.77-0.07-1.65-0.25-1.83-1.24
			C214.13,354.74,214.17,353.33,215.24,352.14z M166.95,366.29c-0.21,0.4-0.33,0.59-0.42,0.81c-0.13,0.29-0.23,0.6-0.34,0.89
			c-1.08,2.68-0.76,5.5-0.83,8.28c-0.04,1.8,0.77,3.11,2.39,3.79c1.65,0.69,3.29,0.68,4.59-0.82c1.77-2.05,3.52-4.1,5.28-6.16
			c0.62-0.73,1.22-1.48,1.83-2.22c-0.59,0.03-0.99,0.27-1.41,0.47c-1.47,0.7-2.9,1.49-4.42,2.05c-1.45,0.53-2.71,0.16-3.82-1.12
			C168.34,370.54,167.58,368.59,166.95,366.29z M384.46,368.36c-0.87,2.96-1.76,5.98-2.65,9
			C383.63,374.6,385.21,371.76,384.46,368.36z"/>
		<path d="M342.72,408.19c-2.62,2.94-5.25,5.88-7.86,8.83c-0.61,0.69-1.18,1.41-1.7,2.16c-2.72,3.87-6.51,5.61-11.15,5.68
			c-0.67,0.01-1.35,0-1.89,0c-0.47,1.31-0.91,2.53-1.4,3.88c1.1,0.14,2.33,0.3,3.68,0.47c-0.29,0.43-0.53,0.78-0.85,1.25
			c-0.94-0.34-1.85-0.74-2.79-0.98c-0.4-0.1-1.02,0-1.31,0.26c-2.73,2.49-6.51,3-9.79,1.22c-0.98-0.53-1.96-1.09-2.86-1.74
			c-1.11-0.8-2.26-1-3.5-0.5c-2.86,1.14-5.03,2.94-5.58,6.18c-0.31,1.84-1.45,3.2-2.72,4.41c-2.29,2.17-4.87,3.76-8.2,3.59
			c-0.56-0.03-1.12-0.04-1.68,0c-3.42,0.28-6.32-0.82-8.9-3.09c-1.85-1.63-3.04-1.6-5.06-0.19c-1.05,0.73-2.09,1.5-3.01,2.37
			c-1.74,1.64-3.74,2.45-6.11,2.03c-2.7-0.48-5.44-0.9-8.06-1.66c-2.58-0.75-3.18-1.91-2.92-4.59c0.1-1.07,0.28-2.14,0.54-3.18
			c0.26-1.04,0.66-2.04,0.92-2.81c-1.94,0.67-3.99,1.43-6.08,2.06c-0.78,0.23-1.67,0.13-2.5,0.19c-1.05,0.08-1.51,0.62-1.31,1.68
			c0.11,0.55,0.16,1.12,0.34,1.64c0.33,0.94,1.15,0.96,1.98,0.96c1.56,0.01,2.15,0.67,1.4,2.04c-2.33,4.31-2.74,8.96-2.82,13.7
			c0,0.07-0.06,0.14-0.1,0.21c-2.19,0.22-2.41,0.08-2.55-2c-0.22-3.22-0.4-6.45-0.61-10.02c-0.81,0.42-1.7,0.61-2.18,1.16
			c-1.65,1.89-3.27,3.82-4.68,5.89c-1.5,2.2-2.73,4.58-4.25,7.17c-0.33-0.65-0.69-1.03-0.7-1.42c-0.15-4.56-0.33-9.14,1.52-13.46
			c0.45-1.05,1.1-2.04,1.81-2.93c0.98-1.22,2.2-1.96,3.92-1.91c1.21,0.04,2.44-0.37,3.66-0.52c1.07-0.13,1.45-0.8,1.44-1.72
			c-0.01-1.19-0.15-2.38-0.24-3.68c0.57,0,1.24,0.03,1.9-0.01c2.43-0.13,4.87-0.19,7.27-0.48c0.98-0.12,1.93-0.71,2.81-1.22
			c0.31-0.18,0.54-0.78,0.54-1.18c0.01-1.71-0.28-1.92-1.94-1.66c-5.15,0.81-10.28,0.28-15.41-0.22c-0.87-0.09-1.86-0.44-2.52-1
			c-1.78-1.51-3.52-3.11-5.07-4.85c-1.3-1.45-1.56-3.36-1.39-5.35c-4.79-0.09-8.72-1.87-12.07-5.49c2.42,0.35,4.19-0.73,5.98-1.72
			c-1.56-0.97-3.09-1.9-4.61-2.86c-3.02-1.9-3.15-4.73-2.43-8.04c1.9,1.98,4.18,2.25,6.56,1.64c1.31-0.34,2.64-0.85,3.61-2.15
			c-0.87-0.41-1.62-0.75-2.35-1.12c-5.08-2.6-8.12-6.79-9.5-12.26c-0.02-0.08-0.06-0.16-0.04-0.23c0.46-2.19-0.97-2.52-2.63-2.97
			c-3-0.8-5.92-1.87-9.11-1.68c-1.7,0.11-1.72,0.02-1.74,1.68c-0.02,1.42,0,2.84,0,4.54c-0.67-0.28-1.51-0.48-2.17-0.93
			c-3.01-2.03-4.62-5.11-5.97-8.34c-0.47-1.12-0.79-2.3-1.27-3.71c2.88,0.63,5.28-0.27,7.6-1.34c1.4-0.64,2.69-1.53,4.04-2.29
			c1.74-0.99,2.13-0.85,2.35,1.09c0.42,3.65,3.29,5.15,5.99,6.56c2.73,1.43,5.71,2.38,8.6,3.49c3.02,1.17,6.19,1.6,9.39,1.42
			c2.58-0.15,4.26-1.97,5.72-3.91c1.99-2.65,2.82-5.67,2.71-8.97c-0.04-1.19-0.01-2.39-0.01-3.65c0.2,0.06,0.35,0.06,0.38,0.12
			c1.7,3.41,2.43,6.92,0.8,10.57c-0.78,1.74-1.27,2.1-3.2,2.96c4.01,0.46,3.95,0.76,4.09,2.38c-0.53-0.25-1.19-0.83-1.57-0.68
			c-0.9,0.35-2.08,0.89-2.39,1.65c-0.38,0.96-0.22,2.29,0.1,3.34c0.82,2.7,3.17,4.07,5.91,3.5c1.51-0.31,2.99-0.86,4.44-1.41
			c2.22-0.83,3.16-2.55,3.14-4.87c-0.02-1.92-0.1-3.84,0.03-5.74c0.06-0.86,0.39-1.83,0.91-2.51c1.02-1.34,2.5-1.22,3.94-0.7
			c0.48,0.17,0.98,0.41,1.37,0.72c1.79,1.44,3.8,1.51,5.91,1.07c1.81-0.38,2.66-1.52,2.74-3.36c0.14-3.23-1.14-5.69-3.69-7.63
			c-2.22-1.69-2.51-2.47-1.86-4.36c0.69-2.03,2.35-2.7,4.28-2.9c0.67-0.07,1.36-0.05,2.04-0.11c3.17-0.29,4.61-2.51,3.33-5.45
			c-1.28-2.93-3.27-5.05-6.82-5.18c-2.45-0.09-4.83-0.66-6.92-2.06c-1.85-1.23-2.06-2.97-0.59-4.65c0.34-0.39,0.7-0.77,1.07-1.13
			c1.7-1.64,2.11-3.99,1.06-6.09c-0.57-1.14-1.43-1.71-2.75-1.75c-2.6-0.09-4.77,0.77-6.54,2.68c-0.57,0.61-1.21,1.17-1.78,1.78
			c-1.92,2.04-4.32,2.25-6.86,1.76c-1.91-0.37-3.06-1.82-2.97-3.73c0.08-1.92,0.3-3.83,0.44-5.75c0.03-0.39,0-0.78,0-1.17
			c-1.65-0.12-2.59,0.65-2.88,2.44c-0.38,2.32-0.58,4.67-0.98,6.99c-0.64,3.7-3.47,7.46-6.89,7.89c-1.42,0.18-2.87,0.07-4.31,0.12
			c-0.42,0.02-0.87,0.08-1.26,0.23c-2.56,0.96-5.04,2.25-7.68,2.86c-2.61,0.6-5.37,0.58-8.08,0.73c-1.78,0.1-2.31,0.74-1.58,2.46
			c0.49,1.17,1.19,2.26,1.84,3.35c1.34,2.26,1.29,2.44-1.41,2.63c-2.11,0.15-4.23,0.16-6.35,0.15c-0.93,0-1.37,0.34-1.55,1.25
			c-0.34,1.7,0.13,3.15,1.13,4.49c0.31,0.41,0.63,0.81,1.16,1.48c-2.3-0.15-4.39,0.72-6.19-1.05c-1.11-1.09-2.24-0.77-2.5,0.78
			c-0.2,1.21,0.03,2.5,0.15,3.75c0.05,0.56,0.3,1.1,0.47,1.71c-1.74,0.47-3.07,0.15-4.24-0.99c-2.19-2.12-3.63-4.65-4.05-7.21
			c0.79,0,1.59-0.07,2.36,0.01c2.03,0.22,3.53-0.68,4.56-2.28c2.23-3.49,4.48-6.98,6.5-10.6c2.36-4.25,5.71-7.64,8.87-11.3
			c1.29,1.01,2.13,2.58,4.08,2.21c-0.25-0.37-0.48-0.68-0.7-1c-0.86-1.25-1.23-2.66-0.79-4.1c0.74-2.41,2.06-4.49,4.07-6.08
			c1.79-1.41,3.81-0.81,5.77-0.64c2.06,0.18,4.11,0.52,6.17,0.58c1.99,0.06,2.76-0.93,2.66-2.95c-0.15-3.08-1.36-5.54-4.06-7.17
			c-5.27-3.19-4.93-7.98-2.08-12.12c3.09-4.5,8.67-6.93,14.55-5.43c1.08,0.28,2.18,0.88,3.03,1.62c3.55,3.06,6.42,6.65,8.22,11.05
			c0.46,1.13,1.12,2.19,1.82,3.55c0.67-1.57,0.77-2.91,0.3-4.15c-0.69-1.81-1.52-3.58-2.46-5.28c-0.56-1.02-0.64-1.9,0.09-2.75
			c4.34-5.06,9.31-9.17,16.07-10.56c0.19-0.04,0.39-0.06,0.59-0.07c0.15,0,0.31,0.03,0.49,0.06c-0.49,1.58-0.99,3.11-1.43,4.66
			c-0.16,0.56-0.2,1.18-0.2,1.77c0,1.6,0.48,1.89,2,1.56c3.72-0.81,6.97,0.15,9.63,2.88c0.78,0.79,1.48,1.68,2.1,2.61
			c2.67,4.01,2.16,8.58-1.28,11.95c-0.23,0.22-0.45,0.45-0.7,0.65c-3.17,2.57-3.57,5.96-2.84,9.66c0.29,1.48,1.69,2.48,3.35,2.6
			c1.79,0.13,3.46-0.21,4.83-1.37c1.85-1.57,3.63-3.24,5.41-4.9c1.17-1.09,2.2-2.34,3.45-3.31c2.11-1.63,4.79-1.44,6.65,0.44
			c2.18,2.22,3.79,4.84,4.93,7.73c0.22,0.54,0.29,1.17,0.29,1.76c-0.02,2.12-0.1,4.23-0.18,6.35c-0.05,1.5-0.69,2.58-2,3.44
			c-2.74,1.78-5.58,3.26-8.83,3.84c-0.39,0.07-0.77,0.21-1.15,0.31c-1.47,0.39-3,0.89-3.2,2.63c-0.22,1.98,0.33,3.81,2.04,5.09
			c1.18,0.89,2.52,0.65,3.81,0.43c0.94-0.16,1.84-0.54,2.77-0.74c2.76-0.59,5.52-1.26,8.31-1.67c2.8-0.41,4.14,0.84,4.26,3.7
			c0.06,1.44,0.03,2.88-0.05,4.32c-0.03,0.62-0.18,1.29-0.46,1.84c-1.8,3.53-5.62,7.5-10.72,7.14c-2.7-0.19-5.43,0-8.15,0.09
			c-1.81,0.06-1.98,0.31-1.95,2.07c0.06,3.04,1.48,4.54,4.54,4.93c1.22,0.16,2.44,0.39,3.62,0.75c1.06,0.32,1.72,1.15,1.39,2.3
			c-0.46,1.59-0.84,3.28-1.67,4.67c-2.42,4.05-6.99,3.3-9.58,1.27c-1.22-0.96-2.33-2.07-3.47-3.13c-1.33-1.24-2.87-1.06-4.38-0.56
			c-1.11,0.37-1.72,1.47-1.39,2.61c0.33,1.17,0.84,2.32,1.48,3.35c0.49,0.8,1.23,1.48,1.97,2.07c2.02,1.61,2.82,3.64,1.85,6.04
			c-0.94,2.32-2.86,3.63-5.38,3.8c-1.23,0.08-2.49,0-3.7-0.21c-1.35-0.24-2.64-0.83-3.37-2.08c-1.06-1.82-2.02-3.69-2.98-5.56
			c-0.36-0.7-0.61-1.45-1.03-2.48c-0.9,0.85-1.68,1.5-2.36,2.24c-2.17,2.37-4.37,4.68-7.44,5.91c-0.44,0.18-0.89,0.45-1.35,0.49
			c-4.2,0.3-8.41,0.65-12.12-2.01c-0.19-0.13-0.4-0.23-0.77-0.44c-0.3,0.99-0.77,1.87-0.81,2.78c-0.17,3.43-2.57,4.9-5.29,5.7
			c-1.55,0.46-3.38,0.01-5.08-0.06c-0.62-0.03-1.24-0.15-1.99-0.25c0.6,1.77,1.97,2.58,3.21,3.47c0.67,0.48,1.44,0.87,2.21,1.18
			c0.74,0.3,0.85,0.78,0.82,1.5c-0.08,2.04-1.22,3.39-2.87,4.54c1.47,0,2.83,0.03,4.18-0.03c0.23-0.01,0.49-0.36,0.66-0.61
			c0.63-0.92,1.22-1.86,1.91-2.91c0.42,1.29,0.74,2.51,1.22,3.66c0.41,0.99,0.9,1.96,1.5,2.84c1.95,2.84,4.72,2.81,7.6,1.9
			c2.32-0.73,4.51-0.83,6.7,0.41c1.03,0.58,2.07,0.23,2.86-0.54c1.82-1.78,3.61-3.6,5.36-5.47c1-1.07,2.22-1.27,3.38-0.36
			c1.3,1.01,1.77,2.38,1.79,4c0.02,1.79,0.08,1.77,1.86,1.66c1.19-0.08,2.15-0.58,2.9-1.48c0.79-0.95,1.61-1.88,2.35-2.88
			c0.78-1.05,1.85-1.26,2.87-0.78c1.53,0.73,3.06,1.59,4.36,2.67c1.2,0.99,0.8,2.48,0.41,3.81c-0.13,0.45-0.39,0.86-0.62,1.37
			c-0.32-0.24-0.57-0.41-0.82-0.6c-1.25-0.95-2.29-0.89-3.41,0.19c-2.27,2.21-3.32,4.82-2.71,8.02c0.29,1.51,0.94,2.18,2.51,2.15
			c2.44-0.05,4.84-0.26,7.1-1.38c1.68-0.84,3.84-0.08,4.79,1.53c0.57,0.96,1.08,1.94,1.64,2.96c1.51-0.4,2.85-1.03,3.55-2.34
			c0.98-1.82,2.02-3.68,2.53-5.65c0.92-3.51,3.18-3.87,6.29-2.66c0.98,0.38,1.78,1.21,2.67,1.81c1.02,0.69,2.03,1.42,3.09,2.04
			c2.38,1.38,4.57,0.74,5.96-1.68c0.1-0.17,0.19-0.35,0.28-0.53c2.25-4.2,1.15-7.42-3.2-9.32c-0.15-0.06-0.3-0.11-0.44-0.18
			c-2.17-0.98-3.03-2.29-2.68-4.1c0.42-2.22,2.34-3.98,4.44-4.06c2.12-0.08,4.15,0.26,5.95,1.46c1.73,1.15,3.52,2.22,5.14,3.51
			c2.89,2.32,5.94,1.92,8.31,0.29c1.19-0.82,2.7-1.69,3.19-2.89c1.22-2.98,0.05-5.19-3.65-6.35c-1.32-0.42-2.85-0.3-4.28-0.25
			c-2.69,0.1-5.12-0.8-7.52-1.78c-1.5-0.61-2.3-1.76-2.2-3.58c0.21-3.94,2.41-7.39,5.81-8.41c2.52-0.76,5.13-0.43,7.55,0.42
			c3.71,1.3,7.5,1.47,11.35,1.31c2.2-0.09,4.19-0.8,5.77-2.31c3.05-2.93,3.18-5.26,2.05-9.44c-0.35-1.3-1.81-1.79-3.11-1.86
			c-2.31-0.12-4.58,0.14-6.89,0.58c-2.18,0.42-4.54,0.38-6.75,0.07c-3.22-0.46-3.59-3.09-2.11-5.45c2.31-3.68,5.81-5.85,10.25-6.28
			c0.16-0.02,0.32-0.04,0.48-0.03c5.42,0.2,8.21-3.3,10.06-7.6c0.93-2.17,0.69-4.75-0.43-6.99c-0.65-1.31-1.93-1.8-3.38-1.91
			c-4.27-0.33-7.91,1.22-11.21,3.74c-1.81,1.38-3.74,1.73-5.86,1c-2.91-0.99-4.35-3.49-4.35-6.54c0-3.59,2.15-5.72,4.63-7.68
			c2.65-2.09,5.14-4.31,6.93-7.22c1.46-2.37,1.5-4.85,0.61-7.36c-0.75-2.12-2.37-2.53-4.13-1.14c-0.69,0.54-1.27,1.22-1.91,1.81
			c-1.23,1.14-2.9,1.41-4.29,0.55c-0.37-0.23-0.62-0.89-0.68-1.38c-0.4-3.78,0.99-7.06,2.97-10.14c1.43-2.22,1.24-4.47,0.29-6.75
			c-0.33-0.8-0.78-1.58-1.88-1.59c-1.19-0.02-2.08,0.41-2.66,1.47c-0.4,0.73-0.76,1.51-1.28,2.15c-1.4,1.72-3.25,2.24-5.25,1.3
			c-1.47-0.69-2.9-1.55-4.15-2.58c-2.29-1.89-2.55-6.58-0.62-9.38c0.86-1.25,1.84-2.41,2.73-3.64c1.15-1.59,0.87-3.37,0.37-5.06
			c-0.14-0.48-0.95-1-1.51-1.06c-0.93-0.1-1.92,0.03-2.84,0.27c-2.79,0.73-4.88-0.51-5.45-3.41c-0.26-1.29-0.68-2.44-1.8-3.26
			c-0.89-0.65-1.82-0.93-2.91-0.82c-1.44,0.14-1.68,0.52-1.3,1.95c0.26,0.95,0.54,1.95,0.5,2.92c-0.21,4.58-4.09,6.43-7.89,4.47
			c-3.35-1.72-5.23-4.58-5.08-8.55c0.05-1.39-0.06-2.79-0.18-4.19c-0.09-1.04-0.71-1.51-1.79-1.48c-2.99,0.08-5.72,0.82-8.15,2.68
			c-1.83,1.4-3.77,2.69-5.72,3.92c-0.6,0.38-1.41,0.55-2.14,0.58c-1.51,0.05-3.08,0.16-4.54-0.17c-1.27-0.28-2.49-1-3.56-1.76
			c-0.39-0.27-0.4-1.22-0.36-1.85c0.01-0.19,0.76-0.38,1.19-0.49c1.34-0.34,2.72-0.57,4.04-0.98c0.52-0.16,0.93-0.67,1.38-1.02
			c-0.06-0.14-0.12-0.28-0.19-0.42c-1.25,0.39-2.53,0.7-3.73,1.21c-1.68,0.71-3.38,1.1-5.22,1.08c-1.36-0.02-2.51-0.3-3.5-1.23
			c-0.31-0.29-0.69-0.5-1.21-0.88c0,0.93,0,1.66,0,2.54c-1.9-0.79-3.55-1.72-4.11-3.6c-0.67-2.24-1-4.58-1.48-6.88
			c-0.07-0.34-0.15-0.69-0.49-1.1c-0.46,1.01-0.93,2.02-1.53,3.33c-0.18-2.28-0.24-4.22,0.76-6.06c0.46-0.84,0.89-1.7,1.34-2.54
			c0.68-1.27,0.6-2.59,0.39-4.01c-0.74,0.17-1.39,0.31-2.34,0.53c1.49-2.15,2.75-4.04,5.02-5.1c2.16-1.01,4.4-1.3,6.69-1.17
			c1.08-4.75-2.22-6.88-5.52-9.35c2.47-0.05,4.6-0.26,6.63,0.62c2.2,0.96,4.49,1.35,6.89,1.25c3.95-0.16,7.93-0.03,11.85-0.45
			c7.31-0.78,12.73-4.51,15.98-11.15c0.31,1.09,0.16,2.45-0.71,4.71c-1.83,4.77-4.83,8.7-9.2,11.34c-4.23,2.55-8.61,4.91-13.08,7
			c-3.57,1.67-6.32,3.97-8.09,7.46c-0.09,0.18-0.21,0.34-0.31,0.49c-3.31-1.82-3.53-4.75-2.78-8.03c-2.48,0.32-4.45,1.45-6.07,3.07
			c-0.62,0.62-1.07,1.69-1.09,2.56c-0.07,2.51-0.01,5.04,0.22,7.54c0.2,2.14,1.21,4.03,2.49,5.76c0.79,1.07,1.8,1.58,3.19,1.52
			c1.97-0.08,3.85-0.29,5.67-1.23c1.17-0.6,2.58-0.74,3.92-1.1c0.16-1.39-0.69-2.37-2.25-2.39c-1.75-0.03-3.49-0.01-5.37-0.28
			c0.45-0.33,0.88-0.69,1.34-1c4.25-2.86,8.75-3.97,13.69-1.89c0.73,0.31,1.53,0.46,2.3,0.67c2.92,0.81,5.85,0.75,8.75-0.08
			c0.79-0.23,1.56-0.59,2.29-0.99c1.64-0.91,3.2-1.97,4.88-2.8c4.01-1.98,9.03-1.81,12.41,2.24c0.94,1.13,1.34,2.76,1.84,4.21
			c0.49,1.43,0.78,2.93,1.19,4.39c0.29,1.03,0.98,1.42,2.06,1.42c2.6,0.01,5.04-0.45,7.41-1.62c3.92-1.93,8.93-1.09,12.12,1.87
			c2.39,2.22,4.47,4.72,5.88,7.66c0.6,1.25,0.98,2.74,0.95,4.11c-0.06,2.34-0.61,4.65-0.8,6.99c-0.16,1.94-0.22,3.9-0.13,5.85
			c0.06,1.32,1.16,2.04,2.29,2.34c1.96,0.53,3.95,0.99,5.96,1.24c4.77,0.59,7.6,3.69,7.6,8.53c0,1.28-0.04,2.56-0.02,3.84
			c0.05,2.8-0.47,5.45-1.73,7.99c-1.7,3.41-1.53,6.95-0.29,10.47c0.45,1.26,1.31,1.89,2.74,1.83c1.75-0.08,3.52,0.05,5.28,0
			c3.25-0.09,4.65,2.51,4.85,4.87c0.39,4.48-0.66,8.55-3.68,12.03c-0.99,1.14-1.73,2.52-2.77,3.61c-2.43,2.54-2.33,5.44-1.45,8.5
			c0.93,3.24,2.99,5.62,5.77,7.38c1.28,0.81,1.68,1.83,1.54,3.31c-0.34,3.69-1.83,6.65-4.42,9.39c-3.57,3.79-7.9,5.82-12.77,7.12
			c-1.13,0.3-2.24,0.84-3.24,1.47c-1.03,0.65-1.05,1.69-0.1,2.48c0.76,0.63,1.67,1.08,2.48,1.67c0.61,0.44,1.16,0.97,1.57,1.7
			c0.11-0.01,0.24,0,0.33-0.05c2.51-1.32,2.59-1.29,3.9,1.17c0.34,0.63,0.66,1.27,1.02,1.9c0.54,0.95,1.3,1.12,2.2,0.5
			c2.63-1.81,5.24-3.65,7.88-5.43c2.44-1.65,4.85-3.38,7.41-4.84c3.8-2.16,6.96-5.05,9.96-8.16c1.86-1.92,3.77-3.79,5.58-5.75
			c0.91-0.99,1.66-2.13,2.68-3.14c-0.37,0.87-0.65,1.79-1.13,2.59c-4.41,7.39-9.74,13.94-17.16,18.55
			c-2.07,1.28-4.22,2.44-6.33,3.65c-5.32,3.04-10.27,6.61-14.8,10.6c0.41-2.11,0.84-4.27,1.26-6.44
			C342.91,408.17,342.82,408.18,342.72,408.19z M320.2,424.05c4.29-0.24,12.92-7.1,14.11-11.38c-2.32,1.18-4.77,1.54-7.32,1.52
			c-2-0.01-4,0-5.99,0.11c-1.66,0.09-2.47,1.01-2.39,2.66c0.04,0.95,0.17,1.91,0.39,2.83C319.34,421.22,319.79,422.61,320.2,424.05z
			 M243.28,315.36c0.15,0.11,0.3,0.21,0.45,0.32c1-0.8,2.1-1.5,2.97-2.42c1.7-1.81,2.77-4.02,3.13-6.48
			c0.4-2.67,1.96-4.47,4.08-5.92c0.31-0.21,0.64-0.41,1.28-0.82c-1.17-0.61-2.07-1.38-3.07-1.55c-2.25-0.37-3.79,1.01-4.61,2.88
			c-1.2,2.71-2.2,5.52-3.08,8.35C243.85,311.53,243.65,313.47,243.28,315.36z M216.44,383.44c-2.09-0.97-3.89-1.8-5.98-2.77
			C211.92,383.01,213.7,383.9,216.44,383.44z"/>
		<path d="M322.78,428.92c2.3-2.53,5.04-4.46,8.13-5.94c2.14-1.02,4.37-1.56,6.73-1.24c0.67,0.09,1.36,0.39,1.95,0.75
			c0.88,0.54,1.64,1.29,2.52,1.82c2.14,1.29,3.17,0.92,4-1.41c0.7-1.97,1.3-3.97,1.97-6.03c1.01,1.21,1.73,2.79,1.81,4.4
			c0.2,4.43,0.37,8.89-0.75,13.24c-0.86,3.36-2.44,6.42-4.62,9.12c-1.3,1.62-2.73,3.13-4.09,4.71c-1.87,2.18-4.18,3.74-6.61,5.26
			c-2.58,1.61-4.95,3.62-7.21,5.67c-1.62,1.47-2.2,3.56-2.18,5.78c0.02,2.15,0.01,4.3,0.01,6.45c-0.13,0.06-0.26,0.11-0.39,0.17
			c-0.41-0.38-0.9-0.71-1.21-1.16c-0.94-1.37-1.54-2.87-1.5-4.59c0.04-1.67,0.01-3.33,0.01-5.03c-1.82-0.24-3.24,0.22-4.57,0.98
			c-3.91,2.27-6.96,5.45-9.48,9.17c-0.31,0.46-0.4,1.38-1.34,1.01c-0.92-0.36-1.76-0.81-1.63-2.05c0.37-3.61,0.66-7.23,1.12-10.83
			c0.27-2.13,1.26-4.01,2.54-5.75c1.02-1.39,2.25-2.43,3.88-3.07c1.69-0.66,3.31-1.47,5.15-2.3c0.28,0.34,0.77,0.91,1.25,1.48
			c0.67,0.79,1.3,1.63,2.03,2.36c1.86,1.87,2.97,2.06,5.12,0.63c4.56-3.03,9.03-6.15,12.62-10.4c3.9-4.61,2.81-12.99,0.08-16.53
			c-1.39-1.81-2.27-2.27-4.43-1.45c-2.34,0.89-4.57,2.08-6.82,3.18c-1.3,0.64-2.55,1.37-3.83,2.06
			C322.95,429.21,322.86,429.07,322.78,428.92z"/>
		<path d="M181.22,374.83c0.03,0.38,0.11,0.75,0.09,1.12c-0.09,1.59-0.2,3.19-0.31,4.78c-0.16,2.33-1,4.38-2.3,6.32
			c-3.04,4.54-6,9.14-8.95,13.74c-0.69,1.07-1.21,2.25-1.84,3.36c-1.59,2.81-1.78,5.86-1.39,8.95c0.12,0.95,0.71,1.95,1.36,2.69
			c2.15,2.48,4.95,3.2,8.12,2.56c0.56-0.11,1.08-0.41,1.91-0.43c-1.34,2.08-2.6,4.22-4.05,6.23c-0.77,1.06-1.96,1.56-3.38,1.43
			c-1.07-0.1-2.16,0-3.23-0.04c-1.99-0.08-3.61-0.86-4.8-2.5c-1.52-2.08-2.29-4.28-2.37-6.97c-0.17-5.53,0.87-10.79,2.59-15.97
			c1-3,2.99-5.35,5.09-7.6c1.68-1.81,3.6-3.4,5.31-5.19c1.84-1.93,3.66-3.9,5.29-6.01c0.82-1.07,1.24-2.47,1.74-3.75
			c0.34-0.88,0.52-1.82,0.78-2.73C180.98,374.81,181.1,374.82,181.22,374.83z"/>
		<path d="M215.24,352.14c-1.06,1.19-1.1,2.6-0.83,4.05c0.19,0.99,1.06,1.17,1.83,1.24c2.07,0.2,4.05,0.07,5.57-1.7
			c1.49-1.73,3.08-3.38,4.54-4.97c-0.04,2.21-0.81,4.43-2.44,6.31c-0.73,0.84-1.55,1.61-2.38,2.36c-1.51,1.36-3.38,1.39-4.89,0.44
			c-2.74-1.71-5.61-2.93-8.72-3.69c-0.15-0.04-0.27-0.16-0.46-0.28c2.55-1.47,5.04-2.9,7.52-4.33c-0.12-0.84-0.3-1.6-0.32-2.36
			c-0.04-1.24,0.58-1.83,1.82-1.85c0.84-0.01,1.68,0.04,2.52-0.01c1.07-0.07,2.13,0.1,2.52,1.14c0.38,1.02-0.01,2.11-0.76,2.96
			C219.25,353.15,218.07,353.28,215.24,352.14z"/>
		<path d="M166.95,366.29c0.63,2.3,1.38,4.26,2.84,5.94c1.1,1.28,2.36,1.65,3.82,1.12c1.52-0.55,2.96-1.35,4.42-2.05
			c0.42-0.2,0.82-0.44,1.41-0.47c-0.61,0.74-1.21,1.49-1.83,2.22c-1.75,2.06-3.51,4.12-5.28,6.16c-1.3,1.5-2.94,1.51-4.59,0.82
			c-1.62-0.68-2.43-1.99-2.39-3.79c0.07-2.78-0.25-5.6,0.83-8.28c0.12-0.3,0.22-0.6,0.34-0.89
			C166.62,366.88,166.74,366.69,166.95,366.29z"/>
		<path d="M384.46,368.36c0.75,3.39-0.82,6.23-2.65,9C382.7,374.35,383.59,371.33,384.46,368.36z"/>
		<path class="st0" d="M320.2,424.05c-0.41-1.44-0.86-2.83-1.2-4.25c-0.22-0.92-0.35-1.88-0.39-2.83c-0.07-1.64,0.73-2.56,2.39-2.66
			c1.99-0.11,3.99-0.13,5.99-0.11c2.54,0.02,5-0.34,7.32-1.52C333.12,416.95,324.49,423.81,320.2,424.05z"/>
		<path class="st0" d="M243.28,315.36c0.37-1.89,0.57-3.83,1.14-5.65c0.88-2.83,1.88-5.64,3.08-8.35c0.83-1.87,2.36-3.25,4.61-2.88
			c1,0.16,1.9,0.93,3.07,1.55c-0.64,0.41-0.97,0.6-1.28,0.82c-2.12,1.45-3.68,3.24-4.08,5.92c-0.36,2.46-1.43,4.67-3.13,6.48
			c-0.87,0.92-1.97,1.62-2.97,2.42C243.58,315.57,243.43,315.46,243.28,315.36z"/>
		<path class="st0" d="M216.44,383.44c-2.74,0.46-4.53-0.44-5.98-2.77C212.55,381.64,214.35,382.48,216.44,383.44z"/>
	</g>
</g>
</svg>
