<?xml version="1.0" encoding="utf-8"?>
<!-- Generator: Adobe Illustrator 24.1.3, SVG Export Plug-In . SVG Version: 6.00 Build 0)  -->
<svg version="1.1" id="Calque_1" xmlns="http://www.w3.org/2000/svg" xmlns:xlink="http://www.w3.org/1999/xlink" x="0px" y="0px"
	 viewBox="0 0 595.28 841.89" style="enable-background:new 0 0 595.28 841.89;" xml:space="preserve">
<style type="text/css">
	.st0{fill:#FFFFFF;}
</style>
<g>
	<g>
		<path class="st0" d="M58,180.89c160,0,320,0,480,0c0,160,0,320,0,480c-160,0-320,0-480,0C58,500.89,58,340.89,58,180.89z
			 M290.39,393.51c0.11,2.18,0.19,4.13,0.3,6.06c0.07,1.18,0.16,2.37,0.29,3.54c0.28,2.38,0.59,4.75,0.91,7.12
			c0.07,0.49,0.13,1.07,0.42,1.43c1.1,1.37,2.55,2.42,3.39,4.06c0.34,0.66,1.25,1.27,2.24,0.95c1.82-0.57,3.89-0.82,5.37-1.89
			c1.51-1.08,2.44-1.45,4.27-0.63c1.71,0.77,3.84,0.7,5.8,0.82c3.84,0.23,7.69,0.38,11.54,0.48c1.58,0.04,3.17-0.13,4.75-0.22
			c3.49-0.21,6.79-1.06,9.6-3.21c1.2-0.92,2.45-2.01,3.14-3.3c0.75-1.43,1-3.17,1.26-4.81c0.29-1.83,0.34-3.69,0.52-5.53
			c0.13-1.37,0.28-2.74,0.49-4.09c0.13-0.82,0.49-1.45,1.54-0.95c0.52,0.25,1.08,0.4,1.63,0.56c2.51,0.71,5.02,1.44,7.55,2.08
			c0.27,0.07,0.86-0.32,0.99-0.63c1.01-2.32,1.93-4.68,2.91-7.01c0.86-2.04,1.76-4.06,2.7-6.22c0.26,0,0.7,0,1.13,0
			c1.85,0,1.87,0,1.91-1.87c0.01-0.6,0.17-0.89,0.81-1.08c0.52-0.16,1.3-0.72,1.29-1.07c-0.04-1.14,0.65-1.27,1.43-1.49
			c0.75-0.21,1.72-0.05,1.99-1.13c0.43-1.78,1.56-2.77,3.4-2.94c0.23-0.02,0.48-0.1,0.66-0.24c0.35-0.27,0.79-0.53,0.94-0.9
			c1.01-2.4,1.78-4.93,2.99-7.23c1.09-2.06,1.58-4.15,1.64-6.41c0.01-0.33,0.08-0.75,0.29-0.97c0.68-0.71,1.45-1.35,2.17-2.03
			c2.44-2.29,4.59-4.74,5.23-8.2c0.16-0.87,0.28-1.91,0.82-2.5c1.26-1.38,2.82-2.48,4.16-3.79c2.71-2.64,5.4-5.32,8.01-8.07
			c0.43-0.45,0.61-1.3,0.59-1.96c-0.01-0.39-0.68-1.12-0.99-1.08c-2.18,0.22-4.35,0.52-6.5,0.97c-1.46,0.31-2.87,0.89-4.38,1.38
			c2.92-3.47,5.85-6.8,8.61-10.28c2.46-3.09,4.19-6.53,4.04-10.65c-0.05-1.54-1.06-2.7-2.58-2.55c-1.94,0.2-3.89,0.52-5.76,1.05
			c-3.13,0.87-6.21,1.95-9.34,2.95c2.32-3.23,5.32-5.85,7.16-9.41c1.03-2,1.68-4,1.38-6.22c-0.26-1.84-1.6-3.59-3.74-3.26
			c-1.84,0.29-3.81,0.47-5.42,1.29c-3.2,1.62-6.2,3.64-9.27,5.52c-0.93,0.57-1.83,1.21-2.74,1.82c1.47-1.93,3-3.77,4.7-5.41
			c2.78-2.68,5.7-5.21,8.51-7.86c0.99-0.93,1.14-2.32,0.66-3.43c-0.53-1.26-1.58-2.19-3.18-2.28c-2.56-0.14-4.96,0.59-7.17,1.61
			c-4.05,1.88-7.93,4.11-12,6.26c0.04-0.37-0.12-1.1,0.18-1.42c2.36-2.56,4.74-5.11,7.25-7.52c2.93-2.82,6.45-5,8.88-8.38
			c0.7-0.98,1.17-1.88,0.73-3.01c-0.45-1.18-1.49-1.76-2.67-1.88c-6.21-0.63-11.33,1.72-15.72,5.94c-0.56,0.54-1.13,1.08-1.76,1.68
			c0-3.85,0-7.51,0-11.2c1.25-0.1,2.43-0.2,3.61-0.28c1.04-0.07,3.27-1.5,3.24-2.26c-0.09-2.24-0.16-4.51-0.55-6.71
			c-0.2-1.1-1.25-2.05-2.48-2.03c-2.81,0.04-5.62,0.17-8.41,0.48c-2.52,0.28-3.62,1.73-3.63,4.26c0,1.02,0,2.05,0,2.83
			c-4.07,0.36-7.98,0.61-11.86,1.07c-1.63,0.2-3.51,0.5-4.23,2.3c-0.6,1.5-1.04,3.14-1.13,4.75c-0.13,2.41,0.05,4.85,0.22,7.26
			c0.05,0.67,0.52,1.3,0.8,1.96c-0.74,0.28-1.71,0.58-2.63,1.01c-3.72,1.75-7.43,3.55-11.15,5.32c-0.25,0.12-0.61,0.26-0.81,0.16
			c-1.74-0.85-3.47-1.73-5.17-2.66c-0.75-0.41-1.37-1.06-2.12-1.47c-1.26-0.68-2.49-1.18-2.75-2.94c-0.23-1.6-0.89-3.15-1.44-4.68
			c-0.5-1.37-0.56-3.21-2.7-2.95c-0.21-2.74-0.42-5.38-0.63-8.02c-0.19-2.31-1.09-4.13-3.35-5.13c-1.55-0.68-1.97-0.63-2.62,0.96
			c-0.54,1.32-0.91,2.72-1.39,4.19c-0.45-0.16-0.87-0.26-1.24-0.44c-1.19-0.58-2.37-1.2-3.56-1.8c-1.42-0.71-1.95-0.48-2.5,1.06
			c-0.51,1.41-1.02,2.81-1.5,4.14c-1.95-0.48-3.75-1.03-5.59-1.33c-1.2-0.19-2.63-0.41-3.36,1.05c-0.29,0.58-0.41,1.26-0.54,1.9
			c-0.27,1.32-0.49,2.64-0.74,4c-2.54-1.03-3.01-1.15-4.42,1.43c-0.42,0.76-0.61,1.67-0.84,2.52c-0.36,1.36-0.78,1.57-2.1,1.07
			c-1.78-0.68-3.58-1.32-5.39-1.93c-2.03-0.68-2.54-0.24-2.85,1.88c-0.29,2.02-0.78,4.01-1.2,6.13c-1.91-0.97-3.61-1.97-5.85-1.41
			c-0.47,1.42-1.02,2.92-1.44,4.46c-0.24,0.85-0.57,1.24-1.53,1.17c-1.35-0.1-2.72-0.01-4.08-0.03c-0.97-0.01-1.7,0.47-1.86,1.33
			c-0.25,1.32-0.25,2.69-0.36,4.15c0.01,0-0.19,0.04-0.37,0.03c-1.89-0.15-3.77-0.28-5.65-0.48c-0.81-0.08-1.19,0.31-1.36,0.99
			c-0.32,1.24-0.6,2.49-0.9,3.76c-1.16-0.06-2.33-0.11-3.51-0.18c-0.69-0.04-1.14,0.07-1.15,0.94c-0.01,1.22-0.08,2.45-0.25,3.66
			c-0.07,0.53-0.36,1.11-0.73,1.49c-0.57,0.58-1.29,1.01-1.95,1.51c-0.89,0.67-0.94,1.48-0.08,2.19c0.42,0.35,0.92,0.59,1.37,0.9
			c0.91,0.63,1.81,1.28,2.89,2.06c-5.16,1.69-9.78,3.88-13.91,6.84c-7.1,5.1-15.01,8.92-21.86,14.42c-3.59,2.88-6.03,8.29-5,12.81
			c0.85,3.73,1.84,7.42,2.79,11.12c0.28,1.1,0.64,2.17,0.89,3.27c0.18,0.8,0.04,1.75,0.43,2.4c0.42,0.7,0.38,1.11-0.09,1.64
			c-2.4,2.74-1.85,6.02-1.44,9.15c0.21,1.59,1.24,3.07,1.92,4.59c1.24,2.78,3.25,4.77,6.25,5.36c1.15,0.23,1.24,0.66,1.19,1.55
			c-0.1,2.03,0.35,4,1.72,5.45c1.14,1.21,1.21,2.48,1.15,3.91c-0.01,0.32-0.03,0.64,0,0.96c0.19,2.14,0.84,4.19,2.04,5.91
			c2.1,3.02,5.31,4.04,8.85,4.1c0.84,0.01,1.41,0.21,1.85,0.9c0.3,0.46,0.58,0.94,0.95,1.34c1.72,1.91,3.28,4.03,5.25,5.64
			c2.39,1.96,5.3,2.76,8.48,3.04c3.07,0.26,5.85-0.26,8.58-1.43c2.55-1.1,5.01-2.43,7.61-3.4c4.82-1.81,9.77-3.29,14.56-5.18
			c5.45-2.16,10.78-4.62,16.16-6.96C286.67,395.19,288.44,394.38,290.39,393.51z"/>
		<path d="M290.39,393.51c-1.95,0.87-3.72,1.68-5.5,2.45c-5.38,2.34-10.71,4.8-16.16,6.96c-4.79,1.9-9.74,3.37-14.56,5.18
			c-2.6,0.98-5.05,2.31-7.61,3.4c-2.73,1.17-5.51,1.7-8.58,1.43c-3.18-0.27-6.09-1.08-8.48-3.04c-1.97-1.61-3.53-3.73-5.25-5.64
			c-0.36-0.4-0.65-0.88-0.95-1.34c-0.44-0.68-1.01-0.88-1.85-0.9c-3.53-0.06-6.75-1.08-8.85-4.1c-1.2-1.72-1.85-3.78-2.04-5.91
			c-0.03-0.32-0.02-0.64,0-0.96c0.06-1.43-0.01-2.7-1.15-3.91c-1.37-1.45-1.83-3.42-1.72-5.45c0.04-0.88-0.04-1.32-1.19-1.55
			c-3.01-0.59-5.02-2.59-6.25-5.36c-0.68-1.52-1.7-3-1.92-4.59c-0.42-3.13-0.97-6.41,1.44-9.15c0.47-0.53,0.51-0.94,0.09-1.64
			c-0.39-0.65-0.25-1.6-0.43-2.4c-0.25-1.1-0.61-2.18-0.89-3.27c-0.94-3.7-1.94-7.4-2.79-11.12c-1.03-4.52,1.41-9.93,5-12.81
			c6.85-5.49,14.76-9.32,21.86-14.42c4.13-2.96,8.75-5.15,13.91-6.84c-1.09-0.77-1.98-1.42-2.89-2.06c-0.45-0.31-0.95-0.56-1.37-0.9
			c-0.86-0.71-0.81-1.52,0.08-2.19c0.66-0.49,1.38-0.93,1.95-1.51c0.37-0.38,0.65-0.96,0.73-1.49c0.17-1.21,0.24-2.44,0.25-3.66
			c0.01-0.87,0.46-0.98,1.15-0.94c1.18,0.07,2.35,0.12,3.51,0.18c0.3-1.26,0.58-2.51,0.9-3.76c0.17-0.68,0.55-1.08,1.36-0.99
			c1.88,0.2,3.77,0.33,5.65,0.48c0.19,0.01,0.38-0.03,0.37-0.03c0.11-1.45,0.11-2.82,0.36-4.15c0.16-0.86,0.89-1.35,1.86-1.33
			c1.36,0.02,2.72-0.07,4.08,0.03c0.95,0.07,1.29-0.33,1.53-1.17c0.43-1.54,0.98-3.04,1.44-4.46c2.24-0.56,3.93,0.43,5.85,1.41
			c0.42-2.11,0.91-4.11,1.2-6.13c0.3-2.13,0.82-2.56,2.85-1.88c1.81,0.6,3.61,1.25,5.39,1.93c1.32,0.5,1.74,0.3,2.1-1.07
			c0.23-0.86,0.42-1.76,0.84-2.52c1.42-2.58,1.88-2.46,4.42-1.43c0.25-1.36,0.48-2.68,0.74-4c0.13-0.65,0.25-1.32,0.54-1.9
			c0.73-1.46,2.16-1.24,3.36-1.05c1.84,0.29,3.64,0.85,5.59,1.33c0.48-1.32,1-2.73,1.5-4.14c0.55-1.54,1.08-1.77,2.5-1.06
			c1.19,0.6,2.36,1.21,3.56,1.8c0.38,0.18,0.79,0.28,1.24,0.44c0.48-1.47,0.85-2.86,1.39-4.19c0.65-1.59,1.07-1.64,2.62-0.96
			c2.25,1,3.16,2.82,3.35,5.13c0.21,2.64,0.41,5.28,0.63,8.02c2.14-0.26,2.21,1.57,2.7,2.95c0.56,1.54,1.21,3.09,1.44,4.68
			c0.26,1.76,1.49,2.26,2.75,2.94c0.75,0.41,1.37,1.05,2.12,1.47c1.7,0.94,3.43,1.81,5.17,2.66c0.2,0.1,0.56-0.05,0.81-0.16
			c3.72-1.77,7.42-3.57,11.15-5.32c0.91-0.43,1.89-0.73,2.63-1.01c-0.28-0.66-0.76-1.3-0.8-1.96c-0.17-2.42-0.35-4.85-0.22-7.26
			c0.09-1.6,0.54-3.25,1.13-4.75c0.72-1.8,2.59-2.1,4.23-2.3c3.88-0.47,7.79-0.72,11.86-1.07c0-0.78,0-1.81,0-2.83
			c0.01-2.53,1.11-3.98,3.63-4.26c2.79-0.31,5.6-0.43,8.41-0.48c1.24-0.02,2.29,0.93,2.48,2.03c0.39,2.2,0.47,4.46,0.55,6.71
			c0.03,0.76-2.19,2.19-3.24,2.26c-1.18,0.08-2.36,0.18-3.61,0.28c0,3.69,0,7.35,0,11.2c0.63-0.6,1.2-1.14,1.76-1.68
			c4.4-4.21,9.51-6.56,15.72-5.94c1.18,0.12,2.22,0.7,2.67,1.88c0.43,1.13-0.03,2.03-0.73,3.01c-2.43,3.38-5.95,5.56-8.88,8.38
			c-2.51,2.42-4.89,4.97-7.25,7.52c-0.29,0.32-0.14,1.05-0.18,1.42c4.07-2.15,7.95-4.38,12-6.26c2.21-1.02,4.61-1.75,7.17-1.61
			c1.61,0.09,2.65,1.02,3.18,2.28c0.47,1.11,0.33,2.5-0.66,3.43c-2.81,2.65-5.73,5.18-8.51,7.86c-1.71,1.65-3.24,3.48-4.7,5.41
			c0.91-0.61,1.81-1.24,2.74-1.82c3.07-1.88,6.07-3.9,9.27-5.52c1.61-0.82,3.58-1,5.42-1.29c2.14-0.33,3.48,1.42,3.74,3.26
			c0.31,2.21-0.34,4.22-1.38,6.22c-1.84,3.56-4.84,6.18-7.16,9.41c3.13-1,6.21-2.08,9.34-2.95c1.87-0.52,3.82-0.85,5.76-1.05
			c1.52-0.16,2.53,1.01,2.58,2.55c0.15,4.12-1.59,7.56-4.04,10.65c-2.76,3.47-5.69,6.81-8.61,10.28c1.51-0.49,2.91-1.07,4.38-1.38
			c2.14-0.45,4.32-0.74,6.5-0.97c0.31-0.03,0.98,0.69,0.99,1.08c0.02,0.66-0.16,1.51-0.59,1.96c-2.62,2.74-5.3,5.42-8.01,8.07
			c-1.34,1.31-2.9,2.41-4.16,3.79c-0.54,0.59-0.66,1.63-0.82,2.5c-0.63,3.45-2.79,5.91-5.23,8.2c-0.72,0.68-1.49,1.31-2.17,2.03
			c-0.21,0.22-0.28,0.64-0.29,0.97c-0.06,2.27-0.55,4.35-1.64,6.41c-1.21,2.3-1.97,4.82-2.99,7.23c-0.16,0.37-0.6,0.63-0.94,0.9
			c-0.18,0.14-0.43,0.21-0.66,0.24c-1.84,0.17-2.96,1.16-3.4,2.94c-0.26,1.08-1.24,0.92-1.99,1.13c-0.78,0.22-1.48,0.36-1.43,1.49
			c0.01,0.36-0.77,0.91-1.29,1.07c-0.64,0.2-0.79,0.48-0.81,1.08c-0.04,1.87-0.06,1.87-1.91,1.87c-0.44,0-0.87,0-1.13,0
			c-0.94,2.16-1.84,4.18-2.7,6.22c-0.98,2.33-1.9,4.69-2.91,7.01c-0.13,0.31-0.72,0.69-0.99,0.63c-2.53-0.64-5.04-1.37-7.55-2.08
			c-0.55-0.16-1.12-0.31-1.63-0.56c-1.05-0.51-1.4,0.12-1.54,0.95c-0.22,1.36-0.36,2.73-0.49,4.09c-0.18,1.84-0.23,3.71-0.52,5.53
			c-0.26,1.64-0.5,3.38-1.26,4.81c-0.69,1.3-1.94,2.38-3.14,3.3c-2.8,2.15-6.11,3-9.6,3.21c-1.58,0.09-3.17,0.26-4.75,0.22
			c-3.85-0.1-7.7-0.25-11.54-0.48c-1.96-0.12-4.09-0.05-5.8-0.82c-1.83-0.82-2.76-0.46-4.27,0.63c-1.48,1.06-3.55,1.31-5.37,1.89
			c-0.99,0.31-1.91-0.3-2.24-0.95c-0.84-1.64-2.28-2.69-3.39-4.06c-0.29-0.36-0.35-0.94-0.42-1.43c-0.32-2.37-0.63-4.75-0.91-7.12
			c-0.14-1.18-0.22-2.36-0.29-3.54C290.58,397.64,290.5,395.7,290.39,393.51z M312.5,398.68c0.8-1.76,1.62-3.51,2.38-5.3
			c0.09-0.22-0.1-0.71-0.32-0.87c-0.86-0.67-0.66-1.2,0.06-1.82c0.22-0.19,0.45-0.64,0.38-0.86c-0.55-1.53-1.16-3.04-1.78-4.55
			c-0.39-0.96-0.81-1.9-1.28-3c-0.73,1.57-0.49,2.57,0.51,2.93c0,0.48,0,0.94,0,1.42c-0.4,0.06-0.74,0.1-1.15,0.16
			c0.03,0.4,0.06,0.74,0.09,1.07c0.48,0.04,0.87,0.06,1.29,0.09c0,0.56,0,1.05,0,1.56c-0.48,0.06-0.9,0.11-1.33,0.16
			c0,0.54,0,1.01,0,1.21c0.57,0.45,1.21,0.7,1.34,1.12c0.26,0.83-0.52,0.81-1.08,0.99c-0.29,0.09-0.46,0.55-0.54,0.66
			c0.69,0.64,1.55,1.06,1.6,1.57c0.13,1.17-1.24,0.82-2.04,1.41c0.36,0.26,0.61,0.57,0.87,0.59c1.02,0.07,1.07,0.74,1.03,1.49
			c-0.65,0.2-1.3,0.39-1.87,0.56c0,1.73,0,3.33,0,4.92c0.06,0.01,0.12,0.02,0.18,0.03C311.39,402.38,311.95,400.53,312.5,398.68z
			 M292.91,338.08c0.13-0.01,0.26-0.03,0.4-0.04c-0.32-2.98-0.54-5.97-1.01-8.93c-0.15-0.98-0.87-1.92-1.52-2.72
			c-0.18-0.23-1.04-0.02-1.55,0.13c-4.04,1.16-8.17,2.08-12.07,3.62c-4.66,1.84-9.13,4.2-13.66,6.37c-2.14,1.03-4.26,2.11-6.33,3.27
			c-2.97,1.66-5.77,3.67-8.86,5.07c-3.03,1.37-6.29,2.27-9.5,3.2c-3.1,0.9-6.29,1.51-9.4,2.39c-4.34,1.23-8.69,2.45-12.95,3.93
			c-2.67,0.93-5.18,2.31-7.74,3.54c-1.62,0.77-3.11,1.92-4.81,2.38c-1.9,0.53-2.61,1.87-3.19,3.37c-1.59,4.16,0.19,7.74,2.21,11.19
			c1.48,2.52,3.99,3.28,6.72,3.43c0.63,0.03,1.08,0.6,1.93,0.17c1.81-0.91,3.8-1.44,5.69-2.21c3.61-1.48,7.19-3,10.77-4.53
			c2.64-1.13,5.2-2.48,7.89-3.45c4.06-1.47,8.21-2.7,12.33-4.02c3.49-1.12,7-2.17,10.47-3.33c3.96-1.32,7.89-2.7,11.82-4.12
			c1.93-0.7,3.86-1.44,5.69-2.36c2.95-1.48,5.78-3.18,8.72-4.67c2.68-1.36,5.43-2.55,8.14-3.85c0.2-0.1,0.43-0.44,0.41-0.65
			C293.35,342.87,293.13,340.47,292.91,338.08z M219.16,350.74c0.34-1.07,0.37-2.35,0.99-2.81c0.59-0.44,1.82-0.02,2.87,0.03
			c0.84-0.87,1.95-0.24,3.05,0.13c0.2-0.79,0.47-1.49,0.53-2.22c0.06-0.76,0.43-1.03,1.07-0.88c0.95,0.21,1.87,0.54,2.81,0.81
			c0.66-2.18,1.09-2.21,4.61-0.15c1.12-0.55,0.63-2.66,2.23-2.54c1.16,0.09,2.27,0.73,3.3,1.09c0.24-0.86,0.51-1.91,0.84-2.94
			c0.48-1.51,1.39-1.8,2.73-0.92c0.64,0.42,1.28,0.86,2,1.33c0.17-0.79,0.31-1.47,0.52-2.44c1.53,0.36,3.05,0.71,4.39,1.02
			c0-1.2,0-2.42,0-3.63c0-1.79,0.78-2.25,2.4-1.37c0.85,0.46,1.66,1,2.53,1.53c0.13-0.86,0.23-1.6,0.35-2.32
			c0.18-1.09,0.95-1.51,1.99-1.08c0.25,0.1,0.5,0.22,0.76,0.33c1.16,0.5,1.49,0.32,1.82-0.86c0.22-0.79,0.54-1.55,0.84-2.31
			c0.51-1.26,1.35-1.65,2.66-1.19c0.92,0.32,1.8,0.74,2.67,1.1c0.64-0.52,0.11-1.93,1.39-1.78c0.81,0.09,1.6,0.41,2.49,0.65
			c0-0.6-0.03-1.15,0-1.71c0.14-2.47,1.58-3.3,3.66-2.12c0.57,0.32,1.15,0.63,1.87,1.02c0-0.97,0-1.75,0-2.48
			c1.78-0.85,2.79,0.97,4.3,1.13c0-1.79-0.02-3.46,0.01-5.14c0.02-1.12,1.2-1.81,2.19-1.27c1.4,0.78,2.76,1.61,4.15,2.39
			c0.14,0.08,0.36,0.01,0.69,0.01c-2.41-3.58-3.03-7.45-2.37-11.72c-2.95,1.26-5.67,2.42-8.4,3.58c-5.46,2.33-10.91,4.68-16.39,6.98
			c-2.15,0.91-4.31,1.86-6.55,2.51c-2.22,0.64-4.27,1.44-6.06,2.93c-0.5,0.42-1.24,0.69-1.9,0.78c-2.68,0.38-5.38,0.61-8.06,0.99
			c-5.17,0.75-9.73,3.08-14.27,5.49c-1.82,0.97-3.64,1.94-5.51,2.81c-1.01,0.47-2.16,0.64-3.17,1.11c-2.77,1.28-4.55,3.51-5.79,6.24
			c-0.19,0.42-0.56,0.85-0.95,1.09c-1.1,0.66-2.32,1.14-3.37,1.85c-0.6,0.41-1.19,1.07-1.41,1.74c-0.54,1.62-1.08,3.3-1.2,4.99
			c-0.14,2.01-0.39,4.09,0.26,6.06c3.17-0.15,2.06-2.61,2.35-4.16c1.6-0.52,2.49,0.48,3.37,1.21c1.28-0.21,1.45-1.02,1.41-2.09
			c-0.06-1.75,1.01-2.38,2.61-1.64c0.7,0.33,1.38,0.7,2.17,1.1c0-0.67-0.05-1.27,0.01-1.85c0.15-1.47,1.08-2.12,2.42-1.6
			C217.82,349.86,218.49,350.36,219.16,350.74z M340.2,366.36c2.39-1.38,4.59-2.62,6.75-3.94c0.39-0.24,0.63-0.79,0.84-1.24
			c0.84-1.78,1.48-3.69,2.5-5.36c1.45-2.36,4.03-3.36,6.35-4.62c1.99-1.08,4.18-1.01,6.36-0.96c1.82,0.05,3.5,0.49,4.79,1.87
			c1.45-1.04,2.91-2.03,4.29-3.12c0.33-0.26,0.67-0.94,0.55-1.26c-0.68-1.87-1.51-3.69-2.26-5.53c-0.23-0.56-0.49-0.68-1.09-0.45
			c-0.94,0.35-1.93,0.64-2.92,0.79c-1.25,0.19-2.53,0.11-3.77,0.32c-2.03,0.33-3.74-0.05-5.57-1.13c-3.17-1.86-3.14-7.6,0-9.64
			c2.33-1.52,4.87-2.73,7.35-4.1c-0.45-0.95-1.05-2.19-1.51-3.15c-3.02-0.35-5.81-0.59-8.58-1.01c-2.51-0.38-5.02-0.85-7.48-1.49
			c-1-0.26-2-0.93-2.74-1.67c-1.63-1.65-0.82-4.85,1.38-5.4c1.05-0.26,2.26-0.21,3.34-0.02c3.13,0.54,6.18-0.13,9.38-0.31
			c-0.97-2-1.87-3.85-2.72-5.61c-1.61,0.71-3.11,1.48-4.69,2.03c-2.58,0.89-5.24,0.66-7.94,0.58c-3.79-0.1-6.43-2.06-8.89-4.5
			c-0.56-0.55-1.07-1.33-1.22-2.08c-0.89-4.36,0.13-8.23,3.22-11.51c0.32-0.34,0.62-0.72,0.86-1.12c0.49-0.8-0.17-2.83-1.03-2.9
			c-2.21-0.19-4.33,0.37-6.06,1.69c-2.1,1.6-3.25,3.99-3.69,6.51c-0.56,3.21-0.71,6.49-1,9.75c-0.04,0.5-0.01,1.05,0.17,1.51
			c0.74,1.91,1.25,4.01,2.41,5.64c1.39,1.95,3.17,3.77,5.13,5.14c2.09,1.46,4.6,2.3,6.91,3.45c1.25,0.62,2.4,1.58,3.71,1.9
			c2.28,0.56,4.64,0.78,6.97,1.06c1.33,0.16,1.94,1.1,1.32,2.3c-0.25,0.48-0.54,0.97-0.92,1.35c-2.48,2.47-3.48,5.46-3.16,8.9
			c0.17,1.88,0.94,3.51,2.65,4.48c1.08,0.61,2.28,1.02,3.36,1.62c0.47,0.26,1.01,0.76,1.09,1.22c0.05,0.3-0.63,0.87-1.09,1.07
			c-1.7,0.76-3.48,1.34-5.16,2.13c-3.07,1.45-5.28,3.88-6.79,6.83C340.08,359.38,339.61,362.63,340.2,366.36z M234.13,304.41
			c1.27,0.88,2.29,1.55,3.26,2.26c1.58,1.16,3.06,0.89,4.68-0.02c2.47-1.39,5.05-2.57,7.54-3.93c2.09-1.13,4.18-2.28,6.15-3.6
			c2.67-1.79,5.18-3.8,7.83-5.61c1.64-1.11,3.41-2.03,5.14-3.01c1.45-0.82,2.85-1.78,4.39-2.37c4.8-1.83,9.3-4.22,13.79-6.67
			c1.91-1.04,3.86-2,5.78-3c1.73-0.9,3.48-1.75,5.17-2.72c2.06-1.19,4.07-2.48,6.1-3.73c0.58-0.36,0.97-0.76,0.89-1.59
			c-0.17-1.81-0.16-3.64-0.28-5.46c-0.06-0.88-0.25-1.76-0.38-2.65c-1.85,0.6-2.12,0.82-3.14,2.33c-0.41,0.61-0.97,0.89-1.74,0.58
			c-0.31-0.12-0.76-0.22-1.03-0.09c-2.54,1.27-5.12,2.46-7.55,3.91c-4.35,2.6-8.57,5.43-12.91,8.06c-3.46,2.09-7.05,3.97-10.54,6.02
			c-3.69,2.16-7.36,4.35-10.98,6.64c-3.63,2.3-7.16,4.74-10.74,7.1c-1.66,1.09-3.34,2.15-4.99,3.24
			C238.48,301.5,236.38,302.91,234.13,304.41z M294.03,348.13c-0.32,0.17-0.55,0.31-0.79,0.43c-4.23,2.06-8.52,4.01-12.68,6.21
			c-2.65,1.4-5.15,3.04-8.06,3.89c-2.32,0.68-4.62,1.43-6.91,2.22c-4.46,1.54-8.88,3.21-13.36,4.69c-3.25,1.07-6.65,1.73-9.86,2.9
			c-5.3,1.94-10.5,4.15-15.74,6.25c-3.43,1.37-6.59,3.34-10.32,4.04c-2.17,0.4-4.22,1.45-6.3,2.27c-0.22,0.09-0.41,0.6-0.38,0.89
			c0.19,1.87,0.71,3.62,2.17,4.93c0.21,0.19,0.58,0.36,0.83,0.32c1.07-0.18,2.17-0.34,3.18-0.71c3.4-1.23,6.79-2.51,10.15-3.83
			c2.1-0.82,4.23-1.63,6.22-2.67c3.34-1.74,6.6-3.64,10.14-4.96c3.68-1.37,7.37-2.72,11.02-4.16c3.04-1.2,5.99-2.6,9.05-3.76
			c3.96-1.5,8-2.8,11.99-4.24c5.94-2.14,11.86-4.34,17.79-6.49c1.41-0.51,2.86-0.9,4.23-1.32
			C295.59,352.65,294.83,350.45,294.03,348.13z M292.29,290.32c0.12-0.72,0.22-1.34,0.31-1.95c0.09-0.62,0.18-1.24,0.24-1.87
			c0.16-1.63,1.1-2.33,2.65-1.99c1.4,0.3,2.8,0.58,4.33,0.9c0.41-1.69,0.81-3.31,1.18-4.94c0.32-1.38,1.14-1.88,2.48-1.7
			c1.41,0.18,2.84,0.24,4.26,0.2c0.81-0.02,1.45-0.38,0.95-1.47c-0.36-0.77-0.53-1.63-0.79-2.44c-0.22-0.69-0.45-1.38-0.74-2.27
			c-1.45,0.9-2.73,1.72-4.03,2.51c-1.79,1.09-3.56,2.23-5.42,3.21c-1.89,1-3.9,1.76-5.79,2.76c-3.59,1.92-7.09,4.02-10.72,5.88
			c-2.5,1.27-5.24,2.08-7.71,3.4c-3.6,1.93-7.19,3.95-10.53,6.3c-3.51,2.48-6.98,4.94-10.79,6.98c-4.72,2.53-9.76,4.44-14.2,7.52
			c-2.27,1.57-4.67,2.94-7.02,4.4c1.82-0.49,3.54-1.16,5.3-1.73c7.6-2.47,15.02-5.36,22.1-9.11c4.98-2.64,9.99-5.24,15.04-7.76
			c2.07-1.04,4.27-1.75,6.68-1.6c1.64,0.1,3.3,0.02,5.08,0.02c0-1.52,0-3.19,0-4.86c0-1.38,0.29-1.56,1.63-1.29
			C288.59,289.75,290.41,290.01,292.29,290.32z M401.12,311.48c-0.12-0.57-0.28-1.1-0.32-1.64c-0.07-1.01-0.79-1.18-1.51-1.07
			c-1.38,0.21-2.78,0.47-4.11,0.89c-3.68,1.16-7.33,2.4-10.98,3.64c-0.66,0.22-1.38,0.43-1.88,0.87c-1.24,1.09-2.4,2.28-3.51,3.51
			c-0.3,0.33-0.53,1.06-0.37,1.42c1.99,4.54,4.05,9.05,6.12,13.56c0.54,1.17,0.84,1.21,1.75,0.26c1.95-2.06,3.9-4.11,5.76-6.25
			c1.94-2.22,3.83-4.49,5.62-6.83C399.57,317.38,400.63,314.54,401.12,311.48z M339.25,380.85c-1.02,0.18-1.76,0.27-2.47,0.47
			c-0.22,0.06-0.47,0.42-0.5,0.66c-0.12,1.34-0.26,2.68-0.25,4.03c0.05,6.15,0.16,12.3,0.22,18.44c0.02,1.74-1.02,2.75-2.72,2.91
			c-2.15,0.19-4.3,0.48-6.45,0.74c-2.54,0.3-5.06,0.76-7.61,0.89c-2.29,0.12-4.61-0.04-6.9-0.22c-2.2-0.17-4.33-1.78-4.18-4.46
			c0.36-6.42,0.52-12.85,0.77-19.28c0.01-0.27,0.12-0.54,0.22-0.98c-0.66,0.39-1.13,0.76-1.67,0.98c-1.12,0.45-1.49,1.17-1.47,2.42
			c0.07,6.91,0.04,13.83,0.03,20.74c0,2.22,0.98,3.23,3.23,3.23c7.67,0,15.35,0.01,23.02-0.02c0.56,0,1.14-0.21,1.66-0.45
			c0.92-0.42,1.81-0.9,2.68-1.42c0.64-0.38,1.38-0.75,1.78-1.33c0.68-0.98,1.21-2.09,1.65-3.2c0.3-0.77,0.55-1.65,0.48-2.46
			c-0.32-3.92-0.83-7.83-1.13-11.75C339.4,387.56,339.38,384.31,339.25,380.85z M341.89,351.46c-1.25-1.47-1.75-3.43-1.55-5.6
			c0.07-0.78,0.25-1.57,0.22-2.35c-0.1-2.69,0.75-5.17,1.57-7.67c0.53-1.63,1.88-3.16,1.05-4.99c-0.58-1.28-1.3-2.68-2.35-3.52
			c-0.85-0.67-2.3-0.57-3.48-0.84c-2.43-0.57-4.87-1.26-6.84-2.82c-1.76-1.4-3.25-3.16-4.93-4.84c-0.23,0.14-0.76,0.45-1.27,0.75
			c1.67,2.48,4.12,3.82,6.7,5.01c0.32,0.15,0.63,0.65,0.64,1c0.01,0.29-0.37,0.72-0.68,0.86c-0.72,0.33-1.51,0.53-2.4,0.82
			c2.34,2.11,4.59,4.08,6.75,6.14c0.4,0.39,0.58,1.16-0.23,1.57c-1.48,0.75-2.95,1.49-4.48,2.27c1.87,1.87,3.56,4.07,5.74,5.58
			c1.65,1.15,1.77,2.5,1.54,3.92c-0.47,2.84-1.29,5.62-1.9,8.45c-0.09,0.44,0.07,1.08,0.36,1.41c0.56,0.64,1.3,1.12,1.74,1.49
			C339.31,355.96,340.56,353.78,341.89,351.46z M369.7,302.21c0.67-0.8,1.2-1.56,1.86-2.19c3.01-2.91,6.08-5.76,9.07-8.69
			c1.36-1.34,2.68-2.75,3.83-4.28c0.69-0.92,0.27-2.06-0.82-2.52c-0.76-0.32-1.75-0.64-2.48-0.42c-2.94,0.87-5.93,1.72-8.69,3.02
			c-2.85,1.34-5.45,3.19-8.09,4.77C366.2,295.44,367.95,298.82,369.7,302.21z M271.15,374.85c0.14-1.01,0.22-1.99,0.43-2.94
			c0.38-1.75-1.19-4.14-2.95-4.12c-1.62,0.01-3.16,0.11-4.33,1.82c-0.63,0.91-1.14,1.53-0.99,2.68c0.25,1.91,0.72,2.43,2.36,2.63
			c0.47,0.06,1.25-0.12,1.42-0.44c0.28-0.52,0.13-1.11-0.63-1.52c-0.35-0.19-0.38-1.07-0.46-1.65c-0.03-0.2,0.29-0.63,0.39-0.62
			c0.51,0.08,1.01,0.25,1.49,0.44c0.3,0.12,0.58,0.44,0.87,0.44c1.18,0,1.5,0.75,1.53,1.7c0.04,1.74-0.7,2.84-2.59,3.5
			c1.63,1.21,3.08,2.51,2.85,4.89c1.34-0.59,2.54-1.16,3.78-1.64c5.86-2.27,11.74-4.5,17.59-6.79c0.31-0.12,0.6-0.65,0.66-1.03
			c0.2-1.24,0.02-2.59,0.46-3.73c1.12-2.92,2.66-5.61,5.51-7.25c0.55-0.31,0.67-0.66,0.37-1.24c-0.5-0.96-0.92-1.96-1.37-2.94
			c-0.32,0.11-0.64,0.22-0.99,0.34c0.7,0.99,0.31,1.83-0.19,2.67c-1.34,2.24-2.67,4.49-3.99,6.75c-0.59,1-0.99,2.15-1.74,3
			c-2.27,2.57-5.53,2.91-8.64,3.44c-2.01,0.34-3.99-0.14-5.92-0.79c-0.86-0.29-1.59-0.28-2.22,0.68
			C273.3,373.96,272.83,375.17,271.15,374.85z M358.2,270.72c-0.04,0-0.07,0-0.11-0.01c0-1.52,0.07-3.04-0.04-4.55
			c-0.04-0.54-0.35-1.25-0.77-1.54c-0.69-0.47-1.57-0.92-2.37-0.94c-4.71-0.09-9.44-0.25-14.1,0.7c-1.72,0.35-3.34,1.05-3.51,3.04
			c-0.24,2.77-0.25,5.56-0.28,8.34c-0.01,0.66,0.41,1.12,1.25,1.08c2.42-0.12,4.84-0.23,7.26-0.24c1.98,0,3.97,0.12,5.95,0.24
			c1.15,0.07,2.31,0.4,2.98,1.35c0.55,0.78,1.11,0.51,1.57,0.24c0.71-0.41,1.8-0.43,1.84-1.67
			C357.93,274.76,358.08,272.74,358.2,270.72z M299.34,300.06c2.46-0.15,4.8-0.28,7.15-0.44c1.12-0.08,1.95,0.41,2.74,1.14
			c1.77,1.62,2.88,3.7,3.57,5.87c0.53,1.67,0.8,3.78,0.23,5.36c-0.7,1.95-2.29,3.62-3.69,5.25c-0.95,1.11-2.22,1.94-3.35,2.89
			c3.36-0.31,6.65-0.47,9.91,0.64c-0.06-3.73-0.19-7.39,0.9-10.96c0.28-0.91,0.27-1.9,0.41-2.99c-0.89,0-1.53,0-2.16,0
			c-0.76,0-1.24-0.29-1.09-1.13c0.26-1.46,0.46-2.93,0.85-4.36c0.53-2,0.17-3.02-1.57-4.12c-0.48-0.31-0.99-0.79-1.17-1.3
			c-0.35-1-1.75-1.65-2.72-1.16c-1.42,0.72-2.87,1.38-4.27,2.12C303.16,297.91,301.26,298.99,299.34,300.06z M333.58,404.95
			c-0.27-0.63-0.52-1.08-0.67-1.56c-1.26-3.92-3.53-7.14-6.79-9.66c-0.23-0.18-0.56-0.29-0.85-0.29c-2.44-0.02-4.88-0.04-7.31,0.02
			c-0.33,0.01-0.81,0.34-0.95,0.64c-0.84,1.86-1.65,3.74-2.36,5.65c-0.79,2.14-1.45,4.33-2.22,6.66c1.06,0.15,1.94,0.26,2.76,0.38
			c0.79-2.77,1.49-5.56,2.41-8.29c0.29-0.88,0.99-2.06,1.73-2.26c1.75-0.47,3.83-0.98,5.43-0.45c1.5,0.5,2.83,2.15,3.75,3.6
			c1.16,1.84,1.84,3.99,2.73,6.02C331.98,405.25,332.74,405.11,333.58,404.95z M295.25,304.47c0.33,0.55,0.73,1.02,0.9,1.55
			c0.3,0.9,0.78,0.86,1.52,0.57c2.7-1.05,5.48-1.72,8.4-1.7c1.26,0.01,2.11,0.59,2.43,1.7c0.29,1.01,0.6,2.19,0.34,3.14
			c-0.98,3.63-2.77,6.77-6.33,8.72c0.12,0.21,0.28,0.5,0.44,0.8c1.69-1.15,3.47-2.11,4.92-3.43c1.78-1.63,3.56-3.49,3.18-6.22
			c-0.25-1.8-0.64-3.61-1.28-5.31c-0.79-2.1-2.47-3.05-4.79-3C301.45,301.38,298.35,302.64,295.25,304.47z M314.03,381.04
			c0.37,0.91,0.73,1.84,1.13,2.76c0.95,2.17,1.9,4.35,2.88,6.51c0.32,0.71,0.89,1.02,1.72,0.98c1.27-0.06,2.56,0.04,3.83-0.03
			c1.4-0.08,2.77-0.36,3.24-1.98c0.72-2.48,1.39-4.98,2.09-7.52c-0.71,0-1.21,0-1.55,0c-0.42,1.72-0.73,3.36-1.24,4.93
			c-0.16,0.5-0.87,0.81-1.32,1.21c-0.34-0.42-0.84-0.79-0.99-1.27c-0.55-1.69-0.98-3.42-1.45-5.13c-0.42,0-0.89,0-1.45,0
			c0,2.09,0.03,4.11-0.03,6.14c-0.01,0.4-0.3,1.03-0.6,1.12c-0.39,0.12-0.95-0.12-1.35-0.35c-0.27-0.16-0.49-0.53-0.59-0.85
			c-0.61-1.89-1.22-3.78-1.75-5.69C316.06,380.02,315.65,379.86,314.03,381.04z M304.99,324.32c1.46-0.48,2.79-1.01,4.16-1.32
			c1.12-0.25,2.3-0.31,3.25,0.63c2.32,2.31,3.4,7.64,0.9,10.59c-0.84,1-1.67,2.01-2.54,3.06c0.46,0.59,0.89,1.14,1.31,1.67
			c1.17-1.06,2.32-2.01,3.37-3.06c0.93-0.94,2.05-1.88,2.53-3.05c0.52-1.25,0.54-2.76,0.5-4.16c-0.08-2.92-2.23-5.63-4.97-6.22
			c-3.04-0.66-6.08-0.03-9.19,0.24C304.58,323.35,304.79,323.85,304.99,324.32z M326.49,290.84c-2.54,0.32-4.8,0.59-7.06,0.93
			c-0.26,0.04-0.6,0.4-0.67,0.67c-0.37,1.39-0.69,2.79-0.96,4.21c-0.18,0.96,0.14,1.71,0.92,2.41c1.04,0.94,1.97,2.01,2.86,3.1
			c0.37,0.45,0.62,1.07,0.75,1.65c0.33,1.47-0.99,1.77-1.92,2.4c0.67,0.86,1.29,1.68,1.92,2.49
			C322.41,302.47,323.16,296.55,326.49,290.84z M313.63,343.12c1.76-0.38,3.1-0.77,4.47-0.94c1.05-0.13,2.04,0.77,2.32,1.85
			c0.66,2.56,0.2,4.95-1.26,7.11c-0.63,0.93-1.49,1.71-2.34,2.68c0.2,0.39,0.56,1.13,1.06,2.11c1.82-1.54,3.5-3.04,5.27-4.44
			c1.81-1.43,1.1-3.59,1.42-5.34c0.38-2.11-2.5-5.4-4.69-5.03c-1.7,0.29-3.41,0.47-5.09,0.82
			C314.39,342.03,314.1,342.63,313.63,343.12z M366.1,377.82c-0.44-1.6,0.31-2.13,1.57-2.27c0.31-0.03,0.66-0.06,0.9-0.22
			c0.38-0.25,0.86-0.56,0.99-0.95c0.55-1.6,1.37-2.75,3.26-2.87c0.54-0.03,1.29-0.43,1.51-0.87c0.71-1.44,1.21-2.99,1.85-4.61
			c-0.67,0.43-1.24,0.91-1.9,1.18c-1.42,0.58-2.54,1.28-1.9,3.45c-2.1-1.04-3.81-0.75-5.18,0.34c-0.07,1.07-0.13,2.06-0.2,3.05
			c-0.72-0.1-1.44-0.2-2.22-0.3c-1.07,1.22-2.23,2.54-3.39,3.86c0.29,1.2,0.61,2.47,0.91,3.73c0.5,0,0.99,0,1.55,0
			C363.8,379.66,363.41,377.83,366.1,377.82z M295.93,357.66c-1.19,0.37-2.39,0.69-3.55,1.12c-0.31,0.11-0.58,0.49-0.74,0.8
			c-0.74,1.41-1.41,2.86-2.16,4.27c-0.35,0.66-0.95,1.21-1.18,1.89c-0.72,2.13-2.62,3.42-5.08,3.05c0.39-0.63,0.66-1.19,1.04-1.66
			c0.63-0.79,1.48-1.44,1.92-2.3c0.25-0.48,1.04-1.5-0.01-1.89c-1.43-0.54-2.94-1.31-4.52-0.26c-0.31,0.21-0.7,0.3-1.12,0.47
			c0.09,0.51,0.18,0.98,0.21,1.16c1.73-0.18,3.26-0.34,4.76-0.5c0.3,0.98,0.01,1.32-0.74,1.58c-0.97,0.34-2.03,0.73-2.76,1.41
			c-0.89,0.83-1.47,1.99-2.34,3.22c1.65-0.59,2.92,0.64,4.55,0.2c2.9-0.78,4.95-2.49,6.36-4.96
			C292.13,362.54,293.49,359.73,295.93,357.66z M291.58,393.1c0.1,1.63,0.21,3.21,0.3,4.79c0.09,1.46,0.16,2.92,0.25,4.38
			c0.01,0.19,0.09,0.37,0.16,0.55c0.5,1.1,1.06,2.18,1.49,3.31c0.78,2.01,1.48,4.05,2.23,6.16c1.26-1.01,1.5-1.44,1.57-3.1
			c0.01-0.29-0.54-0.58-0.79-0.91c-0.11-0.14-0.11-0.37-0.15-0.56c-0.23-1.18-0.41-2.38-0.71-3.55c-0.36-1.38,0.46-3.23-1.51-4
			c-0.06-0.02-0.11-0.12-0.13-0.19c-0.25-1-0.58-2-0.72-3.01c-0.21-1.48-0.29-2.98-0.43-4.63
			C292.48,392.65,292.1,392.84,291.58,393.1z M243.11,377.46c-0.91,0.07-1.83,0.12-2.36,1.13c-0.18,0.35-0.59,0.64-0.97,0.81
			c-1.92,0.85-3.01,2.26-3.15,4.38c-0.08,1.32,0.45,2.14,1.46,2.2c1.79,0.11,2.65-0.53,2.7-2.01c0.05-1.48,0.18-1.65,1.68-1.57
			c0.63,0.03,1.25,0.3,1.76,0.43c0.17-0.36,0.33-1.15,0.6-1.18c0.96-0.12,1.71-0.99,2.88-0.55c1.28,0.49,2.71-0.31,3.09-1.44
			c0.47-1.37-0.15-2.59-1.66-3.18c-0.47-0.18-0.98-0.25-1.47-0.37c-0.89-0.22-1.37-0.04-1.83,0.61c0.97,0.19,2.02,0.35,3.03,0.62
			c0.91,0.25,1.02,1.11,0.69,1.72c-0.22,0.39-1.1,0.72-1.57,0.61c-1.55-0.37-2.92-0.07-4.34,0.52c-0.86,0.36-1.84,0.44-2.78,0.65
			C240.51,378.73,242.26,378.49,243.11,377.46z M326.84,350.69c-1.73,1.84-3.33,3.56-4.95,5.29c1.69,0.15,3.66-0.4,5.17,1.03
			c1.35,1.28,2.65,2.61,3.78,3.73c0.29-1.63,0.65-3.54,0.96-5.46c0.04-0.21-0.06-0.55-0.22-0.68
			C329.95,353.22,328.29,351.87,326.84,350.69z M217.07,398.58c0.25-0.21,0.58-0.36,0.69-0.61c1.06-2.56,3.86-5.26,7.23-4.83
			c1.96,0.24,3.39,1.3,3.67,3.32c0.77-0.25,1.53-0.51,2.46-0.81c-0.76-1.15-1.46-2.21-2.26-3.42c-1.98-0.15-4.2-0.32-6.45-0.5
			c-0.47,1.42-1.77,2.59-3.43,2.44c-1.85-0.16-3.12-1.25-4.28-2.44c-0.7-0.72-1.01-1.8-1.54-2.7c-0.07-0.12-0.34-0.12-0.57-0.19
			c-0.34,2.12,0.11,4.03,0.91,5.9c0.48,1.14,1.14,1.83,2.5,1.34c0.37-0.13,0.83-0.02,1.38-0.02
			C217.26,396.96,217.18,397.68,217.07,398.58z M330.59,394.56c1.22,1.74,2.38,3.39,3.47,4.94c-0.09-1.33-0.18-2.84-0.28-4.35
			c-0.09,0.08-0.18,0.17-0.26,0.25c-0.52-0.44-1.04-0.87-1.55-1.31c0.54-0.5,1.08-1.01,1.82-1.7c-0.04-0.03-0.29-0.21-0.54-0.41
			c-0.43-0.34-0.85-0.7-1.28-1.05c0.44-0.37,0.88-0.76,1.34-1.1c0.14-0.1,0.36-0.08,0.55-0.11c-0.16-0.38-0.46-0.45-0.63-0.64
			c-0.38-0.44-0.84-0.91-0.96-1.43c-0.05-0.23,0.68-0.62,1.04-0.95c0.23-0.21,0.45-0.43,0.48-0.46c-0.7-0.4-1.22-0.66-1.69-1
			c-0.11-0.08-0.13-0.56-0.04-0.62c0.5-0.35,1.05-0.63,1.59-0.94c0.07,0.08,0.15,0.16,0.22,0.25c-0.02-0.34-0.04-0.67-0.06-1.01
			c-0.4-0.04-0.71-0.06-1.04-0.09c-0.08-0.4-0.15-0.77-0.22-1.1c-0.99-0.16-1.53-0.08-1.63,1.13c-0.12,1.5-0.64,2.97-0.93,4.46
			c-0.06,0.28,0.13,0.61,0.21,0.92c0.09,0.36,0.31,0.75,0.25,1.08c-0.05,0.22-0.51,0.34-0.78,0.52c-0.31,0.21-0.61,0.44-0.66,0.48
			c0.45,0.57,0.97,0.93,0.98,1.3c0.03,1.56-1.37,0.46-2.28,1.26c0.78,0.14,1.3,0.2,1.81,0.32c0.41,0.1,0.97,0.15,1.14,0.43
			C330.83,393.89,330.6,394.41,330.59,394.56z M319.64,359c0.36,0.34,0.6,0.75,0.94,0.86c1,0.3,2.03,0.48,3.05,0.7
			c0.41,0.09,0.92,0.04,1.22,0.27c1.18,0.9,1.9,2.05,1.83,3.64c-0.07,1.61-0.02,3.23-0.02,4.97c0.55,0,1.27-0.07,1.97,0.01
			c1.16,0.13,1.38-0.45,1.41-1.46c0.08-2.86-0.67-5.46-2.54-7.62c-1.27-1.47-2.86-2.53-4.97-2.16
			C321.62,358.37,320.73,358.7,319.64,359z M253.07,377.45c0.81,0.29,1.5,0.45,2.13,0.77c2.04,1.02,3,0.71,3.63-1.54
			c0.54-1.93,0.8-3.94,1.19-5.98c-0.69,0.26-1.23,0.5-1.79,0.65c-1.11,0.29-1.85,0.78-1.64,2.12c0.06,0.38-0.12,0.87-0.34,1.21
			c-0.17,0.26-0.6,0.49-0.89,0.47c-0.23-0.02-0.56-0.42-0.62-0.69c-0.1-0.5-0.03-1.03-0.03-1.65c-1.47,0.51-2.84,0.97-4.29,1.47
			C251.73,375.2,253.05,375.94,253.07,377.45z M302.83,406.47c-0.51-6.11-1-11.95-1.53-18.21c-0.64,0.7-1.39,1.14-1.44,1.65
			c-0.22,2.08-0.2,4.19-0.3,6.29c-0.04,0.78-0.21,1.56-0.21,2.35c0,0.92-0.02,1.89,0.23,2.76c0.18,0.62,0.8,1.11,1.17,1.69
			C301.43,404.08,302.06,405.19,302.83,406.47z M299.78,404.13c-0.07,0.03-0.15,0.07-0.22,0.1c0,0.79,0.09,1.59-0.03,2.37
			c-0.12,0.77-0.59,1.5-0.67,2.27c-0.18,1.75-0.37,3.42-1.91,4.61c-0.27,0.21-0.38,0.97-0.21,1.28c0.16,0.3,0.82,0.54,1.2,0.46
			c2.59-0.49,4.27-2.16,5.4-4.45c0.09-0.19,0.09-0.51-0.02-0.69C302.16,408.1,300.97,406.12,299.78,404.13z M365.16,260.03
			c-0.2-1.07-0.31-2.17-0.64-3.2c-0.14-0.44-0.74-1.05-1.12-1.04c-2.68,0.07-5.36,0.25-8.03,0.46c-0.31,0.02-0.77,0.4-0.84,0.69
			c-0.25,0.98-0.36,1.99-0.49,2.99c-0.02,0.15,0.14,0.35,0.26,0.5c0.67,0.79,1.51,1.23,2.57,1.32c0.49,0.05,0.95,0.31,1.43,0.45
			c0.62,0.18,1.24,0.45,1.87,0.46c0.98,0.02,1.97-0.08,2.94-0.24C364.49,262.21,365.05,261.47,365.16,260.03z M357.32,381
			c-0.14,0-0.25-0.03-0.28,0c-1.45,1.83-3.01,3.57-3.3,6.07c-0.14,1.24,0.09,2.8-1.52,3.41c-1.55,0.58-3.13,1.09-4.61,1.61
			c2.46,0.3,4.98,0.6,7.55,0.91C355.9,388.89,356.61,384.95,357.32,381z M223.59,385.54c-2.47,0.95-4.62,1.74-6.74,2.63
			c-0.39,0.17-0.83,0.7-0.87,1.11c-0.07,0.66,1.19,1.58,1.89,1.5c0.95-0.11,1.67-0.47,1.58-1.64c-0.04-0.56-0.19-1.24,0.63-1.44
			c0.84-0.21,1.36,0.23,1.75,0.9c0.09,0.16,0.12,0.41,0.25,0.47c0.88,0.4,1.77,0.77,2.67,1.12c1.19,0.46,2.59-0.03,3.34-1.06
			c0.89-1.22,0.54-2.63-0.25-3.31c-0.36-0.31-0.95-0.46-1.45-0.49c-0.21-0.01-0.67,0.49-0.63,0.71c0.04,0.3,0.41,0.71,0.7,0.78
			c0.81,0.18,1.08,0.62,0.89,1.36c-0.15,0.58-1.34,0.98-1.97,0.75C223.88,388.4,223.23,387.37,223.59,385.54z M308.64,291.38
			c1.66-0.81,3.37-1.65,5.09-2.49c-1.88-1.89-3.6-3.62-5.35-5.38c-0.65,0.36-0.89,0.96-0.69,1.92
			C308.08,287.34,308.31,289.28,308.64,291.38z M298.01,407.08c0.12-0.02,0.23-0.03,0.35-0.05c0-5.63,0-11.26,0-16.95
			c-0.59,0.3-1.24,0.62-1.68,0.85c0,2-0.03,3.82,0.01,5.64c0.04,1.82,0,3.67,0.28,5.46C297.24,403.71,297.05,405.55,298.01,407.08z
			 M249.66,383.97c0,0.5-0.06,0.98,0.01,1.43c0.19,1.24-0.37,2.24-1.08,3.13c-0.26,0.33-0.93,0.6-1.29,0.5
			c-0.33-0.1-0.59-0.71-0.74-1.14c-0.12-0.36-0.06-0.79-0.02-1.19c0.15-1.33-0.61-2.07-1.62-2.79c-0.26,3.59-0.26,3.59-2.18,5.08
			c0.49,1.35,1.16,1.91,2.49,1.77c0.79-0.08,1.56-0.45,2.33-0.69c2.06-0.63,3.36-2.42,3.3-4.72
			C250.86,384.53,250.53,384.11,249.66,383.97z M315.01,339.4c1.91-0.21,3.49-0.38,4.91-0.53c0.1-3.95,2.85-6.87,3.99-10.34
			c-1.08,0.17-2.11,0.34-3.24,0.52c0,0.28-0.04,0.6,0.01,0.9c0.5,3.02-0.84,5.25-3.02,7.13
			C316.82,337.78,316.01,338.51,315.01,339.4z M228.99,383.87c2.1,2.13,2.43,4.29,0.46,6.78c1.03-0.16,1.81-0.21,2.56-0.41
			c1.19-0.33,1.65-1.99,0.86-2.94c-0.26-0.3-0.7-0.52-0.81-0.86c-0.2-0.64-0.45-1.41-0.25-1.99c0.14-0.41,0.95-0.63,1.49-0.85
			c0.27-0.11,0.61-0.02,0.85-0.02c0.29-0.93,0.55-1.75,0.83-2.65c-1.04,0.51-2,0.98-2.96,1.45
			C231.04,382.87,230.07,383.34,228.99,383.87z M259.07,381.29c0.33,1.61,0.61,3.01,0.9,4.43c0.47-0.2,0.95-0.41,1.45-0.62
			c0-0.53,0-1.01,0-1.48c0.01-0.86-0.07-1.65,0.72-2.37c0.81-0.73,1.66-0.8,2.62-0.78c1.66,0.03,2.14,0.63,1.81,2.3
			c1.16,0.14,1.84-0.61,1.59-1.75c-0.38-1.75-1.65-2.49-3.59-1.86C262.62,379.79,260.73,380.63,259.07,381.29z M298.51,367.69
			c0.15,0.81,0.34,1.85,0.53,2.91c2.14-0.76,4.12-1.47,6.43-2.29c-1.64-1.4-2.99-2.54-4.47-3.8c-0.19,0.15-0.62,0.48-0.79,0.61
			c0.22,0.87,0.62,1.83,0.46,1.93C300.13,367.41,299.39,367.46,298.51,367.69z M310.26,281.54c0,0.15-0.04,0.29,0.01,0.34
			c1.65,1.83,3.3,3.68,5,5.47c0.17,0.18,0.72,0.14,1.02,0.02c0.73-0.3,1.42-0.7,2.34-1.17C315.78,284.61,313.07,283.1,310.26,281.54
			z M273.59,368.41c3.43-0.94,4.7-2.05,5.25-4.68c-2.14,0.76-4.24,1.51-6.37,2.27C272.84,366.8,273.21,367.6,273.59,368.41z
			 M301.67,287.28c-4.81,2.76-9.26,5.99-13.2,9.88c0.22,0.16,0.5,0.37,0.79,0.55c0.16,0.1,0.34,0.17,0.51,0.25
			C293.23,293.8,297.53,290.63,301.67,287.28z M253.61,380.07c-0.1,0.1-0.21,0.21-0.31,0.31c0.7,0.63,1.48,1.19,2.09,1.9
			c0.44,0.51,0.9,1.2,0.92,1.83c0.03,0.69-0.4,1.42-0.68,2.1c-0.06,0.14-0.39,0.26-0.57,0.24c-0.56-0.07-1.11-0.22-1.82-0.37
			c-0.1,0.62-0.22,1.32-0.36,2.17c1.65-0.59,3.14-1.12,4.63-1.66C257.92,382.96,257.07,381.54,253.61,380.07z M291,299.3
			c0.04,0.17,0.08,0.33,0.13,0.5c0.59,0.21,1.35,0.76,1.75,0.57c1.52-0.7,2.92-1.65,4.68-2.69c-1.35-0.57-2.34-0.98-2.9-1.22
			C293.33,297.49,292.16,298.39,291,299.3z M357.61,386.52c2.86-2.52,3.57-5.04,2.3-8.16C358.01,380.88,358.36,383.87,357.61,386.52
			z M348.34,389.24c1.01,0.18,1.76,0.41,2.52,0.4c0.49,0,1.31-0.26,1.4-0.57c0.4-1.42,0.59-2.9,0.85-4.35
			c-0.15-0.08-0.3-0.17-0.45-0.25C351.24,386.04,349.81,387.61,348.34,389.24z M352.46,382.48c-0.07-0.07-0.14-0.14-0.21-0.21
			c-1.73,1.73-3.47,3.47-5.21,5.2c-1.18,1.17-2.2,2.4-1.95,4.51C347.63,388.71,350.04,385.6,352.46,382.48z M327.7,338.04
			c-1.94,0.37-3.66,0.7-5.31,1.02c1.14,1.06,2.3,2.14,3.59,3.34C326.57,340.91,327.11,339.55,327.7,338.04z M300.9,295.37
			c1.77-0.95,3.27-1.75,4.9-2.63c-1.56-0.6-3.01-1.16-4.57-1.76C301.13,292.43,301.03,293.76,300.9,295.37z M239.82,392.74
			c-1.94-2.65-4.18-0.46-6.48-0.75c0.78,0.63,1.33,1.12,1.93,1.53c0.3,0.21,0.75,0.44,1.05,0.36
			C237.47,393.57,238.59,393.15,239.82,392.74z M220.23,398.21c0.21,0.07,0.49,0.26,0.75,0.23c0.89-0.11,1.78-0.24,2.63-0.48
			c0.4-0.11,0.74-0.49,1.1-0.75c-0.44-0.3-0.85-0.79-1.33-0.88C221.97,396.09,220.67,396.25,220.23,398.21z M345.91,384.82
			c1.97-2.21,3.75-4.22,5.54-6.22c-1.73,1.1-3.35,2.37-5.03,3.55C345.54,382.77,345.47,383.48,345.91,384.82z M295.33,391.64
			c-0.13-0.03-0.27-0.07-0.4-0.1c-0.2,0.28-0.58,0.57-0.56,0.84c0.08,1.52,0.22,3.04,0.41,4.56c0.08,0.7,0.3,1.38,0.46,2.07
			c0.03-0.02,0.06-0.03,0.09-0.05C295.33,396.51,295.33,394.07,295.33,391.64z M320.07,321.04c-1.21,0-2.38,0-3.76,0
			c1.04,0.93,1.94,1.72,2.94,2.61C319.54,322.73,319.8,321.89,320.07,321.04z M352.78,380.19c0.07,0.09,0.13,0.19,0.2,0.28
			c1.46-1.04,2.91-2.08,4.58-3.28C355.07,377.23,354.07,378.91,352.78,380.19z M294.8,412.52c0.1-0.04,0.2-0.08,0.3-0.12
			c-0.59-1.17-1.17-2.34-1.76-3.52C292.84,410.59,293.8,411.56,294.8,412.52z M333.93,368.36c-0.57-0.63-1.06-1.17-1.7-1.88
			c0,0.95,0,1.64,0,2.38C332.74,368.7,333.22,368.56,333.93,368.36z M345.64,381.03c0.79-0.6,1.43-1.09,2.06-1.57
			c-0.05-0.08-0.09-0.17-0.14-0.25c-0.64,0.13-1.27,0.26-1.92,0.39C345.64,380.01,345.64,380.37,345.64,381.03z M345.52,386.93
			c0.1,0.08,0.19,0.16,0.29,0.25c0.77-0.86,1.55-1.73,2.32-2.59c-0.09-0.08-0.19-0.16-0.28-0.24
			C347.12,385.24,346.05,385.86,345.52,386.93z"/>
		<path class="st0" d="M292.91,338.08c0.21,2.4,0.44,4.8,0.62,7.2c0.02,0.21-0.21,0.55-0.41,0.65c-2.71,1.3-5.46,2.49-8.14,3.85
			c-2.94,1.49-5.77,3.19-8.72,4.67c-1.83,0.92-3.76,1.66-5.69,2.36c-3.92,1.42-7.86,2.8-11.82,4.12c-3.47,1.16-6.98,2.21-10.47,3.33
			c-4.12,1.32-8.27,2.55-12.33,4.02c-2.69,0.97-5.25,2.32-7.89,3.45c-3.58,1.54-7.17,3.06-10.77,4.53c-1.88,0.77-3.88,1.3-5.69,2.21
			c-0.85,0.43-1.3-0.14-1.93-0.17c-2.74-0.15-5.25-0.91-6.72-3.43c-2.02-3.45-3.8-7.03-2.21-11.19c0.58-1.51,1.29-2.85,3.19-3.37
			c1.69-0.47,3.19-1.61,4.81-2.38c2.56-1.23,5.08-2.61,7.74-3.54c4.26-1.48,8.61-2.71,12.95-3.93c3.11-0.88,6.3-1.49,9.4-2.39
			c3.21-0.93,6.47-1.83,9.5-3.2c3.08-1.4,5.89-3.4,8.86-5.07c2.07-1.16,4.19-2.24,6.33-3.27c4.53-2.18,8.99-4.53,13.66-6.37
			c3.89-1.54,8.03-2.46,12.07-3.62c0.51-0.15,1.37-0.36,1.55-0.13c0.64,0.81,1.36,1.75,1.52,2.72c0.47,2.95,0.69,5.95,1.01,8.93
			C293.18,338.05,293.05,338.06,292.91,338.08z M269.25,352.35c0.5-1.17,1.06-2.2,1.35-3.31c0.14-0.53-0.1-1.25-0.37-1.79
			c-0.14-0.29-0.7-0.55-1.04-0.52c-1.09,0.11-2.16,0.37-3.24,0.57c0.03-0.58,0.17-0.85,0.34-1.09c0.46-0.64,1.08-1.2,1.36-1.9
			c0.6-1.49,0.41-2.97-1.62-2.95c-0.58,0-1.16-0.14-1.74-0.21c-0.84-0.11-1.68-0.22-2.59-0.33c0,0.67,0,1.14,0,1.77
			c1.32,0.21,2.65,0.42,4.17,0.66c-0.88,1.23-1.76,2.37-2.53,3.57c-0.29,0.45-0.44,1.08-0.38,1.6c0.02,0.19,0.86,0.37,1.33,0.38
			c1.3,0.05,2.61,0.02,3.99,0.02c-0.44,1.19-0.87,2.27-1.24,3.38c-0.39,1.2,0.14,1.89,1.39,1.9c0.56,0,1.12,0,1.68,0
			c1.72,0,1.8-0.1,1.46-1.92c-0.34,0-0.69-0.02-1.04,0.01C270.16,352.2,269.79,352.27,269.25,352.35z M271.05,339.8
			c-0.38,0.71-0.72,1.31-1.02,1.93c-0.65,1.33-0.21,2.27,1.21,2.52c0.91,0.16,1.83,0.24,2.8,0.36c-0.31,0.58-0.64,1.12-0.89,1.68
			c-0.57,1.27-0.13,1.98,1.24,2.03c0.51,0.02,1.03,0,1.29,0c0.52,0.79,0.92,1.41,1.33,2.05c1-0.76,1.38-1.42,1.1-2.58
			c-0.39-1.64-1.71-0.95-2.65-1.22c0.23-0.46,0.45-0.83,0.62-1.22c0.77-1.73,0.26-2.55-1.56-2.55c-0.81,0-1.62,0-2.63,0
			c0.46-0.83,0.87-1.31,0.98-1.85c0.16-0.73,0.43-1.79,0.07-2.22c-1.17-1.4-2.78-2.17-4.75-2.18c0,0.67,0,1.22,0,1.76
			C269.14,338.81,270.08,339.3,271.05,339.8z M236.33,352.01c0,0.9,0,1.47,0,1.97c1.39,0.24,2.68,0.46,3.98,0.68
			c-0.27,0.6-0.49,1.1-0.72,1.58c-0.23,0.49-0.47,0.98-0.72,1.46c-0.85,1.58-0.37,2.38,1.45,2.38c0.94,0,1.87,0,2.97,0
			c-0.38,0.77-0.78,1.33-0.92,1.95c-0.1,0.41,0.16,0.9,0.26,1.36c0.59-0.18,1.28-0.22,1.73-0.57c0.38-0.3,0.49-0.95,0.72-1.45
			c0.85-1.9-0.06-3.28-2.08-3.45c-0.68-0.06-1.37-0.01-2.15-0.01c0.5-0.77,0.92-1.33,1.26-1.94c0.47-0.84,0.12-2.77-0.56-2.93
			C239.84,352.65,238.12,352.36,236.33,352.01z M285.93,339.63c0.42-0.75,0.78-1.4,1.15-2.05c0.51-0.89,0.32-1.74-0.56-2.1
			c-1.38-0.56-2.85-0.87-4.4-1.32c-0.12,1.33-0.16,2.18,1.24,2.2c0.53,0.01,1.06,0.36,1.64,0.58c-0.47,0.87-0.9,1.62-1.29,2.38
			c-0.77,1.51-0.18,2.45,1.51,2.54c0.71,0.04,1.41,0.26,2.16,0.41c-0.44,1.21-0.9,2.21-1.13,3.26c-0.08,0.38,0.29,1.14,0.64,1.28
			c0.61,0.25,1.36,0.16,1.63-0.7c0.3-0.96,0.61-1.92,0.89-2.89c0.46-1.58-0.11-2.7-1.57-3.15
			C287.24,339.9,286.62,339.79,285.93,339.63z M247.07,355.52c0.33-0.49,0.54-0.81,0.75-1.13c1.7-2.54,1.06-3.27-1.44-3.91
			c-0.41-0.11-1.11-0.16-1.17-0.38c-0.37-1.3-1.24-0.71-2.03-0.73c0,0.29,0.02,0.49,0,0.69c-0.1,1.12,0.07,1.96,1.52,1.93
			c0.61-0.01,1.23,0.32,1.93,0.52c-0.67,0.91-1.28,1.67-1.8,2.49c-0.58,0.9-0.23,1.8,0.78,1.97c1.08,0.19,2.17,0.25,3.38,0.37
			c-0.07,0.46-0.23,0.92-0.18,1.36c0.03,0.38,0.23,0.79,0.48,1.08c0.15,0.18,0.62,0.3,0.8,0.19c1-0.57,1.25-1.54,0.96-2.55
			c-0.26-0.93-0.45-2.09-1.93-1.9C248.5,355.59,247.86,355.52,247.07,355.52z M225.56,357.92c-0.7,1.1-1.17,1.78-1.58,2.49
			c-0.16,0.27-0.39,0.73-0.28,0.89c0.25,0.38,0.66,0.79,1.08,0.9c0.6,0.15,1.27,0.02,1.91,0.05c0.74,0.04,0.99,0.46,0.91,1.19
			c-0.07,0.69-0.02,1.4-0.02,2.5c0.84-0.39,1.73-0.53,1.85-0.92c0.3-0.91,0.39-1.96,0.26-2.91c-0.07-0.48-0.71-1.06-1.22-1.28
			c-0.69-0.29-1.51-0.26-2.63-0.42c0.55-0.61,1.05-0.99,1.29-1.49c0.27-0.56,0.42-1.24,0.39-1.86c-0.01-0.21-0.7-0.53-1.1-0.57
			c-1.53-0.14-3.08-0.18-4.62-0.26c-0.64-0.03-1.21-0.03-1.18,0.89c0.03,0.87,0.6,0.79,1.17,0.79
			C222.97,357.92,224.14,357.92,225.56,357.92z M205.46,367.18c0.21-0.41,0.39-0.68,0.48-0.97c0.38-1.18-0.1-2.48-0.95-2.52
			c-0.91-0.05-1.82-0.01-2.76-0.01c0,0.62,0,1.11,0,1.64c0.54,0.03,1.01,0.05,1.49,0.07c-0.04,0.22-0.09,0.41-0.11,0.59
			c-0.08,0.82-0.46,1.81-0.14,2.42c0.27,0.51,1.38,0.55,2.11,0.83c0.63,0.24,1.06,0.52,0.81,1.4c-0.29,1.04-0.35,2.14-0.57,3.65
			c0.94-0.34,1.92-0.44,2.01-0.78c0.34-1.32,0.47-2.71,0.55-4.07c0.07-1.11-0.6-1.73-1.68-1.92
			C206.3,367.44,205.92,367.3,205.46,367.18z M218.94,362.74c0.07-0.3,0.21-0.66,0.23-1.03c0.06-0.82,0.2-1.87-0.88-2.03
			c-1.58-0.24-3.2-0.21-4.8-0.3c-0.12,1.9-0.12,1.9,1.57,1.9c0.63,0,1.27,0,1.99,0c-0.07,0.33-0.09,0.56-0.17,0.77
			c-0.87,2.16-0.59,2.59,1.71,2.59c2.1,0,2.21,0.09,2.73,2.31c0.57-0.2,1.29-0.24,1.64-0.62c0.44-0.48-0.41-2.73-1.08-2.95
			C220.98,363.09,220.01,362.97,218.94,362.74z M213.06,367.52c0.34-3.53-0.69-3.96-4.36-3.41c0,0.47,0,0.94,0,1.4
			c2.29,0.27,2.29,0.27,2.34,2.55c0,0.04,0,0.08,0,0.12c-0.09,0.79,0.27,1.08,1.04,1.04c0.75-0.04,1.5-0.01,2.45-0.01
			c-0.23,0.54-0.49,0.92-0.53,1.31c-0.07,0.65-0.25,1.71,0.05,1.89c0.72,0.43,1.53,0.2,1.64-0.92c0.01-0.09,0.34-0.15,0.36-0.25
			c0.17-0.94,0.55-1.95,0.36-2.82c-0.09-0.42-1.26-0.65-1.97-0.87C214.04,367.42,213.58,367.52,213.06,367.52z M259.09,354.59
			c0.47-0.61,1.11-1.22,1.47-1.98c0.28-0.58,0.39-1.37,0.24-1.99c-0.07-0.3-0.89-0.48-1.4-0.6c-0.76-0.18-1.54-0.24-2.31-0.39
			c-0.61-0.12-1.21-0.29-1.81-0.43c-0.28,1.45-0.18,2.37,1.42,2.3c0.56-0.02,1.13,0.18,1.85,0.31c-0.3,0.47-0.63,0.85-0.83,1.3
			c-0.33,0.77-0.63,1.56-0.84,2.37c-0.05,0.2,0.29,0.64,0.54,0.73c1.02,0.36,2.06,0.69,3.12,0.89c0.37,0.07,0.82-0.25,1.23-0.4
			c-0.13-0.37-0.16-0.9-0.42-1.06C260.69,355.21,259.91,354.95,259.09,354.59z M279.24,341.73c0.23-0.69,0.44-1.47,0.74-2.21
			c0.37-0.91-0.01-1.43-0.83-1.73c-0.73-0.26-1.48-0.47-2.22-0.7c-0.71-0.22-1.42-0.45-2.33-0.74c0.04,0.83-0.11,1.66,0.12,1.79
			c1.07,0.59,2.25,0.99,3.47,1.49c-0.26,0.34-0.58,0.68-0.8,1.06c-0.43,0.74-1.04,1.56-0.4,2.39c0.88,1.15,2.2,1.61,3.62,1.62
			c0.32,0,0.81-0.27,0.9-0.53c0.11-0.29-0.04-0.84-0.28-1.05C280.66,342.61,279.98,342.23,279.24,341.73z M234.95,363.57
			c0.27-0.52,0.65-1.15,0.92-1.83c0.51-1.27,0.13-2.56-0.77-2.6c-1.35-0.07-2.7-0.02-4.09-0.02c-0.32,2.66,1.91,1.18,2.93,1.96
			c-0.49,0.73-1,1.45-1.47,2.19c-0.71,1.14-0.38,1.87,0.89,2.1c0.24,0.04,0.46,0.23,0.68,0.37c0.39,0.24,0.76,0.49,1.14,0.74
			c0.19-0.48,0.55-0.99,0.51-1.45C235.66,364.54,235.23,364.08,234.95,363.57z M249,348.68c1,0.13,1.92,0.25,2.75,0.36
			c-0.48,1.73-0.88,3.19-1.29,4.66c0.12,0.09,0.24,0.19,0.36,0.28c0.56-0.17,1.46-0.19,1.63-0.55c0.75-1.57,1.52-3.2,1.26-5.02
			c-0.05-0.37-0.41-0.94-0.69-0.98c-1.3-0.22-2.63-0.28-4.02-0.4C249,347.7,249,348.17,249,348.68z M255.48,342.24
			c0,0.73,0,1.2,0,1.67c0.98,0.21,1.9,0.41,2.82,0.62c-0.29,1.38-1.79,2.24-0.92,4.01c0.61-0.28,1.36-0.45,1.82-0.89
			c0.45-0.43,0.67-1.14,0.91-1.76c0.52-1.36,0.06-3.03-0.96-3.23C257.98,342.42,256.76,342.38,255.48,342.24z M232.49,354
			c-0.37,0.69-0.79,1.27-0.98,1.92c-0.1,0.35,0.15,1.15,0.33,1.18c0.53,0.08,1.33,0.08,1.61-0.25c0.51-0.59,0.83-1.41,1.01-2.18
			c0.32-1.35,0.06-2.73-1.89-2.52c-0.38,0.04-0.78-0.05-1.16-0.13c-0.61-0.12-1.21-0.28-1.99-0.46c0.09,0.89-0.01,1.87,0.25,1.97
			C230.49,353.85,231.42,353.85,232.49,354z"/>
		<path class="st0" d="M219.16,350.74c-0.67-0.38-1.34-0.88-2.09-1.16c-1.33-0.51-2.27,0.14-2.42,1.6
			c-0.06,0.58-0.01,1.18-0.01,1.85c-0.79-0.4-1.47-0.77-2.17-1.1c-1.6-0.75-2.66-0.11-2.61,1.64c0.03,1.07-0.13,1.88-1.41,2.09
			c-0.89-0.73-1.78-1.73-3.37-1.21c-0.29,1.55,0.82,4.01-2.35,4.16c-0.64-1.96-0.39-4.05-0.26-6.06c0.11-1.69,0.66-3.37,1.2-4.99
			c0.22-0.67,0.81-1.33,1.41-1.74c1.06-0.71,2.27-1.19,3.37-1.85c0.4-0.24,0.76-0.66,0.95-1.09c1.23-2.74,3.02-4.97,5.79-6.24
			c1.01-0.47,2.16-0.64,3.17-1.11c1.87-0.87,3.69-1.84,5.51-2.81c4.53-2.42,9.1-4.75,14.27-5.49c2.68-0.39,5.38-0.61,8.06-0.99
			c0.66-0.09,1.39-0.36,1.9-0.78c1.79-1.5,3.84-2.29,6.06-2.93c2.24-0.64,4.39-1.6,6.55-2.51c5.47-2.3,10.93-4.65,16.39-6.98
			c2.73-1.16,5.46-2.33,8.4-3.58c-0.66,4.27-0.04,8.14,2.37,11.72c-0.33,0-0.55,0.07-0.69-0.01c-1.39-0.79-2.75-1.62-4.15-2.39
			c-0.99-0.55-2.17,0.14-2.19,1.27c-0.03,1.68-0.01,3.36-0.01,5.14c-1.5-0.17-2.52-1.99-4.3-1.13c0,0.73,0,1.51,0,2.48
			c-0.72-0.39-1.3-0.69-1.87-1.02c-2.08-1.18-3.52-0.35-3.66,2.12c-0.03,0.55,0,1.11,0,1.71c-0.89-0.24-1.67-0.55-2.49-0.65
			c-1.29-0.15-0.75,1.26-1.39,1.78c-0.87-0.36-1.75-0.77-2.67-1.1c-1.32-0.47-2.15-0.08-2.66,1.19c-0.31,0.76-0.62,1.52-0.84,2.31
			c-0.33,1.18-0.66,1.36-1.82,0.86c-0.25-0.11-0.5-0.22-0.76-0.33c-1.04-0.43-1.81-0.01-1.99,1.08c-0.12,0.73-0.22,1.46-0.35,2.32
			c-0.87-0.53-1.68-1.07-2.53-1.53c-1.62-0.88-2.4-0.43-2.4,1.37c0,1.21,0,2.43,0,3.63c-1.34-0.31-2.86-0.66-4.39-1.02
			c-0.21,0.97-0.35,1.65-0.52,2.44c-0.72-0.48-1.35-0.91-2-1.33c-1.34-0.88-2.25-0.59-2.73,0.92c-0.33,1.03-0.6,2.08-0.84,2.94
			c-1.03-0.36-2.15-1-3.3-1.09c-1.6-0.12-1.11,1.99-2.23,2.54c-3.52-2.07-3.95-2.03-4.61,0.15c-0.94-0.28-1.86-0.6-2.81-0.81
			c-0.64-0.15-1.01,0.12-1.07,0.88c-0.06,0.73-0.33,1.43-0.53,2.22c-1.1-0.37-2.2-1-3.05-0.13c-1.05-0.05-2.28-0.47-2.87-0.03
			C219.53,348.39,219.5,349.67,219.16,350.74z"/>
		<path class="st0" d="M340.2,366.36c-0.59-3.74-0.12-6.99,1.41-9.97c1.51-2.95,3.72-5.38,6.79-6.83c1.68-0.79,3.46-1.37,5.16-2.13
			c0.46-0.21,1.13-0.77,1.09-1.07c-0.07-0.46-0.62-0.96-1.09-1.22c-1.08-0.61-2.28-1.01-3.36-1.62c-1.71-0.97-2.48-2.6-2.65-4.48
			c-0.32-3.44,0.68-6.43,3.16-8.9c0.38-0.38,0.67-0.87,0.92-1.35c0.62-1.2,0-2.14-1.32-2.3c-2.34-0.28-4.7-0.5-6.97-1.06
			c-1.31-0.32-2.46-1.28-3.71-1.9c-2.31-1.15-4.82-1.99-6.91-3.45c-1.96-1.37-3.74-3.18-5.13-5.14c-1.16-1.63-1.67-3.73-2.41-5.64
			c-0.18-0.46-0.22-1.01-0.17-1.51c0.29-3.25,0.44-6.54,1-9.75c0.44-2.52,1.59-4.91,3.69-6.51c1.73-1.32,3.85-1.88,6.06-1.69
			c0.85,0.07,1.52,2.1,1.03,2.9c-0.25,0.4-0.54,0.78-0.86,1.12c-3.09,3.27-4.11,7.15-3.22,11.51c0.15,0.75,0.66,1.53,1.22,2.08
			c2.47,2.44,5.1,4.4,8.89,4.5c2.7,0.07,5.36,0.31,7.94-0.58c1.58-0.54,3.08-1.32,4.69-2.03c0.86,1.77,1.75,3.61,2.72,5.61
			c-3.21,0.18-6.25,0.86-9.38,0.31c-1.09-0.19-2.29-0.24-3.34,0.02c-2.2,0.55-3.01,3.76-1.38,5.4c0.74,0.74,1.74,1.41,2.74,1.67
			c2.46,0.64,4.97,1.11,7.48,1.49c2.76,0.42,5.56,0.66,8.58,1.01c0.46,0.96,1.06,2.2,1.51,3.15c-2.48,1.37-5.02,2.58-7.35,4.1
			c-3.14,2.05-3.18,7.78,0,9.64c1.83,1.08,3.54,1.46,5.57,1.13c1.24-0.21,2.53-0.13,3.77-0.32c0.99-0.15,1.98-0.44,2.92-0.79
			c0.6-0.23,0.86-0.1,1.09,0.45c0.75,1.84,1.58,3.66,2.26,5.53c0.12,0.32-0.22,1-0.55,1.26c-1.38,1.09-2.84,2.08-4.29,3.12
			c-1.29-1.39-2.97-1.83-4.79-1.87c-2.18-0.06-4.37-0.12-6.36,0.96c-2.32,1.26-4.9,2.26-6.35,4.62c-1.02,1.67-1.66,3.57-2.5,5.36
			c-0.21,0.45-0.45,1-0.84,1.24C344.8,363.74,342.59,364.98,340.2,366.36z"/>
		<path class="st0" d="M234.13,304.41c2.24-1.5,4.34-2.91,6.46-4.3c1.66-1.09,3.34-2.15,4.99-3.24c3.58-2.37,7.12-4.8,10.74-7.1
			c3.61-2.29,7.29-4.48,10.98-6.64c3.49-2.05,7.08-3.93,10.54-6.02c4.34-2.62,8.56-5.45,12.91-8.06c2.43-1.45,5.01-2.65,7.55-3.91
			c0.27-0.13,0.71-0.03,1.03,0.09c0.77,0.31,1.33,0.02,1.74-0.58c1.02-1.5,1.29-1.73,3.14-2.33c0.13,0.89,0.32,1.77,0.38,2.65
			c0.12,1.82,0.11,3.65,0.28,5.46c0.08,0.83-0.32,1.24-0.89,1.59c-2.02,1.26-4.03,2.54-6.1,3.73c-1.68,0.97-3.44,1.82-5.17,2.72
			c-1.93,1-3.87,1.97-5.78,3c-4.49,2.44-9,4.84-13.79,6.67c-1.54,0.59-2.94,1.55-4.39,2.37c-1.73,0.98-3.5,1.9-5.14,3.01
			c-2.65,1.8-5.17,3.82-7.83,5.61c-1.97,1.32-4.06,2.47-6.15,3.6c-2.49,1.35-5.07,2.54-7.54,3.93c-1.62,0.91-3.1,1.18-4.68,0.02
			C236.42,305.96,235.41,305.29,234.13,304.41z M290.93,276.42c0.83-0.32,1.94,0.61,2.15-0.88c0.11-0.79-0.21-1.1-1.05-1.12
			C290.48,274.37,291.01,275.42,290.93,276.42z M241.32,304.69c0.8-0.32,1.45-0.5,2-0.84c0.16-0.1,0.14-0.92,0.02-0.96
			c-0.61-0.24-1.28-0.35-2.02-0.52C241.32,303.18,241.32,303.72,241.32,304.69z M281.62,281.97c0.85-0.38,1.49-0.59,2.02-0.96
			c0.15-0.1,0.09-0.92-0.03-0.96c-0.62-0.21-1.29-0.28-1.98-0.41C281.62,280.43,281.62,280.98,281.62,281.97z M274.91,285.95
			c0.77-0.29,1.43-0.44,1.97-0.78c0.17-0.11,0.11-1.01-0.01-1.06c-0.62-0.21-1.29-0.26-1.96-0.37
			C274.91,284.53,274.91,285.08,274.91,285.95z M267.7,288.52c0.71-0.2,1.33-0.24,1.76-0.55c0.2-0.14,0.18-1.07-0.01-1.18
			c-0.48-0.29-1.11-0.31-1.75-0.45C267.7,287.14,267.7,287.68,267.7,288.52z M261.47,293.08c0.71-0.2,1.33-0.24,1.76-0.55
			c0.2-0.14,0.18-1.07-0.01-1.18c-0.48-0.29-1.11-0.31-1.75-0.45C261.47,291.69,261.47,292.24,261.47,293.08z M254.28,297.13
			c0.67-0.18,1.3-0.24,1.76-0.55c0.19-0.12,0.15-1.07-0.04-1.18c-0.48-0.27-1.12-0.28-1.72-0.4
			C254.28,295.79,254.28,296.34,254.28,297.13z M286.22,274.67c0,0.76,0,1.33,0,1.89c0.91,0.07,1.87,0.29,1.82-1.03
			C287.98,274.11,286.91,274.88,286.22,274.67z M297.92,272.73c0.68-0.24,1.28-0.31,1.66-0.63c0.22-0.19,0.24-1.07,0.09-1.15
			c-0.5-0.26-1.11-0.3-1.74-0.44C297.92,271.3,297.92,271.85,297.92,272.73z M247.6,299.61c0,0.68,0,1.18,0,1.73
			c0.75-0.21,1.9,0.49,1.81-0.96C249.32,299.08,248.28,299.84,247.6,299.61z M301.63,268.64c-0.2-0.54-0.27-1.02-0.54-1.3
			c-0.16-0.17-0.81-0.15-0.96,0.03c-0.25,0.29-0.28,0.78-0.44,1.27C300.39,268.64,300.84,268.64,301.63,268.64z"/>
		<path class="st0" d="M294.03,348.13c0.8,2.32,1.56,4.52,2.38,6.89c-1.38,0.43-2.83,0.81-4.23,1.32
			c-5.94,2.14-11.86,4.34-17.79,6.49c-3.99,1.44-8.02,2.75-11.99,4.24c-3.05,1.15-6.01,2.56-9.05,3.76
			c-3.65,1.44-7.34,2.79-11.02,4.16c-3.55,1.32-6.8,3.22-10.14,4.96c-2,1.04-4.12,1.85-6.22,2.67c-3.37,1.32-6.75,2.6-10.15,3.83
			c-1.02,0.37-2.11,0.53-3.18,0.71c-0.26,0.04-0.62-0.13-0.83-0.32c-1.45-1.31-1.98-3.06-2.17-4.93c-0.03-0.29,0.16-0.8,0.38-0.89
			c2.08-0.82,4.13-1.87,6.3-2.27c3.73-0.7,6.89-2.66,10.32-4.04c5.24-2.1,10.44-4.31,15.74-6.25c3.21-1.18,6.61-1.83,9.86-2.9
			c4.48-1.48,8.9-3.15,13.36-4.69c2.28-0.79,4.59-1.53,6.91-2.22c2.91-0.86,5.41-2.5,8.06-3.89c4.16-2.2,8.45-4.15,12.68-6.21
			C293.48,348.44,293.71,348.3,294.03,348.13z M291.15,352.18c-1.51,0.72-2.95,1.4-4.38,2.1c-0.54,0.27-0.94,0.78-0.56,1.3
			c0.32,0.44,0.82,0.89,1.61,0.45c1.21-0.68,2.53-1.15,3.73-1.84c0.33-0.19,0.48-0.85,0.5-1.3
			C292.07,352.7,291.54,352.48,291.15,352.18z M244.24,371.5c1.72,0.44,3.05-0.52,4.42-1.23c0.62-0.32,1.15-1.07,0.64-1.64
			c-0.31-0.34-1.28-0.29-1.87-0.13c-0.74,0.2-1.35,0.85-2.09,1.03C244.13,369.81,243.96,370.47,244.24,371.5z M226.79,377.04
			c-1.84,0.62-3.5,1.18-5.11,1.73c0,0.64,0,1.14,0,1.62C224.52,380.64,226.91,379.26,226.79,377.04z M217.95,380.91
			c-1.7,0.44-3.23,0.84-4.67,1.22c0,0.7,0,1.16,0,1.61C216.25,384.04,218,383.13,217.95,380.91z M265.21,362.68
			c-1.69,0.43-3.23,0.82-4.69,1.19c0,0.7,0,1.17,0,1.62C263.06,365.81,265.24,364.7,265.21,362.68z M270.35,362.34
			c1.22-0.12,2.35-0.17,3.46-0.37c0.83-0.15,1.58-0.66,1.24-1.63c-0.32-0.92-1.21-0.51-1.85-0.38c-0.94,0.2-1.85,0.52-2.85,0.81
			C270.35,361.14,270.35,361.6,270.35,362.34z M230.59,376.28c1.78,0.18,2.71-0.01,3.52-0.81c0.26-0.26,0.36-0.74,0.4-1.14
			c0.02-0.17-0.36-0.56-0.47-0.54c-1.03,0.26-2.09,0.51-3.03,0.97C230.71,374.91,230.73,375.7,230.59,376.28z M278.97,358.14
			c1.15-0.26,2.14-0.42,3.07-0.74c0.25-0.09,0.46-0.69,0.43-1.04c-0.02-0.22-0.53-0.58-0.8-0.56c-0.91,0.06-1.81,0.27-2.7,0.42
			C278.97,356.86,278.97,357.32,278.97,358.14z M238.02,373.66c1.02,0.28,1.96,0.08,2.67-0.69c0.25-0.27,0.33-0.8,0.27-1.18
			c-0.03-0.18-0.54-0.4-0.84-0.42C238.34,371.24,237.78,371.87,238.02,373.66z M253.31,368.11c2.59,0.4,3.4-0.04,3.18-1.85
			c-1.06,0.08-2.13,0.16-3.18,0.24C253.31,367.19,253.31,367.65,253.31,368.11z"/>
		<path class="st0" d="M292.29,290.32c-1.88-0.31-3.7-0.57-5.49-0.93c-1.34-0.26-1.63-0.09-1.63,1.29c0,1.67,0,3.34,0,4.86
			c-1.78,0-3.43,0.08-5.08-0.02c-2.41-0.14-4.6,0.57-6.68,1.6c-5.04,2.53-10.05,5.12-15.04,7.76c-7.08,3.75-14.5,6.64-22.1,9.11
			c-1.76,0.57-3.48,1.25-5.3,1.73c2.34-1.46,4.75-2.83,7.02-4.4c4.43-3.08,9.48-4.99,14.2-7.52c3.81-2.04,7.28-4.51,10.79-6.98
			c3.33-2.35,6.93-4.36,10.53-6.3c2.47-1.32,5.21-2.13,7.71-3.4c3.63-1.85,7.12-3.96,10.72-5.88c1.89-1,3.9-1.76,5.79-2.76
			c1.85-0.98,3.62-2.12,5.42-3.21c1.3-0.79,2.58-1.6,4.03-2.51c0.29,0.89,0.52,1.58,0.74,2.27c0.26,0.82,0.43,1.67,0.79,2.44
			c0.5,1.09-0.14,1.45-0.95,1.47c-1.42,0.04-2.86-0.02-4.26-0.2c-1.34-0.17-2.17,0.32-2.48,1.7c-0.37,1.63-0.78,3.25-1.18,4.94
			c-1.53-0.32-2.93-0.59-4.33-0.9c-1.56-0.34-2.5,0.36-2.65,1.99c-0.06,0.62-0.15,1.25-0.24,1.87
			C292.51,288.99,292.41,289.6,292.29,290.32z"/>
		<path class="st0" d="M401.12,311.48c-0.49,3.06-1.55,5.9-3.43,8.36c-1.79,2.34-3.69,4.61-5.62,6.83
			c-1.86,2.14-3.81,4.19-5.76,6.25c-0.9,0.96-1.21,0.91-1.75-0.26c-2.07-4.5-4.13-9.02-6.12-13.56c-0.16-0.36,0.07-1.09,0.37-1.42
			c1.11-1.23,2.27-2.42,3.51-3.51c0.5-0.44,1.23-0.65,1.88-0.87c3.65-1.24,7.3-2.48,10.98-3.64c1.33-0.42,2.73-0.68,4.11-0.89
			c0.72-0.11,1.44,0.06,1.51,1.07C400.84,310.38,401.01,310.91,401.12,311.48z"/>
		<path class="st0" d="M339.25,380.85c0.13,3.46,0.15,6.71,0.39,9.94c0.29,3.92,0.8,7.83,1.13,11.75c0.07,0.81-0.18,1.69-0.48,2.46
			c-0.44,1.11-0.97,2.22-1.65,3.2c-0.4,0.58-1.14,0.95-1.78,1.33c-0.87,0.52-1.76,1-2.68,1.42c-0.52,0.24-1.1,0.45-1.66,0.45
			c-7.67,0.03-15.35,0.02-23.02,0.02c-2.25,0-3.23-1.02-3.23-3.23c0.01-6.91,0.04-13.83-0.03-20.74c-0.01-1.25,0.35-1.97,1.47-2.42
			c0.54-0.22,1.01-0.59,1.67-0.98c-0.1,0.44-0.21,0.71-0.22,0.98c-0.25,6.43-0.41,12.86-0.77,19.28c-0.15,2.67,1.99,4.28,4.18,4.46
			c2.29,0.18,4.61,0.34,6.9,0.22c2.54-0.13,5.07-0.58,7.61-0.89c2.15-0.26,4.29-0.54,6.45-0.74c1.7-0.15,2.74-1.16,2.72-2.91
			c-0.07-6.15-0.17-12.3-0.22-18.44c-0.01-1.34,0.13-2.69,0.25-4.03c0.02-0.24,0.28-0.59,0.5-0.66
			C337.49,381.12,338.23,381.03,339.25,380.85z"/>
		<path class="st0" d="M341.89,351.46c-1.33,2.32-2.58,4.49-3.81,6.64c-0.44-0.36-1.18-0.85-1.74-1.49
			c-0.29-0.33-0.45-0.97-0.36-1.41c0.6-2.82,1.43-5.6,1.9-8.45c0.23-1.42,0.11-2.78-1.54-3.92c-2.17-1.51-3.87-3.71-5.74-5.58
			c1.53-0.77,3.01-1.52,4.48-2.27c0.81-0.41,0.64-1.18,0.23-1.57c-2.16-2.06-4.41-4.03-6.75-6.14c0.89-0.3,1.68-0.49,2.4-0.82
			c0.31-0.14,0.69-0.57,0.68-0.86c-0.01-0.35-0.33-0.85-0.64-1c-2.57-1.2-5.02-2.53-6.7-5.01c0.51-0.3,1.03-0.61,1.27-0.75
			c1.68,1.68,3.17,3.43,4.93,4.84c1.96,1.56,4.4,2.26,6.84,2.82c1.18,0.27,2.63,0.17,3.48,0.84c1.06,0.84,1.77,2.24,2.35,3.52
			c0.83,1.83-0.51,3.36-1.05,4.99c-0.82,2.5-1.67,4.97-1.57,7.67c0.03,0.78-0.15,1.57-0.22,2.35
			C340.14,348.03,340.64,350,341.89,351.46z"/>
		<path class="st0" d="M369.7,302.21c-1.75-3.39-3.5-6.77-5.33-10.31c2.64-1.58,5.25-3.43,8.09-4.77c2.76-1.3,5.75-2.15,8.69-3.02
			c0.73-0.22,1.72,0.1,2.48,0.42c1.09,0.46,1.51,1.6,0.82,2.52c-1.14,1.53-2.46,2.94-3.83,4.28c-2.99,2.93-6.06,5.78-9.07,8.69
			C370.91,300.65,370.37,301.42,369.7,302.21z"/>
		<path class="st0" d="M271.15,374.85c1.68,0.32,2.15-0.89,2.69-1.72c0.63-0.96,1.36-0.97,2.22-0.68c1.93,0.65,3.91,1.14,5.92,0.79
			c3.11-0.53,6.37-0.87,8.64-3.44c0.75-0.85,1.16-2,1.74-3c1.32-2.25,2.65-4.5,3.99-6.75c0.5-0.84,0.89-1.68,0.19-2.67
			c0.35-0.12,0.67-0.23,0.99-0.34c0.46,0.99,0.88,1.98,1.37,2.94c0.3,0.58,0.18,0.92-0.37,1.24c-2.86,1.63-4.4,4.32-5.51,7.25
			c-0.43,1.13-0.26,2.49-0.46,3.73c-0.06,0.38-0.35,0.9-0.66,1.03c-5.85,2.29-11.73,4.52-17.59,6.79c-1.24,0.48-2.44,1.06-3.78,1.64
			c0.23-2.38-1.22-3.68-2.85-4.89c1.89-0.66,2.62-1.76,2.59-3.5c-0.02-0.95-0.35-1.69-1.53-1.7c-0.29,0-0.56-0.33-0.87-0.44
			c-0.49-0.18-0.98-0.36-1.49-0.44c-0.1-0.02-0.42,0.42-0.39,0.62c0.08,0.58,0.11,1.46,0.46,1.65c0.75,0.4,0.91,0.99,0.63,1.52
			c-0.17,0.32-0.95,0.5-1.42,0.44c-1.64-0.2-2.11-0.72-2.36-2.63c-0.15-1.15,0.36-1.76,0.99-2.68c1.17-1.71,2.71-1.8,4.33-1.82
			c1.76-0.02,3.33,2.37,2.95,4.12C271.37,372.87,271.29,373.84,271.15,374.85z M275.33,374.71c-1.63,0-2.4,0.68-2.4,2.13
			c0,1.72,0.48,2.13,2.28,2.2c1.76,0.07,2.11-1.07,2.26-2.6C277.58,375.36,276.72,374.71,275.33,374.71z M279.21,376.79
			c0.7-0.18,1.28-0.26,1.77-0.51c0.14-0.07,0.14-0.9,0-0.96c-0.52-0.24-1.12-0.32-1.77-0.47
			C279.21,375.56,279.21,376.02,279.21,376.79z M285.47,372.93c0,0.76,0,1.22,0,1.89c0.64-0.14,1.23-0.19,1.72-0.44
			c0.15-0.08,0.15-0.97-0.01-1.05C286.69,373.1,286.1,373.06,285.47,372.93z"/>
		<path class="st0" d="M358.2,270.72c-0.12,2.02-0.27,4.03-0.34,6.05c-0.04,1.24-1.13,1.26-1.84,1.67
			c-0.46,0.27-1.01,0.54-1.57-0.24c-0.67-0.94-1.83-1.27-2.98-1.35c-1.98-0.12-3.96-0.24-5.95-0.24c-2.42,0.01-4.84,0.11-7.26,0.24
			c-0.84,0.04-1.26-0.42-1.25-1.08c0.03-2.78,0.04-5.57,0.28-8.34c0.17-1.99,1.79-2.69,3.51-3.04c4.66-0.95,9.39-0.79,14.1-0.7
			c0.81,0.02,1.68,0.46,2.37,0.94c0.42,0.29,0.74,1,0.77,1.54c0.1,1.51,0.04,3.03,0.04,4.55
			C358.13,270.72,358.16,270.72,358.2,270.72z M339.52,273.33c0.43,0.12,0.92,0.12,0.98,0.28c0.4,1.01,1.24,0.77,2.02,0.84
			c2.23,0.21,4.45,0.47,6.67,0.71c0.82,0.09,1.64,0.15,2.46,0.25c1.05,0.13,1.72-0.55,1.79-1.35c0.17-1.86,0.12-3.75,0.05-5.62
			c-0.02-0.53-0.55-1.03-0.65-1.58c-0.2-1.1-0.94-1.96-2.06-1.99c-1.72-0.05-3.44-0.08-5.16,0c-1.65,0.08-3.29,0.27-4.92,0.49
			c-0.31,0.04-0.78,0.45-0.8,0.72C339.72,268.49,339.63,270.9,339.52,273.33z"/>
		<path class="st0" d="M299.34,300.06c1.92-1.07,3.82-2.16,5.74-3.18c1.4-0.75,2.85-1.4,4.27-2.12c0.98-0.5,2.37,0.16,2.72,1.16
			c0.18,0.51,0.69,0.99,1.17,1.3c1.73,1.1,2.1,2.13,1.57,4.12c-0.38,1.43-0.59,2.9-0.85,4.36c-0.15,0.84,0.34,1.13,1.09,1.13
			c0.63,0,1.27,0,2.16,0c-0.14,1.08-0.14,2.08-0.41,2.99c-1.09,3.57-0.96,7.23-0.9,10.96c-3.26-1.11-6.55-0.95-9.91-0.64
			c1.13-0.95,2.4-1.78,3.35-2.89c1.4-1.63,2.98-3.31,3.69-5.25c0.57-1.57,0.3-3.69-0.23-5.36c-0.69-2.17-1.81-4.25-3.57-5.87
			c-0.8-0.73-1.62-1.21-2.74-1.14C304.14,299.78,301.8,299.91,299.34,300.06z"/>
		<path class="st0" d="M333.58,404.95c-0.84,0.16-1.6,0.3-2.34,0.44c-0.89-2.03-1.56-4.18-2.73-6.02c-0.92-1.45-2.25-3.1-3.75-3.6
			c-1.6-0.53-3.67-0.02-5.43,0.45c-0.74,0.2-1.44,1.39-1.73,2.26c-0.91,2.73-1.62,5.52-2.41,8.29c-0.83-0.11-1.7-0.23-2.76-0.38
			c0.77-2.33,1.43-4.51,2.22-6.66c0.7-1.91,1.52-3.79,2.36-5.65c0.14-0.3,0.62-0.64,0.95-0.64c2.44-0.05,4.88-0.04,7.31-0.02
			c0.29,0,0.62,0.12,0.85,0.29c3.26,2.52,5.52,5.74,6.79,9.66C333.07,403.87,333.31,404.33,333.58,404.95z"/>
		<path class="st0" d="M295.25,304.47c3.11-1.83,6.2-3.09,9.72-3.18c2.32-0.06,4,0.89,4.79,3c0.64,1.69,1.03,3.51,1.28,5.31
			c0.38,2.74-1.4,4.59-3.18,6.22c-1.45,1.32-3.23,2.28-4.92,3.43c-0.16-0.3-0.32-0.58-0.44-0.8c3.57-1.95,5.36-5.09,6.33-8.72
			c0.26-0.96-0.05-2.14-0.34-3.14c-0.32-1.11-1.17-1.69-2.43-1.7c-2.93-0.02-5.7,0.65-8.4,1.7c-0.74,0.29-1.22,0.33-1.52-0.57
			C295.97,305.49,295.58,305.02,295.25,304.47z"/>
		<path class="st0" d="M314.03,381.04c1.61-1.18,2.03-1.02,2.55,0.82c0.54,1.91,1.14,3.8,1.75,5.69c0.1,0.32,0.32,0.7,0.59,0.85
			c0.41,0.23,0.97,0.47,1.35,0.35c0.3-0.09,0.59-0.72,0.6-1.12c0.06-2.02,0.03-4.05,0.03-6.14c0.57,0,1.03,0,1.45,0
			c0.47,1.71,0.9,3.44,1.45,5.13c0.16,0.48,0.65,0.85,0.99,1.27c0.46-0.4,1.16-0.72,1.32-1.21c0.51-1.57,0.83-3.21,1.24-4.93
			c0.34,0,0.84,0,1.55,0c-0.71,2.54-1.38,5.04-2.09,7.52c-0.47,1.62-1.84,1.9-3.24,1.98c-1.27,0.07-2.56-0.03-3.83,0.03
			c-0.83,0.04-1.4-0.27-1.72-0.98c-0.98-2.16-1.93-4.33-2.88-6.51C314.77,382.88,314.41,381.95,314.03,381.04z"/>
		<path class="st0" d="M304.99,324.32c-0.2-0.47-0.41-0.97-0.68-1.62c3.12-0.26,6.15-0.9,9.19-0.24c2.74,0.59,4.9,3.3,4.97,6.22
			c0.04,1.39,0.01,2.91-0.5,4.16c-0.48,1.17-1.6,2.11-2.53,3.05c-1.04,1.06-2.2,2-3.37,3.06c-0.42-0.53-0.85-1.08-1.31-1.67
			c0.87-1.05,1.69-2.06,2.54-3.06c2.49-2.95,1.42-8.28-0.9-10.59c-0.95-0.94-2.13-0.88-3.25-0.63
			C307.78,323.31,306.46,323.84,304.99,324.32z"/>
		<path class="st0" d="M326.49,290.84c-3.33,5.71-4.08,11.63-4.16,17.85c-0.63-0.81-1.26-1.63-1.92-2.49
			c0.94-0.62,2.25-0.93,1.92-2.4c-0.13-0.58-0.37-1.2-0.75-1.65c-0.89-1.09-1.82-2.16-2.86-3.1c-0.77-0.69-1.1-1.45-0.92-2.41
			c0.27-1.41,0.59-2.82,0.96-4.21c0.07-0.27,0.41-0.63,0.67-0.67C321.68,291.44,323.95,291.17,326.49,290.84z"/>
		<path class="st0" d="M313.63,343.12c0.46-0.49,0.76-1.09,1.16-1.17c1.68-0.36,3.4-0.54,5.09-0.82c2.2-0.37,5.08,2.92,4.69,5.03
			c-0.32,1.75,0.39,3.91-1.42,5.34c-1.77,1.4-3.45,2.9-5.27,4.44c-0.49-0.99-0.86-1.72-1.06-2.11c0.85-0.96,1.71-1.74,2.34-2.68
			c1.46-2.16,1.92-4.55,1.26-7.11c-0.28-1.08-1.27-1.98-2.32-1.85C316.74,342.35,315.39,342.74,313.63,343.12z"/>
		<path class="st0" d="M366.1,377.82c-2.69,0-2.3,1.84-2.23,3.52c-0.56,0-1.05,0-1.55,0c-0.31-1.26-0.62-2.53-0.91-3.73
			c1.15-1.32,2.31-2.64,3.39-3.86c0.77,0.11,1.49,0.21,2.22,0.3c0.06-0.99,0.13-1.98,0.2-3.05c1.38-1.1,3.08-1.39,5.18-0.34
			c-0.64-2.17,0.48-2.88,1.9-3.45c0.66-0.27,1.23-0.75,1.9-1.18c-0.63,1.63-1.14,3.17-1.85,4.61c-0.22,0.44-0.98,0.84-1.51,0.87
			c-1.89,0.12-2.71,1.27-3.26,2.87c-0.13,0.39-0.61,0.7-0.99,0.95c-0.24,0.16-0.59,0.19-0.9,0.22
			C366.41,375.69,365.66,376.23,366.1,377.82z"/>
		<path class="st0" d="M295.93,357.66c-2.44,2.07-3.81,4.88-5.35,7.6c-1.41,2.47-3.46,4.19-6.36,4.96c-1.63,0.44-2.9-0.79-4.55-0.2
			c0.87-1.23,1.45-2.39,2.34-3.22c0.73-0.68,1.79-1.07,2.76-1.41c0.75-0.26,1.04-0.6,0.74-1.58c-1.5,0.16-3.03,0.32-4.76,0.5
			c-0.03-0.19-0.12-0.66-0.21-1.16c0.42-0.17,0.81-0.26,1.12-0.47c1.57-1.05,3.09-0.28,4.52,0.26c1.05,0.39,0.26,1.42,0.01,1.89
			c-0.45,0.87-1.3,1.52-1.92,2.3c-0.38,0.47-0.65,1.03-1.04,1.66c2.46,0.37,4.36-0.92,5.08-3.05c0.23-0.68,0.83-1.23,1.18-1.89
			c0.74-1.41,1.42-2.86,2.16-4.27c0.17-0.32,0.43-0.69,0.74-0.8C293.55,358.35,294.75,358.02,295.93,357.66z"/>
		<path class="st0" d="M291.58,393.1c0.52-0.25,0.9-0.44,1.57-0.77c0.15,1.64,0.22,3.14,0.43,4.63c0.14,1.02,0.47,2.01,0.72,3.01
			c0.02,0.07,0.07,0.17,0.13,0.19c1.98,0.77,1.16,2.62,1.51,4c0.3,1.17,0.47,2.36,0.71,3.55c0.04,0.19,0.04,0.42,0.15,0.56
			c0.25,0.32,0.8,0.62,0.79,0.91c-0.06,1.66-0.31,2.08-1.57,3.1c-0.76-2.11-1.46-4.15-2.23-6.16c-0.43-1.13-1-2.2-1.49-3.31
			c-0.08-0.17-0.15-0.36-0.16-0.55c-0.09-1.46-0.16-2.92-0.25-4.38C291.79,396.31,291.68,394.73,291.58,393.1z"/>
		<path class="st0" d="M243.11,377.46c-0.85,1.03-2.6,1.26-2.23,3.39c0.94-0.21,1.92-0.29,2.78-0.65c1.42-0.59,2.79-0.89,4.34-0.52
			c0.47,0.11,1.35-0.22,1.57-0.61c0.34-0.61,0.23-1.47-0.69-1.72c-1.02-0.27-2.07-0.43-3.03-0.62c0.47-0.65,0.94-0.83,1.83-0.61
			c0.49,0.12,1.01,0.19,1.47,0.37c1.51,0.59,2.13,1.82,1.66,3.18c-0.39,1.12-1.81,1.93-3.09,1.44c-1.16-0.45-1.91,0.42-2.88,0.55
			c-0.26,0.03-0.43,0.82-0.6,1.18c-0.52-0.13-1.13-0.4-1.76-0.43c-1.5-0.08-1.63,0.09-1.68,1.57c-0.05,1.48-0.91,2.11-2.7,2.01
			c-1.01-0.06-1.54-0.89-1.46-2.2c0.14-2.12,1.23-3.53,3.15-4.38c0.37-0.17,0.79-0.46,0.97-0.81
			C241.28,377.58,242.19,377.53,243.11,377.46z M237.72,384.68c0.67-0.16,1.25-0.23,1.75-0.47c0.15-0.07,0.16-0.89,0.03-0.96
			c-0.52-0.25-1.11-0.34-1.78-0.51C237.72,383.45,237.72,383.92,237.72,384.68z"/>
		<path class="st0" d="M326.84,350.69c1.45,1.19,3.11,2.53,4.75,3.91c0.16,0.13,0.25,0.47,0.22,0.68c-0.32,1.92-0.67,3.83-0.96,5.46
			c-1.14-1.12-2.44-2.45-3.78-3.73c-1.51-1.43-3.48-0.88-5.17-1.03C323.51,354.25,325.12,352.53,326.84,350.69z"/>
		<path class="st0" d="M217.07,398.58c0.11-0.91,0.19-1.62,0.3-2.52c-0.55,0-1.01-0.11-1.38,0.02c-1.37,0.49-2.02-0.21-2.5-1.34
			c-0.8-1.87-1.25-3.79-0.91-5.9c0.24,0.07,0.51,0.07,0.57,0.19c0.52,0.9,0.84,1.98,1.54,2.7c1.16,1.19,2.42,2.28,4.28,2.44
			c1.66,0.15,2.96-1.02,3.43-2.44c2.26,0.17,4.47,0.34,6.45,0.5c0.8,1.21,1.5,2.27,2.26,3.42c-0.92,0.31-1.69,0.56-2.46,0.81
			c-0.27-2.02-1.7-3.08-3.67-3.32c-3.37-0.42-6.16,2.28-7.23,4.83C217.65,398.22,217.32,398.37,217.07,398.58z"/>
		<path class="st0" d="M330.59,394.56c0.02-0.15,0.24-0.68,0.07-0.95c-0.18-0.28-0.74-0.33-1.14-0.43
			c-0.51-0.12-1.03-0.19-1.81-0.32c0.91-0.79,2.31,0.3,2.28-1.26c-0.01-0.37-0.53-0.73-0.98-1.3c0.05-0.04,0.35-0.27,0.66-0.48
			c0.27-0.18,0.73-0.3,0.78-0.52c0.07-0.33-0.15-0.72-0.25-1.08c-0.08-0.31-0.27-0.64-0.21-0.92c0.29-1.49,0.81-2.96,0.93-4.46
			c0.1-1.2,0.64-1.29,1.63-1.13c0.06,0.33,0.14,0.7,0.22,1.1c0.33,0.03,0.64,0.06,1.04,0.09c0.02,0.34,0.04,0.68,0.06,1.01
			c-0.07-0.08-0.15-0.16-0.22-0.25c-0.53,0.31-1.09,0.59-1.59,0.94c-0.1,0.07-0.08,0.54,0.04,0.62c0.47,0.34,0.99,0.6,1.69,1
			c-0.03,0.02-0.24,0.25-0.48,0.46c-0.37,0.33-1.09,0.72-1.04,0.95c0.12,0.53,0.58,0.99,0.96,1.43c0.16,0.19,0.47,0.25,0.63,0.64
			c-0.18,0.03-0.41,0.01-0.55,0.11c-0.46,0.34-0.9,0.73-1.34,1.1c0.43,0.35,0.85,0.7,1.28,1.05c0.25,0.2,0.5,0.38,0.54,0.41
			c-0.74,0.69-1.28,1.2-1.82,1.7c0.52,0.44,1.04,0.87,1.55,1.31c0.09-0.08,0.18-0.17,0.26-0.25c0.1,1.51,0.2,3.02,0.28,4.35
			C332.97,397.96,331.81,396.3,330.59,394.56z"/>
		<path class="st0" d="M319.64,359c1.09-0.3,1.98-0.63,2.89-0.79c2.11-0.37,3.7,0.69,4.97,2.16c1.87,2.16,2.62,4.76,2.54,7.62
			c-0.03,1-0.25,1.59-1.41,1.46c-0.7-0.08-1.42-0.01-1.97-0.01c0-1.74-0.06-3.35,0.02-4.97c0.07-1.59-0.65-2.74-1.83-3.64
			c-0.3-0.23-0.81-0.18-1.22-0.27c-1.02-0.22-2.05-0.4-3.05-0.7C320.24,359.75,320,359.34,319.64,359z"/>
		<path class="st0" d="M253.07,377.45c-0.02-1.51-1.34-2.25-2.65-3.17c1.45-0.5,2.82-0.97,4.29-1.47c0,0.62-0.07,1.15,0.03,1.65
			c0.06,0.28,0.39,0.67,0.62,0.69c0.29,0.02,0.72-0.22,0.89-0.47c0.22-0.34,0.4-0.82,0.34-1.21c-0.21-1.34,0.53-1.83,1.64-2.12
			c0.56-0.15,1.1-0.4,1.79-0.65c-0.39,2.04-0.65,4.05-1.19,5.98c-0.63,2.26-1.59,2.56-3.63,1.54
			C254.58,377.9,253.88,377.73,253.07,377.45z"/>
		<path class="st0" d="M302.83,406.47c-0.77-1.28-1.4-2.39-2.08-3.47c-0.37-0.58-1-1.07-1.17-1.69c-0.25-0.87-0.23-1.84-0.23-2.76
			c0-0.78,0.17-1.56,0.21-2.35c0.1-2.1,0.09-4.21,0.3-6.29c0.05-0.51,0.81-0.95,1.44-1.65
			C301.83,394.52,302.32,400.36,302.83,406.47z"/>
		<path class="st0" d="M299.78,404.13c1.19,1.98,2.38,3.96,3.54,5.96c0.1,0.18,0.11,0.5,0.02,0.69c-1.14,2.28-2.81,3.95-5.4,4.45
			c-0.38,0.07-1.04-0.17-1.2-0.46c-0.17-0.31-0.05-1.07,0.21-1.28c1.54-1.2,1.73-2.87,1.91-4.61c0.08-0.77,0.55-1.5,0.67-2.27
			c0.12-0.77,0.03-1.58,0.03-2.37C299.63,404.2,299.71,404.17,299.78,404.13z"/>
		<path class="st0" d="M365.16,260.03c-0.11,1.45-0.67,2.18-2.06,2.4c-0.97,0.15-1.96,0.26-2.94,0.24
			c-0.63-0.01-1.25-0.29-1.87-0.46c-0.48-0.14-0.95-0.41-1.43-0.45c-1.05-0.1-1.89-0.53-2.57-1.32c-0.12-0.14-0.28-0.34-0.26-0.5
			c0.13-1,0.25-2.01,0.49-2.99c0.07-0.29,0.53-0.67,0.84-0.69c2.67-0.21,5.35-0.4,8.03-0.46c0.38-0.01,0.98,0.6,1.12,1.04
			C364.85,257.86,364.96,258.96,365.16,260.03z M358.45,261.57c0-0.03,0.01-0.06,0.01-0.08c0.36,0,0.73,0.06,1.07-0.01
			c1.12-0.24,2.39-0.11,3.2-1.16c0.61-0.79,1.18-1.66,0.71-2.68c-0.41-0.89-1.34-1.05-2.22-0.93c-1.42,0.2-2.86,0.42-4.23,0.81
			c-0.51,0.15-1.26,0.85-1.22,1.23c0.09,0.86-0.18,2.02,0.84,2.53C357.15,261.54,357.83,261.48,358.45,261.57z"/>
		<path class="st0" d="M357.32,381c-0.72,3.95-1.43,7.89-2.17,12c-2.56-0.31-5.09-0.61-7.55-0.91c1.48-0.51,3.06-1.02,4.61-1.61
			c1.61-0.61,1.38-2.16,1.52-3.41c0.29-2.5,1.85-4.24,3.3-6.07C357.07,380.96,357.19,381,357.32,381z"/>
		<path class="st0" d="M312.53,398.71c0.04-0.76-0.01-1.42-1.03-1.49c-0.27-0.02-0.51-0.33-0.87-0.59c0.81-0.6,2.17-0.25,2.04-1.41
			c-0.06-0.51-0.92-0.93-1.6-1.57c0.08-0.11,0.25-0.57,0.54-0.66c0.56-0.18,1.34-0.16,1.08-0.99c-0.13-0.41-0.77-0.67-1.34-1.12
			c0-0.2,0-0.67,0-1.21c0.42-0.05,0.84-0.1,1.33-0.16c0-0.51,0-1,0-1.56c-0.42-0.03-0.81-0.06-1.29-0.09
			c-0.03-0.33-0.06-0.67-0.09-1.07c0.41-0.06,0.75-0.1,1.15-0.16c0-0.48,0-0.94,0-1.42c-1-0.36-1.24-1.36-0.51-2.93
			c0.47,1.1,0.89,2.05,1.28,3c0.61,1.51,1.23,3.02,1.78,4.55c0.08,0.22-0.16,0.67-0.38,0.86c-0.72,0.61-0.91,1.15-0.06,1.82
			c0.21,0.17,0.41,0.66,0.32,0.87c-0.75,1.78-1.58,3.54-2.38,5.3L312.53,398.71z"/>
		<path class="st0" d="M223.59,385.54c-0.36,1.84,0.29,2.86,1.77,3.39c0.63,0.23,1.82-0.17,1.97-0.75c0.19-0.74-0.08-1.18-0.89-1.36
			c-0.29-0.06-0.65-0.48-0.7-0.78c-0.03-0.22,0.42-0.72,0.63-0.71c0.5,0.03,1.08,0.17,1.45,0.49c0.8,0.69,1.14,2.09,0.25,3.31
			c-0.75,1.03-2.16,1.52-3.34,1.06c-0.9-0.35-1.79-0.72-2.67-1.12c-0.13-0.06-0.16-0.32-0.25-0.47c-0.39-0.67-0.91-1.11-1.75-0.9
			c-0.82,0.2-0.67,0.88-0.63,1.44c0.09,1.16-0.63,1.52-1.58,1.64c-0.7,0.08-1.96-0.84-1.89-1.5c0.04-0.4,0.48-0.94,0.87-1.11
			C218.97,387.28,221.12,386.49,223.59,385.54z"/>
		<path class="st0" d="M308.64,291.38c-0.32-2.1-0.56-4.04-0.95-5.95c-0.2-0.96,0.05-1.56,0.69-1.92c1.75,1.76,3.47,3.49,5.35,5.38
			C312.01,289.73,310.3,290.57,308.64,291.38z"/>
		<path class="st0" d="M298.01,407.08c-0.97-1.52-0.78-3.36-1.04-5.05c-0.28-1.79-0.24-3.64-0.28-5.46
			c-0.04-1.82-0.01-3.64-0.01-5.64c0.44-0.22,1.09-0.55,1.68-0.85c0,5.69,0,11.32,0,16.95
			C298.24,407.05,298.13,407.06,298.01,407.08z"/>
		<path class="st0" d="M249.66,383.97c0.86,0.14,1.19,0.56,1.22,1.39c0.07,2.3-1.24,4.09-3.3,4.72c-0.78,0.24-1.54,0.61-2.33,0.69
			c-1.33,0.14-2-0.42-2.49-1.77c1.91-1.49,1.91-1.49,2.18-5.08c1.01,0.72,1.77,1.47,1.62,2.79c-0.05,0.39-0.1,0.83,0.02,1.19
			c0.14,0.43,0.4,1.05,0.74,1.14c0.37,0.1,1.03-0.17,1.29-0.5c0.71-0.89,1.26-1.89,1.08-3.13
			C249.61,384.94,249.66,384.47,249.66,383.97z"/>
		<path class="st0" d="M315.01,339.4c1-0.88,1.81-1.61,2.64-2.33c2.19-1.88,3.52-4.11,3.02-7.13c-0.05-0.3-0.01-0.62-0.01-0.9
			c1.13-0.18,2.16-0.34,3.24-0.52c-1.14,3.47-3.89,6.39-3.99,10.34C318.5,339.02,316.92,339.19,315.01,339.4z"/>
		<path class="st0" d="M228.99,383.87c1.09-0.53,2.06-1.01,3.03-1.48c0.96-0.47,1.92-0.94,2.96-1.45c-0.28,0.9-0.54,1.71-0.83,2.65
			c-0.24,0-0.58-0.09-0.85,0.02c-0.54,0.22-1.35,0.44-1.49,0.85c-0.19,0.57,0.05,1.35,0.25,1.99c0.11,0.34,0.55,0.55,0.81,0.86
			c0.8,0.95,0.34,2.61-0.86,2.94c-0.74,0.21-1.53,0.25-2.56,0.41C231.42,388.16,231.08,386,228.99,383.87z"/>
		<path class="st0" d="M259.07,381.29c1.66-0.65,3.55-1.5,5.5-2.13c1.94-0.63,3.2,0.11,3.59,1.86c0.25,1.14-0.43,1.89-1.59,1.75
			c0.33-1.66-0.15-2.26-1.81-2.3c-0.96-0.02-1.81,0.04-2.62,0.78c-0.79,0.72-0.71,1.52-0.72,2.37c0,0.48,0,0.95,0,1.48
			c-0.49,0.21-0.98,0.42-1.45,0.62C259.68,384.29,259.4,382.89,259.07,381.29z"/>
		<path class="st0" d="M298.51,367.69c0.88-0.22,1.62-0.28,2.16-0.63c0.16-0.1-0.24-1.06-0.46-1.93c0.17-0.13,0.59-0.46,0.79-0.61
			c1.48,1.26,2.83,2.4,4.47,3.8c-2.31,0.82-4.29,1.53-6.43,2.29C298.85,369.54,298.66,368.5,298.51,367.69z"/>
		<path class="st0" d="M310.26,281.54c2.81,1.56,5.52,3.07,8.37,4.66c-0.92,0.47-1.61,0.87-2.34,1.17c-0.3,0.12-0.85,0.16-1.02-0.02
			c-1.7-1.79-3.35-3.63-5-5.47C310.22,281.83,310.26,281.69,310.26,281.54z"/>
		<path class="st0" d="M273.59,368.41c-0.37-0.81-0.75-1.61-1.12-2.41c2.13-0.76,4.23-1.51,6.37-2.27
			C278.29,366.36,277.02,367.47,273.59,368.41z"/>
		<path class="st0" d="M301.67,287.28c-4.14,3.36-8.44,6.52-11.91,10.68c-0.16-0.08-0.35-0.14-0.51-0.25
			c-0.29-0.19-0.56-0.39-0.79-0.55C292.41,293.27,296.86,290.04,301.67,287.28z"/>
		<path class="st0" d="M253.61,380.07c3.46,1.47,4.31,2.89,3.89,6.52c-1.49,0.53-2.98,1.07-4.63,1.66c0.14-0.85,0.26-1.55,0.36-2.17
			c0.71,0.15,1.26,0.3,1.82,0.37c0.19,0.02,0.52-0.1,0.57-0.24c0.29-0.69,0.71-1.41,0.68-2.1c-0.03-0.63-0.48-1.32-0.92-1.83
			c-0.61-0.71-1.39-1.27-2.09-1.9C253.4,380.28,253.51,380.17,253.61,380.07z"/>
		<path class="st0" d="M291,299.3c1.17-0.9,2.33-1.81,3.66-2.84c0.56,0.24,1.54,0.65,2.9,1.22c-1.75,1.04-3.16,1.98-4.68,2.69
			c-0.41,0.19-1.16-0.36-1.75-0.57C291.08,299.63,291.04,299.46,291,299.3z"/>
		<path class="st0" d="M357.61,386.52c0.75-2.65,0.4-5.64,2.3-8.16C361.18,381.48,360.47,384.01,357.61,386.52z"/>
		<path class="st0" d="M348.34,389.24c1.47-1.63,2.9-3.2,4.32-4.77c0.15,0.08,0.3,0.17,0.45,0.25c-0.27,1.46-0.46,2.93-0.85,4.35
			c-0.09,0.31-0.91,0.57-1.4,0.57C350.1,389.65,349.35,389.42,348.34,389.24z"/>
		<path class="st0" d="M352.46,382.48c-2.41,3.11-4.83,6.23-7.36,9.51c-0.25-2.11,0.77-3.34,1.95-4.51c1.74-1.73,3.47-3.47,5.21-5.2
			C352.32,382.34,352.39,382.41,352.46,382.48z"/>
		<path class="st0" d="M327.7,338.04c-0.6,1.51-1.13,2.87-1.72,4.36c-1.29-1.2-2.46-2.28-3.59-3.34
			C324.04,338.74,325.77,338.41,327.7,338.04z"/>
		<path class="st0" d="M300.9,295.37c0.12-1.61,0.22-2.94,0.33-4.39c1.56,0.6,3,1.16,4.57,1.76
			C304.17,293.61,302.67,294.42,300.9,295.37z"/>
		<path class="st0" d="M239.82,392.74c-1.23,0.41-2.35,0.84-3.5,1.14c-0.3,0.08-0.75-0.15-1.05-0.36c-0.6-0.41-1.15-0.9-1.93-1.53
			C235.64,392.27,237.88,390.08,239.82,392.74z"/>
		<path class="st0" d="M220.23,398.21c0.44-1.96,1.75-2.12,3.15-1.87c0.48,0.09,0.89,0.57,1.33,0.88c-0.36,0.26-0.7,0.63-1.1,0.75
			c-0.86,0.24-1.75,0.37-2.63,0.48C220.72,398.47,220.44,398.28,220.23,398.21z"/>
		<path class="st0" d="M345.91,384.82c-0.43-1.34-0.37-2.05,0.51-2.67c1.68-1.18,3.3-2.46,5.03-3.55
			C349.66,380.61,347.88,382.61,345.91,384.82z"/>
		<path class="st0" d="M312.5,398.68c-0.55,1.85-1.11,3.7-1.66,5.55c-0.06-0.01-0.12-0.02-0.18-0.03c0-1.59,0-3.19,0-4.92
			c0.57-0.17,1.22-0.37,1.87-0.56C312.53,398.71,312.5,398.68,312.5,398.68z"/>
		<path class="st0" d="M295.33,391.64c0,2.44,0,4.88,0,7.31c-0.03,0.02-0.06,0.03-0.09,0.05c-0.16-0.69-0.38-1.37-0.46-2.07
			c-0.18-1.51-0.33-3.04-0.41-4.56c-0.01-0.27,0.37-0.56,0.56-0.84C295.07,391.57,295.2,391.6,295.33,391.64z"/>
		<path class="st0" d="M320.07,321.04c-0.26,0.84-0.53,1.68-0.82,2.61c-1-0.89-1.9-1.69-2.94-2.61
			C317.69,321.04,318.86,321.04,320.07,321.04z"/>
		<path class="st0" d="M352.78,380.19c1.29-1.28,2.29-2.96,4.78-3c-1.67,1.19-3.12,2.23-4.58,3.28
			C352.92,380.38,352.85,380.29,352.78,380.19z"/>
		<path class="st0" d="M294.8,412.52c-1-0.96-1.96-1.94-1.45-3.64c0.59,1.17,1.17,2.34,1.76,3.52
			C295,412.44,294.9,412.48,294.8,412.52z"/>
		<path class="st0" d="M333.93,368.36c-0.71,0.21-1.19,0.35-1.7,0.5c0-0.73,0-1.43,0-2.38
			C332.86,367.18,333.36,367.73,333.93,368.36z"/>
		<path class="st0" d="M345.64,381.03c0-0.66,0-1.02,0-1.43c0.65-0.13,1.29-0.26,1.92-0.39c0.05,0.08,0.09,0.17,0.14,0.25
			C347.07,379.94,346.43,380.43,345.64,381.03z"/>
		<path class="st0" d="M345.52,386.93c0.53-1.07,1.6-1.69,2.33-2.59c0.09,0.08,0.19,0.16,0.28,0.24c-0.77,0.86-1.55,1.73-2.32,2.59
			C345.72,387.09,345.62,387.01,345.52,386.93z"/>
		<path d="M269.25,352.35c0.54-0.08,0.91-0.15,1.29-0.18c0.35-0.03,0.7-0.01,1.04-0.01c0.34,1.82,0.26,1.92-1.46,1.92
			c-0.56,0-1.12,0-1.68,0c-1.25-0.01-1.79-0.7-1.39-1.9c0.36-1.11,0.8-2.19,1.24-3.38c-1.38,0-2.69,0.03-3.99-0.02
			c-0.47-0.02-1.3-0.2-1.33-0.38c-0.06-0.51,0.09-1.15,0.38-1.6c0.77-1.21,1.64-2.34,2.53-3.57c-1.52-0.24-2.85-0.45-4.17-0.66
			c0-0.63,0-1.09,0-1.77c0.91,0.12,1.75,0.22,2.59,0.33c0.58,0.07,1.16,0.22,1.74,0.21c2.03-0.01,2.22,1.47,1.62,2.95
			c-0.28,0.7-0.9,1.27-1.36,1.9c-0.17,0.24-0.31,0.51-0.34,1.09c1.08-0.2,2.15-0.46,3.24-0.57c0.34-0.03,0.91,0.23,1.04,0.52
			c0.26,0.54,0.51,1.25,0.37,1.79C270.3,350.15,269.74,351.18,269.25,352.35z"/>
		<path d="M271.05,339.8c-0.96-0.5-1.91-0.99-2.86-1.48c0-0.54,0-1.09,0-1.76c1.97,0.02,3.57,0.79,4.75,2.18
			c0.36,0.43,0.09,1.49-0.07,2.22c-0.12,0.54-0.53,1.02-0.98,1.85c1.01,0,1.82,0,2.63,0c1.83,0,2.33,0.82,1.56,2.55
			c-0.17,0.39-0.39,0.76-0.62,1.22c0.94,0.27,2.26-0.43,2.65,1.22c0.28,1.15-0.09,1.82-1.1,2.58c-0.42-0.64-0.82-1.26-1.33-2.05
			c-0.26,0-0.77,0.02-1.29,0c-1.38-0.05-1.82-0.76-1.24-2.03c0.25-0.56,0.58-1.09,0.89-1.68c-0.98-0.12-1.9-0.2-2.8-0.36
			c-1.42-0.25-1.86-1.19-1.21-2.52C270.32,341.11,270.67,340.51,271.05,339.8z"/>
		<path d="M236.33,352.01c1.79,0.35,3.52,0.64,5.21,1.04c0.68,0.16,1.03,2.09,0.56,2.93c-0.34,0.61-0.76,1.18-1.26,1.94
			c0.78,0,1.47-0.05,2.15,0.01c2.02,0.17,2.93,1.54,2.08,3.45c-0.22,0.5-0.33,1.15-0.72,1.45c-0.45,0.35-1.14,0.39-1.73,0.57
			c-0.1-0.46-0.36-0.95-0.26-1.36c0.15-0.62,0.54-1.19,0.92-1.95c-1.1,0-2.04,0-2.97,0c-1.82,0-2.3-0.8-1.45-2.38
			c0.26-0.48,0.49-0.97,0.72-1.46c0.23-0.49,0.45-0.98,0.72-1.58c-1.3-0.22-2.59-0.44-3.98-0.68
			C236.33,353.48,236.33,352.91,236.33,352.01z"/>
		<path d="M285.93,339.63c0.69,0.16,1.31,0.27,1.9,0.45c1.47,0.44,2.03,1.57,1.57,3.15c-0.28,0.97-0.59,1.93-0.89,2.89
			c-0.27,0.86-1.02,0.95-1.63,0.7c-0.35-0.14-0.72-0.9-0.64-1.28c0.23-1.05,0.69-2.05,1.13-3.26c-0.75-0.15-1.45-0.37-2.16-0.41
			c-1.69-0.09-2.28-1.03-1.51-2.54c0.39-0.76,0.81-1.51,1.29-2.38c-0.58-0.22-1.1-0.57-1.64-0.58c-1.41-0.03-1.36-0.87-1.24-2.2
			c1.56,0.45,3.03,0.77,4.4,1.32c0.88,0.36,1.06,1.21,0.56,2.1C286.71,338.23,286.35,338.88,285.93,339.63z"/>
		<path d="M247.07,355.52c0.78,0,1.42,0.07,2.04-0.01c1.48-0.19,1.67,0.97,1.93,1.9c0.28,1.01,0.03,1.99-0.96,2.55
			c-0.18,0.1-0.65-0.02-0.8-0.19c-0.25-0.29-0.44-0.7-0.48-1.08c-0.04-0.44,0.11-0.9,0.18-1.36c-1.21-0.13-2.31-0.19-3.38-0.37
			c-1.01-0.18-1.35-1.07-0.78-1.97c0.52-0.82,1.14-1.57,1.8-2.49c-0.7-0.2-1.32-0.53-1.93-0.52c-1.45,0.02-1.62-0.81-1.52-1.93
			c0.02-0.19,0-0.39,0-0.69c0.79,0.02,1.66-0.57,2.03,0.73c0.06,0.22,0.76,0.28,1.17,0.38c2.5,0.64,3.13,1.37,1.44,3.91
			C247.61,354.71,247.4,355.03,247.07,355.52z"/>
		<path d="M225.56,357.92c-1.42,0-2.59,0-3.77,0c-0.57,0-1.14,0.08-1.17-0.79c-0.03-0.92,0.55-0.92,1.18-0.89
			c1.54,0.08,3.08,0.12,4.62,0.26c0.4,0.04,1.09,0.35,1.1,0.57c0.03,0.62-0.12,1.3-0.39,1.86c-0.24,0.5-0.74,0.88-1.29,1.49
			c1.11,0.16,1.93,0.14,2.63,0.42c0.51,0.21,1.15,0.79,1.22,1.28c0.13,0.95,0.04,2-0.26,2.91c-0.13,0.39-1.01,0.53-1.85,0.92
			c0-1.1-0.06-1.81,0.02-2.5c0.08-0.74-0.17-1.15-0.91-1.19c-0.64-0.03-1.31,0.1-1.91-0.05c-0.42-0.11-0.82-0.52-1.08-0.9
			c-0.11-0.17,0.12-0.62,0.28-0.89C224.4,359.7,224.86,359.02,225.56,357.92z"/>
		<path d="M205.46,367.18c0.45,0.12,0.84,0.26,1.24,0.33c1.08,0.2,1.75,0.82,1.68,1.92c-0.08,1.37-0.21,2.76-0.55,4.07
			c-0.09,0.33-1.06,0.43-2.01,0.78c0.22-1.51,0.27-2.61,0.57-3.65c0.25-0.88-0.18-1.16-0.81-1.4c-0.73-0.28-1.84-0.32-2.11-0.83
			c-0.33-0.61,0.05-1.59,0.14-2.42c0.02-0.19,0.07-0.37,0.11-0.59c-0.48-0.02-0.95-0.04-1.49-0.07c0-0.53,0-1.03,0-1.64
			c0.94,0,1.85-0.04,2.76,0.01c0.86,0.05,1.34,1.34,0.95,2.52C205.85,366.5,205.67,366.77,205.46,367.18z"/>
		<path d="M218.94,362.74c1.06,0.22,2.03,0.35,2.95,0.65c0.67,0.22,1.51,2.47,1.08,2.95c-0.35,0.38-1.07,0.42-1.64,0.62
			c-0.52-2.22-0.63-2.31-2.73-2.31c-2.3,0-2.58-0.43-1.71-2.59c0.08-0.21,0.1-0.44,0.17-0.77c-0.72,0-1.35,0-1.99,0
			c-1.69,0-1.69,0-1.57-1.9c1.6,0.09,3.22,0.06,4.8,0.3c1.08,0.16,0.93,1.21,0.88,2.03C219.15,362.08,219.01,362.45,218.94,362.74z"
			/>
		<path d="M213.06,367.52c0.51,0,0.98-0.1,1.38,0.02c0.71,0.21,1.88,0.45,1.97,0.87c0.19,0.88-0.19,1.88-0.36,2.82
			c-0.02,0.1-0.35,0.15-0.36,0.25c-0.11,1.12-0.92,1.35-1.64,0.92c-0.29-0.17-0.12-1.24-0.05-1.89c0.04-0.4,0.3-0.77,0.53-1.31
			c-0.95,0-1.7-0.03-2.45,0.01c-0.77,0.05-1.13-0.25-1.04-1.04c0-0.04,0-0.08,0-0.12c-0.05-2.28-0.05-2.28-2.34-2.55
			c0-0.46,0-0.92,0-1.4C212.37,363.55,213.41,363.99,213.06,367.52z"/>
		<path d="M259.09,354.59c0.82,0.36,1.59,0.63,2.27,1.05c0.26,0.17,0.29,0.7,0.42,1.06c-0.41,0.14-0.86,0.47-1.23,0.4
			c-1.06-0.2-2.1-0.53-3.12-0.89c-0.25-0.09-0.59-0.54-0.54-0.73c0.2-0.81,0.5-1.6,0.84-2.37c0.19-0.44,0.52-0.83,0.83-1.3
			c-0.72-0.13-1.29-0.34-1.85-0.31c-1.6,0.07-1.7-0.86-1.42-2.3c0.61,0.15,1.2,0.32,1.81,0.43c0.77,0.15,1.55,0.21,2.31,0.39
			c0.51,0.12,1.33,0.3,1.4,0.6c0.15,0.62,0.04,1.41-0.24,1.99C260.2,353.36,259.56,353.98,259.09,354.59z"/>
		<path d="M279.24,341.73c0.74,0.5,1.42,0.88,1.99,1.38c0.24,0.21,0.38,0.76,0.28,1.05c-0.1,0.26-0.59,0.54-0.9,0.53
			c-1.43,0-2.74-0.46-3.62-1.62c-0.64-0.83-0.03-1.65,0.4-2.39c0.23-0.39,0.54-0.72,0.8-1.06c-1.21-0.5-2.39-0.9-3.47-1.49
			c-0.23-0.13-0.08-0.95-0.12-1.79c0.91,0.29,1.62,0.51,2.33,0.74c0.74,0.23,1.49,0.44,2.22,0.7c0.82,0.3,1.2,0.81,0.83,1.73
			C279.68,340.26,279.47,341.04,279.24,341.73z"/>
		<path d="M234.95,363.57c0.28,0.51,0.71,0.97,0.76,1.46c0.04,0.46-0.33,0.96-0.51,1.45c-0.38-0.25-0.76-0.5-1.14-0.74
			c-0.22-0.14-0.44-0.33-0.68-0.37c-1.27-0.23-1.61-0.96-0.89-2.1c0.47-0.74,0.98-1.46,1.47-2.19c-1.02-0.77-3.25,0.71-2.93-1.96
			c1.39,0,2.74-0.05,4.09,0.02c0.9,0.04,1.28,1.33,0.77,2.6C235.6,362.42,235.21,363.05,234.95,363.57z"/>
		<path d="M249,348.68c0-0.51,0-0.98,0-1.66c1.39,0.12,2.72,0.19,4.02,0.4c0.29,0.05,0.64,0.62,0.69,0.98
			c0.27,1.83-0.5,3.45-1.26,5.02c-0.17,0.36-1.07,0.37-1.63,0.55c-0.12-0.09-0.24-0.19-0.36-0.28c0.4-1.46,0.81-2.92,1.29-4.66
			C250.92,348.93,250,348.81,249,348.68z"/>
		<path d="M255.48,342.24c1.29,0.14,2.51,0.18,3.68,0.41c1.02,0.21,1.48,1.88,0.96,3.23c-0.24,0.62-0.46,1.32-0.91,1.76
			c-0.47,0.45-1.21,0.61-1.82,0.89c-0.88-1.77,0.63-2.64,0.92-4.01c-0.92-0.2-1.85-0.4-2.82-0.62
			C255.48,343.44,255.48,342.98,255.48,342.24z"/>
		<path d="M232.49,354c-1.07-0.15-2.01-0.14-2.81-0.47c-0.25-0.1-0.15-1.09-0.25-1.97c0.78,0.19,1.38,0.34,1.99,0.46
			c0.38,0.08,0.78,0.17,1.16,0.13c1.95-0.21,2.21,1.17,1.89,2.52c-0.18,0.77-0.51,1.59-1.01,2.18c-0.28,0.33-1.08,0.33-1.61,0.25
			c-0.18-0.03-0.43-0.83-0.33-1.18C231.7,355.27,232.12,354.69,232.49,354z"/>
		<path d="M290.93,276.42c0.08-1-0.44-2.05,1.1-2c0.84,0.03,1.17,0.33,1.05,1.12C292.86,277.03,291.76,276.1,290.93,276.42z"/>
		<path d="M241.32,304.69c0-0.97,0-1.52,0-2.32c0.74,0.17,1.41,0.28,2.02,0.52c0.12,0.05,0.14,0.86-0.02,0.96
			C242.77,304.2,242.12,304.38,241.32,304.69z"/>
		<path d="M281.62,281.97c0-0.99,0-1.54,0-2.33c0.69,0.13,1.36,0.2,1.98,0.41c0.12,0.04,0.19,0.86,0.03,0.96
			C283.1,281.38,282.47,281.59,281.62,281.97z"/>
		<path d="M274.91,285.95c0-0.87,0-1.42,0-2.21c0.66,0.11,1.34,0.16,1.96,0.37c0.13,0.04,0.18,0.95,0.01,1.06
			C276.34,285.51,275.68,285.67,274.91,285.95z"/>
		<path d="M267.7,288.52c0-0.84,0-1.39,0-2.18c0.64,0.14,1.27,0.17,1.75,0.45c0.19,0.12,0.21,1.04,0.01,1.18
			C269.03,288.28,268.41,288.33,267.7,288.52z"/>
		<path d="M261.47,293.08c0-0.84,0-1.39,0-2.18c0.64,0.14,1.27,0.17,1.75,0.45c0.19,0.12,0.21,1.04,0.01,1.18
			C262.8,292.84,262.18,292.88,261.47,293.08z"/>
		<path d="M254.28,297.13c0-0.79,0-1.34,0-2.13c0.61,0.12,1.24,0.13,1.72,0.4c0.19,0.11,0.23,1.06,0.04,1.18
			C255.58,296.89,254.95,296.95,254.28,297.13z"/>
		<path d="M286.22,274.67c0.7,0.21,1.76-0.56,1.82,0.86c0.05,1.32-0.9,1.1-1.82,1.03C286.22,276,286.22,275.43,286.22,274.67z"/>
		<path d="M297.92,272.73c0-0.88,0-1.43,0-2.22c0.63,0.14,1.25,0.17,1.74,0.44c0.15,0.08,0.13,0.96-0.09,1.15
			C299.21,272.42,298.61,272.49,297.92,272.73z"/>
		<path d="M247.6,299.61c0.68,0.23,1.72-0.53,1.81,0.78c0.09,1.44-1.06,0.74-1.81,0.96C247.6,300.78,247.6,300.29,247.6,299.61z"/>
		<path d="M301.63,268.64c-0.78,0-1.24,0-1.93,0c0.15-0.49,0.18-0.98,0.44-1.27c0.15-0.17,0.8-0.19,0.96-0.03
			C301.36,267.62,301.43,268.1,301.63,268.64z"/>
		<path d="M291.15,352.18c0.4,0.3,0.92,0.52,0.91,0.72c-0.02,0.45-0.18,1.12-0.5,1.3c-1.2,0.69-2.52,1.16-3.73,1.84
			c-0.78,0.44-1.28-0.02-1.61-0.45c-0.39-0.52,0.01-1.03,0.56-1.3C288.2,353.58,289.64,352.9,291.15,352.18z"/>
		<path d="M244.24,371.5c-0.28-1.03-0.1-1.69,1.09-1.97c0.74-0.18,1.35-0.83,2.09-1.03c0.6-0.16,1.57-0.21,1.87,0.13
			c0.51,0.57-0.02,1.32-0.64,1.64C247.29,370.99,245.95,371.94,244.24,371.5z"/>
		<path d="M226.79,377.04c0.12,2.21-2.27,3.59-5.11,3.35c0-0.49,0-0.98,0-1.62C223.29,378.23,224.95,377.67,226.79,377.04z"/>
		<path d="M217.95,380.91c0.05,2.23-1.7,3.14-4.67,2.83c0-0.45,0-0.91,0-1.61C214.72,381.75,216.25,381.35,217.95,380.91z"/>
		<path d="M265.21,362.68c0.03,2.02-2.15,3.14-4.69,2.81c0-0.45,0-0.91,0-1.62C261.98,363.5,263.52,363.1,265.21,362.68z"/>
		<path d="M270.35,362.34c0-0.73,0-1.2,0-1.57c1-0.29,1.91-0.61,2.85-0.81c0.64-0.14,1.53-0.55,1.85,0.38
			c0.34,0.97-0.41,1.48-1.24,1.63C272.7,362.17,271.57,362.22,270.35,362.34z"/>
		<path d="M230.59,376.28c0.15-0.58,0.13-1.37,0.42-1.52c0.95-0.46,2-0.71,3.03-0.97c0.11-0.03,0.49,0.37,0.47,0.54
			c-0.04,0.4-0.14,0.88-0.4,1.14C233.29,376.28,232.37,376.47,230.59,376.28z"/>
		<path d="M278.97,358.14c0-0.82,0-1.28,0-1.92c0.89-0.15,1.79-0.36,2.7-0.42c0.27-0.02,0.78,0.34,0.8,0.56
			c0.03,0.34-0.18,0.95-0.43,1.04C281.11,357.72,280.12,357.88,278.97,358.14z"/>
		<path d="M238.02,373.66c-0.23-1.8,0.33-2.42,2.1-2.29c0.3,0.02,0.82,0.24,0.84,0.42c0.06,0.38-0.03,0.91-0.27,1.18
			C239.98,373.75,239.04,373.94,238.02,373.66z"/>
		<path d="M253.31,368.11c0-0.45,0-0.92,0-1.6c1.06-0.08,2.12-0.16,3.18-0.24C256.71,368.07,255.91,368.51,253.31,368.11z"/>
		<path d="M275.33,374.71c1.39,0,2.25,0.64,2.14,1.73c-0.15,1.53-0.5,2.67-2.26,2.6c-1.8-0.07-2.28-0.48-2.28-2.2
			C272.93,375.39,273.7,374.71,275.33,374.71z"/>
		<path d="M279.21,376.79c0-0.76,0-1.23,0-1.94c0.65,0.16,1.25,0.23,1.77,0.47c0.13,0.06,0.14,0.88,0,0.96
			C280.49,376.53,279.91,376.6,279.21,376.79z"/>
		<path d="M285.47,372.93c0.63,0.13,1.22,0.16,1.71,0.4c0.16,0.08,0.16,0.97,0.01,1.05c-0.48,0.25-1.07,0.29-1.72,0.44
			C285.47,374.16,285.47,373.69,285.47,372.93z"/>
		<path d="M339.52,273.33c0.12-2.43,0.21-4.84,0.38-7.25c0.02-0.27,0.49-0.68,0.8-0.72c1.63-0.22,3.28-0.42,4.92-0.49
			c1.72-0.08,3.44-0.06,5.16,0c1.12,0.03,1.86,0.9,2.06,1.99c0.1,0.55,0.63,1.05,0.65,1.58c0.07,1.87,0.12,3.76-0.05,5.62
			c-0.07,0.79-0.75,1.48-1.79,1.35c-0.82-0.1-1.64-0.16-2.46-0.25c-2.22-0.24-4.44-0.5-6.67-0.71c-0.77-0.07-1.61,0.17-2.02-0.84
			C340.43,273.45,339.95,273.45,339.52,273.33z"/>
		<path d="M237.72,384.68c0-0.76,0-1.23,0-1.94c0.66,0.17,1.26,0.26,1.78,0.51c0.13,0.06,0.12,0.88-0.03,0.96
			C238.98,384.46,238.4,384.52,237.72,384.68z"/>
		<path d="M358.45,261.57c-0.61-0.09-1.3-0.03-1.83-0.29c-1.03-0.51-0.75-1.67-0.84-2.53c-0.04-0.38,0.71-1.08,1.22-1.23
			c1.38-0.39,2.81-0.61,4.23-0.81c0.88-0.12,1.8,0.04,2.22,0.93c0.47,1.01-0.1,1.89-0.71,2.68c-0.81,1.05-2.08,0.92-3.2,1.16
			c-0.34,0.07-0.71,0.01-1.07,0.01C358.46,261.52,358.45,261.54,358.45,261.57z"/>
	</g>
</g>
</svg>
