<?xml version="1.0" encoding="utf-8"?>
<!-- Generator: Adobe Illustrator 24.1.3, SVG Export Plug-In . SVG Version: 6.00 Build 0)  -->
<svg version="1.1" id="Calque_1" xmlns="http://www.w3.org/2000/svg" xmlns:xlink="http://www.w3.org/1999/xlink" x="0px" y="0px"
	 viewBox="0 0 595.28 841.89" style="enable-background:new 0 0 595.28 841.89;" xml:space="preserve">
<style type="text/css">
	.st0{fill:#FFFFFF;}
</style>
<g>
	<g>
		<path class="st0" d="M58,660.89c0-160,0-320,0-480c160,0,320,0,480,0c0,160,0,320,0,480C378,660.89,218,660.89,58,660.89z
			 M195.61,297.88c0.1,0.03,0.21,0.05,0.31,0.08c-0.07,0.1-0.12,0.21-0.2,0.29c-2.41,2.39-2.4,2.38-5.23,0.52
			c-4.17-2.75-8.67-4.83-13.54-5.94c-3.85-0.88-7.23,0.56-8.38,3.64c-1.31,3.5-1.56,7.23-0.47,10.83c1.31,4.32,4.13,7.61,7.87,10.11
			c1.26,0.84,2.43,1.82,3.68,2.69c1.59,1.11,2.05,2.36,1.68,4.43c-1.61,9.14-1.56,18.38-1.22,27.62c0.06,1.54,0.41,3.1,0.86,4.58
			c3.97,13.39,11.04,24.69,22.22,33.34c10.5,8.13,22.08,13.08,35.5,13.23c5.64,0.06,11.27,0.13,16.91,0.14
			c0.97,0,1.48,0.22,1.81,1.22c0.71,2.16,1.49,4.31,2.43,6.38c3.01,6.62,7.59,11.99,13.32,16.41c7.57,5.82,16.06,9.46,25.61,10.09
			c6.05,0.4,12.15,0.32,18.22,0.19c2.64-0.06,4.74,0.78,6.72,2.3c0.47,0.37,0.92,0.77,1.37,1.16c3.72,3.2,6.07,7.38,8.38,11.6
			c3.69,6.75,5.92,13.86,5.63,21.65c-0.09,2.28-0.01,4.56-0.02,6.84c0,0.56,0,1.14-0.14,1.67c-1.03,3.82-1.86,7.71-3.22,11.41
			c-1.84,5-4.87,9.34-8.61,13.15c-0.85,0.87-1.86,1.7-2.95,2.19c-2.48,1.1-5.04,2.01-7.59,2.92c-3.65,1.31-6.32,3.59-7.37,7.42
			c-1.25,4.53,0.9,9.38,5.32,12.06c4.96,3.02,10.43,4.72,16.12,5.48c3.5,0.47,7.1,0.27,10.66,0.25c4.79-0.02,9.47-0.82,13.96-2.56
			c8.45-3.27,16.54-7.26,23.91-12.59c1.03-0.75,1.82-0.95,2.95-0.21c3.52,2.3,8.55,0.41,10.42-3.02c1.63-3,1.92-6.11,1.68-9.4
			c-0.05-0.69,0.16-1.5,0.52-2.09c3.23-5.33,6.61-10.57,8.79-16.47c0.12-0.32,0.64-0.63,1.02-0.69c0.94-0.14,1.92-0.09,2.86-0.21
			c2.74-0.35,5.8-3.15,6.11-5.56c0.34-2.61-0.25-4.93-2.23-6.78c-1.02-0.95-2.09-1.85-3.07-2.85c-0.3-0.3-0.53-0.86-0.5-1.28
			c0.19-3.19,0.53-6.36,0.68-9.55c0.12-2.51,0.02-5.02,0.02-7.58c0.31-0.07,0.58-0.12,0.84-0.2c2.13-0.66,4.3-1.2,6.36-2.02
			c1.58-0.63,2.68-1.91,2.93-3.69c0.28-1.97-0.02-3.88-1.31-5.45c-2.43-2.95-5.12-5.65-8.89-6.84c-1.13-0.36-1.46-0.9-1.56-2
			c-0.38-4.49-1.42-8.82-3.31-12.95c-0.17-0.37-0.02-1.08,0.24-1.44c2.7-3.61,4.76-7.53,5.39-12.02c0.55-3.91,0.85-7.86,1.17-11.8
			c0.08-0.94,0.27-1.27,1.28-1.33c6.58-0.38,11.96-2.82,15.23-8.93c1.06-1.98,1.87-3.96,1.65-6.26c-0.09-0.87,0.01-1.76-0.04-2.64
			c-0.15-2.67-0.65-5.25-2.31-7.44c-0.96-1.28-1.92-2.57-2.99-3.74c-2.41-2.63-5.04-4.89-9.01-4.14c-1.21,0.23-2.39,0.59-3.6,0.87
			c-1.06,0.24-2.13,0.45-3.23,0.68c-1.79-7.35-5.07-13.85-7.82-20.28c2.37-2.48,4.65-4.82,6.87-7.22c2.07-2.24,2.17-4.97,1.33-7.66
			c-0.77-2.48-2-4.87-5.04-5.17c-5.18-0.5-10.02,0.62-14.35,3.57c-0.72,0.49-1.11,0.43-1.73-0.1c-4.85-4.19-9.91-8.08-15.47-11.3
			c-0.33-0.19-0.58-0.8-0.58-1.21c0-3.39,0.25-6.8,0.07-10.18c-0.24-4.43-3.95-7.68-8.35-7.65c-1.08,0.01-2.16,0.07-3.23,0.19
			c-5.19,0.57-9.36,5.27-9.3,10.5c0.01,1.1,0.14,2.2,0.21,3.32c-2.07,0.15-4.07,0.21-6.04,0.47c-8.87,1.16-17.08,4.38-25,8.38
			c-2.85,1.44-5.57,3.16-8.45,4.54c-3.97,1.9-7.8,4.13-12.43,4.39c-5.41,0.3-10.75,1.49-16.23,1.29c-3.91-0.14-7.23-1.42-10.01-4.18
			c-2.28-2.26-3.94-4.95-5.24-7.82c-2.63-5.78-3.38-11.95-3.37-18.24c0.01-3.12-0.06-6.24,0.05-9.35c0.15-4.32-1.94-7.69-4.62-10.7
			c-2.95-3.32-6.91-4.49-11.24-4.42c-3.22,0.05-6.45,0.2-9.67,0.46c-3.62,0.3-3.65,0.22-5.27-3.06c-1.5-3.04-3.03-6.12-4.99-8.85
			c-3.86-5.36-10.13-6.43-15.42-2.36c-1.08,0.83-1.98,1.85-2.08,3.24c-0.1,1.46-0.1,2.97,0.14,4.41c0.65,3.75,2.3,7.12,4.29,10.34
			c0.64,1.03,1.17,2.13,1.77,3.22c-2.03,1.11-3.88,2.13-5.77,3.17c-0.45-0.51-0.85-1-1.28-1.46c-1.17-1.25-2.61-1.54-3.89-0.82
			c-1.3,0.73-1.82,2.22-1.3,3.86c0.94,2.95,0.92,2.17-1.45,3.94c-0.09,0.07-0.21,0.11-0.34,0.17c-0.87-0.69-1.67-1.49-2.61-2.07
			c-2.11-1.28-4.73,0.03-4.6,2.34C194.9,294.88,195.33,296.38,195.61,297.88z"/>
		<path d="M195.61,297.88c-0.27-1.51-0.7-3-0.78-4.52c-0.12-2.31,2.49-3.62,4.6-2.34c0.94,0.57,1.75,1.37,2.61,2.07
			c0.13-0.06,0.25-0.1,0.34-0.17c2.37-1.77,2.39-0.98,1.45-3.94c-0.52-1.63,0-3.13,1.3-3.86c1.28-0.72,2.72-0.43,3.89,0.82
			c0.43,0.46,0.84,0.95,1.28,1.46c1.9-1.04,3.74-2.05,5.77-3.17c-0.6-1.1-1.13-2.19-1.77-3.22c-1.99-3.22-3.64-6.58-4.29-10.34
			c-0.25-1.44-0.24-2.95-0.14-4.41c0.09-1.39,1-2.41,2.08-3.24c5.29-4.07,11.56-3,15.42,2.36c1.97,2.73,3.5,5.82,4.99,8.85
			c1.62,3.28,1.65,3.35,5.27,3.06c3.21-0.26,6.44-0.41,9.67-0.46c4.33-0.07,8.29,1.1,11.24,4.42c2.68,3.02,4.77,6.38,4.62,10.7
			c-0.11,3.11-0.04,6.23-0.05,9.35c-0.01,6.29,0.74,12.46,3.37,18.24c1.31,2.87,2.96,5.56,5.24,7.82c2.78,2.77,6.1,4.04,10.01,4.18
			c5.47,0.2,10.81-0.99,16.23-1.29c4.64-0.26,8.46-2.49,12.43-4.39c2.88-1.38,5.59-3.1,8.45-4.54c7.93-3.99,16.13-7.21,25-8.38
			c1.97-0.26,3.96-0.31,6.04-0.47c-0.07-1.12-0.2-2.22-0.21-3.32c-0.05-5.22,4.11-9.92,9.3-10.5c1.07-0.12,2.15-0.18,3.23-0.19
			c4.41-0.03,8.11,3.22,8.35,7.65c0.18,3.38-0.07,6.78-0.07,10.18c0,0.41,0.26,1.02,0.58,1.21c5.56,3.22,10.62,7.11,15.47,11.3
			c0.62,0.53,1.01,0.59,1.73,0.1c4.33-2.96,9.16-4.08,14.35-3.57c3.04,0.3,4.26,2.69,5.04,5.17c0.84,2.69,0.73,5.42-1.33,7.66
			c-2.21,2.4-4.5,4.74-6.87,7.22c2.74,6.42,6.02,12.93,7.82,20.28c1.1-0.23,2.17-0.44,3.23-0.68c1.2-0.28,2.39-0.64,3.6-0.87
			c3.97-0.75,6.6,1.51,9.01,4.14c1.08,1.18,2.03,2.46,2.99,3.74c1.65,2.2,2.15,4.78,2.31,7.44c0.05,0.88-0.05,1.76,0.04,2.64
			c0.22,2.3-0.58,4.27-1.65,6.26c-3.27,6.11-8.65,8.55-15.23,8.93c-1.01,0.06-1.2,0.38-1.28,1.33c-0.31,3.94-0.62,7.89-1.17,11.8
			c-0.64,4.49-2.69,8.41-5.39,12.02c-0.27,0.36-0.41,1.07-0.24,1.44c1.89,4.12,2.93,8.45,3.31,12.95c0.09,1.1,0.43,1.64,1.56,2
			c3.77,1.19,6.45,3.89,8.89,6.84c1.29,1.56,1.59,3.48,1.31,5.45c-0.25,1.77-1.35,3.06-2.93,3.69c-2.06,0.82-4.23,1.36-6.36,2.02
			c-0.26,0.08-0.53,0.12-0.84,0.2c0,2.55,0.09,5.07-0.02,7.58c-0.15,3.19-0.48,6.36-0.68,9.55c-0.03,0.42,0.2,0.97,0.5,1.28
			c0.98,1,2.05,1.9,3.07,2.85c1.98,1.85,2.56,4.17,2.23,6.78c-0.31,2.41-3.37,5.21-6.11,5.56c-0.95,0.12-1.92,0.06-2.86,0.21
			c-0.37,0.06-0.9,0.37-1.02,0.69c-2.18,5.89-5.56,11.14-8.79,16.47c-0.36,0.59-0.57,1.4-0.52,2.09c0.24,3.29-0.05,6.4-1.68,9.4
			c-1.87,3.44-6.91,5.32-10.42,3.02c-1.13-0.74-1.92-0.54-2.95,0.21c-7.37,5.33-15.46,9.32-23.91,12.59
			c-4.48,1.74-9.16,2.54-13.96,2.56c-3.55,0.02-7.15,0.22-10.66-0.25c-5.69-0.76-11.16-2.47-16.12-5.48
			c-4.41-2.68-6.57-7.53-5.32-12.06c1.06-3.83,3.72-6.11,7.37-7.42c2.55-0.92,5.11-1.83,7.59-2.92c1.1-0.49,2.1-1.32,2.95-2.19
			c3.74-3.8,6.77-8.15,8.61-13.15c1.36-3.7,2.19-7.59,3.22-11.41c0.14-0.53,0.14-1.11,0.14-1.67c0.02-2.28-0.06-4.56,0.02-6.84
			c0.29-7.79-1.94-14.9-5.63-21.65c-2.31-4.22-4.66-8.4-8.38-11.6c-0.45-0.39-0.9-0.79-1.37-1.16c-1.98-1.53-4.08-2.36-6.72-2.3
			c-6.07,0.13-12.17,0.21-18.22-0.19c-9.55-0.63-18.04-4.27-25.61-10.09c-5.73-4.41-10.32-9.79-13.32-16.41
			c-0.94-2.07-1.72-4.22-2.43-6.38c-0.33-1-0.84-1.22-1.81-1.22c-5.64-0.01-11.27-0.08-16.91-0.14c-13.42-0.15-25-5.1-35.5-13.23
			c-11.18-8.66-18.24-19.95-22.22-33.34c-0.44-1.48-0.8-3.05-0.86-4.58c-0.34-9.24-0.39-18.48,1.22-27.62
			c0.36-2.07-0.09-3.32-1.68-4.43c-1.24-0.87-2.42-1.84-3.68-2.69c-3.75-2.51-6.56-5.79-7.87-10.11c-1.09-3.6-0.84-7.33,0.47-10.83
			c1.15-3.08,4.53-4.52,8.38-3.64c4.87,1.11,9.36,3.19,13.54,5.94c2.82,1.87,2.82,1.88,5.23-0.52c0.08-0.08,0.13-0.19,0.2-0.29
			C195.82,297.93,195.71,297.91,195.61,297.88z M363,512.95c-0.18-0.09-0.1-0.07-0.04-0.02c2.57,2.29,5.5,2.94,8.67,1.6
			c3.18-1.34,4.72-3.91,4.88-7.35c0.02-0.36,0.31-0.81,0.62-1.03c4.59-3.35,5.11-9.48,1.05-13.41c-0.49-0.48-0.52-0.85-0.34-1.45
			c0.31-1.07,0.64-2.17,0.68-3.27c0.05-1.25,0.45-1.71,1.74-1.94c8.06-1.48,14.25-8.02,15.28-15.96
			c1.09-8.42-3.09-16.23-10.61-19.87c-0.38-0.18-0.74-0.39-1.15-0.6c1.84-3.67,2.04-7.26,0.26-10.85c-1.79-3.58-4.81-5.55-8.77-6.28
			c7.67-8.97,10.07-18.99,5.86-29.99c-4.2-10.98-12.71-16.78-24.52-18.3c5.74-3.66,9.59-8.55,11.97-14.84
			c2.74,10.2,13.07,12.92,19.87,9.19c6.85-3.76,9.18-12.72,4.88-19.27c-2.13-3.23-5.12-5.3-8.94-5.92c-6-0.98-10.64,1.36-14.18,6.4
			c-0.11-1.2-0.15-2.15-0.28-3.09c-1.74-11.91-8.22-20.18-19.68-23.79c-11.59-3.64-21.76-0.55-30.03,8.39
			c-0.81,0.87-1.37,1.06-2.5,0.62c-18.74-7.27-39.62,2.15-46.6,20.99c-0.5,1.34-0.89,2.71-1.33,4.05c-1.42-0.2-2.77-0.38-4.21-0.58
			c4.39-5.24,5.89-11.08,3.86-17.54c-2.04-6.52-6.69-10.42-13.19-12.15c1.45-7.29-1.27-12.21-8.14-14.82
			c0.11-0.22,0.17-0.37,0.25-0.5c3.13-4.83,3.11-9.79,0.5-14.79c-4.49-8.57-15.49-10.28-22.03-3.46
			c-4.54,4.73-4.96,11.77-1.07,17.81c0.22,0.35,0.44,0.71,0.51,0.82c-2.37,0.96-4.63,1.88-6.83,2.78c-1.06-1.21-2.07-2.82-3.49-3.89
			c-1.46-1.1-3.24-1.99-5.01-2.38c-1.73-0.38-3.69-0.3-5.43,0.09c-1.78,0.41-3.59,1.2-5.1,2.25c-5.13,3.54-6.47,10.61-3.17,15.89
			c1.64,2.62,3.94,4.39,6.94,5.18c4.67,1.24,8.73-0.19,12.51-3.07c2.33,4.2,5.89,6.33,10.3,6.46c-0.9,2.52-1.87,4.95-2.61,7.45
			c-0.27,0.9-0.48,1.27-1.48,1.4c-4.6,0.58-7.84,3.07-9.48,7.42c-1.96,5.21,0.22,11.09,4.99,13.8c4.89,2.79,10.93,1.71,14.55-2.61
			c0.43-0.51,0.68-1.05,1.62-0.63c4.64,2.08,9.36,2.12,14.11,0.28c0.53-0.21,1.16-0.23,1.74-0.25c1.59-0.05,3.19-0.01,4.78-0.11
			c0.85-0.05,1.69-0.31,2.63-0.49c-4.26,8.45,3.54,17.34,12.42,14.05c3.98,12.02,11.77,20.43,23.97,24.15
			c12.19,3.72,23.4,1.21,33.6-6.62c-3.34,11.12-1.68,21.06,6.23,29.39c7.93,8.36,17.81,10.49,28.98,7.76
			c-1.34,4.47-0.47,8.35,2.52,11.82c-0.31,0.28-0.56,0.52-0.83,0.75c-6.02,5.22-8.17,11.74-6.43,19.5c0.2,0.89,0.1,1.31-0.76,1.75
			c-5.47,2.81-8.45,8.77-7.56,14.93c0.86,5.9,5.39,10.68,11.32,11.92c0.65,0.14,1.3,0.24,1.95,0.35c-0.82,1.2-1.6,2.33-2.37,3.46
			c-3.4-2.65-6.68-3.12-9.73-1.24c-0.91,0.56-1.68,0.6-2.66,0.37c-6.55-1.54-13.25,2.11-15.63,8.47
			c-2.37,6.32,0.35,13.48,6.32,16.63c8.53,4.51,18.6-0.86,19.83-10.54c0.06-0.51,0.24-1.09,0.56-1.47
			C360.6,515.49,361.75,514.31,363,512.95z"/>
		<path class="st0" d="M363,512.95c-1.25,1.36-2.4,2.55-3.46,3.81c-0.32,0.38-0.5,0.96-0.56,1.47c-1.23,9.69-11.3,15.05-19.83,10.54
			c-5.96-3.15-8.68-10.31-6.32-16.63c2.38-6.36,9.08-10.01,15.63-8.47c0.99,0.23,1.75,0.19,2.66-0.37c3.05-1.88,6.33-1.4,9.73,1.24
			c0.77-1.13,1.54-2.26,2.37-3.46c-0.64-0.12-1.3-0.22-1.95-0.35c-5.93-1.24-10.46-6.02-11.32-11.92
			c-0.9-6.15,2.09-12.11,7.56-14.93c0.86-0.44,0.96-0.86,0.76-1.75c-1.74-7.77,0.41-14.28,6.43-19.5c0.26-0.23,0.52-0.47,0.83-0.75
			c-2.99-3.47-3.86-7.36-2.52-11.82c-11.17,2.72-21.06,0.6-28.98-7.76c-7.9-8.34-9.57-18.28-6.23-29.39
			c-10.2,7.84-21.41,10.34-33.6,6.62c-12.2-3.72-19.99-12.13-23.97-24.15c-8.88,3.29-16.67-5.6-12.42-14.05
			c-0.93,0.18-1.77,0.44-2.63,0.49c-1.59,0.1-3.19,0.05-4.78,0.11c-0.58,0.02-1.21,0.04-1.74,0.25c-4.75,1.83-9.46,1.8-14.11-0.28
			c-0.94-0.42-1.19,0.13-1.62,0.63c-3.62,4.32-9.66,5.4-14.55,2.61c-4.77-2.72-6.95-8.6-4.99-13.8c1.64-4.35,4.87-6.84,9.48-7.42
			c1-0.13,1.21-0.5,1.48-1.4c0.74-2.5,1.71-4.93,2.61-7.45c-4.41-0.13-7.97-2.26-10.3-6.46c-3.78,2.89-7.84,4.31-12.51,3.07
			c-2.99-0.79-5.3-2.56-6.94-5.18c-3.3-5.28-1.96-12.35,3.17-15.89c1.51-1.04,3.32-1.84,5.1-2.25c1.74-0.4,3.7-0.48,5.43-0.09
			c1.77,0.39,3.55,1.29,5.01,2.38c1.42,1.07,2.44,2.67,3.49,3.89c2.2-0.89,4.46-1.82,6.83-2.78c-0.07-0.12-0.28-0.47-0.51-0.82
			c-3.89-6.04-3.47-13.07,1.07-17.81c6.54-6.82,17.54-5.11,22.03,3.46c2.62,5,2.63,9.96-0.5,14.79c-0.09,0.13-0.14,0.28-0.25,0.5
			c6.87,2.61,9.59,7.53,8.14,14.82c6.5,1.73,11.15,5.63,13.19,12.15c2.03,6.47,0.53,12.3-3.86,17.54c1.44,0.2,2.79,0.39,4.21,0.58
			c0.44-1.34,0.83-2.72,1.33-4.05c6.98-18.84,27.86-28.27,46.6-20.99c1.13,0.44,1.69,0.25,2.5-0.62
			c8.28-8.95,18.44-12.04,30.03-8.39c11.46,3.6,17.94,11.87,19.68,23.79c0.14,0.94,0.18,1.89,0.28,3.09
			c3.54-5.05,8.18-7.38,14.18-6.4c3.82,0.62,6.81,2.69,8.94,5.92c4.31,6.55,1.97,15.51-4.88,19.27c-6.8,3.73-17.13,1.02-19.87-9.19
			c-2.38,6.29-6.23,11.18-11.97,14.84c11.8,1.53,20.31,7.32,24.52,18.3c4.21,11,1.8,21.02-5.86,29.99c3.96,0.73,6.98,2.69,8.77,6.28
			c1.79,3.58,1.58,7.18-0.26,10.85c0.41,0.21,0.78,0.42,1.15,0.6c7.53,3.63,11.7,11.45,10.61,19.87
			c-1.03,7.95-7.22,14.48-15.28,15.96c-1.29,0.24-1.69,0.69-1.74,1.94c-0.04,1.1-0.37,2.2-0.68,3.27c-0.18,0.61-0.15,0.97,0.34,1.45
			c4.05,3.93,3.54,10.06-1.05,13.41c-0.3,0.22-0.6,0.67-0.62,1.03c-0.16,3.44-1.7,6.01-4.88,7.35c-3.17,1.34-6.1,0.69-8.67-1.6
			C362.9,512.88,362.82,512.86,363,512.95z M339.58,388.52c-1.41-0.63-1.68,0.12-1.92,1.28
			C338.39,389.32,338.93,388.96,339.58,388.52z"/>
		<path d="M339.58,388.52c-0.65,0.43-1.2,0.8-1.92,1.28C337.91,388.64,338.17,387.89,339.58,388.52z"/>
	</g>
</g>
</svg>
