<?xml version="1.0" encoding="utf-8"?>
<!-- Generator: Adobe Illustrator 24.1.3, SVG Export Plug-In . SVG Version: 6.00 Build 0)  -->
<svg version="1.1" id="Calque_1" xmlns="http://www.w3.org/2000/svg" xmlns:xlink="http://www.w3.org/1999/xlink" x="0px" y="0px"
	 viewBox="0 0 595.28 841.89" style="enable-background:new 0 0 595.28 841.89;" xml:space="preserve">
<style type="text/css">
	.st0{fill:#FFFFFF;}
</style>
<g>
	<g>
		<path class="st0" d="M538,660.89c-160,0-320,0-480,0c0-160,0-320,0-480c160,0,320,0,480,0C538,340.89,538,500.89,538,660.89z
			 M303.93,376.93c-1.98,0.8-3.45,2.17-4.64,3.85c-0.61,0.86-1.38,0.64-2,0.3c-0.32-0.18-0.44-0.9-0.47-1.39
			c-0.03-0.5,0.15-1.02,0.28-1.52c0.21-0.82,0.45-1.64,0.76-2.74c-0.79,0.3-1.4,0.37-1.78,0.7c-1.11,0.95-2.11,2.03-3.21,2.99
			c-0.35,0.31-0.94,0.58-1.37,0.51c-1.8-0.28-1.81-0.33-1.76-2.2c0.02-0.8,0.14-1.59,0.18-2.38c0.03-0.48,0.01-0.97,0.01-1.45
			c-0.14-0.06-0.28-0.13-0.42-0.19c-1.02,1.2-2,2.42-3.06,3.58c-0.29,0.32-0.79,0.66-1.18,0.63c-0.75-0.05-1.18-0.55-1.08-1.41
			c0.14-1.2,0.22-2.41,0.33-3.7c-1.51,0.14-2.5,1.08-3.26,2.28c-0.47,0.75-0.91,1.02-1.83,0.62c-3.44-1.53-6.88-1.46-10.34,0.06
			c-0.79,0.35-0.89,0.65-0.79,1.49c0.21,1.73,0.54,3.59,0.11,5.2c-0.7,2.66-0.08,4.36,2.3,5.64c1.35,0.72,2.56,1.7,3.83,2.56
			c-0.03,0.1-0.06,0.2-0.08,0.29c-1.43,0-2.86,0-4.51,0c0.53,0.86,0.84,1.57,1.32,2.12c2.34,2.72,4.72,5.42,7.11,8.1
			c0.79,0.89,1.58,2.1,3.09,0.55c-0.86,1.63-0.01,2.38,1.04,3.12c1.93,1.35,3.81,2.79,5.75,4.13c0.46,0.32,1.08,0.4,1.37,0.5
			c0.73,0.54,1.23,1.06,1.83,1.33c4.15,1.84,8.57,2.49,13.03,2.98c0.26,0.03,0.64-0.12,0.81-0.32c1.02-1.18,1.04-2.75,0.08-4.01
			c-1.02-1.34-2.07-2.66-3.02-3.89c4.34,1.48,8.75,2.98,13.44,4.58c-1.72,1.41-3.35,2.74-5.13,4.19c0.61,0.04,1,0.09,1.38,0.09
			c5.79,0.02,11.58,0.07,17.38,0.05c2.76-0.01,2.76-0.08,3.27-2.75c0.01-0.07,0.07-0.13,0.16-0.3c2.75-0.14,5.55-0.27,8.41-0.42
			c0,1.03,0,1.92,0,2.89c0.46-0.03,0.94-0.03,1.41-0.09c5.01-0.66,9.26,0.65,12.45,4.77c0.16,0.21,0.65,0.38,0.88,0.29
			c0.49-0.19,1.29-0.57,1.28-0.85c-0.09-2.46-0.09-5.01-2.23-6.81c-0.65-0.55-1.31-1.07-1.96-1.61c0.02-0.14,0.04-0.27,0.07-0.41
			c4.49-0.77,8.97-1.55,13.62-2.35c-0.81,2.55-1.6,5.03-2.38,7.5c0.1,0.06,0.21,0.12,0.31,0.19c7.24-4.36,13.58-9.81,19.37-16.04
			c-0.72-0.61-1.31-1.12-1.96-1.68c1.91-2.75,3.77-5.42,5.64-8.12c0.64,0.24,1.29,0.36,1.82,0.69c0.88,0.55,1.34,0.23,1.82-0.54
			c0.85-1.39,1.77-2.75,2.67-4.13c0.3,0.05,0.57,0.1,0.84,0.15c5.55,0.98,8.9,5.31,8.73,10.43c-0.09,2.51-1.25,3.79-3.74,3.99
			c-2.62,0.21-5.24,0.44-7.86,0.7c-1.5,0.15-2.56,1.03-2.98,2.41c-0.5,1.67-0.33,3.36,0.29,5.04c0.62,1.66,1.13,3.39,1.46,5.13
			c0.47,2.49,0.17,4.88-2.23,6.34c-1.47,0.89-3.07,1.77-4.72,2.15c-3.33,0.75-6.7,0.46-10.09,0.01c-4.9-0.66-8.28-0.16-10.74,5.44
			c-1.09,2.48-2.83,4.57-5.05,6.13c-4.1,2.89-8.68,4.77-13.53,6c-3.57,0.9-6.57,0.08-9.14-2.61c-1.01-1.06-2.21-1.97-3.44-2.78
			c-3.21-2.13-7.66-1.69-10.58,0.78c-1.2,1.02-2.54,1.97-3.96,2.62c-5.56,2.55-11.47,3.51-17.54,3.37c-1.08-0.02-2.25-0.5-3.19-1.08
			c-2.33-1.45-3.03-3.93-3.85-6.38c-0.84-2.55-1.8-5.1-3.06-7.46c-1.71-3.21-5.04-4.37-8.19-5.63c-3.72-1.48-6.96-3.48-8.12-7.63
			c-0.93-3.32-2.6-6.13-5.12-8.47c-0.44-0.4-0.8-0.89-1.2-1.34c-2.05-2.25-3.11-4.87-3.05-7.93c0.03-1.32,0-2.63,0-4.26
			c-0.78,1.88-1.76,3.5-2.08,5.24c-0.36,1.94-0.18,3.99-0.09,5.98c0.04,0.93,0.3,1.88,0.64,2.76c1.27,3.23,3.1,6.1,5.74,8.41
			c1.4,1.23,2.09,2.76,2.08,4.64c0,0.87,0.12,1.76,0.33,2.6c0.85,3.39,3.02,5.53,6.38,6.43c3.23,0.86,5.35,2.99,6.56,5.97
			c1.21,3.01,2.26,6.1,3.22,9.2c1.3,4.19,4.88,7.09,9.27,7.12c3.16,0.02,6.32,0.06,9.47,0c1.7-0.03,3.3,0.25,4.89,0.85
			c2.51,0.94,5.03,0.99,7.3-0.64c1.64-1.18,3.21-2.48,4.7-3.85c1.08-1,2.21-1.64,3.72-1.6c1.64,0.04,3.28,0.07,4.92-0.01
			c2.41-0.11,4.46,0.68,6.52,1.9c1.75,1.04,3.7,2.08,5.66,2.34c6.56,0.88,12.51-0.97,17.88-4.78c2.89-2.05,4.89-4.9,6.91-7.73
			c1.17-1.64,2.63-2.76,4.73-2.79c2.35-0.04,4.71-0.05,7.06-0.11c1.62-0.05,3.3,0.05,4.86-0.3c4.72-1.05,8.57-3.84,12.53-6.47
			c3.54-2.35,4.37-7.84,2.9-10.88c-0.87-1.81-1.23-3.67-1.23-5.65c0-2.05,0.37-2.49,2.41-2.68c2.5-0.23,5.01-0.45,7.25-1.69
			c1.78-0.99,3.87-1.76,4.33-4.1c0.25-1.28,0.35-2.63,0.27-3.93c-0.13-1.9-0.63-3.76-2.42-4.82c-1.76-1.05-2.97-2.48-3.66-4.4
			c-0.63-1.75-1.94-2.77-3.68-3.27c-0.72-0.21-1.46-0.38-2.17-0.62c-1.05-0.37-2.12-0.7-3.09-1.21c-1.51-0.79-1.72-1.48-1.38-3.1
			c0.22-1.01,0.34-2.05,0.49-3.07c0.16-1.07,0.82-1.43,1.9-1.31c1.38,0.15,2.78,0.24,4.16,0.16c1.67-0.09,3.32-0.45,4.99-0.58
			c2.37-0.18,4.45,0.97,5.19,2.69c1,2.35,1.93,4.73,3.08,7c0.56,1.1,1.42,2.14,2.38,2.91c1.56,1.24,3.32,2.21,4.98,3.33
			c0.41,0.28,0.81,0.66,1.03,1.09c1.26,2.48,2.4,5.03,3.71,7.49c2.48,4.65,6.5,6.74,11.69,6.63c1.03-0.02,2.14-0.19,2.8-1.43
			c-0.44-0.16-0.8-0.27-1.15-0.42c-1.24-0.53-2.54-0.96-3.68-1.64c-2.23-1.34-3.01-3.88-2.2-6.29c2.5,0.16,4.97,0.42,7.43,0.46
			c2.05,0.03,4.06-0.4,5.86-1.48c2.87-1.72,4.08-4.59,5.08-7.57c0.18-0.55,0.21-1.15,0.32-1.84c-0.65-0.07-1.16-0.18-1.66-0.16
			c-2.47,0.12-4.95,0.15-7.4,0.46c-5.74,0.74-10.18-1.22-13.31-6.07c-0.45-0.7-0.74-1.5-1.23-2.52c0.89,0.08,1.4,0.13,1.9,0.17
			c2.89,0.23,5.78,0.58,8.68,0.66c2.26,0.06,3.91-1.21,5.01-3.16c0.41-0.73,0.73-1.51,1.15-2.23c0.2-0.35,0.5-0.81,0.83-0.89
			c1.69-0.39,3.4-0.82,5.12-0.97c3.29-0.27,6.63-0.15,9.9-0.57c4.55-0.57,8.22-2.84,10.95-6.6c1.22-1.68,1.31-3.45,0.85-5.34
			c-0.07-0.3-0.31-0.57-0.46-0.84c-0.22,0.1-0.32,0.11-0.37,0.17c-0.28,0.34-0.55,0.68-0.81,1.04c-2.18,3.01-4.97,5.22-8.6,6.11
			c-2.62,0.64-5.31,0.99-7.97,1.47c-1.04,0.19-2.08,0.39-3.12,0.58c-0.09-0.14-0.18-0.28-0.27-0.41c0.22-0.1,0.48-0.15,0.64-0.31
			c1.77-1.78,3.69-3.44,5.25-5.39c2.44-3.05,4.54-6.36,6.95-9.43c1.48-1.88,3.26-3.52,4.85-5.21c-0.47,0-1.1,0-1.73,0
			c-0.16,0-0.32,0-0.48,0.04c-5.13,1.2-9.59,3.49-13.15,7.51c-3.39,3.82-5.97,8.29-9.72,11.83c-2.49,2.35-7.69,3.48-10.81,2.01
			c-0.36-0.17-0.72-0.37-1-0.65c-0.18-0.18-0.36-0.58-0.28-0.78c0.43-1.09,0.87-2.2,1.45-3.22c0.53-0.93,1.37-1.7,1.84-2.65
			c1.15-2.33,3.16-3.64,5.34-4.78c2.72-1.43,5.57-2.44,8.68-2.8c-2.91-0.7-5.82-1.41-8.75-2.12c2.03-2.5,5.42-3.56,7.65-6.33
			c-3.53-1.72-6.96-3.01-10.64-3.29c-6.52-0.5-11.57,2.85-16.53,6.69c0-0.54-0.03-0.97,0-1.38c0.22-2.75,0.44-5.5,0.69-8.24
			c0.17-1.78,0.7-3.44,1.8-4.88c0.92-1.21,1.79-2.45,2.73-3.65c0.71-0.91,1.44-1.86,2.72-1.97c2.81-0.25,4.26-2.1,5.52-4.38
			c1.17-2.12,2.6-4.11,3.99-6.1c0.85-1.22,2.03-1.98,3.59-1.54c0.63,0.17,1.19,0.61,1.79,0.91c0.9,0.44,2.33-0.07,2.29-0.9
			c-0.06-1.26-0.18-2.57-0.61-3.73c-0.45-1.22-1.5-1.95-2.95-1.76c-0.67,0.09-1.36,0.09-2.03,0.21c-3.44,0.6-7.23,2.15-7.85,7.65
			c-0.26,2.31-1.04,4.57-1.7,6.82c-0.35,1.18-1.08,2.14-2.54,2.42c0.21-0.5,0.35-0.85,0.61-1.48c-10.39-0.68-19.2,1.52-24.69,11.34
			c-1.7-4.6-4.32-5.98-8.44-4.01c-0.25,0.12-0.49,0.28-0.74,0.38c-1.52,0.59-3.01,1.26-4.57,1.71c-1.61,0.46-3.58-1.13-3.44-2.72
			c0.06-0.64,0.37-1.31,0.73-1.86c1.86-2.89,2.08-6.12,1.76-9.35c-0.29-2.88-1.94-5.16-4.05-7.13c-2.1-1.96-3.4-2.24-5.99-0.98
			c-2.18,1.07-4.29,2.29-6.51,3.28c-1.25,0.55-2.64,0.86-3.99,1.06c-0.41,0.06-1.28-0.58-1.33-0.97c-0.13-1.17-0.27-2.49,0.16-3.53
			c1.27-3.04,1.48-6.17,1.41-9.38c-0.04-1.75-0.89-2.65-2.66-2.88c-2.37-0.31-4.52,0.34-6.49,1.55c-1.87,1.14-3.66,2.42-5.49,3.62
			c-1.16,0.76-1.97,0.47-2.37-0.83c-0.12-0.38-0.18-0.78-0.25-1.17c-0.22-1.21-0.43-2.43-0.67-3.64
			c-1.05-5.27-9.32-13.04-15.04-13.63c-3.72-0.39-7.49-0.37-11.23-0.49c-0.79-0.02-1.63,0.02-2.36,0.27
			c-8.47,2.9-17.16,5.33-24.36,11.01c-2.33,1.84-4.77,3.61-6.18,6.41c-1.04,2.06-2.34,3.99-3.39,6.04
			c-0.61,1.19-1.16,2.48-1.37,3.78c-0.13,0.78,0.16,1.98,0.72,2.47c2.16,1.9,4.7,2.82,7.63,1.93c0.5-0.15,1-0.3,1.79-0.54
			c-1.81,2.26-2.99,4.52-3.13,7.11c-0.13,2.45,0.06,4.92,0.1,7.43c-2.28-0.11-4.82-0.26-7.36-0.34c-4.54-0.14-9.08-0.4-13.58,0.43
			c-1.53,0.28-2.94,0.83-3.87,2.16c-0.84,1.21-1.7,2.42-2.41,3.71c-0.23,0.41-0.24,1.34,0.04,1.56c1.48,1.2,2.93,2.43,4.98,2.69
			c3.69,0.46,7.36,1.05,11.03,1.63c1.06,0.17,2.09,0.47,3.12,0.71c-1.37,4.37-4.79,5.84-8.84,6.7c0.99,0.52,1.97,1.04,2.92,0.99
			c4.36-0.25,8.06-1.99,10.93-5.36c0.25-0.3,0.72-0.71,0.98-0.65c2.78,0.69,5.53,1.47,8.56,2.3c-3.56,5.34-8.64,7.35-14.43,8.18
			c0.16,0.09,0.41,0.26,0.67,0.36c3.36,1.32,6.7,0.83,9.92-0.38c2.9-1.09,5.67-2.52,8.65-3.87c1.23,1.48,3.04,1.09,4.83,0.82
			c1.76-0.26,2.06,0,2.12,1.84c0.1,3.46-3.17,7.73-6.54,8.54c-0.96,0.23-1.92,0.45-3.07,0.72c4.78,2.39,14.1-2.88,17.22-9.4
			c0.22,0.16,0.51,0.31,0.72,0.54c1.38,1.5,1.95,1.65,3.72,0.65c1.07-0.6,2.03-1.39,3.04-2.09c1.11-0.77,1.99-0.56,2.61,0.66
			c0.21,0.42,0.38,0.89,0.45,1.35c0.52,3.28,0.72,6.54-0.91,9.66c3.32-3.02,6.66-6.01,6.69-11.07c2.59,1.36,3.27,1.51,5.81,1.43
			c0.36-0.01,0.72,0.01,1.07,0.05c1.74,0.18,2.48,1.32,1.79,2.93c-0.78,1.81-1.91,3.37-3.61,4.49c-0.91,0.6-1.67,1.41-2.5,2.12
			c0.1,0.16,0.2,0.32,0.31,0.48c0.99-0.34,2.02-0.61,2.97-1.04c3.36-1.52,5.95-3.93,7.95-7c0.5-0.77,1.01-0.94,1.88-0.54
			c3.03,1.41,5.47,3.45,7.07,6.41c1.29,2.39,0.96,3.15-1.75,3.49c-4.56,0.57-9.14,1.28-13.72,1.42c-4.79,0.15-9.36,1.29-14,2.14
			c-4.86,0.89-9.68,1.35-14.51-0.17c-1.17-0.37-2.39-0.59-3.61-0.76c-5.16-0.73-10.33-1.4-15.5-2.14c-0.49-0.07-0.99-0.32-1.4-0.61
			c-1.62-1.11-3.46-1.37-5.34-1.49c-0.37-0.02-0.76,0.22-1.31,0.4c2.78,2.59,5.91,3.79,9.36,4.31c4.16,0.62,8.32,1.28,12.47,1.95
			c1.95,0.31,3.88,0.84,5.85,1.01c3.08,0.26,6.19,0.54,9.26,0.37c3.69-0.21,7.34-0.91,11.02-1.35c6.16-0.74,12.29-1.79,18.53-1.58
			c2.01,0.07,4.02,0.01,6.04,0.01c0.02,0.39,0.05,0.55,0.03,0.7c-0.67,5.53-3.49,9.86-7.54,13.5c-0.3,0.27-1.02,0.37-1.39,0.21
			c-1.23-0.54-2.44-1.15-3.56-1.88c-2.68-1.76-3.54-4.13-2.76-7.24c0.08-0.32,0.14-0.64,0.22-1.04c-2.65,0.94-4.06,2.6-4.07,4.89
			c-0.01,1.9,0.36,3.75,1.49,5.33c0.68,0.95,1.49,1.81,2.52,3.06c-3.73-0.23-7.17-0.44-10.78-0.66c0.74-1.98,1.37-3.61,1.95-5.26
			c0.25-0.7,0.56-1.46-0.22-2.08c-0.79-0.64-1.54-0.23-2.21,0.18c-2.49,1.53-4.84,3.22-5.96,6.14c-1-0.15-1.96-0.3-2.99-0.46
			c0.19-2.58,0.91-4.84,2.2-7c-1.29,0.76-2.56,1.52-3.55,2.55c-1.01,1.05-1.75,2.37-2.69,3.68c-3.89-0.28-3.26-0.05-3.36-3.55
			c-0.01-0.48-0.03-0.96,0.03-1.44c0.13-0.94,0.32-1.88,0.52-3.04c-2.67,1.71-4.92,3.48-6.24,6.2c-0.31-0.03-0.59-0.08-0.87-0.07
			c-1.08,0.05-1.57-0.57-1.44-1.52c0.18-1.36,0.52-2.7,0.81-4.05c0.07-0.31,0.18-0.62,0.35-1.19c-0.61,0.21-0.94,0.31-1.26,0.43
			c-2.45,0.92-3.91,2.94-5.43,4.89c-0.22,0.28-0.55,0.64-0.85,0.65c-1.02,0.03-2.04-0.08-3.23-0.14
			C303.51,380.17,303.71,378.6,303.93,376.93z M350.56,373.36c-0.01-0.12-0.03-0.23-0.04-0.35c-0.38-0.06-0.89-0.3-1.1-0.14
			c-0.37,0.28-0.54,0.8-0.8,1.22c0.09,0.07,0.18,0.13,0.27,0.2C349.44,373.98,350,373.67,350.56,373.36z"/>
		<path d="M303.93,376.93c-0.22,1.68-0.43,3.24-0.66,4.99c1.19,0.07,2.21,0.17,3.23,0.14c0.29-0.01,0.63-0.37,0.85-0.65
			c1.52-1.96,2.97-3.97,5.43-4.89c0.32-0.12,0.64-0.22,1.26-0.43c-0.17,0.57-0.28,0.88-0.35,1.19c-0.29,1.35-0.64,2.69-0.81,4.05
			c-0.12,0.95,0.36,1.57,1.44,1.52c0.28-0.01,0.55,0.04,0.87,0.07c1.31-2.72,3.57-4.49,6.24-6.2c-0.2,1.16-0.39,2.1-0.52,3.04
			c-0.07,0.47-0.05,0.96-0.03,1.44c0.1,3.5-0.53,3.27,3.36,3.55c0.94-1.32,1.68-2.63,2.69-3.68c0.99-1.03,2.26-1.79,3.55-2.55
			c-1.29,2.16-2.01,4.42-2.2,7c1.03,0.16,1.99,0.3,2.99,0.46c1.13-2.93,3.47-4.62,5.96-6.14c0.67-0.41,1.41-0.82,2.21-0.18
			c0.77,0.62,0.46,1.38,0.22,2.08c-0.58,1.65-1.21,3.28-1.95,5.26c3.61,0.22,7.05,0.43,10.78,0.66c-1.03-1.25-1.84-2.11-2.52-3.06
			c-1.13-1.58-1.51-3.43-1.49-5.33c0.02-2.29,1.42-3.95,4.07-4.89c-0.09,0.4-0.14,0.73-0.22,1.04c-0.78,3.11,0.09,5.48,2.76,7.24
			c1.12,0.73,2.34,1.34,3.56,1.88c0.37,0.16,1.09,0.06,1.39-0.21c4.04-3.63,6.86-7.97,7.54-13.5c0.02-0.16-0.01-0.32-0.03-0.7
			c-2.02,0-4.03,0.06-6.04-0.01c-6.24-0.21-12.38,0.84-18.53,1.58c-3.68,0.44-7.33,1.14-11.02,1.35c-3.07,0.17-6.18-0.11-9.26-0.37
			c-1.96-0.17-3.89-0.7-5.85-1.01c-4.15-0.67-8.31-1.32-12.47-1.95c-3.45-0.52-6.58-1.72-9.36-4.31c0.55-0.18,0.94-0.42,1.31-0.4
			c1.88,0.12,3.72,0.38,5.34,1.49c0.41,0.28,0.91,0.54,1.4,0.61c5.16,0.73,10.33,1.41,15.5,2.14c1.21,0.17,2.44,0.39,3.61,0.76
			c4.83,1.52,9.65,1.06,14.51,0.17c4.64-0.85,9.22-1.99,14-2.14c4.58-0.14,9.16-0.85,13.72-1.42c2.71-0.34,3.04-1.1,1.75-3.49
			c-1.6-2.96-4.04-5-7.07-6.41c-0.87-0.41-1.38-0.23-1.88,0.54c-1.99,3.07-4.59,5.49-7.95,7c-0.95,0.43-1.98,0.7-2.97,1.04
			c-0.1-0.16-0.2-0.32-0.31-0.48c0.83-0.71,1.59-1.52,2.5-2.12c1.7-1.12,2.83-2.68,3.61-4.49c0.7-1.61-0.05-2.75-1.79-2.93
			c-0.36-0.04-0.72-0.06-1.07-0.05c-2.54,0.08-3.22-0.08-5.81-1.43c-0.03,5.06-3.37,8.06-6.69,11.07c1.63-3.12,1.43-6.38,0.91-9.66
			c-0.07-0.46-0.24-0.93-0.45-1.35c-0.62-1.22-1.5-1.43-2.61-0.66c-1.01,0.7-1.97,1.49-3.04,2.09c-1.77,1-2.34,0.85-3.72-0.65
			c-0.21-0.23-0.5-0.38-0.72-0.54c-3.12,6.52-12.44,11.79-17.22,9.4c1.15-0.27,2.11-0.49,3.07-0.72c3.37-0.81,6.64-5.09,6.54-8.54
			c-0.05-1.84-0.35-2.11-2.12-1.84c-1.79,0.27-3.61,0.67-4.83-0.82c-2.99,1.35-5.76,2.78-8.65,3.87c-3.21,1.21-6.56,1.7-9.92,0.38
			c-0.27-0.11-0.51-0.27-0.67-0.36c5.79-0.83,10.87-2.84,14.43-8.18c-3.03-0.83-5.78-1.61-8.56-2.3c-0.26-0.07-0.73,0.35-0.98,0.65
			c-2.87,3.37-6.56,5.11-10.93,5.36c-0.94,0.05-1.92-0.46-2.92-0.99c4.05-0.86,7.47-2.33,8.84-6.7c-1.03-0.24-2.06-0.54-3.12-0.71
			c-3.67-0.58-7.34-1.17-11.03-1.63c-2.05-0.26-3.5-1.49-4.98-2.69c-0.27-0.22-0.26-1.15-0.04-1.56c0.71-1.29,1.57-2.5,2.41-3.71
			c0.93-1.34,2.34-1.88,3.87-2.16c4.5-0.84,9.05-0.57,13.58-0.43c2.54,0.08,5.08,0.23,7.36,0.34c-0.05-2.51-0.24-4.98-0.1-7.43
			c0.14-2.58,1.32-4.85,3.13-7.11c-0.8,0.24-1.29,0.39-1.79,0.54c-2.93,0.89-5.47-0.02-7.63-1.93c-0.56-0.49-0.85-1.69-0.72-2.47
			c0.22-1.3,0.76-2.59,1.37-3.78c1.06-2.05,2.35-3.98,3.39-6.04c1.41-2.79,3.85-4.56,6.18-6.41c7.2-5.68,15.89-8.11,24.36-11.01
			c0.73-0.25,1.58-0.29,2.36-0.27c3.75,0.12,7.51,0.1,11.23,0.49c5.72,0.59,13.99,8.36,15.04,13.63c0.24,1.21,0.44,2.43,0.67,3.64
			c0.07,0.39,0.13,0.79,0.25,1.17c0.41,1.3,1.22,1.59,2.37,0.83c1.84-1.2,3.62-2.48,5.49-3.62c1.98-1.21,4.12-1.86,6.49-1.55
			c1.77,0.23,2.62,1.14,2.66,2.88c0.07,3.21-0.15,6.34-1.41,9.38c-0.43,1.03-0.29,2.36-0.16,3.53c0.04,0.39,0.92,1.03,1.33,0.97
			c1.36-0.2,2.74-0.5,3.99-1.06c2.22-0.98,4.32-2.21,6.51-3.28c2.59-1.26,3.89-0.98,5.99,0.98c2.11,1.97,3.76,4.25,4.05,7.13
			c0.32,3.23,0.09,6.47-1.76,9.35c-0.36,0.55-0.67,1.22-0.73,1.86c-0.15,1.59,1.83,3.18,3.44,2.72c1.56-0.45,3.05-1.13,4.57-1.71
			c0.26-0.1,0.49-0.26,0.74-0.38c4.13-1.98,6.74-0.59,8.44,4.01c5.48-9.82,14.29-12.02,24.69-11.34c-0.26,0.63-0.41,0.98-0.61,1.48
			c1.46-0.28,2.19-1.24,2.54-2.42c0.66-2.25,1.44-4.51,1.7-6.82c0.62-5.5,4.41-7.05,7.85-7.65c0.67-0.12,1.35-0.12,2.03-0.21
			c1.45-0.19,2.5,0.54,2.95,1.76c0.43,1.16,0.55,2.48,0.61,3.73c0.04,0.83-1.38,1.34-2.29,0.9c-0.6-0.29-1.16-0.73-1.79-0.91
			c-1.57-0.43-2.74,0.32-3.59,1.54c-1.39,2-2.82,3.98-3.99,6.1c-1.26,2.28-2.71,4.13-5.52,4.38c-1.28,0.12-2.01,1.07-2.72,1.97
			c-0.94,1.19-1.81,2.44-2.73,3.65c-1.1,1.45-1.63,3.11-1.8,4.88c-0.26,2.74-0.47,5.49-0.69,8.24c-0.03,0.42,0,0.84,0,1.38
			c4.95-3.85,10.01-7.19,16.53-6.69c3.69,0.28,7.11,1.58,10.64,3.29c-2.23,2.78-5.61,3.83-7.65,6.33c2.93,0.71,5.84,1.41,8.75,2.12
			c-3.11,0.36-5.96,1.37-8.68,2.8c-2.17,1.14-4.19,2.44-5.34,4.78c-0.47,0.95-1.31,1.72-1.84,2.65c-0.58,1.02-1.02,2.12-1.45,3.22
			c-0.08,0.2,0.1,0.6,0.28,0.78c0.28,0.27,0.64,0.48,1,0.65c3.12,1.47,8.32,0.34,10.81-2.01c3.75-3.54,6.33-8,9.72-11.83
			c3.56-4.02,8.02-6.32,13.15-7.51c0.15-0.04,0.32-0.04,0.48-0.04c0.63,0,1.26,0,1.73,0c-1.59,1.69-3.37,3.33-4.85,5.21
			c-2.41,3.07-4.51,6.38-6.95,9.43c-1.56,1.95-3.47,3.61-5.25,5.39c-0.16,0.16-0.43,0.21-0.64,0.31c0.09,0.14,0.18,0.28,0.27,0.41
			c1.04-0.19,2.08-0.39,3.12-0.58c2.66-0.48,5.35-0.82,7.97-1.47c3.63-0.89,6.42-3.1,8.6-6.11c0.26-0.35,0.53-0.7,0.81-1.04
			c0.04-0.05,0.14-0.07,0.37-0.17c0.15,0.27,0.38,0.54,0.46,0.84c0.46,1.89,0.37,3.66-0.85,5.34c-2.73,3.77-6.4,6.03-10.95,6.6
			c-3.27,0.41-6.61,0.3-9.9,0.57c-1.72,0.14-3.43,0.57-5.12,0.97c-0.33,0.08-0.62,0.54-0.83,0.89c-0.42,0.72-0.74,1.5-1.15,2.23
			c-1.1,1.95-2.75,3.22-5.01,3.16c-2.9-0.07-5.79-0.42-8.68-0.66c-0.5-0.04-1.01-0.09-1.9-0.17c0.49,1.02,0.77,1.82,1.23,2.52
			c3.14,4.85,7.57,6.81,13.31,6.07c2.44-0.32,4.93-0.34,7.4-0.46c0.5-0.03,1.02,0.09,1.66,0.16c-0.12,0.69-0.14,1.29-0.32,1.84
			c-1,2.99-2.21,5.85-5.08,7.57c-1.79,1.07-3.81,1.51-5.86,1.48c-2.47-0.04-4.93-0.29-7.43-0.46c-0.81,2.41-0.02,4.95,2.2,6.29
			c1.14,0.69,2.45,1.11,3.68,1.64c0.35,0.15,0.71,0.26,1.15,0.42c-0.66,1.24-1.77,1.41-2.8,1.43c-5.19,0.11-9.2-1.98-11.69-6.63
			c-1.31-2.46-2.45-5-3.71-7.49c-0.22-0.43-0.62-0.81-1.03-1.09c-1.65-1.12-3.42-2.09-4.98-3.33c-0.96-0.77-1.83-1.81-2.38-2.91
			c-1.15-2.27-2.08-4.66-3.08-7c-0.73-1.72-2.82-2.87-5.19-2.69c-1.67,0.12-3.32,0.48-4.99,0.58c-1.38,0.08-2.78-0.01-4.16-0.16
			c-1.08-0.12-1.73,0.24-1.9,1.31c-0.16,1.03-0.28,2.06-0.49,3.07c-0.35,1.62-0.13,2.31,1.38,3.1c0.97,0.51,2.05,0.85,3.09,1.21
			c0.71,0.25,1.45,0.42,2.17,0.62c1.75,0.5,3.06,1.52,3.68,3.27c0.69,1.92,1.9,3.35,3.66,4.4c1.79,1.07,2.29,2.92,2.42,4.82
			c0.09,1.3-0.01,2.65-0.27,3.93c-0.46,2.33-2.55,3.11-4.33,4.1c-2.24,1.25-4.76,1.46-7.25,1.69c-2.05,0.19-2.41,0.63-2.41,2.68
			c0,1.98,0.36,3.84,1.23,5.65c1.47,3.05,0.64,8.54-2.9,10.88c-3.96,2.63-7.81,5.42-12.53,6.47c-1.57,0.35-3.24,0.25-4.86,0.3
			c-2.35,0.07-4.71,0.07-7.06,0.11c-2.1,0.04-3.56,1.15-4.73,2.79c-2.02,2.82-4.01,5.67-6.91,7.73c-5.37,3.81-11.33,5.66-17.88,4.78
			c-1.97-0.26-3.92-1.3-5.66-2.34c-2.06-1.22-4.11-2.01-6.52-1.9c-1.64,0.08-3.28,0.05-4.92,0.01c-1.5-0.04-2.63,0.6-3.72,1.6
			c-1.49,1.37-3.06,2.67-4.7,3.85c-2.27,1.63-4.79,1.58-7.3,0.64c-1.59-0.6-3.19-0.88-4.89-0.85c-3.16,0.06-6.32,0.03-9.47,0
			c-4.38-0.03-7.96-2.93-9.27-7.12c-0.96-3.1-2.01-6.19-3.22-9.2c-1.2-2.98-3.33-5.1-6.56-5.97c-3.36-0.9-5.53-3.04-6.38-6.43
			c-0.21-0.84-0.33-1.74-0.33-2.6c0.01-1.88-0.67-3.41-2.08-4.64c-2.63-2.31-4.47-5.18-5.74-8.41c-0.34-0.87-0.6-1.83-0.64-2.76
			c-0.08-1.99-0.26-4.04,0.09-5.98c0.32-1.74,1.3-3.36,2.08-5.24c0,1.62,0.02,2.94,0,4.26c-0.06,3.06,1,5.68,3.05,7.93
			c0.4,0.44,0.76,0.93,1.2,1.34c2.52,2.33,4.2,5.15,5.12,8.47c1.16,4.14,4.4,6.14,8.12,7.63c3.15,1.26,6.48,2.42,8.19,5.63
			c1.26,2.36,2.22,4.91,3.06,7.46c0.81,2.46,1.52,4.93,3.85,6.38c0.93,0.58,2.11,1.06,3.19,1.08c6.08,0.14,11.99-0.82,17.54-3.37
			c1.42-0.65,2.76-1.6,3.96-2.62c2.91-2.47,7.37-2.9,10.58-0.78c1.23,0.81,2.43,1.72,3.44,2.78c2.57,2.68,5.57,3.51,9.14,2.61
			c4.86-1.23,9.43-3.11,13.53-6c2.22-1.56,3.96-3.66,5.05-6.13c2.45-5.59,5.84-6.1,10.74-5.44c3.39,0.46,6.77,0.75,10.09-0.01
			c1.66-0.37,3.25-1.25,4.72-2.15c2.4-1.45,2.69-3.85,2.23-6.34c-0.33-1.74-0.84-3.47-1.46-5.13c-0.63-1.68-0.79-3.37-0.29-5.04
			c0.41-1.38,1.47-2.26,2.98-2.41c2.62-0.25,5.24-0.48,7.86-0.7c2.49-0.2,3.66-1.48,3.74-3.99c0.18-5.11-3.18-9.45-8.73-10.43
			c-0.27-0.05-0.54-0.1-0.84-0.15c-0.9,1.38-1.82,2.74-2.67,4.13c-0.47,0.77-0.94,1.09-1.82,0.54c-0.52-0.33-1.18-0.46-1.82-0.69
			c-1.87,2.7-3.73,5.37-5.64,8.12c0.65,0.56,1.25,1.07,1.96,1.68c-5.79,6.23-12.13,11.68-19.37,16.04c-0.1-0.06-0.21-0.12-0.31-0.19
			c0.79-2.48,1.57-4.95,2.38-7.5c-4.65,0.8-9.13,1.58-13.62,2.35c-0.02,0.14-0.04,0.27-0.07,0.41c0.65,0.54,1.32,1.06,1.96,1.61
			c2.14,1.81,2.13,4.35,2.23,6.81c0.01,0.28-0.8,0.67-1.28,0.85c-0.23,0.09-0.72-0.08-0.88-0.29c-3.19-4.12-7.43-5.43-12.45-4.77
			c-0.47,0.06-0.94,0.06-1.41,0.09c0-0.96,0-1.85,0-2.89c-2.86,0.14-5.66,0.28-8.41,0.42c-0.09,0.16-0.15,0.22-0.16,0.3
			c-0.51,2.67-0.51,2.74-3.27,2.75c-5.79,0.03-11.58-0.02-17.38-0.05c-0.39,0-0.78-0.05-1.38-0.09c1.78-1.45,3.4-2.78,5.13-4.19
			c-4.69-1.6-9.1-3.1-13.44-4.58c0.95,1.23,2,2.55,3.02,3.89c0.96,1.26,0.94,2.82-0.08,4.01c-0.17,0.2-0.55,0.35-0.81,0.32
			c-4.46-0.48-8.89-1.14-13.03-2.98c-0.61-0.27-1.1-0.79-1.83-1.33c-0.29-0.1-0.91-0.18-1.37-0.5c-1.94-1.34-3.82-2.77-5.75-4.13
			c-1.05-0.74-1.9-1.49-1.04-3.12c-1.51,1.56-2.3,0.34-3.09-0.55c-2.39-2.68-4.77-5.38-7.11-8.1c-0.48-0.56-0.79-1.26-1.32-2.12
			c1.65,0,3.08,0,4.51,0c0.03-0.1,0.06-0.2,0.08-0.29c-1.27-0.86-2.49-1.84-3.83-2.56c-2.38-1.28-3.01-2.98-2.3-5.64
			c0.43-1.62,0.1-3.48-0.11-5.2c-0.1-0.84,0-1.14,0.79-1.49c3.46-1.52,6.9-1.59,10.34-0.06c0.91,0.41,1.35,0.13,1.83-0.62
			c0.76-1.2,1.74-2.14,3.26-2.28c-0.11,1.28-0.19,2.49-0.33,3.7c-0.1,0.86,0.32,1.35,1.08,1.41c0.38,0.03,0.89-0.31,1.18-0.63
			c1.06-1.16,2.05-2.38,3.06-3.58c0.14,0.06,0.28,0.13,0.42,0.19c0,0.48,0.02,0.97-0.01,1.45c-0.05,0.8-0.16,1.59-0.18,2.38
			c-0.05,1.87-0.04,1.92,1.76,2.2c0.43,0.07,1.02-0.21,1.37-0.51c1.11-0.96,2.1-2.04,3.21-2.99c0.39-0.33,0.99-0.4,1.78-0.7
			c-0.31,1.1-0.55,1.91-0.76,2.74c-0.13,0.5-0.3,1.02-0.28,1.52c0.03,0.49,0.15,1.21,0.47,1.39c0.62,0.34,1.39,0.56,2-0.3
			C300.49,379.1,301.96,377.72,303.93,376.93z M349.04,337.52c1.92,0.43,3.67,0.77,5.4,1.23c1.04,0.28,1.56,0.03,1.75-1.05
			c0.51-2.82,1.84-5.26,3.65-7.44c0.27-0.33,0.76-0.49,1.15-0.72c0.24,0.5,0.58,0.99,0.69,1.52c0.07,0.34-0.19,0.75-0.32,1.13
			c-0.71,2.15-1.42,4.3-2.13,6.45c-0.21,0.63,0.03,0.89,0.68,1.08c1.61,0.47,3.19,1.02,4.76,1.62c0.72,0.28,1,0.13,1.35-0.57
			c0.97-1.96,2.04-3.87,3.16-5.75c0.33-0.56,0.88-1.06,1.45-1.38c0.42-0.23,1.15-0.32,1.54-0.11c0.32,0.17,0.53,0.92,0.46,1.35
			c-0.15,0.85-0.49,1.67-0.82,2.47c-0.7,1.69-1.47,3.34-2.14,5.04c-0.12,0.32-0.02,1.01,0.19,1.13c1.6,0.85,3.26,1.61,4.92,2.4
			c0.48-0.65,0.83-1.25,1.3-1.73c1.17-1.18,2.32-2.39,3.61-3.43c0.95-0.77,3.08-0.41,3.84,0.54c0.79,0.99-0.1,1.8-0.51,2.6
			c-0.34,0.67-0.85,1.25-1.29,1.87c-0.71,1-1.41,2-2.16,3.06c0.99,0.68,1.93,1.21,2.73,1.92c0.79,0.69,1.37,0.49,2.07-0.07
			c1.34-1.06,2.71-2.09,4.11-3.07c1.07-0.75,1.99-0.05,2.85,0.49c0.81,0.51,0.74,1.36,0.5,2.16c-0.14,0.45-0.37,0.9-0.66,1.26
			c-1,1.21-2.04,2.39-3.15,3.67c2.63,2.43,3.76,5.81,5.14,9.27c3.27-2.8,6.16-5.57,6.83-9.95c0.44-2.83,1.09-5.64,1.64-8.45
			c0.04-0.23,0.08-0.47,0.06-0.7c-0.12-1.14-0.31-2.28-0.38-3.43c-0.14-2.44-1.01-3.34-3.48-3.43c-0.56-0.02-1.14-0.04-1.67,0.1
			c-1.91,0.52-3.82,1.05-5.69,1.71c-1.47,0.52-2.91,0.79-4.44,0.34c-1.68-0.49-2.57-1.56-2.5-3.28c0.12-2.9,0.34-5.8,0.48-8.7
			c0.08-1.73-0.66-3.16-1.81-4.41c-0.76-0.83-1.69-1.25-2.79-0.97c-1.26,0.32-2.58,0.6-3.71,1.2c-2.11,1.12-4.06,2.53-6.16,3.67
			c-0.9,0.49-2.03,0.89-3.01,0.79c-2.06-0.2-3.75-2.65-3.82-5.13c-0.04-1.4,0-2.8-0.06-4.2c-0.1-2.62-1.34-3.89-3.94-3.63
			c-1.71,0.17-3.42,0.71-5.05,1.3c-3.56,1.3-6.2,4.03-9.21,6.18c-1.46,1.05-2.83,2.08-4.72,1.38c0.13,3.84-1.11,7.19-2.72,10.56
			c1.39,0.26,2.7,0.4,3.95,0.77c1.27,0.37,2.05-0.05,2.7-1.09c1.49-2.36,2.97-4.72,4.51-7.05c0.26-0.39,0.81-0.89,1.15-0.84
			c0.37,0.05,0.75,0.65,0.95,1.1c0.74,1.67,0.4,3.37-0.05,5.04C349.85,334.7,349.45,336.07,349.04,337.52z M339.11,321.57
			c1.48-1.89,3.21-3.93,4.73-6.12c0.93-1.35,1.88-2.86,2.21-4.43c0.88-4.15,0.14-8.09-1.98-11.86c-1.3-2.3-3.15-3.7-5.4-4.83
			c-1.6-0.8-3.2-1.63-4.68-2.62c-1.41-0.95-2.87-1.43-4.57-1.51c-3.71-0.17-7.18,0.93-10.63,1.98c-5.85,1.77-11.29,4.47-16.67,7.38
			c-3.6,1.95-5.81,4.87-7.61,8.3c-0.92,1.76-0.67,2.69,1.02,4.12c0.4-0.48,0.84-0.93,1.19-1.44c1.18-1.76,2.27-3.57,3.51-5.29
			c0.49-0.68,1.27-1.15,1.91-1.72c0.1,0.09,0.21,0.18,0.31,0.28c-0.2,1.05-0.48,2.08-0.57,3.14c-0.2,2.23,2.25,4.07,4.15,3.09
			c2.94-1.52,5.93-2.58,9.34-2.55c3.01,0.03,5.93,0.32,8.67,1.51c2.15,0.93,4.16,2.18,6.25,3.23c2.25,1.13,4.32,2.52,5.83,4.53
			C337.3,318.3,338.19,320.06,339.11,321.57z M314.6,310.64c-2.44-0.03-4.11,0.54-5.24,2.59c-0.97,1.75-2.45,3.2-3.66,4.82
			c-1.78,2.38-1.88,7.56-0.27,9.92c0.47,0.68,0.75,1.5,1.24,2.16c0.4,0.53,0.93,1.24,1.49,1.32c4.21,0.65,8.44,1.23,12.68,1.69
			c2.07,0.22,4.14-0.36,5.79-1.53c1.69-1.2,3.1-2.82,4.57-4.32c0.59-0.6,1.14-1.3,1.5-2.05c0.71-1.47,0.62-3.01,0.23-4.58
			c-0.57-2.26-1.76-4.05-3.69-5.34c-0.89-0.59-1.8-1.15-2.73-1.66c-1.23-0.67-2.46-1.33-3.74-1.88
			C320.04,310.62,317.21,310.11,314.6,310.64z"/>
		<path d="M350.56,373.36c-0.56,0.31-1.12,0.62-1.68,0.93c-0.09-0.07-0.18-0.13-0.27-0.2c0.26-0.42,0.44-0.94,0.8-1.22
			c0.21-0.16,0.72,0.08,1.1,0.14C350.53,373.12,350.54,373.24,350.56,373.36z"/>
		<path class="st0" d="M349.04,337.52c0.41-1.45,0.81-2.82,1.18-4.19c0.45-1.67,0.79-3.37,0.05-5.04c-0.19-0.44-0.58-1.04-0.95-1.1
			c-0.34-0.05-0.9,0.45-1.15,0.84c-1.54,2.33-3.03,4.69-4.51,7.05c-0.65,1.03-1.43,1.46-2.7,1.09c-1.25-0.37-2.57-0.51-3.95-0.77
			c1.61-3.37,2.85-6.71,2.72-10.56c1.89,0.71,3.26-0.33,4.72-1.38c3.01-2.15,5.65-4.88,9.21-6.18c1.63-0.59,3.34-1.13,5.05-1.3
			c2.6-0.25,3.83,1.01,3.94,3.63c0.05,1.4,0.02,2.8,0.06,4.2c0.07,2.48,1.76,4.93,3.82,5.13c0.98,0.09,2.11-0.31,3.01-0.79
			c2.1-1.14,4.05-2.55,6.16-3.67c1.13-0.6,2.45-0.88,3.71-1.2c1.1-0.28,2.03,0.14,2.79,0.97c1.15,1.25,1.89,2.68,1.81,4.41
			c-0.13,2.9-0.36,5.8-0.48,8.7c-0.07,1.72,0.82,2.79,2.5,3.28c1.53,0.44,2.97,0.17,4.44-0.34c1.87-0.66,3.78-1.18,5.69-1.71
			c0.53-0.14,1.11-0.12,1.67-0.1c2.47,0.08,3.34,0.99,3.48,3.43c0.07,1.15,0.26,2.29,0.38,3.43c0.02,0.23-0.01,0.47-0.06,0.7
			c-0.55,2.82-1.2,5.62-1.64,8.45c-0.68,4.38-3.56,7.15-6.83,9.95c-1.38-3.46-2.52-6.85-5.14-9.27c1.11-1.28,2.15-2.45,3.15-3.67
			c0.3-0.36,0.52-0.81,0.66-1.26c0.24-0.79,0.32-1.65-0.5-2.16c-0.86-0.53-1.78-1.24-2.85-0.49c-1.4,0.99-2.77,2.01-4.11,3.07
			c-0.71,0.56-1.29,0.75-2.07,0.07c-0.8-0.7-1.75-1.24-2.73-1.92c0.75-1.06,1.46-2.06,2.16-3.06c0.44-0.62,0.95-1.2,1.29-1.87
			c0.41-0.8,1.3-1.61,0.51-2.6c-0.76-0.95-2.89-1.31-3.84-0.54c-1.29,1.04-2.45,2.25-3.61,3.43c-0.47,0.48-0.82,1.08-1.3,1.73
			c-1.66-0.79-3.32-1.54-4.92-2.4c-0.21-0.11-0.32-0.81-0.19-1.13c0.67-1.7,1.44-3.36,2.14-5.04c0.33-0.8,0.67-1.63,0.82-2.47
			c0.07-0.43-0.14-1.18-0.46-1.35c-0.39-0.21-1.11-0.13-1.54,0.11c-0.57,0.31-1.12,0.82-1.45,1.38c-1.11,1.88-2.18,3.79-3.16,5.75
			c-0.35,0.7-0.63,0.85-1.35,0.57c-1.56-0.6-3.15-1.15-4.76-1.62c-0.66-0.19-0.89-0.45-0.68-1.08c0.71-2.15,1.42-4.3,2.13-6.45
			c0.12-0.38,0.39-0.79,0.32-1.13c-0.11-0.53-0.45-1.02-0.69-1.52c-0.39,0.24-0.88,0.39-1.15,0.72c-1.81,2.18-3.14,4.62-3.65,7.44
			c-0.2,1.08-0.71,1.33-1.75,1.05C352.71,338.29,350.95,337.95,349.04,337.52z"/>
		<path class="st0" d="M339.11,321.57c-0.92-1.52-1.81-3.27-2.97-4.82c-1.51-2.01-3.58-3.4-5.83-4.53c-2.1-1.05-4.11-2.3-6.25-3.23
			c-2.74-1.19-5.66-1.49-8.67-1.51c-3.41-0.03-6.4,1.03-9.34,2.55c-1.9,0.98-4.36-0.86-4.15-3.09c0.1-1.06,0.38-2.09,0.57-3.14
			c-0.1-0.09-0.21-0.18-0.31-0.28c-0.65,0.57-1.42,1.04-1.91,1.72c-1.24,1.71-2.33,3.53-3.51,5.29c-0.35,0.52-0.79,0.97-1.19,1.44
			c-1.69-1.43-1.95-2.36-1.02-4.12c1.8-3.43,4-6.35,7.61-8.3c5.38-2.91,10.82-5.61,16.67-7.38c3.45-1.05,6.92-2.15,10.63-1.98
			c1.7,0.08,3.16,0.56,4.57,1.51c1.48,0.99,3.08,1.82,4.68,2.62c2.25,1.13,4.1,2.53,5.4,4.83c2.12,3.77,2.85,7.71,1.98,11.86
			c-0.33,1.57-1.28,3.08-2.21,4.43C342.32,317.64,340.59,319.68,339.11,321.57z"/>
		<path class="st0" d="M314.6,310.64c2.61-0.53,5.44-0.02,8.16,1.15c1.28,0.55,2.51,1.21,3.74,1.88c0.94,0.51,1.84,1.07,2.73,1.66
			c1.94,1.28,3.13,3.08,3.69,5.34c0.39,1.57,0.49,3.12-0.23,4.58c-0.36,0.75-0.91,1.45-1.5,2.05c-1.47,1.5-2.87,3.12-4.57,4.32
			c-1.66,1.17-3.72,1.76-5.79,1.53c-4.24-0.46-8.46-1.04-12.68-1.69c-0.56-0.09-1.1-0.79-1.49-1.32c-0.49-0.66-0.77-1.48-1.24-2.16
			c-1.61-2.36-1.51-7.53,0.27-9.92c1.21-1.62,2.69-3.07,3.66-4.82C310.49,311.18,312.15,310.61,314.6,310.64z M311.28,320.2
			c0.19,2.16,0.78,4.06,2.34,5.39c1.47,1.26,2.95,2.76,5.22,2.35c1.28-0.23,2.57-0.43,3.8-0.82c1.19-0.38,2.92-2.28,2.57-4.04
			c-0.27-1.38-0.83-2.71-1.15-4.09c-0.5-2.15-2.05-4.08-4.88-4.22c-0.37-0.02-0.84-0.09-1.07-0.32c-0.79-0.8-1.66-0.54-2.42-0.18
			c-0.88,0.42-1.77,0.95-2.46,1.63C312.01,317.09,311.47,318.64,311.28,320.2z"/>
		<path d="M311.28,320.2c0.19-1.56,0.73-3.11,1.93-4.3c0.69-0.68,1.58-1.21,2.46-1.63c0.77-0.36,1.64-0.62,2.42,0.18
			c0.23,0.24,0.71,0.3,1.07,0.32c2.83,0.13,4.38,2.07,4.88,4.22c0.32,1.38,0.88,2.7,1.15,4.09c0.35,1.76-1.38,3.67-2.57,4.04
			c-1.23,0.39-2.52,0.59-3.8,0.82c-2.26,0.41-3.74-1.09-5.22-2.35C312.06,324.26,311.47,322.36,311.28,320.2z"/>
	</g>
</g>
</svg>
