<?xml version="1.0" encoding="utf-8"?>
<!-- Generator: Adobe Illustrator 24.1.3, SVG Export Plug-In . SVG Version: 6.00 Build 0)  -->
<svg version="1.1" id="Calque_1" xmlns="http://www.w3.org/2000/svg" xmlns:xlink="http://www.w3.org/1999/xlink" x="0px" y="0px"
	 viewBox="0 0 595.28 841.89" style="enable-background:new 0 0 595.28 841.89;" xml:space="preserve">
<style type="text/css">
	.st0{fill:#FFFFFF;}
</style>
<g>
	<g>
		<path class="st0" d="M58,180.89c160,0,320,0,480,0c0,160,0,320,0,480c-160,0-320,0-480,0C58,500.89,58,340.89,58,180.89z
			 M226.97,329.38c-0.27,1.03-0.56,1.98-0.75,2.95c-0.08,0.43,0.26,1.04,0.06,1.35c-1.83,2.81-1.33,5.93-0.91,8.86
			c0.58,4.07,2.3,7.78,5.15,10.87c0.19,0.21,0.34,0.65,0.26,0.9c-1.23,3.71-0.51,7.05,1.83,10.09c0.22,0.28,0.51,0.5,0.94,0.91
			c0.11-2.88-0.21-5.52,0.94-8.31c0.49,0.69,1.1,1.17,1.15,1.71c0.09,0.88-0.15,1.81-0.29,2.71c-0.2,1.34,0.07,2.61,1,3.56
			c1.16,1.19,2.4,2.33,3.74,3.31c1.14,0.83,2.19,0.85,3.3,0.51c-2.31-1.86-2.98-3.94-2.2-6.42c2.32,0.68,4.61,1.46,6.95,2
			c2.36,0.54,4.77,0.82,7.22,1.23c0.47,2.14-0.05,4.14-1.27,6.03c-2.73,4.22-6.69,5.72-11.52,5.22c-2.34-0.24-5.52-3.96-5.86-6.64
			c-0.04-0.33-0.15-0.66-0.23-0.99c-0.24,0.81-0.28,1.57-0.37,2.32c-0.24,1.92-0.12,3.86,1.04,5.4c4.14,5.49,8.7,10.39,16.42,10.08
			c0.36-0.01,0.72,0.02,1.08,0.02c5.2,0.06,9.03-2.51,12.05-6.45c2.11-2.75,2.42-6.09,2.59-9.4c0.11-2.06,0.02-4.13,0.02-6.32
			c1.84,0,3.53,0,5.14,0c0.96,4.87,0,9.22-4.14,12.77c3.49,0.63,6.12-0.46,8.43-2.21c0.96-0.73,1.75-2.02,2.07-3.2
			c0.79-2.91,0.69-5.91,0.05-9.02c1.51-0.25,2.98-0.52,4.47-0.71c0.24-0.03,0.72,0.29,0.76,0.5c0.36,2.21,0.7,4.4-0.71,6.46
			c-0.47,0.69-0.59,1.63-0.86,2.4c1.31,0.63,2.24,0.44,3.06-0.26c1.89-1.61,3.43-3.46,3.83-6.01c0.22-1.37,0.43-2.75,0.54-4.13
			c0.05-0.67,0.31-0.93,0.9-1.18c0.65-0.27,1.05-0.1,1.43,0.39c1.14,1.44,1.79,3.08,1.93,4.91c0.1,1.23,0.16,2.47,0.24,3.71
			c0.16,0.03,0.32,0.06,0.48,0.09c0.48-1.4,1.21-2.78,1.38-4.21c0.28-2.33,0.18-4.7,0.31-7.05c0.02-0.45,0.22-1.07,0.55-1.3
			c3.76-2.61,6.38-6.2,8.96-9.88c3.1-4.4,2.19-8.72-0.1-12.94c-2.61-4.82-7.03-7.24-12.24-8.37c-1.19-0.26-2.43-0.31-3.76-0.47
			c0.1-0.7,0.2-1.34,0.25-1.72c2.14-0.1,4.08-0.21,6.02-0.29c3.77-0.16,6.79-1.78,9.23-4.63c1.04-1.21,2.26-2.26,3.32-3.45
			c1.7-1.89,3.52-3.72,4.98-5.79c2.47-3.5,2.15-7.57,1.81-11.57c-0.25-2.99-1.45-5.63-3.48-7.83c-0.59-0.64-1.49-1.4-2.26-1.4
			c-4.3-0.05-8.74-0.29-11.61,4.09c-0.37-0.43-0.67-0.78-0.99-1.15c0.15-0.24,0.27-0.44,0.39-0.64c3.68-6.36,7.38-12.71,10.11-19.55
			c0.37-0.92,0.69-1.9,0.77-2.87c0.46-5.56-1.53-10.22-5.59-13.92c-1.13-1.03-2.67-1.94-4.14-2.17c-1.93-0.3-4.01-0.08-5.95,0.31
			c-4.12,0.83-7.83,2.76-11.25,5.15c-5.47,3.83-10.55,8.06-13.75,14.12c-0.49,0.93-0.94,1.87-1.4,2.81c-0.57-0.98-1-1.98-1.66-2.8
			c-0.84-1.04-1.74-0.92-2.31,0.3c-0.56,1.19-0.95,2.45-1.41,3.64c-0.64-0.92-1.33-1.9-2.01-2.89c-0.15,0.01-0.31,0.02-0.46,0.03
			c-0.38,0.96-0.77,1.92-1.16,2.91c-0.61-1.19-1.22-2.37-1.87-3.63c-1.75,1.09-2.66,2.56-3.31,4.28c-0.46-1.26-0.87-2.45-1.34-3.63
			c-0.09-0.23-0.36-0.38-0.55-0.57c-0.2,0.21-0.53,0.4-0.58,0.65c-0.28,1.32-0.49,2.65-0.71,3.87c-0.63-1.15-0.73-2.79-2.4-3.64
			c0,0.81,0,1.46,0,2.11c-0.25-0.09-0.33-0.21-0.37-0.35c-1.51-5.03-4.18-9.47-6.98-13.85c-1.75-2.73-3.88-5.09-6.7-6.73
			c-0.84-0.49-1.82-0.92-2.77-0.98c-5.98-0.42-11.3,1.38-15.82,5.28c-1.46,1.26-2.85,2.77-3.76,4.45c-3.05,5.64-3,11.79-2.09,17.89
			c0.73,4.89,3.68,8.77,6.75,12.49c0.21,0.25,0.41,0.51,0.7,0.86c-0.5,0-0.82,0.02-1.13,0c-4.57-0.34-7.87,1.67-9.62,5.96
			c-0.64,1.57-1.14,3.22-1.57,4.86c-1.47,5.65-0.42,10.82,3.25,15.37c1.53,1.89,3.21,3.67,4.84,5.48c2.12,2.33,4.67,3.62,7.92,3.41
			C223.24,329.28,225.09,329.38,226.97,329.38z"/>
		<path d="M226.97,329.38c-1.88,0-3.72-0.1-5.55,0.02c-3.25,0.21-5.81-1.07-7.92-3.41c-1.64-1.8-3.31-3.58-4.84-5.48
			c-3.67-4.55-4.72-9.72-3.25-15.37c0.43-1.65,0.93-3.29,1.57-4.86c1.75-4.29,5.05-6.3,9.62-5.96c0.32,0.02,0.64,0,1.13,0
			c-0.28-0.35-0.49-0.61-0.7-0.86c-3.07-3.72-6.02-7.6-6.75-12.49c-0.91-6.1-0.96-12.25,2.09-17.89c0.91-1.68,2.3-3.19,3.76-4.45
			c4.52-3.9,9.84-5.7,15.82-5.28c0.95,0.07,1.93,0.5,2.77,0.98c2.82,1.64,4.95,4,6.7,6.73c2.8,4.38,5.47,8.83,6.98,13.85
			c0.04,0.13,0.11,0.26,0.37,0.35c0-0.65,0-1.31,0-2.11c1.67,0.85,1.77,2.5,2.4,3.64c0.22-1.22,0.43-2.56,0.71-3.87
			c0.05-0.25,0.38-0.43,0.58-0.65c0.19,0.19,0.46,0.34,0.55,0.57c0.46,1.18,0.88,2.37,1.34,3.63c0.66-1.72,1.56-3.19,3.31-4.28
			c0.65,1.26,1.26,2.44,1.87,3.63c0.39-0.98,0.78-1.95,1.16-2.91c0.15-0.01,0.31-0.02,0.46-0.03c0.69,0.98,1.37,1.97,2.01,2.89
			c0.45-1.19,0.85-2.45,1.41-3.64c0.57-1.21,1.47-1.34,2.31-0.3c0.66,0.82,1.09,1.81,1.66,2.8c0.46-0.93,0.91-1.88,1.4-2.81
			c3.19-6.06,8.28-10.29,13.75-14.12c3.42-2.39,7.13-4.32,11.25-5.15c1.94-0.39,4.02-0.6,5.95-0.31c1.47,0.23,3.01,1.14,4.14,2.17
			c4.06,3.71,6.05,8.37,5.59,13.92c-0.08,0.97-0.41,1.95-0.77,2.87c-2.73,6.84-6.43,13.19-10.11,19.55c-0.12,0.2-0.24,0.4-0.39,0.64
			c0.32,0.37,0.62,0.72,0.99,1.15c2.86-4.38,7.31-4.14,11.61-4.09c0.77,0.01,1.67,0.76,2.26,1.4c2.03,2.2,3.23,4.84,3.48,7.83
			c0.34,4,0.67,8.07-1.81,11.57c-1.46,2.07-3.28,3.9-4.98,5.79c-1.07,1.19-2.28,2.24-3.32,3.45c-2.44,2.84-5.45,4.47-9.23,4.63
			c-1.94,0.08-3.88,0.19-6.02,0.29c-0.06,0.38-0.15,1.02-0.25,1.72c1.33,0.16,2.57,0.21,3.76,0.47c5.21,1.13,9.63,3.55,12.24,8.37
			c2.28,4.21,3.19,8.54,0.1,12.94c-2.59,3.68-5.21,7.27-8.96,9.88c-0.33,0.23-0.52,0.85-0.55,1.3c-0.12,2.35-0.02,4.73-0.31,7.05
			c-0.18,1.44-0.9,2.81-1.38,4.21c-0.16-0.03-0.32-0.06-0.48-0.09c-0.08-1.24-0.14-2.47-0.24-3.71c-0.14-1.83-0.79-3.47-1.93-4.91
			c-0.39-0.49-0.78-0.66-1.43-0.39c-0.59,0.24-0.85,0.5-0.9,1.18c-0.1,1.38-0.32,2.76-0.54,4.13c-0.4,2.56-1.95,4.4-3.83,6.01
			c-0.82,0.7-1.76,0.89-3.06,0.26c0.26-0.78,0.38-1.71,0.86-2.4c1.42-2.06,1.07-4.25,0.71-6.46c-0.03-0.21-0.52-0.53-0.76-0.5
			c-1.49,0.19-2.97,0.46-4.47,0.71c0.64,3.11,0.74,6.11-0.05,9.02c-0.32,1.18-1.11,2.47-2.07,3.2c-2.31,1.75-4.94,2.84-8.43,2.21
			c4.14-3.55,5.1-7.9,4.14-12.77c-1.61,0-3.3,0-5.14,0c0,2.19,0.09,4.26-0.02,6.32c-0.17,3.31-0.48,6.65-2.59,9.4
			c-3.02,3.94-6.85,6.51-12.05,6.45c-0.36,0-0.72-0.03-1.08-0.02c-7.72,0.31-12.28-4.59-16.42-10.08c-1.16-1.54-1.28-3.48-1.04-5.4
			c0.09-0.75,0.13-1.51,0.37-2.32c0.08,0.33,0.18,0.65,0.23,0.99c0.34,2.68,3.52,6.4,5.86,6.64c4.83,0.5,8.79-0.99,11.52-5.22
			c1.22-1.89,1.74-3.89,1.27-6.03c-2.45-0.41-4.87-0.69-7.22-1.23c-2.34-0.53-4.63-1.32-6.95-2c-0.78,2.48-0.1,4.55,2.2,6.42
			c-1.11,0.34-2.16,0.32-3.3-0.51c-1.34-0.98-2.58-2.12-3.74-3.31c-0.93-0.96-1.2-2.22-1-3.56c0.14-0.9,0.38-1.83,0.29-2.71
			c-0.06-0.54-0.67-1.03-1.15-1.71c-1.15,2.79-0.83,5.44-0.94,8.31c-0.42-0.4-0.72-0.63-0.94-0.91c-2.34-3.05-3.06-6.39-1.83-10.09
			c0.08-0.25-0.06-0.69-0.26-0.9c-2.85-3.09-4.56-6.8-5.15-10.87c-0.42-2.93-0.91-6.05,0.91-8.86c0.2-0.3-0.14-0.91-0.06-1.35
			C226.41,331.35,226.7,330.41,226.97,329.38z M269.18,351.08c0.34-0.82,0.8-1.93,1.26-3.03c0.28-0.67,0.52-1.28,1.49-1.19
			c0.91,0.08,1.52,0.41,1.71,1.31c0.27,1.26,0.57,2.52,0.71,3.79c0.14,1.26,1.03,1.43,1.96,1.61c0.96,0.2,0.8-0.76,1.17-1.18
			c0.21-0.24,0.39-0.64,0.64-0.68c1.01-0.17,2.06-0.11,2.59,0.94c0.76,1.49,1.94,1.69,3.45,1.36c0.02-0.18,0.01-0.38,0.06-0.56
			c0.49-2.08,1.75-2.44,3.48-1.06c0.7,0.55,1.48,1.35,2.24,1.38c1.37,0.05,2.76-0.4,4.08-0.63c0.06-2.41,0.21-2.51,2.4-1.97
			c0.11,0.03,0.27-0.02,0.35,0.03c0.79,0.51,1.2-0.02,1.66-0.55c1.81-2.08,2.64-4.52,2.79-7.22c0.11-1.92,0.07-3.76-1.17-5.48
			c-2.06-2.85-5.26-3.83-8.34-5.55c0.46,1.29,0.79,2.34,1.2,3.36c0.72,1.79,0.76,3.66,0.6,5.54c-0.13,1.56-0.8,2.03-2.22,1.51
			c-0.84-0.3-1.66-0.79-2.35-1.37c-2.63-2.21-4.28-5.12-5.69-8.19c-0.78-1.69-0.78-1.69-2.41-1.73c0,1.61,0.04,3.23-0.03,4.84
			c-0.01,0.31-0.41,0.85-0.65,0.86c-0.48,0.02-1.21-0.11-1.41-0.44c-0.54-0.85-0.86-1.85-1.26-2.78c-0.15,0.02-0.31,0.04-0.46,0.05
			c-0.09,1-0.15,2-0.27,2.99c-0.13,1.1-0.18,2.24-0.53,3.28c-0.41,1.24-1.43,1.43-2.3,0.45c-0.7-0.79-1.31-1.73-1.71-2.7
			c-0.66-1.64-1.11-3.37-1.64-5.02c-0.72,0-1.43,0-2.2,0c-0.3,4.38-1.97,8.24-4.05,11.94c-0.47,0.83-1.01,1.65-1.66,2.33
			c-0.89,0.93-1.92,0.72-2.33-0.48c-0.33-0.97-0.56-2.02-0.56-3.03c0-3.55,0.11-7.11,0.17-10.66c0.02-0.99,0-1.98,0-3.4
			c-0.66,0.54-1.27,0.79-1.45,1.22c-0.63,1.54-1.16,3.12-1.62,4.72c-0.16,0.54-0.01,1.17-0.86,1.11c-0.72-0.06-1.59,0.35-1.83-0.89
			c-0.25-1.29-0.68-2.55-1.03-3.8c-2.2-0.18-2.15-0.16-2.98,1.74c-0.73,1.68-1.43,3.39-2.42,4.92c-0.78,1.21-1.85,2.31-3.02,3.14
			c-0.54,0.39-1.72,0.24-2.42-0.09c-0.42-0.2-0.71-1.24-0.62-1.84c0.4-2.63,0.9-5.24,1.49-7.83c0.28-1.25,0.83-2.45,1.26-3.66
			c-1.89-0.77-2.98,0.42-4.06,1.41c-1.86,1.7-3.02,3.85-3.72,6.26c-0.24,0.83-0.85,1.07-1.56,0.84c-0.33-0.1-0.77-0.59-0.78-0.91
			c-0.07-2.3-0.04-4.6-0.04-6.92c-1.77,1.15-3.64,2.36-5.5,3.57c-0.09,0.06-0.16,0.17-0.22,0.27c-1.49,2.53-1.14,6.31,0.75,8.54
			c0.51,0.6,0.96,0.93,1.81,0.55c0.66-0.3,1.43-0.43,2.16-0.49c1.98-0.16,2.2,0.08,2.2,2.05c0,0.6,0.07,1.21-0.01,1.8
			c-0.22,1.58,1.06,2.04,2.05,2.57c0.3,0.16,1.04-0.51,1.57-0.81c0.07-0.04,0.11-0.11,0.18-0.16c0.81-0.56,2.35-0.19,2.45,0.59
			c0.1,0.77,0.2,1.55,0.3,2.36c1.02,0.09,1.93,0.23,2.84,0.21c0.37-0.01,0.91-0.26,1.07-0.56c1.34-2.49,3.38-4.39,5.23-6.46
			c1.44-1.61,3.64-0.87,4.03,1.04c0.38,1.87,0.96,3.69,1.38,5.55c0.19,0.84,0.61,1.01,1.41,1.02
			C261.66,350.88,265.32,350.99,269.18,351.08z M262.95,296.05c-1.17-7.21-5.74-11.43-12.26-11.34
			c-6.63,0.09-11.85,4.54-12.69,10.81c-0.69,5.12,2.88,11.42,8.55,12.85c3.25,0.82,6.35,0.46,9.35-0.92
			c3.64-1.68,5.83-4.59,6.83-8.63c1.75,7.87,6.3,11.83,12.93,11.4c5.73-0.37,10.45-4.97,10.96-10.71
			c0.54-5.97-3.25-11.31-9.03-12.73C271.17,285.21,266.18,288.37,262.95,296.05z M219.8,297.82c-4.45-0.55-7.81,2.1-7.87,6.69
			c-0.07,5,0.43,9.8,3.71,13.85c2.68,3.3,5.66,6.2,10.44,5.49c1.79-0.27,3.54-0.81,5.31-1.23c0-0.14,0-0.28,0.01-0.42
			c-0.82-0.47-1.63-0.96-2.47-1.39c-2.49-1.26-3.99-3.19-3.91-6.05c0.04-1.5,0.44-2.98,0.51-4.48c0.07-1.33,0.15-2.74-0.23-3.98
			c-0.18-0.59-1.41-0.87-2.17-1.27c-0.39-0.21-0.81-0.35-1.18-0.58c-1.23-0.73-2.12-1.7-2.14-3.23
			C219.79,300.09,219.8,298.98,219.8,297.82z M244.92,281.87c-1.02-0.44-2.43-0.8-3.56-1.58c-4.05-2.8-8.56-3.53-13.32-3.33
			c-0.46,0.02-0.98,0.15-1.36,0.39c-2.1,1.36-3.9,3.17-4.67,5.47c-1.19,3.56-2.45,7.19-2.11,11.09c0.06,0.74,0.25,1.1,1.05,1.11
			c1.64-2.75,3.96-4.91,6.79-6.35c3.55-1.8,7.23-3.35,10.92-4.84C240.82,282.97,243.11,282.43,244.92,281.87z M292.77,319.98
			c4.58,0.93,8.69,0.18,12.03-2.96c4.08-3.84,5.87-8.66,5.11-14.28c-0.16-1.2-0.51-2.43-1.03-3.52c-1.08-2.3-2.91-2.75-4.97-1.37
			c0,0.08-0.02,0.17,0.01,0.23c0.13,0.29,0.27,0.58,0.41,0.86c1.32,2.75,1.59,5.69,1.3,8.66c-0.3,3.02-3.19,5.69-6.67,6.38
			c-1.84,0.36-3.69,0.65-5.6,0.98C293.16,316.61,292.97,318.23,292.77,319.98z M274.34,279.04c5.21,1.56,10.24,3.07,15.59,4.66
			c-1.24-2.04-2.25-3.98-3.54-5.72c-0.64-0.87-1.71-1.68-2.74-1.96C279.94,275.01,277.13,277.02,274.34,279.04z"/>
		<path class="st0" d="M269.18,351.08c-3.86-0.09-7.52-0.2-11.18-0.24c-0.79-0.01-1.22-0.19-1.41-1.02c-0.42-1.86-1-3.69-1.38-5.55
			c-0.38-1.9-2.59-2.65-4.03-1.04c-1.85,2.08-3.89,3.97-5.23,6.46c-0.16,0.3-0.7,0.55-1.07,0.56c-0.91,0.02-1.82-0.12-2.84-0.21
			c-0.11-0.81-0.21-1.59-0.3-2.36c-0.1-0.77-1.63-1.14-2.45-0.59c-0.07,0.04-0.11,0.12-0.18,0.16c-0.53,0.3-1.27,0.97-1.57,0.81
			c-0.99-0.52-2.26-0.99-2.05-2.57c0.08-0.59,0.01-1.2,0.01-1.8c0-1.97-0.22-2.21-2.2-2.05c-0.73,0.06-1.5,0.19-2.16,0.49
			c-0.85,0.38-1.3,0.05-1.81-0.55c-1.89-2.23-2.24-6.01-0.75-8.54c0.06-0.1,0.13-0.21,0.22-0.27c1.86-1.21,3.73-2.42,5.5-3.57
			c0,2.32-0.03,4.62,0.04,6.92c0.01,0.32,0.44,0.81,0.78,0.91c0.71,0.22,1.32-0.02,1.56-0.84c0.7-2.4,1.86-4.56,3.72-6.26
			c1.08-0.99,2.17-2.18,4.06-1.41c-0.43,1.22-0.98,2.41-1.26,3.66c-0.59,2.59-1.09,5.21-1.49,7.83c-0.09,0.6,0.2,1.64,0.62,1.84
			c0.69,0.33,1.87,0.48,2.42,0.09c1.17-0.83,2.24-1.94,3.02-3.14c0.98-1.53,1.69-3.24,2.42-4.92c0.82-1.9,0.78-1.92,2.98-1.74
			c0.35,1.25,0.79,2.51,1.03,3.8c0.24,1.24,1.12,0.83,1.83,0.89c0.85,0.07,0.7-0.56,0.86-1.11c0.46-1.6,0.99-3.18,1.62-4.72
			c0.18-0.43,0.79-0.68,1.45-1.22c0,1.42,0.01,2.41,0,3.4c-0.06,3.56-0.18,7.11-0.17,10.66c0,1.01,0.23,2.07,0.56,3.03
			c0.41,1.2,1.44,1.41,2.33,0.48c0.65-0.68,1.19-1.5,1.66-2.33c2.09-3.7,3.75-7.56,4.05-11.94c0.78,0,1.48,0,2.2,0
			c0.53,1.65,0.98,3.38,1.64,5.02c0.39,0.98,1.01,1.91,1.71,2.7c0.88,0.98,1.89,0.79,2.3-0.45c0.34-1.04,0.39-2.18,0.53-3.28
			c0.12-0.99,0.18-2,0.27-2.99c0.15-0.02,0.31-0.04,0.46-0.05c0.41,0.94,0.72,1.93,1.26,2.78c0.21,0.33,0.93,0.45,1.41,0.44
			c0.24-0.01,0.64-0.55,0.65-0.86c0.07-1.61,0.03-3.23,0.03-4.84c1.63,0.04,1.64,0.04,2.41,1.73c1.41,3.07,3.06,5.98,5.69,8.19
			c0.69,0.58,1.51,1.06,2.35,1.37c1.42,0.52,2.1,0.05,2.22-1.51c0.15-1.87,0.12-3.74-0.6-5.54c-0.41-1.02-0.75-2.07-1.2-3.36
			c3.07,1.72,6.27,2.7,8.34,5.55c1.24,1.71,1.28,3.55,1.17,5.48c-0.15,2.7-0.98,5.15-2.79,7.22c-0.46,0.53-0.87,1.06-1.66,0.55
			c-0.09-0.06-0.24,0-0.35-0.03c-2.19-0.54-2.34-0.44-2.4,1.97c-1.32,0.23-2.71,0.68-4.08,0.63c-0.77-0.03-1.55-0.83-2.24-1.38
			c-1.73-1.38-2.99-1.01-3.48,1.06c-0.04,0.18-0.04,0.38-0.06,0.56c-1.51,0.32-2.7,0.13-3.45-1.36c-0.53-1.05-1.58-1.1-2.59-0.94
			c-0.24,0.04-0.43,0.44-0.64,0.68c-0.37,0.42-0.21,1.38-1.17,1.18c-0.92-0.19-1.82-0.36-1.96-1.61c-0.14-1.28-0.44-2.54-0.71-3.79
			c-0.19-0.9-0.8-1.23-1.71-1.31c-0.97-0.09-1.21,0.52-1.49,1.19C269.98,349.16,269.52,350.26,269.18,351.08z"/>
		<path class="st0" d="M262.95,296.05c3.23-7.68,8.22-10.83,14.64-9.26c5.78,1.42,9.57,6.75,9.03,12.73
			c-0.52,5.73-5.23,10.34-10.96,10.71c-6.63,0.43-11.18-3.53-12.93-11.4c-1,4.04-3.19,6.95-6.83,8.63c-2.99,1.38-6.1,1.74-9.35,0.92
			c-5.67-1.43-9.24-7.73-8.55-12.85c0.84-6.27,6.06-10.72,12.69-10.81C257.21,284.61,261.78,288.84,262.95,296.05z M248.23,297.14
			c-0.02,0-0.05,0-0.07,0c0.1,1.7,0.17,3.4,0.34,5.09c0.03,0.35,0.4,0.66,0.61,0.99c0.34-0.23,0.8-0.39,1.01-0.71
			c0.42-0.65,0.72-1.38,1.03-2.09c0.11-0.24,0.18-0.52,0.19-0.78c0.02-1.12,0.06-2.24-0.01-3.35c-0.05-0.95-0.13-1.98-1.03-2.55
			c-0.42-0.26-1.05-0.35-1.54-0.27c-0.23,0.04-0.48,0.66-0.51,1.04C248.17,295.38,248.23,296.26,248.23,297.14z M273.17,295.36
			c-0.26,1.12-0.63,2.1-0.68,3.1c-0.04,0.86,0.4,1.73,0.4,2.59c0,0.98,0.44,1.18,1.27,1.24c0.94,0.07,1.34-0.4,1.38-1.21
			c0.06-1.19,0.08-2.39,0-3.57C275.44,295.78,274.78,295.25,273.17,295.36z"/>
		<path class="st0" d="M219.8,297.82c0,1.16-0.01,2.27,0,3.39c0.02,1.53,0.91,2.5,2.14,3.23c0.38,0.22,0.79,0.37,1.18,0.58
			c0.76,0.41,1.99,0.68,2.17,1.27c0.38,1.24,0.3,2.65,0.23,3.98c-0.08,1.5-0.47,2.98-0.51,4.48c-0.08,2.86,1.42,4.79,3.91,6.05
			c0.84,0.43,1.65,0.92,2.47,1.39c0,0.14,0,0.28-0.01,0.42c-1.77,0.42-3.52,0.96-5.31,1.23c-4.78,0.72-7.76-2.18-10.44-5.49
			c-3.28-4.05-3.77-8.85-3.71-13.85C211.99,299.92,215.35,297.26,219.8,297.82z M224.24,307.41c0.31-1.16-0.41-1.5-1.53-1.29
			c-0.98,0.18-1.94,0.48-2.88,0.8c-0.18,0.06-0.34,0.45-0.36,0.69c-0.05,0.63-0.16,1.32,0.02,1.9c0.14,0.44,0.61,0.99,1.04,1.1
			C222.31,311.09,224.23,309.46,224.24,307.41z"/>
		<path class="st0" d="M244.92,281.87c-1.81,0.56-4.1,1.09-6.26,1.96c-3.69,1.49-7.37,3.04-10.92,4.84
			c-2.83,1.44-5.15,3.6-6.79,6.35c-0.8-0.01-0.98-0.37-1.05-1.11c-0.34-3.9,0.92-7.53,2.11-11.09c0.77-2.3,2.57-4.11,4.67-5.47
			c0.38-0.25,0.9-0.37,1.36-0.39c4.76-0.2,9.28,0.53,13.32,3.33C242.49,281.07,243.91,281.43,244.92,281.87z"/>
		<path class="st0" d="M292.77,319.98c0.21-1.75,0.4-3.37,0.59-5.01c1.91-0.33,3.76-0.62,5.6-0.98c3.48-0.69,6.37-3.37,6.67-6.38
			c0.29-2.97,0.02-5.91-1.3-8.66c-0.14-0.29-0.28-0.57-0.41-0.86c-0.03-0.07-0.01-0.15-0.01-0.23c2.06-1.37,3.9-0.93,4.97,1.37
			c0.51,1.1,0.86,2.32,1.03,3.52c0.76,5.62-1.03,10.45-5.11,14.28C301.46,320.17,297.35,320.91,292.77,319.98z"/>
		<path class="st0" d="M274.34,279.04c2.78-2.01,5.6-4.03,9.31-3.02c1.03,0.28,2.09,1.09,2.74,1.96c1.29,1.74,2.3,3.68,3.54,5.72
			C284.59,282.1,279.55,280.6,274.34,279.04z"/>
		<path d="M248.23,297.14c0-0.88-0.05-1.76,0.02-2.63c0.03-0.38,0.28-1,0.51-1.04c0.49-0.08,1.12,0,1.54,0.27
			c0.9,0.57,0.98,1.6,1.03,2.55c0.06,1.11,0.03,2.23,0.01,3.35c0,0.26-0.08,0.54-0.19,0.78c-0.32,0.71-0.62,1.44-1.03,2.09
			c-0.21,0.32-0.66,0.48-1.01,0.71c-0.21-0.33-0.58-0.64-0.61-0.99c-0.16-1.69-0.23-3.4-0.34-5.09
			C248.18,297.14,248.2,297.14,248.23,297.14z"/>
		<path d="M273.17,295.36c1.61-0.11,2.27,0.42,2.38,2.15c0.08,1.19,0.06,2.39,0,3.57c-0.04,0.8-0.45,1.28-1.38,1.21
			c-0.83-0.06-1.28-0.26-1.27-1.24c0-0.86-0.44-1.74-0.4-2.59C272.55,297.46,272.91,296.48,273.17,295.36z"/>
		<path d="M224.24,307.41c0,2.05-1.93,3.68-3.71,3.21c-0.43-0.11-0.91-0.66-1.04-1.1c-0.18-0.58-0.07-1.27-0.02-1.9
			c0.02-0.25,0.18-0.63,0.36-0.69c0.94-0.32,1.9-0.62,2.88-0.8C223.82,305.91,224.55,306.25,224.24,307.41z"/>
	</g>
</g>
</svg>
