<?xml version="1.0" encoding="utf-8"?>
<!-- Generator: Adobe Illustrator 24.1.3, SVG Export Plug-In . SVG Version: 6.00 Build 0)  -->
<svg version="1.1" id="Calque_1" xmlns="http://www.w3.org/2000/svg" xmlns:xlink="http://www.w3.org/1999/xlink" x="0px" y="0px"
	 viewBox="0 0 595.28 841.89" style="enable-background:new 0 0 595.28 841.89;" xml:space="preserve">
<style type="text/css">
	.st0{fill:#FFFFFF;}
</style>
<g>
	<g>
		<path class="st0" d="M58,660.89c0-160,0-320,0-480c160,0,320,0,480,0c0,160,0,320,0,480C378,660.89,218,660.89,58,660.89z
			 M387.94,372.35c-1.16-0.65-2.3-1.02-3.09-1.77c-1.56-1.48-2.97-3.12-4.33-4.79c-0.65-0.8-1.35-1.79-1.46-2.76
			c-0.25-2.15-1.29-3.94-2.16-5.8c-2.61-5.63-5.87-10.88-9.28-16.06c-1.74-2.65-3.56-5.26-5.1-8.02c-2.71-4.88-5.88-9.38-9.81-13.34
			c-1.05-1.06-2.11-2.12-3.17-3.18c-2.17-2.15-4.16-4.52-6.56-6.38c-3.28-2.55-6.79-4.83-10.35-6.99
			c-3.57-2.16-7.22-4.25-11.01-5.98c-4.79-2.18-9.73-4.03-14.65-5.91c-2.55-0.97-5.18-1.74-7.79-2.53c-2.05-0.62-4.1-1.28-6.21-1.65
			c-4.32-0.76-8.67-1.42-13.02-1.94c-3.72-0.45-7.46-0.76-11.2-0.95c-3-0.15-6.01-0.06-9.02-0.02c-2.54,0.03-5.09,0.1-7.63,0.24
			c-4.86,0.28-9.71,0.59-14.56,0.97c-1.79,0.14-3.58,0.47-5.35,0.79c-2.19,0.4-4.34,0.98-6.54,1.33c-4.89,0.76-9.56,2.33-14.08,4.24
			c-4.17,1.77-8.16,3.98-12.19,6.07c-4.41,2.29-8.81,4.6-13.15,7.02c-2.62,1.47-5.19,3.07-7.65,4.8c-3.33,2.33-6.64,4.72-9.35,7.8
			c-1.09,1.25-2.2,2.48-3.27,3.75c-2.01,2.4-4.14,4.72-5.96,7.25c-2.63,3.65-5.19,7.36-7.48,11.22c-2.21,3.72-4.14,7.63-6.01,11.54
			c-0.94,1.95-1.54,4.07-2.18,6.15c-1.32,4.28-1.39,8.7-1.42,13.12c0,0.42,0.13,0.84,0.25,1.25c0.13,0.49,0.42,0.97,0.44,1.46
			c0.19,3.6,0.14,7.23,0.55,10.81c0.35,3.05,1,6.1,1.9,9.03c0.98,3.19,1.91,6.42,3.73,9.31c1.24,1.98,2.12,4.18,3.18,6.28
			c0.5,0.98,0.97,1.98,1.56,2.9c1.62,2.54,3.21,5.1,4.97,7.54c2.03,2.84,4.06,5.71,6.39,8.3c2.24,2.49,4.8,4.69,7.33,6.89
			c1.65,1.43,3.4,2.82,5.29,3.89c5.23,2.97,10.49,5.92,15.89,8.57c3.24,1.59,6.75,2.65,10.16,3.9c1.3,0.47,2.45,0.94,3.32,2.2
			c1.07,1.55,2.38,2.98,3.76,4.27c2.76,2.58,5.57,5.11,8.47,7.52c2.96,2.46,5.89,5.01,9.12,7.07c4.12,2.63,8.48,4.89,12.81,7.16
			c3.22,1.69,6.53,3.21,9.86,4.67c4.58,2,9.17,3.97,13.85,5.73c2.8,1.05,5.73,1.75,8.65,2.42c2.66,0.61,5.37,1.1,8.09,1.41
			c2.75,0.32,5.53,0.47,8.3,0.49c4.58,0.02,9.16-0.13,13.75-0.22c0.22,0,0.44-0.13,0.66-0.2c1.48-0.44,1.75-1.84,2.23-3
			c0.94-2.22,1.8-4.48,2.62-6.75c1.48-4.11,3.1-8.18,4.3-12.37c0.77-2.69,0.92-5.56,1.25-8.36c0.45-3.79,0.79-7.6,1.25-11.39
			c0.05-0.44,0.53-0.96,0.94-1.2c0.56-0.33,1.25-0.43,1.88-0.62c3.31-1.02,6.63-2,9.93-3.07c1.48-0.48,2.91-1.13,4.36-1.68
			c2.15-0.81,4.32-1.56,6.45-2.41c1.95-0.78,3.89-1.61,5.79-2.51c1.76-0.84,3.52-1.72,5.17-2.75c2.09-1.3,4.21-2.61,6.06-4.22
			c2.2-1.91,4.27-4.02,6.12-6.27c1.84-2.23,3.48-4.64,4.94-7.14c1.35-2.31,2.49-4.78,3.44-7.28c1.01-2.65,1.55-5.47,2.53-8.13
			c0.82-2.23,1.97-4.33,3-6.48c0.38-0.8,0.85-1.56,1.31-2.4c0.66,0.44,1.2,0.75,1.69,1.13c2.68,2.11,5.51,4.08,7.99,6.41
			c4.32,4.07,5.97,9.56,7.21,15.13c0.77,3.47,1.21,7.02,1.72,10.55c0.45,3.11,0.96,6.22,1.15,9.35c0.16,2.65-0.12,5.32-0.18,7.99
			c-0.03,1.08-0.17,2.19,0.05,3.23c0.15,0.71,0.68,1.57,1.29,1.9c1.96,1.05,4.14,0.95,6.02-0.05c2.2-1.16,4.19-2.73,6.31-4.15
			c1.89,1.02,3.92,2.25,6.08,3.23c3.05,1.39,6.25,2.31,9.65,2.26c3.14-0.05,6.3-0.03,9.42-0.28c2.25-0.18,4.51-0.62,6.69-1.2
			c2.9-0.77,5.33-2.53,7.87-4.06c2.63-1.58,2.73-4.35,0.3-6.26c-1.78-1.4-3.26-3.09-4.15-5.33c-0.81-2.04-1.34-4.1-1.51-6.23
			c-0.1-1.32-0.53-2.78,0.54-4c1.35-1.54,2.74-3.06,3.96-4.7c2.23-2.97,2.83-6.47,2.28-9.99c-0.64-4.08-2.55-7.76-4.49-11.39
			c-0.98-1.83-1.3-3.86-0.31-5.73c0.93-1.75,2.24-3.3,3.41-4.92c1.22-1.7,2.64-3.19,3.02-5.47c0.75-4.57-0.29-8.48-3.42-11.88
			c-1.75-1.91-3.56-3.83-3.37-6.73c0.05-0.75-0.14-1.62,0.17-2.23c0.73-1.44,1.51-2.78,1.61-4.47c0.19-3.35,0.63-6.73-1.05-9.85
			c-0.99-1.84-1.08-3.51,0.36-5.13c0.29-0.32,0.56-0.66,0.84-0.99c1.22-1.4,2.49-2.76,3.63-4.22c0.59-0.76,1.28-1.67,1.34-2.55
			c0.18-2.69-0.66-5.03-2.87-6.85c-1.72-1.41-3.61-2.51-5.72-2.83c-2.85-0.42-5.76-0.38-8.65-0.55c-4.11-0.23-7.66,1.48-11.08,3.38
			c-3.11,1.73-6.04,3.77-8.95,5.61c0.09-0.21,0.28-0.59,0.44-0.98c0.72-1.69-0.23-3.83-1.95-4.12c-1-0.17-2.1-0.15-3.09,0.06
			c-3.18,0.69-5.71,2.65-8.06,4.73c-3,2.66-5.31,5.93-7.13,9.48c-2.64,5.15-5.63,10.15-6.92,15.9c-0.53,2.36-1.16,4.69-1.68,7.05
			C388.81,367.63,388.43,369.82,387.94,372.35z"/>
		<path d="M387.94,372.35c0.49-2.53,0.86-4.73,1.34-6.9c0.51-2.36,1.15-4.69,1.68-7.05c1.29-5.74,4.28-10.75,6.92-15.9
			c1.82-3.55,4.13-6.82,7.13-9.48c2.35-2.08,4.87-4.04,8.06-4.73c0.99-0.21,2.09-0.23,3.09-0.06c1.72,0.29,2.67,2.43,1.95,4.12
			c-0.17,0.39-0.35,0.77-0.44,0.98c2.91-1.84,5.84-3.88,8.95-5.61c3.42-1.9,6.98-3.62,11.08-3.38c2.89,0.16,5.8,0.12,8.65,0.55
			c2.11,0.31,4.01,1.41,5.72,2.83c2.21,1.82,3.05,4.16,2.87,6.85c-0.06,0.88-0.75,1.8-1.34,2.55c-1.14,1.46-2.41,2.82-3.63,4.22
			c-0.28,0.33-0.55,0.67-0.84,0.99c-1.45,1.62-1.35,3.29-0.36,5.13c1.68,3.12,1.23,6.5,1.05,9.85c-0.09,1.69-0.87,3.04-1.61,4.47
			c-0.31,0.61-0.12,1.48-0.17,2.23c-0.19,2.9,1.62,4.82,3.37,6.73c3.13,3.4,4.17,7.31,3.42,11.88c-0.37,2.28-1.79,3.77-3.02,5.47
			c-1.17,1.62-2.47,3.17-3.41,4.92c-1,1.86-0.67,3.9,0.31,5.73c1.94,3.63,3.85,7.32,4.49,11.39c0.56,3.52-0.05,7.02-2.28,9.99
			c-1.23,1.64-2.61,3.16-3.96,4.7c-1.07,1.22-0.65,2.69-0.54,4c0.17,2.13,0.7,4.2,1.51,6.23c0.89,2.24,2.36,3.93,4.15,5.33
			c2.43,1.91,2.33,4.68-0.3,6.26c-2.54,1.53-4.98,3.29-7.87,4.06c-2.19,0.58-4.44,1.02-6.69,1.2c-3.13,0.25-6.28,0.23-9.42,0.28
			c-3.4,0.05-6.6-0.87-9.65-2.26c-2.15-0.98-4.19-2.22-6.08-3.23c-2.12,1.42-4.11,2.99-6.31,4.15c-1.88,0.99-4.06,1.1-6.02,0.05
			c-0.61-0.33-1.14-1.19-1.29-1.9c-0.22-1.03-0.08-2.15-0.05-3.23c0.07-2.66,0.34-5.34,0.18-7.99c-0.19-3.13-0.69-6.24-1.15-9.35
			c-0.51-3.53-0.95-7.08-1.72-10.55c-1.24-5.57-2.89-11.06-7.21-15.13c-2.48-2.33-5.31-4.3-7.99-6.41
			c-0.48-0.38-1.03-0.69-1.69-1.13c-0.47,0.85-0.93,1.61-1.31,2.4c-1.03,2.15-2.18,4.25-3,6.48c-0.98,2.66-1.53,5.48-2.53,8.13
			c-0.95,2.5-2.09,4.97-3.44,7.28c-1.46,2.49-3.1,4.91-4.94,7.14c-1.85,2.25-3.92,4.36-6.12,6.27c-1.85,1.61-3.97,2.92-6.06,4.22
			c-1.65,1.03-3.41,1.91-5.17,2.75c-1.9,0.91-3.83,1.73-5.79,2.51c-2.13,0.85-4.31,1.6-6.45,2.41c-1.46,0.55-2.88,1.2-4.36,1.68
			c-3.3,1.07-6.62,2.05-9.93,3.07c-0.63,0.19-1.33,0.3-1.88,0.62c-0.42,0.25-0.89,0.76-0.94,1.2c-0.46,3.79-0.8,7.59-1.25,11.39
			c-0.33,2.8-0.49,5.67-1.25,8.36c-1.19,4.19-2.82,8.26-4.3,12.37c-0.82,2.27-1.68,4.53-2.62,6.75c-0.49,1.15-0.75,2.55-2.23,3
			c-0.22,0.07-0.44,0.19-0.66,0.2c-4.58,0.09-9.16,0.24-13.75,0.22c-2.77-0.01-5.55-0.17-8.3-0.49c-2.71-0.31-5.42-0.8-8.09-1.41
			c-2.92-0.67-5.86-1.37-8.65-2.42c-4.68-1.75-9.27-3.73-13.85-5.73c-3.33-1.45-6.64-2.98-9.86-4.67
			c-4.33-2.27-8.69-4.53-12.81-7.16c-3.23-2.06-6.16-4.61-9.12-7.07c-2.9-2.41-5.72-4.94-8.47-7.52c-1.38-1.29-2.69-2.72-3.76-4.27
			c-0.86-1.25-2.02-1.72-3.32-2.2c-3.41-1.24-6.92-2.3-10.16-3.9c-5.4-2.65-10.66-5.6-15.89-8.57c-1.89-1.07-3.64-2.46-5.29-3.89
			c-2.53-2.2-5.09-4.41-7.33-6.89c-2.33-2.59-4.36-5.46-6.39-8.3c-1.75-2.45-3.35-5-4.97-7.54c-0.59-0.92-1.06-1.92-1.56-2.9
			c-1.06-2.1-1.94-4.3-3.18-6.28c-1.81-2.9-2.74-6.13-3.73-9.31c-0.9-2.93-1.55-5.98-1.9-9.03c-0.41-3.58-0.36-7.21-0.55-10.81
			c-0.03-0.49-0.31-0.97-0.44-1.46c-0.11-0.41-0.25-0.84-0.25-1.25c0.04-4.42,0.1-8.85,1.42-13.12c0.64-2.08,1.25-4.2,2.18-6.15
			c1.87-3.91,3.8-7.82,6.01-11.54c2.29-3.86,4.85-7.57,7.48-11.22c1.83-2.53,3.95-4.86,5.96-7.25c1.07-1.27,2.17-2.51,3.27-3.75
			c2.71-3.09,6.02-5.47,9.35-7.8c2.46-1.73,5.03-3.33,7.65-4.8c4.33-2.42,8.74-4.73,13.15-7.02c4.03-2.09,8.02-4.3,12.19-6.07
			c4.51-1.91,9.18-3.48,14.08-4.24c2.19-0.34,4.35-0.92,6.54-1.33c1.77-0.33,3.56-0.65,5.35-0.79c4.85-0.38,9.7-0.69,14.56-0.97
			c2.54-0.15,5.09-0.21,7.63-0.24c3.01-0.04,6.02-0.13,9.02,0.02c3.74,0.19,7.48,0.5,11.2,0.95c4.36,0.53,8.7,1.19,13.02,1.94
			c2.1,0.37,4.16,1.03,6.21,1.65c2.61,0.79,5.24,1.56,7.79,2.53c4.92,1.88,9.86,3.73,14.65,5.91c3.79,1.73,7.44,3.81,11.01,5.98
			c3.56,2.16,7.07,4.44,10.35,6.99c2.39,1.86,4.39,4.23,6.56,6.38c1.06,1.05,2.12,2.11,3.17,3.18c3.93,3.96,7.1,8.47,9.81,13.34
			c1.54,2.77,3.36,5.38,5.1,8.02c3.41,5.17,6.67,10.43,9.28,16.06c0.86,1.86,1.91,3.65,2.16,5.8c0.11,0.97,0.81,1.96,1.46,2.76
			c1.36,1.67,2.77,3.31,4.33,4.79C385.64,371.33,386.78,371.71,387.94,372.35z M275.73,290.03c-2.8-0.17-5.25-0.47-7.69-0.44
			c-6.77,0.08-13.53,0.26-20.3,0.47c-2.37,0.07-4.75,0.19-7.1,0.5c-3.37,0.45-6.74,0.98-10.07,1.68c-3.74,0.79-7.42,1.8-11.13,2.72
			c-4.42,1.09-8.43,3.23-12.48,5.19c-3.91,1.9-7.73,3.97-11.51,6.11c-4.46,2.52-8.89,5.11-13.24,7.81c-2.12,1.32-4.22,2.79-6,4.53
			c-2.87,2.79-5.63,5.72-8.13,8.84c-3.25,4.07-6.31,8.3-9.23,12.61c-1.88,2.77-3.44,5.77-4.98,8.74c-1.83,3.53-3.83,7.03-4.48,11.05
			c-0.47,2.94-0.96,5.9-1.15,8.86c-0.16,2.45,0.02,4.93,0.21,7.38c0.21,2.74,0.57,5.47,0.93,8.19c0.15,1.16,0.39,2.32,0.74,3.43
			c1.27,4.13,2.38,8.33,3.98,12.34c1.15,2.88,2.99,5.48,4.48,8.12c0.66-0.04,1.24-0.1,1.82-0.11c1.96-0.03,3.97,0.25,5.86-0.12
			c2.97-0.58,5.89-1.43,8.47-3.2c2.38-1.64,4.57-3.29,5.72-6.16c1.01-2.52-0.28-3.95-2.49-4.48c-0.69-0.17-0.86-0.08-1.03,0.59
			c-0.2,0.79-0.74,1.28-1.68,1.15c-0.55-0.07-1.13,0.04-1.67-0.03c-0.36-0.05-0.84-0.2-1-0.47c-0.65-1.07-0.94-2.26-0.43-3.48
			c0.67-1.59,1.66-2.95,3.49-3.2c2.62-0.36,5.13,0.15,7.33,1.67c2,1.39,3.31,3.24,3.36,5.79c0.07,3.87-1.37,7.2-4.09,9.82
			c-1.76,1.7-3.85,3.12-5.99,4.33c-3.15,1.78-6.55,2.99-10.24,3.06c-1.25,0.02-2.5,0-3.79,0c0.07,0.27,0.06,0.41,0.13,0.49
			c2.56,3.25,5.07,6.55,7.73,9.73c1.35,1.62,2.91,3.07,4.47,4.5c2.96,2.71,6.16,5.1,9.64,7.12c2.3,1.33,4.5,2.85,6.88,4
			c3.54,1.71,7.19,3.22,10.83,4.71c1.98,0.81,4.03,1.5,6.09,2.07c1.99,0.55,3.97,0.88,5.54,2.54c1.44,1.53,3.19,2.81,4.94,4.01
			c2.24,1.54,4.85,2.18,7.55,2.29c0.76,0.03,1.81-0.14,2.27-0.64c1.38-1.48,1.87-3.19,0.96-5.27c-0.79-1.81-0.09-4.26,2.65-4.15
			c1.1,0.04,2.21-0.07,3.3-0.23c2.25-0.32,3.13-2.11,1.97-4c-0.22-0.36-0.74-0.6-1.17-0.77c-0.62-0.25-1.29-0.39-1.94-0.58
			c-0.66,0.49-1.39,0.93-2.15,1c-1.27,0.13-2.57,0.16-3.83,0c-1.01-0.13-2.07-0.46-2.94-0.97c-2.44-1.44-4.18-3.67-5.12-6.24
			c-0.59-1.62-1.41-1.75-2.71-1.63c-0.2,0.02-0.41,0.05-0.6,0c-1.56-0.42-3.31-0.57-4.62-1.39c-0.89-0.56-1.64-0.74-2.56-0.76
			c-0.16,0-0.33,0-0.47-0.04c-3.62-1.11-6.75-3.03-9.39-5.72c-1.91-1.94-3.29-4.26-4.33-6.76c-0.6-1.45-0.81-3.13,0.25-4.41
			c1.03-1.23,2.38-2.24,3.7-3.18c0.89-0.63,2.52-0.3,3.2,0.4c0.69,0.71,0.97,2.29,0.36,3.21c-0.59,0.88-1.43,1.59-2.22,2.45
			c0.47,0.76,0.91,1.75,1.59,2.52c1.08,1.22,2.31,2.3,3.49,3.43c2.09,1.99,4.43,3.49,7.47,3.3c0.92-0.06,1.56,0.27,2.16,0.88
			c0.99,0.99,2.93,1.17,3.8,0.22c0.73-0.79,1.33-1.74,1.8-2.7c0.99-2.02,1.55-4.1,1.19-6.45c-0.37-2.4,0.84-3.58,3.28-3.95
			c2.27-0.34,4.46-1.02,6.16-2.66c1.11-1.08,2.11-2.29,3.06-3.52c2.36-3.06,4.18-6.32,4.04-10.4c-0.08-2.23-1.07-3.75-2.89-4.87
			c-0.31-0.19-0.62-0.47-0.8-0.79c-0.99-1.74-0.37-3.43,1.39-4.44c1.47-0.85,3.03-1.68,3.59-3.51c0.8-2.6,0.44-5.1-0.96-7.35
			c-0.61-0.99-1.58-1.98-2.62-2.42c-2.19-0.92-3.06-2.72-1.95-4.85c0.72-1.38,1.62-2.7,2.16-4.15c0.61-1.63,1.2-3.37,1.25-5.07
			c0.06-1.95-0.94-3.74-2.62-4.85c-1.84-1.21-2.44-2.86-2.07-4.89c0.21-1.14,0.75-2.22,1.01-3.35c0.14-0.62,0.25-1.45-0.05-1.93
			c-0.83-1.37-1.78-2.69-2.87-3.86c-1.19-1.28-1.1-2.73-0.9-4.23c0.05-0.36,0.45-0.75,0.79-0.98c1.05-0.7,3.32-0.25,4.04,0.76
			c0.17,0.25,0.26,0.56,0.43,0.81c1.24,1.82,2.88,3.48,3.65,5.48c0.84,2.19,0.59,4.66-0.18,6.98c-0.1,0.31,0.06,0.8,0.27,1.09
			c0.16,0.22,0.65,0.42,0.88,0.33c1.23-0.47,2.48-0.96,3.63-1.6c0.81-0.45,1.38-1.35,2.21-1.71c1.2-0.52,1.94-1.34,2.61-2.39
			c1.2-1.89,0.98-4.25-0.46-5.9c-1.12-1.27-2.49-1.52-4.05-1.5c-1.82,0.03-2.53-0.51-2.86-2.27c-0.18-0.96-0.23-1.96-0.25-2.94
			c-0.05-2.63-3.1-5.08-5.66-4.58c-1.19,0.23-2.41,0.28-3.62,0.44c-1.15,0.15-2.06-0.28-2.45-1.32c-0.5-1.36,0.14-3.06,1.36-3.53
			c1.19-0.45,2.51-0.93,3.73-0.84c1.72,0.13,2.46-0.79,3-2.03c0.98-2.28,2.7-3.97,4.56-5.4c1.64-1.27,3.69-1.99,5.54-2.98
			c0.23-0.12,0.5-0.47,0.48-0.69c-0.19-1.61,0.52-2.73,1.55-3.91c0.97-1.12,1.95-2.51,2.21-3.91c0.49-2.65-1.73-4.97-4.44-4.87
			c-2.91,0.11-5.86,0.24-8.72,0.74c-3.09,0.54-6.16,1.37-9.14,2.35c-2.22,0.73-4.34,1.8-6.41,2.91c-1.65,0.89-3.35,1.83-4.39,3.8
			c0.81,0,1.47,0,2.13,0c2.87,0,3.33,0.48,3.24,3.28c-0.03,0.78-0.36,1.24-1.15,1.27c-2.14,0.09-4.28,0.21-6.42,0.21
			c-0.48,0-1.2-0.33-1.38-0.72c-0.64-1.33-1.33-2.71-1.55-4.14c-0.39-2.56,1.03-4.54,2.9-6c1.74-1.36,3.71-2.5,5.71-3.46
			c2.34-1.12,4.79-2.06,7.27-2.84c2.82-0.89,5.69-1.78,8.6-2.17c3.45-0.46,6.96-0.43,10.45-0.52c0.83-0.02,1.76,0.13,2.5,0.51
			c1.73,0.88,3.36,1.95,4.99,2.91c2.18-0.56,4.52-1.32,6.93-1.73c2.6-0.43,5.26-0.47,7.88-0.78
			C272.81,293.13,274.15,291.66,275.73,290.03z M410.5,336.28c-0.1-0.05-0.2-0.09-0.3-0.14c-0.77,0.7-1.57,1.37-2.32,2.1
			c-2.07,2.02-3.7,4.37-5.04,6.93c-1.55,2.98-3.4,5.85-4.61,8.96c-1.43,3.69-2.43,7.56-3.4,11.41c-0.74,2.91-1.12,5.91-1.75,8.85
			c-0.15,0.68-0.5,1.54-1.04,1.89c-2.35,1.52-4.95,1.55-7.46,0.49c-1.78-0.76-3.41-1.87-5.17-2.86c-1.88,2.89-4.66,4.88-7.99,6.41
			c3.01,1.27,4.75,3.7,6.72,5.82c0.67,0.72,0.87,1.88,1.3,2.82c0.08,0.18,0.26,0.35,0.43,0.47c2.86,1.92,5.83,3.68,8.54,5.78
			c2.19,1.7,4.26,3.63,6.01,5.77c4.1,5.01,5.71,11.13,7.03,17.3c0.59,2.75,0.72,5.6,1.27,8.37c0.86,4.4,1.17,8.84,1.17,13.31
			c0,1.78,0,3.56,0,5.35c0.1,0.08,0.2,0.16,0.3,0.24c1.11-0.94,2.28-1.82,3.32-2.84c1.41-1.38,4.63-2.16,6.37-1.32
			c1.41,0.68,2.78,1.45,4.12,2.26c3.39,2.05,7.08,3.1,11.02,3.26c3.13,0.13,6.23-0.2,9.33-0.66c2.72-0.4,5.23-1.26,7.64-2.5
			c0.28-0.14,0.56-0.3,0.84-0.45c-0.32-0.37-0.38-0.48-0.46-0.55c-2.61-2.38-3.93-5.55-4.7-8.8c-0.64-2.69-0.38-5.59-0.61-8.39
			c-0.15-1.82,0.66-3.18,1.75-4.48c1.27-1.51,2.68-2.92,3.77-4.55c1.19-1.78,1.6-3.75,1.06-5.99c-0.84-3.48-2.63-6.51-4.04-9.73
			c-1.51-3.45-1.79-7.05,0.02-10.47c1.09-2.06,2.53-3.95,3.89-5.85c1-1.4,2.15-2.66,2.22-4.54c0.09-2.26-1.22-3.82-2.48-5.42
			c-1.08-1.36-2.23-2.65-3.25-4.05c-1.18-1.62-1.09-3.65-1.45-5.51c-0.44-2.23-0.44-4.43,1.06-6.4c0.91-1.2,0.92-2.71,1.07-4.16
			c0.25-2.44-0.98-4.48-1.71-6.65c-0.7-2.09-0.96-4.27,0.22-6.17c1.52-2.46,3.3-4.77,5.1-7.03c1.14-1.43,1.33-1.54-0.04-2.62
			c-0.99-0.78-2.19-1.57-3.38-1.76c-2.45-0.4-4.97-0.62-7.44-0.49c-1.74,0.09-3.49,0.76-5.15,1.39c-1.42,0.54-2.79,1.29-4.05,2.14
			c-2.53,1.7-5.21,3.28-7.39,5.38c-2.24,2.16-3.98,4.85-5.9,7.34c-0.74,0.96-2.29,1.52-3.5,1.14c-1.17-0.37-1.82-1.3-1.78-2.71
			C409.73,341.65,409.28,338.9,410.5,336.28z M311.7,448.95c-2.29-1.87-4.44-3.63-6.44-5.27c-1.28,0.19-2.6,0.47-3.94,0.57
			c-1.35,0.1-2.72-0.03-4.07,0.06c-0.41,0.03-0.97,0.36-1.15,0.71c-0.73,1.45-1.46,2.84-2.86,3.79c-1.32,0.89-2.62,1.78-4.29,1.69
			c-2.21-0.11-4.42-0.23-6.62-0.48c-3.84-0.44-6.5-2.81-8.92-5.56c-0.29,0.22-0.64,0.54-1.04,0.78c-2.05,1.24-4.26,1.89-6.67,1.94
			c-0.39,0.01-1.11,0.39-1.12,0.63c-0.18,3.13-1.99,5.32-4.22,7.17c-1.45,1.21-3.01,2.46-5.02,2.62c-1.17,0.1-2.36-0.02-3.53-0.14
			c-2.57-0.26-5.13-0.59-7.35-2.11c-0.22-0.15-0.51-0.19-0.76-0.28c-2.33-0.79-4.35-2.1-5.93-3.95c-0.74-0.86-1.36-1.32-2.46-0.98
			c-0.11,3.27-1.19,5.92-3.87,7.98c-2.74,2.11-5.75,1.45-8.89,1.33c0.45,0.38,0.79,0.69,1.15,0.97c3.03,2.37,5.96,4.9,9.13,7.06
			c2.6,1.77,5.47,3.17,8.27,4.62c3.81,1.98,7.62,3.98,11.53,5.74c4.94,2.23,9.94,4.37,15,6.31c2.75,1.05,5.7,1.58,8.53,2.41
			c4,1.18,8.13,1.38,12.25,1.6c1.04,0.06,2.08,0.02,3.12,0.02c3.49,0,6.97,0,10.46-0.04c0.21,0,0.53-0.33,0.62-0.57
			c0.47-1.28,0.86-2.58,1.33-3.86c1.32-3.54,2.69-7.07,3.99-10.62c0.95-2.61,1.85-5.23,1.95-8.05c0.04-1.02,0.15-2.05,0.26-3.07
			c0.3-2.7,0.61-5.39,0.93-8.08C311.28,452.19,311.51,450.48,311.7,448.95z M270.15,356.22c-0.67-1.51-0.5-3.92,0.46-4.97
			c0.62-0.68,1.26-1.35,1.97-1.92c2.55-2.03,3.89-4.82,4.35-7.87c0.38-2.55,0.19-5.2,0.05-7.8c-0.2-3.71-2.09-6.75-4.25-9.62
			c-1.13-1.51-2.43-2.9-3.59-4.39c-2.06-2.65-4.85-4-8.09-4.13c-2.13-0.09-4.29,0.49-6.44,0.62c-0.87,0.06-1.81-0.53-2.64-0.37
			c-4.13,0.76-7.9,2.18-9.8,6.39c-0.12,0.26,0.02,0.78,0.23,1.02c0.7,0.82,1.57,1.49,2.2,2.34c1.24,1.68,2.01,3.55,1.7,5.68
			c3.65,0.64,5.5,1.46,6.89,4.71c0.38,0.9,0.86,1.76,1.19,2.68c0.21,0.58,0.37,1.25,0.29,1.84c-0.3,2.23-0.7,4.44-1.1,6.85
			c2.93,1.9,5.93,4.11,6.01,8.35C263.15,355.83,266.65,356.03,270.15,356.22z M303.03,384.43c0.38-0.13,0.75-0.23,1.1-0.38
			c1.34-0.55,2.46-1.31,3.08-2.73c0.84-1.93,1.06-3.83,0.81-5.95c-0.22-1.88-1.37-3.57-3.26-3.91c-2.84-0.51-2.69-2.39-2.49-4.33
			c0.26-2.56,0.39-5.12-0.28-7.65c-0.77-2.9-2.37-5.2-4.7-7.12c-2.85-2.34-6.14-3.59-9.66-4.24c-2.08-0.38-4.24-0.38-6.36-0.5
			c-0.24-0.01-0.63,0.19-0.71,0.39c-1.05,2.69-3.13,4.56-4.75,6.17c0,1.68-0.01,3.01,0.01,4.34c0,0.25,0.1,0.55,0.26,0.73
			c1.84,2,3.46,4.08,4.61,6.62c1.59,3.5,1.24,6.85,0.14,10.28c-0.36,1.12-0.93,2.17-1.48,3.41
			C289.54,373.91,297.21,378.11,303.03,384.43z M271.53,409.81c1.96,0.58,3.84,0.85,5.43,1.67c2.28,1.17,4.49,2.58,6.47,4.21
			c0.94,0.78,1.49,1.49,2.86,1.06c3.15-0.99,6.03-2.4,8.42-4.7c1.49-1.43,2.48-3.11,2.7-5.23c0.18-1.66,0.54-3.24,0.03-4.97
			c-0.6-2.04,0.47-3.69,1.84-5.21c1.61-1.78,2.14-4.74,0.49-7.07c-1.55-2.18-3.49-3.85-5.56-5.35c-2.03-1.47-4.47-2.23-7.04-1.8
			c-1.21,0.2-2.37,0.75-3.53,1.22c-0.21,0.08-0.38,0.5-0.39,0.77c-0.05,1.04-0.01,2.09-0.02,3.14c-0.04,3.16-1.04,5.91-3.48,8.05
			c-1.28,1.13-2.48,2.35-3.75,3.49c-1.71,1.53-3.75,2.35-5.98,2.75c-0.37,0.07-0.95,0.25-1.01,0.48c-0.14,0.54-0.24,1.33,0.05,1.69
			C270.52,405.8,271.47,407.75,271.53,409.81z M253.86,435.09c0.62,0.45,1.24,0.85,1.81,1.32c1.49,1.25,2.91,2.58,4.44,3.78
			c2.78,2.19,5.81,2.55,9.01,0.96c0.41-0.2,0.99-0.48,1.09-0.83c0.49-1.67,1.84-1.98,3.24-2.25c0.5-0.1,1.02-0.08,1.5-0.23
			c4.14-1.21,6.92-3.7,7.56-8.16c0.45-3.14,0.57-6.04-1.93-8.7c-2.93-3.12-6.11-5.35-10.5-5.49c-3.12-0.1-3.81-0.88-3.88-3.99
			c-0.02-0.98-0.36-1.95-0.58-3.09c-0.45,0.38-0.65,0.67-0.93,0.77c-1.2,0.46-1.39,1.34-1.37,2.52c0.03,1.94-0.03,3.89-0.22,5.82
			c-0.37,3.63-3.41,7.2-7.16,7.21C255.88,428.35,255.96,432.03,253.86,435.09z M268.69,397.08c1.88-1.23,3.78-2.29,5.47-3.62
			c1.5-1.18,2.85-2.54,3.71-4.34c0.84-1.76,0.38-4.28-1.54-5.07c-0.95-0.39-2.05-0.87-2.61-1.65c-0.98-1.37-0.72-2.91,0.12-4.43
			c1.92-3.47,3.81-6.99,1.25-10.99c-1.56-2.44-3.39-4.62-6.39-5.18c-2.27-0.42-4.6-0.58-6.91-0.72c-0.74-0.05-1.55,0.24-2.24,0.55
			c-1.05,0.47-1.47,2.48-0.96,3.46c0.54,1.03,1.15,2.1,1.33,3.22c0.3,1.82,0.29,3.7,0.4,5.5c1.63,0.86,3.23,1.94,3.43,3.88
			c0.39,3.89,0.02,7.71-2.34,11.13C264.69,390.71,267.03,393.37,268.69,397.08z M305.98,389.39c0.02,0.39-0.01,0.79,0.08,1.16
			c0.85,3.62-0.37,6.75-2.37,9.63c-1.05,1.52-0.31,3.11-0.47,4.66c-0.01,0.09,0.21,0.22,0.34,0.31c1.74,1.22,2.7,3.11,3.04,5
			c0.29,1.62,1.03,1.51,2.13,1.52c1.39,0.01,2.82,0.12,3.86-1.01c0.98-1.07,1.79-2.28,2.75-3.36c1.68-1.9,2.36-4.3,3.12-6.6
			c0.63-1.91,0.72-3.99,1.01-6c0.15-1.07,1.05-2.24,2.09-2.18c2.3,0.14,3.73-1.07,5.04-2.71c1.09-1.37,1.11-2.88-0.3-3.77
			c-1.44-0.92-2.99-1.7-4.57-2.36c-1.84-0.77-3.74-1.35-5.82-0.82c-1.07,0.27-2.09-0.11-2.82-1.02
			C310.2,387.61,310.58,387.09,305.98,389.39z M227.64,417.66c0.03-0.07-0.02,0-0.03,0.08c-0.02,0.16-0.02,0.32-0.02,0.48
			c0.02,3.49-1.06,6.64-3.12,9.42c-0.64,0.86-0.62,1.57-0.03,2.38c0.27,0.38,0.48,0.81,0.73,1.2c0.93,1.46,2.01,2.79,3.55,3.67
			c0.5,0.29,1.02,0.57,1.53-0.17c0.33-0.49,0.92-1.14,1.4-1.14c1.48-0.01,3.09-0.06,4.4,0.49c2.21,0.92,4.49,1.26,6.77,1.29
			c2.86,0.03,5.05-1.61,6.84-3.75c0.35-0.42,0.87-0.89,0.89-1.35c0.06-1.74,0.21-3.54-0.15-5.21c-0.63-2.86-2.64-4.81-5.08-6.33
			c-0.51-0.32-0.99-0.93-1.5-0.95c-2.36-0.12-4.74,0.05-7.09-0.14c-1.61-0.13-3.19-0.68-4.79-1.02c-0.29-0.06-0.63-0.14-0.9-0.06
			C229.92,416.86,228.83,417.26,227.64,417.66z M300.43,328.47c0.53-0.64,0.95-1.21,1.42-1.74c1.68-1.91,1.43-3.25-0.75-4.56
			c-0.81-0.49-1.65-1.08-2.18-1.83c-0.99-1.39-0.7-3.07-0.42-4.6c0.42-2.32-1.32-5.77-3.62-6.44c-1.64-0.48-3.36-0.97-5.05-0.99
			c-5.7-0.08-11.46-0.43-16.84,2.09c-1.18,0.55-2.33,1.16-3.78,1.89c4.66,2.98,7.12,7.35,10.09,11.27
			C287.04,322,294.27,322.64,300.43,328.47z M305.55,427.81c0.5,0.15,0.94,0.21,1.31,0.4c1.77,0.92,3.45,2.02,5.28,2.77
			c1.86,0.77,3.83,1.49,5.81,1.71c3.4,0.39,6.74-0.11,9.9-1.61c1.68-0.8,2.91-2.12,3.67-3.68c0.46-0.93,0.48-2.43,0.05-3.37
			c-1.1-2.43-3.11-4.26-5.18-5.86c-2.47-1.91-5.15-3.55-7.78-5.23c-0.31-0.2-1.07-0.06-1.4,0.2c-0.65,0.52-1.07,1.34-1.73,1.85
			c-0.77,0.59-1.64,1.25-2.56,1.41c-1.67,0.3-3.41,0.25-5.22,0.36C307.87,420.46,307.24,424.22,305.55,427.81z M245.59,381.77
			c2.24,0.36,3.12,0.35,4.83-0.78c1.58-1.04,3.19-2.19,3.62-4.25c0.26-1.25,0.43-2.53,0.71-3.78c0.5-2.21,0.02-4.11-1.62-5.7
			c-0.75-0.72-1.3-1.61-1.03-2.63c0.35-1.35,0.95-2.62,1.43-3.94c1.05-2.92,1.23-5.55-0.93-7.15c-0.72-0.54-1.42-1.13-2.19-1.58
			c-0.58-0.34-1.19-0.48-1.93-0.07c-1.63,0.9-3.33,1.67-5.05,2.4c-0.55,0.23-0.66,0.32-0.54,0.97c0.55,3.02,0.5,6.03-0.65,8.95
			c-0.53,1.33-1.06,2.66-1.59,3.98C244.71,371.85,246.41,376.37,245.59,381.77z M282.59,342.44c2.15,0.13,4.18,0.13,6.18,0.39
			c4.66,0.59,8.7,2.69,12.48,5.37c0.26,0.18,0.7,0.24,1.02,0.18c0.57-0.11,1.1-0.41,1.67-0.53c1.18-0.26,1.42-1.1,1.37-2.12
			c-0.06-1.26-0.13-2.53-0.24-3.79c-0.24-2.92-1.51-4.33-4.7-4.89c-0.89-0.16-1.64-0.49-2.01-1.4c-0.28-0.68-0.5-1.43-0.93-2.01
			c-2.17-2.98-5.29-4.49-8.79-5.19c-1.61-0.32-3.31-0.23-4.98-0.27c-0.7-0.02-1.41,0.1-2.2,0.17
			C283.18,333.16,282.24,337.85,282.59,342.44z M320.02,377.33c0.09,0.07,0.17,0.18,0.27,0.22c1.94,0.68,3.93,1.25,5.8,2.08
			c1.13,0.5,2.06,0.77,3.18,0.06c0.57-0.36,1.32-0.45,1.99-0.65c3.18-0.96,6.45-1.83,8.98-4.1c1.84-1.65,2.4-2.56,0.79-4.75
			c-1.37-1.86-3.13-3.16-5.02-4.31c-1.41-0.86-2.9-1.66-4.46-2.2c-1.68-0.57-3.48-0.82-5.24-1.17c-1.18-0.24-2.38-0.4-3.63-0.6
			C324.33,370.78,323.85,372.12,320.02,377.33z M237.01,412.49c0.6,0.13,1.06,0.25,1.52,0.31c0.85,0.11,1.8,0.45,2.55,0.2
			c2.4-0.79,4.33-2.32,5.8-4.42c0.99-1.41,0.96-2.99,0.84-4.56c-0.13-1.78,0.59-3.04,2.07-3.94c2.54-1.53,3.66-3.79,3.46-6.73
			c-0.02-0.24,0.07-0.59-0.06-0.7c-1.35-1.16-1.48-2.57-1.18-4.23c0.18-1,0.53-1.43,1.55-1.51c0.78-0.06,1.7-0.17,2.29-0.61
			c1.7-1.28,2.57-3.12,2.9-5.2c0.08-0.51,0.01-1.04,0.01-1.52c-1.37,1.73-2.56,3.42-3.96,4.92c-1.38,1.47-3.12,2.35-5.26,2.22
			c-1.11-0.07-2.26,0.14-3.35-0.04c-2.03-0.35-3.17,0.9-4.39,2.03c0.26,0.39,0.48,0.71,0.69,1.03c2.12,3.25,1.58,6.91,1.19,10.38
			c-0.33,2.91-1.84,5.54-3.54,7.96C239.14,409.55,238.09,411,237.01,412.49z M320.62,357.09c0.36-0.81,0.46-1.7,0.91-1.95
			c2.08-1.15,3.72-2.73,5.17-4.56c1.94-2.45,1.09-5.48-1.94-6.31c-2.13-0.59-4.36-0.88-6.55-1.2c-1.23-0.18-2.15-0.58-2.62-1.82
			c-0.44-1.16-0.15-2.15,0.51-3.1c0.38-0.55,0.75-1.1,1.14-1.64c0.52-0.71,0.31-1.32-0.37-1.67c-0.61-0.32-1.38-0.73-1.96-0.6
			c-2.02,0.45-3.99,1.12-6,1.71c1.98,3.92,1.88,7.83,1.88,11.68C314.71,350,318.5,352.58,320.62,357.09z M352.33,390.34
			c2.17-0.85,4.17-1.62,6.15-2.41c3.48-1.39,4.71-4.25,3.03-7.42c-0.94-1.77-2.42-3.28-3.81-4.77c-1.16-1.25-2.7-1.93-4.38-2.35
			c-0.95-0.23-1.84-0.72-2.87-1.14c-0.89,0.37-1.99,0.83-3.03,1.27c-0.38,2.99-2.39,4.87-4.44,6.61c1.64,0.58,3.32,1.19,5.01,1.77
			c2.31,0.8,4.36,3.62,4.36,6.05C352.33,388.69,352.33,389.45,352.33,390.34z M257.02,301.06c0.73,3.65-0.95,6.57-3.41,9.47
			c3.79-0.15,7.31-0.3,11.02-0.45c0.6-1.88,2.31-3.02,4.31-3.74c2.12-0.76,4.32-1.31,6.43-2.09c2.78-1.03,5.64-1.34,8.57-1.28
			c0.13,0,0.26-0.07,0.54-0.15c-0.43-0.34-0.74-0.57-1.05-0.81c-1.98-1.59-4.46-1.91-6.8-2.32c-3.11-0.55-6.29-0.78-9.47-0.54
			c-1.14,0.08-2.28,0.18-3.39,0.4C261.58,299.99,259.43,300.52,257.02,301.06z M304.75,332.15c2.21-1.31,5.75-2.54,8.21-2.75
			c2.42-0.2,4.86-0.12,6.87,1.48c0.7,0.56,1.14,0.38,1.64-0.05c1.02-0.88,2.05-1.76,2.96-2.75c0.34-0.37,0.6-1.08,0.51-1.56
			c-0.55-3.1-2.39-5.33-5.16-6.69c-2.67-1.31-5.44-2.45-8.55-1.73c-1.49,0.35-2.97,0.71-4.55,1.08
			C309.36,323.21,308.77,327.11,304.75,332.15z M347.99,366.91c-0.54-0.46-1.02-0.91-1.53-1.3c-1.63-1.26-2.02-3.32-1.12-5.32
			c0.39-0.85,0.65-1.97,0.43-2.84c-0.41-1.6-1.03-3.21-1.89-4.61c-1.51-2.49-3.49-4.57-6.31-5.66c-1.54-0.59-3.08-0.8-4.73-0.1
			c0.3,2.02,0.03,3.92-1.14,5.57c-1.13,1.59-2.34,3.11-3.52,4.67c-0.03-0.01,0.13,0.09,0.31,0.13c1.91,0.39,3.92,0.51,5.71,1.21
			c4.57,1.8,8.65,4.4,11.6,8.47C346.51,368.11,346.74,368.12,347.99,366.91z M340.1,403.2c1.32,1.73,0.93,3.54,0.7,5.32
			c-0.15,1.15-0.1,2.54-0.72,3.38c-1.65,2.2-3.63,4.17-5.51,6.27c0.62,1.02,1.35,2.24,2.22,3.68c2.17-1.22,4.38-2.38,6.49-3.69
			c1.91-1.19,3.82-2.51,4.69-4.7c0.58-1.46,1.89-3,0.05-4.58c-0.32-0.28-0.37-0.92-0.48-1.4c-0.46-2.02,1.11-3.11,2.04-4.52
			c0.53-0.81,0.69-1.85,1.08-2.75c0.53-1.22-0.11-1.88-1.05-2.45c-0.13-0.08-0.2-0.27-0.26-0.35
			C346.37,399.38,344.05,402.28,340.1,403.2z M329.65,394.98c2.32,1.01,4.58,2.02,6.87,2.99c0.46,0.2,1.08,0.44,1.49,0.28
			c3.4-1.3,6.16-3.6,8.72-6.1c1.63-1.59,0.86-4.82-1.17-5.43c-1.53-0.46-3.08-0.83-4.63-1.22c-1.5-0.39-3.23-0.43-4.45-1.24
			c-1.12-0.74-1.87-0.49-2.83-0.18c-0.4,0.13-0.8,0.25-1.16,0.36C333.59,388.6,332.3,392.04,329.65,394.98z M258.54,393.55
			c0,0.51,0,0.67,0,0.83c-0.06,4.01-1.09,7.53-4.8,9.77c-0.36,0.22-0.58,0.8-0.7,1.26c-0.44,1.65-0.62,3.4-1.26,4.96
			c-0.61,1.49-1.69,2.78-2.57,4.18c2.14,1.23,3.91,3.11,5.12,5.61c0.72-0.49,1.38-0.85,1.93-1.33c2.7-2.39,2.52-5.61,2.17-8.71
			c-0.29-2.58-0.14-3.52,2.17-4.73c1.84-0.97,2.8-2.57,3.4-4.44c0.41-1.27,0.16-2.42-0.92-3.37c-1-0.88-1.88-1.9-2.85-2.81
			C259.78,394.35,259.24,394.05,258.54,393.55z M287.93,430.06c0.26,0.11,0.5,0.29,0.75,0.29c1.64,0.03,3.28,0.06,4.92,0.01
			c3.41-0.11,5.53-2.27,6.93-4.99c2.26-4.38,2.25-9.02,0.64-13.74c-3.02,5.29-7.33,8.92-13.25,10.19
			C287.93,424.64,287.93,427.32,287.93,430.06z M243.78,440.22c-0.38,1.79-0.38,3.58-1.16,4.92c-0.88,1.53-0.72,2.43,0.55,3.36
			c1.15,0.85,2.24,1.85,3.51,2.42c1.21,0.55,2.63,0.66,3.97,0.91c2.01,0.37,4.02,0.79,5.78-0.85c1.46-1.36,2.94-2.65,2.82-4.88
			c-3.62-1.82-6.48-4.39-8.66-7.93C248.57,439.86,246.12,440.24,243.78,440.22z M305.71,353.1c0.62,2,1.41,3.82,1.71,5.71
			c0.38,2.36,0.34,4.8,0.56,7.19c0.04,0.41,0.38,0.97,0.73,1.14c2.82,1.29,3.95,3.74,4.69,6.59c1.25-0.1,2.5-0.21,3.34-1.44
			c0.95-1.41,1.57-2.75,1.38-4.63c-0.34-3.32-1.33-6.36-3.06-9.12c-0.97-1.55-2.3-2.93-3.68-4.13c-1.05-0.92-2.44-1.46-3.72-2.18
			C307.01,352.51,306.31,352.83,305.71,353.1z M278.38,441.73c1.29,0.94,2.42,1.84,3.62,2.61c1.46,0.94,3.15,1.02,4.85,1.19
			c1.93,0.2,4.23-1.48,4.32-3.42c0.1-2.2,1.04-3.11,3.25-3.11c2.2,0,4.39,0.02,6.59-0.02c0.4-0.01,0.86-0.13,1.19-0.34
			c1.65-1.09,1.39-3.01,1.9-4.59c0.42-1.3-1.06-1.57-1.45-2.42c-1.05,0.67-2.05,1.35-3.09,1.96c-0.8,0.48-1.61,1.06-2.49,1.29
			c-3.42,0.87-6.89,0.6-10.36,0.33c-0.33-0.03-0.86,0.12-1,0.36C284,438.41,281.67,440.48,278.38,441.73z M340.91,436.34
			c-2.67-0.27-5.04-1.15-7.15-2.48c-0.89,0.62-1.66,1.37-2.57,1.76c-3.03,1.28-6.1,2.53-9.47,2.41c-1.48-0.05-2.97-0.26-4.44-0.47
			c-1.93-0.28-3.86-0.61-5.78-0.98c-0.67-0.13-1.31-0.43-1.96-0.66c-0.23,0.68-0.46,1.37-0.7,2.05c-0.05,0.14-0.11,0.27-0.14,0.33
			c0.43,0.48,0.95,0.84,1.15,1.33c1.21,2.87,3.61,3.93,6.43,4.41c0.66,0.11,1.38,0.37,1.98,0.2c3.22-0.92,6.41-1.91,9.59-2.95
			c1.51-0.5,2.97-1.18,4.46-1.74C335.17,438.46,338.04,437.4,340.91,436.34z M375.39,370.16c-1.03-3.44-1.98-6.62-3-10.04
			c-2.55,2.3-5.44,2.2-8.12,2.14c-0.19,1.8-0.11,3.49-0.61,4.99c-0.5,1.5-1.59,2.81-2.35,4.08c0.78,0.9,1.49,1.82,2.3,2.63
			c0.86,0.86,1.32,2.51,2.89,2.16C370.35,375.27,373.58,373.43,375.39,370.16z M357.82,335.81c-1.74-2.59-3.57-5.45-5.58-8.19
			c-0.49-0.67-1.29-1.6-2.5-0.9c-0.18,0.1-0.47,0.03-0.71,0c-2.51-0.23-5.01-0.47-7.52-0.71c-0.28-0.03-0.58,0.02-0.83-0.07
			c-1.88-0.7-4.66,0.29-5.69,1.91c1.65,0.65,3.31,1.39,5.03,1.96c2.49,0.82,4.47,2.28,5.77,4.53c0.63,1.09,1.26,1.78,2.62,1.53
			c0.35-0.06,0.78,0.11,1.12,0.27c1.82,0.84,3.62,1.72,5.37,2.56C355.74,337.89,356.66,336.97,357.82,335.81z M322.53,338.22
			c0.37,0.08,0.79,0.21,1.21,0.27c2.58,0.36,4.92,1.21,6.85,3.05c0.22,0.21,0.65,0.28,0.99,0.3c2.97,0.18,6.01-0.46,8.88,0.89
			c0.77,0.36,2.32-0.81,2.18-1.57c-0.53-2.8-1.79-5.12-4.55-6.27c-2.8-1.17-5.64-2.24-8.47-3.3c-0.21-0.08-0.61,0.17-0.84,0.36
			c-0.97,0.81-1.97,1.58-2.84,2.49C324.77,335.66,322.6,335.93,322.53,338.22z M321.65,408.23c0.58,0.38,1.27,0.82,1.95,1.28
			c1.85,1.25,3.67,2.54,5.55,3.73c0.43,0.27,0.92,0.9,1.64,0.21c1.24-1.19,2.57-2.29,3.88-3.42c0.84-0.73,1.57-1.65,1.29-2.74
			c-0.73-2.75-2.09-5.07-5.11-5.91c-1.58-0.44-3.13-0.99-4.72-1.36c-0.62-0.15-1.49-0.6-1.87,0.54
			C323.42,403.1,322.53,405.64,321.65,408.23z M367.24,384.18c-0.42,1.37-0.44,2.9-1.21,3.66c-1.25,1.22-1.23,2.14-0.3,3.36
			c0.06,0.08,0.01,0.24,0.05,0.35c0.83,2.39,0.46,4.82,0.31,7.38c1.64-1.56,3.48-2.56,5.66-2.4c0.5-0.88,0.94-1.7,1.42-2.49
			c1.7-2.84,1.49-3.42,0.03-5.48c-0.68-0.96-1.58-1.84-2.54-2.53C369.6,385.27,368.36,384.77,367.24,384.18z M358.32,352.78
			c1.12-1.66,1.34-3.11,0.48-4.05c-1.21-1.33-2.44-2.72-3.91-3.73c-2.09-1.43-4.4-2.53-6.81-3.89c-0.03,2.23-0.46,4-2.09,5.09
			c1.16,1.59,2.28,3.14,3.38,4.64C352.53,350.62,355.69,350.24,358.32,352.78z M351.14,355.38c-0.07,2.34,0.82,4.44-0.26,6.47
			c1.88,1.71,2.58,3.89,2.45,6.27c0.89,0.13,1.62,0.32,2.36,0.32c0.64,0,3.14-3.03,3.12-3.72c-0.07-2.38-0.24-4.61-1.97-6.65
			C355.26,356.21,353.29,356.02,351.14,355.38z M347.18,422.22c2.34,0.26,4.36,0.69,6.06-1.02c0.99-1,2.09-1.88,3.06-2.88
			c0.79-0.82,1.67-1.64,2.14-2.64c1.02-2.19,0.57-4.59,0.56-6.91c0-0.38-0.29-1.07-0.93-0.55c-1.16,0.96-2.42,1.52-4.24,1.21
			C354.22,414.98,351.87,419.06,347.18,422.22z M279.61,294.5c1.99,0.74,4.28,1.16,6.04,2.37c1.72,1.17,3.14,1.01,4.82,0.48
			c0.44-0.14,0.91-0.23,1.35-0.36c1.8-0.56,3.04-1.75,4.02-3.58c-4.89-0.91-9.65-1.79-14.14-2.62
			C280.89,292.22,280.2,293.46,279.61,294.5z M301.1,306.92c1.8,2.42,3.06,4.72,2.8,7.48c2.52-0.5,4.92-0.98,7.18-1.43
			c0-0.76,0-1.47,0-2.18c-0.01-1.24,0.09-2.5-0.05-3.73c-0.13-1.07-0.81-1.77-2.03-1.67c-0.94,0.08-1.9,0.07-2.82,0.26
			C304.52,306,302.89,306.47,301.1,306.92z M337.3,427c-0.09,0.34-0.27,0.75-0.27,1.17c0,0.4,0.05,1.02,0.3,1.17
			c1.14,0.66,2.31,1.42,3.57,1.69c1.56,0.33,3.23,0.18,4.84,0.32c1.26,0.11,2.06-0.48,2.78-1.43c0.44-0.58,1.08-1.01,1.59-1.54
			c0.25-0.26,0.42-0.61,0.78-1.12c-0.9,0-1.42,0.04-1.93-0.01c-2.3-0.22-4.6-0.46-6.9-0.72c-0.66-0.07-1.34-0.38-1.97-0.3
			C339.17,426.33,338.3,426.7,337.3,427z M317.43,304.66c2.77,0.55,5.34,1.97,7.78,3.7c0.9,0.64,1.41,1.42,1.23,2.57
			c-0.07,0.45-0.01,0.92-0.01,1.37c2.89,0.15,4.26-0.89,4.66-3.54c-4.04-2.28-8.15-4.59-12.26-6.91
			C318.28,302.93,317.85,303.81,317.43,304.66z M369.52,354.67c-2.85-4.53-5.82-9.25-8.8-13.98c-0.45,0.51-0.8,0.91-1.16,1.33
			c2.1,1.31,3.63,3.04,4.52,5.21c0.4,0.98,0.26,2.17,0.53,3.22c0.66,2.54-0.56,4.35-2.38,6.35c0.3,0.19,0.63,0.58,1,0.61
			C365.71,357.61,368.03,357.28,369.52,354.67z M355.48,403.3c2.42-1.9,4.53-3.88,5.65-6.64c0.76-1.87,0.45-2.65-0.99-3.61
			c-1.81,0.79-3.59,1.57-5.27,2.3C356.44,397.87,355.45,400.53,355.48,403.3z M329.93,324.32c1.48-1.04,2.8-1.83,3.97-2.82
			c1.17-0.99,0.83-2.79-0.52-3.52c-2.12-1.16-4.45-0.36-6.65-0.75c-0.13-0.02-0.29,0.18-0.47,0.3
			C327.98,319.43,329.59,321.35,329.93,324.32z M302.97,300.72c-0.63-0.53-1.22-1.04-1.82-1.54c-1.43-1.21-1.93-1.16-3.32,0.13
			c-1.22,1.14-2.45,2.27-4.2,2.58c-0.7,0.13-1.35,0.48-2.03,0.73c0.03,0.08,0.05,0.17,0.08,0.25c2.06,0.51,4.11,1.02,6.18,1.54
			c-0.06-0.88,0.3-1.65,1.27-2.06C300.4,301.81,301.69,301.27,302.97,300.72z M345.64,321.2c0.05-0.15,0.09-0.3,0.14-0.45
			c-2.83-3.39-6.27-6.09-9.81-8.71c-0.52,0.85-0.48,0.8,0.12,1.22c0.81,0.57,1.68,1.12,2.33,1.85c1.33,1.49,1.62,3.4,1.74,5.26
			C342.06,320.65,343.85,320.92,345.64,321.2z M313.8,300.45c0.05-0.2,0.1-0.4,0.15-0.61c-2.36-0.86-4.73-1.71-7.24-2.62
			c0,1.1,0,1.96,0,2.8C309.05,300.16,311.42,300.3,313.8,300.45z M316.7,310.06c-0.13,1-0.26,1.98-0.42,3.17
			c1.83-0.11,3.64-0.22,5.63-0.34C320.49,310.89,318.5,310.62,316.7,310.06z M364.33,415.55c0.11,0.02,0.22,0.04,0.32,0.06
			c0.9-2.36,2.39-4.51,2.58-7.5c-0.96,0.98-1.72,1.73-2.44,2.51c-0.22,0.24-0.43,0.59-0.44,0.9
			C364.3,412.86,364.33,414.21,364.33,415.55z M357.88,424.83c-0.06-0.07-0.12-0.14-0.18-0.21c-0.59,0.35-1.16,0.72-1.76,1.05
			c-0.84,0.47-0.85,0.46-0.33,1.15C356.36,426.17,357.12,425.5,357.88,424.83z M362.87,403.99c0.12,0.09,0.24,0.19,0.36,0.28
			c0.24-1.05,1.86-1.03,1.52-2.61C364.09,402.47,363.48,403.23,362.87,403.99z"/>
		<path class="st0" d="M275.73,290.03c-1.58,1.63-2.92,3.1-5.01,3.35c-2.62,0.31-5.28,0.35-7.88,0.78c-2.4,0.4-4.74,1.17-6.93,1.73
			c-1.63-0.97-3.26-2.03-4.99-2.91c-0.73-0.37-1.66-0.53-2.5-0.51c-3.49,0.09-7,0.06-10.45,0.52c-2.91,0.39-5.78,1.28-8.6,2.17
			c-2.48,0.78-4.93,1.72-7.27,2.84c-2,0.95-3.97,2.09-5.71,3.46c-1.87,1.46-3.29,3.45-2.9,6c0.22,1.43,0.91,2.81,1.55,4.14
			c0.18,0.38,0.91,0.72,1.38,0.72c2.14,0,4.28-0.11,6.42-0.21c0.79-0.03,1.12-0.49,1.15-1.27c0.09-2.8-0.37-3.28-3.24-3.28
			c-0.66,0-1.32,0-2.13,0c1.04-1.97,2.74-2.91,4.39-3.8c2.06-1.11,4.19-2.18,6.41-2.91c2.98-0.98,6.05-1.81,9.14-2.35
			c2.86-0.5,5.81-0.64,8.72-0.74c2.72-0.1,4.94,2.22,4.44,4.87c-0.26,1.4-1.24,2.79-2.21,3.91c-1.03,1.18-1.74,2.31-1.55,3.91
			c0.03,0.21-0.25,0.56-0.48,0.69c-1.85,1-3.9,1.72-5.54,2.98c-1.85,1.43-3.58,3.12-4.56,5.4c-0.53,1.25-1.28,2.16-3,2.03
			c-1.22-0.09-2.54,0.39-3.73,0.84c-1.22,0.46-1.87,2.17-1.36,3.53c0.38,1.04,1.3,1.48,2.45,1.32c1.21-0.16,2.43-0.21,3.62-0.44
			c2.56-0.5,5.61,1.96,5.66,4.58c0.02,0.98,0.06,1.98,0.25,2.94c0.33,1.76,1.04,2.3,2.86,2.27c1.55-0.02,2.93,0.23,4.05,1.5
			c1.45,1.65,1.66,4.01,0.46,5.9c-0.67,1.05-1.41,1.88-2.61,2.39c-0.83,0.36-1.41,1.26-2.21,1.71c-1.15,0.64-2.39,1.13-3.63,1.6
			c-0.23,0.09-0.72-0.11-0.88-0.33c-0.21-0.29-0.37-0.78-0.27-1.09c0.76-2.32,1.02-4.79,0.18-6.98c-0.77-2-2.4-3.66-3.65-5.48
			c-0.17-0.25-0.25-0.56-0.43-0.81c-0.72-1.01-2.99-1.46-4.04-0.76c-0.34,0.23-0.74,0.62-0.79,0.98c-0.2,1.49-0.29,2.94,0.9,4.23
			c1.09,1.17,2.04,2.5,2.87,3.86c0.29,0.48,0.19,1.31,0.05,1.93c-0.26,1.14-0.81,2.21-1.01,3.35c-0.37,2.03,0.23,3.67,2.07,4.89
			c1.68,1.11,2.68,2.9,2.62,4.85c-0.05,1.71-0.65,3.44-1.25,5.07c-0.54,1.45-1.44,2.76-2.16,4.15c-1.11,2.14-0.24,3.93,1.95,4.85
			c1.04,0.44,2.01,1.43,2.62,2.42c1.4,2.25,1.76,4.75,0.96,7.35c-0.56,1.83-2.11,2.67-3.59,3.51c-1.76,1.01-2.38,2.7-1.39,4.44
			c0.18,0.31,0.49,0.6,0.8,0.79c1.83,1.12,2.82,2.64,2.89,4.87c0.14,4.08-1.68,7.34-4.04,10.4c-0.95,1.23-1.94,2.44-3.06,3.52
			c-1.69,1.64-3.89,2.32-6.16,2.66c-2.44,0.37-3.65,1.55-3.28,3.95c0.36,2.35-0.2,4.43-1.19,6.45c-0.47,0.97-1.07,1.92-1.8,2.7
			c-0.88,0.95-2.81,0.77-3.8-0.22c-0.61-0.61-1.25-0.94-2.16-0.88c-3.04,0.2-5.38-1.3-7.47-3.3c-1.18-1.12-2.41-2.21-3.49-3.43
			c-0.68-0.77-1.12-1.76-1.59-2.52c0.8-0.86,1.63-1.57,2.22-2.45c0.62-0.92,0.33-2.5-0.36-3.21c-0.68-0.7-2.31-1.03-3.2-0.4
			c-1.33,0.94-2.67,1.95-3.7,3.18c-1.06,1.27-0.85,2.96-0.25,4.41c1.04,2.49,2.42,4.81,4.33,6.76c2.64,2.69,5.78,4.61,9.39,5.72
			c0.15,0.05,0.32,0.04,0.47,0.04c0.93,0.02,1.67,0.2,2.56,0.76c1.31,0.83,3.06,0.97,4.62,1.39c0.19,0.05,0.4,0.02,0.6,0
			c1.31-0.13,2.12,0.01,2.71,1.63c0.94,2.57,2.68,4.8,5.12,6.24c0.87,0.52,1.93,0.84,2.94,0.97c1.26,0.16,2.56,0.14,3.83,0
			c0.76-0.08,1.49-0.51,2.15-1c0.65,0.19,1.32,0.33,1.94,0.58c0.43,0.17,0.95,0.41,1.17,0.77c1.17,1.9,0.29,3.68-1.97,4
			c-1.09,0.16-2.2,0.27-3.3,0.23c-2.74-0.11-3.44,2.34-2.65,4.15c0.91,2.08,0.42,3.79-0.96,5.27c-0.47,0.5-1.51,0.67-2.27,0.64
			c-2.69-0.12-5.3-0.76-7.55-2.29c-1.75-1.2-3.49-2.48-4.94-4.01c-1.57-1.66-3.54-1.98-5.54-2.54c-2.06-0.57-4.11-1.26-6.09-2.07
			c-3.64-1.49-7.29-3-10.83-4.71c-2.38-1.15-4.58-2.67-6.88-4c-3.48-2.02-6.68-4.41-9.64-7.12c-1.56-1.43-3.12-2.88-4.47-4.5
			c-2.66-3.18-5.16-6.48-7.73-9.73c-0.07-0.08-0.06-0.22-0.13-0.49c1.29,0,2.54,0.02,3.79,0c3.69-0.07,7.09-1.28,10.24-3.06
			c2.13-1.21,4.23-2.63,5.99-4.33c2.72-2.62,4.16-5.95,4.09-9.82c-0.05-2.55-1.36-4.41-3.36-5.79c-2.2-1.52-4.71-2.03-7.33-1.67
			c-1.83,0.25-2.82,1.61-3.49,3.2c-0.52,1.22-0.23,2.41,0.43,3.48c0.16,0.27,0.64,0.42,1,0.47c0.55,0.08,1.12-0.04,1.67,0.03
			c0.94,0.13,1.48-0.36,1.68-1.15c0.17-0.67,0.34-0.75,1.03-0.59c2.21,0.53,3.5,1.96,2.49,4.48c-1.15,2.87-3.34,4.52-5.72,6.16
			c-2.58,1.77-5.5,2.62-8.47,3.2c-1.89,0.37-3.9,0.09-5.86,0.12c-0.58,0.01-1.16,0.07-1.82,0.11c-1.49-2.64-3.32-5.24-4.48-8.12
			c-1.6-4-2.71-8.2-3.98-12.34c-0.34-1.12-0.58-2.28-0.74-3.43c-0.36-2.72-0.72-5.45-0.93-8.19c-0.19-2.45-0.37-4.93-0.21-7.38
			c0.19-2.97,0.68-5.92,1.15-8.86c0.64-4.01,2.64-7.51,4.48-11.05c1.54-2.98,3.11-5.97,4.98-8.74c2.92-4.31,5.98-8.55,9.23-12.61
			c2.5-3.12,5.26-6.05,8.13-8.84c1.78-1.74,3.88-3.21,6-4.53c4.35-2.71,8.77-5.3,13.24-7.81c3.78-2.13,7.61-4.21,11.51-6.11
			c4.05-1.97,8.05-4.1,12.48-5.19c3.71-0.92,7.4-1.93,11.13-2.72c3.33-0.7,6.7-1.23,10.07-1.68c2.35-0.31,4.73-0.43,7.1-0.5
			c6.76-0.2,13.53-0.39,20.3-0.47C270.48,289.56,272.93,289.85,275.73,290.03z M199.77,343.36c0,3.08-0.04,6.15,0.02,9.23
			c0.03,1.33,0.21,2.67,0.4,3.99c0.3,2.01,0.66,4.01,1.02,6.01c0.66,3.7,1.53,7.34,3.27,10.71c0.19,0.36,0.54,0.64,0.84,0.94
			c1.08,1.09,2.46,0.6,3.73,0.72c1.56,0.14,2.79-0.69,3.53-1.8c1.43-2.13,2.29-4.58,2.76-7.12c0.42-2.27,0.74-4.57,0.98-6.87
			c0.45-4.35,0.92-8.7,1.16-13.06c0.19-3.39,0.1-6.79,0.01-10.18c-0.05-1.97-0.19-3.95-0.52-5.89c-0.64-3.77-1.98-7.31-3.86-10.63
			c-0.75-1.32-1.67-2.59-2.72-3.68c-1.09-1.13-2.65-1.03-4.13-0.99c-2.08,0.05-3.13,0.84-3.88,2.78c-1,2.62-0.7,5.58-2.13,8.09
			c-0.03,0.06-0.01,0.16-0.01,0.24c-0.16,3.6-0.36,7.21-0.47,10.81C199.71,338.89,199.77,341.13,199.77,343.36z M222.4,395.56
			c-1.48,1.62-3.73,2.65-6.52,2.48c-1.76-0.11-3.33-0.39-4.75-1.45c-0.21-0.15-0.51-0.25-0.77-0.25c-1.08-0.01-2.35-0.41-3.09,0.62
			c-0.91,1.27-0.25,3.63,1.1,4.43c0.42,0.25,0.93,0.38,1.42,0.5c2.11,0.55,4.2,1.27,6.34,1.55c2.95,0.38,5.69-0.65,8.17-2.15
			c3.54-2.13,5.04-5.61,2.06-9.43c-1.05-1.35-2.28-2.6-3.54-3.76c-1.05-0.97-3.39-0.9-4.15-0.03c-0.78,0.9-0.6,3.09,0.4,4.14
			C220.15,393.34,221.27,394.43,222.4,395.56z M172.65,334.79c0.55-0.17,1.52-0.19,2.01-0.68c1.3-1.29,2.37-2.81,3.59-4.19
			c1.4-1.6,2.48-3.4,3.25-5.36c0.26-0.67,0.3-1.47,0.25-2.21c-0.06-0.9-0.38-1.87-1.38-2.02c-0.91-0.14-1.87,0.07-2.81,0.19
			c-0.21,0.03-0.45,0.29-0.56,0.5c-1,1.94-1.86,3.97-3,5.82c-0.6,0.98-1.54,2.05-2.56,2.41c-1.07,0.38-1.55,0.93-1.82,1.86
			c-0.41,1.38-0.09,2.88,0.81,3.28C171,334.66,171.71,334.64,172.65,334.79z"/>
		<path class="st0" d="M410.5,336.28c-1.22,2.61-0.77,5.37-0.83,8.08c-0.03,1.42,0.61,2.35,1.78,2.71c1.21,0.38,2.76-0.18,3.5-1.14
			c1.92-2.49,3.65-5.18,5.9-7.34c2.18-2.09,4.86-3.68,7.39-5.38c1.26-0.85,2.63-1.6,4.05-2.14c1.66-0.63,3.41-1.3,5.15-1.39
			c2.47-0.13,4.99,0.09,7.44,0.49c1.2,0.19,2.4,0.98,3.38,1.76c1.37,1.09,1.17,1.19,0.04,2.62c-1.8,2.27-3.58,4.58-5.1,7.03
			c-1.18,1.9-0.91,4.08-0.22,6.17c0.72,2.18,1.96,4.22,1.71,6.65c-0.15,1.45-0.15,2.96-1.07,4.16c-1.5,1.97-1.5,4.18-1.06,6.4
			c0.36,1.86,0.27,3.89,1.45,5.51c1.02,1.4,2.17,2.69,3.25,4.05c1.27,1.6,2.57,3.15,2.48,5.42c-0.07,1.88-1.22,3.14-2.22,4.54
			c-1.36,1.91-2.8,3.79-3.89,5.85c-1.82,3.42-1.53,7.02-0.02,10.47c1.41,3.22,3.2,6.25,4.04,9.73c0.54,2.24,0.13,4.21-1.06,5.99
			c-1.09,1.63-2.5,3.05-3.77,4.55c-1.09,1.29-1.9,2.66-1.75,4.48c0.23,2.8-0.03,5.7,0.61,8.39c0.77,3.25,2.1,6.43,4.7,8.8
			c0.08,0.08,0.14,0.19,0.46,0.55c-0.28,0.15-0.56,0.31-0.84,0.45c-2.41,1.24-4.92,2.09-7.64,2.5c-3.11,0.46-6.2,0.79-9.33,0.66
			c-3.94-0.16-7.62-1.22-11.02-3.26c-1.34-0.81-2.71-1.58-4.12-2.26c-1.74-0.84-4.96-0.06-6.37,1.32c-1.04,1.02-2.21,1.9-3.32,2.84
			c-0.1-0.08-0.2-0.16-0.3-0.24c0-1.78,0-3.56,0-5.35c0.01-4.47-0.3-8.91-1.17-13.31c-0.54-2.77-0.67-5.62-1.27-8.37
			c-1.32-6.17-2.93-12.29-7.03-17.3c-1.75-2.14-3.83-4.07-6.01-5.77c-2.71-2.1-5.69-3.86-8.54-5.78c-0.17-0.12-0.35-0.28-0.43-0.47
			c-0.44-0.95-0.63-2.11-1.3-2.82c-1.98-2.12-3.71-4.54-6.72-5.82c3.32-1.53,6.11-3.52,7.99-6.41c1.75,0.99,3.38,2.1,5.17,2.86
			c2.5,1.06,5.1,1.02,7.46-0.49c0.54-0.35,0.89-1.2,1.04-1.89c0.63-2.94,1.01-5.94,1.75-8.85c0.98-3.85,1.97-7.72,3.4-11.41
			c1.21-3.11,3.06-5.98,4.61-8.96c1.33-2.57,2.96-4.91,5.04-6.93c0.75-0.73,1.54-1.4,2.32-2.1
			C410.3,336.19,410.4,336.24,410.5,336.28z M422.38,425.07c-0.02,0-0.05,0-0.07,0.01c0.08,0.66,0.09,1.34,0.25,1.99
			c0.66,2.8,2.35,5.06,4.26,7.07c2.41,2.54,5.1,4.83,7.65,7.24c1.55,1.47,3.47,1.24,5.35,1.19c0.21-0.01,0.45-0.27,0.61-0.47
			c0.76-0.97,0.07-3.46-1.07-3.98c-0.42-0.19-0.85-0.41-1.17-0.72c-1.18-1.13-2.33-2.28-3.47-3.45c-2.16-2.22-4.34-4.43-6.45-6.71
			c-1-1.08-2.1-2.17-2.68-3.47c-0.57-1.26-1.42-1.09-2.3-1.03c-1.01,0.06-0.91,0.91-0.9,1.63
			C422.38,424.59,422.38,424.83,422.38,425.07z M425.91,356.96c1.8,0.46,2.59-1.06,3.37-2.33c1.79-2.92,3.35-5.99,5.22-8.86
			c0.93-1.43,2.25-2.66,4.3-2.53c0.34,0.02,0.95-0.54,1.04-0.93c0.17-0.72,0.15-1.52,0.01-2.26c-0.08-0.42-0.51-1.04-0.86-1.1
			c-1.29-0.21-2.65-0.48-3.92-0.27c-2.58,0.42-4.2,2.22-5.44,4.42c-1.92,3.38-3.99,6.69-5.8,10.13
			C422.69,355.39,423.61,356.96,425.91,356.96z M397.87,391.07c-0.47,0.28-1.23,0.5-1.62,1.01c-0.63,0.8-0.35,2.56,0.38,3.29
			c0.57,0.57,1.35,0.96,1.81,1.6c1.64,2.29,3.2,4.64,4.73,7.01c0.53,0.83,1.28,1.25,2.06,0.88c0.45-0.21,0.63-1.1,0.81-1.72
			c0.08-0.3-0.13-0.68-0.21-1.02c-0.4-1.81-0.05-3.79-1.2-5.45c-0.71-1.02-1.39-2.06-2.09-3.09
			C401.48,392.04,399.86,391.57,397.87,391.07z M395.48,384.79c0.02,0.06,0.03,0.12,0.05,0.18c0.74-0.2,1.64-0.21,2.2-0.65
			c1.44-1.14,2.78-2.42,4.04-3.75c0.97-1.02,1.4-2.34,1.42-3.77c0.03-2.15-0.68-2.82-2.77-2.26c-0.76,0.2-1.57,0.92-1.98,1.62
			c-1.19,2.05-2.78,3.66-4.89,4.64c-1.46,0.68-0.9,1.81-0.85,2.72c0.05,0.89,0.91,1.27,1.82,1.26
			C394.84,384.78,395.16,384.79,395.48,384.79z M441.21,411.89c-0.01-0.06-0.02-0.13-0.04-0.19c-1.22,0.23-2.45,0.42-3.66,0.7
			c-1.08,0.25-0.99,1.16-0.97,1.99c0.01,0.79-0.09,1.69,1,1.83c1.67,0.2,3.34,0.38,5.02,0.46c1.46,0.07,2.12-0.68,2.13-2.18
			c0.02-2.06-0.51-2.6-2.52-2.6C441.84,411.89,441.53,411.89,441.21,411.89z M436.09,369.2c-0.64,0-1.33-0.16-1.89,0.04
			c-0.64,0.23-1.56,0.73-1.64,1.22c-0.13,0.82-0.47,1.78,0.55,2.64c1,0.84,2,0.88,3.12,0.88c3.15,0,3.23-0.07,3.19-3.12
			c-0.01-1.06-0.55-1.62-1.65-1.67C437.2,369.18,436.65,369.2,436.09,369.2z M437.93,387.99c3.09-0.09,3.22-0.21,3.16-3.26
			c0-0.04,0.02-0.09,0-0.12c-0.24-0.39-0.41-0.97-0.76-1.13c-1.67-0.74-3.37-0.4-5.06,0.04c-1.4,0.36-1.1,1.5-1.14,2.49
			c-0.04,0.98,0.53,1.43,1.37,1.6C436.3,387.79,437.12,387.87,437.93,387.99z M440.13,398.56c-0.06-0.88,0.38-2.1-1.05-2.22
			c-1.39-0.12-2.8-0.1-4.18,0c-1.07,0.08-1.65,1.03-1.73,2.27c-0.07,1.05,0.45,1.76,1.32,1.96c1.1,0.26,2.27,0.28,3.41,0.27
			C439.83,400.84,440.13,400.49,440.13,398.56z M379.92,381.95c0-1.72,0-1.72-1.68-1.72c-1.58,0-1.68,0.1-1.68,1.7
			c0,1.66,0,1.66,1.63,1.66C379.92,383.59,379.92,383.59,379.92,381.95z"/>
		<path class="st0" d="M311.7,448.95c-0.19,1.53-0.42,3.24-0.63,4.95c-0.32,2.69-0.63,5.39-0.93,8.08
			c-0.11,1.02-0.23,2.04-0.26,3.07c-0.1,2.82-1,5.45-1.95,8.05c-1.3,3.55-2.67,7.07-3.99,10.62c-0.47,1.28-0.86,2.58-1.33,3.86
			c-0.09,0.24-0.4,0.57-0.62,0.57c-3.48,0.04-6.97,0.04-10.46,0.04c-1.04,0-2.08,0.04-3.12-0.02c-4.12-0.22-8.24-0.42-12.25-1.6
			c-2.84-0.84-5.79-1.36-8.53-2.41c-5.06-1.94-10.06-4.07-15-6.31c-3.91-1.77-7.72-3.77-11.53-5.74c-2.8-1.45-5.67-2.85-8.27-4.62
			c-3.17-2.16-6.1-4.69-9.13-7.06c-0.36-0.28-0.7-0.59-1.15-0.97c3.13,0.12,6.14,0.78,8.89-1.33c2.67-2.06,3.76-4.71,3.87-7.98
			c1.1-0.34,1.72,0.12,2.46,0.98c1.58,1.85,3.6,3.16,5.93,3.95c0.26,0.09,0.55,0.13,0.76,0.28c2.22,1.51,4.78,1.85,7.35,2.11
			c1.17,0.12,2.37,0.24,3.53,0.14c2-0.17,3.56-1.42,5.02-2.62c2.23-1.85,4.03-4.04,4.22-7.17c0.01-0.24,0.73-0.62,1.12-0.63
			c2.41-0.05,4.62-0.7,6.67-1.94c0.4-0.24,0.75-0.56,1.04-0.78c2.42,2.75,5.08,5.12,8.92,5.56c2.2,0.25,4.41,0.37,6.62,0.48
			c1.66,0.08,2.97-0.8,4.29-1.69c1.41-0.95,2.13-2.35,2.86-3.79c0.18-0.35,0.74-0.68,1.15-0.71c1.35-0.09,2.72,0.05,4.07-0.06
			c1.34-0.1,2.66-0.38,3.94-0.57C307.26,445.31,309.41,447.08,311.7,448.95z M294.84,481.08c0.02-0.11,0.05-0.23,0.07-0.34
			c0.52,0,1.04,0,1.56,0c1.44,0,1.87-0.45,1.89-1.92c0-0.4-0.02-0.8,0-1.2c0.06-1.07-0.57-1.54-1.51-1.67
			c-0.9-0.12-1.84-0.04-2.7-0.28c-2.13-0.57-4.37-0.67-6.35-1.92c-1.1-0.7-2.44-1.18-3.9-0.96c-0.78,0.12-1.04,0.43-1.17,1.19
			c-0.34,1.98,2.02,4.86,3.64,5.27C289.18,479.97,292.02,480.49,294.84,481.08z M294.77,466.4c-0.01,0.06-0.02,0.13-0.03,0.19
			c-0.56,0-1.12-0.03-1.68,0.01c-0.29,0.02-0.66,0.11-0.83,0.31c-0.96,1.09-0.16,3.76,1.2,4.23c2.5,0.87,5.06,1.3,7.72,1.21
			c2.22-0.08,2.49-0.3,2.49-2.54c0-0.28,0.08-0.59-0.02-0.83c-0.17-0.39-0.38-0.92-0.7-1.04c-0.75-0.28-1.58-0.37-2.39-0.51
			C298.61,467.09,296.69,466.74,294.77,466.4z M300.98,460.35c0.48,0,0.68,0,0.88,0c2.32,0,3.54-1.71,2.67-3.88
			c-0.19-0.48-0.79-1.04-1.27-1.11c-1.91-0.27-3.84-0.41-5.76-0.5c-0.4-0.02-0.99,0.23-1.19,0.55c-0.58,0.9,0.06,3.05,0.91,3.7
			C298.43,460.04,299.69,460.66,300.98,460.35z"/>
		<path class="st0" d="M270.15,356.22c-3.51-0.2-7-0.39-10.58-0.59c-0.08-4.23-3.08-6.45-6.01-8.35c0.4-2.41,0.8-4.62,1.1-6.85
			c0.08-0.59-0.09-1.26-0.29-1.84c-0.33-0.92-0.8-1.78-1.19-2.68c-1.39-3.25-3.24-4.07-6.89-4.71c0.31-2.13-0.46-4-1.7-5.68
			c-0.63-0.86-1.51-1.53-2.2-2.34c-0.21-0.24-0.35-0.76-0.23-1.02c1.9-4.2,5.68-5.62,9.8-6.39c0.83-0.15,1.77,0.43,2.64,0.37
			c2.15-0.14,4.31-0.71,6.44-0.62c3.24,0.14,6.03,1.48,8.09,4.13c1.16,1.49,2.46,2.88,3.59,4.39c2.16,2.87,4.05,5.91,4.25,9.62
			c0.14,2.6,0.33,5.25-0.05,7.8c-0.46,3.06-1.79,5.85-4.35,7.87c-0.72,0.57-1.35,1.24-1.97,1.92
			C269.66,352.3,269.48,354.72,270.15,356.22z"/>
		<path class="st0" d="M303.03,384.43c-5.82-6.32-13.49-10.52-23.68-4.87c0.55-1.24,1.12-2.29,1.48-3.41
			c1.1-3.43,1.46-6.78-0.14-10.28c-1.16-2.54-2.77-4.62-4.61-6.62c-0.16-0.18-0.25-0.48-0.26-0.73c-0.02-1.33-0.01-2.66-0.01-4.34
			c1.62-1.61,3.7-3.48,4.75-6.17c0.08-0.2,0.48-0.41,0.71-0.39c2.12,0.13,4.28,0.12,6.36,0.5c3.52,0.64,6.81,1.9,9.66,4.24
			c2.33,1.91,3.93,4.22,4.7,7.12c0.67,2.53,0.54,5.09,0.28,7.65c-0.19,1.94-0.35,3.82,2.49,4.33c1.89,0.34,3.04,2.03,3.26,3.91
			c0.25,2.11,0.03,4.02-0.81,5.95c-0.62,1.43-1.74,2.18-3.08,2.73C303.78,384.2,303.41,384.3,303.03,384.43z"/>
		<path class="st0" d="M271.53,409.81c-0.07-2.06-1.01-4.01-2.46-5.81c-0.29-0.36-0.18-1.15-0.05-1.69
			c0.06-0.23,0.64-0.41,1.01-0.48c2.24-0.4,4.28-1.22,5.98-2.75c1.27-1.14,2.47-2.36,3.75-3.49c2.44-2.14,3.43-4.89,3.48-8.05
			c0.01-1.05-0.02-2.09,0.02-3.14c0.01-0.27,0.18-0.69,0.39-0.77c1.16-0.46,2.32-1.01,3.53-1.22c2.57-0.43,5.01,0.33,7.04,1.8
			c2.07,1.5,4.01,3.18,5.56,5.35c1.65,2.33,1.12,5.29-0.49,7.07c-1.37,1.51-2.44,3.17-1.84,5.21c0.51,1.73,0.15,3.3-0.03,4.97
			c-0.23,2.12-1.21,3.8-2.7,5.23c-2.4,2.3-5.27,3.71-8.42,4.7c-1.38,0.43-1.92-0.28-2.86-1.06c-1.98-1.63-4.19-3.04-6.47-4.21
			C275.37,410.67,273.5,410.39,271.53,409.81z"/>
		<path class="st0" d="M253.86,435.09c2.1-3.06,2.02-6.73,2.06-10.36c3.76-0.01,6.8-3.58,7.16-7.21c0.19-1.93,0.26-3.88,0.22-5.82
			c-0.02-1.18,0.17-2.06,1.37-2.52c0.28-0.1,0.48-0.39,0.93-0.77c0.22,1.14,0.56,2.11,0.58,3.09c0.07,3.11,0.76,3.89,3.88,3.99
			c4.4,0.14,7.57,2.37,10.5,5.49c2.5,2.66,2.38,5.56,1.93,8.7c-0.64,4.46-3.42,6.95-7.56,8.16c-0.48,0.14-1,0.13-1.5,0.23
			c-1.4,0.27-2.75,0.58-3.24,2.25c-0.11,0.36-0.68,0.63-1.09,0.83c-3.2,1.59-6.23,1.24-9.01-0.96c-1.53-1.2-2.95-2.53-4.44-3.78
			C255.1,435.94,254.48,435.54,253.86,435.09z"/>
		<path class="st0" d="M268.69,397.08c-1.65-3.71-4-6.37-7.27-8.25c2.37-3.42,2.74-7.24,2.34-11.13c-0.2-1.94-1.79-3.02-3.43-3.88
			c-0.12-1.8-0.1-3.68-0.4-5.5c-0.19-1.12-0.79-2.19-1.33-3.22c-0.52-0.98-0.09-2.99,0.96-3.46c0.7-0.31,1.51-0.6,2.24-0.55
			c2.31,0.14,4.64,0.3,6.91,0.72c3,0.56,4.83,2.74,6.39,5.18c2.56,4,0.67,7.52-1.25,10.99c-0.84,1.52-1.1,3.06-0.12,4.43
			c0.56,0.78,1.66,1.26,2.61,1.65c1.91,0.79,2.38,3.31,1.54,5.07c-0.86,1.79-2.22,3.16-3.71,4.34
			C272.46,394.78,270.57,395.85,268.69,397.08z"/>
		<path class="st0" d="M305.98,389.39c4.59-2.3,4.22-1.78,7.11-7.57c0.74,0.91,1.75,1.29,2.82,1.02c2.08-0.52,3.98,0.05,5.82,0.82
			c1.58,0.66,3.13,1.44,4.57,2.36c1.41,0.9,1.39,2.41,0.3,3.77c-1.31,1.64-2.75,2.85-5.04,2.71c-1.04-0.06-1.94,1.11-2.09,2.18
			c-0.29,2.01-0.38,4.1-1.01,6c-0.75,2.3-1.43,4.7-3.12,6.6c-0.96,1.09-1.77,2.3-2.75,3.36c-1.04,1.13-2.46,1.02-3.86,1.01
			c-1.1-0.01-1.84,0.11-2.13-1.52c-0.34-1.9-1.3-3.78-3.04-5c-0.13-0.09-0.35-0.22-0.34-0.31c0.16-1.55-0.59-3.15,0.47-4.66
			c2.01-2.89,3.22-6.02,2.37-9.63C305.97,390.17,306.01,389.77,305.98,389.39z"/>
		<path class="st0" d="M227.64,417.66c1.19-0.4,2.28-0.8,3.39-1.13c0.27-0.08,0.6,0,0.9,0.06c1.6,0.35,3.18,0.89,4.79,1.02
			c2.35,0.19,4.73,0.02,7.09,0.14c0.51,0.03,0.99,0.64,1.5,0.95c2.44,1.52,4.45,3.47,5.08,6.33c0.37,1.67,0.22,3.47,0.15,5.21
			c-0.02,0.46-0.54,0.93-0.89,1.35c-1.79,2.14-3.98,3.78-6.84,3.75c-2.28-0.02-4.56-0.36-6.77-1.29c-1.31-0.55-2.92-0.5-4.4-0.49
			c-0.48,0-1.07,0.65-1.4,1.14c-0.5,0.74-1.02,0.46-1.53,0.17c-1.53-0.87-2.61-2.2-3.55-3.67c-0.25-0.4-0.46-0.82-0.73-1.2
			c-0.59-0.81-0.61-1.52,0.03-2.38c2.06-2.79,3.14-5.93,3.12-9.42c0-0.16,0-0.32,0.02-0.48
			C227.62,417.66,227.67,417.59,227.64,417.66z"/>
		<path class="st0" d="M300.43,328.47c-6.16-5.83-13.39-6.47-21.12-4.9c-2.98-3.92-5.43-8.3-10.09-11.27
			c1.45-0.73,2.6-1.34,3.78-1.89c5.38-2.52,11.14-2.18,16.84-2.09c1.69,0.02,3.4,0.51,5.05,0.99c2.3,0.67,4.04,4.12,3.62,6.44
			c-0.28,1.53-0.57,3.21,0.42,4.6c0.53,0.75,1.37,1.34,2.18,1.83c2.18,1.31,2.43,2.65,0.75,4.56
			C301.38,327.26,300.95,327.83,300.43,328.47z"/>
		<path class="st0" d="M305.55,427.81c1.68-3.59,2.32-7.35,2.16-11.06c1.82-0.1,3.55-0.06,5.22-0.36c0.91-0.16,1.79-0.82,2.56-1.41
			c0.66-0.51,1.07-1.33,1.73-1.85c0.33-0.26,1.09-0.4,1.4-0.2c2.64,1.68,5.32,3.32,7.78,5.23c2.07,1.6,4.07,3.43,5.18,5.86
			c0.43,0.95,0.4,2.44-0.05,3.37c-0.76,1.55-1.99,2.88-3.67,3.68c-3.15,1.5-6.5,2-9.9,1.61c-1.98-0.23-3.94-0.95-5.81-1.71
			c-1.83-0.75-3.52-1.85-5.28-2.77C306.49,428.02,306.06,427.96,305.55,427.81z"/>
		<path class="st0" d="M245.59,381.77c0.82-5.4-0.88-9.92-4.94-13.6c0.53-1.32,1.06-2.65,1.59-3.98c1.15-2.91,1.2-5.92,0.65-8.95
			c-0.12-0.65-0.01-0.73,0.54-0.97c1.72-0.72,3.42-1.5,5.05-2.4c0.75-0.41,1.35-0.28,1.93,0.07c0.77,0.45,1.47,1.05,2.19,1.58
			c2.16,1.6,1.98,4.23,0.93,7.15c-0.47,1.32-1.07,2.59-1.43,3.94c-0.27,1.02,0.28,1.91,1.03,2.63c1.64,1.59,2.12,3.49,1.62,5.7
			c-0.28,1.25-0.45,2.52-0.71,3.78c-0.43,2.06-2.04,3.21-3.62,4.25C248.71,382.12,247.83,382.13,245.59,381.77z"/>
		<path class="st0" d="M282.59,342.44c-0.35-4.59,0.59-9.28-1.12-14.09c0.79-0.06,1.5-0.18,2.2-0.17c1.66,0.04,3.36-0.05,4.98,0.27
			c3.5,0.7,6.62,2.2,8.79,5.19c0.43,0.59,0.65,1.33,0.93,2.01c0.37,0.91,1.12,1.24,2.01,1.4c3.19,0.56,4.46,1.96,4.7,4.89
			c0.1,1.26,0.18,2.52,0.24,3.79c0.05,1.01-0.2,1.85-1.37,2.12c-0.57,0.13-1.1,0.42-1.67,0.53c-0.32,0.06-0.76,0-1.02-0.18
			c-3.78-2.67-7.82-4.77-12.48-5.37C286.77,342.57,284.74,342.57,282.59,342.44z"/>
		<path class="st0" d="M320.02,377.33c3.83-5.21,4.31-6.55,2.67-15.44c1.25,0.21,2.45,0.37,3.63,0.6c1.76,0.35,3.56,0.6,5.24,1.17
			c1.56,0.53,3.05,1.34,4.46,2.2c1.89,1.15,3.65,2.45,5.02,4.31c1.62,2.19,1.05,3.11-0.79,4.75c-2.53,2.27-5.8,3.14-8.98,4.1
			c-0.67,0.2-1.42,0.29-1.99,0.65c-1.13,0.72-2.05,0.45-3.18-0.06c-1.87-0.83-3.87-1.4-5.8-2.08
			C320.19,377.51,320.11,377.4,320.02,377.33z"/>
		<path class="st0" d="M237.01,412.49c1.07-1.5,2.13-2.94,3.15-4.41c1.7-2.43,3.21-5.06,3.54-7.96c0.39-3.48,0.93-7.13-1.19-10.38
			c-0.21-0.33-0.43-0.65-0.69-1.03c1.22-1.13,2.36-2.38,4.39-2.03c1.09,0.19,2.23-0.02,3.35,0.04c2.13,0.13,3.88-0.74,5.26-2.22
			c1.4-1.5,2.59-3.19,3.96-4.92c0,0.48,0.07,1.01-0.01,1.52c-0.33,2.08-1.2,3.92-2.9,5.2c-0.59,0.44-1.51,0.55-2.29,0.61
			c-1.02,0.08-1.37,0.5-1.55,1.51c-0.3,1.66-0.16,3.07,1.18,4.23c0.13,0.11,0.04,0.46,0.06,0.7c0.2,2.94-0.92,5.2-3.46,6.73
			c-1.49,0.9-2.21,2.15-2.07,3.94c0.12,1.57,0.15,3.15-0.84,4.56c-1.47,2.1-3.39,3.63-5.8,4.42c-0.75,0.25-1.7-0.1-2.55-0.2
			C238.07,412.74,237.62,412.62,237.01,412.49z"/>
		<path class="st0" d="M320.62,357.09c-2.12-4.51-5.92-7.09-9.84-9.46c0-3.85,0.1-7.77-1.88-11.68c2.01-0.59,3.98-1.26,6-1.71
			c0.59-0.13,1.36,0.28,1.96,0.6c0.68,0.36,0.9,0.96,0.37,1.67c-0.39,0.54-0.76,1.09-1.14,1.64c-0.66,0.95-0.95,1.94-0.51,3.1
			c0.47,1.24,1.4,1.64,2.62,1.82c2.2,0.32,4.42,0.62,6.55,1.2c3.02,0.83,3.87,3.85,1.94,6.31c-1.45,1.83-3.09,3.42-5.17,4.56
			C321.08,355.39,320.98,356.28,320.62,357.09z"/>
		<path class="st0" d="M352.33,390.34c0-0.89,0-1.64,0-2.4c0-2.43-2.05-5.25-4.36-6.05c-1.69-0.58-3.37-1.19-5.01-1.77
			c2.05-1.75,4.07-3.63,4.44-6.61c1.04-0.43,2.14-0.9,3.03-1.27c1.04,0.42,1.93,0.91,2.87,1.14c1.68,0.41,3.22,1.1,4.38,2.35
			c1.38,1.49,2.87,3.01,3.81,4.77c1.69,3.18,0.45,6.04-3.03,7.42C356.5,388.72,354.51,389.49,352.33,390.34z"/>
		<path class="st0" d="M257.02,301.06c2.41-0.54,4.57-1.07,6.74-1.51c1.11-0.22,2.26-0.32,3.39-0.4c3.18-0.24,6.37-0.01,9.47,0.54
			c2.34,0.41,4.82,0.73,6.8,2.32c0.3,0.24,0.61,0.48,1.05,0.81c-0.28,0.08-0.41,0.16-0.54,0.15c-2.93-0.06-5.79,0.25-8.57,1.28
			c-2.11,0.78-4.31,1.32-6.43,2.09c-2,0.72-3.71,1.86-4.31,3.74c-3.71,0.15-7.23,0.29-11.02,0.45
			C256.07,307.63,257.75,304.72,257.02,301.06z"/>
		<path class="st0" d="M304.75,332.15c4.02-5.04,4.61-8.94,1.94-12.96c1.57-0.38,3.06-0.74,4.55-1.08c3.11-0.72,5.88,0.42,8.55,1.73
			c2.76,1.35,4.6,3.59,5.16,6.69c0.09,0.49-0.16,1.19-0.51,1.56c-0.91,0.99-1.94,1.87-2.96,2.75c-0.49,0.43-0.94,0.61-1.64,0.05
			c-2.01-1.6-4.45-1.68-6.87-1.48C310.5,329.6,306.96,330.83,304.75,332.15z"/>
		<path class="st0" d="M347.99,366.91c-1.25,1.21-1.48,1.2-2.2,0.21c-2.95-4.07-7.03-6.67-11.6-8.47c-1.78-0.7-3.8-0.82-5.71-1.21
			c-0.18-0.04-0.34-0.14-0.31-0.13c1.18-1.55,2.39-3.08,3.52-4.67c1.18-1.65,1.45-3.55,1.14-5.57c1.65-0.7,3.19-0.49,4.73,0.1
			c2.82,1.09,4.8,3.18,6.31,5.66c0.86,1.41,1.48,3.02,1.89,4.61c0.22,0.86-0.04,1.98-0.43,2.84c-0.91,2-0.51,4.06,1.12,5.32
			C346.97,366,347.45,366.44,347.99,366.91z"/>
		<path class="st0" d="M340.1,403.2c3.95-0.92,6.27-3.82,9.25-5.8c0.06,0.08,0.13,0.27,0.26,0.35c0.95,0.57,1.58,1.23,1.05,2.45
			c-0.39,0.91-0.55,1.95-1.08,2.75c-0.93,1.41-2.5,2.5-2.04,4.52c0.11,0.49,0.15,1.12,0.48,1.4c1.83,1.58,0.53,3.12-0.05,4.58
			c-0.88,2.19-2.78,3.51-4.69,4.7c-2.11,1.31-4.32,2.47-6.49,3.69c-0.86-1.43-1.6-2.65-2.22-3.68c1.89-2.1,3.86-4.07,5.51-6.27
			c0.63-0.84,0.58-2.23,0.72-3.38C341.03,406.75,341.42,404.93,340.1,403.2z"/>
		<path class="st0" d="M329.65,394.98c2.65-2.94,3.95-6.38,2.83-10.54c0.36-0.11,0.76-0.24,1.16-0.36c0.96-0.31,1.72-0.56,2.83,0.18
			c1.22,0.81,2.95,0.85,4.45,1.24c1.55,0.4,3.1,0.76,4.63,1.22c2.03,0.61,2.79,3.83,1.17,5.43c-2.56,2.5-5.31,4.8-8.72,6.1
			c-0.4,0.15-1.02-0.09-1.49-0.28C334.23,397,331.96,395.99,329.65,394.98z"/>
		<path class="st0" d="M258.54,393.55c0.7,0.5,1.24,0.8,1.69,1.22c0.97,0.91,1.85,1.93,2.85,2.81c1.08,0.95,1.32,2.1,0.92,3.37
			c-0.6,1.86-1.56,3.46-3.4,4.44c-2.3,1.22-2.46,2.15-2.17,4.73c0.35,3.1,0.53,6.32-2.17,8.71c-0.55,0.48-1.21,0.84-1.93,1.33
			c-1.2-2.5-2.98-4.39-5.12-5.61c0.88-1.39,1.95-2.69,2.57-4.18c0.64-1.56,0.82-3.31,1.26-4.96c0.12-0.46,0.34-1.05,0.7-1.26
			c3.71-2.24,4.74-5.76,4.8-9.77C258.54,394.22,258.54,394.06,258.54,393.55z"/>
		<path class="st0" d="M287.93,430.06c0-2.74,0-5.42,0-8.24c5.92-1.26,10.23-4.9,13.25-10.19c1.61,4.72,1.62,9.36-0.64,13.74
			c-1.4,2.72-3.52,4.88-6.93,4.99c-1.64,0.05-3.28,0.02-4.92-0.01C288.43,430.34,288.19,430.16,287.93,430.06z"/>
		<path class="st0" d="M243.78,440.22c2.34,0.02,4.79-0.36,6.81-2.04c2.18,3.54,5.04,6.11,8.66,7.93c0.13,2.23-1.36,3.52-2.82,4.88
			c-1.76,1.64-3.77,1.22-5.78,0.85c-1.34-0.25-2.75-0.36-3.97-0.91c-1.28-0.57-2.36-1.58-3.51-2.42c-1.27-0.93-1.43-1.84-0.55-3.36
			C243.4,443.81,243.4,442.02,243.78,440.22z"/>
		<path class="st0" d="M305.71,353.1c0.6-0.27,1.3-0.59,1.94-0.89c1.28,0.73,2.67,1.26,3.72,2.18c1.38,1.21,2.71,2.59,3.68,4.13
			c1.73,2.76,2.72,5.8,3.06,9.12c0.19,1.89-0.42,3.23-1.38,4.63c-0.84,1.23-2.08,1.34-3.34,1.44c-0.74-2.85-1.87-5.3-4.69-6.59
			c-0.35-0.16-0.69-0.73-0.73-1.14c-0.22-2.4-0.18-4.83-0.56-7.19C307.12,356.92,306.33,355.11,305.71,353.1z"/>
		<path class="st0" d="M278.38,441.73c3.28-1.25,5.62-3.32,7.31-6.16c0.14-0.24,0.67-0.39,1-0.36c3.47,0.27,6.95,0.55,10.36-0.33
			c0.88-0.23,1.69-0.81,2.49-1.29c1.03-0.62,2.03-1.29,3.09-1.96c0.4,0.85,1.87,1.12,1.45,2.42c-0.51,1.58-0.26,3.5-1.9,4.59
			c-0.33,0.22-0.79,0.34-1.19,0.34c-2.19,0.03-4.39,0.01-6.59,0.02c-2.21,0-3.15,0.91-3.25,3.11c-0.09,1.95-2.39,3.62-4.32,3.42
			c-1.69-0.17-3.38-0.25-4.85-1.19C280.8,443.57,279.68,442.67,278.38,441.73z"/>
		<path class="st0" d="M340.91,436.34c-2.87,1.06-5.74,2.12-8.61,3.2c-1.49,0.56-2.95,1.24-4.46,1.74
			c-3.18,1.04-6.37,2.04-9.59,2.95c-0.59,0.17-1.32-0.08-1.98-0.2c-2.82-0.48-5.22-1.54-6.43-4.41c-0.2-0.49-0.72-0.84-1.15-1.33
			c0.03-0.07,0.1-0.2,0.14-0.33c0.24-0.68,0.47-1.37,0.7-2.05c0.65,0.22,1.29,0.53,1.96,0.66c1.92,0.37,3.85,0.7,5.78,0.98
			c1.47,0.21,2.95,0.42,4.44,0.47c3.38,0.12,6.45-1.13,9.47-2.41c0.92-0.39,1.68-1.14,2.57-1.76
			C335.88,435.19,338.24,436.07,340.91,436.34z"/>
		<path class="st0" d="M375.39,370.16c-1.81,3.28-5.04,5.11-8.88,5.96c-1.57,0.35-2.04-1.3-2.89-2.16c-0.81-0.81-1.52-1.73-2.3-2.63
			c0.76-1.27,1.85-2.58,2.35-4.08c0.5-1.49,0.41-3.19,0.61-4.99c2.68,0.07,5.57,0.16,8.12-2.14
			C373.41,363.54,374.36,366.71,375.39,370.16z"/>
		<path class="st0" d="M357.82,335.81c-1.17,1.16-2.09,2.08-2.91,2.9c-1.75-0.84-3.55-1.71-5.37-2.56
			c-0.35-0.16-0.78-0.33-1.12-0.27c-1.36,0.25-1.99-0.44-2.62-1.53c-1.3-2.24-3.28-3.7-5.77-4.53c-1.72-0.57-3.38-1.31-5.03-1.96
			c1.03-1.61,3.82-2.6,5.69-1.91c0.25,0.09,0.55,0.04,0.83,0.07c2.51,0.23,5.01,0.47,7.52,0.71c0.24,0.02,0.53,0.1,0.71,0
			c1.2-0.7,2.01,0.24,2.5,0.9C354.25,330.36,356.08,333.22,357.82,335.81z"/>
		<path class="st0" d="M322.53,338.22c0.07-2.29,2.25-2.56,3.41-3.78c0.86-0.91,1.87-1.69,2.84-2.49c0.23-0.19,0.63-0.44,0.84-0.36
			c2.84,1.07,5.68,2.14,8.47,3.3c2.76,1.15,4.02,3.47,4.55,6.27c0.15,0.77-1.4,1.94-2.18,1.57c-2.87-1.35-5.91-0.71-8.88-0.89
			c-0.34-0.02-0.77-0.09-0.99-0.3c-1.92-1.84-4.27-2.69-6.85-3.05C323.31,338.43,322.9,338.3,322.53,338.22z"/>
		<path class="st0" d="M321.65,408.23c0.89-2.59,1.77-5.13,2.61-7.67c0.38-1.13,1.25-0.68,1.87-0.54c1.59,0.37,3.14,0.92,4.72,1.36
			c3.02,0.84,4.38,3.16,5.11,5.91c0.29,1.08-0.45,2.01-1.29,2.74c-1.3,1.13-2.64,2.23-3.88,3.42c-0.72,0.69-1.21,0.06-1.64-0.21
			c-1.88-1.19-3.71-2.48-5.55-3.73C322.92,409.05,322.23,408.61,321.65,408.23z"/>
		<path class="st0" d="M367.24,384.18c1.12,0.59,2.36,1.08,3.41,1.84c0.96,0.69,1.85,1.56,2.54,2.53c1.46,2.07,1.67,2.65-0.03,5.48
			c-0.48,0.79-0.92,1.61-1.42,2.49c-2.18-0.15-4.02,0.85-5.66,2.4c0.14-2.56,0.52-4.99-0.31-7.38c-0.04-0.11,0.02-0.27-0.05-0.35
			c-0.92-1.22-0.94-2.14,0.3-3.36C366.8,387.08,366.82,385.56,367.24,384.18z"/>
		<path class="st0" d="M358.32,352.78c-2.62-2.53-5.79-2.16-8.95-1.93c-1.09-1.5-2.22-3.05-3.38-4.64c1.63-1.09,2.05-2.86,2.09-5.09
			c2.41,1.35,4.72,2.46,6.81,3.89c1.47,1.01,2.7,2.39,3.91,3.73C359.66,349.67,359.44,351.11,358.32,352.78z"/>
		<path class="st0" d="M351.14,355.38c2.16,0.64,4.12,0.83,5.69,2.69c1.73,2.04,1.9,4.27,1.97,6.65c0.02,0.69-2.47,3.72-3.12,3.72
			c-0.74,0-1.47-0.19-2.36-0.32c0.14-2.38-0.57-4.56-2.45-6.27C351.96,359.82,351.07,357.72,351.14,355.38z"/>
		<path class="st0" d="M347.18,422.22c4.68-3.16,7.04-7.24,6.65-12.79c1.82,0.32,3.08-0.24,4.24-1.21c0.64-0.53,0.92,0.17,0.93,0.55
			c0.01,2.32,0.46,4.72-0.56,6.91c-0.47,1-1.35,1.83-2.14,2.64c-0.97,1.01-2.07,1.89-3.06,2.88
			C351.54,422.91,349.52,422.48,347.18,422.22z"/>
		<path class="st0" d="M279.61,294.5c0.58-1.04,1.28-2.28,2.09-3.72c4.49,0.83,9.25,1.71,14.14,2.62c-0.98,1.83-2.22,3.02-4.02,3.58
			c-0.44,0.14-0.91,0.22-1.35,0.36c-1.67,0.53-3.1,0.69-4.82-0.48C283.89,295.66,281.6,295.24,279.61,294.5z"/>
		<path class="st0" d="M301.1,306.92c1.79-0.46,3.42-0.93,5.07-1.28c0.92-0.19,1.88-0.18,2.82-0.26c1.22-0.1,1.9,0.6,2.03,1.67
			c0.15,1.23,0.05,2.48,0.05,3.73c0,0.71,0,1.42,0,2.18c-2.26,0.45-4.66,0.93-7.18,1.43C304.17,311.64,302.9,309.35,301.1,306.92z"
			/>
		<path class="st0" d="M337.3,427c1-0.29,1.88-0.67,2.78-0.78c0.63-0.08,1.31,0.23,1.97,0.3c2.3,0.26,4.6,0.49,6.9,0.72
			c0.51,0.05,1.03,0.01,1.93,0.01c-0.35,0.52-0.52,0.86-0.78,1.12c-0.51,0.53-1.16,0.95-1.59,1.54c-0.72,0.95-1.51,1.54-2.78,1.43
			c-1.61-0.14-3.28,0.02-4.84-0.32c-1.26-0.27-2.43-1.03-3.57-1.69c-0.25-0.14-0.3-0.77-0.3-1.17
			C337.03,427.75,337.21,427.34,337.3,427z"/>
		<path class="st0" d="M317.43,304.66c0.42-0.85,0.86-1.72,1.39-2.81c4.12,2.32,8.22,4.63,12.26,6.91
			c-0.39,2.65-1.77,3.68-4.66,3.54c0-0.45-0.06-0.92,0.01-1.37c0.17-1.15-0.33-1.93-1.23-2.57
			C322.77,306.63,320.19,305.2,317.43,304.66z"/>
		<path class="st0" d="M369.52,354.67c-1.48,2.61-3.8,2.94-6.3,2.74c-0.36-0.03-0.7-0.42-1-0.61c1.82-2,3.04-3.81,2.38-6.35
			c-0.27-1.05-0.13-2.24-0.53-3.22c-0.89-2.17-2.42-3.9-4.52-5.21c0.37-0.42,0.71-0.81,1.16-1.33
			C363.69,345.43,366.66,350.14,369.52,354.67z"/>
		<path class="st0" d="M355.48,403.3c-0.03-2.76,0.96-5.42-0.61-7.94c1.69-0.74,3.46-1.51,5.27-2.3c1.44,0.95,1.75,1.74,0.99,3.61
			C360,399.42,357.9,401.39,355.48,403.3z"/>
		<path class="st0" d="M329.93,324.32c-0.35-2.97-1.95-4.89-3.68-6.79c0.18-0.12,0.34-0.32,0.47-0.3c2.2,0.38,4.54-0.41,6.65,0.75
			c1.35,0.74,1.69,2.54,0.52,3.52C332.74,322.48,331.41,323.28,329.93,324.32z"/>
		<path class="st0" d="M302.97,300.72c-1.28,0.54-2.56,1.09-3.84,1.64c-0.96,0.41-1.33,1.17-1.27,2.06
			c-2.07-0.51-4.12-1.03-6.18-1.54c-0.03-0.08-0.05-0.17-0.08-0.25c0.67-0.25,1.33-0.61,2.03-0.73c1.75-0.32,2.98-1.45,4.2-2.58
			c1.39-1.29,1.89-1.34,3.32-0.13C301.74,299.69,302.34,300.19,302.97,300.72z"/>
		<path class="st0" d="M345.64,321.2c-1.79-0.27-3.59-0.54-5.48-0.83c-0.12-1.85-0.41-3.77-1.74-5.26
			c-0.65-0.73-1.51-1.29-2.33-1.85c-0.6-0.42-0.64-0.37-0.12-1.22c3.54,2.62,6.99,5.32,9.81,8.71
			C345.74,320.89,345.69,321.04,345.64,321.2z"/>
		<path class="st0" d="M313.8,300.45c-2.38-0.14-4.75-0.29-7.09-0.43c0-0.84,0-1.7,0-2.8c2.51,0.91,4.87,1.77,7.24,2.62
			C313.9,300.04,313.85,300.25,313.8,300.45z"/>
		<path class="st0" d="M316.7,310.06c1.8,0.56,3.79,0.84,5.21,2.83c-1.98,0.12-3.79,0.23-5.63,0.34
			C316.44,312.03,316.57,311.05,316.7,310.06z"/>
		<path class="st0" d="M364.33,415.55c0-1.34-0.03-2.69,0.02-4.03c0.01-0.31,0.22-0.66,0.44-0.9c0.72-0.79,1.48-1.53,2.44-2.51
			c-0.19,2.99-1.68,5.14-2.58,7.5C364.54,415.59,364.44,415.57,364.33,415.55z"/>
		<path class="st0" d="M357.88,424.83c-0.76,0.67-1.53,1.34-2.27,1.99c-0.52-0.69-0.51-0.68,0.33-1.15c0.6-0.33,1.18-0.7,1.76-1.05
			C357.76,424.69,357.82,424.76,357.88,424.83z"/>
		<path class="st0" d="M362.87,403.99c0.61-0.76,1.23-1.52,1.88-2.33c0.34,1.58-1.27,1.56-1.52,2.61
			C363.11,404.18,362.99,404.09,362.87,403.99z"/>
		<path d="M199.77,343.36c0-2.24-0.06-4.48,0.01-6.71c0.11-3.61,0.31-7.21,0.47-10.81c0-0.08-0.02-0.18,0.01-0.24
			c1.43-2.51,1.13-5.46,2.13-8.09c0.74-1.95,1.8-2.74,3.88-2.78c1.48-0.03,3.04-0.14,4.13,0.99c1.05,1.09,1.97,2.36,2.72,3.68
			c1.88,3.32,3.23,6.86,3.86,10.63c0.33,1.94,0.47,3.92,0.52,5.89c0.08,3.39,0.17,6.8-0.01,10.18c-0.24,4.36-0.72,8.71-1.16,13.06
			c-0.24,2.3-0.56,4.6-0.98,6.87c-0.47,2.53-1.33,4.98-2.76,7.12c-0.74,1.11-1.97,1.94-3.53,1.8c-1.27-0.11-2.65,0.37-3.73-0.72
			c-0.3-0.3-0.65-0.58-0.84-0.94c-1.74-3.37-2.61-7.01-3.27-10.71c-0.36-2-0.72-4-1.02-6.01c-0.2-1.32-0.38-2.66-0.4-3.99
			C199.73,349.52,199.77,346.44,199.77,343.36z"/>
		<path d="M222.4,395.56c-1.13-1.13-2.25-2.22-3.33-3.35c-0.99-1.05-1.18-3.24-0.4-4.14c0.75-0.87,3.09-0.95,4.15,0.03
			c1.26,1.17,2.48,2.41,3.54,3.76c2.98,3.83,1.48,7.3-2.06,9.43c-2.48,1.5-5.22,2.54-8.17,2.15c-2.14-0.28-4.23-1.01-6.34-1.55
			c-0.49-0.13-1-0.25-1.42-0.5c-1.35-0.8-2.01-3.16-1.1-4.43c0.74-1.03,2.01-0.64,3.09-0.62c0.26,0,0.56,0.1,0.77,0.25
			c1.41,1.06,2.98,1.34,4.75,1.45C218.67,398.21,220.92,397.19,222.4,395.56z"/>
		<path d="M172.65,334.79c-0.94-0.15-1.65-0.13-2.23-0.39c-0.9-0.41-1.21-1.9-0.81-3.28c0.27-0.93,0.75-1.47,1.82-1.86
			c1.02-0.37,1.96-1.43,2.56-2.41c1.14-1.86,2-3.88,3-5.82c0.11-0.21,0.35-0.47,0.56-0.5c0.93-0.12,1.9-0.33,2.81-0.19
			c1,0.15,1.32,1.12,1.38,2.02c0.05,0.73,0.01,1.54-0.25,2.21c-0.77,1.96-1.84,3.76-3.25,5.36c-1.21,1.38-2.28,2.9-3.59,4.19
			C174.17,334.61,173.2,334.62,172.65,334.79z"/>
		<path d="M422.38,425.07c0-0.24,0-0.48,0-0.72c-0.01-0.72-0.11-1.57,0.9-1.63c0.88-0.06,1.73-0.23,2.3,1.03
			c0.58,1.3,1.69,2.4,2.68,3.47c2.11,2.28,4.28,4.49,6.45,6.71c1.14,1.17,2.29,2.33,3.47,3.45c0.33,0.31,0.76,0.53,1.17,0.72
			c1.14,0.52,1.83,3.01,1.07,3.98c-0.16,0.2-0.4,0.47-0.61,0.47c-1.87,0.05-3.79,0.28-5.35-1.19c-2.55-2.41-5.23-4.7-7.65-7.24
			c-1.91-2.01-3.6-4.26-4.26-7.07c-0.15-0.65-0.17-1.32-0.25-1.99C422.33,425.07,422.35,425.07,422.38,425.07z"/>
		<path d="M425.91,356.96c-2.3,0-3.22-1.57-2.08-3.73c1.81-3.44,3.88-6.74,5.8-10.13c1.25-2.2,2.87-4,5.44-4.42
			c1.26-0.21,2.63,0.06,3.92,0.27c0.35,0.06,0.77,0.68,0.86,1.1c0.14,0.73,0.16,1.54-0.01,2.26c-0.09,0.39-0.7,0.95-1.04,0.93
			c-2.04-0.13-3.36,1.1-4.3,2.53c-1.87,2.87-3.43,5.94-5.22,8.86C428.49,355.91,427.71,357.43,425.91,356.96z"/>
		<path d="M397.87,391.07c1.99,0.5,3.61,0.97,4.67,2.51c0.7,1.03,1.38,2.07,2.09,3.09c1.15,1.65,0.79,3.63,1.2,5.45
			c0.08,0.34,0.29,0.72,0.21,1.02c-0.18,0.62-0.36,1.5-0.81,1.72c-0.78,0.37-1.53-0.05-2.06-0.88c-1.52-2.37-3.09-4.71-4.73-7.01
			c-0.46-0.64-1.24-1.03-1.81-1.6c-0.73-0.73-1.01-2.48-0.38-3.29C396.64,391.58,397.4,391.35,397.87,391.07z"/>
		<path d="M395.48,384.79c-0.32,0-0.64,0-0.96,0c-0.91,0.01-1.77-0.37-1.82-1.26c-0.06-0.91-0.61-2.04,0.85-2.72
			c2.1-0.98,3.7-2.6,4.89-4.64c0.41-0.7,1.22-1.42,1.98-1.62c2.09-0.55,2.79,0.11,2.77,2.26c-0.02,1.42-0.45,2.75-1.42,3.77
			c-1.26,1.33-2.61,2.61-4.04,3.75c-0.55,0.44-1.45,0.44-2.2,0.65C395.51,384.9,395.5,384.85,395.48,384.79z"/>
		<path d="M441.21,411.89c0.32,0,0.64,0,0.96,0c2.02,0,2.54,0.54,2.52,2.6c-0.01,1.5-0.67,2.24-2.13,2.18
			c-1.68-0.08-3.35-0.25-5.02-0.46c-1.09-0.13-0.99-1.04-1-1.83c-0.01-0.83-0.11-1.74,0.97-1.99c1.21-0.28,2.44-0.47,3.66-0.7
			C441.18,411.77,441.19,411.83,441.21,411.89z"/>
		<path d="M436.09,369.2c0.56,0,1.11-0.02,1.67,0c1.1,0.05,1.64,0.6,1.65,1.67c0.04,3.05-0.04,3.13-3.19,3.12
			c-1.12,0-2.11-0.04-3.12-0.88c-1.02-0.86-0.69-1.82-0.55-2.64c0.08-0.5,1-0.99,1.64-1.22C434.76,369.04,435.45,369.2,436.09,369.2
			z"/>
		<path d="M437.93,387.99c-0.81-0.12-1.63-0.21-2.43-0.38c-0.84-0.18-1.41-0.63-1.37-1.6c0.04-1-0.26-2.13,1.14-2.49
			c1.68-0.44,3.39-0.78,5.06-0.04c0.35,0.16,0.51,0.74,0.76,1.13c0.02,0.03,0,0.08,0,0.12
			C441.14,387.78,441.02,387.91,437.93,387.99z"/>
		<path d="M440.13,398.56c0,1.93-0.3,2.28-2.24,2.28c-1.14,0-2.31-0.01-3.41-0.27c-0.87-0.21-1.4-0.91-1.32-1.96
			c0.09-1.24,0.66-2.19,1.73-2.27c1.39-0.1,2.8-0.12,4.18,0C440.51,396.47,440.07,397.68,440.13,398.56z"/>
		<path d="M379.92,381.95c0,1.63,0,1.63-1.73,1.63c-1.63,0-1.63,0-1.63-1.66c0-1.6,0.1-1.7,1.68-1.7
			C379.92,380.23,379.92,380.23,379.92,381.95z"/>
		<path d="M294.84,481.08c-2.82-0.6-5.66-1.12-8.45-1.82c-1.62-0.41-3.98-3.29-3.64-5.27c0.13-0.76,0.39-1.07,1.17-1.19
			c1.46-0.22,2.8,0.27,3.9,0.96c1.98,1.25,4.22,1.34,6.35,1.92c0.86,0.23,1.8,0.15,2.7,0.28c0.94,0.13,1.57,0.6,1.51,1.67
			c-0.02,0.4,0,0.8,0,1.2c-0.02,1.47-0.45,1.91-1.89,1.92c-0.52,0-1.04,0-1.56,0C294.89,480.85,294.86,480.97,294.84,481.08z"/>
		<path d="M294.77,466.4c1.92,0.35,3.85,0.69,5.77,1.04c0.8,0.15,1.63,0.23,2.39,0.51c0.32,0.12,0.53,0.65,0.7,1.04
			c0.1,0.24,0.02,0.55,0.02,0.83c0,2.24-0.27,2.46-2.49,2.54c-2.66,0.09-5.22-0.34-7.72-1.21c-1.36-0.47-2.16-3.14-1.2-4.23
			c0.17-0.2,0.54-0.28,0.83-0.31c0.55-0.05,1.12-0.01,1.68-0.01C294.74,466.52,294.75,466.46,294.77,466.4z"/>
		<path d="M300.98,460.35c-1.29,0.31-2.56-0.31-3.76-1.24c-0.85-0.65-1.49-2.8-0.91-3.7c0.2-0.32,0.79-0.57,1.19-0.55
			c1.93,0.1,3.86,0.23,5.76,0.5c0.48,0.07,1.08,0.63,1.27,1.11c0.87,2.17-0.35,3.88-2.67,3.88
			C301.67,460.35,301.47,460.35,300.98,460.35z"/>
	</g>
</g>
</svg>
