<?xml version="1.0" encoding="utf-8"?>
<!-- Generator: Adobe Illustrator 24.1.3, SVG Export Plug-In . SVG Version: 6.00 Build 0)  -->
<svg version="1.1" id="Calque_1" xmlns="http://www.w3.org/2000/svg" xmlns:xlink="http://www.w3.org/1999/xlink" x="0px" y="0px"
	 viewBox="0 0 595.28 841.89" style="enable-background:new 0 0 595.28 841.89;" xml:space="preserve">
<style type="text/css">
	.st0{fill:#FFFFFF;}
</style>
<g>
	<g>
		<path class="st0" d="M58,660.89c0-160,0-320,0-480c160,0,320,0,480,0c0,160,0,320,0,480C378,660.89,218,660.89,58,660.89z
			 M380.25,479.65c1.91-0.36,3.76-0.7,5.6-1.07c5.29-1.06,10.6-2,15.85-3.25c7.9-1.88,15.74-3.99,23.34-6.87
			c5.29-2.01,10.55-4.14,15.68-6.54c4-1.87,7.82-4.15,11.64-6.39c6.81-3.99,13.22-8.53,18.48-14.51c2-2.27,3.51-4.78,3.84-7.88
			c0.48-4.62-0.96-8.72-3.41-12.51c-1.89-2.92-4.18-5.47-6.76-7.86c-3.42-3.17-7.27-5.66-11.31-7.79
			c-5.09-2.68-10.37-5.01-15.65-7.28c-3.87-1.66-7.84-3.1-11.85-4.38c-3.34-1.07-6.78-1.85-10.21-2.6
			c-4.62-1.01-9.25-1.98-13.91-2.78c-4.1-0.7-8.24-1.14-12.36-1.72c-3.87-0.55-7.74-1.13-11.52-1.69c-0.39-1.96-0.78-3.8-1.12-5.64
			c-0.48-2.62-0.92-5.24-1.37-7.87c-0.43-2.55-0.85-5.1-1.28-7.65c-0.53-3.2-1.02-6.42-1.62-9.61c-0.52-2.76-1.09-5.52-1.75-8.25
			c-1.55-6.41-3.06-12.83-4.81-19.19c-1.16-4.21-2.62-8.34-4.14-12.43c-1.49-4.02-2.98-8.08-4.94-11.89
			c-2.23-4.34-4.87-8.48-7.51-12.59c-3.28-5.11-7.33-9.6-11.66-13.83c-2.96-2.89-5.8-5.95-9.07-8.45
			c-4.15-3.18-8.54-6.06-13.42-8.13c-3.67-1.56-7.27-3.26-11.18-4.12c-4.04-0.88-8.11-1.62-12.27-1.54c-2.7,0.05-5.41,0.2-8.11,0.22
			c-3.87,0.03-7.68,0.52-11.43,1.44c-4.21,1.04-8.13,2.85-11.38,5.59c-3.71,3.13-7.3,6.54-10.3,10.33
			c-3.78,4.77-7.29,9.77-10.36,15.08c-3.08,5.34-5.92,10.77-8.53,16.34c-2.77,5.93-4.99,12.06-6.89,18.28
			c-2,6.53-3.67,13.15-5.34,19.77c-0.75,2.99-1.14,6.07-1.72,9.1c-0.29,1.5-0.71,2.97-0.94,4.47c-0.46,3.07-0.86,6.14-1.23,9.22
			c-0.36,3.01-0.67,6.02-0.93,9.04c-0.11,1.26-0.02,2.54-0.02,3.78c-0.65,0.13-1.18,0.25-1.72,0.36c-3.67,0.76-7.35,1.46-11,2.3
			c-2.54,0.59-5.05,1.33-7.55,2.08c-5.45,1.63-10.93,3.16-16.3,5.02c-4.53,1.57-9,3.38-13.34,5.42c-5.56,2.62-10.82,5.81-15.89,9.32
			c-3.61,2.5-7.1,5.12-10.14,8.29c-1.63,1.7-2.4,3.94-1.63,6.12c1.17,3.3,2.51,6.63,4.35,9.59c1.86,2.98,4.27,5.66,6.7,8.23
			c4.84,5.11,9.81,10.11,15.38,14.44c5.66,4.41,11.78,8.13,18.12,11.51c6.47,3.44,13.11,6.52,19.91,9.24
			c3.28,1.31,6.64,2.42,10.04,3.65c-1.72,3.2-3.64,6.28-3.72,9.88c-1.08,0-2.12-0.05-3.14,0.02c-0.74,0.04-0.99,0.56-1.12,1.28
			c-0.37,2.05,0.66,3.53,1.99,4.8c0.7,0.67,1.65,1.41,2.55,1.49c1.37,0.13,2.52,0.28,3.46,1.43c0.59,0.72,2.89,0.41,2.97-0.35
			c0.1-0.95,0.12-2.1-0.34-2.86c-0.79-1.32-1.97-2.41-2.87-3.45c1.87-3.46,3.77-6.98,5.68-10.5c9.94,2.42,19.79,5.1,29.92,6.48
			c4.59,0.63,9.17,1.33,13.76,1.88c4.11,0.49,8.23,0.9,12.35,1.2c4.62,0.33,9.26,0.5,13.89,0.74c3.05,0.16,6.09,0.34,9.14,0.47
			c2.7,0.11,5.41,0.25,8.11,0.23c6.18-0.03,12.36-0.13,18.54-0.23c2.82-0.05,5.65-0.16,8.47-0.23c3.46-0.09,6.93-0.12,10.39-0.26
			c2.49-0.09,4.98-0.28,7.46-0.48c3.54-0.29,7.07-0.62,10.6-0.95c1.68-0.16,3.36-0.37,5.05-0.54c2.19-0.22,4.39-0.47,6.59-0.61
			c0.3-0.02,0.79,0.4,0.93,0.72c0.39,0.88,0.51,1.89,0.97,2.73c1.04,1.88,2.08,3.8,3.42,5.46c0.79,0.99,0.64,1.46-0.18,2.08
			c-1.42,1.08-1.16,2.63-1,4.05c0.05,0.46,0.88,1.12,1.41,1.18c2.2,0.26,4.26-0.26,6.17-1.46c0.6-0.38,1.39-0.56,2.12-0.62
			c1.08-0.08,1.74-0.57,2-1.6c0.1-0.38,0.44-0.84,0.8-0.99c1.75-0.78,2.87-1.84,2.57-4c-0.18-1.25-0.6-1.98-1.85-1.8
			c-2.25,0.33-4.48,0.88-7.06,1.41c-0.7-1.78-1.54-3.87-2.4-6.06C380.81,481.82,379.88,480.49,380.25,479.65z"/>
		<path d="M380.25,479.65c-0.37,0.84,0.56,2.17-1.31,2.47c0.87,2.19,1.7,4.29,2.4,6.06c2.58-0.53,4.81-1.08,7.06-1.41
			c1.25-0.18,1.68,0.55,1.85,1.8c0.31,2.15-0.82,3.21-2.57,4c-0.35,0.16-0.7,0.61-0.8,0.99c-0.27,1.03-0.92,1.52-2,1.6
			c-0.72,0.05-1.51,0.24-2.12,0.62c-1.91,1.2-3.97,1.72-6.17,1.46c-0.53-0.06-1.36-0.72-1.41-1.18c-0.16-1.42-0.42-2.97,1-4.05
			c0.82-0.62,0.97-1.09,0.18-2.08c-1.33-1.67-2.37-3.59-3.42-5.46c-0.46-0.83-0.58-1.84-0.97-2.73c-0.14-0.33-0.63-0.74-0.93-0.72
			c-2.2,0.15-4.39,0.39-6.59,0.61c-1.68,0.17-3.36,0.39-5.05,0.54c-3.53,0.33-7.07,0.66-10.6,0.95c-2.48,0.2-4.97,0.39-7.46,0.48
			c-3.46,0.13-6.92,0.17-10.39,0.26c-2.82,0.07-5.65,0.19-8.47,0.23c-6.18,0.1-12.36,0.2-18.54,0.23c-2.7,0.01-5.41-0.12-8.11-0.23
			c-3.05-0.13-6.09-0.31-9.14-0.47c-4.63-0.24-9.27-0.41-13.89-0.74c-4.13-0.3-8.25-0.71-12.35-1.2c-4.6-0.55-9.18-1.26-13.76-1.88
			c-10.13-1.38-19.98-4.06-29.92-6.48c-1.9,3.52-3.81,7.04-5.68,10.5c0.9,1.04,2.08,2.13,2.87,3.45c0.45,0.76,0.43,1.91,0.34,2.86
			c-0.08,0.76-2.37,1.07-2.97,0.35c-0.94-1.15-2.09-1.3-3.46-1.43c-0.9-0.09-1.84-0.82-2.55-1.49c-1.33-1.27-2.36-2.75-1.99-4.8
			c0.13-0.71,0.38-1.23,1.12-1.28c1.03-0.06,2.06-0.02,3.14-0.02c0.08-3.6,2-6.68,3.72-9.88c-3.4-1.23-6.76-2.34-10.04-3.65
			c-6.8-2.71-13.44-5.79-19.91-9.24c-6.34-3.37-12.45-7.1-18.12-11.51c-5.56-4.33-10.54-9.33-15.38-14.44
			c-2.43-2.57-4.84-5.25-6.7-8.23c-1.84-2.96-3.18-6.28-4.35-9.59c-0.78-2.18,0-4.42,1.63-6.12c3.04-3.17,6.53-5.79,10.14-8.29
			c5.07-3.51,10.32-6.7,15.89-9.32c4.34-2.04,8.81-3.85,13.34-5.42c5.37-1.87,10.85-3.39,16.3-5.02c2.5-0.75,5.01-1.49,7.55-2.08
			c3.65-0.84,7.33-1.54,11-2.3c0.53-0.11,1.07-0.22,1.72-0.36c0-1.24-0.09-2.52,0.02-3.78c0.26-3.02,0.58-6.03,0.93-9.04
			c0.36-3.08,0.76-6.16,1.23-9.22c0.23-1.5,0.65-2.98,0.94-4.47c0.58-3.03,0.96-6.11,1.72-9.1c1.67-6.62,3.34-13.25,5.34-19.77
			c1.9-6.23,4.13-12.36,6.89-18.28c2.6-5.58,5.45-11.01,8.53-16.34c3.07-5.31,6.58-10.32,10.36-15.08c3-3.79,6.59-7.2,10.3-10.33
			c3.25-2.74,7.17-4.56,11.38-5.59c3.76-0.93,7.56-1.42,11.43-1.44c2.7-0.02,5.41-0.17,8.11-0.22c4.16-0.07,8.23,0.66,12.27,1.54
			c3.91,0.86,7.51,2.56,11.18,4.12c4.88,2.07,9.27,4.95,13.42,8.13c3.26,2.5,6.11,5.56,9.07,8.45c4.33,4.23,8.38,8.73,11.66,13.83
			c2.64,4.11,5.28,8.25,7.51,12.59c1.95,3.81,3.44,7.86,4.94,11.89c1.52,4.09,2.98,8.23,4.14,12.43c1.75,6.35,3.26,12.78,4.81,19.19
			c0.66,2.73,1.24,5.49,1.75,8.25c0.6,3.19,1.08,6.41,1.62,9.61c0.42,2.55,0.84,5.1,1.28,7.65c0.45,2.62,0.89,5.25,1.37,7.87
			c0.34,1.84,0.73,3.68,1.12,5.64c3.78,0.56,7.65,1.14,11.52,1.69c4.12,0.58,8.26,1.01,12.36,1.72c4.66,0.8,9.29,1.77,13.91,2.78
			c3.43,0.75,6.87,1.53,10.21,2.6c4.01,1.28,7.99,2.73,11.85,4.38c5.29,2.27,10.57,4.6,15.65,7.28c4.04,2.13,7.89,4.62,11.31,7.79
			c2.58,2.39,4.87,4.94,6.76,7.86c2.45,3.79,3.89,7.89,3.41,12.51c-0.32,3.1-1.84,5.61-3.84,7.88
			c-5.26,5.98-11.67,10.52-18.48,14.51c-3.82,2.24-7.64,4.52-11.64,6.39c-5.13,2.4-10.39,4.53-15.68,6.54
			c-7.6,2.88-15.44,5-23.34,6.87c-5.24,1.25-10.56,2.18-15.85,3.25C384.01,478.95,382.16,479.29,380.25,479.65z M212.19,381.82
			c-1.38,0.24-2.75,0.37-4.05,0.73c-4.13,1.13-8.26,2.28-12.36,3.53c-5.96,1.81-11.94,3.58-17.83,5.6
			c-3.91,1.34-7.77,2.88-11.49,4.68c-5,2.42-9.81,5.24-14.27,8.58c-3.2,2.4-6.31,4.95-9.4,7.5c-0.37,0.3-0.57,1.04-0.54,1.55
			c0.04,0.63,0.4,1.25,0.63,1.86c2.01,5.27,5.74,9.38,9.45,13.42c4.7,5.11,9.74,9.9,15.26,14.16c5.04,3.89,10.45,7.2,16.02,10.22
			c3.85,2.09,7.83,3.96,11.84,5.71c4.69,2.05,9.43,3.98,14.23,5.76c7.08,2.63,14.38,4.51,21.77,6.04
			c5.63,1.17,11.25,2.32,16.91,3.33c3.94,0.7,7.92,1.19,11.89,1.68c3.83,0.47,7.67,0.87,11.51,1.2c3.7,0.32,7.42,0.52,11.13,0.73
			c3.29,0.19,6.57,0.34,9.86,0.48c4.01,0.17,8.01,0.43,12.02,0.46c5.3,0.03,10.6-0.12,15.9-0.22c3.42-0.06,6.85-0.13,10.27-0.24
			c3.89-0.13,7.78-0.28,11.66-0.48c3.59-0.19,7.18-0.47,10.77-0.71c0.94-0.07,1.89-0.15,2.83-0.26c2.66-0.3,5.31-0.64,7.96-0.93
			c1.88-0.2,3.78-0.25,5.66-0.52c3.45-0.49,6.89-1.06,10.33-1.65c4.51-0.77,9.07-1.37,13.51-2.45c8-1.94,15.97-4.04,23.87-6.34
			c4-1.16,7.87-2.8,11.72-4.41c4.22-1.76,8.41-3.6,12.5-5.63c5.44-2.71,10.62-5.88,15.49-9.52c3.38-2.52,6.75-5.09,9.43-8.41
			c0.81-1,1.68-2.04,2.15-3.2c1-2.46,0.59-4.97-0.53-7.28c-1.8-3.71-4.3-6.86-7.38-9.69c-3.43-3.15-7.27-5.66-11.31-7.79
			c-4.73-2.5-9.65-4.7-14.63-6.66c-5.19-2.03-10.49-3.8-15.85-5.33c-4.38-1.26-8.9-2.05-13.39-2.95c-3.18-0.64-6.4-1.14-9.6-1.65
			c-2.21-0.36-4.43-0.63-6.64-0.95c-2.13-0.31-4.26-0.65-6.39-0.97c-2.44-0.37-4.87-0.79-7.32-1.09c-1.4-0.18-3.06-1.48-4.05,0.74
			c-0.02,0.06-0.14,0.06-0.2,0.11c-2.02,1.49-4.15,2.85-6.02,4.51c-2.6,2.32-5.79,3.37-8.92,4.55c-2.28,0.86-4.71,1.37-7.06,2.04
			c-4.91,1.41-9.79,2.9-14.72,4.22c-3.58,0.96-7.21,1.74-10.83,2.55c-4.49,1.01-8.97,2.12-13.5,2.94
			c-4.13,0.75-8.31,1.21-12.48,1.72c-3.79,0.46-7.59,1-11.39,1.16c-4.72,0.2-9.45,0.08-14.18,0.04c-3.3-0.03-6.61-0.14-9.91-0.23
			c-2.02-0.06-4.05-0.14-6.07-0.24c-0.87-0.04-1.73-0.11-2.59-0.25c-2.9-0.45-5.83-0.79-8.69-1.46c-4.36-1.02-8.7-2.16-12.98-3.47
			c-2.15-0.66-4.19-1.73-6.22-2.74c-1.92-0.96-3.83-1.97-5.63-3.15c-1.5-0.99-2.9-2.18-4.21-3.42c-2.05-1.92-4.35-3.68-5.12-6.62
			C210.05,388.96,210.71,385.41,212.19,381.82z M304.12,278.08c0,2.72-0.21,5.17,0.05,7.56c0.33,2.98,0.91,5.96,1.66,8.86
			c1.41,5.42,3.91,10.4,6.71,15.22c2.43,4.19,5.81,7.66,9.59,10.6c5.05,3.93,10.64,6.81,17.15,7.68c2.55,0.34,4.79-0.25,6.8-1.54
			c2.95-1.91,5.19-4.48,5.52-8.2c0.17-1.97,0.54-4.03,0.16-5.93c-0.98-4.93-2.8-9.57-5.67-13.77c-2.4-3.51-5.1-6.71-8.64-9.1
			c-2.07-1.4-4.22-2.73-6.47-3.81c-2.02-0.97-4.22-1.58-6.35-2.33c-1.45-0.51-2.94-0.93-4.36-1.51c-1.02-0.42-1.96-0.8-3.13-0.56
			c-1.08,0.22-2.32,0.42-3.34,0.12C310.66,280.45,307.6,279.28,304.12,278.08z"/>
		<path class="st0" d="M212.19,381.82c-1.48,3.59-2.15,7.14-1.17,10.88c0.77,2.94,3.07,4.7,5.12,6.62c1.32,1.23,2.71,2.43,4.21,3.42
			c1.79,1.18,3.7,2.2,5.63,3.15c2.03,1.01,4.07,2.09,6.22,2.74c4.28,1.31,8.62,2.45,12.98,3.47c2.85,0.66,5.78,1,8.69,1.46
			c0.86,0.13,1.72,0.2,2.59,0.25c2.02,0.1,4.05,0.19,6.07,0.24c3.3,0.1,6.6,0.21,9.91,0.23c4.73,0.04,9.46,0.16,14.18-0.04
			c3.81-0.16,7.6-0.7,11.39-1.16c4.17-0.51,8.35-0.97,12.48-1.72c4.53-0.82,9.01-1.92,13.5-2.94c3.62-0.82,7.25-1.59,10.83-2.55
			c4.93-1.32,9.81-2.81,14.72-4.22c2.36-0.68,4.78-1.18,7.06-2.04c3.12-1.18,6.32-2.24,8.92-4.55c1.86-1.66,4-3.02,6.02-4.51
			c0.06-0.05,0.18-0.05,0.2-0.11c0.99-2.22,2.65-0.92,4.05-0.74c2.45,0.31,4.88,0.72,7.32,1.09c2.13,0.32,4.26,0.66,6.39,0.97
			c2.21,0.33,4.43,0.6,6.64,0.95c3.21,0.52,6.42,1.01,9.6,1.65c4.48,0.9,9,1.7,13.39,2.95c5.35,1.53,10.66,3.3,15.85,5.33
			c4.98,1.95,9.9,4.16,14.63,6.66c4.04,2.13,7.88,4.64,11.31,7.79c3.08,2.83,5.58,5.98,7.38,9.69c1.12,2.3,1.53,4.82,0.53,7.28
			c-0.48,1.17-1.34,2.2-2.15,3.2c-2.68,3.32-6.05,5.89-9.43,8.41c-4.87,3.63-10.05,6.81-15.49,9.52c-4.09,2.03-8.28,3.88-12.5,5.63
			c-3.85,1.61-7.72,3.25-11.72,4.41c-7.9,2.3-15.87,4.4-23.87,6.34c-4.44,1.08-9,1.67-13.51,2.45c-3.44,0.59-6.88,1.16-10.33,1.65
			c-1.87,0.27-3.77,0.32-5.66,0.52c-2.66,0.28-5.31,0.63-7.96,0.93c-0.94,0.11-1.89,0.19-2.83,0.26c-3.59,0.25-7.18,0.52-10.77,0.71
			c-3.88,0.21-7.77,0.35-11.66,0.48c-3.42,0.11-6.84,0.18-10.27,0.24c-5.3,0.09-10.6,0.25-15.9,0.22
			c-4.01-0.02-8.01-0.28-12.02-0.46c-3.29-0.14-6.58-0.29-9.86-0.48c-3.71-0.21-7.43-0.42-11.13-0.73
			c-3.84-0.33-7.68-0.73-11.51-1.2c-3.97-0.49-7.95-0.98-11.89-1.68c-5.66-1.01-11.28-2.17-16.91-3.33
			c-7.39-1.53-14.69-3.41-21.77-6.04c-4.79-1.78-9.54-3.71-14.23-5.76c-4.01-1.75-8-3.62-11.84-5.71
			c-5.57-3.03-10.98-6.34-16.02-10.22c-5.52-4.26-10.56-9.05-15.26-14.16c-3.71-4.04-7.44-8.15-9.45-13.42
			c-0.24-0.62-0.59-1.23-0.63-1.86c-0.03-0.51,0.17-1.25,0.54-1.55c3.09-2.55,6.19-5.09,9.4-7.5c4.46-3.34,9.27-6.16,14.27-8.58
			c3.72-1.8,7.58-3.34,11.49-4.68c5.89-2.02,11.87-3.79,17.83-5.6c4.1-1.24,8.23-2.4,12.36-3.53
			C209.45,382.19,210.81,382.06,212.19,381.82z M343.34,453.03c-0.6,1.01-0.49,2,0.54,2.48c1.93,0.9,3.88,1.91,5.94,2.37
			c2.72,0.6,5.52,0.79,8.34,0.87c3.83,0.11,7.09-1.12,10.1-3.24c3.11-2.19,5.18-5.18,5.62-8.99c0.41-3.54-0.41-6.87-2.59-9.78
			c-1.24-1.66-2.73-3.19-3.69-5.01c-1-1.88-2.54-3.22-4.03-4.52c-2.26-1.97-4.76-3.73-7.36-5.21c-1.82-1.04-3.95-1.89-6.02-2.09
			c-4.33-0.42-8.66-0.21-12.71,1.83c-4.73,2.38-7.57,5.16-7.64,11.06c-0.01,1.06,0.61,2.13,0.9,3.2c1,3.74,3.39,6.7,5.67,9.65
			C338.44,448.27,340.96,450.52,343.34,453.03z M399.42,408.06c0-0.14-0.01-0.28-0.01-0.42c-3.28,0.22-6.58,0.28-9.83,0.71
			c-2.13,0.28-4.33,0.61-6.13,2.09c-1.29,1.07-2.08,4.5-0.98,5.73c1.33,1.49,2.68,3.12,4.36,4.11c4.75,2.78,9.65,5.26,14.83,7.23
			c4.85,1.84,9.8,3.17,14.88,4.09c2.2,0.4,4.46,0.62,6.7,0.65c3.43,0.05,6.88,0.06,10.28-0.29c2.17-0.22,4.26-1.16,5.47-3.24
			c0.52-0.89,1.17-1.84,1.28-2.81c0.15-1.37,0.12-2.91-0.36-4.17c-0.39-1-1.47-1.85-2.42-2.5c-1.99-1.37-4.06-2.65-6.18-3.82
			c-2.4-1.32-4.81-2.69-7.36-3.65c-2.76-1.04-5.67-1.69-8.54-2.39c-2.2-0.54-4.42-1.12-6.67-1.28
			C405.64,407.89,402.53,408.06,399.42,408.06z M291.37,447.23c0.36-3.91-0.84-7.25-4.02-9.78c-0.25-0.2-0.42-0.5-0.69-0.67
			c-0.88-0.57-1.73-1.39-2.69-1.58c-1.92-0.37-3.9-0.39-5.86-0.53c-2.29-0.16-4.09,0.92-5.74,2.36c-1.78,1.55-2.74,3.62-3.44,5.76
			c-0.51,1.58-0.83,3.33-0.71,4.96c0.13,1.79,0.78,3.56,1.33,5.29c1.03,3.23,3.53,5.01,6.55,6.03c1.26,0.43,2.77,0.08,4.1,0.38
			c1.88,0.42,3.69,0.03,5.07-0.94C289.1,455.85,291.86,452.4,291.37,447.23z M198.99,444.62c1.92,0.15,3.69-0.22,5.36-1.18
			c0.39-0.22,0.9-0.23,1.35-0.36c1.82-0.56,3.7-0.98,5.43-1.74c3.57-1.56,6.75-3.77,9.86-6.12c2.22-1.68,3.79-3.47,3.31-6.54
			c-0.16-1.04-0.48-1.65-1.36-2.11c-2.21-1.14-4.54-0.78-6.85-0.64c-0.61,0.04-1.24,0.36-1.82,0.27c-3.52-0.53-6.91,0.09-10.16,1.32
			c-2.47,0.93-4.91,1.94-7.02,3.67c-1.57,1.28-2.2,2.25-1.77,4.18c0.04,0.19,0.16,0.39,0.12,0.55c-0.31,1.32-0.62,2.64-1,3.95
			c-0.57,1.95-0.14,3.69,1.44,4.38C196.79,444.65,197.94,444.51,198.99,444.62z M167.88,412.69c2.63,0.07,5.04-0.66,7.29-1.96
			c1.13-0.65,1.9-1.46,1.87-2.99c-0.02-1.09-0.79-1.79-0.93-2.65c-0.23-1.4-1.09-1.55-2.07-1.56c-1.8-0.02-3.55,0.06-5.36,0.53
			c-1.98,0.52-3.68,1.42-5.41,2.35c-1.39,0.74-2.03,3.39-1.14,4.73c0.36,0.53,1.02,1.07,1.63,1.19
			C165.11,412.58,166.5,412.58,167.88,412.69z"/>
		<path class="st0" d="M304.12,278.08c3.48,1.2,6.54,2.37,9.68,3.29c1.02,0.3,2.25,0.1,3.34-0.12c1.17-0.24,2.11,0.14,3.13,0.56
			c1.42,0.59,2.91,1,4.36,1.51c2.13,0.75,4.33,1.35,6.35,2.33c2.25,1.08,4.39,2.41,6.47,3.81c3.54,2.38,6.24,5.59,8.64,9.1
			c2.87,4.2,4.7,8.84,5.67,13.77c0.38,1.89,0.01,3.95-0.16,5.93c-0.32,3.72-2.56,6.3-5.52,8.2c-2,1.29-4.24,1.88-6.8,1.54
			c-6.51-0.87-12.1-3.76-17.15-7.68c-3.78-2.94-7.15-6.41-9.59-10.6c-2.8-4.81-5.3-9.8-6.71-15.22c-0.76-2.9-1.33-5.88-1.66-8.86
			C303.9,283.25,304.12,280.8,304.12,278.08z"/>
		<path d="M343.34,453.03c-2.39-2.51-4.91-4.76-6.95-7.39c-2.28-2.94-4.67-5.91-5.67-9.65c-0.29-1.07-0.92-2.14-0.9-3.2
			c0.08-5.9,2.91-8.68,7.64-11.06c4.05-2.03,8.38-2.25,12.71-1.83c2.06,0.2,4.19,1.05,6.02,2.09c2.6,1.49,5.1,3.25,7.36,5.21
			c1.49,1.3,3.03,2.64,4.03,4.52c0.96,1.81,2.45,3.34,3.69,5.01c2.17,2.91,3,6.25,2.59,9.78c-0.44,3.81-2.51,6.8-5.62,8.99
			c-3.01,2.12-6.27,3.34-10.1,3.24c-2.82-0.08-5.62-0.27-8.34-0.87c-2.06-0.45-4.01-1.46-5.94-2.37
			C342.86,455.03,342.75,454.04,343.34,453.03z"/>
		<path d="M399.42,408.06c3.1,0,6.22-0.16,9.3,0.05c2.24,0.16,4.47,0.74,6.67,1.28c2.87,0.7,5.78,1.35,8.54,2.39
			c2.55,0.96,4.96,2.33,7.36,3.65c2.12,1.17,4.19,2.45,6.18,3.82c0.95,0.66,2.04,1.5,2.42,2.5c0.48,1.26,0.51,2.79,0.36,4.17
			c-0.1,0.97-0.76,1.92-1.28,2.81c-1.21,2.08-3.31,3.02-5.47,3.24c-3.4,0.35-6.85,0.34-10.28,0.29c-2.24-0.03-4.49-0.26-6.7-0.65
			c-5.07-0.91-10.03-2.24-14.88-4.09c-5.18-1.97-10.09-4.44-14.83-7.23c-1.68-0.99-3.03-2.62-4.36-4.11
			c-1.1-1.24-0.31-4.67,0.98-5.73c1.8-1.48,4-1.81,6.13-2.09c3.25-0.43,6.55-0.49,9.83-0.71
			C399.42,407.78,399.42,407.92,399.42,408.06z"/>
		<path d="M291.37,447.23c0.49,5.17-2.27,8.62-6.09,11.31c-1.37,0.97-3.19,1.36-5.07,0.94c-1.33-0.3-2.84,0.05-4.1-0.38
			c-3.02-1.02-5.52-2.81-6.55-6.03c-0.55-1.73-1.21-3.5-1.33-5.29c-0.12-1.64,0.2-3.39,0.71-4.96c0.69-2.14,1.66-4.22,3.44-5.76
			c1.65-1.44,3.44-2.52,5.74-2.36c1.96,0.14,3.95,0.16,5.86,0.53c0.96,0.18,1.81,1.01,2.69,1.58c0.26,0.17,0.44,0.47,0.69,0.67
			C290.52,439.98,291.73,443.32,291.37,447.23z"/>
		<path d="M198.99,444.62c-1.05-0.11-2.21,0.03-3.13-0.37c-1.58-0.69-2.01-2.44-1.44-4.38c0.38-1.3,0.68-2.63,1-3.95
			c0.04-0.17-0.08-0.37-0.12-0.55c-0.43-1.93,0.2-2.9,1.77-4.18c2.12-1.72,4.55-2.74,7.02-3.67c3.26-1.23,6.64-1.85,10.16-1.32
			c0.58,0.09,1.21-0.23,1.82-0.27c2.31-0.15,4.65-0.5,6.85,0.64c0.89,0.46,1.2,1.07,1.36,2.11c0.49,3.06-1.08,4.86-3.31,6.54
			c-3.11,2.35-6.29,4.56-9.86,6.12c-1.73,0.76-3.61,1.18-5.43,1.74c-0.45,0.14-0.96,0.14-1.35,0.36
			C202.68,444.4,200.91,444.77,198.99,444.62z"/>
		<path d="M167.88,412.69c-1.38-0.11-2.77-0.1-4.12-0.36c-0.61-0.12-1.27-0.66-1.63-1.19c-0.9-1.34-0.25-3.99,1.14-4.73
			c1.73-0.93,3.44-1.83,5.41-2.35c1.81-0.48,3.57-0.55,5.36-0.53c0.98,0.01,1.84,0.16,2.07,1.56c0.14,0.86,0.91,1.56,0.93,2.65
			c0.03,1.53-0.74,2.34-1.87,2.99C172.92,412.03,170.51,412.75,167.88,412.69z"/>
	</g>
</g>
</svg>
