<?xml version="1.0" encoding="utf-8"?>
<!-- Generator: Adobe Illustrator 24.1.3, SVG Export Plug-In . SVG Version: 6.00 Build 0)  -->
<svg version="1.1" id="Calque_1" xmlns="http://www.w3.org/2000/svg" xmlns:xlink="http://www.w3.org/1999/xlink" x="0px" y="0px"
	 viewBox="0 0 595.28 841.89" style="enable-background:new 0 0 595.28 841.89;" xml:space="preserve">
<style type="text/css">
	.st0{fill:#FFFFFF;}
</style>
<g>
	<g>
		<path class="st0" d="M42,560.89c0-160,0-320,0-480c160,0,320,0,480,0c0,160,0,320,0,480C362,560.89,202,560.89,42,560.89z
			 M450.5,427.51c2.89,1.09,5.53,1.99,8.38,2.19c2.68,0.19,5.36,0.57,7.99-0.28c1.42-0.46,2.65-1.29,3.36-2.59
			c1.06-1.94,0.41-3.78-0.77-5.4c-1.64-2.25-3.63-4.28-5.08-6.64c-1.79-2.92-3.27-6.05-4.72-9.16c-0.95-2.05-1.78-4.18-2.36-6.36
			c-0.74-2.81-1.63-5.55-3.03-8.09c-0.38-0.68-1.03-1.33-1.71-1.71c-1.59-0.89-3.34-1.19-5.18-1.37c-2.39-0.24-4.72-0.26-7.01,0.48
			c-2.52,0.81-4.98,1.83-7.53,2.48c-2.71,0.69-4.23,0.21-5.05-2.04c-0.64-1.75-1.19-3.55-1.58-5.37c-0.48-2.21-1.02-4.47-1.04-6.71
			c-0.02-3.31,0.25-6.63,0.68-9.92c0.24-1.83,0.93-3.62,1.63-5.35c0.58-1.43,1.2-1.6,2.64-1.09c1.95,0.69,3.88,1.42,5.8,2.18
			c2.21,0.88,4.54,0.13,5.44-1.99c0.65-1.53,1.12-3.16,1.46-4.79c0.69-3.26,0.15-6.42-1.18-9.43c-1.02-2.33-2.6-4.26-4.66-5.91
			c0.31-0.18,0.53-0.35,0.77-0.44c2.12-0.79,4.2-1.69,6.37-2.31c2.41-0.69,4.88-1.31,7.44-1.06c1.61,0.16,3.21,0.39,4.82,0.46
			c1.57,0.06,2.64-1.18,2.78-2.75c0.14-1.57-0.41-2.95-0.98-4.32c-2.21-5.35-4.66-10.57-8.26-15.07c0.75-0.65,1.56-1.18,2.16-1.89
			c2.26-2.72,4.53-5.44,6.62-8.29c1.71-2.33,3.41-4.72,4.71-7.29c3.28-6.47,5.51-13.33,7.05-20.43c1.05-4.83,1.6-9.7,1.67-14.65
			c0.07-4.93-0.19-9.81-1.28-14.61c-0.53-2.33-1.35-4.62-3.29-6.26c-0.94-0.79-2-1.2-3.16-0.7c-0.97,0.42-1.98,0.91-2.75,1.6
			c-2.18,1.95-4.39,3.89-6.32,6.07c-2.72,3.07-5.65,5.88-8.99,8.23c-2.81,1.98-5.65,3.96-8.65,5.64c-2.58,1.44-5.35,2.6-8.14,3.59
			c-2.26,0.81-4.66,1.29-7.03,1.74c-2.52,0.48-5.07,1.03-7.73,0.47c-0.81-4.26-1.53-8.51-3.61-12.4c0.79-0.3,1.47-0.5,2.09-0.81
			c3.08-1.52,5.24-4,7.07-6.81c1.95-2.99,3.46-6.22,3.73-9.78c0.45-6.02-0.33-11.92-2.76-17.58c1.92-0.57,2.52-1.93,2.33-3.75
			c-0.07-0.63-0.12-1.26-0.24-1.87c-0.63-3.05-1.06-6.17-1.98-9.14c-0.73-2.37-1.93-4.62-3.15-6.79c-2.27-4.04-5.48-7.13-9.9-8.87
			c2-2.66,3.92-5.33,5.97-7.91c3.44-4.32,4.03-9.23,3.35-14.5c-0.54-4.17-1.81-8.08-3.68-11.8c-0.52-1.03-1.22-2.11-2.12-2.76
			c-1.49-1.08-4.21-0.95-5.5,1.58c-0.25,0.49-0.49,0.99-0.8,1.43c-1.79,2.53-3.53,5.09-5.42,7.53c-1.04,1.34-2.34,2.48-3.57,3.75
			c-0.29-0.35-0.46-0.45-0.48-0.58c-0.35-2.13-0.67-4.26-1.01-6.39c-0.59-3.78-1.22-7.56-2.51-11.18c-1.29-3.61-2.9-7.07-4.8-10.42
			c-2.52-4.45-5.31-8.7-9.15-12.08c-1.67-1.47-3.73-2.65-5.82-3.42c-2.15-0.79-4.15-0.4-5.18,2c-1.33,3.12-3.12,6.05-4.71,9.06
			c-0.11,0.21-0.21,0.42-0.25,0.51c-1.32-1.57-2.54-2.91-3.63-4.34c-2.54-3.33-5.52-6.19-9.01-8.49c-3.61-2.37-7.37-4.43-11.64-5.39
			c-1.63-0.37-3.96,0.4-4.77,1.81c-1.51,2.6-2.9,5.27-4.36,7.9c-0.41,0.75-0.89,1.46-1.35,2.22c-0.37-0.26-0.66-0.44-0.93-0.65
			c-1.63-1.27-3.17-2.67-4.89-3.8c-3.39-2.24-7.11-3.66-11.1-4.55c-2.69-0.6-5.37-0.97-8.09-0.8c-1.82,0.11-3.21,0.85-3.05,3.2
			c0.06,0.94,0.14,1.89,0.24,2.83c0.27,2.62-0.4,5.11-1.32,7.49c-0.65,1.68-1.76,3.17-2.73,4.88c-2.56-3.82-4.77-7.48-7.34-10.87
			c-1.98-2.62-4.16-5.19-6.68-7.26c-4.02-3.3-8.84-5.3-13.8-6.83c-2.04-0.63-4.17-1.15-6.29-1.34c-3.86-0.34-5.77,1.36-4.93,4.83
			c0.86,3.54,0.59,7.02,0.31,10.63c-0.49-0.52-0.87-1.01-1.32-1.42c-2.4-2.18-4.77-4.41-7.25-6.5c-2.43-2.05-4.81-4.24-7.53-5.85
			c-4.44-2.63-9.08-4.92-13.73-7.16c-1.8-0.87-3.84-1.49-5.82-1.7c-3.62-0.39-7.28-0.42-10.93-0.52c-1.01-0.03-2.03,0.19-3.04,0.37
			c-1.89,0.32-3.76,0.75-5.65,1.04c-3.47,0.52-6.66,1.72-9.47,3.82c-1.02,0.76-1.09,2.01-0.86,3.17c0.2,1.03,0.95,1.68,2.01,1.9
			c0.63,0.13,1.26,0.23,2.22,0.41c-1.4,0.65-2.56,1.1-3.63,1.71c-4.53,2.56-9.15,4.94-13.48,7.86c-3.07,2.07-5.93,4.36-8.89,6.56
			c-3.03,2.25-5.94,4.67-9.55,6.1c-3.55,1.4-7.08,1.59-10.76,0.98c-2.17-0.36-4.36-0.59-6.54-0.81c-1.38-0.14-2.46,0.35-3.02,1.74
			c-0.53,1.29-0.04,2.28,0.8,3.21c1.48,1.63,2.9,3.3,4.43,4.88c2.11,2.18,4.28,4.31,6.46,6.43c1.64,1.6,3.33,3.16,5.03,4.76
			c-0.23,0.25-0.32,0.37-0.44,0.47c-2.27,1.89-4.58,3.73-6.8,5.68c-0.51,0.45-0.85,1.23-1.03,1.92c-0.75,2.95-1.43,5.92-2.11,8.88
			c-0.76,3.31-1.55,6.6-2.22,9.93c-0.37,1.84-0.53,3.73-0.75,5.6c-0.33,2.89-0.85,5.78-0.9,8.68c-0.09,5.06,0.08,10.12,0.21,15.18
			c0.05,1.77,0.22,3.55,0.49,5.3c0.49,3.21,1.15,6.4,1.63,9.61c0.68,4.57,2.21,8.88,4.07,13.05c1.83,4.11,3.98,8.08,6.91,11.58
			c1.79,2.14,3.43,4.4,5.2,6.55c0.75,0.91,1.67,1.68,2.51,2.51c-0.05,0.09-0.1,0.19-0.15,0.28c-1.16-0.27-2.3-0.59-3.47-0.8
			c-4.53-0.79-7.98-3.27-10.73-6.81c-0.9-1.15-1.58-2.48-2.44-3.66c-0.81-1.12-1.75-1.25-3.18-0.88c-1.37,0.35-1.55,1.47-1.53,2.47
			c0.05,2.93,0.09,5.88,0.49,8.77c0.63,4.49,1.7,8.91,3.3,13.15c1.06,2.81,2.53,5.46,3.8,8.18c0.68,1.45,1.5,2.68,3.23,2.58
			c-0.68,2.02-1.34,4.01-2.03,5.99c-0.07,0.21-0.26,0.4-0.45,0.54c-1.7,1.26-3.46,2.44-5.1,3.76c-1.18,0.95-2.38,1.95-3.26,3.16
			c-2.66,3.66-3.75,7.91-3.82,12.37c-0.04,2.76,0.11,5.56,0.49,8.29c0.55,3.91,1.29,7.8,2.13,11.65c1.01,4.62,2.34,9.16,4.53,13.38
			c1.35,2.6,2.76,5.17,4.22,7.71c0.66,1.15,1.45,2.24,2.3,3.26c1.59,1.92,3.19,3.82,4.91,5.63c1.81,1.9,3.71,3.73,5.64,5.5
			c1.13,1.03,2.41,1.89,3.62,2.83c1.39,1.08,2.74,2.23,4.19,3.23c2.25,1.55,4.62,2.93,6.86,4.5c4.37,3.06,8.7,6.16,13.55,8.35
			c-0.84,5.18-1.67,10.31-2.53,15.6c-0.75-0.39-1.14-0.67-1.57-0.81c-2.37-0.77-4.7-1.83-7.13-2.17c-3.93-0.56-6.5,1.86-8.45,4.93
			c-0.79,1.25-1.36,2.65-1.9,4.04c-0.62,1.6-1.3,3.21-1.6,4.89c-0.49,2.74-0.87,5.53-0.98,8.31c-0.16,3.92-0.33,7.88,0.07,11.77
			c0.39,3.82,1.47,7.58,2.3,11.36c0.47,2.16,1.73,3.1,3.94,3.1c1.04,0,2.09-0.08,3.12,0.02c1.01,0.09,2.01,0.36,2.72,0.5
			c-0.16,1.71-0.3,3.11-0.43,4.51c-0.36,4-0.52,7.99,0.24,11.96c0.18,0.94,0.6,1.73,1.6,1.94c2.59,0.56,4.54-0.55,6.24-2.42
			c1.37-1.5,2.81-2.94,4.31-4.32c0.86-0.79,1.9-1.38,2.84-2.06c1.84,1.41,3.71,2.79,5.49,4.26c0.38,0.31,0.6,1.01,0.61,1.54
			c0.09,4.44-0.25,8.9,0.75,13.28c0.31,1.33,0.55,2.81,2.03,3.35c0.82,0.29,1.77,0.18,2.66,0.29c0.82,0.1,1.42-0.17,1.98-0.79
			c1.12-1.22,2.44-2.27,3.46-3.55c1.17-1.48,3.54-2.06,3.36-4.46c3.26,1.5,6.41,3.07,9.65,4.41c3.24,1.34,6.59,2.41,9.86,3.69
			c1.21,0.47,2.46,0.5,2.93,2.5c0.83,3.49,2.37,6.85,4.38,9.9c0.47,0.71,1.26,1.51,2.02,1.65c1.71,0.31,3.6-0.1,4.43-2.08
			c0.15-0.36,0.42-0.66,0.62-0.99c1.26-2.11,3.51-3.75,2.96-6.65c0.35-0.02,0.55-0.05,0.75-0.03c2.85,0.31,5.71,0.87,8.56,0.9
			c6.22,0.08,12.44-0.1,18.66-0.2c1.18-0.02,2.37-0.1,3.55-0.25c3.78-0.45,7.57-0.91,11.34-1.44c3.1-0.43,6.25-0.77,9.28-1.52
			c5.94-1.47,11.94-2.74,17.67-4.95c4.15-1.6,8.33-3.14,12.5-4.67c0.34-0.12,0.88-0.17,1.13,0.01c1.27,0.93,2.4,2.06,3.71,2.9
			c2.39,1.54,4.66,3.4,7.79,3.21c1.39-0.08,2.38-0.79,2.42-2.17c0.07-2.8,0.1-5.61-0.02-8.42c-0.05-1.16-0.52-2.31-0.79-3.45
			c1.42-1.1,2.87-2.22,4.35-3.37c0.22,1.08,0.91,1.52,2.04,1.59c1.09,0.06,2.18,0.28,3.24,0.54c3.89,0.96,7.85,1.23,11.83,1.34
			c0.91,0.02,2.35-1.49,2.4-2.4c0.23-4.58-0.88-8.86-2.89-12.94c-0.76-1.55-0.57-2.54,0.68-2.96c0.02,1.48,1.23,1.88,2.26,2.19
			c3.6,1.07,7.31,1.53,11.07,1.46c0.29-0.01,0.62-0.23,0.85-0.45c1.5-1.42,1.29-3.36,0.83-4.91c-0.91-3.04-2.17-5.99-3.59-8.83
			c-0.42-0.84-0.33-1.06,0.17-1.54c2.49-2.41,4.94-4.87,7.49-7.21c2.09-1.92,4.23-3.81,6.51-5.49c3.11-2.3,6.31-4.5,9.62-6.5
			c1.49-0.9,3.33-1.22,5.04-1.73c0.58-0.17,1.13-0.04,1.43,0.69c0.59,1.39,1.38,2.7,1.89,4.12c1.27,3.51,2.43,7.07,3.65,10.6
			c1.02,2.94,1.96,5.91,3.1,8.8c2.18,5.5,6.02,9.7,10.73,13.16c4.76,3.49,10.15,5.39,15.96,5.98c2.69,0.27,5.44,0.17,8.15,0
			c1.87-0.11,4-1.61,3.59-3.99c-0.31-1.79-0.89-3.54-1.5-5.26c-1.27-3.6-2.79-7.12-3.92-10.77
			C451.43,433.13,451.09,430.35,450.5,427.51z"/>
		<path d="M450.5,427.51c0.58,2.84,0.93,5.62,1.74,8.25c1.13,3.64,2.65,7.17,3.92,10.77c0.61,1.72,1.19,3.47,1.5,5.26
			c0.41,2.39-1.72,3.88-3.59,3.99c-2.71,0.17-5.46,0.27-8.15,0c-5.82-0.59-11.21-2.48-15.96-5.98c-4.72-3.46-8.55-7.66-10.73-13.16
			c-1.14-2.89-2.09-5.86-3.1-8.8c-1.22-3.53-2.38-7.09-3.65-10.6c-0.51-1.41-1.31-2.72-1.89-4.12c-0.3-0.72-0.86-0.86-1.43-0.69
			c-1.71,0.51-3.55,0.83-5.04,1.73c-3.31,1.99-6.51,4.2-9.62,6.5c-2.28,1.68-4.42,3.58-6.51,5.49c-2.55,2.34-5,4.81-7.49,7.21
			c-0.5,0.48-0.59,0.7-0.17,1.54c1.42,2.84,2.68,5.79,3.59,8.83c0.46,1.56,0.67,3.5-0.83,4.91c-0.23,0.22-0.56,0.45-0.85,0.45
			c-3.76,0.07-7.47-0.39-11.07-1.46c-1.03-0.31-2.24-0.71-2.26-2.19c-1.25,0.41-1.45,1.41-0.68,2.96c2,4.07,3.12,8.36,2.89,12.94
			c-0.05,0.91-1.49,2.43-2.4,2.4c-3.98-0.1-7.94-0.38-11.83-1.34c-1.06-0.26-2.15-0.48-3.24-0.54c-1.13-0.06-1.82-0.5-2.04-1.59
			c-1.48,1.15-2.94,2.27-4.35,3.37c0.27,1.14,0.74,2.29,0.79,3.45c0.12,2.8,0.09,5.61,0.02,8.42c-0.04,1.38-1.03,2.09-2.42,2.17
			c-3.13,0.19-5.4-1.67-7.79-3.21c-1.31-0.85-2.45-1.98-3.71-2.9c-0.25-0.18-0.79-0.14-1.13-0.01c-4.18,1.54-8.35,3.07-12.5,4.67
			c-5.73,2.21-11.74,3.48-17.67,4.95c-3.03,0.75-6.17,1.08-9.28,1.52c-3.77,0.53-7.56,0.98-11.34,1.44
			c-1.18,0.14-2.37,0.23-3.55,0.25c-6.22,0.1-12.44,0.28-18.66,0.2c-2.86-0.03-5.71-0.59-8.56-0.9c-0.19-0.02-0.39,0.01-0.75,0.03
			c0.55,2.9-1.7,4.54-2.96,6.65c-0.2,0.34-0.47,0.64-0.62,0.99c-0.83,1.98-2.73,2.39-4.43,2.08c-0.76-0.14-1.56-0.94-2.02-1.65
			c-2.01-3.05-3.55-6.41-4.38-9.9c-0.47-2-1.72-2.03-2.93-2.5c-3.27-1.28-6.62-2.35-9.86-3.69c-3.24-1.34-6.39-2.91-9.65-4.41
			c0.18,2.4-2.18,2.98-3.36,4.46c-1.02,1.29-2.34,2.34-3.46,3.55c-0.57,0.62-1.16,0.89-1.98,0.79c-0.89-0.11-1.85,0-2.66-0.29
			c-1.49-0.54-1.73-2.02-2.03-3.35c-1.01-4.38-0.67-8.84-0.75-13.28c-0.01-0.53-0.23-1.22-0.61-1.54c-1.78-1.48-3.65-2.85-5.49-4.26
			c-0.94,0.67-1.98,1.27-2.84,2.06c-1.5,1.37-2.94,2.81-4.31,4.32c-1.7,1.87-3.65,2.98-6.24,2.42c-0.99-0.22-1.42-1-1.6-1.94
			c-0.76-3.97-0.6-7.97-0.24-11.96c0.13-1.4,0.26-2.79,0.43-4.51c-0.72-0.14-1.71-0.41-2.72-0.5c-1.03-0.1-2.08-0.02-3.12-0.02
			c-2.22,0-3.47-0.94-3.94-3.1c-0.82-3.78-1.9-7.53-2.3-11.36c-0.4-3.89-0.23-7.85-0.07-11.77c0.11-2.78,0.49-5.56,0.98-8.31
			c0.3-1.67,0.97-3.29,1.6-4.89c0.54-1.38,1.11-2.79,1.9-4.04c1.95-3.07,4.51-5.49,8.45-4.93c2.43,0.35,4.76,1.41,7.13,2.17
			c0.43,0.14,0.82,0.42,1.57,0.81c0.86-5.29,1.69-10.42,2.53-15.6c-4.85-2.19-9.18-5.29-13.55-8.35c-2.24-1.57-4.61-2.95-6.86-4.5
			c-1.45-1-2.8-2.15-4.19-3.23c-1.21-0.94-2.49-1.8-3.62-2.83c-1.94-1.77-3.84-3.6-5.64-5.5c-1.71-1.8-3.32-3.71-4.91-5.63
			c-0.85-1.02-1.64-2.12-2.3-3.26c-1.46-2.54-2.87-5.11-4.22-7.71c-2.19-4.22-3.53-8.76-4.53-13.38c-0.84-3.86-1.58-7.74-2.13-11.65
			c-0.38-2.74-0.54-5.53-0.49-8.29c0.07-4.46,1.16-8.7,3.82-12.37c0.88-1.21,2.09-2.21,3.26-3.16c1.64-1.33,3.4-2.51,5.1-3.76
			c0.18-0.14,0.37-0.33,0.45-0.54c0.69-1.98,1.35-3.97,2.03-5.99c-1.73,0.1-2.55-1.13-3.23-2.58c-1.27-2.73-2.75-5.38-3.8-8.18
			c-1.59-4.24-2.67-8.66-3.3-13.15c-0.4-2.89-0.45-5.85-0.49-8.77c-0.02-0.99,0.16-2.12,1.53-2.47c1.43-0.37,2.37-0.24,3.18,0.88
			c0.86,1.18,1.54,2.51,2.44,3.66c2.76,3.54,6.2,6.02,10.73,6.81c1.17,0.2,2.31,0.53,3.47,0.8c0.05-0.09,0.1-0.19,0.15-0.28
			c-0.84-0.83-1.76-1.6-2.51-2.51c-1.77-2.15-3.41-4.42-5.2-6.55c-2.93-3.49-5.08-7.47-6.91-11.58c-1.85-4.17-3.39-8.48-4.07-13.05
			c-0.48-3.21-1.14-6.4-1.63-9.61c-0.27-1.75-0.44-3.53-0.49-5.3c-0.13-5.06-0.3-10.12-0.21-15.18c0.05-2.9,0.56-5.79,0.9-8.68
			c0.22-1.87,0.38-3.76,0.75-5.6c0.67-3.32,1.46-6.62,2.22-9.93c0.68-2.97,1.35-5.93,2.11-8.88c0.18-0.69,0.52-1.47,1.03-1.92
			c2.22-1.95,4.52-3.79,6.8-5.68c0.12-0.1,0.21-0.22,0.44-0.47c-1.7-1.6-3.38-3.16-5.03-4.76c-2.17-2.12-4.35-4.25-6.46-6.43
			c-1.53-1.58-2.95-3.25-4.43-4.88c-0.84-0.93-1.33-1.92-0.8-3.21c0.57-1.39,1.65-1.88,3.02-1.74c2.19,0.22,4.38,0.46,6.54,0.81
			c3.68,0.61,7.21,0.41,10.76-0.98c3.61-1.43,6.52-3.85,9.55-6.1c2.96-2.19,5.82-4.49,8.89-6.56c4.34-2.92,8.96-5.3,13.48-7.86
			c1.07-0.61,2.23-1.06,3.63-1.71c-0.96-0.18-1.59-0.28-2.22-0.41c-1.06-0.22-1.8-0.87-2.01-1.9c-0.23-1.15-0.15-2.41,0.86-3.17
			c2.81-2.1,6-3.3,9.47-3.82c1.89-0.28,3.76-0.71,5.65-1.04c1.01-0.17,2.03-0.39,3.04-0.37c3.65,0.1,7.31,0.14,10.93,0.52
			c1.98,0.21,4.02,0.84,5.82,1.7c4.65,2.24,9.3,4.53,13.73,7.16c2.71,1.61,5.09,3.8,7.53,5.85c2.48,2.09,4.85,4.32,7.25,6.5
			c0.45,0.41,0.84,0.89,1.32,1.42c0.28-3.61,0.56-7.09-0.31-10.63c-0.84-3.47,1.06-5.17,4.93-4.83c2.12,0.19,4.25,0.7,6.29,1.34
			c4.95,1.54,9.77,3.54,13.8,6.83c2.52,2.07,4.7,4.65,6.68,7.26c2.57,3.39,4.78,7.05,7.34,10.87c0.98-1.71,2.09-3.2,2.73-4.88
			c0.91-2.38,1.58-4.87,1.32-7.49c-0.1-0.94-0.18-1.89-0.24-2.83c-0.16-2.35,1.23-3.08,3.05-3.2c2.72-0.17,5.4,0.2,8.09,0.8
			c3.99,0.89,7.71,2.31,11.1,4.55c1.72,1.14,3.26,2.53,4.89,3.8c0.27,0.21,0.56,0.39,0.93,0.65c0.46-0.75,0.94-1.47,1.35-2.22
			c1.46-2.63,2.85-5.3,4.36-7.9c0.81-1.4,3.14-2.17,4.77-1.81c4.27,0.96,8.03,3.02,11.64,5.39c3.5,2.3,6.47,5.16,9.01,8.49
			c1.09,1.43,2.31,2.77,3.63,4.34c0.05-0.09,0.14-0.3,0.25-0.51c1.59-3.01,3.37-5.94,4.71-9.06c1.02-2.39,3.03-2.79,5.18-2
			c2.09,0.77,4.15,1.95,5.82,3.42c3.84,3.38,6.63,7.63,9.15,12.08c1.9,3.35,3.51,6.81,4.8,10.42c1.29,3.62,1.92,7.4,2.51,11.18
			c0.33,2.13,0.66,4.26,1.01,6.39c0.02,0.13,0.19,0.24,0.48,0.58c1.22-1.27,2.53-2.41,3.57-3.75c1.89-2.45,3.63-5.01,5.42-7.53
			c0.31-0.44,0.55-0.94,0.8-1.43c1.3-2.53,4.01-2.66,5.5-1.58c0.91,0.66,1.61,1.73,2.12,2.76c1.87,3.72,3.15,7.64,3.68,11.8
			c0.68,5.28,0.08,10.18-3.35,14.5c-2.05,2.58-3.97,5.25-5.97,7.91c4.42,1.74,7.63,4.83,9.9,8.87c1.22,2.17,2.42,4.43,3.15,6.79
			c0.92,2.97,1.35,6.08,1.98,9.14c0.13,0.61,0.18,1.24,0.24,1.87c0.19,1.82-0.41,3.18-2.33,3.75c2.44,5.66,3.22,11.56,2.76,17.58
			c-0.27,3.56-1.78,6.79-3.73,9.78c-1.83,2.81-3.99,5.29-7.07,6.81c-0.62,0.31-1.3,0.51-2.09,0.81c2.09,3.89,2.81,8.14,3.61,12.4
			c2.66,0.56,5.21,0.01,7.73-0.47c2.37-0.45,4.77-0.93,7.03-1.74c2.79-1,5.56-2.15,8.14-3.59c3-1.67,5.84-3.66,8.65-5.64
			c3.34-2.35,6.27-5.16,8.99-8.23c1.93-2.18,4.14-4.12,6.32-6.07c0.78-0.7,1.78-1.19,2.75-1.6c1.16-0.49,2.23-0.09,3.16,0.7
			c1.94,1.64,2.76,3.93,3.29,6.26c1.09,4.8,1.35,9.68,1.28,14.61c-0.07,4.95-0.63,9.82-1.67,14.65c-1.54,7.09-3.77,13.96-7.05,20.43
			c-1.3,2.57-3,4.96-4.71,7.29c-2.09,2.85-4.36,5.57-6.62,8.29c-0.59,0.72-1.41,1.25-2.16,1.89c3.59,4.5,6.05,9.72,8.26,15.07
			c0.56,1.37,1.11,2.75,0.98,4.32c-0.14,1.57-1.21,2.81-2.78,2.75c-1.61-0.06-3.21-0.3-4.82-0.46c-2.57-0.25-5.03,0.38-7.44,1.06
			c-2.17,0.62-4.25,1.52-6.37,2.31c-0.24,0.09-0.46,0.26-0.77,0.44c2.06,1.65,3.64,3.58,4.66,5.91c1.33,3.02,1.87,6.18,1.18,9.43
			c-0.34,1.63-0.81,3.26-1.46,4.79c-0.9,2.12-3.23,2.87-5.44,1.99c-1.92-0.76-3.85-1.49-5.8-2.18c-1.44-0.51-2.06-0.34-2.64,1.09
			c-0.7,1.72-1.39,3.52-1.63,5.35c-0.43,3.28-0.7,6.61-0.68,9.92c0.02,2.24,0.56,4.5,1.04,6.71c0.39,1.82,0.94,3.62,1.58,5.37
			c0.82,2.25,2.34,2.73,5.05,2.04c2.56-0.65,5.01-1.67,7.53-2.48c2.29-0.73,4.61-0.72,7.01-0.48c1.83,0.19,3.59,0.49,5.18,1.37
			c0.68,0.38,1.33,1.03,1.71,1.71c1.4,2.54,2.29,5.28,3.03,8.09c0.57,2.18,1.41,4.31,2.36,6.36c1.45,3.11,2.93,6.24,4.72,9.16
			c1.45,2.36,3.43,4.39,5.08,6.64c1.18,1.62,1.84,3.47,0.77,5.4c-0.72,1.31-1.94,2.13-3.36,2.59c-2.63,0.85-5.3,0.46-7.99,0.28
			C456.03,429.51,453.4,428.6,450.5,427.51z M203.07,405.99c1.15,0.07,2.09,0.1,3.02,0.2c2.58,0.29,5.15,0.63,7.73,0.93
			c2.23,0.26,4.47,0.44,6.69,0.75c2.98,0.42,5.96,0.92,8.93,1.41c2.7,0.45,5.39,0.94,8.09,1.42c3.12,0.56,6.22,1.19,9.35,1.67
			c3.65,0.56,7.31,1.05,10.98,1.46c4.27,0.47,8.55,0.81,12.83,1.2c1.18,0.11,2.37,0.24,3.55,0.23c3.22-0.04,6.45-0.07,9.67-0.25
			c4.26-0.24,8.51-0.61,12.76-0.93c2.17-0.16,4.35-0.21,6.5-0.52c3.76-0.54,7.49-1.26,11.24-1.87c4.97-0.81,9.95-1.56,14.76-3.12
			c4.04-1.31,8.09-2.6,12.08-4.05c6.5-2.36,12.4-5.72,16.97-11.04c1.5-1.74,2.89-3.63,4.01-5.64c1.55-2.79,3.19-5.54,4.01-8.72
			c0.61-2.36,1.76-4.58,2.53-6.91c0.65-1.96,1.24-3.96,1.62-5.98c0.6-3.24,0.82-6.55,1.55-9.75c0.7-3.03,0.11-6,0.12-8.99
			c0-1.77-0.14-3.56-0.48-5.3c-0.93-4.78-1.86-9.56-3.25-14.26c-1.83-6.19-4.58-11.87-8.21-17.17c-0.14-0.21-0.36-0.51-0.56-0.52
			c-1.66-0.12-3.33-0.26-4.99-0.23c-1.25,0.02-2.49,0.3-3.74,0.43c-1.72,0.18-3.48,0.19-5.17,0.54c-3.63,0.76-7.2,1.76-10.82,2.56
			c-6.47,1.43-12.55,4-18.74,6.24c-3.34,1.21-6.61,2.59-9.93,3.86c-2.73,1.04-5.49,2-8.22,3.02c-2.7,1.01-5.38,2.08-8.1,3.06
			c-3.52,1.28-7.04,2.59-10.6,3.75c-7.2,2.33-14.42,4.62-21.82,6.26c-3.51,0.78-6.99,1.69-10.51,2.36
			c-2.89,0.55-5.86,0.66-8.74,1.26c-4.53,0.94-9.12,0.83-13.68,1.11c-2.27,0.14-4.57-0.32-6.86-0.42c-3.06-0.13-6.13-0.16-9.19-0.26
			c-1.22-0.04-2.45-0.11-3.67-0.25c-3.82-0.45-7.65-0.89-11.46-1.44c-3.06-0.44-6.08-1.09-9.13-1.57c-1.46-0.23-2.94-0.28-4.5-0.42
			c0.05,0.4,0.03,0.58,0.09,0.71c1.11,2.32,2.05,4.74,3.39,6.93c1.32,2.17,2.89,4.22,4.62,6.08c1.4,1.51,3.17,2.69,4.83,3.95
			c3.36,2.55,6.98,4.49,11.36,4.49c1.01,0,1.69,0.44,2.05,1.44c1.43,0.01,2.7-0.14,3.76,1.51c1.6,2.49,2.32,5.09,2.54,7.94
			c0.37,4.99-1.18,9.62-2.74,14.23c-1.24,3.66-2.69,7.25-3.98,10.89C204.72,400.73,203.97,403.23,203.07,405.99z M359.2,278.47
			c0.44,0.19,0.57,0.26,0.71,0.32c2.77,1.04,5.67,1.85,8.3,3.18c4.01,2.03,7.95,4.25,11.72,6.7c3.31,2.15,6.52,4.54,9.47,7.16
			c5.32,4.72,9.51,10.35,12.6,16.81c2.48,5.17,4.75,10.38,5.61,16.1c0.62,4.11,1.46,8.19,1.83,12.32c0.31,3.42,0.13,6.89,0.05,10.33
			c-0.09,3.62-0.26,7.24-1.15,10.79c-1.06,4.2-1.83,8.47-2.93,12.66c-1.5,5.71-3.58,11.24-6.17,16.55
			c-2.66,5.47-5.83,10.64-9.24,15.67c-2.96,4.37-6.24,8.48-10.11,12.11c-3.27,3.06-6.41,6.24-9.96,9.01
			c-5.15,4.03-10.73,7.33-16.4,10.51c-2.38,1.34-5.01,2.24-7.44,3.51c-5.64,2.94-11.61,5.05-17.64,6.99
			c-6.95,2.23-13.96,4.29-21.19,5.47c-4.21,0.69-8.4,1.53-12.63,2.09c-3.63,0.48-7.3,0.73-10.96,0.98c-4.27,0.3-8.54,0.62-12.81,0.7
			c-4.58,0.08-9.17-0.02-13.74-0.23c-3.62-0.16-7.24-0.53-10.84-0.95c-2.88-0.33-5.75-0.76-8.58-1.37c-3.2-0.68-6.35-1.61-9.52-2.43
			c-6.07-1.58-11.94-3.7-17.54-6.51c-3.99-2-8.07-3.89-11.83-6.27c-3.27-2.07-6.17-4.73-9.16-7.21c-1.15-0.95-2.19-2.05-3.16-3.19
			c-1.47-1.74-2.86-3.54-4.22-5.37c-0.76-1.03-1.77-2.09-1.99-3.26c-0.66-3.41,0.79-6.37,2.91-8.89c1.43-1.7,2.63-3.44,3.41-5.58
			c-0.96-0.46-1.87-0.9-2.79-1.33c-0.91-0.43-1.86-0.79-2.72-1.3c-1.31-0.78-2.76-0.57-4.01,0.26c-1.44,0.96-1.99,2.39-2.54,3.84
			c-0.67,1.78-1.39,3.59-1.74,5.45c-0.56,2.92-0.92,5.89-1.19,8.86c-0.17,1.78-0.13,3.6,0.02,5.38c0.19,2.22,0.52,4.44,0.9,6.64
			c0.41,2.33,0.96,4.63,1.46,6.95c1.08,0,2,0.01,2.91,0c1.72-0.01,3.34,0.34,4.86,1.17c0.68,0.37,1.42,0.64,2.09,1.02
			c1.57,0.88,3.17,1.72,4.68,2.7c1.96,1.29,3.85,2.68,5.74,4.07c1.46,1.07,2.86,2.21,4.3,3.3c2.31,1.75,4.61,3.53,6.97,5.22
			c1.43,1.02,2.95,1.91,4.44,2.84c2.08,1.31,4.1,2.76,6.28,3.88c3.38,1.73,6.86,3.27,10.32,4.83c4.88,2.2,9.98,3.82,15.14,5.21
			c3.31,0.89,6.72,1.43,10.11,1.96c3.3,0.51,6.63,1.1,9.95,1.15c5.44,0.08,10.89-0.18,16.33-0.44c3.34-0.16,6.68-0.52,10-0.95
			c4.32-0.56,8.68-0.99,12.9-1.98c5.91-1.39,11.86-2.7,17.56-4.91c4.58-1.77,9.41-2.89,13.74-5.31c2.73-1.52,5.66-2.71,8.24-4.44
			c3.9-2.62,7.66-5.47,11.33-8.42c3.3-2.64,6.42-5.5,9.56-8.34c1.73-1.57,3.32-3.29,4.97-4.94c5.43-5.43,10.85-10.86,16.29-16.28
			c0.84-0.84,1.73-1.63,2.65-2.39c2.34-1.91,4.66-3.86,7.1-5.66c2.58-1.9,5.22-3.73,7.94-5.43c2.65-1.65,5.59-2.55,8.72-2.92
			c2.93-0.35,4.29,0.07,5.74,2.62c1.12,1.96,2.14,3.99,2.94,6.09c1.33,3.49,2.45,7.06,3.65,10.6c0.44,1.29,0.8,2.61,1.27,3.89
			c0.76,2.08,1.41,4.23,2.43,6.17c1.47,2.79,3.51,5.23,5.98,7.21c1.77,1.42,3.6,2.8,5.55,3.94c2.3,1.35,4.9,1.93,7.52,2.5
			c2.54,0.56,5.05,0.65,7.66,0.62c-0.59-1.5-1.17-2.9-1.69-4.33c-1.14-3.11-2.35-6.2-3.33-9.36c-0.62-2-0.98-4.11-1.3-6.19
			c-0.35-2.29-0.58-4.61-0.74-6.92c-0.09-1.4,1.15-2.92,2.37-2.88c1.15,0.03,2.32,0.28,3.42,0.63c1.48,0.48,2.86,1.27,4.35,1.7
			c2.09,0.6,4.23,1.08,6.39,1.41c1.04,0.16,2.23,0.38,3.16-0.24c-1.66-2.21-3.52-4.2-4.8-6.52c-2.21-4-4.2-8.13-6-12.33
			c-1.3-3.03-2.13-6.27-3.15-9.42c-0.34-1.07-0.89-1.99-1.99-2.27c-1.97-0.51-4-0.76-6-0.1c-1.81,0.6-3.56,1.39-5.38,1.95
			c-1.6,0.49-3.24,0.93-4.89,1.12c-1.91,0.22-3.7-0.35-5.47-1.19c-1.17-0.55-2.22-1.09-2.93-2.19c-2.63-4.05-3.29-8.67-3.78-13.3
			c-0.22-2.06,0-4.17-0.04-6.26c-0.08-4.12,0.21-8.2,1.47-12.15c0.73-2.29,1.72-4.47,3.76-5.94c2.02-1.46,4.23-1.03,6.36-0.45
			c1.8,0.48,3.51,1.27,5.33,1.94c0.51-1.68,0.94-3.32,0.63-5.13c-0.42-2.49-1.5-4.59-3.25-6.35c-1.02-1.02-2.2-1.89-3.15-2.97
			c-1.62-1.84-1.53-5,1.16-6.09c2.92-1.19,5.85-2.37,8.79-3.53c2.46-0.97,4.99-1.6,7.66-1.59c1.27,0.01,2.54,0,3.78,0
			c0.04-0.19,0.09-0.27,0.07-0.34c-0.03-0.15-0.09-0.3-0.15-0.44c-1.76-3.9-3.68-7.67-6.24-11.16c-3.25-4.43-7.25-7.86-12.08-10.37
			c-4.39-2.28-9.08-3.69-13.88-4.83c-2.99-0.71-6.08-1.05-8.86-2.57c-1.04-0.57-1.61-1.44-1.66-2.38c-0.14-2.87-0.17-5.76-0.01-8.63
			c0.19-3.54,0.68-7.07,0.88-10.61c0.11-1.85-0.07-3.73-0.22-5.59c-0.18-2.15-0.25-4.35-0.76-6.43c-0.69-2.82-1.7-5.58-2.69-8.32
			c-0.33-0.93-1.01-1.73-1.58-2.67c-1.81,0-3.75,0.16-5.65-0.04c-2.01-0.22-3.98-0.74-5.96-1.2c-3.5-0.82-5.83-2.91-6.22-6.49
			C380.77,261.65,372.17,272.06,359.2,278.47z M151.35,177.89c0.08,0.05,0.16,0.09,0.24,0.14c0.61-0.79,1.13-1.67,1.83-2.36
			c3.32-3.29,7.02-6,11.31-7.95c4.58-2.09,9.26-3.71,14.23-4.6c4.47-0.8,8.93-1.06,13.44-0.66c0.82,0.07,1.68,0.06,2.46,0.29
			c3.33,0.97,6.74,1.76,9.92,3.1c5.27,2.22,10.39,4.74,15.02,8.21c3.78,2.84,7.26,5.99,10.58,9.31c1.98,1.98,3.59,4.36,5.26,6.64
			c4.03,5.48,6.76,11.57,8.76,18.06c1.36,4.4,1.89,8.9,2.17,13.44c0.25,4.15,0.09,8.33-0.68,12.44c-0.84,4.46-1.69,8.9-4.12,12.86
			c-2.27,3.7-4.9,7.07-8.66,9.37c-4.94,3.03-10.32,4.72-16.13,4.85c-3.95,0.09-7.88-0.27-11.74-1.18c-4.48-1.07-8.99-2.03-13.4-3.33
			c-6.02-1.77-11.65-4.51-17.2-7.45c-3.67-1.94-6.9-4.51-10.04-7.14c-3.87-3.25-7.44-6.87-11.14-10.33
			c-0.76-0.71-1.57-1.33-2.92-1.17c1.3,3.57,2.37,7.1,3.87,10.44c1.57,3.49,3.63,6.75,6.07,9.75c1.48,1.83,2.91,3.71,4.37,5.56
			c2.85,3.59,7.15,5.3,10.58,8.14c0.13,0.11,0.38,0.07,0.57,0.09c3.83,0.24,7.68,0.3,11.48,0.77c3.32,0.41,6.63,1.13,9.87,1.99
			c4.52,1.21,8.93,2.78,13.45,4c3.99,1.08,8.04,1.93,12.09,2.8c2.64,0.57,5.3,1.07,7.97,1.44c2.61,0.36,5.25,0.61,7.88,0.73
			c3.98,0.17,7.98,0.34,11.96,0.22c3.7-0.11,7.41-0.42,11.07-0.97c2.91-0.44,5.8-1.22,8.6-2.17c2.05-0.69,3.97-1.81,5.87-2.89
			c2.72-1.55,5.45-3.09,7.78-5.27c1.33-1.24,2.66-2.26,3.3-4.19c0.79-2.39,2.33-4.52,3.31-6.86c1.13-2.69,2.15-5.45,2.95-8.26
			c0.83-2.88,1.44-5.84,1.97-8.79c0.45-2.51,0.95-5.08,0.87-7.6c-0.15-4.44-0.52-8.91-1.19-13.3c-0.59-3.93-1.52-7.83-2.64-11.64
			c-1.61-5.45-3.94-10.63-6.78-15.57c-0.99-1.73-1.89-3.53-3.03-5.16c-3.85-5.51-7.97-10.81-13.19-15.13
			c-2.42-2-4.84-4.03-7.37-5.89c-1.76-1.29-3.65-2.45-5.59-3.45c-4.74-2.43-9.42-5.03-14.35-7c-6.28-2.51-12.87-4.13-19.63-4.87
			c-3.31-0.36-6.58-1.04-9.95-0.73c-3.58,0.33-7.2,0.31-10.76,0.79c-4.18,0.56-8.35,1.33-12.45,2.31c-2.98,0.71-5.87,1.87-8.77,2.91
			c-3.08,1.11-6.2,2.16-9.17,3.52c-5.25,2.39-10.29,5.19-14.82,8.82c-1.45,1.16-3.04,2.17-3.41,4.31
			C152.82,172.15,152.03,175.01,151.35,177.89z M300.66,240.64c-0.17,0.69-0.37,1.44-0.54,2.19c-1.19,5.2-2.84,10.23-5.24,15
			c-0.58,1.15-0.98,2.38-1.53,3.55c-0.26,0.55-0.14,0.76,0.34,1.14c1.49,1.18,2.88,2.47,4.31,3.72c1.89,1.65,3.66,3.46,5.68,4.91
			c2.03,1.45,4.27,2.62,6.5,3.76c0.79,0.4,1.82,0.54,2.73,0.49c4.54-0.25,9.07-0.75,13.61-0.88c4.18-0.12,8.37,0.03,12.54,0.23
			c2.19,0.1,4.35,0.57,6.53,0.87c1.32,0.18,2.75,0.76,3.94,0.44c2.69-0.72,5.35-1.71,7.87-2.91c4.9-2.35,9.2-5.62,12.94-9.56
			c2.22-2.34,4.22-4.9,6.25-7.41c4.84-5.98,8.12-12.77,10.64-20c1.85-5.31,3.29-10.69,3.81-16.29c0.31-3.33,0.92-6.61,0.53-10.01
			c-0.43-3.74-0.69-7.48-1.69-11.16c-1.64-6.02-3.51-11.93-6.67-17.33c-2.85-4.86-6-9.53-10.1-13.44c-2.14-2.04-4.48-3.86-6.72-5.8
			c-3.51-3.04-7.54-5.18-11.82-6.9c-1.45-0.58-2.88-1.25-4.38-1.64c-3.36-0.87-6.74-1.73-10.15-2.33c-3.02-0.53-6.09-0.93-9.15-0.99
			c-3.6-0.08-7.21,0.26-10.82,0.43c-0.16,0.01-0.31,0.06-0.47,0.08c-2.4,0.37-4.8,0.76-7.2,1.11c-2.53,0.36-5.08,0.55-7.58,1.05
			c-3.37,0.66-6.71,1.48-10.04,2.34c-3.47,0.89-6.95,1.78-10.36,2.9c-2.63,0.86-5.14,2.06-7.7,3.13c-1.42,0.59-2.86,1.15-3.62,2.46
			c2.83,2.76,5.64,5.49,8.39,8.16c0.7-0.47,1.77-1.01,2.62-1.79c2.92-2.68,6.27-4.53,10.11-5.45c2.31-0.56,4.64-1.11,6.99-1.48
			c2.06-0.32,4.16-0.46,6.25-0.5c3.36-0.07,6.78-0.37,10.09,0.1c3.8,0.54,7.57,1.58,11.21,2.82c6.57,2.23,12.19,6.05,16.54,11.49
			c3.44,4.29,5.8,9.19,7.07,14.55c0.49,2.05,0.65,4.2,0.74,6.31c0.1,2.39,0.14,4.82-0.16,7.19c-0.43,3.42-1.56,6.7-3.07,9.79
			c-1.53,3.12-3.07,6.27-4.93,9.2c-1.6,2.51-3.48,4.89-5.56,7.01c-3.93,4.01-7.57,8.39-12.57,11.2c-2.56,1.44-5.14,2.93-8.17,3.08
			c-3.73,0.18-7.44,0-11.07-0.96C304.95,243.77,302.55,242.63,300.66,240.64z M290.56,267.19c-3.1,2.1-6.09,4.23-9.19,6.2
			c-3.52,2.24-7.02,4.54-11.19,5.49c-2.47,0.56-4.88,1.46-7.37,1.78c-4.65,0.58-9.34,0.88-14.02,1.22
			c-0.97,0.07-1.97-0.15-2.95-0.22c-2.48-0.17-4.97-0.32-7.45-0.49c-1.02-0.07-2.05-0.12-3.07-0.27c-3.1-0.45-6.2-0.92-9.29-1.41
			c-3.1-0.49-6.22-0.84-9.27-1.54c-4.4-1-8.74-2.29-13.12-3.4c-5.03-1.27-9.82-3.4-15.02-4.04c-2.96-0.36-5.92-0.76-8.89-1.08
			c-0.95-0.1-1.94,0.09-2.87-0.06c-1.81-0.29-3.42-0.25-4.52,1.52c-0.19,0.3-0.5,0.52-0.76,0.77c-2.12,2.04-4.34,4-6.34,6.15
			c-1.7,1.84-3.25,3.84-4.69,5.9c-1.04,1.48-1.79,3.15-2.76,4.91c2.15-0.52,4.05-1.19,5.99-1.4c3.65-0.4,7.33-0.67,11-0.73
			c4.54-0.07,9.08,0.08,13.62,0.22c2.89,0.08,5.77,0.31,8.66,0.46c3.13,0.17,6.25,0.34,9.38,0.48c2.38,0.11,4.77,0.26,7.15,0.23
			c6.09-0.09,12.17,0.29,18.26-0.42c4-0.46,8.06-0.49,12.08-0.78c1.76-0.13,3.51-0.43,5.25-0.67c2.25-0.32,4.5-0.67,6.75-0.99
			c2.53-0.35,5.07-0.61,7.58-1.03c3.35-0.56,6.69-1.21,10.03-1.85c4.03-0.77,8.05-1.58,12.08-2.35c2.23-0.43,4.46-0.85,6.69-1.24
			c3.41-0.59,6.83-1.16,10.65-1.81C298.22,273.9,294.08,270.8,290.56,267.19z M395.73,199.06c2.85,14.57,0.82,28.91-4.68,42.89
			c0.52,0.19,1.07,0.31,1.51,0.59c0.36,0.23,0.8,0.64,0.83,0.99c0.07,0.9,0.04,1.84-0.14,2.72c-0.49,2.35-0.14,3.87,1.46,4.36
			c1.97,0.6,4.03,0.92,6.06,1.3c0.84,0.16,1.72,0.24,2.58,0.19c0.97-0.05,1.97-0.15,2.9-0.44c1.8-0.56,3.75-0.98,5.28-2
			c1.59-1.07,2.86-2.69,4.07-4.23c2.04-2.59,3-5.67,3.24-8.92c0.27-3.65-0.55-7.2-1.66-10.65c-0.7-2.19-1.79-4.24-2.63-6.39
			c-0.59-1.5-0.38-3.59,1.46-4.13c0.59-0.17,1.23-0.15,1.89-0.21c0-0.3,0.05-0.55-0.01-0.77c-0.76-2.61-1.49-5.24-2.31-7.83
			c-1.26-4.01-3.74-7.17-7.06-9.66c-1.39-1.04-3.06-1.74-4.82-1.5c-1.71,0.23-3.4,0.67-4.83,1.84
			C397.95,197.95,396.84,198.42,395.73,199.06z"/>
		<path class="st0" d="M203.07,405.99c0.9-2.76,1.66-5.26,2.53-7.72c1.29-3.64,2.74-7.23,3.98-10.89c1.56-4.61,3.12-9.23,2.74-14.23
			c-0.21-2.85-0.94-5.45-2.54-7.94c-1.06-1.66-2.34-1.5-3.76-1.51c-0.36-1-1.03-1.45-2.05-1.44c-4.38,0.01-8-1.94-11.36-4.49
			c-1.66-1.26-3.43-2.44-4.83-3.95c-1.73-1.86-3.3-3.92-4.62-6.08c-1.33-2.18-2.28-4.61-3.39-6.93c-0.06-0.13-0.04-0.3-0.09-0.71
			c1.56,0.14,3.04,0.19,4.5,0.42c3.05,0.48,6.08,1.13,9.13,1.57c3.81,0.55,7.64,0.99,11.46,1.44c1.22,0.14,2.44,0.21,3.67,0.25
			c3.06,0.1,6.13,0.13,9.19,0.26c2.29,0.1,4.59,0.55,6.86,0.42c4.56-0.28,9.16-0.17,13.68-1.11c2.87-0.6,5.85-0.71,8.74-1.26
			c3.53-0.67,7.01-1.59,10.51-2.36c7.4-1.64,14.62-3.93,21.82-6.26c3.56-1.15,7.08-2.46,10.6-3.75c2.71-0.99,5.39-2.06,8.1-3.06
			c2.74-1.02,5.49-1.98,8.22-3.02c3.32-1.26,6.59-2.65,9.93-3.86c6.19-2.24,12.27-4.81,18.74-6.24c3.62-0.8,7.2-1.79,10.82-2.56
			c1.69-0.36,3.44-0.36,5.17-0.54c1.25-0.13,2.49-0.41,3.74-0.43c1.66-0.03,3.33,0.11,4.99,0.23c0.2,0.01,0.41,0.31,0.56,0.52
			c3.63,5.29,6.37,10.98,8.21,17.17c1.39,4.7,2.32,9.48,3.25,14.26c0.34,1.73,0.48,3.53,0.48,5.3c0,2.99,0.58,5.96-0.12,8.99
			c-0.73,3.2-0.95,6.52-1.55,9.75c-0.38,2.03-0.97,4.02-1.62,5.98c-0.77,2.33-1.92,4.55-2.53,6.91c-0.82,3.18-2.46,5.93-4.01,8.72
			c-1.11,2.01-2.51,3.9-4.01,5.64c-4.57,5.32-10.47,8.68-16.97,11.04c-3.99,1.45-8.04,2.73-12.08,4.05
			c-4.81,1.56-9.79,2.31-14.76,3.12c-3.75,0.61-7.48,1.33-11.24,1.87c-2.15,0.31-4.33,0.35-6.5,0.52c-4.25,0.32-8.5,0.69-12.76,0.93
			c-3.22,0.18-6.44,0.21-9.67,0.25c-1.18,0.01-2.37-0.12-3.55-0.23c-4.28-0.38-8.56-0.73-12.83-1.2c-3.67-0.4-7.33-0.9-10.98-1.46
			c-3.13-0.48-6.24-1.12-9.35-1.67c-2.69-0.48-5.39-0.97-8.09-1.42c-2.97-0.5-5.95-0.99-8.93-1.41c-2.22-0.31-4.46-0.49-6.69-0.75
			c-2.58-0.3-5.15-0.64-7.73-0.93C205.15,406.09,204.21,406.06,203.07,405.99z M350.63,356.75c0.1,0.12,0.2,0.23,0.31,0.35
			c-2.32,4.02-4.51,8.13-7.02,12.03c-1.97,3.06-4.35,5.85-6.54,8.77c-1.55,2.07-3.14,4.12-4.64,6.23c-1.27,1.78-1.86,1.94-3.66,0.76
			c-4.21-2.76-6.14-6.98-7.37-11.62c-0.77-2.9-1.42-5.83-2.18-8.74c-0.61-2.32-3-3.22-5.08-2.05c-1.87,1.05-3.63,2.29-5.41,3.5
			c-1.58,1.07-3.35,1.53-5.21,1.56c-1.86,0.03-3.73-0.2-5.59-0.18c-0.58,0.01-1.45,0.31-1.67,0.74c-1.18,2.29-0.19,3.9,2.34,4.03
			c0.39,0.02,0.77,0.2,1.15,0.22c4.55,0.28,8.96-0.14,12.97-2.61c0.59-0.36,1.22-0.65,1.82-0.96c1.27,4.6,2.11,9.28,4.46,13.47
			c2.35,4.2,5.5,7.5,10.24,8.83c2.07,0.58,4.27,0.69,5.85-1.35c1.08-1.4,2.16-2.8,3.24-4.2c2.37-3.08,4.82-6.1,7.09-9.25
			c2.19-3.05,4.31-6.17,6.22-9.39c1.67-2.82,3.25-5.74,4.42-8.79c1.47-3.82-0.83-6.34-4.46-6.35c-1.82-0.01-3.65,0.12-5.47,0.24
			c-1.36,0.09-1.92,0.76-1.94,2.17c0,0.44-0.05,0.89,0.01,1.32c0.12,0.94,0.56,1.6,1.64,1.54
			C347.64,356.91,349.13,356.83,350.63,356.75z M226.06,383.97c-0.24-0.21-0.41-0.32-0.53-0.46c-2.96-3.48-4.51-7.55-5.06-12.04
			c-0.06-0.48-0.21-0.99-0.45-1.4c-0.6-1.02-1.63-0.56-2.48-0.57c-1.35-0.01-1.89,0.5-1.83,1.86c0.08,2.05,0.1,4.14,0.55,6.11
			c1,4.39,3.18,8.17,6.54,11.23c1.32,1.2,3.9,1.31,5.26,0.17c0.74-0.62,1.48-1.25,2.16-1.93c0.87-0.87,1.74-1.75,2.51-2.7
			c2.09-2.6,4.11-5.26,6.2-7.86c0.2-0.25,0.67-0.38,1.03-0.41c1.92-0.18,3.93,0.13,5.69-0.98c0.27-0.17,0.69-0.39,0.7-0.6
			c0.02-0.67,0.12-1.61-0.26-1.97c-0.58-0.55-1.53-0.96-2.33-0.97c-2.46-0.05-4.92,0.1-7.38,0.22c-0.39,0.02-0.89,0.22-1.14,0.51
			c-1.59,1.82-3.19,3.65-4.67,5.56C228.99,379.73,227.58,381.84,226.06,383.97z M248,383.12c-0.18-0.91,0.05-1.87-1.18-2.13
			c-1.56-0.33-2.4,0.01-3.02,1.28c-0.43,0.88-0.86,1.76-1.22,2.67c-0.92,2.35-1.92,4.68-2.64,7.09c-0.66,2.19-1.05,4.48-1.43,6.74
			c-0.11,0.67-0.03,1.63,0.38,2.1c0.98,1.14,3.25,0.57,3.72-0.87c0.9-2.78,1.7-5.58,2.59-8.36c0.66-2.08,1.4-4.13,2.09-6.2
			C247.54,384.67,247.76,383.89,248,383.12z M302.05,356.99c-2.14,0-2.76,0.52-2.62,2.63c0.08,1.25,0.54,2.47,0.88,3.69
			c0.05,0.17,0.39,0.35,0.61,0.37c0.59,0.05,1.21,0.09,1.79-0.01c0.28-0.05,0.6-0.39,0.74-0.68c0.33-0.69,0.5-1.44,0.83-2.13
			C305.28,358.77,304.27,356.99,302.05,356.99z"/>
		<path class="st0" d="M359.2,278.47c12.97-6.41,21.57-16.82,28.38-28.96c0.38,3.58,2.71,5.67,6.22,6.49
			c1.97,0.46,3.95,0.98,5.96,1.2c1.9,0.2,3.84,0.04,5.65,0.04c0.57,0.94,1.24,1.74,1.58,2.67c0.99,2.74,2,5.49,2.69,8.32
			c0.51,2.08,0.58,4.28,0.76,6.43c0.15,1.86,0.33,3.73,0.22,5.59c-0.2,3.54-0.7,7.07-0.88,10.61c-0.15,2.87-0.13,5.76,0.01,8.63
			c0.05,0.94,0.62,1.81,1.66,2.38c2.78,1.52,5.87,1.86,8.86,2.57c4.8,1.14,9.5,2.55,13.88,4.83c4.83,2.51,8.83,5.94,12.08,10.37
			c2.56,3.49,4.47,7.26,6.24,11.16c0.06,0.14,0.12,0.29,0.15,0.44c0.02,0.07-0.03,0.15-0.07,0.34c-1.24,0-2.51,0.01-3.78,0
			c-2.67-0.02-5.2,0.62-7.66,1.59c-2.94,1.16-5.87,2.34-8.79,3.53c-2.69,1.1-2.78,4.26-1.16,6.09c0.95,1.08,2.13,1.95,3.15,2.97
			c1.76,1.76,2.83,3.86,3.25,6.35c0.31,1.81-0.12,3.45-0.63,5.13c-1.82-0.68-3.53-1.46-5.33-1.94c-2.13-0.57-4.34-1-6.36,0.45
			c-2.04,1.48-3.03,3.65-3.76,5.94c-1.26,3.95-1.55,8.03-1.47,12.15c0.04,2.09-0.18,4.19,0.04,6.26c0.49,4.64,1.15,9.26,3.78,13.3
			c0.72,1.1,1.77,1.64,2.93,2.19c1.77,0.84,3.56,1.41,5.47,1.19c1.65-0.19,3.3-0.63,4.89-1.12c1.82-0.56,3.57-1.35,5.38-1.95
			c1.99-0.66,4.02-0.42,6,0.1c1.1,0.28,1.65,1.2,1.99,2.27c1.01,3.15,1.85,6.38,3.15,9.42c1.79,4.2,3.79,8.34,6,12.33
			c1.28,2.31,3.14,4.3,4.8,6.52c-0.93,0.62-2.12,0.4-3.16,0.24c-2.15-0.33-4.29-0.81-6.39-1.41c-1.49-0.42-2.87-1.22-4.35-1.7
			c-1.1-0.35-2.27-0.6-3.42-0.63c-1.22-0.03-2.46,1.48-2.37,2.88c0.15,2.32,0.39,4.63,0.74,6.92c0.32,2.08,0.67,4.18,1.3,6.19
			c0.98,3.16,2.19,6.25,3.33,9.36c0.52,1.43,1.1,2.83,1.69,4.33c-2.61,0.03-5.12-0.07-7.66-0.62c-2.62-0.57-5.22-1.15-7.52-2.5
			c-1.95-1.15-3.78-2.52-5.55-3.94c-2.48-1.98-4.51-4.42-5.98-7.21c-1.02-1.94-1.67-4.09-2.43-6.17c-0.47-1.28-0.83-2.6-1.27-3.89
			c-1.2-3.54-2.32-7.11-3.65-10.6c-0.8-2.1-1.82-4.14-2.94-6.09c-1.45-2.55-2.81-2.97-5.74-2.62c-3.13,0.38-6.07,1.27-8.72,2.92
			c-2.72,1.7-5.36,3.53-7.94,5.43c-2.43,1.8-4.75,3.75-7.1,5.66c-0.92,0.75-1.81,1.55-2.65,2.39c-5.44,5.42-10.86,10.85-16.29,16.28
			c-1.65,1.65-3.24,3.37-4.97,4.94c-3.13,2.84-6.26,5.69-9.56,8.34c-3.67,2.94-7.42,5.8-11.33,8.42c-2.58,1.73-5.52,2.92-8.24,4.44
			c-4.34,2.42-9.16,3.54-13.74,5.31c-5.71,2.21-11.65,3.52-17.56,4.91c-4.22,0.99-8.58,1.42-12.9,1.98c-3.32,0.43-6.66,0.79-10,0.95
			c-5.44,0.27-10.89,0.52-16.33,0.44c-3.32-0.05-6.65-0.63-9.95-1.15c-3.39-0.53-6.81-1.06-10.11-1.96
			c-5.15-1.39-10.25-3.01-15.14-5.21c-3.46-1.56-6.94-3.1-10.32-4.83c-2.18-1.12-4.2-2.57-6.28-3.88c-1.49-0.94-3.01-1.82-4.44-2.84
			c-2.36-1.69-4.66-3.46-6.97-5.22c-1.44-1.09-2.84-2.23-4.3-3.3c-1.89-1.39-3.78-2.78-5.74-4.07c-1.5-0.99-3.1-1.83-4.68-2.7
			c-0.68-0.38-1.41-0.65-2.09-1.02c-1.52-0.83-3.14-1.18-4.86-1.17c-0.92,0.01-1.84,0-2.91,0c-0.49-2.32-1.05-4.62-1.46-6.95
			c-0.39-2.2-0.72-4.42-0.9-6.64c-0.15-1.78-0.19-3.6-0.02-5.38c0.28-2.97,0.63-5.94,1.19-8.86c0.36-1.86,1.07-3.67,1.74-5.45
			c0.55-1.45,1.1-2.89,2.54-3.84c1.25-0.83,2.69-1.04,4.01-0.26c0.86,0.51,1.81,0.87,2.72,1.3c0.91,0.43,1.83,0.87,2.79,1.33
			c-0.78,2.14-1.98,3.88-3.41,5.58c-2.13,2.52-3.57,5.48-2.91,8.89c0.23,1.17,1.23,2.23,1.99,3.26c1.35,1.83,2.75,3.63,4.22,5.37
			c0.96,1.14,2.01,2.24,3.16,3.19c3,2.48,5.9,5.14,9.16,7.21c3.76,2.38,7.84,4.27,11.83,6.27c5.6,2.81,11.48,4.93,17.54,6.51
			c3.17,0.83,6.32,1.75,9.52,2.43c2.83,0.6,5.71,1.03,8.58,1.37c3.6,0.42,7.22,0.79,10.84,0.95c4.58,0.21,9.16,0.31,13.74,0.23
			c4.27-0.07,8.54-0.4,12.81-0.7c3.66-0.26,7.33-0.5,10.96-0.98c4.23-0.56,8.42-1.4,12.63-2.09c7.23-1.18,14.24-3.23,21.19-5.47
			c6.03-1.94,12-4.04,17.64-6.99c2.43-1.27,5.05-2.17,7.44-3.51c5.67-3.18,11.26-6.48,16.4-10.51c3.55-2.78,6.69-5.95,9.96-9.01
			c3.88-3.63,7.15-7.74,10.11-12.11c3.41-5.02,6.58-10.2,9.24-15.67c2.59-5.32,4.67-10.84,6.17-16.55c1.1-4.19,1.88-8.46,2.93-12.66
			c0.89-3.56,1.07-7.17,1.15-10.79c0.08-3.44,0.26-6.91-0.05-10.33c-0.37-4.13-1.21-8.21-1.83-12.32
			c-0.86-5.72-3.13-10.93-5.61-16.1c-3.09-6.46-7.28-12.09-12.6-16.81c-2.95-2.62-6.16-5.01-9.47-7.16
			c-3.77-2.45-7.7-4.68-11.72-6.7c-2.63-1.33-5.52-2.14-8.3-3.18C359.77,278.73,359.64,278.66,359.2,278.47z M392.9,276.16
			c0.4,0.04,0.7,0.04,0.99,0.11c2.58,0.62,4.65-1.05,4.85-3.67c0.27-3.6-1.28-6.64-2.72-9.73c-0.41-0.89-2.15-1.38-3.18-1.07
			c-1.16,0.35-1.72,1.22-1.83,2.42c-0.1,1.07,0.42,1.87,0.82,2.76c0.48,1.06,0.87,2.17,1.32,3.29c-1.97-0.31-3.61-0.68-5.26-0.81
			c-1.26-0.1-2.33,1.01-2.34,2.27c-0.01,0.82,0.16,1.64,0.25,2.51c-2.1-0.14-4,0.09-4.9,2.35c-1.01,2.52-0.41,4.77,2.17,5.25
			c2.39,0.44,4.87,0.43,7.32,0.52c0.89,0.03,1.63-0.4,2.07-1.29C393.19,279.54,393.43,277.97,392.9,276.16z M444.39,398.73
			c-2.38-0.06-2.82,0.38-2.75,2.78c0.01,0.24-0.05,0.5,0.01,0.72c0.32,1.08,0.08,2.51,1.57,2.92c2.28,0.63,3.71-0.27,4.15-2.57
			C447.76,400.57,446.7,398.33,444.39,398.73z"/>
		<path class="st0" d="M151.35,177.89c0.67-2.88,1.47-5.74,1.98-8.65c0.38-2.15,1.96-3.15,3.41-4.31c4.52-3.63,9.56-6.42,14.82-8.82
			c2.97-1.35,6.09-2.41,9.17-3.52c2.9-1.04,5.78-2.2,8.77-2.91c4.1-0.98,8.27-1.75,12.45-2.31c3.56-0.48,7.18-0.46,10.76-0.79
			c3.37-0.31,6.65,0.37,9.95,0.73c6.76,0.74,13.35,2.36,19.63,4.87c4.93,1.97,9.61,4.57,14.35,7c1.94,1,3.83,2.15,5.59,3.45
			c2.53,1.86,4.95,3.89,7.37,5.89c5.22,4.32,9.34,9.62,13.19,15.13c1.14,1.63,2.04,3.43,3.03,5.16c2.84,4.94,5.17,10.12,6.78,15.57
			c1.13,3.81,2.05,7.72,2.64,11.64c0.67,4.4,1.04,8.86,1.19,13.3c0.08,2.52-0.42,5.09-0.87,7.6c-0.53,2.96-1.14,5.91-1.97,8.79
			c-0.81,2.81-1.82,5.56-2.95,8.26c-0.98,2.34-2.53,4.47-3.31,6.86c-0.63,1.93-1.96,2.95-3.3,4.19c-2.33,2.17-5.05,3.72-7.78,5.27
			c-1.9,1.08-3.82,2.2-5.87,2.89c-2.79,0.95-5.68,1.73-8.6,2.17c-3.66,0.56-7.37,0.86-11.07,0.97c-3.98,0.12-7.98-0.05-11.96-0.22
			c-2.63-0.11-5.27-0.37-7.88-0.73c-2.67-0.37-5.33-0.87-7.97-1.44c-4.04-0.87-8.1-1.72-12.09-2.8c-4.51-1.22-8.93-2.8-13.45-4
			c-3.24-0.87-6.55-1.58-9.87-1.99c-3.8-0.47-7.65-0.53-11.48-0.77c-0.2-0.01-0.45,0.02-0.57-0.09c-3.43-2.84-7.73-4.55-10.58-8.14
			c-1.46-1.85-2.89-3.73-4.37-5.56c-2.43-3-4.49-6.26-6.07-9.75c-1.5-3.34-2.57-6.87-3.87-10.44c1.35-0.16,2.16,0.46,2.92,1.17
			c3.7,3.45,7.26,7.08,11.14,10.33c3.14,2.63,6.37,5.2,10.04,7.14c5.54,2.94,11.17,5.67,17.2,7.45c4.41,1.3,8.92,2.26,13.4,3.33
			c3.85,0.92,7.78,1.28,11.74,1.18c5.81-0.14,11.19-1.82,16.13-4.85c3.75-2.3,6.38-5.67,8.66-9.37c2.43-3.96,3.28-8.41,4.12-12.86
			c0.77-4.12,0.93-8.29,0.68-12.44c-0.28-4.53-0.81-9.04-2.17-13.44c-2-6.49-4.74-12.58-8.76-18.06c-1.67-2.28-3.28-4.65-5.26-6.64
			c-3.32-3.32-6.8-6.47-10.58-9.31c-4.63-3.47-9.76-5.99-15.02-8.21c-3.18-1.34-6.59-2.13-9.92-3.1c-0.78-0.23-1.64-0.22-2.46-0.29
			c-4.51-0.4-8.97-0.13-13.44,0.66c-4.97,0.89-9.65,2.51-14.23,4.6c-4.29,1.96-7.99,4.67-11.31,7.95c-0.7,0.7-1.23,1.57-1.83,2.36
			C151.51,177.98,151.43,177.94,151.35,177.89z M273.56,265.09c1.44,0.47,2.28-0.4,3.06-1.33c0.45-0.54,0.9-1.1,1.23-1.72
			c0.74-1.41,1.56-2.81,2.06-4.31c0.39-1.17,0.45-2.47,0.49-3.72c0.07-2.27,0.39-2.57-1.66-2.58c-0.94-0.01-1.17,0.63-1.42,1.32
			c-0.1,0.28-0.19,0.59-0.35,0.84c-0.51,0.76-1.07,1.49-1.58,2.25c-1.1,1.66-2.12,3.38-3.3,4.98c-0.61,0.82-1.05,2.53-0.65,3.58
			C271.87,265.56,272.85,264.95,273.56,265.09z"/>
		<path class="st0" d="M300.66,240.64c1.9,1.99,4.29,3.13,6.92,3.83c3.63,0.96,7.34,1.15,11.07,0.96c3.03-0.15,5.61-1.64,8.17-3.08
			c5-2.81,8.64-7.19,12.57-11.2c2.08-2.12,3.96-4.51,5.56-7.01c1.86-2.93,3.4-6.07,4.93-9.2c1.52-3.09,2.65-6.37,3.07-9.79
			c0.3-2.37,0.25-4.8,0.16-7.19c-0.09-2.11-0.25-4.26-0.74-6.31c-1.27-5.35-3.64-10.26-7.07-14.55c-4.36-5.43-9.97-9.26-16.54-11.49
			c-3.64-1.24-7.42-2.28-11.21-2.82c-3.3-0.47-6.72-0.17-10.09-0.1c-2.09,0.05-4.19,0.18-6.25,0.5c-2.35,0.36-4.67,0.92-6.99,1.48
			c-3.84,0.93-7.19,2.77-10.11,5.45c-0.85,0.78-1.92,1.32-2.62,1.79c-2.75-2.68-5.56-5.41-8.39-8.16c0.76-1.32,2.2-1.87,3.62-2.46
			c2.56-1.06,5.08-2.27,7.7-3.13c3.4-1.12,6.88-2.01,10.36-2.9c3.33-0.85,6.67-1.67,10.04-2.34c2.5-0.49,5.06-0.68,7.58-1.05
			c2.4-0.34,4.8-0.74,7.2-1.11c0.16-0.02,0.31-0.07,0.47-0.08c3.61-0.16,7.22-0.51,10.82-0.43c3.06,0.07,6.13,0.46,9.15,0.99
			c3.42,0.6,6.79,1.46,10.15,2.33c1.5,0.39,2.93,1.06,4.38,1.64c4.28,1.72,8.31,3.86,11.82,6.9c2.24,1.94,4.58,3.76,6.72,5.8
			c4.11,3.91,7.26,8.58,10.1,13.44c3.16,5.4,5.04,11.31,6.67,17.33c1,3.68,1.26,7.41,1.69,11.16c0.39,3.4-0.21,6.68-0.53,10.01
			c-0.53,5.6-1.96,10.98-3.81,16.29c-2.52,7.23-5.81,14.03-10.64,20c-2.03,2.51-4.03,5.07-6.25,7.41
			c-3.73,3.94-8.03,7.21-12.94,9.56c-2.52,1.2-5.18,2.19-7.87,2.91c-1.19,0.32-2.62-0.26-3.94-0.44c-2.18-0.3-4.34-0.76-6.53-0.87
			c-4.18-0.2-8.37-0.35-12.54-0.23c-4.54,0.13-9.07,0.63-13.61,0.88c-0.9,0.05-1.94-0.09-2.73-0.49c-2.23-1.14-4.47-2.31-6.5-3.76
			c-2.03-1.45-3.8-3.26-5.68-4.91c-1.43-1.25-2.82-2.54-4.31-3.72c-0.48-0.38-0.6-0.59-0.34-1.14c0.55-1.17,0.95-2.4,1.53-3.55
			c2.4-4.78,4.05-9.81,5.24-15C300.28,242.08,300.48,241.34,300.66,240.64z M354.41,269.8c0.58-0.17,1.43-0.27,2.13-0.64
			c1.33-0.71,2.66-1.48,3.86-2.4c2.09-1.61,4.19-3.24,6.06-5.08c1.7-1.68,3.1-3.66,4.62-5.51c0.49-0.6,0.38-2.72-0.15-3.1
			c-0.54-0.39-2.72-0.19-3.26,0.28c-1.7,1.47-3.41,2.93-5.11,4.39c-3.22,2.76-6.43,5.52-10.25,7.45c-1.17,0.59-0.94,1.87-0.8,2.9
			c0.07,0.5,0.6,1.06,1.07,1.36C352.99,269.71,353.61,269.66,354.41,269.8z"/>
		<path class="st0" d="M290.56,267.19c3.52,3.61,7.66,6.71,12.41,9.55c-3.82,0.65-7.23,1.21-10.65,1.81
			c-2.24,0.39-4.47,0.81-6.69,1.24c-4.03,0.78-8.05,1.58-12.08,2.35c-3.34,0.64-6.68,1.3-10.03,1.85c-2.51,0.42-5.06,0.68-7.58,1.03
			c-2.25,0.31-4.5,0.67-6.75,0.99c-1.75,0.25-3.5,0.54-5.25,0.67c-4.03,0.29-8.08,0.32-12.08,0.78c-6.08,0.71-12.17,0.33-18.26,0.42
			c-2.38,0.04-4.77-0.12-7.15-0.23c-3.13-0.14-6.25-0.31-9.38-0.48c-2.89-0.15-5.77-0.38-8.66-0.46c-4.54-0.13-9.08-0.29-13.62-0.22
			c-3.67,0.06-7.35,0.34-11,0.73c-1.95,0.21-3.84,0.88-5.99,1.4c0.97-1.76,1.72-3.43,2.76-4.91c1.44-2.05,2.99-4.06,4.69-5.9
			c2-2.16,4.22-4.11,6.34-6.15c0.26-0.25,0.57-0.47,0.76-0.77c1.1-1.76,2.72-1.81,4.52-1.52c0.94,0.15,1.92-0.05,2.87,0.06
			c2.97,0.32,5.92,0.72,8.89,1.08c5.2,0.63,9.99,2.76,15.02,4.04c4.38,1.11,8.72,2.4,13.12,3.4c3.05,0.69,6.18,1.05,9.27,1.54
			c3.1,0.49,6.19,0.96,9.29,1.41c1.01,0.15,2.04,0.19,3.07,0.27c2.48,0.17,4.97,0.32,7.45,0.49c0.98,0.07,1.98,0.29,2.95,0.22
			c4.68-0.35,9.37-0.64,14.02-1.22c2.49-0.31,4.91-1.21,7.37-1.78c4.17-0.95,7.67-3.25,11.19-5.49
			C284.47,271.43,287.46,269.29,290.56,267.19z"/>
		<path class="st0" d="M395.73,199.06c1.11-0.64,2.22-1.11,3.13-1.84c1.43-1.17,3.12-1.61,4.83-1.84c1.77-0.24,3.43,0.46,4.82,1.5
			c3.32,2.49,5.8,5.65,7.06,9.66c0.82,2.6,1.55,5.22,2.31,7.83c0.06,0.22,0.01,0.47,0.01,0.77c-0.66,0.07-1.3,0.04-1.89,0.21
			c-1.84,0.54-2.05,2.62-1.46,4.13c0.84,2.15,1.92,4.21,2.63,6.39c1.11,3.45,1.93,7,1.66,10.65c-0.24,3.24-1.2,6.32-3.24,8.92
			c-1.21,1.54-2.48,3.16-4.07,4.23c-1.52,1.02-3.48,1.44-5.28,2c-0.92,0.29-1.92,0.4-2.9,0.44c-0.86,0.04-1.74-0.04-2.58-0.19
			c-2.03-0.38-4.09-0.7-6.06-1.3c-1.6-0.49-1.95-2.01-1.46-4.36c0.19-0.88,0.22-1.82,0.14-2.72c-0.03-0.36-0.47-0.77-0.83-0.99
			c-0.45-0.28-1-0.4-1.51-0.59C396.55,227.97,398.58,213.63,395.73,199.06z M407.01,231.27c-0.25,0.32-0.6,0.64-0.78,1.04
			c-0.47,1.03-1.22,1.56-2.33,1.89c-2.05,0.61-4,1.58-6.06,2.13c-1.49,0.39-2.66,0.79-2.61,2.6c0,0.14-0.12,0.29-0.18,0.43
			c-0.95,2.39,0.1,4.58,2.44,5.51c2.09,0.83,4.22,0.58,6.34,0.52c0.96-0.03,1.93-0.49,2.86-0.86c1.7-0.67,2.94-1.95,4.19-3.23
			c2.35-2.43,3.37-5.36,2.85-8.64c-0.23-1.43-0.97-2.91-1.87-4.07c-1.82-2.36-4.32-3.54-7.38-3.05c-2.2,0.35-3.45,0.88-3.18,3.11
			c0.17,1.46,0.48,1.91,1.92,1.92C404.61,230.59,406.04,230.33,407.01,231.27z"/>
		<path d="M350.63,356.75c-1.5,0.08-3,0.16-4.49,0.24c-1.08,0.06-1.51-0.6-1.64-1.54c-0.06-0.43-0.01-0.88-0.01-1.32
			c0.01-1.4,0.57-2.07,1.94-2.17c1.82-0.12,3.65-0.24,5.47-0.24c3.63,0.01,5.93,2.53,4.46,6.35c-1.18,3.05-2.75,5.97-4.42,8.79
			c-1.91,3.23-4.03,6.34-6.22,9.39c-2.26,3.16-4.72,6.17-7.09,9.25c-1.08,1.4-2.15,2.8-3.24,4.2c-1.58,2.04-3.78,1.93-5.85,1.35
			c-4.74-1.34-7.89-4.64-10.24-8.83c-2.35-4.19-3.18-8.87-4.46-13.47c-0.59,0.31-1.23,0.59-1.82,0.96c-4,2.47-8.41,2.89-12.97,2.61
			c-0.39-0.02-0.77-0.2-1.15-0.22c-2.52-0.13-3.51-1.73-2.34-4.03c0.22-0.43,1.09-0.74,1.67-0.74c1.86-0.02,3.73,0.21,5.59,0.18
			c1.85-0.03,3.63-0.48,5.21-1.56c1.78-1.2,3.54-2.44,5.41-3.5c2.07-1.17,4.47-0.27,5.08,2.05c0.76,2.9,1.41,5.84,2.18,8.74
			c1.23,4.64,3.16,8.86,7.37,11.62c1.8,1.18,2.39,1.02,3.66-0.76c1.5-2.11,3.08-4.16,4.64-6.23c2.19-2.92,4.57-5.71,6.54-8.77
			c2.51-3.9,4.69-8.01,7.02-12.03C350.84,356.98,350.73,356.86,350.63,356.75z"/>
		<path d="M226.06,383.97c1.52-2.13,2.94-4.23,4.49-6.24c1.48-1.91,3.08-3.74,4.67-5.56c0.25-0.29,0.75-0.49,1.14-0.51
			c2.46-0.13,4.92-0.27,7.38-0.22c0.8,0.02,1.75,0.43,2.33,0.97c0.38,0.36,0.28,1.3,0.26,1.97c-0.01,0.21-0.43,0.43-0.7,0.6
			c-1.76,1.11-3.77,0.8-5.69,0.98c-0.36,0.03-0.82,0.16-1.03,0.41c-2.09,2.6-4.11,5.26-6.2,7.86c-0.77,0.96-1.64,1.83-2.51,2.7
			c-0.68,0.68-1.42,1.31-2.16,1.93c-1.37,1.14-3.94,1.03-5.26-0.17c-3.36-3.06-5.54-6.84-6.54-11.23c-0.45-1.98-0.46-4.07-0.55-6.11
			c-0.06-1.36,0.48-1.88,1.83-1.86c0.85,0.01,1.88-0.45,2.48,0.57c0.24,0.41,0.39,0.92,0.45,1.4c0.56,4.49,2.1,8.56,5.06,12.04
			C225.65,383.65,225.81,383.76,226.06,383.97z"/>
		<path d="M248,383.12c-0.24,0.77-0.47,1.55-0.72,2.31c-0.69,2.07-1.43,4.12-2.09,6.2c-0.89,2.78-1.69,5.58-2.59,8.36
			c-0.46,1.44-2.73,2.02-3.72,0.87c-0.41-0.47-0.49-1.42-0.38-2.1c0.38-2.27,0.77-4.55,1.43-6.74c0.72-2.41,1.73-4.74,2.64-7.09
			c0.35-0.91,0.79-1.79,1.22-2.67c0.62-1.28,1.46-1.62,3.02-1.28C248.05,381.25,247.82,382.21,248,383.12z"/>
		<path d="M302.05,356.99c2.22,0,3.23,1.78,2.23,3.87c-0.33,0.68-0.5,1.44-0.83,2.13c-0.14,0.29-0.46,0.63-0.74,0.68
			c-0.58,0.11-1.19,0.07-1.79,0.01c-0.22-0.02-0.56-0.2-0.61-0.37c-0.34-1.22-0.8-2.45-0.88-3.69
			C299.29,357.52,299.91,356.99,302.05,356.99z"/>
		<path d="M392.9,276.16c0.53,1.81,0.29,3.38-0.47,4.92c-0.44,0.89-1.18,1.32-2.07,1.29c-2.45-0.09-4.93-0.08-7.32-0.52
			c-2.58-0.48-3.18-2.73-2.17-5.25c0.91-2.26,2.81-2.49,4.9-2.35c-0.09-0.87-0.26-1.69-0.25-2.51c0.01-1.26,1.08-2.37,2.34-2.27
			c1.66,0.13,3.3,0.49,5.26,0.81c-0.45-1.12-0.84-2.23-1.32-3.29c-0.4-0.89-0.92-1.68-0.82-2.76c0.12-1.21,0.67-2.07,1.83-2.42
			c1.03-0.31,2.77,0.18,3.18,1.07c1.44,3.09,2.99,6.12,2.72,9.73c-0.2,2.62-2.27,4.29-4.85,3.67
			C393.6,276.2,393.3,276.21,392.9,276.16z"/>
		<path d="M444.39,398.73c2.31-0.4,3.37,1.84,2.98,3.85c-0.45,2.3-1.88,3.2-4.15,2.57c-1.49-0.41-1.25-1.84-1.57-2.92
			c-0.07-0.22,0-0.48-0.01-0.72C441.57,399.11,442.01,398.67,444.39,398.73z"/>
		<path d="M273.56,265.09c-0.71-0.14-1.69,0.47-2.12-0.69c-0.39-1.06,0.05-2.77,0.65-3.58c1.18-1.6,2.2-3.32,3.3-4.98
			c0.51-0.76,1.07-1.49,1.58-2.25c0.17-0.25,0.25-0.55,0.35-0.84c0.25-0.68,0.48-1.32,1.42-1.32c2.05,0.01,1.74,0.31,1.66,2.58
			c-0.04,1.25-0.1,2.55-0.49,3.72c-0.5,1.5-1.32,2.9-2.06,4.31c-0.33,0.62-0.78,1.18-1.23,1.72
			C275.84,264.69,275,265.56,273.56,265.09z"/>
		<path d="M354.41,269.8c-0.8-0.14-1.42-0.09-1.85-0.36c-0.47-0.3-1-0.86-1.07-1.36c-0.14-1.02-0.37-2.31,0.8-2.9
			c3.83-1.94,7.04-4.69,10.25-7.45c1.7-1.46,3.41-2.92,5.11-4.39c0.53-0.46,2.71-0.67,3.26-0.28c0.53,0.38,0.65,2.51,0.15,3.1
			c-1.53,1.85-2.93,3.83-4.62,5.51c-1.87,1.85-3.97,3.47-6.06,5.08c-1.19,0.92-2.52,1.69-3.86,2.4
			C355.84,269.53,354.99,269.63,354.41,269.8z"/>
		<path d="M407.01,231.27c-0.98-0.94-2.41-0.69-3.78-0.7c-1.44-0.01-1.75-0.46-1.92-1.92c-0.26-2.23,0.98-2.76,3.18-3.11
			c3.06-0.48,5.56,0.69,7.38,3.05c0.89,1.16,1.64,2.64,1.87,4.07c0.52,3.28-0.5,6.22-2.85,8.64c-1.24,1.28-2.49,2.56-4.19,3.23
			c-0.93,0.36-1.9,0.83-2.86,0.86c-2.12,0.06-4.26,0.31-6.34-0.52c-2.34-0.93-3.39-3.12-2.44-5.51c0.06-0.15,0.19-0.29,0.18-0.43
			c-0.05-1.81,1.12-2.21,2.61-2.6c2.06-0.54,4.01-1.52,6.06-2.13c1.11-0.33,1.85-0.86,2.33-1.89
			C406.42,231.92,406.77,231.59,407.01,231.27z"/>
	</g>
</g>
</svg>
