<?xml version="1.0" encoding="utf-8"?>
<!-- Generator: Adobe Illustrator 24.1.3, SVG Export Plug-In . SVG Version: 6.00 Build 0)  -->
<svg version="1.1" id="Calque_1" xmlns="http://www.w3.org/2000/svg" xmlns:xlink="http://www.w3.org/1999/xlink" x="0px" y="0px"
	 viewBox="0 0 595.28 841.89" style="enable-background:new 0 0 595.28 841.89;" xml:space="preserve">
<style type="text/css">
	.st0{fill:#FFFFFF;}
</style>
<g>
	<g>
		<path class="st0" d="M58,660.89c0-160,0-320,0-480c160,0,320,0,480,0c0,160,0,320,0,480C378,660.89,218,660.89,58,660.89z
			 M297.44,441.34c3.02-0.47,5.93-0.9,8.82-1.38c4.24-0.71,8.37-1.8,12.49-3.04c5.45-1.63,10.62-3.92,15.79-6.21
			c2.86-1.27,5.59-2.86,8.32-4.4c3.47-1.96,6.98-3.88,10.31-6.08c2.87-1.9,5.56-4.1,8.24-6.28c2.85-2.31,5.66-4.68,8.35-7.17
			c3.73-3.45,6.99-7.33,10.19-11.28c4.05-4.99,7.57-10.3,10.4-16.05c1.9-3.86,3.75-7.77,5.25-11.79c1.13-3.01,1.81-6.22,2.45-9.39
			c0.66-3.26,1.23-6.57,1.47-9.88c0.21-2.8,0.08-5.66-0.22-8.46c-0.38-3.62-0.92-7.23-1.68-10.79c-0.96-4.47-2.44-8.8-4.38-12.96
			c-2.08-4.46-4.69-8.6-7.56-12.57c-1.84-2.54-3.67-5.13-5.79-7.43c-3.6-3.91-7.48-7.54-11.79-10.68c-2.38-1.73-4.54-3.8-7.05-5.3
			c-4.19-2.51-8.55-4.74-12.9-6.98c-6.22-3.2-12.91-5.12-19.62-6.94c-5.15-1.39-10.36-2.46-15.69-2.9
			c-4.32-0.36-8.63-1.06-12.95-1.12c-6.52-0.09-13.05,0.23-19.57,0.43c-1.97,0.06-3.94,0.24-5.9,0.49c-3.18,0.41-6.34,0.92-9.6,1.39
			c-0.2-1.92-0.39-3.79-0.57-5.55c0.78-0.32,1.47-0.46,1.99-0.84c2.5-1.79,5.09-3.5,7.38-5.52c2.36-2.09,4.57-4.4,6.59-6.82
			c2.62-3.13,4.83-6.58,5.83-10.62c0.91-3.68,0.06-6.95-2.61-9.66c-2.45-2.49-5.27-4.47-8.88-4.62c-3.03-0.13-6.14-0.32-9.09,0.23
			c-4.25,0.79-8.06,2.86-11.39,5.7c-2.27-3.28-5.49-4.35-9.26-4.7c-4.2-0.39-8.26,0.32-12.24,1.96c-4.63,1.89-8.25,4.86-10.41,9.25
			c-2.17,4.39-2.39,9.12-1.08,13.91c1.03,3.77,3.05,6.86,6.07,9.25c1.82,1.44,3.77,2.78,5.82,3.87c1.52,0.81,3.32,1.07,4.95,1.68
			c3.18,1.18,6.44,1.29,9.76,0.91c0.83,1.69,1.66,3.37,2.48,5.05c-0.17,0.14-0.28,0.28-0.41,0.34c-3.78,1.4-7.49,2.96-10.98,5.02
			c-1.32,0.77-2.81,1.29-4.02,2.2c-3.37,2.51-6.92,4.76-10,7.69c-3.62,3.45-7.22,6.89-10.09,11.01c-2.3,3.3-4.53,6.66-6.75,10.02
			c-2.95,4.47-5.11,9.33-6.94,14.34c-1,2.74-1.79,5.56-2.63,8.36c-1.05,3.56-1.59,7.22-1.66,10.91c-0.07,3.46,0.03,6.93,0.25,10.38
			c0.13,1.98,0.46,3.99,1.03,5.88c0.8,2.64,1.92,5.19,2.87,7.79c0.07,0.2,0.04,0.58-0.09,0.69c-4.21,3.39-6.62,8.07-8.93,12.75
			c-1.41,2.85-2.42,5.94-3.27,9.02c-1.22,4.4-2.21,8.86-3.13,13.33c-0.63,3.07-1.14,6.18-1.42,9.29c-0.23,2.55-0.05,5.13-0.05,7.7
			c0,3.3,0.92,6.4,1.98,9.48c0.39,1.13,1.16,1.85,2.37,2.03c1.9,0.27,3.39-0.52,4.88-1.63c2.86-2.12,5.76-4.19,8.76-6.11
			c1.87-1.2,3.92-2.11,5.91-3.1c2.34-1.17,4.67-2.35,7.06-3.4c1.66-0.73,3.41-1.24,5.22-1.88c0.02,0.34,0.07,0.54,0.03,0.73
			c-0.57,2.63-1.25,5.24-1.71,7.89c-0.7,4.09-1.43,8.19-1.82,12.32c-0.33,3.56-0.22,7.16-0.29,10.74c-0.01,0.43,0.07,0.86,0.13,1.29
			c0.35,2.25,0.71,4.49,1.06,6.73c0.58,3.83,3.25,4.67,5.9,3.19c1.94-1.08,3.67-2.54,5.53-3.75c3.54-2.31,7.03-4.7,10.69-6.8
			c4.28-2.45,8.7-4.64,13.08-6.91c0.83-0.43,1.73-0.75,2.83-1.22c-0.2,0.58-0.29,0.88-0.41,1.16c-1.29,3.14-2.61,6.27-3.88,9.42
			c-1.56,3.89-2.39,7.92-1.55,12.1c0.17,0.84,0.73,1.79,1.41,2.29c1.41,1.04,3.06,0.68,4.48-0.06c4.76-2.47,9.44-5.1,14.21-7.53
			c2.07-1.06,4.3-1.84,6.48-2.67c2.02-0.78,4.07-1.46,5.89-2.11c1.14,4.07,2.22,7.96,3.29,11.79c-1.64,0.61-3.49,0.96-4.95,1.89
			c-3.66,2.34-6.34,5.65-8.3,9.52c-1.66,3.26-2.76,6.71-3.36,10.32c-0.68,4.09-0.24,7.87,3.18,10.77c1.68,1.42,3.57,2.63,5.7,2.85
			c2.86,0.29,5.78,0.25,8.64,0.04c5.09-0.39,9.44-2.66,12.99-6.22c2.7-2.71,5.06-5.75,7.51-8.58c1.13,0.61,2.42,1.44,3.81,2.04
			c3.22,1.41,6.64,2.27,10.13,1.69c6.82-1.13,11.78-5.07,15.41-10.85c1.48-2.36,2.3-4.95,3.02-7.59c0.91-3.3,1.42-6.67,0.32-10.01
			c-0.89-2.7-2.22-5.19-5.27-6.03c-2.02-0.56-4.07-1.21-6.14-1.39c-2.58-0.23-5.21-0.14-7.81,0.02c-2.03,0.13-4.03,0.55-6.04,0.9
			c-2.52,0.43-5.04,0.97-7.1,2.56c-1.03,0.8-1.82,1.91-2.73,2.9C302.12,449.46,299.77,445.38,297.44,441.34z"/>
		<path d="M297.44,441.34c2.33,4.04,4.68,8.13,7.06,12.24c0.91-0.99,1.7-2.11,2.73-2.9c2.07-1.59,4.59-2.13,7.1-2.56
			c2.01-0.34,4.02-0.77,6.04-0.9c2.6-0.16,5.23-0.25,7.81-0.02c2.07,0.19,4.11,0.83,6.14,1.39c3.04,0.84,4.38,3.33,5.27,6.03
			c1.1,3.34,0.58,6.71-0.32,10.01c-0.72,2.63-1.54,5.23-3.02,7.59c-3.64,5.78-8.59,9.73-15.41,10.85
			c-3.48,0.58-6.91-0.28-10.13-1.69c-1.39-0.61-2.68-1.43-3.81-2.04c-2.45,2.82-4.81,5.87-7.51,8.58c-3.55,3.56-7.9,5.83-12.99,6.22
			c-2.87,0.22-5.79,0.26-8.64-0.04c-2.13-0.22-4.02-1.43-5.7-2.85c-3.42-2.9-3.86-6.68-3.18-10.77c0.59-3.61,1.7-7.05,3.36-10.32
			c1.96-3.87,4.64-7.18,8.3-9.52c1.47-0.94,3.31-1.29,4.95-1.89c-1.07-3.83-2.16-7.72-3.29-11.79c-1.81,0.64-3.87,1.33-5.89,2.11
			c-2.18,0.84-4.4,1.62-6.48,2.67c-4.78,2.44-9.45,5.07-14.21,7.53c-1.42,0.74-3.07,1.1-4.48,0.06c-0.68-0.5-1.25-1.46-1.41-2.29
			c-0.84-4.19-0.01-8.21,1.55-12.1c1.26-3.15,2.59-6.28,3.88-9.42c0.12-0.28,0.2-0.57,0.41-1.16c-1.1,0.47-2,0.78-2.83,1.22
			c-4.38,2.28-8.8,4.46-13.08,6.91c-3.66,2.1-7.15,4.5-10.69,6.8c-1.87,1.22-3.6,2.67-5.53,3.75c-2.65,1.48-5.31,0.64-5.9-3.19
			c-0.34-2.25-0.71-4.49-1.06-6.73c-0.07-0.43-0.14-0.86-0.13-1.29c0.07-3.58-0.05-7.18,0.29-10.74c0.39-4.13,1.11-8.23,1.82-12.32
			c0.46-2.65,1.14-5.26,1.71-7.89c0.04-0.18-0.01-0.38-0.03-0.73c-1.81,0.64-3.56,1.16-5.22,1.88c-2.39,1.05-4.72,2.24-7.06,3.4
			c-1.99,1-4.05,1.91-5.91,3.1c-2.99,1.92-5.9,3.99-8.76,6.11c-1.49,1.11-2.99,1.9-4.88,1.63c-1.21-0.17-1.98-0.9-2.37-2.03
			c-1.06-3.07-1.99-6.18-1.98-9.48c0-2.57-0.18-5.15,0.05-7.7c0.28-3.12,0.79-6.23,1.42-9.29c0.92-4.47,1.92-8.94,3.13-13.33
			c0.85-3.08,1.86-6.17,3.27-9.02c2.31-4.67,4.72-9.36,8.93-12.75c0.13-0.11,0.17-0.49,0.09-0.69c-0.96-2.6-2.07-5.15-2.87-7.79
			c-0.57-1.89-0.91-3.9-1.03-5.88c-0.22-3.45-0.32-6.92-0.25-10.38c0.07-3.69,0.61-7.36,1.66-10.91c0.83-2.8,1.62-5.62,2.63-8.36
			c1.83-5,3.99-9.87,6.94-14.34c2.22-3.36,4.45-6.72,6.75-10.02c2.87-4.12,6.47-7.56,10.09-11.01c3.08-2.93,6.63-5.18,10-7.69
			c1.21-0.9,2.7-1.42,4.02-2.2c3.49-2.05,7.19-3.62,10.98-5.02c0.14-0.05,0.24-0.19,0.41-0.34c-0.83-1.69-1.65-3.36-2.48-5.05
			c-3.31,0.38-6.58,0.27-9.76-0.91c-1.64-0.61-3.43-0.87-4.95-1.68c-2.05-1.09-4-2.43-5.82-3.87c-3.02-2.39-5.04-5.48-6.07-9.25
			c-1.31-4.8-1.09-9.52,1.08-13.91c2.17-4.39,5.79-7.35,10.41-9.25c3.98-1.63,8.04-2.34,12.24-1.96c3.78,0.35,6.99,1.42,9.26,4.7
			c3.33-2.83,7.14-4.91,11.39-5.7c2.94-0.55,6.06-0.36,9.09-0.23c3.61,0.16,6.43,2.13,8.88,4.62c2.67,2.71,3.52,5.99,2.61,9.66
			c-1,4.04-3.21,7.48-5.83,10.62c-2.02,2.42-4.23,4.73-6.59,6.82c-2.3,2.03-4.89,3.73-7.38,5.52c-0.52,0.38-1.21,0.52-1.99,0.84
			c0.18,1.76,0.37,3.63,0.57,5.55c3.25-0.48,6.42-0.99,9.6-1.39c1.96-0.25,3.93-0.43,5.9-0.49c6.52-0.2,13.05-0.52,19.57-0.43
			c4.32,0.06,8.63,0.75,12.95,1.12c5.33,0.45,10.54,1.51,15.69,2.9c6.71,1.82,13.41,3.73,19.62,6.94c4.35,2.24,8.71,4.47,12.9,6.98
			c2.51,1.5,4.67,3.57,7.05,5.3c4.31,3.14,8.19,6.77,11.79,10.68c2.12,2.3,3.95,4.88,5.79,7.43c2.87,3.97,5.48,8.11,7.56,12.57
			c1.95,4.16,3.42,8.49,4.38,12.96c0.76,3.55,1.3,7.17,1.68,10.79c0.3,2.8,0.43,5.66,0.22,8.46c-0.25,3.31-0.81,6.62-1.47,9.88
			c-0.64,3.17-1.32,6.38-2.45,9.39c-1.51,4.02-3.35,7.93-5.25,11.79c-2.83,5.75-6.36,11.05-10.4,16.05
			c-3.2,3.95-6.46,7.83-10.19,11.28c-2.69,2.49-5.51,4.85-8.35,7.17c-2.68,2.18-5.36,4.38-8.24,6.28c-3.32,2.2-6.83,4.12-10.31,6.08
			c-2.73,1.54-5.46,3.13-8.32,4.4c-5.17,2.3-10.34,4.58-15.79,6.21c-4.12,1.24-8.25,2.33-12.49,3.04
			C303.37,440.44,300.46,440.87,297.44,441.34z M254.45,453.74c0.76-0.38,1.18-0.58,1.59-0.81c3.5-1.93,6.94-3.97,10.51-5.75
			c2.72-1.36,5.55-2.51,8.41-3.54c2.71-0.97,5.5-1.72,8.29-2.44c0.76-0.2,0.9-0.28,0.76-1.1c-0.43-2.41,0.48-3.9,2.29-3.97
			c2.54-0.1,5.09-0.06,7.63-0.27c3.56-0.3,7.12-0.71,10.66-1.19c4.89-0.66,9.64-1.95,14.28-3.57c6.39-2.23,12.7-4.68,18.59-8.06
			c4.07-2.34,8.2-4.6,12.13-7.16c2.89-1.87,5.57-4.09,8.24-6.28c3.05-2.5,6.07-5.06,8.94-7.77c2.22-2.09,4.29-4.36,6.24-6.71
			c2.5-3.02,4.93-6.12,7.18-9.33c1.79-2.56,3.46-5.24,4.86-8.03c1.96-3.91,3.81-7.91,5.34-12c1.09-2.9,1.69-6.01,2.33-9.06
			c1.06-5.01,2.1-10.04,1.34-15.21c-0.52-3.56-0.94-7.15-1.71-10.66c-1.1-5.01-2.63-9.92-5.16-14.41c-1.83-3.23-3.84-6.38-6.02-9.38
			c-2.26-3.11-4.63-6.2-7.32-8.94c-2.95-3.01-6.27-5.67-9.51-8.38c-2.19-1.83-4.41-3.69-6.84-5.18c-3.56-2.18-7.29-4.11-11.01-6.03
			c-6.25-3.22-12.98-5.14-19.74-6.96c-5.11-1.38-10.29-2.41-15.57-2.89c-3.72-0.34-7.43-0.98-11.16-1.12
			c-4.01-0.16-8.04,0.04-12.06,0.2c-3.63,0.15-7.27,0.41-10.89,0.72c-2.74,0.24-5.49,0.5-8.19,0.99c-3.73,0.67-7.41,1.57-11.11,2.35
			c-4.42,0.93-8.64,2.53-12.66,4.51c-3.75,1.85-7.37,3.93-10.76,6.46c-5.19,3.89-10.03,8.09-13.88,13.33
			c-2.57,3.5-5.08,7.05-7.52,10.65c-2.92,4.29-5.06,9-6.84,13.85c-0.99,2.7-1.67,5.52-2.51,8.28c-1.04,3.44-1.49,6.99-1.63,10.56
			c-0.09,2.42-0.03,4.86,0.25,7.26c0.26,2.23,0.81,4.45,1.4,6.62c0.62,2.29,1.43,4.53,2.17,6.79c0.29,0.87,0.37,2.16,0.97,2.51
			c1.35,0.77,1.49,1.77,1.42,3.06c-0.07,1.26-0.37,1.62-1.63,1.59c-1.52-0.04-2.72,0.13-3.94,1.48c-3.05,3.4-5.16,7.29-6.76,11.47
			c-2.11,5.51-3.76,11.18-4.72,17.02c-0.59,3.6-1.12,7.2-1.69,10.8c-0.61,3.88-0.24,7.68,0.79,11.51c0.32-0.18,0.58-0.29,0.79-0.46
			c3.17-2.58,6.67-4.67,10.25-6.62c6.68-3.65,13.73-6.46,20.85-9.11c2.16-0.8,4.12,0.53,4.02,2.79c-0.09,1.88-0.3,3.76-0.65,5.61
			c-0.47,2.49-1.27,4.92-1.68,7.42c-0.68,4.14-1.14,8.32-1.73,12.47c-0.5,3.5-0.72,7.01-0.22,10.53c0.21,1.47,0.48,2.93,0.73,4.45
			c1.06-0.64,1.97-1.17,2.87-1.74c3.57-2.26,7.05-4.68,10.71-6.77c3.94-2.25,8.03-4.25,12.08-6.3c3.46-1.74,6.94-3.42,10.45-5.07
			c1.82-0.86,4.12,0.39,4.15,2.27c0.01,1.15-0.22,2.33-0.55,3.44c-0.37,1.26-0.95,2.45-1.45,3.67c-1.45,3.54-2.99,7.05-4.33,10.63
			C255.68,448.93,255.17,451.22,254.45,453.74z"/>
		<path class="st0" d="M254.45,453.74c0.72-2.52,1.23-4.81,2.04-6.98c1.34-3.58,2.88-7.09,4.33-10.63c0.5-1.22,1.09-2.42,1.45-3.67
			c0.32-1.11,0.56-2.29,0.55-3.44c-0.02-1.88-2.33-3.12-4.15-2.27c-3.5,1.65-6.99,3.33-10.45,5.07c-4.06,2.04-8.14,4.04-12.08,6.3
			c-3.66,2.1-7.15,4.51-10.71,6.77c-0.89,0.57-1.8,1.1-2.87,1.74c-0.25-1.52-0.52-2.98-0.73-4.45c-0.5-3.52-0.28-7.03,0.22-10.53
			c0.59-4.16,1.05-8.33,1.73-12.47c0.41-2.5,1.2-4.93,1.68-7.42c0.35-1.84,0.56-3.73,0.65-5.61c0.11-2.26-1.86-3.59-4.02-2.79
			c-7.12,2.64-14.17,5.46-20.85,9.11c-3.58,1.95-7.07,4.04-10.25,6.62c-0.21,0.17-0.47,0.28-0.79,0.46
			c-1.03-3.83-1.4-7.63-0.79-11.51c0.57-3.6,1.1-7.21,1.69-10.8c0.96-5.84,2.62-11.5,4.72-17.02c1.6-4.18,3.71-8.07,6.76-11.47
			c1.21-1.35,2.41-1.52,3.94-1.48c1.25,0.03,1.56-0.33,1.63-1.59c0.07-1.29-0.07-2.29-1.42-3.06c-0.6-0.34-0.68-1.63-0.97-2.51
			c-0.74-2.26-1.55-4.5-2.17-6.79c-0.59-2.18-1.14-4.39-1.4-6.62c-0.28-2.4-0.35-4.85-0.25-7.26c0.14-3.57,0.59-7.11,1.63-10.56
			c0.84-2.76,1.52-5.58,2.51-8.28c1.78-4.85,3.92-9.56,6.84-13.85c2.45-3.59,4.95-7.14,7.52-10.65c3.85-5.24,8.69-9.44,13.88-13.33
			c3.39-2.53,7.02-4.62,10.76-6.46c4.02-1.98,8.23-3.58,12.66-4.51c3.71-0.78,7.39-1.68,11.11-2.35c2.7-0.49,5.45-0.75,8.19-0.99
			c3.62-0.31,7.26-0.57,10.89-0.72c4.02-0.16,8.05-0.36,12.06-0.2c3.73,0.15,7.43,0.79,11.16,1.12c5.28,0.48,10.46,1.51,15.57,2.89
			c6.75,1.82,13.48,3.74,19.74,6.96c3.72,1.91,7.44,3.85,11.01,6.03c2.43,1.49,4.65,3.34,6.84,5.18c3.24,2.71,6.56,5.37,9.51,8.38
			c2.69,2.74,5.06,5.83,7.32,8.94c2.18,3,4.19,6.15,6.02,9.38c2.54,4.49,4.06,9.4,5.16,14.41c0.77,3.51,1.19,7.1,1.71,10.66
			c0.76,5.17-0.27,10.2-1.34,15.21c-0.65,3.05-1.24,6.15-2.33,9.06c-1.54,4.09-3.38,8.09-5.34,12c-1.4,2.79-3.07,5.47-4.86,8.03
			c-2.25,3.21-4.68,6.31-7.18,9.33c-1.95,2.35-4.02,4.62-6.24,6.71c-2.87,2.71-5.89,5.26-8.94,7.77c-2.67,2.19-5.35,4.4-8.24,6.28
			c-3.94,2.55-8.06,4.82-12.13,7.16c-5.89,3.38-12.2,5.83-18.59,8.06c-4.64,1.62-9.39,2.91-14.28,3.57
			c-3.54,0.48-7.1,0.89-10.66,1.19c-2.53,0.21-5.08,0.17-7.63,0.27c-1.82,0.07-2.73,1.56-2.29,3.97c0.15,0.81,0.01,0.9-0.76,1.1
			c-2.79,0.72-5.58,1.47-8.29,2.44c-2.86,1.03-5.7,2.18-8.41,3.54c-3.57,1.79-7.01,3.83-10.51,5.75
			C255.63,453.16,255.21,453.36,254.45,453.74z M330.37,336.67c0-0.58,0.06-0.95-0.01-1.3c-0.23-1.1-1.7-2.46-2.81-2.63
			c-1.16-0.18-2.34-0.26-3.48-0.51c-3.59-0.81-7.01,0.13-10.27,1.29c-3.1,1.11-5.99,2.83-8.92,4.38c-1,0.52-1.88,1.28-2.77,1.98
			c-2.48,1.98-5.05,3.87-7.38,6.02c-3.56,3.27-6.89,6.8-9.62,10.81c-2.4,3.51-4.67,7.09-6.4,11.04c-1.96,4.47-3.75,8.88-3.61,13.84
			c0.06,2.34-0.07,4.72,0.29,7.01c0.48,3.05,1.38,6.06,3.18,8.62c2.93,4.18,6.68,7.5,11.51,9.28c2.54,0.94,5.25,1.75,7.93,1.94
			c3.34,0.24,6.77,0.06,10.08-0.46c5.07-0.8,9.93-2.37,14.42-5c4.48-2.62,8.88-5.36,12.61-9.02c3.24-3.19,6.56-6.34,8.88-10.32
			c2.23-3.85,4.71-7.6,6.48-11.65c1.45-3.32,2.71-6.79,3.15-10.51c0.45-3.81,0.6-7.55-0.09-11.32c-0.75-4.07-2.99-7.21-6.37-9.48
			c-2.56-1.72-5.39-2.87-8.56-2.91c-1.18-0.02-2.45-0.45-3.53-0.16C333.23,338.09,331.9,337.11,330.37,336.67z M264.28,307.63
			c0.09-1,0.24-1.97,0.24-2.93c0.02-4.02-2.73-7.12-6.73-7.45c-3.41-0.28-6.8-0.15-9.81,1.79c-2.1,1.35-4.25,2.67-6.21,4.22
			c-2.09,1.65-4.12,3.42-5.92,5.38c-1.47,1.6-2.58,3.53-3.78,5.36c-1.29,1.96-2.63,3.9-3.72,5.98c-1.34,2.56-2.41,5.27-3.64,7.89
			c-1.71,3.65-2.34,7.56-2.59,11.5c-0.15,2.39,0.12,4.83,0.46,7.21c0.42,2.88,1.87,5.38,4.01,7.29c1.94,1.74,4.12,3.1,6.9,3.51
			c2.47,0.36,4.92,0.5,7.3,0.01c3.8-0.78,7.45-2.11,10.6-4.5c3.75-2.84,7.39-5.79,10.08-9.75c2.38-3.51,4.6-7.11,6.02-11.12
			c1.13-3.21,1.9-6.5,2.15-9.96c0.22-3.08,0.14-6.08-0.59-9.03C268.41,310.42,266.48,308.82,264.28,307.63z M222.44,389.8
			c1.53,0.06,2.8-0.36,3.85-1.4c1.26-1.24,2.53-2.48,3.73-3.79c0.9-0.99,0.95-3.55,0.29-4.68c-0.98-1.67-2.65-1.8-4.87-1.19
			c-3.13,0.87-5.16,3.09-6.05,6.32c-0.41,1.51-0.25,2.89,0.72,3.97C220.57,389.58,221.64,389.57,222.44,389.8z M247.44,402.06
			c0.04,0.11,0.08,0.21,0.12,0.32c1.11-0.39,2.31-0.64,3.31-1.22c0.95-0.55,1.65-1.51,2.53-2.21c1.3-1.04,1.74-2.35,1.57-3.97
			c-0.11-1.04-0.99-2.05-2.03-2.02c-1.76,0.04-3.51,0.12-5.26,0.26c-0.41,0.03-0.82,0.33-1.18,0.58c-1.45,1.01-2.04,2.58-2.3,4.18
			C243.73,400.75,244.86,402.06,247.44,402.06z"/>
		<path d="M330.37,336.67c1.52,0.44,2.85,1.42,4.69,0.93c1.09-0.29,2.35,0.14,3.53,0.16c3.17,0.05,6,1.2,8.56,2.91
			c3.38,2.27,5.61,5.41,6.37,9.48c0.7,3.77,0.55,7.51,0.09,11.32c-0.44,3.73-1.71,7.2-3.15,10.51c-1.77,4.05-4.24,7.81-6.48,11.65
			c-2.31,3.98-5.63,7.13-8.88,10.32c-3.73,3.66-8.12,6.4-12.61,9.02c-4.49,2.63-9.36,4.2-14.42,5c-3.31,0.52-6.74,0.69-10.08,0.46
			c-2.68-0.19-5.38-1-7.93-1.94c-4.83-1.78-8.58-5.11-11.51-9.28c-1.8-2.56-2.7-5.57-3.18-8.62c-0.36-2.3-0.23-4.67-0.29-7.01
			c-0.14-4.97,1.65-9.38,3.61-13.84c1.73-3.95,4-7.53,6.4-11.04c2.74-4.01,6.06-7.53,9.62-10.81c2.33-2.14,4.9-4.04,7.38-6.02
			c0.89-0.71,1.77-1.46,2.77-1.98c2.93-1.54,5.82-3.27,8.92-4.38c3.26-1.17,6.68-2.1,10.27-1.29c1.14,0.26,2.32,0.34,3.48,0.51
			c1.11,0.17,2.58,1.53,2.81,2.63C330.44,335.72,330.37,336.09,330.37,336.67z"/>
		<path d="M264.28,307.63c2.2,1.19,4.13,2.79,4.78,5.39c0.74,2.95,0.82,5.95,0.59,9.03c-0.25,3.46-1.02,6.75-2.15,9.96
			c-1.42,4-3.63,7.61-6.02,11.12c-2.69,3.96-6.33,6.91-10.08,9.75c-3.15,2.39-6.79,3.72-10.6,4.5c-2.38,0.49-4.83,0.34-7.3-0.01
			c-2.79-0.4-4.96-1.77-6.9-3.51c-2.14-1.91-3.59-4.41-4.01-7.29c-0.35-2.38-0.61-4.82-0.46-7.21c0.24-3.94,0.88-7.85,2.59-11.5
			c1.23-2.62,2.3-5.32,3.64-7.89c1.08-2.07,2.43-4.02,3.72-5.98c1.2-1.83,2.31-3.76,3.78-5.36c1.79-1.96,3.83-3.73,5.92-5.38
			c1.96-1.55,4.11-2.86,6.21-4.22c3.01-1.94,6.4-2.07,9.81-1.79c4,0.33,6.75,3.42,6.73,7.45
			C264.52,305.67,264.37,306.63,264.28,307.63z"/>
		<path d="M222.44,389.8c-0.8-0.23-1.86-0.22-2.33-0.75c-0.96-1.08-1.13-2.47-0.72-3.97c0.89-3.24,2.92-5.45,6.05-6.32
			c2.21-0.62,3.89-0.48,4.87,1.19c0.66,1.13,0.61,3.68-0.29,4.68c-1.19,1.31-2.47,2.54-3.73,3.79
			C225.24,389.44,223.97,389.86,222.44,389.8z"/>
		<path d="M247.44,402.06c-2.57,0-3.71-1.31-3.25-4.09c0.26-1.6,0.85-3.17,2.3-4.18c0.36-0.25,0.77-0.55,1.18-0.58
			c1.75-0.14,3.51-0.21,5.26-0.26c1.04-0.03,1.91,0.98,2.03,2.02c0.17,1.62-0.27,2.93-1.57,3.97c-0.87,0.7-1.58,1.66-2.53,2.21
			c-1,0.58-2.2,0.83-3.31,1.22C247.52,402.27,247.48,402.17,247.44,402.06z"/>
	</g>
</g>
</svg>
