<?xml version="1.0" encoding="utf-8"?>
<!-- Generator: Adobe Illustrator 24.1.3, SVG Export Plug-In . SVG Version: 6.00 Build 0)  -->
<svg version="1.1" id="Calque_1" xmlns="http://www.w3.org/2000/svg" xmlns:xlink="http://www.w3.org/1999/xlink" x="0px" y="0px"
	 viewBox="0 0 595.28 841.89" style="enable-background:new 0 0 595.28 841.89;" xml:space="preserve">
<style type="text/css">
	.st0{fill:#FFFFFF;}
</style>
<g>
	<g>
		<path class="st0" d="M538,660.89c-160,0-320,0-480,0c0-160,0-320,0-480c160,0,320,0,480,0C538,340.89,538,500.89,538,660.89z
			 M381.76,480.76c1.54-0.1,2.95-0.05,4.29-0.3c4.62-0.87,9.07-2.34,13.29-4.42c4.68-2.31,8.51-5.82,12.27-9.35
			c4-3.75,7.77-7.74,11.12-12.1c1.72-2.24,3.54-4.42,5.14-6.74c1.97-2.87,3.79-5.84,5.6-8.81c1.75-2.87,3.5-5.76,5.09-8.72
			c1.43-2.66,2.71-5.4,3.96-8.15c1.65-3.63,3.37-7.24,4.75-10.98c2.38-6.45,4.22-13.07,5.8-19.76c0.73-3.12,1.33-6.27,1.92-9.42
			c0.54-2.89,1.03-5.78,1.43-8.69c0.34-2.42,0.51-4.86,0.76-7.29c0.3-2.86,0.88-5.71,0.89-8.57c0.02-7.05,0.38-14.1-0.41-21.14
			c-0.34-3.02-0.39-6.07-0.78-9.08c-0.42-3.26-1.03-6.49-1.65-9.72c-0.74-3.88-1.5-7.75-2.39-11.59c-0.59-2.54-1.41-5.03-2.15-7.54
			c-0.91-3.1-1.85-6.19-2.86-9.57c0.29-0.1,0.88-0.29,1.46-0.49c0.55-0.19,1.19-0.28,1.61-0.63c1.22-1.01,2.45-2.05,3.49-3.24
			c1.46-1.69,2.9-3.43,4.09-5.32c2.1-3.32,3.68-6.93,4.64-10.73c0.87-3.44,1.45-6.97,1.93-10.49c0.47-3.47,0.82-6.98,0.94-10.48
			c0.12-3.42-0.24-6.85-0.16-10.27c0.09-3.63-0.75-7.12-1.34-10.65c-0.84-4.97-2.41-9.72-5.27-13.94c-1.12-1.65-2.38-3.23-3.74-4.7
			c-1.68-1.82-3.91-2.91-6.18-3.79c-1.44-0.56-2.99-1-4.52-1.12c-2.39-0.18-4.82-0.16-7.22-0.02c-2.11,0.12-4.24,0.38-6.3,0.83
			c-2.73,0.61-5.39,1.55-8.12,2.21c-4.82,1.17-9.29,3.24-13.77,5.26c-3.14,1.42-6.26,2.95-9.21,4.73c-3.08,1.86-5.95,4.06-8.87,6.17
			c-0.61,0.44-0.99,0.6-1.73,0.23c-5.88-2.95-11.71-5.98-17.99-8.05c-4.04-1.33-8.06-2.7-12.06-4.12
			c-6.97-2.47-14.16-4.12-21.38-5.61c-2.68-0.56-5.39-0.96-8.09-1.45c-1.73-0.31-3.45-0.73-5.19-0.94
			c-3.25-0.39-6.51-0.64-9.76-0.99c-4.18-0.45-8.35-1.08-12.55-1.39c-4.43-0.32-8.89-0.48-13.34-0.48c-4.45,0-8.89,0.29-13.34,0.44
			c-2.34,0.08-4.69,0.1-7.03,0.26c-1.8,0.12-3.59,0.41-5.38,0.64c-1.91,0.25-3.81,0.52-5.72,0.78c-2.57,0.34-5.16,0.56-7.7,1.04
			c-4.11,0.77-8.2,1.62-12.27,2.58c-5.47,1.28-10.95,2.53-16.34,4.09c-4.57,1.33-9.1,2.87-13.49,4.7
			c-6.64,2.77-13.16,5.83-19.7,8.85c-2.94,1.36-5.8,2.91-8.87,4.46c-0.95-0.84-2.07-1.64-2.95-2.66c-2.28-2.66-5.38-4.09-8.37-5.64
			c-9.53-4.94-19.13-9.68-29.59-12.45c-4.35-1.15-8.76-1.82-13.23-2.04c-2.07-0.1-4.18,0.19-6.25,0.46
			c-3.1,0.39-5.95,1.66-8.38,3.48c-2.56,1.92-4.51,4.5-5.63,7.6c-1.26,3.47-2.44,6.97-2.58,10.67c-0.11,3.1,0.01,6.21,0.23,9.3
			c0.29,4.11,0.98,8.17,2.4,12.05c1.58,4.32,3.17,8.65,5.01,12.87c2.4,5.5,5.69,10.53,8.91,15.58c1.87,2.94,3.72,5.9,5.75,8.72
			c1.27,1.76,2.02,3.29,1.25,5.62c-0.97,2.95-1.26,6.11-1.95,9.16c-1.09,4.78-1.54,9.66-1.66,14.52c-0.15,6.4,0.23,12.81,0.41,19.21
			c0.04,1.54,0.08,3.1,0.25,4.63c0.35,3.08,0.74,6.16,1.19,9.23c0.44,3.02,0.83,6.07,1.52,9.04c1.01,4.41,2.12,8.8,3.46,13.12
			c1.16,3.76,2.72,7.39,4.06,11.1c2.25,6.22,4.83,12.3,8.01,18.11c2.69,4.91,5.37,9.84,8.41,14.53c2.96,4.56,6.29,8.89,9.6,13.21
			c3.6,4.7,7.57,9.08,12,13.05c4.48,4.02,9.2,7.7,14.21,11.01c3.98,2.64,7.95,5.3,12.1,7.66c3.98,2.26,8.15,4.18,12.28,6.15
			c1.54,0.74,3.16,1.34,4.8,1.79c2.33,0.63,4.71,1.06,7.13,1.59c-0.47,1.04-0.89,2.12-1.43,3.14c-1.13,2.14-2.31,4.26-3.48,6.38
			c-0.99,1.8-1.88,3.69-3.04,5.37c-1.73,2.5-1.98,5.26-1.4,8.03c0.81,3.89,3.82,6.25,7,8.04c2.91,1.63,6.16,2.6,9.62,2.79
			c3.6,0.2,7.2,0.49,10.7-0.57c2.87-0.86,5.71-1.85,8.51-2.89c1-0.37,1.89-1.08,2.81-1.65c1.45-0.9,2.92-1.8,4.33-2.75
			c1.47-1,2.89-2.07,4.42-3.16c0.11,0.43,0.14,0.63,0.21,0.8c1.53,3.46,2.65,7.07,4.64,10.36c1.6,2.65,3.08,5.23,5.49,7.32
			c3.92,3.4,10.27,2.81,13.89-0.25c3.06-2.58,5.58-5.61,8.16-8.63c1.84-2.15,3.95-4.08,6.15-6.34c0.98,1.43,1.86,2.6,2.62,3.85
			c1.87,3.08,3.59,6.25,5.54,9.27c1.98,3.06,4.5,5.7,7.32,8.02c4.12,3.4,10.25,3.95,14.25-0.6c2.35-2.67,4.4-5.6,6.79-8.68
			c0.19,0.28,0.4,0.68,0.67,1.01c2.37,2.88,4.86,5.68,7.11,8.65c2.53,3.35,5.3,6.48,8.66,8.94c2.59,1.9,5.44,3.61,8.42,4.81
			c3.12,1.25,6.51,1.86,9.81,2.62c1.45,0.34,2.97,0.34,4.45,0.55c3.75,0.55,7.35,0.27,10.35-2.3c1.09-0.93,2-2.07,2.12-3.75
			c0.07-0.98-0.11-2.14,1.07-3.02c3.15-2.37,3.5-5.52,2.27-9.14c-1.4-4.14-2.6-8.34-3.76-12.56c-0.87-3.16-1.62-6.35-2.28-9.56
			C383.03,488.36,382.45,484.65,381.76,480.76z"/>
		<path d="M381.76,480.76c0.69,3.88,1.27,7.59,2.02,11.27c0.65,3.21,1.41,6.4,2.28,9.56c1.16,4.21,2.36,8.42,3.76,12.56
			c1.23,3.63,0.88,6.78-2.27,9.14c-1.18,0.89-1,2.04-1.07,3.02c-0.12,1.69-1.03,2.82-2.12,3.75c-3,2.57-6.6,2.85-10.35,2.3
			c-1.48-0.22-3-0.22-4.45-0.55c-3.3-0.77-6.69-1.37-9.81-2.62c-2.98-1.2-5.82-2.9-8.42-4.81c-3.36-2.46-6.13-5.6-8.66-8.94
			c-2.25-2.97-4.74-5.77-7.11-8.65c-0.28-0.34-0.49-0.73-0.67-1.01c-2.39,3.08-4.44,6.01-6.79,8.68c-4.01,4.55-10.13,4.01-14.25,0.6
			c-2.82-2.33-5.34-4.96-7.32-8.02c-1.96-3.02-3.67-6.19-5.54-9.27c-0.76-1.25-1.64-2.43-2.62-3.85c-2.2,2.25-4.31,4.18-6.15,6.34
			c-2.58,3.02-5.1,6.05-8.16,8.63c-3.62,3.05-9.96,3.65-13.89,0.25c-2.41-2.09-3.89-4.67-5.49-7.32c-1.98-3.29-3.1-6.91-4.64-10.36
			c-0.08-0.18-0.1-0.38-0.21-0.8c-1.52,1.09-2.95,2.16-4.42,3.16c-1.42,0.96-2.88,1.85-4.33,2.75c-0.92,0.58-1.81,1.28-2.81,1.65
			c-2.81,1.05-5.65,2.03-8.51,2.89c-3.51,1.05-7.1,0.77-10.7,0.57c-3.46-0.19-6.71-1.16-9.62-2.79c-3.18-1.79-6.18-4.16-7-8.04
			c-0.58-2.77-0.32-5.52,1.4-8.03c1.16-1.69,2.05-3.57,3.04-5.37c1.17-2.12,2.35-4.24,3.48-6.38c0.54-1.02,0.96-2.11,1.43-3.14
			c-2.42-0.53-4.8-0.96-7.13-1.59c-1.64-0.45-3.26-1.05-4.8-1.79c-4.13-1.98-8.3-3.9-12.28-6.15c-4.14-2.35-8.12-5.02-12.1-7.66
			c-5-3.32-9.73-7-14.21-11.01c-4.43-3.97-8.4-8.34-12-13.05c-3.31-4.32-6.64-8.65-9.6-13.21c-3.04-4.69-5.72-9.62-8.41-14.53
			c-3.17-5.8-5.76-11.88-8.01-18.11c-1.34-3.7-2.9-7.34-4.06-11.1c-1.34-4.32-2.44-8.71-3.46-13.12c-0.68-2.97-1.07-6.02-1.52-9.04
			c-0.45-3.07-0.85-6.15-1.19-9.23c-0.17-1.53-0.21-3.08-0.25-4.63c-0.17-6.4-0.56-12.82-0.41-19.21c0.12-4.86,0.57-9.74,1.66-14.52
			c0.69-3.05,0.98-6.21,1.95-9.16c0.77-2.34,0.02-3.86-1.25-5.62c-2.04-2.82-3.88-5.78-5.75-8.72c-3.22-5.05-6.51-10.08-8.91-15.58
			c-1.84-4.22-3.43-8.54-5.01-12.87c-1.42-3.88-2.11-7.94-2.4-12.05c-0.22-3.09-0.34-6.21-0.23-9.3c0.13-3.7,1.32-7.21,2.58-10.67
			c1.13-3.1,3.07-5.69,5.63-7.6c2.43-1.82,5.29-3.09,8.38-3.48c2.07-0.26,4.18-0.55,6.25-0.46c4.47,0.21,8.87,0.88,13.23,2.04
			c10.45,2.77,20.06,7.51,29.59,12.45c2.99,1.55,6.08,2.99,8.37,5.64c0.87,1.02,2,1.82,2.95,2.66c3.06-1.55,5.92-3.1,8.87-4.46
			c6.53-3.02,13.05-6.08,19.7-8.85c4.39-1.83,8.92-3.37,13.49-4.7c5.39-1.56,10.87-2.81,16.34-4.09c4.07-0.95,8.16-1.81,12.27-2.58
			c2.54-0.47,5.14-0.7,7.7-1.04c1.91-0.25,3.81-0.53,5.72-0.78c1.79-0.23,3.58-0.52,5.38-0.64c2.34-0.16,4.69-0.18,7.03-0.26
			c4.45-0.16,8.89-0.44,13.34-0.44c4.45,0,8.9,0.16,13.34,0.48c4.19,0.31,8.36,0.94,12.55,1.39c3.25,0.35,6.51,0.6,9.76,0.99
			c1.74,0.21,3.46,0.63,5.19,0.94c2.69,0.48,5.41,0.89,8.09,1.45c7.22,1.5,14.41,3.15,21.38,5.61c4.01,1.42,8.03,2.79,12.06,4.12
			c6.27,2.06,12.11,5.1,17.99,8.05c0.74,0.37,1.12,0.21,1.73-0.23c2.92-2.11,5.79-4.31,8.87-6.17c2.95-1.78,6.07-3.31,9.21-4.73
			c4.48-2.02,8.95-4.1,13.77-5.26c2.72-0.66,5.38-1.6,8.12-2.21c2.06-0.46,4.19-0.71,6.3-0.83c2.4-0.14,4.82-0.17,7.22,0.02
			c1.53,0.12,3.08,0.56,4.52,1.12c2.27,0.89,4.49,1.97,6.18,3.79c1.36,1.47,2.62,3.05,3.74,4.7c2.86,4.21,4.43,8.97,5.27,13.94
			c0.6,3.52,1.43,7.01,1.34,10.65c-0.08,3.42,0.28,6.85,0.16,10.27c-0.12,3.5-0.46,7.01-0.94,10.48c-0.48,3.52-1.06,7.05-1.93,10.49
			c-0.96,3.8-2.54,7.41-4.64,10.73c-1.19,1.88-2.63,3.63-4.09,5.32c-1.03,1.19-2.27,2.23-3.49,3.24c-0.42,0.35-1.07,0.44-1.61,0.63
			c-0.58,0.21-1.17,0.39-1.46,0.49c1.01,3.37,1.95,6.47,2.86,9.57c0.74,2.51,1.56,5,2.15,7.54c0.89,3.84,1.65,7.72,2.39,11.59
			c0.62,3.23,1.23,6.47,1.65,9.72c0.39,3.01,0.44,6.06,0.78,9.08c0.79,7.04,0.44,14.09,0.41,21.14c-0.01,2.86-0.58,5.71-0.89,8.57
			c-0.26,2.43-0.43,4.87-0.76,7.29c-0.4,2.91-0.9,5.8-1.43,8.69c-0.59,3.15-1.18,6.3-1.92,9.42c-1.57,6.69-3.42,13.31-5.8,19.76
			c-1.38,3.73-3.1,7.35-4.75,10.98c-1.25,2.75-2.53,5.49-3.96,8.15c-1.6,2.96-3.34,5.84-5.09,8.72c-1.81,2.97-3.63,5.94-5.6,8.81
			c-1.6,2.33-3.41,4.5-5.14,6.74c-3.35,4.36-7.12,8.34-11.12,12.1c-3.76,3.53-7.59,7.04-12.27,9.35c-4.22,2.08-8.66,3.55-13.29,4.42
			C384.7,480.72,383.3,480.67,381.76,480.76z M375.56,518.18c0.07-0.12,0.15-0.24,0.22-0.36c-1.01-3-2.18-5.96-3-9
			c-1.06-3.91-1.91-7.89-2.72-11.86c-0.87-4.25-1.62-8.52-2.36-12.8c-0.38-2.2-0.76-4.42-0.93-6.64c-0.15-1.98-0.24-4.03,0.05-5.98
			c0.76-4.98,6.24-7.17,10.15-5.73c1.18,0.44,2.58,0.64,3.82,0.49c2.43-0.29,4.89-0.72,7.22-1.44c2.19-0.68,4.48-1.48,6.29-2.81
			c4.06-2.98,8.02-6.15,11.28-10.06c2.91-3.5,5.94-6.9,8.67-10.53c2.35-3.12,4.41-6.46,6.47-9.78c1.86-2.99,3.66-6.03,5.29-9.15
			c1.8-3.44,3.41-6.97,5.03-10.5c2.16-4.69,4.08-9.46,5.35-14.48c0.84-3.33,1.79-6.63,2.56-9.97c0.72-3.12,1.31-6.27,1.9-9.42
			c0.45-2.42,0.85-4.86,1.19-7.3c0.31-2.3,0.51-4.62,0.75-6.93c0.32-3.01,0.84-6.03,0.9-9.05c0.15-7.34,0.11-14.69-0.9-22
			c-0.33-2.34-0.42-4.71-0.77-7.04c-0.47-3.13-0.96-6.27-1.69-9.36c-1.32-5.62-2.59-11.26-4.33-16.76
			c-1.36-4.3-3.22-8.47-5.16-12.56c-1.95-4.1-4.14-8.1-6.47-12c-2.11-3.52-4.29-7.05-6.89-10.2c-4.63-5.6-9.67-10.84-15.21-15.58
			c-3.31-2.83-6.39-5.94-10.15-8.22c-3.18-1.92-6.25-4.05-9.53-5.77c-4.02-2.11-8.15-4.03-12.34-5.79
			c-4.31-1.81-8.71-3.42-13.14-4.92c-3.8-1.29-7.67-2.38-11.56-3.39c-3.66-0.95-7.37-1.72-11.08-2.5c-2.26-0.47-4.55-0.8-6.82-1.21
			c-1.65-0.3-3.29-0.73-4.95-0.94c-3.25-0.39-6.51-0.64-9.76-0.99c-4.18-0.45-8.35-1.09-12.55-1.39c-4.63-0.33-9.29-0.51-13.94-0.48
			c-4.43,0.03-8.86,0.42-13.29,0.68c-2.37,0.14-4.74,0.25-7.1,0.51c-2.81,0.31-5.6,0.74-8.39,1.18c-3.06,0.48-6.11,0.96-9.15,1.54
			c-2.8,0.53-5.58,1.15-8.35,1.82c-5.34,1.3-10.69,2.57-16,4.02c-5.97,1.64-11.62,4.15-17.23,6.71c-6.09,2.78-12.04,5.84-18.09,8.72
			c-5.37,2.56-10.26,5.88-15.02,9.38c-3.43,2.52-6.74,5.26-9.85,8.17c-2.89,2.7-5.48,5.72-8.13,8.67c-2.21,2.46-4.51,4.86-6.4,7.56
			c-2.94,4.2-5.18,8.81-6.91,13.67c-1.33,3.71-2.56,7.45-3.34,11.31c-0.37,1.84-0.42,3.76-0.91,5.57
			c-1.16,4.22-1.27,8.57-1.53,12.86c-0.32,5.54-0.12,11.11,0.61,16.65c0.49,3.75,0.51,7.57,1.05,11.31
			c0.59,4.09,1.45,8.16,2.37,12.19c0.91,3.99,1.95,7.95,3.11,11.88c0.57,1.94,1.59,3.73,2.29,5.64c2.27,6.21,4.84,12.3,8.02,18.1
			c2.69,4.91,5.48,9.76,8.38,14.55c1.54,2.54,3.36,4.91,5.14,7.29c1.31,1.77,2.72,3.47,4.15,5.14c2.77,3.22,5.56,6.41,8.4,9.56
			c0.95,1.06,2.07,1.97,3.13,2.92c1.28,1.15,2.52,2.34,3.88,3.38c1.83,1.4,3.85,2.57,5.64,4.02c3.77,3.06,8.03,5.32,12.24,7.63
			c3,1.65,6.12,3.13,9.29,4.43c3.99,1.62,8.04,3.12,12.47,3.03c1.84-0.04,3.68,0.02,5.52-0.01c2.9-0.05,6.15,3.02,6.08,6
			c-0.05,2.22-0.67,4.23-1.16,6.27c-1.32,5.45-3.82,10.45-6.37,15.41c-0.91,1.78-1.81,3.56-2.81,5.52c1.2,0.25,2.1,0.46,3.01,0.62
			c3.15,0.52,6.09-0.58,8.86-1.67c3-1.18,5.83-2.96,8.48-4.84c2.98-2.11,5.71-4.58,8.48-6.97c2.46-2.12,7.05-2.17,9.48-0.04
			c1.92,1.68,3.52,3.56,4.5,5.96c1.14,2.78,2.39,5.51,3.6,8.26c0.94,2.12,1.88,4.24,2.93,6.59c1.73-2.09,3.1-3.99,4.72-5.63
			c2.44-2.48,4.94-4.93,7.63-7.12c2.17-1.77,4.86-2.77,7.69-2.89c4.38-0.19,8.02,1.52,11.17,4.6c2.95,2.89,4.92,6.39,6.89,9.93
			c0.82,1.47,1.63,2.94,2.53,4.36c0.57,0.89,1.3,1.68,2.04,2.62c0.88-1.31,1.6-2.46,2.4-3.57c2.25-3.14,4.44-6.35,8.59-7.3
			c3.29-0.75,6.48-0.61,9.25,1.4c2.46,1.79,4.75,3.8,6.62,6.28c1.75,2.31,3.69,4.48,5.56,6.7c2.35,2.79,4.4,5.86,7.26,8.18
			c2.52,2.04,5.43,3.41,8.59,4.16C370.81,517.26,373.19,517.69,375.56,518.18z M446.33,286.04c0.4-0.61,0.74-1.34,1.27-1.89
			c2.42-2.49,4.57-5.13,6.33-8.17c1.82-3.14,3.39-6.38,4.36-9.83c0.91-3.22,1.44-6.56,1.95-9.88c0.46-3.03,0.79-6.1,0.95-9.16
			c0.12-2.25-0.24-4.53-0.18-6.79c0.12-4.86-0.92-9.55-1.98-14.22c-1.29-5.72-3.76-10.85-8.29-14.8c-2.46-2.14-5.41-3.14-8.55-3.52
			c-3.7-0.45-7.33,0.41-10.87,1.3c-5.06,1.28-9.99,2.98-14.84,5.02c-5.43,2.28-10.56,5.09-15.58,8.11c-1.82,1.1-3.5,2.44-5.11,3.57
			C418.38,241.31,436.35,260.49,446.33,286.04z M128.59,281.49c0.51-1.16,0.92-2.13,1.37-3.08c1.73-3.59,3.29-7.27,5.26-10.72
			c3.04-5.3,7.17-9.81,11.34-14.23c3.41-3.61,7.06-7,10.64-10.44c1.48-1.42,2.97-2.84,4.62-4.04c4.71-3.43,9.51-6.74,14.59-10.33
			c-1.12-0.29-2.03-0.49-2.92-0.75c-0.7-0.2-1.43-0.38-2.05-0.73c-2.37-1.3-4.65-2.8-7.08-3.99c-5.23-2.58-10.5-5.08-15.8-7.49
			c-2.41-1.1-4.89-2.08-7.43-2.84c-4.26-1.29-8.5-2.69-12.97-3.1c-1.33-0.12-2.65-0.51-3.96-0.49c-1.27,0.03-2.54,0.4-3.8,0.67
			c-4.79,1.05-8.5,3.67-10.43,8.18c-2.06,4.82-3.34,9.86-2.6,15.24c0.56,4.03,1.03,8.08,2.44,11.92c1.55,4.25,2.89,8.62,4.88,12.65
			c2.64,5.35,5.79,10.46,8.82,15.61C125.08,276.19,126.83,278.74,128.59,281.49z"/>
		<path class="st0" d="M375.56,518.18c-2.37-0.49-4.75-0.92-7.1-1.48c-3.16-0.75-6.06-2.12-8.59-4.16
			c-2.86-2.32-4.91-5.39-7.26-8.18c-1.87-2.22-3.81-4.39-5.56-6.7c-1.87-2.47-4.15-4.49-6.62-6.28c-2.77-2.01-5.96-2.15-9.25-1.4
			c-4.15,0.95-6.34,4.15-8.59,7.3c-0.79,1.11-1.52,2.26-2.4,3.57c-0.74-0.94-1.48-1.73-2.04-2.62c-0.9-1.42-1.72-2.89-2.53-4.36
			c-1.96-3.54-3.94-7.03-6.89-9.93c-3.15-3.08-6.78-4.79-11.17-4.6c-2.83,0.12-5.51,1.13-7.69,2.89c-2.7,2.19-5.2,4.64-7.63,7.12
			c-1.62,1.65-2.98,3.54-4.72,5.63c-1.05-2.35-2-4.47-2.93-6.59c-1.21-2.75-2.46-5.48-3.6-8.26c-0.98-2.4-2.59-4.28-4.5-5.96
			c-2.43-2.13-7.02-2.08-9.48,0.04c-2.77,2.39-5.51,4.86-8.48,6.97c-2.65,1.88-5.48,3.66-8.48,4.84c-2.76,1.08-5.71,2.19-8.86,1.67
			c-0.91-0.15-1.82-0.37-3.01-0.62c1-1.96,1.9-3.74,2.81-5.52c2.55-4.96,5.05-9.96,6.37-15.41c0.49-2.04,1.11-4.05,1.16-6.27
			c0.07-2.98-3.18-6.05-6.08-6c-1.84,0.03-3.68-0.03-5.52,0.01c-4.43,0.09-8.48-1.41-12.47-3.03c-3.17-1.29-6.29-2.77-9.29-4.43
			c-4.21-2.32-8.47-4.57-12.24-7.63c-1.79-1.45-3.8-2.62-5.64-4.02c-1.36-1.04-2.6-2.24-3.88-3.38c-1.06-0.95-2.18-1.86-3.13-2.92
			c-2.84-3.15-5.63-6.35-8.4-9.56c-1.44-1.67-2.84-3.37-4.15-5.14c-1.78-2.39-3.6-4.75-5.14-7.29c-2.9-4.78-5.69-9.64-8.38-14.55
			c-3.18-5.8-5.74-11.89-8.02-18.1c-0.7-1.9-1.72-3.7-2.29-5.64c-1.15-3.92-2.2-7.89-3.11-11.88c-0.92-4.04-1.78-8.1-2.37-12.19
			c-0.54-3.74-0.56-7.56-1.05-11.31c-0.72-5.54-0.93-11.11-0.61-16.65c0.25-4.29,0.37-8.64,1.53-12.86c0.49-1.8,0.54-3.72,0.91-5.57
			c0.78-3.87,2.01-7.6,3.34-11.31c1.74-4.85,3.97-9.47,6.91-13.67c1.89-2.69,4.19-5.1,6.4-7.56c2.65-2.95,5.24-5.97,8.13-8.67
			c3.11-2.91,6.42-5.65,9.85-8.17c4.76-3.5,9.65-6.82,15.02-9.38c6.04-2.88,12-5.94,18.09-8.72c5.61-2.56,11.26-5.07,17.23-6.71
			c5.3-1.45,10.65-2.72,16-4.02c2.77-0.67,5.55-1.29,8.35-1.82c3.04-0.58,6.09-1.06,9.15-1.54c2.79-0.43,5.58-0.87,8.39-1.18
			c2.36-0.26,4.73-0.37,7.1-0.51c4.43-0.26,8.86-0.64,13.29-0.68c4.64-0.04,9.3,0.15,13.94,0.48c4.19,0.3,8.36,0.94,12.55,1.39
			c3.25,0.35,6.51,0.6,9.76,0.99c1.66,0.2,3.3,0.64,4.95,0.94c2.27,0.41,4.56,0.74,6.82,1.21c3.7,0.78,7.42,1.54,11.08,2.5
			c3.89,1.01,7.76,2.11,11.56,3.39c4.43,1.5,8.83,3.11,13.14,4.92c4.19,1.75,8.32,3.68,12.34,5.79c3.28,1.72,6.36,3.85,9.53,5.77
			c3.76,2.28,6.84,5.39,10.15,8.22c5.54,4.74,10.58,9.98,15.21,15.58c2.61,3.15,4.79,6.68,6.89,10.2c2.33,3.9,4.52,7.9,6.47,12
			c1.94,4.08,3.8,8.26,5.16,12.56c1.74,5.49,3.01,11.14,4.33,16.76c0.73,3.08,1.21,6.22,1.69,9.36c0.35,2.33,0.44,4.71,0.77,7.04
			c1.02,7.3,1.06,14.65,0.9,22c-0.06,3.02-0.58,6.03-0.9,9.05c-0.24,2.31-0.44,4.63-0.75,6.93c-0.33,2.44-0.74,4.88-1.19,7.3
			c-0.59,3.15-1.17,6.3-1.9,9.42c-0.77,3.34-1.72,6.64-2.56,9.97c-1.27,5.02-3.2,9.79-5.35,14.48c-1.62,3.53-3.23,7.06-5.03,10.5
			c-1.63,3.12-3.43,6.16-5.29,9.15c-2.06,3.32-4.13,6.66-6.47,9.78c-2.73,3.63-5.77,7.03-8.67,10.53
			c-3.26,3.92-7.21,7.08-11.28,10.06c-1.81,1.33-4.1,2.13-6.29,2.81c-2.34,0.72-4.79,1.15-7.22,1.44c-1.24,0.15-2.64-0.05-3.82-0.49
			c-3.9-1.44-9.39,0.75-10.15,5.73c-0.3,1.95-0.2,4-0.05,5.98c0.17,2.22,0.54,4.44,0.93,6.64c0.74,4.27,1.49,8.55,2.36,12.8
			c0.81,3.97,1.66,7.95,2.72,11.86c0.82,3.05,1.99,6.01,3,9C375.7,517.94,375.63,518.06,375.56,518.18z M190.89,312.15
			c-0.08,0-0.17,0.01-0.25,0.01c0.32,6.5,0.64,13.01,0.98,19.51c0.05,0.99,0.13,1.97,0.26,2.95c0.38,2.88,0.78,5.76,1.18,8.63
			c0.41,2.91,0.73,5.85,1.26,8.74c0.59,3.18,1.34,6.34,2.1,9.49c1.4,5.72,2.74,11.47,4.34,17.13c1.5,5.3,3.64,10.38,5.86,15.43
			c3.36,7.63,7.27,14.83,13.49,20.55c3.55,3.26,7.46,5.87,12.33,6.66c3.28,0.53,6.47,0.38,9.58-1.09c5.05-2.39,8.37-6.43,11-11.17
			c3.1-5.58,5.23-11.52,6.6-17.74c0.64-2.94,1.5-5.83,1.99-8.79c0.63-3.79,1.03-7.63,1.48-11.45c0.51-4.26,1.05-8.51,1.41-12.78
			c0.35-4.1,0.68-8.22,0.7-12.33c0.03-5.76,0.34-11.54-0.41-17.3c-0.53-4.06-0.7-8.17-1.26-12.22c-0.52-3.79-1.14-7.6-2.1-11.3
			c-1.33-5.13-2.84-10.23-4.61-15.22c-1.98-5.58-4.46-10.96-7.93-15.8c-2.87-4.01-5.96-7.85-10.24-10.5
			c-5.48-3.39-11.2-6.1-17.88-5.63c-1.49,0.1-3.1,0.42-4.39,1.12c-0.91,0.5-1.76,0.66-2.57,0.47c-2.74-0.61-5.12,0.08-7.36,1.61
			c-1.25,0.86-2.48,1.86-3.88,2.38c-2.42,0.9-4.24,2.54-5.23,4.71c-1.53,3.36-2.85,6.87-3.73,10.44c-0.98,4.02-1.51,8.17-1.96,12.29
			c-0.44,3.97-0.59,7.97-0.74,11.97C190.8,305.99,190.89,309.08,190.89,312.15z M385.68,358.78c0.05,0,0.11-0.01,0.16-0.01
			c-0.21-4.96-0.42-9.93-0.65-14.89c-0.04-0.99-0.12-1.97-0.26-2.95c-0.37-2.68-0.75-5.36-1.18-8.03
			c-0.57-3.51-1.06-7.05-1.85-10.52c-1.19-5.25-2.53-10.47-3.93-15.67c-1.09-4.06-2.34-8.09-3.57-12.11
			c-0.39-1.27-0.95-2.48-1.44-3.71c-1.94-4.96-4.24-9.75-7.06-14.28c-2.69-4.32-6-8.07-10.13-11.08c-3.31-2.42-6.89-4.24-10.88-5.28
			c-2.06-0.54-4.22-0.03-6.25-1.4c-1.9-1.28-4.43-1.19-6.75-1.19c-1.3,0-2.61,0.17-3.91,0.22c-2.79,0.1-5.22,1.26-7.24,3.01
			c-2.39,2.07-3.45,5.1-4.09,8.06c-0.92,4.28-1.49,8.66-1.95,13.02c-0.37,3.54-0.48,7.13-0.5,10.69c-0.03,4.94,0.13,9.88,0.21,14.82
			c0,0.12,0,0.24,0.01,0.36c0.32,3.61,0.62,7.23,0.96,10.84c0.22,2.43,0.37,4.88,0.75,7.28c0.71,4.44,1.43,8.89,2.38,13.28
			c1.32,6.1,2.69,12.2,4.35,18.22c1.14,4.13,2.76,8.13,4.27,12.15c1.25,3.32,2.45,6.69,4.01,9.87c2.51,5.1,5.24,10.09,7.99,15.06
			c1.7,3.07,3.56,6.05,5.45,9.01c2.76,4.32,6.28,8.02,9.92,11.61c1.53,1.51,3.2,2.82,5.18,3.65c2.93,1.22,5.92,1.71,9.01,0.49
			c4.28-1.69,7-4.97,9.04-8.9c1.99-3.82,3.59-7.81,4.37-12.07c0.75-4.12,1.53-8.24,2.08-12.39c0.49-3.75,0.74-7.54,0.98-11.32
			c0.24-3.8,0.36-7.61,0.49-11.42C385.72,361.74,385.68,360.26,385.68,358.78z M289.97,441.86c2.42,1.22,4.64,2.64,7.07,3.5
			c3.38,1.2,6.77,1.26,9.41-1.85c0.51-0.6,1.05-1.03,1.92-0.92c0.9,0.1,1.25-0.58,1.49-1.3c0.1-0.29,0.04-0.68,0.21-0.9
			c1.06-1.4,1.06-3,1.01-4.63c-0.04-1.18-0.57-1.77-1.77-1.78c-0.85,0-1.71,0.16-2.55,0.09c-2.63-0.22-3.59-0.42-3.36,2.82
			c0.01,0.12-0.02,0.24,0,0.36c0.25,1.28-0.43,2.18-1.31,2.93c-0.7,0.6-1.45,0.9-2.48,0.54c-2.97-1.03-5.35-2.9-7.55-5.04
			c-0.26-0.26-0.39-0.76-0.4-1.15c-0.1-5.22-0.1-10.44-0.28-15.66c-0.16-4.75,0.57-9.52-0.45-14.24c-0.44-2.06-0.01-2.59-2.81-2.55
			c-1.03,0.01-1.53,0.46-1.52,1.5c0.01,1.85-0.02,3.69,0.01,5.54c0.07,5.18,0.17,10.36,0.23,15.54c0.03,3.04-0.01,6.07,0.01,9.11
			c0.02,3.57-1.74,6.07-4.61,7.94c-0.16-0.15-0.28-0.21-0.33-0.31c-0.05-0.1-0.07-0.23-0.06-0.34c0.14-1.2,0.25-2.4,0.44-3.59
			c0.28-1.71-1.44-3.12-3.02-3.23c-0.84-0.06-2.02,0.47-2.14-1.08c0-0.05-0.28-0.08-0.43-0.13c-2.02-0.73-3.51,0.12-3.28,2.18
			c0.18,1.71,0.39,3.42,0.74,5.09c0.23,1.08,0.56,2.2,1.15,3.12c2.02,3.16,5.2,3.57,8.58,3.28c0.68-0.06,1.42-0.25,1.99-0.6
			C287.63,444.95,289.19,443.63,289.97,441.86z M178.25,265.53c0.69,0.33,1.37,0.93,2.07,0.95c3.43,0.1,6.86,0.04,10.3,0.05
			c0.89,0,1.25-0.46,1.24-1.3c-0.01-0.4,0-0.8,0-1.2c-0.01-1.36-0.89-2.28-2.26-2.29c-2.51-0.02-5.03,0.04-7.54-0.02
			C179.84,261.66,177.87,263.67,178.25,265.53z M343.8,256.46c1,0.25,1.9-0.23,2.66-1.19c0.52-0.65,1.23-1.15,1.75-1.8
			c1.15-1.4,2.6-2.63,2.25-4.81c-0.15-0.92-0.53-1.18-1.3-1.34c-1.56-0.31-2.69,0.6-3.79,1.38c-1.28,0.91-2.42,2.03-3.59,3.08
			c-0.69,0.62-0.98,2.67-0.61,3.69C341.61,256.73,342.65,256.42,343.8,256.46z M356.11,258.5c0.64-0.15,1.46-0.1,1.9-0.48
			c1.19-1.04,2.37-2.1,2.06-4.05c-0.17-1.06-0.65-1.47-1.54-1.58c-1.29-0.15-2.46,0.16-3.57,0.93c-1.08,0.75-1.55,2.25-1.13,3.98
			C354.14,258.64,355.17,258.34,356.11,258.5z M196.79,257.52c0-0.04,0.01-0.07,0.01-0.11c0.52,0,1.03,0.01,1.55,0
			c1.16-0.01,1.63-0.48,1.65-1.63c0.01-0.36-0.03-0.72,0.01-1.07c0.1-1.09-0.58-1.52-1.47-1.59c-1.11-0.09-2.26-0.18-3.33,0.04
			c-0.7,0.14-1.67,0.73-1.83,1.31c-0.26,0.94-0.53,2.29,0.99,2.69C195.16,257.36,195.99,257.4,196.79,257.52z"/>
		<path class="st0" d="M446.33,286.04c-9.98-25.55-27.96-44.72-50.52-60.26c1.61-1.13,3.28-2.47,5.11-3.57
			c5.03-3.02,10.15-5.83,15.58-8.11c4.84-2.04,9.78-3.73,14.84-5.02c3.53-0.9,7.16-1.75,10.87-1.3c3.14,0.38,6.1,1.37,8.55,3.52
			c4.53,3.95,6.99,9.08,8.29,14.8c1.06,4.67,2.1,9.36,1.98,14.22c-0.06,2.26,0.3,4.53,0.18,6.79c-0.16,3.06-0.49,6.13-0.95,9.16
			c-0.51,3.32-1.04,6.66-1.95,9.88c-0.98,3.45-2.54,6.69-4.36,9.83c-1.76,3.04-3.91,5.68-6.33,8.17
			C447.08,284.69,446.74,285.43,446.33,286.04z M446.56,216.92c-0.58,0.23-1.45,0.33-1.54,0.65c-0.26,0.9-0.22,1.91,0.69,2.58
			c0.6,0.44,1.16,0.94,1.8,1.32c1.33,0.8,2.68,1.57,4.05,2.31c0.56,0.3,1.18,0.49,1.79,0.67c0.4,0.11,0.83,0.1,1.25,0.14
			c-0.08-0.42-0.08-0.87-0.25-1.25c-0.19-0.45-0.54-0.82-0.79-1.25c-0.28-0.5-0.39-1.19-0.8-1.5c-1.4-1.05-2.88-1.99-4.36-2.91
			C447.87,217.33,447.22,217.18,446.56,216.92z"/>
		<path class="st0" d="M128.59,281.49c-1.77-2.76-3.52-5.3-5.08-7.96c-3.02-5.16-6.17-10.26-8.82-15.61
			c-1.99-4.04-3.33-8.4-4.88-12.65c-1.41-3.85-1.88-7.89-2.44-11.92c-0.75-5.38,0.53-10.42,2.6-15.24
			c1.93-4.51,5.64-7.13,10.43-8.18c1.26-0.28,2.53-0.65,3.8-0.67c1.32-0.03,2.64,0.36,3.96,0.49c4.47,0.42,8.71,1.82,12.97,3.1
			c2.53,0.76,5.02,1.75,7.43,2.84c5.31,2.42,10.58,4.91,15.8,7.49c2.43,1.2,4.7,2.69,7.08,3.99c0.63,0.35,1.36,0.52,2.05,0.73
			c0.89,0.26,1.8,0.47,2.92,0.75c-5.08,3.58-9.88,6.9-14.59,10.33c-1.65,1.2-3.15,2.62-4.62,4.04c-3.59,3.44-7.24,6.83-10.64,10.44
			c-4.17,4.42-8.3,8.93-11.34,14.23c-1.98,3.45-3.53,7.13-5.26,10.72C129.51,279.36,129.11,280.34,128.59,281.49z M114.56,221.19
			c-0.98,0-1.88,0.95-2.11,2.09c-0.73,3.7,0.19,7.2,1.58,10.54c0.67,1.6,1.96,2.95,2.99,4.39c0.09,0.13,0.31,0.24,0.47,0.23
			c0.5-0.03,1.28,0.04,1.44-0.22c0.25-0.44,0.31-1.23,0.07-1.66c-0.66-1.2-0.91-2.42-0.8-3.75c0.02-0.19-0.04-0.39-0.11-0.57
			c-1.24-3.15-2.01-6.4-2.29-9.78C115.74,221.68,115.47,221.04,114.56,221.19z"/>
		<path d="M190.89,312.15c0-3.08-0.09-6.16,0.02-9.23c0.15-3.99,0.31-8,0.74-11.97c0.45-4.12,0.98-8.27,1.96-12.29
			c0.87-3.58,2.2-7.09,3.73-10.44c0.99-2.17,2.81-3.81,5.23-4.71c1.4-0.52,2.63-1.52,3.88-2.38c2.25-1.53,4.62-2.22,7.36-1.61
			c0.81,0.18,1.66,0.02,2.57-0.47c1.29-0.7,2.89-1.02,4.39-1.12c6.68-0.47,12.4,2.24,17.88,5.63c4.28,2.65,7.37,6.49,10.24,10.5
			c3.47,4.84,5.96,10.23,7.93,15.8c1.77,4.99,3.28,10.09,4.61,15.22c0.96,3.7,1.57,7.51,2.1,11.3c0.56,4.05,0.73,8.16,1.26,12.22
			c0.75,5.76,0.44,11.53,0.41,17.3c-0.02,4.11-0.35,8.23-0.7,12.33c-0.37,4.27-0.91,8.53-1.41,12.78
			c-0.45,3.82-0.85,7.66-1.48,11.45c-0.49,2.96-1.35,5.86-1.99,8.79c-1.37,6.23-3.5,12.16-6.6,17.74c-2.63,4.74-5.95,8.77-11,11.17
			c-3.1,1.47-6.29,1.62-9.58,1.09c-4.87-0.79-8.79-3.4-12.33-6.66c-6.22-5.71-10.13-12.91-13.49-20.55
			c-2.22-5.06-4.36-10.13-5.86-15.43c-1.6-5.67-2.94-11.41-4.34-17.13c-0.77-3.15-1.51-6.31-2.1-9.49
			c-0.54-2.89-0.86-5.82-1.26-8.74c-0.4-2.88-0.8-5.75-1.18-8.63c-0.13-0.98-0.21-1.96-0.26-2.95c-0.33-6.5-0.65-13.01-0.98-19.51
			C190.73,312.16,190.81,312.16,190.89,312.15z M210.08,265.15c0,0.16,0,0.43,0,0.71c0.01,0.75-0.12,1.43-0.99,1.61
			c-0.61,0.13-1.25,0.12-1.86,0.26c-2.5,0.57-4.52,1.73-5.75,4.16c-1.67,3.29-2.61,6.76-3.13,10.37c-0.45,3.07-0.89,6.14-1.19,9.22
			c-0.4,4.09-0.89,8.18-0.93,12.28c-0.07,8.11-0.39,16.23,0.65,24.32c0.42,3.28,0.58,6.59,0.99,9.88c0.57,4.55,1.1,9.12,1.96,13.63
			c1.04,5.4,2.29,10.78,3.67,16.1c1.72,6.65,3.54,13.26,6.25,19.61c2.52,5.91,4.96,11.83,8.8,17.05c3.19,4.34,6.8,8.23,11.77,10.55
			c4.91,2.29,8.26,1.57,12.13-1.51c4.08-3.24,6.42-7.81,8.43-12.52c2.02-4.72,3.16-9.72,4.29-14.7c0.64-2.82,1.02-5.7,1.47-8.56
			c0.58-3.72,1.18-7.44,1.65-11.17c0.41-3.24,0.73-6.5,0.96-9.76c0.31-4.5,0.58-9.02,0.72-13.53c0.17-5.36-0.02-10.71-0.68-16.05
			c-0.33-2.7-0.34-5.44-0.78-8.12c-0.75-4.55-1.6-9.09-2.63-13.59c-1.56-6.79-3.83-13.35-6.7-19.7c-1.88-4.16-4.27-8-7.24-11.52
			c-2.67-3.18-5.62-5.96-9.34-7.77c-2.27-1.11-4.76-1.76-7.06-2.81c-2.11-0.96-4.21-0.67-6.38-0.5c-1.54,0.12-3.18,0.43-4.56-0.69
			C213.64,264.26,211.42,263.72,210.08,265.15z"/>
		<path d="M385.68,358.78c0,1.48,0.04,2.96-0.01,4.44c-0.14,3.81-0.25,7.62-0.49,11.42c-0.24,3.78-0.49,7.57-0.98,11.32
			c-0.54,4.15-1.33,8.27-2.08,12.39c-0.77,4.26-2.38,8.25-4.37,12.07c-2.04,3.93-4.76,7.21-9.04,8.9c-3.09,1.22-6.08,0.72-9.01-0.49
			c-1.99-0.82-3.65-2.14-5.18-3.65c-3.64-3.59-7.15-7.28-9.92-11.61c-1.89-2.96-3.75-5.94-5.45-9.01
			c-2.75-4.97-5.48-9.96-7.99-15.06c-1.56-3.18-2.77-6.54-4.01-9.87c-1.51-4.02-3.13-8.02-4.27-12.15
			c-1.66-6.01-3.03-12.12-4.35-18.22c-0.95-4.39-1.67-8.84-2.38-13.28c-0.38-2.41-0.53-4.85-0.75-7.28
			c-0.33-3.61-0.64-7.23-0.96-10.84c-0.01-0.12,0-0.24-0.01-0.36c-0.08-4.94-0.24-9.88-0.21-14.82c0.02-3.57,0.12-7.15,0.5-10.69
			c0.46-4.36,1.03-8.74,1.95-13.02c0.64-2.96,1.7-5.99,4.09-8.06c2.01-1.74,4.45-2.9,7.24-3.01c1.3-0.05,2.61-0.22,3.91-0.22
			c2.32,0,4.85-0.09,6.75,1.19c2.03,1.37,4.2,0.86,6.25,1.4c3.99,1.04,7.57,2.86,10.88,5.28c4.12,3.01,7.44,6.76,10.13,11.08
			c2.82,4.53,5.12,9.32,7.06,14.28c0.48,1.24,1.05,2.45,1.44,3.71c1.23,4.02,2.48,8.05,3.57,12.11c1.4,5.2,2.74,10.42,3.93,15.67
			c0.78,3.47,1.27,7.01,1.85,10.52c0.44,2.67,0.81,5.35,1.18,8.03c0.14,0.98,0.21,1.96,0.26,2.95c0.23,4.96,0.43,9.93,0.65,14.89
			C385.78,358.78,385.73,358.78,385.68,358.78z M333.52,262.39c-0.03-0.12-0.07-0.23-0.1-0.35c-1.44,0.22-2.91,0.31-4.3,0.68
			c-1.94,0.51-4.01,1.19-5.13,2.89c-1.15,1.73-2.11,3.75-2.52,5.77c-0.88,4.37-1.53,8.81-1.94,13.26
			c-0.39,4.22-0.43,8.49-0.51,12.74c-0.05,2.46,0.14,4.93,0.22,7.39c0,0.08,0,0.16,0.01,0.24c0.32,3.74,0.62,7.47,0.96,11.2
			c0.22,2.47,0.41,4.95,0.75,7.4c0.39,2.79,0.89,5.57,1.41,8.34c0.74,3.96,1.46,7.92,2.31,11.85c1.39,6.46,3.26,12.78,5.54,18.98
			c1.88,5.13,3.78,10.25,5.86,15.3c1.23,2.96,2.81,5.78,4.29,8.63c0.99,1.91,1.98,3.84,3.15,5.64c2.18,3.34,4.49,6.6,6.73,9.89
			c2.38,3.5,4.89,6.89,8.06,9.73c1.79,1.6,3.89,2.7,6.26,2.99c2.91,0.35,4.99-1.37,6.63-3.45c2.99-3.8,4.78-8.25,5.8-12.93
			c0.92-4.24,1.59-8.54,2.17-12.85c0.55-4.1,0.86-8.23,1.22-12.35c0.23-2.64,0.46-5.29,0.47-7.94c0.01-5.62-0.12-11.24-0.22-16.86
			c-0.02-1.26-0.11-2.53-0.25-3.79c-0.28-2.38-0.62-4.75-0.94-7.12c-0.41-3.03-0.69-6.09-1.27-9.1c-0.73-3.75-1.72-7.46-2.56-11.19
			c-1.58-7-3.3-13.97-6.03-20.63c-2.48-6.03-4.46-12.32-8.61-17.53c-1.69-2.12-3.18-4.44-5.11-6.32c-1.95-1.9-4.3-3.4-6.54-4.98
			c-1.27-0.89-2.61-1.91-4.06-2.29c-2.07-0.55-4.27-0.6-6.42-0.79c-1.07-0.09-2.16,0.03-3.24-0.04c-0.39-0.02-0.75-0.32-1.14-0.47
			c-0.34-0.14-0.69-0.33-1.04-0.35c-0.45-0.03-0.91,0.09-1.32,0.14C331.42,262.54,333.01,262.93,333.52,262.39z"/>
		<path d="M289.97,441.86c-0.78,1.77-2.34,3.09-4.09,4.18c-0.57,0.35-1.31,0.55-1.99,0.6c-3.38,0.29-6.56-0.12-8.58-3.28
			c-0.58-0.91-0.92-2.04-1.15-3.12c-0.35-1.68-0.55-3.39-0.74-5.09c-0.22-2.06,1.26-2.91,3.28-2.18c0.14,0.05,0.42,0.08,0.43,0.13
			c0.12,1.56,1.3,1.02,2.14,1.08c1.59,0.11,3.3,1.52,3.02,3.23c-0.19,1.19-0.3,2.39-0.44,3.59c-0.01,0.11,0.01,0.24,0.06,0.34
			c0.06,0.1,0.17,0.17,0.33,0.31c2.87-1.88,4.63-4.37,4.61-7.94c-0.02-3.04,0.02-6.07-0.01-9.11c-0.06-5.18-0.16-10.36-0.23-15.54
			c-0.02-1.85,0.01-3.69-0.01-5.54c-0.01-1.04,0.49-1.49,1.52-1.5c2.8-0.03,2.37,0.5,2.81,2.55c1.02,4.72,0.29,9.5,0.45,14.24
			c0.18,5.22,0.17,10.44,0.28,15.66c0.01,0.39,0.14,0.9,0.4,1.15c2.2,2.15,4.58,4.01,7.55,5.04c1.03,0.36,1.78,0.06,2.48-0.54
			c0.88-0.75,1.56-1.64,1.31-2.93c-0.02-0.12,0-0.24,0-0.36c-0.23-3.24,0.73-3.04,3.36-2.82c0.84,0.07,1.7-0.09,2.55-0.09
			c1.2,0.01,1.73,0.59,1.77,1.78c0.05,1.63,0.05,3.24-1.01,4.63c-0.17,0.22-0.11,0.6-0.21,0.9c-0.24,0.72-0.59,1.41-1.49,1.3
			c-0.88-0.1-1.42,0.32-1.92,0.92c-2.64,3.12-6.03,3.05-9.41,1.85C294.61,444.5,292.39,443.08,289.97,441.86z"/>
		<path d="M178.25,265.53c-0.38-1.86,1.59-3.87,3.8-3.81c2.51,0.06,5.03,0,7.54,0.02c1.37,0.01,2.26,0.93,2.26,2.29
			c0,0.4-0.01,0.8,0,1.2c0.01,0.84-0.35,1.31-1.24,1.3c-3.43-0.01-6.87,0.05-10.3-0.05C179.62,266.46,178.94,265.86,178.25,265.53z"
			/>
		<path d="M343.8,256.46c-1.15-0.04-2.19,0.27-2.63-0.98c-0.37-1.03-0.08-3.07,0.61-3.69c1.18-1.05,2.31-2.17,3.59-3.08
			c1.1-0.78,2.23-1.7,3.79-1.38c0.77,0.15,1.16,0.42,1.3,1.34c0.35,2.18-1.1,3.41-2.25,4.81c-0.53,0.65-1.23,1.15-1.75,1.8
			C345.69,256.23,344.79,256.71,343.8,256.46z"/>
		<path d="M356.11,258.5c-0.93-0.16-1.96,0.14-2.29-1.2c-0.42-1.73,0.05-3.23,1.13-3.98c1.1-0.76,2.27-1.08,3.57-0.93
			c0.89,0.1,1.37,0.52,1.54,1.58c0.32,1.95-0.86,3.02-2.06,4.05C357.56,258.4,356.75,258.35,356.11,258.5z"/>
		<path d="M196.79,257.52c-0.8-0.12-1.63-0.16-2.41-0.36c-1.52-0.4-1.25-1.76-0.99-2.69c0.16-0.58,1.13-1.17,1.83-1.31
			c1.07-0.22,2.22-0.12,3.33-0.04c0.9,0.07,1.58,0.5,1.47,1.59c-0.03,0.35,0,0.72-0.01,1.07c-0.02,1.15-0.49,1.62-1.65,1.63
			c-0.52,0.01-1.03,0-1.55,0C196.8,257.45,196.8,257.48,196.79,257.52z"/>
		<path d="M446.56,216.92c0.66,0.26,1.31,0.41,1.85,0.74c1.49,0.92,2.97,1.87,4.36,2.91c0.41,0.31,0.52,1,0.8,1.5
			c0.24,0.43,0.59,0.81,0.79,1.25c0.16,0.38,0.17,0.83,0.25,1.25c-0.42-0.04-0.85-0.02-1.25-0.14c-0.61-0.17-1.23-0.37-1.79-0.67
			c-1.37-0.73-2.72-1.5-4.05-2.31c-0.63-0.38-1.2-0.88-1.8-1.32c-0.91-0.67-0.95-1.68-0.69-2.58
			C445.11,217.25,445.98,217.15,446.56,216.92z"/>
		<path d="M114.56,221.19c0.91-0.15,1.18,0.49,1.24,1.27c0.28,3.37,1.05,6.63,2.29,9.78c0.07,0.18,0.12,0.39,0.11,0.57
			c-0.11,1.33,0.14,2.56,0.8,3.75c0.24,0.43,0.18,1.22-0.07,1.66c-0.15,0.27-0.93,0.19-1.44,0.22c-0.15,0.01-0.38-0.1-0.47-0.23
			c-1.03-1.45-2.33-2.79-2.99-4.39c-1.39-3.34-2.31-6.84-1.58-10.54C112.68,222.14,113.58,221.19,114.56,221.19z"/>
		<path class="st0" d="M210.08,265.15c1.34-1.43,3.55-0.9,4.51-2.72c1.38,1.11,3.02,0.81,4.56,0.69c2.17-0.17,4.27-0.47,6.38,0.5
			c2.3,1.05,4.79,1.7,7.06,2.81c3.72,1.82,6.67,4.6,9.34,7.77c2.96,3.52,5.35,7.36,7.24,11.52c2.87,6.35,5.14,12.91,6.7,19.7
			c1.03,4.49,1.88,9.04,2.63,13.59c0.44,2.68,0.44,5.42,0.78,8.12c0.66,5.33,0.85,10.69,0.68,16.05c-0.14,4.51-0.41,9.02-0.72,13.53
			c-0.23,3.26-0.55,6.52-0.96,9.76c-0.47,3.73-1.07,7.45-1.65,11.17c-0.45,2.86-0.83,5.74-1.47,8.56c-1.13,4.98-2.27,9.97-4.29,14.7
			c-2.01,4.71-4.34,9.28-8.43,12.52c-3.88,3.08-7.23,3.8-12.13,1.51c-4.97-2.32-8.58-6.21-11.77-10.55
			c-3.84-5.22-6.28-11.14-8.8-17.05c-2.71-6.36-4.53-12.97-6.25-19.61c-1.38-5.33-2.63-10.7-3.67-16.1
			c-0.86-4.5-1.39-9.07-1.96-13.63c-0.41-3.28-0.57-6.6-0.99-9.88c-1.04-8.09-0.72-16.21-0.65-24.32c0.04-4.1,0.53-8.2,0.93-12.28
			c0.3-3.08,0.74-6.16,1.19-9.22c0.53-3.61,1.46-7.08,3.13-10.37c1.24-2.43,3.26-3.59,5.75-4.16c0.61-0.14,1.25-0.13,1.86-0.26
			c0.87-0.18,1-0.86,0.99-1.61C210.08,265.59,210.08,265.31,210.08,265.15z M232.15,312.36c0-3.94-2.7-6.87-6.2-7
			c-2.24-0.08-4.28,0.26-5.83,1.92c-1.48,1.59-2.61,3.41-2.61,5.73c0.01,3.91,3.09,6.97,6.97,7.04
			C227.75,320.1,232.91,316.48,232.15,312.36z"/>
		<path class="st0" d="M333.52,262.39c-0.5,0.53-2.1,0.14-1.42,1.75c0.41-0.05,0.87-0.17,1.32-0.14c0.35,0.02,0.7,0.22,1.04,0.35
			c0.38,0.15,0.75,0.44,1.14,0.47c1.08,0.07,2.16-0.05,3.24,0.04c2.15,0.19,4.35,0.24,6.42,0.79c1.46,0.38,2.79,1.4,4.06,2.29
			c2.25,1.58,4.59,3.08,6.54,4.98c1.93,1.87,3.42,4.2,5.11,6.32c4.15,5.21,6.13,11.5,8.61,17.53c2.73,6.66,4.45,13.62,6.03,20.63
			c0.84,3.73,1.84,7.43,2.56,11.19c0.58,3,0.86,6.06,1.27,9.1c0.32,2.37,0.66,4.75,0.94,7.12c0.15,1.26,0.23,2.52,0.25,3.79
			c0.1,5.62,0.23,11.24,0.22,16.86c0,2.65-0.24,5.3-0.47,7.94c-0.35,4.12-0.67,8.25-1.22,12.35c-0.58,4.3-1.25,8.61-2.17,12.85
			c-1.02,4.68-2.81,9.13-5.8,12.93c-1.64,2.08-3.72,3.8-6.63,3.45c-2.37-0.29-4.47-1.39-6.26-2.99c-3.17-2.84-5.68-6.24-8.06-9.73
			c-2.25-3.3-4.56-6.55-6.73-9.89c-1.17-1.8-2.16-3.73-3.15-5.64c-1.48-2.85-3.06-5.67-4.29-8.63c-2.09-5.04-3.98-10.17-5.86-15.3
			c-2.27-6.2-4.14-12.53-5.54-18.98c-0.85-3.93-1.58-7.9-2.31-11.85c-0.52-2.77-1.02-5.55-1.41-8.34c-0.34-2.46-0.53-4.93-0.75-7.4
			c-0.33-3.73-0.64-7.47-0.96-11.2c-0.01-0.08,0-0.16-0.01-0.24c-0.08-2.46-0.26-4.93-0.22-7.39c0.08-4.25,0.11-8.51,0.51-12.74
			c0.41-4.44,1.06-8.88,1.94-13.26c0.41-2.02,1.37-4.04,2.52-5.77c1.12-1.7,3.19-2.37,5.13-2.89c1.4-0.37,2.87-0.46,4.3-0.68
			C333.45,262.16,333.48,262.28,333.52,262.39z M350.46,319.3c4.02,0.49,7.2-3.24,7.16-7.66c-0.04-4.62-3.02-7.46-6.48-7.73
			c-5.28-0.4-7.91,3.54-7.92,7.72C343.21,316.03,346.11,319.7,350.46,319.3z"/>
		<path d="M232.15,312.36c0.75,4.13-4.4,7.74-7.66,7.68c-3.88-0.07-6.97-3.13-6.97-7.04c0-2.32,1.13-4.14,2.61-5.73
			c1.55-1.66,3.59-2,5.83-1.92C229.46,305.48,232.15,308.42,232.15,312.36z"/>
		<path d="M350.46,319.3c-4.35,0.4-7.25-3.27-7.24-7.67c0.01-4.18,2.63-8.12,7.92-7.72c3.46,0.26,6.44,3.1,6.48,7.73
			C357.66,316.06,354.48,319.79,350.46,319.3z"/>
	</g>
</g>
</svg>
